<svg xmlns="http://www.w3.org/2000/svg" width="255" height="107" viewBox="0 0 255 107">
  <g id="Grupo_1071926" data-name="Grupo 1071926" transform="translate(-325 -1064)">
    <rect id="Rectángulo_375608" data-name="Rectángulo 375608" width="255" height="91" rx="17" transform="translate(325 1072)" fill="#ece5fe"/>
    <g id="analitica-" transform="translate(399 1064)">
      <path id="Trazado_818083" data-name="Trazado 818083" d="M25.047,98.132H18.359A8.359,8.359,0,0,1,10,89.773V18.359A8.359,8.359,0,0,1,18.359,10h86.1a8.359,8.359,0,0,1,8.359,8.359V89.773a8.359,8.359,0,0,1-8.359,8.359H25.047Z" transform="translate(-7.91 -7.91)" fill="#fff"/>
      <path id="Trazado_818084" data-name="Trazado 818084" d="M104.461,10h-86.1A8.359,8.359,0,0,0,10,18.359v6.688H112.82V18.359A8.359,8.359,0,0,0,104.461,10Z" transform="translate(-7.91 -7.91)" fill="#ff5a5a"/>
      <path id="Trazado_818085" data-name="Trazado 818085" d="M21,82h99.267" transform="translate(-16.614 -64.863)" fill="#231f20"/>
      <rect id="Rectángulo_381520" data-name="Rectángulo 381520" width="14" height="23" transform="translate(11 82)" fill="#a5dc69"/>
      <rect id="Rectángulo_381521" data-name="Rectángulo 381521" width="13" height="28" transform="translate(59 77)" fill="#78d2fa"/>
      <rect id="Rectángulo_381522" data-name="Rectángulo 381522" width="13.375" height="46.096" transform="translate(35.109 58.814)" fill="#f5c86e"/>
      <rect id="Rectángulo_381523" data-name="Rectángulo 381523" width="13.375" height="49.216" transform="translate(81.922 55.694)" fill="#ff5a5a"/>
      <circle id="Elipse_4737" data-name="Elipse 4737" cx="5.434" cy="5.434" r="5.434" transform="translate(35.187 30.499)" fill="#f5c86e"/>
      <circle id="Elipse_4738" data-name="Elipse 4738" cx="5.434" cy="5.434" r="5.434" transform="translate(59.575 55.381)" fill="#78d2fa"/>
      <circle id="Elipse_4739" data-name="Elipse 4739" cx="5.434" cy="5.434" r="5.434" transform="translate(83.176 30.499)" fill="#ff5a5a"/>
      <circle id="Elipse_4740" data-name="Elipse 4740" cx="5.434" cy="5.434" r="5.434" transform="translate(12.819 53.381)" fill="#a5dc69"/>
      <path id="Trazado_818086" data-name="Trazado 818086" d="M99.7,92.058a7.305,7.305,0,0,0,7.3-7.3V10.449A10.461,10.461,0,0,0,96.551,0h-86.1A10.461,10.461,0,0,0,0,10.449V84.761a7.305,7.305,0,0,0,7.3,7.3H9.613V102.82H2.09a2.09,2.09,0,0,0,0,4.18H104.91a2.09,2.09,0,0,0,0-4.18H97.387V92.058ZM10.449,4.18h86.1a6.277,6.277,0,0,1,6.27,6.27v4.6H4.39c-.071,0-.141,0-.21.011V10.449A6.277,6.277,0,0,1,10.449,4.18Zm3.344,98.641V84.012h9.2V102.82Zm23.406,0V60.9h9.2V102.82Zm23.406,0V78.578h9.2V102.82Zm23.406,0V80.3a2.09,2.09,0,0,0-4.18,0V102.82H73.98V76.488a2.09,2.09,0,0,0-2.09-2.09H58.516a2.09,2.09,0,0,0-2.09,2.09V102.82H50.574V58.815a2.09,2.09,0,0,0-2.09-2.09H35.109a2.09,2.09,0,0,0-2.09,2.09V102.82H27.168v-20.9a2.09,2.09,0,0,0-2.09-2.09H11.7a2.09,2.09,0,0,0-2.09,2.09v5.956H7.3A3.121,3.121,0,0,1,4.18,84.761V19.216c.069.007.139.011.21.011H102.82V84.761A3.121,3.121,0,0,1,99.7,87.878H97.387V55.694A2.09,2.09,0,0,0,95.3,53.6H81.922a2.09,2.09,0,0,0-2.09,2.09V66.248a2.09,2.09,0,1,0,4.18,0V57.784h9.2V102.82Z"/>
      <path id="Trazado_818087" data-name="Trazado 818087" d="M214.155,40.18h47.217a2.09,2.09,0,0,0,0-4.18H214.155a2.09,2.09,0,0,0,0,4.18Z" transform="translate(-167.747 -28.477)"/>
      <path id="Trazado_818088" data-name="Trazado 818088" d="M96.09,40.18a2.091,2.091,0,1,0-1.478-.613A2.1,2.1,0,0,0,96.09,40.18Z" transform="translate(-74.355 -28.477)"/>
      <path id="Trazado_818089" data-name="Trazado 818089" d="M56.09,40.18a2.091,2.091,0,1,0-1.478-.613A2.1,2.1,0,0,0,56.09,40.18Z" transform="translate(-42.715 -28.477)"/>
      <path id="Trazado_818090" data-name="Trazado 818090" d="M136.09,40.18a2.091,2.091,0,1,0-1.478-.613A2.1,2.1,0,0,0,136.09,40.18Z" transform="translate(-105.996 -28.477)"/>
      <path id="Trazado_818091" data-name="Trazado 818091" d="M384.09,342.64a2.091,2.091,0,1,0,1.478.612A2.1,2.1,0,0,0,384.09,342.64Z" transform="translate(-302.168 -271.034)"/>
      <path id="Trazado_818092" data-name="Trazado 818092" d="M129.217,150.986a7.535,7.535,0,1,0-6.087-3.11l-13.882,13.882a7.505,7.505,0,0,0-6.938-.169L87.815,147.094a7.524,7.524,0,1,0-12.983.323L62.49,159.758a7.529,7.529,0,1,0,2.956,2.955l12.488-12.488a7.506,7.506,0,0,0,6.924-.176L99.212,164.4a7.523,7.523,0,1,0,12.991.311l14.254-14.254A7.475,7.475,0,0,0,129.217,150.986Zm0-10.867a3.344,3.344,0,1,1-3.344,3.344A3.348,3.348,0,0,1,129.217,140.119ZM58.86,169.689a3.344,3.344,0,1,1,3.344-3.344A3.348,3.348,0,0,1,58.86,169.689Zm22.369-22.882a3.344,3.344,0,1,1,3.344-3.344A3.348,3.348,0,0,1,81.228,146.806Zm24.388,24.882a3.344,3.344,0,1,1,3.344-3.344A3.348,3.348,0,0,1,105.617,171.688Z" transform="translate(-40.608 -107.53)"/>
      <path id="Trazado_818093" data-name="Trazado 818093" d="M133.35,130.2a2.087,2.087,0,1,0-1.48-.612A2.108,2.108,0,0,0,133.35,130.2Z" transform="translate(-103.829 -99.684)"/>
      <path id="Trazado_818094" data-name="Trazado 818094" d="M48.09,130.2H58.121a2.09,2.09,0,0,0,0-4.18H48.09a2.09,2.09,0,0,0,0,4.18Z" transform="translate(-36.387 -99.685)"/>
      <path id="Trazado_818095" data-name="Trazado 818095" d="M58.121,178.2a2.09,2.09,0,0,0,0-4.18H48.09a2.09,2.09,0,0,0,0,4.18Z" transform="translate(-36.387 -137.653)"/>
    </g>
  </g>
</svg>
