<svg xmlns="http://www.w3.org/2000/svg" xmlns:xlink="http://www.w3.org/1999/xlink" width="295" height="330.611" viewBox="0 0 295 330.611">
  <defs>
    <clipPath id="clip-path">
      <rect id="Rectángulo_381571" data-name="Rectángulo 381571" width="278.934" height="330.611" fill="none"/>
    </clipPath>
    <clipPath id="clip-path-3">
      <rect id="Rectángulo_381568" data-name="Rectángulo 381568" width="26.153" height="10.486" fill="none"/>
    </clipPath>
  </defs>
  <g id="Grupo_1071960" data-name="Grupo 1071960" transform="translate(-180 -2323)">
    <g id="Grupo_1071550" data-name="Grupo 1071550" transform="translate(1162.854 12266.321)">
      <path id="web-AdobeStock_200818697" d="M142.215,0h0A142.215,142.215,0,0,1,284.43,142.215V311a0,0,0,0,1,0,0H0a0,0,0,0,1,0,0V142.215A142.215,142.215,0,0,1,142.215,0Z" transform="translate(-972.284 -9925.321)" fill="#d3c3fd"/>
      <path id="Rectángulo_33777" data-name="Rectángulo 33777" d="M74,0h53a74,74,0,0,1,74,74v74.336a0,0,0,0,1,0,0H0a0,0,0,0,1,0,0V74A74,74,0,0,1,74,0Z" transform="translate(-982.854 -9762.657)" fill="#98d1ca"/>
      <g id="Elipse_4715" data-name="Elipse 4715" transform="translate(-982.854 -9943.321)" fill="none" stroke="#283859" stroke-width="3">
        <circle cx="58.168" cy="58.168" r="58.168" stroke="none"/>
        <circle cx="58.168" cy="58.168" r="56.668" fill="none"/>
      </g>
      <circle id="Elipse_4718" data-name="Elipse 4718" cx="24.668" cy="24.668" r="24.668" transform="translate(-737.19 -9925.321)" fill="#8054f8"/>
      <path id="Trazado_113169" data-name="Trazado 113169" d="M15.423,1.412a2.063,2.063,0,0,1,1.459,3.521L13.365,8.451l-1,1,1,1,3.517,3.516a2.063,2.063,0,1,1-2.918,2.918l-3.516-3.516-1-1-1,1L4.934,16.881a2.063,2.063,0,0,1-2.917-2.918l3.516-3.516,1-1-1-1L2.017,4.934A2.063,2.063,0,0,1,4.934,2.016L8.45,5.533l1,1,1-1,3.516-3.517a2.052,2.052,0,0,1,1.459-.6m0-1.412a3.463,3.463,0,0,0-2.458,1.018L9.449,4.534,5.932,1.018a3.475,3.475,0,0,0-4.915,0h0a3.476,3.476,0,0,0,0,4.915L4.534,9.449,1.017,12.966a3.475,3.475,0,1,0,4.915,4.915l3.517-3.517,3.516,3.517a3.476,3.476,0,0,0,4.916,0h0a3.476,3.476,0,0,0,0-4.915L14.364,9.449l3.517-3.516a3.476,3.476,0,0,0,0-4.915h0A3.463,3.463,0,0,0,15.423,0Z" transform="matrix(-0.695, -0.719, 0.719, -0.695, -731.199, -9866.776)" fill="#fff"/>
      <g id="Sustracción_3" data-name="Sustracción 3" transform="translate(-724.381 -9614.321) rotate(-90)" fill="none">
        <path d="M72.236,36.526H0V36.3a36.718,36.718,0,0,1,.734-7.315A36.288,36.288,0,0,1,22.06,2.852,35.935,35.935,0,0,1,56.313,6.2,36.385,36.385,0,0,1,69.4,22.17,36.07,36.07,0,0,1,71.5,28.982a36.709,36.709,0,0,1,.735,7.315c0,.076,0,.148,0,.223v0Z" stroke="none"/>
        <path d="M 69.1243896484375 33.52628326416016 C 69.01523590087891 32.19770812988281 68.82776641845703 30.87826538085938 68.56322479248047 29.58049583435059 C 68.12762451171875 27.4392261505127 67.47842407226562 25.33815574645996 66.63246917724609 23.33282661437988 C 65.80181121826172 21.35813140869141 64.77445983886719 19.45586204528809 63.57806777954102 17.67756652832031 C 62.39177322387695 15.91232013702393 61.03049087524414 14.25354385375977 59.53289413452148 12.74815559387207 C 58.03257369995117 11.24124908447266 56.38202285766602 9.872814178466797 54.62710571289062 8.680896759033203 C 52.86076354980469 7.481249332427979 50.96849060058594 6.44907283782959 49.00171661376953 5.612578868865967 C 47.01311492919922 4.765825748443604 44.92435073852539 4.114319801330566 42.79161071777344 3.675755262374878 C 40.61785888671875 3.227355241775513 38.37289047241211 3.000002384185791 36.11904525756836 3.000002384185791 C 33.86520004272461 3.000002384185791 31.6202335357666 3.227355241775513 29.44449234008789 3.676167011260986 C 27.31925773620605 4.11306095123291 25.22951507568359 4.7648024559021 23.23361015319824 5.613190650939941 C 21.26715087890625 6.449296474456787 19.37546920776367 7.481237888336182 17.60916328430176 8.681696891784668 C 15.85320949554443 9.873072624206543 14.20349216461182 11.24080276489258 12.70495128631592 12.74774360656738 C 11.20401000976562 14.25587272644043 9.842209815979004 15.91450786590576 8.656774520874023 17.6784725189209 C 7.461586475372314 19.45556640625 6.43406867980957 21.35813140869141 5.602692127227783 23.33352088928223 C 4.757304191589355 25.34183692932129 4.108245372772217 27.4436149597168 3.673374652862549 29.58133125305176 C 3.409327745437622 30.87739372253418 3.22219705581665 32.19674301147461 3.113289356231689 33.52628326416016 L 69.1243896484375 33.52628326416016 M 72.23611450195312 36.52628326416016 L -1.801255166355986e-06 36.52628326416016 C -1.801255166355986e-06 36.48852157592773 -1.801255166355986e-06 36.45074462890625 -1.801255166355986e-06 36.41295623779297 C -1.801255166355986e-06 36.37320327758789 -1.801255166355986e-06 36.33542633056641 -1.801255166355986e-06 36.29764938354492 C -1.801255166355986e-06 33.83561325073242 0.2463511377573013 31.37489700317383 0.7337629199028015 28.98244857788086 C 1.207915902137756 26.65162658691406 1.916515827178955 24.35793113708496 2.837680578231812 22.16960144042969 C 3.743621826171875 20.01704978942871 4.864127635955811 17.94204902648926 6.167409896850586 16.00423812866211 C 7.459433555603027 14.08166122436523 8.943504333496094 12.27439022064209 10.57857513427734 10.63149642944336 C 12.21363353729248 8.987260818481445 14.01226902008057 7.496790409088135 15.9248104095459 6.199167251586914 C 17.85456275939941 4.887625694274902 19.91809272766113 3.762978792190552 22.05976295471191 2.852378845214844 C 24.23785781860352 1.926555275917053 26.51926803588867 1.214778780937195 28.84041023254395 0.7376141548156738 C 33.59590530395508 -0.243343785405159 38.64347839355469 -0.2430751025676727 43.39768218994141 0.7376141548156738 C 45.71816253662109 1.214778780937195 47.99957656860352 1.925225853919983 50.17700958251953 2.852378845214844 C 52.31800842285156 3.762978792190552 54.38154983520508 4.887625694274902 56.3126335144043 6.199167251586914 C 58.22318649291992 7.496790409088135 60.02182006835938 8.987260818481445 61.65885543823242 10.63149642944336 C 63.29327011108398 12.27439022064209 64.77602386474609 14.08166122436523 66.06804656982422 16.00423812866211 C 67.37264251708984 17.94337844848633 68.49314117431641 20.0190372467041 69.39777374267578 22.16960144042969 C 70.32093048095703 24.35793113708496 71.02884674072266 26.65162658691406 71.50301361083984 28.98244857788086 C 71.99042510986328 31.37356758117676 72.23809051513672 33.83561325073242 72.23809051513672 36.29764938354492 C 72.23809051513672 36.37320327758789 72.23611450195312 36.44609832763672 72.23611450195312 36.52032089233398 L 72.23611450195312 36.52628326416016 Z" stroke="none" fill="#8054f8"/>
      </g>
    </g>
    <g id="Grupo_1071958" data-name="Grupo 1071958" transform="translate(188 2323)" clip-path="url(#clip-path)">
      <g id="Grupo_1071957" data-name="Grupo 1071957">
        <g id="Grupo_1071956" data-name="Grupo 1071956" clip-path="url(#clip-path)">
          <path id="Trazado_818314" data-name="Trazado 818314" d="M211.065,51.952c1.664,11.5-6.174,22.281-15.1,29.723-3.393,2.829-7.079,5.477-9.46,9.2a19.3,19.3,0,0,0-2.787,7.752c-1.3,9.419,4.754,19.621,13.947,22.049" transform="translate(-182.86 18.954)" fill="none" stroke="#000" stroke-miterlimit="10" stroke-width="1"/>
          <path id="Trazado_818315" data-name="Trazado 818315" d="M209.761,173.111l7.288,94.344H83.867S78.02,198.973,105.9,173.111Z" transform="translate(-51.882 63.156)" fill="#4542a9"/>
          <path id="Trazado_818316" data-name="Trazado 818316" d="M105.987,197.021q4.094,30.629,7.1,61.419" transform="translate(21.189 71.879)" fill="none" stroke="#0a0a0a" stroke-miterlimit="10" stroke-width="1"/>
          <path id="Trazado_818317" data-name="Trazado 818317" d="M113.026,196.9a42.252,42.252,0,0,1-12.9,16.539" transform="translate(29.253 71.834)" fill="none" stroke="#0a0a0a" stroke-miterlimit="10" stroke-width="1"/>
          <path id="Trazado_818318" data-name="Trazado 818318" d="M149.729,189.921q1.566,35.391,5.686,70.607" transform="translate(-80.835 69.289)" fill="none" stroke="#0a0a0a" stroke-miterlimit="10" stroke-width="1"/>
          <path id="Trazado_818319" data-name="Trazado 818319" d="M160.2,187.609c-.15,3.285-.317,6.649-1.594,9.681-1.862,4.422-5.922,7.624-10.343,9.49s-9.233,2.56-13.983,3.239" transform="translate(-64.539 68.446)" fill="none" stroke="#0a0a0a" stroke-miterlimit="10" stroke-width="1"/>
          <path id="Trazado_818320" data-name="Trazado 818320" d="M34.551,62.578A3.475,3.475,0,0,1,36.966,65.1,8.671,8.671,0,0,1,37,68.745a37.905,37.905,0,0,1-3.473,11.009,29.789,29.789,0,0,0,3.348-5.667A4.765,4.765,0,0,1,38.1,72.17c1.361-1.078,3.561-.093,4.277,1.5a7.252,7.252,0,0,1-.167,5.095A38.076,38.076,0,0,1,32.469,93.9a112.5,112.5,0,0,1-14.136,11.4c0-.007-.023-.02-.034-.035C18.271,105.212,4.758,93.661,4,93.5l-.014,0A12.6,12.6,0,0,1,2,90.188C.008,85.737-.21,80.155.134,75.577a5.781,5.781,0,0,1,.752-2.835,3.349,3.349,0,0,1,3.179-1.557A3.7,3.7,0,0,1,6.85,73.227,8.708,8.708,0,0,1,7.6,76.415c.2,1.736.486,3.489.853,5.222,1.338-1.6,2.788-3.086,4.12-4.668a75.105,75.105,0,0,0,3.714-13.775,11.634,11.634,0,0,1,1.056-3.766,3.56,3.56,0,0,1,3.138-2.006,3.458,3.458,0,0,1,2.76,2.131,8.669,8.669,0,0,1,.569,3.6,35.641,35.641,0,0,1-.217,3.927c.762-1.807,1.443-3.645,2.054-5.5a11.4,11.4,0,0,1,1.6-3.569,3.575,3.575,0,0,1,3.393-1.518,3.471,3.471,0,0,1,2.414,2.518,8.649,8.649,0,0,1,.033,3.648l-.007.029a2.742,2.742,0,0,1,1.475-.106" transform="translate(236.161 20.589)" fill="#fca689"/>
          <rect id="Rectángulo_381566" data-name="Rectángulo 381566" width="19.721" height="10.485" transform="matrix(-0.922, -0.387, 0.387, -0.922, 253.816, 129.623)" fill="#fca689"/>
          <path id="Trazado_818321" data-name="Trazado 818321" d="M14.452,61.049c-1.731.4-2.595,2.308-3.128,4C10.127,68.856,9.276,72.858,7.1,76.2" transform="translate(254.792 22.273)" fill="none" stroke="#b56a51" stroke-miterlimit="10" stroke-width="1"/>
          <path id="Trazado_818322" data-name="Trazado 818322" d="M17.26,71.007c.343,1.209.041,2.547.476,3.725a4.763,4.763,0,0,0,2.61,2.469c1.115.515,2.323.808,3.437,1.328A9.435,9.435,0,0,1,29,85.349" transform="translate(226.374 25.906)" fill="none" stroke="#b56a51" stroke-miterlimit="10" stroke-width="1"/>
          <path id="Trazado_818323" data-name="Trazado 818323" d="M66.691,92.055l35.872,57.4,31.551-64.24,30.844,14.066L131.136,188.3c-6.645,16.91-28.2,21.444-42.112,8.856L21.4,127.1C10.561,115.868,9.768,98.5,19.579,87.152c12.7-14.683,36.415-12.214,47.113,4.9" transform="translate(96.623 28.281)" fill="#d9ddfe"/>
          <path id="Trazado_818324" data-name="Trazado 818324" d="M51.787,155.256c-.3-6.622-2.124-13.471-.158-19.726a38.9,38.9,0,0,1,3.378-7c2.4-4.337,4.5-8.829,6.6-13.317" transform="translate(148.093 42.033)" fill="none" stroke="#0a0a0a" stroke-miterlimit="10" stroke-width="1"/>
          <path id="Trazado_818325" data-name="Trazado 818325" d="M84.5,21.047c6.826-8.384,17.849-15.159,28.6-12.5,8.874,2.192,15,10.322,17.4,18.79,1.9,6.708,2.023,14.048,5.784,19.993,2.125,3.36,5.266,6.012,7.752,9.138a28.853,28.853,0,0,1,6.114,20.973c-.583,5.212-2.619,10.3-2.283,15.535.532,8.3,6.9,15.384,7.908,23.646.958,7.883-3.374,15.869-10.014,20.624-21.54,15.424-61.1,5.6-69.7-18.6a44.657,44.657,0,0,1-.691-26.158C77.6,83.845,81,75.411,81.733,66.543c1.238-14.894-7.913-32.375,2.769-45.5" transform="translate(22.367 2.903)" fill="#35319e"/>
          <path id="Trazado_818326" data-name="Trazado 818326" d="M75.238,35.563c2.773,5.16,7.728,8.7,12.072,12.633s8.428,8.97,8.42,14.829c-.007,4.937-2.9,9.319-5.036,13.771s-3.457,10.066-.588,14.082" transform="translate(80.518 12.975)" fill="none" stroke="#35319e" stroke-miterlimit="10" stroke-width="1"/>
          <rect id="Rectángulo_381567" data-name="Rectángulo 381567" width="26.153" height="31.395" transform="translate(96.261 84.514)" fill="#fca689"/>
          <g id="Grupo_1071955" data-name="Grupo 1071955" transform="translate(96.261 84.514)" opacity="0.478" style="mix-blend-mode: multiply;isolation: isolate">
            <g id="Grupo_1071954" data-name="Grupo 1071954" transform="translate(0)">
              <g id="Grupo_1071953" data-name="Grupo 1071953" clip-path="url(#clip-path-3)">
                <path id="Trazado_818327" data-name="Trazado 818327" d="M140.834,61.923v10.3c-1.216.12-2.464.18-3.711.18a37.227,37.227,0,0,1-22.442-7.5V61.923Z" transform="translate(-114.681 -61.923)" fill="#fca689"/>
              </g>
            </g>
          </g>
          <path id="Trazado_818328" data-name="Trazado 818328" d="M96.663,49.488a37.31,37.31,0,1,1,37.31,37.31,37.31,37.31,0,0,1-37.31-37.31" transform="translate(-24.278 4.443)" fill="#fca689"/>
          <path id="Trazado_818329" data-name="Trazado 818329" d="M209.75,129.721c-.883,6.563-2.161,16.135-3.566,26.865-2.809,21.366-6.158,47.324-7.977,63.16-31.784,19.738-105.707,0-105.707,0L90.213,201.9,78.454,109.811c-1.387-10.824,8.5-20.819,23.752-24.061l11.021-2.335,42.1-8.912a49.066,49.066,0,0,1,22.528.517c9.85,2.631,17.81,8.317,20.618,15.868l8.788,20.976a34.232,34.232,0,0,1,2.485,17.857" transform="translate(-38.003 26.792)" fill="#e3e6ff"/>
          <path id="Trazado_818330" data-name="Trazado 818330" d="M116.831,160.9a3.469,3.469,0,0,1,.669,3.426,8.654,8.654,0,0,1-1.946,3.085,37.935,37.935,0,0,1-8.878,7.38,29.787,29.787,0,0,0,5.882-2.956,4.755,4.755,0,0,1,2.066-.949c1.728-.169,3.046,1.848,2.786,3.575a7.245,7.245,0,0,1-2.895,4.194,38.072,38.072,0,0,1-16.377,7.459,112.616,112.616,0,0,1-18.053,1.938.433.433,0,0,1-.011-.051c0-.052-5.117-17.077-5.661-17.624l-.01-.01a12.653,12.653,0,0,1,.117-3.854c.73-4.823,3.566-9.636,6.331-13.3a5.805,5.805,0,0,1,2.167-1.978,3.351,3.351,0,0,1,3.516.409,3.7,3.7,0,0,1,1.237,3.225,8.684,8.684,0,0,1-1.1,3.086c-.768,1.567-1.478,3.2-2.107,4.852,1.987-.618,4.015-1.088,5.99-1.7a75.049,75.049,0,0,0,10.576-9.577,11.682,11.682,0,0,1,2.926-2.6,3.569,3.569,0,0,1,3.725.011,3.463,3.463,0,0,1,1.168,3.285,8.69,8.69,0,0,1-1.469,3.334,35.706,35.706,0,0,1-2.307,3.186c1.617-1.108,3.186-2.286,4.7-3.514a11.371,11.371,0,0,1,3.276-2.137,3.577,3.577,0,0,1,3.674.56,3.467,3.467,0,0,1,.669,3.424,8.648,8.648,0,0,1-1.946,3.086l-.02.02a2.721,2.721,0,0,1,1.3.708" transform="translate(59.845 54.149)" fill="#fca689"/>
          <rect id="Rectángulo_381569" data-name="Rectángulo 381569" width="19.722" height="10.485" transform="translate(131.911 243.357) rotate(-97.864)" fill="#fca689"/>
          <path id="Trazado_818331" data-name="Trazado 818331" d="M190.547,129.806,156.03,188.028l71.555-1.47,1.668,33.857-94.613,10.833c-18.073,1.863-32-15.207-27.205-33.341l31.182-92.241c5-14.788,20.068-23.47,34.65-19.963,18.874,4.537,27.572,26.741,17.279,44.1" transform="translate(-95.647 30.984)" fill="#d9ddfe"/>
          <path id="Trazado_818332" data-name="Trazado 818332" d="M126.314,193.91q32.738-3.257,65.371-7.541" transform="translate(-85.148 67.993)" fill="none" stroke="#0a0a0a" stroke-miterlimit="10" stroke-width="1"/>
          <path id="Trazado_818333" data-name="Trazado 818333" d="M143.259,170.083c5.745-3.307,10.991-8.073,17.451-9.2a38.975,38.975,0,0,1,7.77-.214c4.953.136,9.909-.059,14.86-.253" transform="translate(-99.93 58.525)" fill="none" stroke="#0a0a0a" stroke-miterlimit="10" stroke-width="1"/>
          <path id="Trazado_818334" data-name="Trazado 818334" d="M161.985,151.332l-7.43,12.794" transform="translate(-93.992 55.211)" fill="none" stroke="#0a0a0a" stroke-miterlimit="10" stroke-width="1"/>
          <path id="Trazado_818335" data-name="Trazado 818335" d="M117.965,186.136l7.879-.609" transform="translate(-7.912 67.686)" fill="none" stroke="#0a0a0a" stroke-miterlimit="10" stroke-width="1"/>
          <path id="Trazado_818337" data-name="Trazado 818337" d="M166.533,75.019c-.486,7.395-7.2,13.755-15.181,16.434-8.068,2.709-17.144,2.192-25.571.468a89.747,89.747,0,0,1-23.878-8.5l42.1-8.915a49.085,49.085,0,0,1,22.528.517" transform="translate(-26.679 26.792)" fill="#fca689"/>
          <path id="Trazado_818338" data-name="Trazado 818338" d="M225.63,19.419c0-18.548-34.709-32.951-53.279,1.445-5.967,11.055-22.619,9.484-33.567,15.78-13.176,7.578-17.12,20.475-15.275,30.578.626,3.438,2.386,6.685,2.9,10.137,1,6.675-2.747,13.2-7.216,18.79s-9.824,10.789-12.752,17.052c-4.5,9.633-3.091,23.541,3.857,32.288,18.225,22.933,62.886,15.84,71.827-13.414,3.08-10.082-1.449-21.616,4.523-29.989,4.428-6.21,11.166-11.574,14.2-18.472,2.749-6.26,1.46-13.273-.979-19.622-1.95-5.081-4.636-10.461-2.764-15.562a16.2,16.2,0,0,1,9.954-9.316c16.625-5.626,18.574-14.7,18.574-19.695" transform="translate(-88.433 0)" fill="#4542a9"/>
          <path id="Trazado_818339" data-name="Trazado 818339" d="M120.335,39.209a2.482,2.482,0,1,0-2.481,2.57,2.527,2.527,0,0,0,2.481-2.57" transform="translate(1.133 13.367)"/>
          <path id="Trazado_818340" data-name="Trazado 818340" d="M124.449,31.443a3.613,3.613,0,0,1,.161,2.872c-.789,1.851-2.99,1.747-7.808,2.644-2.18.405-3.187-3.293-.8-4.806,1.788-1.131,7.3-2.765,8.443-.71" transform="translate(-2.348 11.113)" fill="#4542a9"/>
          <path id="Trazado_818341" data-name="Trazado 818341" d="M99.657,36.536a2.482,2.482,0,1,1,2.481,2.57,2.527,2.527,0,0,1-2.481-2.57" transform="translate(38.301 12.392)"/>
          <path id="Trazado_818342" data-name="Trazado 818342" d="M97.681,28.491a3.613,3.613,0,0,0-.161,2.872c.789,1.852,2.99,1.747,7.808,2.644,2.18.405,3.187-3.293.8-4.806-1.788-1.131-7.3-2.765-8.443-.71" transform="translate(38.646 10.036)" fill="#4542a9"/>
          <path id="Trazado_818343" data-name="Trazado 818343" d="M102.619,33.966q.575,3.136,1.152,6.271a1.77,1.77,0,0,0,.375.944,2.3,2.3,0,0,0,1.3.439,3.749,3.749,0,1,1-1.565,7.329" transform="translate(30.375 12.392)" fill="none" stroke="#b56a51" stroke-miterlimit="10" stroke-width="1"/>
          <path id="Trazado_818344" data-name="Trazado 818344" d="M103.477,45.948a12.214,12.214,0,0,0,8.013,5.428,15.633,15.633,0,0,0,9.694-1.354" transform="translate(16.522 16.763)" fill="none" stroke="#b56a51" stroke-miterlimit="10" stroke-width="1"/>
          <path id="Trazado_818345" data-name="Trazado 818345" d="M202.8,52.74c1.664,11.5-6.174,22.281-15.1,29.723-3.393,2.829-7.079,5.477-9.46,9.2a19.3,19.3,0,0,0-2.787,7.752c-1.3,9.417,4.754,19.621,13.947,22.047" transform="translate(-163.307 19.241)" fill="none" stroke="#4542a9" stroke-miterlimit="10" stroke-width="1"/>
        </g>
      </g>
    </g>
  </g>
</svg>
