<svg xmlns="http://www.w3.org/2000/svg" width="129" height="195" viewBox="0 0 129 195">
  <g id="Grupo_1072595" data-name="Grupo 1072595" transform="translate(-198 -4233)">
    <g id="Grupo_1071848" data-name="Grupo 1071848" transform="translate(198 4233)">
      <rect id="Rectángulo_375766" data-name="Rectángulo 375766" width="129" height="103" rx="10" transform="translate(0 92)" fill="#8054f8"/>
      <circle id="Elipse_4726" data-name="Elipse 4726" cx="61" cy="61" r="61" transform="translate(3)" fill="#fff"/>
    </g>
    <g id="grafico-empresarial" transform="translate(216.5 4284)">
      <g id="Grupo_1072607" data-name="Grupo 1072607" transform="translate(0 0)">
        <g id="Grupo_1072604" data-name="Grupo 1072604" transform="translate(1.348 1.348)">
          <path id="Trazado_819878" data-name="Trazado 819878" d="M94.342,339.135c-2.3.348-5.052-.056-5.052,4.591-1.078,6.368-.924,12.124.992,17,2.46,2.547,5.139,2.826,8.119,0l.24-.625a21.791,21.791,0,0,0-.24-16.244h0A4.78,4.78,0,0,0,94.342,339.135Z" transform="translate(-74.046 -279.544)" fill="#6ed5a1"/>
          <path id="Trazado_819879" data-name="Trazado 819879" d="M77.214,338.88a44.9,44.9,0,0,0-4.691-.054,4.78,4.78,0,0,0-4.781,4.781v16.869c1.694,2.332,3.5,2.358,5.412,0V343.607A4.781,4.781,0,0,1,77.214,338.88Z" transform="translate(-56.917 -279.29)" fill="#46cc8d"/>
          <path id="Trazado_819880" data-name="Trazado 819880" d="M170.16,309.014c-2.3.348-5.413,0-5.283,4.727,0,4.622-1.272,18.522,1.224,22.281q3.338,4.871,8.119,0l.918-2.761a27,27,0,0,0-.378-18.1l-.54-1.422A4.781,4.781,0,0,0,170.16,309.014Z" transform="translate(-136.333 -254.836)" fill="#ff938a"/>
          <path id="Trazado_819881" data-name="Trazado 819881" d="M148.458,313.486a4.781,4.781,0,0,1,4.059-4.727,44.906,44.906,0,0,0-4.691-.054,4.78,4.78,0,0,0-4.781,4.781v22.281c1.658,2.666,3.46,2.706,5.412,0V313.486Z" transform="translate(-118.69 -254.581)" fill="#fd7a6e"/>
          <path id="Trazado_819882" data-name="Trazado 819882" d="M245.846,278.893c-2.3.348-5.412,0-5.292,4.727,0,2.647-1.022,24.9,1.233,27.693q3.578,4.658,8.119,0l1.17-5.642a41.782,41.782,0,0,0-.217-17.955l-.953-4.1A4.781,4.781,0,0,0,245.846,278.893Z" transform="translate(-198.487 -230.127)" fill="#83deff"/>
          <path id="Trazado_819883" data-name="Trazado 819883" d="M223.761,283.365a4.781,4.781,0,0,1,4.059-4.727,44.916,44.916,0,0,0-4.691-.054,4.78,4.78,0,0,0-4.781,4.781v27.693a2.758,2.758,0,0,0,5.412,0Z" transform="translate(-180.462 -229.872)" fill="#5ad6ff"/>
          <path id="Trazado_819884" data-name="Trazado 819884" d="M318.361,248.767c-4.691-.054-6.134,2.211-6.134,4.606,0,1.585,0,31.933,2.075,33.226,2.5,2.982,5.19,3.228,8.119,0l1.853-6.715a36.485,36.485,0,0,0,.091-19.071l-1.944-7.32A4.781,4.781,0,0,0,318.361,248.767Z" transform="translate(-257.471 -205.413)" fill="#eaaa83"/>
          <path id="Trazado_819885" data-name="Trazado 819885" d="M299.064,253.244a4.781,4.781,0,0,1,4.059-4.727,44.909,44.909,0,0,0-4.691-.054,4.78,4.78,0,0,0-4.781,4.781V286.35c1.4,2.99,3.178,3.221,5.412,0Z" transform="translate(-242.234 -205.164)" fill="#e4996d"/>
          <path id="Trazado_819886" data-name="Trazado 819886" d="M111.964,128.113l-4.537-2.271a32.718,32.718,0,0,0-24.635-1.9l-.7.224c-2.5,10.758,2.234,20.341,15.365,24.562A21.907,21.907,0,0,0,111.964,128.113Z" transform="translate(-68.163 -101.74)" fill="#ff938a"/>
          <path id="Trazado_819887" data-name="Trazado 819887" d="M22.227,107.367q-.463-1.61-.8-3.214c-2.3-5.371-6.308-7.035-11.663-5.769A21.91,21.91,0,0,0,36.8,128.715C30.357,124.312,24.923,116.752,22.227,107.367Z" transform="translate(-7.5 -81.723)" fill="#fd7a6e"/>
          <path id="Trazado_819888" data-name="Trazado 819888" d="M72.346,50.348l7.97,3.943c4.34-7.191,4.213-14.494,0-21.9A21.832,21.832,0,0,0,72.2,33.946C68.755,38.97,68.58,44.6,72.346,50.348Z" transform="translate(-58.416 -27.918)" fill="#f8ea69"/>
          <path id="Trazado_819889" data-name="Trazado 819889" d="M31.639,41.049A21.973,21.973,0,0,0,20.121,51.682l11.663,5.769A40.32,40.32,0,0,1,31.639,41.049Z" transform="translate(-17.853 -35.021)" fill="#f8dc11"/>
          <path id="Trazado_819890" data-name="Trazado 819890" d="M392.648,218.65c-2.3.348-6.314,2.331-6.314,4.727,0,1.585-.541,35.181,2.255,38.518q4.059,4.871,8.119,0V223.377A4.781,4.781,0,0,0,392.648,218.65Z" transform="translate(-318.227 -180.709)" fill="#f8ea69"/>
          <path id="Trazado_819891" data-name="Trazado 819891" d="M374.367,223.123a4.781,4.781,0,0,1,4.059-4.727,44.909,44.909,0,0,0-4.691-.054,4.78,4.78,0,0,0-4.781,4.781v38.518c.7,2.864,4.623,3.338,5.412,0Z" transform="translate(-304.006 -180.455)" fill="#f8dc11"/>
          <path id="Trazado_819892" data-name="Trazado 819892" d="M387.748,27.676V14.386A6.887,6.887,0,0,0,380.862,7.5H364.687c-4.521,8.936-3.037,19.379,5.223,27.062h10.952A6.886,6.886,0,0,0,387.748,27.676Z" transform="translate(-298.443 -7.5)" fill="#e5eef9"/>
          <path id="Trazado_819893" data-name="Trazado 819893" d="M320.832,7.5H315.6a6.887,6.887,0,0,0-6.886,6.886V27.676a6.887,6.887,0,0,0,6.886,6.886h10.456C321.391,26.867,319.041,16.425,320.832,7.5Z" transform="translate(-254.589 -7.5)" fill="#d9e7f9"/>
          <path id="Trazado_819894" data-name="Trazado 819894" d="M155.679,28.858a4.219,4.219,0,0,1-4.137,5.015H129.38V11.712A4.218,4.218,0,0,1,134.4,7.576,26.8,26.8,0,0,1,155.679,28.858Z" transform="translate(-107.48 -7.501)" fill="#6ed5a1"/>
          <path id="Trazado_819895" data-name="Trazado 819895" d="M138.644,463.377a4.059,4.059,0,0,0-4.059-4.059H64.223c-6.134,0-5.713,1.817-5.713,4.059s.361,4.059,5.713,4.059h70.361A4.059,4.059,0,0,0,138.644,463.377Z" transform="translate(-49.339 -378.132)" fill="#7a8fa5"/>
          <path id="Trazado_819896" data-name="Trazado 819896" d="M18.325,463.377a4.059,4.059,0,0,1,4.059-4.059H11.559a4.059,4.059,0,0,0,0,8.119H22.384A4.059,4.059,0,0,1,18.325,463.377Z" transform="translate(-7.5 -378.132)" fill="#6a829a"/>
        </g>
        <g id="Grupo_1072606" data-name="Grupo 1072606">
          <g id="Grupo_1072605" data-name="Grupo 1072605">
            <path id="Trazado_819897" data-name="Trazado 819897" d="M86.593,462.632H5.407a5.407,5.407,0,0,1,0-10.814h6.765a1.348,1.348,0,0,1,0,2.7H5.407a2.712,2.712,0,0,0,0,5.423H86.593a2.712,2.712,0,0,0,0-5.423H79.828a1.348,1.348,0,0,1,0-2.7h6.765a5.407,5.407,0,0,1,0,10.814Z" transform="translate(0 -370.632)"/>
            <path id="Trazado_819898" data-name="Trazado 819898" d="M75.121,355.678H61.59a1.348,1.348,0,0,1-1.348-1.348V337.462a6.136,6.136,0,0,1,6.129-6.129H70.34a6.136,6.136,0,0,1,6.129,6.129,1.348,1.348,0,0,1-2.7,0,3.437,3.437,0,0,0-3.433-3.433H66.371a3.437,3.437,0,0,0-3.433,3.433v15.521H75.121a1.348,1.348,0,0,1,0,2.7Z" transform="translate(-49.417 -271.797)"/>
            <path id="Trazado_819899" data-name="Trazado 819899" d="M150.424,330.969H136.893a1.348,1.348,0,0,1-1.348-1.348V307.341a6.136,6.136,0,0,1,6.129-6.129h3.969a6.136,6.136,0,0,1,6.129,6.129,1.348,1.348,0,0,1-2.7,0,3.437,3.437,0,0,0-3.433-3.433h-3.969a3.437,3.437,0,0,0-3.433,3.433v20.933h12.183a1.348,1.348,0,0,1,0,2.7Z" transform="translate(-111.189 -247.088)"/>
            <path id="Trazado_819900" data-name="Trazado 819900" d="M225.727,306.261H212.2a1.348,1.348,0,0,1-1.348-1.348V277.22a6.136,6.136,0,0,1,6.129-6.129h3.969a6.136,6.136,0,0,1,6.129,6.129,1.348,1.348,0,0,1-2.7,0,3.437,3.437,0,0,0-3.433-3.433h-3.969a3.437,3.437,0,0,0-3.433,3.433v26.346h12.183a1.348,1.348,0,1,1,0,2.7Z" transform="translate(-172.961 -222.379)"/>
            <path id="Trazado_819901" data-name="Trazado 819901" d="M301.03,281.552H287.5a1.348,1.348,0,0,1-1.348-1.348V247.1a6.136,6.136,0,0,1,6.129-6.129h3.969a6.136,6.136,0,0,1,6.129,6.129,1.348,1.348,0,0,1-2.7,0,3.437,3.437,0,0,0-3.433-3.433H292.28a3.437,3.437,0,0,0-3.433,3.433v31.758H301.03a1.348,1.348,0,0,1,0,2.7Z" transform="translate(-234.733 -197.671)"/>
            <path id="Trazado_819902" data-name="Trazado 819902" d="M376.334,256.843H362.8a1.348,1.348,0,0,1-1.348-1.348V216.977a6.136,6.136,0,0,1,6.129-6.129h3.969a6.136,6.136,0,0,1,6.129,6.129v38.518A1.348,1.348,0,0,1,376.334,256.843Zm-12.183-2.7h10.836V216.977a3.437,3.437,0,0,0-3.433-3.433h-3.969a3.437,3.437,0,0,0-3.433,3.433Z" transform="translate(-296.506 -172.961)"/>
            <path id="Trazado_819903" data-name="Trazado 819903" d="M71,171.366a23.208,23.208,0,0,1-12.146-3.421,1.348,1.348,0,1,1,1.41-2.3,20.558,20.558,0,0,0,31.289-17.53,1.348,1.348,0,0,1,2.7,0A23.274,23.274,0,0,1,71,171.366Z" transform="translate(-47.75 -120.397)"/>
            <path id="Trazado_819904" data-name="Trazado 819904" d="M6.985,64.154a1.344,1.344,0,0,1-1-.445A23.249,23.249,0,0,1,23.248,24.89a1.348,1.348,0,0,1,0,2.7A20.553,20.553,0,0,0,7.985,61.9a1.348,1.348,0,0,1-1,2.251Z" transform="translate(0 -20.418)"/>
            <path id="Trazado_819905" data-name="Trazado 819905" d="M145.391,29.07H123.229a1.348,1.348,0,0,1-1.348-1.348V5.56A5.567,5.567,0,0,1,127.444,0a5.644,5.644,0,0,1,1.05.1,28.28,28.28,0,0,1,22.357,22.355,5.566,5.566,0,0,1-5.461,6.614Zm-20.814-2.7h20.814a2.849,2.849,0,0,0,2.2-1.034,2.883,2.883,0,0,0,.612-2.383,25.565,25.565,0,0,0-20.21-20.208,2.949,2.949,0,0,0-.549-.052,2.869,2.869,0,0,0-2.868,2.863Z" transform="translate(-99.981 -0.002)"/>
            <path id="Línea_205" data-name="Línea 205" d="M13.478,4.906a1.342,1.342,0,0,1-.6-.14L-6.751-4.946a1.348,1.348,0,0,1-.61-1.805,1.348,1.348,0,0,1,1.805-.61L14.076,2.35a1.348,1.348,0,0,1-.6,2.556Z" transform="translate(9.769 24.163)"/>
            <path id="Trazado_819906" data-name="Trazado 819906" d="M330.853,29.758h-2.381a1.348,1.348,0,0,1,0-2.7h2.381a5.545,5.545,0,0,0,5.538-5.54V8.233A5.544,5.544,0,0,0,330.853,2.7H309.445a5.545,5.545,0,0,0-5.54,5.538v13.29a5.546,5.546,0,0,0,5.54,5.54h12.738a1.348,1.348,0,0,1,0,2.7H309.445a8.244,8.244,0,0,1-8.235-8.235V8.233A8.244,8.244,0,0,1,309.445,0h21.408a8.243,8.243,0,0,1,8.233,8.233v13.29A8.244,8.244,0,0,1,330.853,29.758Z" transform="translate(-247.086 0)"/>
            <path id="Línea_206" data-name="Línea 206" d="M7.379-4.8H-6.152A1.348,1.348,0,0,1-7.5-6.152,1.348,1.348,0,0,1-6.152-7.5H7.379A1.348,1.348,0,0,1,8.726-6.152,1.348,1.348,0,0,1,7.379-4.8Z" transform="translate(76.508 14.266)"/>
            <path id="Línea_207" data-name="Línea 207" d="M7.379-4.8H-6.152A1.348,1.348,0,0,1-7.5-6.152,1.348,1.348,0,0,1-6.152-7.5H7.379A1.348,1.348,0,0,1,8.726-6.152,1.348,1.348,0,0,1,7.379-4.8Z" transform="translate(76.508 21.031)"/>
            <path id="Línea_208" data-name="Línea 208" d="M7.379-4.8H-6.152A1.348,1.348,0,0,1-7.5-6.152,1.348,1.348,0,0,1-6.152-7.5H7.379A1.348,1.348,0,0,1,8.726-6.152,1.348,1.348,0,0,1,7.379-4.8Z" transform="translate(76.508 27.796)"/>
            <path id="Línea_209" data-name="Línea 209" d="M-4.8-4.8H-6.152A1.348,1.348,0,0,1-7.5-6.152,1.348,1.348,0,0,1-6.152-7.5H-4.8A1.348,1.348,0,0,1-3.452-6.152,1.348,1.348,0,0,1-4.8-4.8Z" transform="translate(68.39 14.266)"/>
            <path id="Línea_210" data-name="Línea 210" d="M-4.8-4.8H-6.152A1.348,1.348,0,0,1-7.5-6.152,1.348,1.348,0,0,1-6.152-7.5H-4.8A1.348,1.348,0,0,1-3.452-6.152,1.348,1.348,0,0,1-4.8-4.8Z" transform="translate(68.39 21.031)"/>
            <path id="Línea_211" data-name="Línea 211" d="M-4.8-4.8H-6.152A1.348,1.348,0,0,1-7.5-6.152,1.348,1.348,0,0,1-6.152-7.5H-4.8A1.348,1.348,0,0,1-3.452-6.152,1.348,1.348,0,0,1-4.8-4.8Z" transform="translate(68.39 27.796)"/>
          </g>
        </g>
      </g>
    </g>
  </g>
</svg>
