<svg xmlns="http://www.w3.org/2000/svg" width="544" height="117" viewBox="0 0 544 117">
  <g id="Grupo_1076076" data-name="Grupo 1076076" transform="translate(9470 9417)">
    <g id="Grupo_1072232" data-name="Grupo 1072232" transform="translate(-9470.456 -9416.86)">
      <rect id="Rectángulo_375741" data-name="Rectángulo 375741" width="138" height="117" rx="10" transform="translate(0.456 -0.14)" fill="#fff"/>
      <text id="Serpiente" transform="translate(38.456 106.86)" fill="#12263f" font-size="14" font-family="Roboto-Bold, Roboto" font-weight="700"><tspan x="0" y="0">Serpiente</tspan></text>
      <g id="serpiente-2" data-name="serpiente" transform="translate(30.1 13.279)">
        <path id="Trazado_818621" data-name="Trazado 818621" d="M8.081,125.32l-2.635-2.133a15.578,15.578,0,0,1,2.781-8.217,1.164,1.164,0,0,0-1.837-1.429,17.66,17.66,0,0,0-3.27,9.6L.5,124.956a1.163,1.163,0,0,0-.294,1.619,1.1,1.1,0,0,0,1.62.294l2.409-1.67c.6.48,1.556,1.195,2.376,1.925a1.137,1.137,0,0,0,1.637-.167A1.163,1.163,0,0,0,8.081,125.32Zm0,0" transform="translate(0.001 -95.88)" fill="#ff929f"/>
        <path id="Trazado_818622" data-name="Trazado 818622" d="M56.871,43.686s11.048-7.22,9.694-23.465c-1.258-15.1-22.481-28.608-43.715-12.3-3.8,2.916-4.377,8.416-3.566,12.137a4.363,4.363,0,0,0,7.13,2.364c5.73-5.009,14.931-11.043,22.316-6.492,13.847,8.533-9.466,25.721-9.466,25.721Zm0,0" transform="translate(-16.065 -0.501)" fill="#7fb762"/>
        <path id="Trazado_818623" data-name="Trazado 818623" d="M151.738,195.909l17.608,2.031a24.417,24.417,0,0,0,9.316-15.346,46.662,46.662,0,0,1-15.214,1.041C159.557,190.144,151.738,195.909,151.738,195.909Zm0,0" transform="translate(-128.54 -154.755)" fill="#6b9e4c"/>
        <path id="Trazado_818624" data-name="Trazado 818624" d="M72.586,220.983s-6.787-6.41,0-12.82c5.322-5.027,21.115,4.525,34.5,2.64s17.312,7.442,11.5,13.951C118.022,224.943,72.586,220.983,72.586,220.983Zm0,0" transform="translate(-58.934 -175.162)" fill="#8dc971"/>
        <path id="Trazado_818625" data-name="Trazado 818625" d="M82.132,213.162c.005-4.764,11.911-3.182,11.914-3.182-9.3-1.879-17.824-5.248-21.459-1.814-6.787,6.41,0,12.82,0,12.82s17.238,1.5,30.611,2.612C93.283,218.35,82.127,217.317,82.132,213.162Zm0,0" transform="translate(-58.934 -175.164)" fill="#7fb762"/>
        <path id="Trazado_818626" data-name="Trazado 818626" d="M42.051,293.512s-10.057-1.187-6.5-11.261c3.751-10.611,20.407-3.281,34.411-3.085s29.6-5.63,26.565,12.082C95.808,290.769,42.051,293.512,42.051,293.512Zm0,0" transform="translate(-29.472 -234.319)" fill="#9ad880"/>
        <path id="Trazado_818627" data-name="Trazado 818627" d="M52.395,285.015c-1.544-5.4,4.523-7.3,4.526-7.3-9.879-1.544-18.755-2.859-21.367,4.533-3.561,10.074,6.5,11.261,6.5,11.261s9.3-.474,20.214-.994C57.645,288.541,53.532,289,52.395,285.015Zm0,0" transform="translate(-29.471 -234.32)" fill="#8dc971"/>
        <path id="Trazado_818628" data-name="Trazado 818628" d="M49.1,286.286a6.946,6.946,0,0,0,6.409-9.618c-6.025-.516-10.926.147-13.079,4.607A6.948,6.948,0,0,0,49.1,286.286Zm0,0" transform="translate(-35.946 -234.32)" fill="#ffcd00"/>
        <path id="Trazado_818629" data-name="Trazado 818629" d="M212.994,322.518a4.725,4.725,0,1,1-4.725-4.725A4.725,4.725,0,0,1,212.994,322.518Zm0,0" transform="translate(-172.424 -269.284)" fill="#ffde55"/>
        <path id="Trazado_818630" data-name="Trazado 818630" d="M80.7,284.049a23.155,23.155,0,0,1-20.41,11.839H14.9a7.286,7.286,0,0,0,0,14.572H62.952c19.555,0,22.133-15.392,21.737-25.42A2.137,2.137,0,0,0,80.7,284.049Zm0,0" transform="translate(-6.449 -239.787)" fill="#b2e59c"/>
        <path id="Trazado_818631" data-name="Trazado 818631" d="M21.327,374.743a7.286,7.286,0,0,1,7.286-7.286H14.9a7.286,7.286,0,0,0,0,14.572H28.613A7.286,7.286,0,0,1,21.327,374.743Zm0,0" transform="translate(-6.449 -311.355)" fill="#9ad880"/>
        <path id="Trazado_818632" data-name="Trazado 818632" d="M67.85,78.218c-1.692.514-2.733,2.023-2.324,3.371s2.113,2.024,3.805,1.51,2.733-2.023,2.324-3.371S69.543,77.7,67.85,78.218Zm0,0" transform="translate(-55.433 -66.19)" fill="#fff"/>
        <path id="Trazado_818633" data-name="Trazado 818633" d="M57.853,68.205A1.164,1.164,0,0,1,56.4,67.43l-.561-1.848a1.164,1.164,0,1,1,2.227-.677l.561,1.849A1.163,1.163,0,0,1,57.853,68.205Zm0,0" transform="translate(-47.261 -54.359)" fill="#57565c"/>
        <path id="Trazado_818634" data-name="Trazado 818634" d="M157.392,418.426a7.485,7.485,0,0,0-7.451,6.779h14.9A7.485,7.485,0,0,0,157.392,418.426Zm0,0" transform="translate(-127.018 -354.532)" fill="#ffe98d"/>
        <path id="Trazado_818635" data-name="Trazado 818635" d="M313.409,374.139a6.514,6.514,0,0,0,5.426-10.12,24.131,24.131,0,0,1-5.018.526h-6.149a6.515,6.515,0,0,0,5.742,9.594Zm0,0" transform="translate(-259.975 -308.443)" fill="#ffe98d"/>
        <path id="Trazado_818636" data-name="Trazado 818636" d="M289.033,238.817a6.579,6.579,0,0,0,6.561-6.12,18.447,18.447,0,0,0-8.163-.437,28.18,28.18,0,0,1-4.97.227A6.577,6.577,0,0,0,289.033,238.817Zm0,0" transform="translate(-239.277 -196.618)" fill="#ffcd00"/>
        <g id="Grupo_1072223" data-name="Grupo 1072223" transform="translate(24.263 0)">
          <path id="Trazado_818637" data-name="Trazado 818637" d="M159.483,6a6.111,6.111,0,0,0,11.411-3.58A25.7,25.7,0,0,0,159.209.567,6.1,6.1,0,0,0,159.483,6Zm0,0" transform="translate(-158.699 -0.499)" fill="#ffb000"/>
          <path id="Trazado_818638" data-name="Trazado 818638" d="M234.334,115.385a4.852,4.852,0,0,0-6.4-7.144c2.555,2.582,2.655,5.682,1.507,8.783A4.851,4.851,0,0,0,234.334,115.385Zm0,0" transform="translate(-217.352 -91.105)" fill="#ffb000"/>
        </g>
      </g>
    </g>
    <g id="Grupo_1072234" data-name="Grupo 1072234" transform="translate(-9064.456 -9416.86)">
      <rect id="Rectángulo_375741-2" data-name="Rectángulo 375741" width="138" height="117" rx="10" transform="translate(0.456 -0.14)" fill="#fff"/>
      <text id="Resultado_Es_una_serpiente" data-name="Resultado
Es una serpiente" transform="translate(69.456 52.861)" fill="#12263f" font-size="14" font-family="Roboto-Bold, Roboto" font-weight="700"><tspan x="-31.644" y="0">Resultado</tspan><tspan x="-52.199" y="21">Es una serpiente</tspan></text>
    </g>
    <path id="Unión_2" data-name="Unión 2" d="M11.151,42.415H0v-30.3H11.151V0L37,27.5,11.151,55Z" transform="translate(-9318 -9386)" fill="#d8dcfc"/>
    <path id="Unión_3" data-name="Unión 3" d="M11.151,42.415H0v-30.3H11.151V0L37,27.5,11.151,55Z" transform="translate(-9115 -9386)" fill="#d8dcfc"/>
    <g id="Grupo_1072233" data-name="Grupo 1072233" transform="translate(-679 371)">
      <g id="Grupo_1072228" data-name="Grupo 1072228" transform="translate(-8588.456 -9787.86)">
        <rect id="Rectángulo_375741-3" data-name="Rectángulo 375741" width="138" height="117" rx="10" transform="translate(0.456 -0.14)" fill="#fff"/>
      </g>
      <g id="ordenador-portatil" transform="translate(-8571 -9807.821)">
        <path id="Trazado_818639" data-name="Trazado 818639" d="M229.835,186.13H195.188a1.531,1.531,0,0,1-1.531-1.531v-40.02a1.531,1.531,0,0,1,1.531-1.531h34.647a1.531,1.531,0,0,1,1.531,1.531V184.6A1.531,1.531,0,0,1,229.835,186.13Zm-33.117-3.061H228.3V146.109H196.718Z" transform="translate(-154.134 -87.731)"/>
        <path id="Trazado_818640" data-name="Trazado 818640" d="M119.5,148.426V86.781a7,7,0,0,0-6.928-7.063H32.288a7,7,0,0,0-6.928,7.063v61.6Z" transform="translate(-20.184 -37.326)" fill="#53515e"/>
        <path id="Trazado_818641" data-name="Trazado 818641" d="M224.856,130.463H246.64a8.8,8.8,0,1,0,17.476-.032,5.062,5.062,0,0,0,4.5-5.03V81.077a6.807,6.807,0,0,0-4.085-1.36H216.28v42.17A8.576,8.576,0,0,0,224.856,130.463Z" transform="translate(-172.14 -37.325)" fill="#474756"/>
        <path id="Trazado_818642" data-name="Trazado 818642" d="M61.482,413.939H1.021A1.021,1.021,0,0,0,0,414.96v2.316a9.977,9.977,0,0,0,9.977,9.977H94.516a9.977,9.977,0,0,0,9.977-9.977V414.96a1.021,1.021,0,0,0-1.021-1.021Z" transform="translate(0 -303.336)" fill="#dfe2ea"/>
        <path id="Trazado_818643" data-name="Trazado 818643" d="M2.784,446.558a9.98,9.98,0,0,0,9.409,6.657H96.732a9.979,9.979,0,0,0,9.409-6.657H2.784Z" transform="translate(-2.216 -329.298)" fill="#c7cad3"/>
        <rect id="Rectángulo_381747" data-name="Rectángulo 381747" width="79.156" height="52.82" transform="translate(13.046 50.156)" fill="#fff"/>
        <path id="Trazado_818644" data-name="Trazado 818644" d="M264.341,117.757H216.28v34.515a8.576,8.576,0,0,0,8.576,8.576H246.64A8.789,8.789,0,0,0,254,170.576h2.753a8.787,8.787,0,0,0,7.359-9.76c.077-.008.151-.024.226-.036V117.757Z" transform="translate(-172.14 -67.602)" fill="#e9ebf2"/>
        <circle id="Elipse_4778" data-name="Elipse 4778" cx="3.235" cy="3.235" r="3.235" transform="translate(80.009 91.01)" fill="#00aaf0"/>
        <path id="Trazado_818645" data-name="Trazado 818645" d="M276.79,32.821H241.482a4.234,4.234,0,0,0-4.234,4.234V83.792a4.234,4.234,0,0,0,4.234,4.234h27.682l2.911,2.911,2.911-2.911h1.8a4.234,4.234,0,0,0,4.234-4.234V37.055A4.234,4.234,0,0,0,276.79,32.821Z" transform="translate(-188.828)" fill="#aae1ff"/>
        <g id="Grupo_1072229" data-name="Grupo 1072229" transform="translate(48.42 32.821)">
          <path id="Trazado_818646" data-name="Trazado 818646" d="M276.79,32.821H241.482a4.234,4.234,0,0,0-4.234,4.234V50.073h43.776V37.055A4.234,4.234,0,0,0,276.79,32.821Z" transform="translate(-237.248 -32.821)" fill="#6f4bef"/>
          <circle id="Elipse_4779" data-name="Elipse 4779" cx="1.617" cy="1.617" r="1.617" transform="translate(35.978 22.409)" fill="#6f4bef"/>
        </g>
        <path id="Trazado_818647" data-name="Trazado 818647" d="M289.222,145.858H265.057a1.617,1.617,0,0,1,0-3.235h24.164a1.617,1.617,0,0,1,0,3.235Z" transform="translate(-209.675 -87.393)" fill="#00aaf0"/>
        <path id="Trazado_818648" data-name="Trazado 818648" d="M128.346,250.2h-8.4a1.617,1.617,0,0,1,0-3.235h8.4a1.617,1.617,0,0,1,0,3.235Z" transform="translate(-94.175 -170.439)" fill="#dfe2ea"/>
        <circle id="Elipse_4780" data-name="Elipse 4780" cx="1.617" cy="1.617" r="1.617" transform="translate(53.766 62.58)" fill="#6f4bef"/>
        <circle id="Elipse_4781" data-name="Elipse 4781" cx="1.617" cy="1.617" r="1.617" transform="translate(19.093 76.525)" fill="#ffdc64"/>
        <path id="Trazado_818649" data-name="Trazado 818649" d="M128.346,279.785h-8.4a1.617,1.617,0,0,1,0-3.235h8.4a1.617,1.617,0,1,1,0,3.235Z" transform="translate(-94.175 -193.987)" fill="#dfe2ea"/>
        <circle id="Elipse_4782" data-name="Elipse 4782" cx="1.617" cy="1.617" r="1.617" transform="translate(19.093 82.564)" fill="#ffdc64"/>
        <path id="Trazado_818650" data-name="Trazado 818650" d="M128.346,311.484h-8.4a1.617,1.617,0,1,1,0-3.235h8.4a1.617,1.617,0,0,1,0,3.235Z" transform="translate(-94.175 -219.216)" fill="#dfe2ea"/>
        <circle id="Elipse_4783" data-name="Elipse 4783" cx="1.617" cy="1.617" r="1.617" transform="translate(19.093 89.034)" fill="#ffdc64"/>
        <path id="Trazado_818651" data-name="Trazado 818651" d="M128.346,341.95h-8.4a1.617,1.617,0,0,1,0-3.235h8.4a1.617,1.617,0,0,1,0,3.235Z" transform="translate(-94.175 -243.465)" fill="#dfe2ea"/>
        <circle id="Elipse_4784" data-name="Elipse 4784" cx="1.617" cy="1.617" r="1.617" transform="translate(19.093 95.25)" fill="#ffdc64"/>
        <g id="Grupo_1072230" data-name="Grupo 1072230" transform="translate(60.234 62.58)">
          <path id="Trazado_818652" data-name="Trazado 818652" d="M320.921,181.87H296.756a1.617,1.617,0,1,1,0-3.235h24.164a1.617,1.617,0,1,1,0,3.235Z" transform="translate(-295.139 -178.635)" fill="#00aaf0"/>
          <path id="Trazado_818653" data-name="Trazado 818653" d="M310.606,211.808H296.757a1.617,1.617,0,1,1,0-3.235h13.849a1.617,1.617,0,1,1,0,3.235Z" transform="translate(-295.14 -202.463)" fill="#00aaf0"/>
        </g>
        <circle id="Elipse_4785" data-name="Elipse 4785" cx="3.337" cy="3.337" r="3.337" transform="translate(54.783 38.241)" fill="#fff082"/>
        <path id="Trazado_818654" data-name="Trazado 818654" d="M113.866,164.009H102.558a1.076,1.076,0,0,1-1.076-1.076V151.625a1.076,1.076,0,0,1,1.076-1.076h11.308a1.076,1.076,0,0,1,1.076,1.076v11.308A1.076,1.076,0,0,1,113.866,164.009Z" transform="translate(-80.771 -93.701)" fill="#ff9ea4"/>
      </g>
    </g>
  </g>
</svg>
