<svg xmlns="http://www.w3.org/2000/svg" xmlns:xlink="http://www.w3.org/1999/xlink" width="646" height="117" viewBox="0 0 646 117">
  <defs>
    <clipPath id="clip-path">
      <path id="path4158" d="M0-682.665H72.006v72.006H0Z" transform="translate(0 682.665)"/>
    </clipPath>
  </defs>
  <g id="Grupo_1076075" data-name="Grupo 1076075" transform="translate(9503 9788)">
    <g id="Grupo_1072226" data-name="Grupo 1072226" transform="translate(-9350.728 -9787.859)">
      <rect id="Rectángulo_375740" data-name="Rectángulo 375740" width="138" height="117" rx="10" transform="translate(-0.272 -0.14)" fill="#fff"/>
      <text id="León" transform="translate(52.728 106.86)" fill="#12263f" font-size="14" font-family="Roboto-Bold, Roboto" font-weight="700"><tspan x="0" y="0">León</tspan></text>
      <g id="leon" transform="translate(28.33 13.28)">
        <path id="Trazado_818601" data-name="Trazado 818601" d="M40.283,2A2.594,2.594,0,0,0,41.6,1.642,12.659,12.659,0,0,1,48.079,0a22.969,22.969,0,0,1,10.4,2.6l-2.6,2.6A29.77,29.77,0,0,1,63.329,8c10.789,5.653,15.936,17.992,15.936,17.992h-5.2c6.5,10.4,6.5,24.689,6.5,24.689l-3.9-1.3s0,11.695-5.2,19.491l-3.9-2.6a34.147,34.147,0,0,1-10.4,10.4l-2.6-2.6s-6.5,5.2-14.294,6.5c-7.8-1.3-14.294-6.5-14.294-6.5l-2.6,2.6a34.147,34.147,0,0,1-10.4-10.4l-3.9,2.6c-5.2-7.8-5.2-19.491-5.2-19.491L0,50.677S0,36.384,6.5,25.988H1.3S6.447,13.65,17.236,8A29.77,29.77,0,0,1,24.69,5.2l-2.6-2.6A22.968,22.968,0,0,1,32.487,0a12.658,12.658,0,0,1,6.478,1.642A2.594,2.594,0,0,0,40.282,2" transform="translate(-0.001)" fill="#d26437"/>
        <path id="Trazado_818602" data-name="Trazado 818602" d="M29.46,14.331S33.217,6.66,39.54,1.885a2.613,2.613,0,0,1-.575-.243A12.657,12.657,0,0,0,32.487,0a22.969,22.969,0,0,0-10.4,2.6l2.6,2.6A29.77,29.77,0,0,0,17.236,8C6.447,13.649,1.3,25.988,1.3,25.988H6.5C0,36.384,0,50.677,0,50.677l3.9-1.3s0,11.695,5.2,19.491l3.9-2.6a34.147,34.147,0,0,0,10.4,10.4l2.6-2.6s6.5,5.2,14.294,6.5C40.283,80.564,30.862,76.665,29.46,14.331Z" transform="translate(-0.001)" fill="#b44632"/>
        <path id="Trazado_818603" data-name="Trazado 818603" d="M335.069,49.637a4.7,4.7,0,0,1,5.6,5.022c-.369,3.872-3.213,10.7-7.112,14.72l-12.52-12.6C325.83,52.968,331.789,50.273,335.069,49.637Z" transform="translate(-270.518 -41.752)" fill="#ebaf4b"/>
        <path id="Trazado_818604" data-name="Trazado 818604" d="M342.607,78.45c3.99-3.05,9.888-7.062,11.522-7.226,1.877-.189,3.048,2.4,2.314,5.2-.637,2.427-3.068,6.878-5.488,10.432Z" transform="translate(-288.698 -60.009)" fill="#e18c46"/>
        <path id="Trazado_818605" data-name="Trazado 818605" d="M71.684,49.637a4.7,4.7,0,0,0-5.6,5.022c.369,3.872,3.213,10.7,7.112,14.72l12.52-12.6C80.922,52.968,74.963,50.273,71.684,49.637Z" transform="translate(-55.671 -41.752)" fill="#ebaf4b"/>
        <path id="Trazado_818606" data-name="Trazado 818606" d="M94.115,78.45c-3.99-3.05-9.888-7.062-11.522-7.226-1.878-.189-3.048,2.4-2.314,5.2.637,2.427,3.068,6.878,5.488,10.432Z" transform="translate(-67.46 -60.009)" fill="#e18c46"/>
        <path id="Trazado_818607" data-name="Trazado 818607" d="M116.875,92.228c-5.129-3.989-15.593,2.6-15.593,2.6s-10.464-6.588-15.593-2.6c-11.695,9.1-14.294,35.084-12.994,40.282.946,3.782,9.1,10.4,18.192,12.994h20.791c9.1-2.6,17.246-9.212,18.192-12.994C131.168,127.312,128.569,101.323,116.875,92.228Z" transform="translate(-61 -76.635)" fill="#ffc850"/>
        <path id="Trazado_818608" data-name="Trazado 818608" d="M80.706,140.216c-1-6.232,1.362-33.884,9.753-49.21a7.038,7.038,0,0,0-4.77,1.262c-11.695,9.1-14.294,35.084-12.994,40.282.569,2.277,3.759,5.576,8.185,8.412C80.813,140.709,80.744,140.454,80.706,140.216Z" transform="translate(-61 -76.676)" fill="#ebaf4b"/>
        <path id="Trazado_818609" data-name="Trazado 818609" d="M129.875,309.161c-.946,3.782-9.1,10.4-18.192,12.994H90.892c-9.1-2.6-17.246-9.212-18.192-12.994a8,8,0,0,1-.149-.848,27.615,27.615,0,0,0,.149,7.362c.946,3.782,9.1,10.4,18.192,12.994h20.791c9.1-2.6,17.246-9.212,18.192-12.994a27.615,27.615,0,0,0,.149-7.362A7.977,7.977,0,0,1,129.875,309.161Z" transform="translate(-61.006 -259.8)" fill="#faebc8"/>
        <path id="Trazado_818610" data-name="Trazado 818610" d="M187.462,414.692a8.721,8.721,0,0,0,8.6,7.307h4.359a8.721,8.721,0,0,0,8.6-7.256l-10.775-1.84Z" transform="translate(-157.965 -347.933)" fill="#f5dcb4"/>
        <path id="Trazado_818611" data-name="Trazado 818611" d="M179.645,346.839a9.228,9.228,0,0,0-7.147,3.046,9.228,9.228,0,0,0-7.147-3.046c-4.665,0-8.446,2.909-8.446,6.5s3.781,6.5,8.446,6.5a9.228,9.228,0,0,0,7.147-3.046,9.228,9.228,0,0,0,7.147,3.046c4.665,0,8.446-2.909,8.446-6.5S184.309,346.839,179.645,346.839Z" transform="translate(-132.216 -292.264)" fill="#faebc8"/>
        <path id="Trazado_818612" data-name="Trazado 818612" d="M173.944,376.805a9.788,9.788,0,0,1-6.184-2.176.682.682,0,0,0-.857,0,9.783,9.783,0,0,1-6.182,2.176,9.993,9.993,0,0,1-9.946-10.018,1.3,1.3,0,1,1,2.6,0,7.391,7.391,0,0,0,7.347,7.419,7.208,7.208,0,0,0,4.557-1.6,3.264,3.264,0,0,1,4.108,0,7.215,7.215,0,0,0,4.558,1.6,7.391,7.391,0,0,0,7.347-7.419,1.3,1.3,0,0,1,2.6,0A9.994,9.994,0,0,1,173.944,376.805Z" transform="translate(-127.051 -307.978)" fill="#d4af91"/>
        <path id="Trazado_818613" data-name="Trazado 818613" d="M208.136,345.151l2.76,2.3a6.638,6.638,0,0,0,8.5,0l2.76-2.3a1.7,1.7,0,0,0-1.082-3.01H209.218A1.7,1.7,0,0,0,208.136,345.151Z" transform="translate(-174.865 -288.305)" fill="#5d5360"/>
        <path id="Trazado_818614" data-name="Trazado 818614" d="M249.042,143.982a1.3,1.3,0,0,1-1.3-1.3V132.074a1.3,1.3,0,0,1,2.6,0v10.608A1.3,1.3,0,0,1,249.042,143.982Z" transform="translate(-208.761 -110.197)" fill="#ffdc64"/>
        <path id="Trazado_818615" data-name="Trazado 818615" d="M152.544,248.58h0a3.9,3.9,0,0,1-3.9-3.9v-1.3a3.9,3.9,0,0,1,3.9-3.9h0a3.9,3.9,0,0,1,3.9,3.9v1.3A3.9,3.9,0,0,1,152.544,248.58Z" transform="translate(-125.257 -201.801)" fill="#4b3f4e"/>
        <path id="Trazado_818616" data-name="Trazado 818616" d="M173.42,239.484v4.548a1.949,1.949,0,1,0,3.9,0v-.65A3.9,3.9,0,0,0,173.42,239.484Z" transform="translate(-146.132 -201.801)" fill="#5d5360"/>
        <ellipse id="Elipse_4776" data-name="Elipse 4776" cx="1.299" cy="1.299" rx="1.299" ry="1.299" transform="translate(25.988 38.982)" fill="#fff"/>
        <path id="Trazado_818617" data-name="Trazado 818617" d="M317.706,248.58h0a3.9,3.9,0,0,1-3.9-3.9v-1.3a3.9,3.9,0,0,1,3.9-3.9h0a3.9,3.9,0,0,1,3.9,3.9v1.3A3.9,3.9,0,0,1,317.706,248.58Z" transform="translate(-264.43 -201.801)" fill="#4b3f4e"/>
        <path id="Trazado_818618" data-name="Trazado 818618" d="M338.582,239.484v4.548a1.949,1.949,0,1,0,3.9,0v-.65A3.9,3.9,0,0,0,338.582,239.484Z" transform="translate(-285.306 -201.801)" fill="#5d5360"/>
        <ellipse id="Elipse_4777" data-name="Elipse 4777" cx="1.299" cy="1.299" rx="1.299" ry="1.299" transform="translate(51.976 38.982)" fill="#fff"/>
        <path id="Trazado_818619" data-name="Trazado 818619" d="M215.926,347.254l-2.76-3.174a2.759,2.759,0,0,1-.614-1.938h-3.334a1.7,1.7,0,0,0-1.082,3.01l2.76,2.3a6.631,6.631,0,0,0,6.592,1.1A6.61,6.61,0,0,1,215.926,347.254Z" transform="translate(-174.865 -288.305)" fill="#4b3f4e"/>
        <path id="Trazado_818620" data-name="Trazado 818620" d="M72.7,309.161a8,8,0,0,1-.149-.848,27.614,27.614,0,0,0,.149,7.362c.569,2.277,3.759,5.576,8.185,8.412-.067-.253-.136-.508-.174-.746a35.549,35.549,0,0,1-.174-5.993C76.294,314.563,73.255,311.377,72.7,309.161Z" transform="translate(-61.007 -259.8)" fill="#f5dcb4"/>
      </g>
    </g>
    <g id="Grupo_1072227" data-name="Grupo 1072227" transform="translate(-9503 -9787.859)">
      <rect id="Rectángulo_375739" data-name="Rectángulo 375739" width="138" height="117" rx="10" transform="translate(0 -0.14)" fill="#fff"/>
      <text id="Vaca_" data-name="Vaca " transform="translate(52 106.86)" fill="#12263f" font-size="14" font-family="Roboto-Bold, Roboto" font-weight="700"><tspan x="0" y="0">Vaca </tspan></text>
      <g id="g4152" transform="translate(32.756 11.509)">
        <g id="g4154" transform="translate(0 0)">
          <g id="g4156" clip-path="url(#clip-path)">
            <g id="g4162" transform="translate(53.987 4.286)">
              <path id="path4164" d="M-53.94-121.577l-6.36-11.31c4.347-1.64,9.24-3.276,13.964-2.993a5.1,5.1,0,0,1,3.047,1.147c1.632,1.5.868,3.806-.3,5.327a22.945,22.945,0,0,1-5.565,4.842c-.363.245-4.687,3.169-4.788,2.988" transform="translate(60.3 135.912)" fill="#c6c6c6"/>
            </g>
            <g id="g4166" transform="translate(53.987 4.286)">
              <path id="path4168" d="M-118.426-36.257a5.1,5.1,0,0,1,3.047,1.147,3.114,3.114,0,0,1,.247.256c.81-1.447,1.11-3.252-.247-4.5a5.1,5.1,0,0,0-3.047-1.147c-4.724-.282-9.617,1.353-13.964,2.993l1.978,3.517c3.824-1.358,7.967-2.507,11.987-2.267" transform="translate(132.39 40.533)" fill="#b7b7b7"/>
            </g>
            <g id="g4170" transform="translate(0.071 4.286)">
              <path id="path4172" d="M-98.273-121.577l6.36-11.31c-4.347-1.64-9.24-3.276-13.964-2.993a5.1,5.1,0,0,0-3.047,1.147c-1.632,1.5-.868,3.806.3,5.327a22.95,22.95,0,0,0,5.565,4.842c.363.245,4.687,3.169,4.789,2.988" transform="translate(109.861 135.912)" fill="#c6c6c6"/>
            </g>
            <g id="g4174" transform="translate(0.071 4.286)">
              <path id="path4176" d="M-16.938-44.431a5.1,5.1,0,0,1,3.047-1.147A29.778,29.778,0,0,1-2.7-43.59l1.717-3.054c-4.347-1.64-9.24-3.276-13.964-2.993A5.1,5.1,0,0,0-18-48.49c-1.616,1.485-.882,3.761.265,5.283a2.817,2.817,0,0,1,.8-1.223" transform="translate(18.936 49.67)" fill="#b7b7b7"/>
            </g>
            <g id="g4178" transform="translate(5.033 0)">
              <path id="path4180" d="M-523.814-286.137c0,18.634-13.827,33.74-30.883,33.74s-30.883-15.106-30.883-33.74,13.827-33.74,30.883-33.74,30.883,15.106,30.883,33.74" transform="translate(585.58 319.877)" fill="#fff8e6"/>
            </g>
            <g id="g4182" transform="translate(5.033 0)">
              <path id="path4184" d="M-110.126-293.432c0-16.9,11.379-30.9,26.224-33.358a28.466,28.466,0,0,0-8.327-1.242c-17.056,0-30.883,15.106-30.883,33.74s13.827,33.74,30.883,33.74a28.541,28.541,0,0,0,4.658-.382c-13.011-3.971-22.556-17.016-22.556-32.5" transform="translate(123.112 328.032)" fill="#fff1cf"/>
            </g>
            <g id="g4186" transform="translate(34.007 0)">
              <path id="path4188" d="M-231.9-123.837c-5.571-8.821-14.884-14.6-25.435-14.6-.413,0-.823.012-1.231.029a15.49,15.49,0,0,0-.678,4.546,15.509,15.509,0,0,0,15.514,15.5,15.483,15.483,0,0,0,11.831-5.476" transform="translate(259.246 138.44)" fill="#575757"/>
            </g>
            <g id="g4190" transform="translate(34.007 0)">
              <path id="path4192" d="M-5.752-.247A15.49,15.49,0,0,0-6.431,4.3c0,.154,0,.307.007.459A28.957,28.957,0,0,1,3.806.966,28.528,28.528,0,0,0-.26.043l-.034,0Q-.526,0-.759-.027l-.1-.012q-.2-.026-.406-.05L-1.392-.1l-.371-.039-.157-.015-.35-.03L-2.443-.2l-.34-.022-.181-.011L-3.3-.249l-.182-.008c-.12,0-.24-.007-.36-.01L-4-.271q-.259,0-.519,0c-.215,0-.43,0-.644.009q-.294.008-.588.02" transform="translate(6.431 0.276)" fill="#454545"/>
            </g>
            <g id="g4194" transform="translate(5.033 21.332)">
              <path id="path4196" d="M-41.974,0a15.908,15.908,0,0,0-2.887.265,36.419,36.419,0,0,0-2.063,12.144,35.765,35.765,0,0,0,5.555,19.307l.148-.056A15.839,15.839,0,0,0-26.136,15.839,15.839,15.839,0,0,0-41.974,0" transform="translate(46.924)" fill="#575757"/>
            </g>
            <g id="g4198" transform="translate(5.033 21.332)">
              <path id="path4200" d="M-110.126-112.527a36.6,36.6,0,0,1,1.42-10.137,15.77,15.77,0,0,0-9.456-3.132,15.922,15.922,0,0,0-2.887.265,36.419,36.419,0,0,0-2.063,12.144,35.764,35.764,0,0,0,5.555,19.307l.148-.056a15.781,15.781,0,0,0,10.1-4.289,36.244,36.244,0,0,1-2.82-14.1" transform="translate(123.112 125.796)" fill="#454545"/>
            </g>
            <g id="g4202" transform="translate(16.805 0.571)">
              <path id="path4204" d="M-28.761-3.9a2.917,2.917,0,0,0-1.808-.441c-1.254.182-1.637,1.516-1.577,2.61a13.123,13.123,0,0,0,1.066,4.08,27.076,27.076,0,0,0,1.3,2.954,7.1,7.1,0,0,0,6.648-3.287c-1.523-2.176-3.3-4.525-5.626-5.915" transform="translate(32.152 4.364)" fill="#ffd3bc"/>
            </g>
            <g id="g4206" transform="translate(16.805 0.571)">
              <path id="path4208" d="M-37.287-56.9a13.119,13.119,0,0,1-1.066-4.08,3.134,3.134,0,0,1,.459-1.917c-.131-.087-.264-.172-.4-.252a2.918,2.918,0,0,0-1.808-.441c-1.254.182-1.637,1.516-1.577,2.61a13.123,13.123,0,0,0,1.066,4.08,27.075,27.075,0,0,0,1.3,2.954,6.586,6.586,0,0,0,3.088-.412c-.358-.771-.991-2.368-1.06-2.542" transform="translate(41.684 63.605)" fill="#ffbe9c"/>
            </g>
            <g id="g4210" transform="translate(2.006 29.321)">
              <path id="path4212" d="M-575.167-181c0,11.787-15.182,21.342-33.911,21.342s-33.91-9.555-33.91-21.342,15.182-21.342,33.91-21.342,33.911,9.555,33.911,21.342" transform="translate(642.988 202.341)" fill="#ffd3bc"/>
            </g>
            <g id="g4214" transform="translate(46.011 0.571)">
              <path id="path4216" d="M-47.71-3.9A2.916,2.916,0,0,1-45.9-4.345c1.254.182,1.637,1.516,1.577,2.61a13.123,13.123,0,0,1-1.066,4.08,27.049,27.049,0,0,1-1.3,2.954,7.1,7.1,0,0,1-6.649-3.287C-51.812-.164-50.031-2.514-47.71-3.9" transform="translate(53.336 4.364)" fill="#ffd3bc"/>
            </g>
            <g id="g4218" transform="translate(2.006 29.563)">
              <path id="path4220" d="M-409.916-328.919c-18.728,0-33.91-9.555-33.91-21.342,0-7.206,5.675-13.578,14.365-17.442-16.3,1.554-28.79,10.409-28.79,21.1,0,11.787,15.182,21.342,33.91,21.342a48.518,48.518,0,0,0,19.545-3.9c-1.67.159-3.38.242-5.12.242" transform="translate(458.251 367.703)" fill="#ffbe9c"/>
            </g>
            <g id="g4222" transform="translate(46.011 0.571)">
              <path id="path4224" d="M-66.112-22.918a3.3,3.3,0,0,1,1.218-.436c-.037-1.007-.462-2.085-1.579-2.247a2.917,2.917,0,0,0-1.808.441c-2.321,1.39-4.1,3.74-5.626,5.915A7.925,7.925,0,0,0-71.7-17.055a19.927,19.927,0,0,1,5.588-5.862" transform="translate(73.908 25.62)" fill="#ffbe9c"/>
            </g>
            <g id="g4226" transform="translate(20.988 36.95)">
              <path id="path4228" d="M-42.465-22.316a2.57,2.57,0,0,1-2.5,2.632,2.57,2.57,0,0,1-2.5-2.632,2.57,2.57,0,0,1,2.5-2.631,2.57,2.57,0,0,1,2.5,2.631" transform="translate(47.472 24.948)" fill="#ffa1ac"/>
            </g>
            <g id="g4230" transform="translate(46.126 36.95)">
              <path id="path4232" d="M-42.465-22.316a2.57,2.57,0,0,1-2.5,2.632,2.57,2.57,0,0,1-2.5-2.632,2.57,2.57,0,0,1,2.5-2.631,2.57,2.57,0,0,1,2.5,2.631" transform="translate(47.472 24.948)" fill="#ffa1ac"/>
            </g>
            <g id="g4234" transform="translate(25.894 22.343)">
              <path id="path4236" d="M-8.945-6.167A1.055,1.055,0,0,1-10-7.222V-8.945A1.055,1.055,0,0,1-8.945-10,1.055,1.055,0,0,1-7.89-8.945v1.723A1.055,1.055,0,0,1-8.945-6.167Z" transform="translate(10 10)" fill="#495560"/>
            </g>
            <g id="g4238" transform="translate(43.829 22.343)">
              <path id="path4240" d="M-8.945-6.167A1.055,1.055,0,0,1-10-7.222V-8.945A1.055,1.055,0,0,1-8.945-10,1.055,1.055,0,0,1-7.89-8.945v1.723A1.055,1.055,0,0,1-8.945-6.167Z" transform="translate(10 10)" fill="#495560"/>
            </g>
            <g id="g4242" transform="translate(32.569 44.917)">
              <path id="path4244" d="M-6.581-6.814A4.191,4.191,0,0,1-9.74-8.252a1.055,1.055,0,0,1,.1-1.488,1.055,1.055,0,0,1,1.488.1,2.082,2.082,0,0,0,1.569.715,2.083,2.083,0,0,0,1.57-.715,1.055,1.055,0,0,1,1.488-.1,1.055,1.055,0,0,1,.1,1.488A4.192,4.192,0,0,1-6.581-6.814Z" transform="translate(10 10)" fill="#495560"/>
            </g>
          </g>
        </g>
      </g>
    </g>
    <g id="Grupo_1072225" data-name="Grupo 1072225" transform="translate(-9198.456 -9787.86)">
      <rect id="Rectángulo_375741" data-name="Rectángulo 375741" width="138" height="117" rx="10" transform="translate(0.456 -0.14)" fill="#fff"/>
      <text id="Serpiente" transform="translate(38.456 106.86)" fill="#12263f" font-size="14" font-family="Roboto-Bold, Roboto" font-weight="700"><tspan x="0" y="0">Serpiente</tspan></text>
      <g id="serpiente-2" data-name="serpiente" transform="translate(30.1 13.279)">
        <path id="Trazado_818621" data-name="Trazado 818621" d="M8.081,125.32l-2.635-2.133a15.578,15.578,0,0,1,2.781-8.217,1.164,1.164,0,0,0-1.837-1.429,17.66,17.66,0,0,0-3.27,9.6L.5,124.956a1.163,1.163,0,0,0-.294,1.619,1.1,1.1,0,0,0,1.62.294l2.409-1.67c.6.48,1.556,1.195,2.376,1.925a1.137,1.137,0,0,0,1.637-.167A1.163,1.163,0,0,0,8.081,125.32Zm0,0" transform="translate(0.001 -95.88)" fill="#ff929f"/>
        <path id="Trazado_818622" data-name="Trazado 818622" d="M56.871,43.686s11.048-7.22,9.694-23.465c-1.258-15.1-22.481-28.608-43.715-12.3-3.8,2.916-4.377,8.416-3.566,12.137a4.363,4.363,0,0,0,7.13,2.364c5.73-5.009,14.931-11.043,22.316-6.492,13.847,8.533-9.466,25.721-9.466,25.721Zm0,0" transform="translate(-16.065 -0.501)" fill="#7fb762"/>
        <path id="Trazado_818623" data-name="Trazado 818623" d="M151.738,195.909l17.608,2.031a24.417,24.417,0,0,0,9.316-15.346,46.662,46.662,0,0,1-15.214,1.041C159.557,190.144,151.738,195.909,151.738,195.909Zm0,0" transform="translate(-128.54 -154.755)" fill="#6b9e4c"/>
        <path id="Trazado_818624" data-name="Trazado 818624" d="M72.586,220.983s-6.787-6.41,0-12.82c5.322-5.027,21.115,4.525,34.5,2.64s17.312,7.442,11.5,13.951C118.022,224.943,72.586,220.983,72.586,220.983Zm0,0" transform="translate(-58.934 -175.162)" fill="#8dc971"/>
        <path id="Trazado_818625" data-name="Trazado 818625" d="M82.132,213.162c.005-4.764,11.911-3.182,11.914-3.182-9.3-1.879-17.824-5.248-21.459-1.814-6.787,6.41,0,12.82,0,12.82s17.238,1.5,30.611,2.612C93.283,218.35,82.127,217.317,82.132,213.162Zm0,0" transform="translate(-58.934 -175.164)" fill="#7fb762"/>
        <path id="Trazado_818626" data-name="Trazado 818626" d="M42.051,293.512s-10.057-1.187-6.5-11.261c3.751-10.611,20.407-3.281,34.411-3.085s29.6-5.63,26.565,12.082C95.808,290.769,42.051,293.512,42.051,293.512Zm0,0" transform="translate(-29.472 -234.319)" fill="#9ad880"/>
        <path id="Trazado_818627" data-name="Trazado 818627" d="M52.395,285.015c-1.544-5.4,4.523-7.3,4.526-7.3-9.879-1.544-18.755-2.859-21.367,4.533-3.561,10.074,6.5,11.261,6.5,11.261s9.3-.474,20.214-.994C57.645,288.541,53.532,289,52.395,285.015Zm0,0" transform="translate(-29.471 -234.32)" fill="#8dc971"/>
        <path id="Trazado_818628" data-name="Trazado 818628" d="M49.1,286.286a6.946,6.946,0,0,0,6.409-9.618c-6.025-.516-10.926.147-13.079,4.607A6.948,6.948,0,0,0,49.1,286.286Zm0,0" transform="translate(-35.946 -234.32)" fill="#ffcd00"/>
        <path id="Trazado_818629" data-name="Trazado 818629" d="M212.994,322.518a4.725,4.725,0,1,1-4.725-4.725A4.725,4.725,0,0,1,212.994,322.518Zm0,0" transform="translate(-172.424 -269.284)" fill="#ffde55"/>
        <path id="Trazado_818630" data-name="Trazado 818630" d="M80.7,284.049a23.155,23.155,0,0,1-20.41,11.839H14.9a7.286,7.286,0,0,0,0,14.572H62.952c19.555,0,22.133-15.392,21.737-25.42A2.137,2.137,0,0,0,80.7,284.049Zm0,0" transform="translate(-6.449 -239.787)" fill="#b2e59c"/>
        <path id="Trazado_818631" data-name="Trazado 818631" d="M21.327,374.743a7.286,7.286,0,0,1,7.286-7.286H14.9a7.286,7.286,0,0,0,0,14.572H28.613A7.286,7.286,0,0,1,21.327,374.743Zm0,0" transform="translate(-6.449 -311.355)" fill="#9ad880"/>
        <path id="Trazado_818632" data-name="Trazado 818632" d="M67.85,78.218c-1.692.514-2.733,2.023-2.324,3.371s2.113,2.024,3.805,1.51,2.733-2.023,2.324-3.371S69.543,77.7,67.85,78.218Zm0,0" transform="translate(-55.433 -66.19)" fill="#fff"/>
        <path id="Trazado_818633" data-name="Trazado 818633" d="M57.853,68.205A1.164,1.164,0,0,1,56.4,67.43l-.561-1.848a1.164,1.164,0,1,1,2.227-.677l.561,1.849A1.163,1.163,0,0,1,57.853,68.205Zm0,0" transform="translate(-47.261 -54.359)" fill="#57565c"/>
        <path id="Trazado_818634" data-name="Trazado 818634" d="M157.392,418.426a7.485,7.485,0,0,0-7.451,6.779h14.9A7.485,7.485,0,0,0,157.392,418.426Zm0,0" transform="translate(-127.018 -354.532)" fill="#ffe98d"/>
        <path id="Trazado_818635" data-name="Trazado 818635" d="M313.409,374.139a6.514,6.514,0,0,0,5.426-10.12,24.131,24.131,0,0,1-5.018.526h-6.149a6.515,6.515,0,0,0,5.742,9.594Zm0,0" transform="translate(-259.975 -308.443)" fill="#ffe98d"/>
        <path id="Trazado_818636" data-name="Trazado 818636" d="M289.033,238.817a6.579,6.579,0,0,0,6.561-6.12,18.447,18.447,0,0,0-8.163-.437,28.18,28.18,0,0,1-4.97.227A6.577,6.577,0,0,0,289.033,238.817Zm0,0" transform="translate(-239.277 -196.618)" fill="#ffcd00"/>
        <g id="Grupo_1072223" data-name="Grupo 1072223" transform="translate(24.263 0)">
          <path id="Trazado_818637" data-name="Trazado 818637" d="M159.483,6a6.111,6.111,0,0,0,11.411-3.58A25.7,25.7,0,0,0,159.209.567,6.1,6.1,0,0,0,159.483,6Zm0,0" transform="translate(-158.699 -0.499)" fill="#ffb000"/>
          <path id="Trazado_818638" data-name="Trazado 818638" d="M234.334,115.385a4.852,4.852,0,0,0-6.4-7.144c2.555,2.582,2.655,5.682,1.507,8.783A4.851,4.851,0,0,0,234.334,115.385Zm0,0" transform="translate(-217.352 -91.105)" fill="#ffb000"/>
        </g>
      </g>
    </g>
    <path id="Unión_1" data-name="Unión 1" d="M11.151,42.415H0v-30.3H11.151V0L37,27.5,11.151,55Z" transform="translate(-9046 -9757)" fill="#d8dcfc"/>
    <g id="Grupo_1072231" data-name="Grupo 1072231" transform="translate(-407)">
      <g id="Grupo_1072228" data-name="Grupo 1072228" transform="translate(-8588.456 -9787.86)">
        <rect id="Rectángulo_375741-2" data-name="Rectángulo 375741" width="138" height="117" rx="10" transform="translate(0.456 -0.14)" fill="#fff"/>
      </g>
      <g id="ordenador-portatil" transform="translate(-8571 -9807.821)">
        <path id="Trazado_818639" data-name="Trazado 818639" d="M229.835,186.13H195.188a1.531,1.531,0,0,1-1.531-1.531v-40.02a1.531,1.531,0,0,1,1.531-1.531h34.647a1.531,1.531,0,0,1,1.531,1.531V184.6A1.531,1.531,0,0,1,229.835,186.13Zm-33.117-3.061H228.3V146.109H196.718Z" transform="translate(-154.134 -87.731)"/>
        <path id="Trazado_818640" data-name="Trazado 818640" d="M119.5,148.426V86.781a7,7,0,0,0-6.928-7.063H32.288a7,7,0,0,0-6.928,7.063v61.6Z" transform="translate(-20.184 -37.326)" fill="#53515e"/>
        <path id="Trazado_818641" data-name="Trazado 818641" d="M224.856,130.463H246.64a8.8,8.8,0,1,0,17.476-.032,5.062,5.062,0,0,0,4.5-5.03V81.077a6.807,6.807,0,0,0-4.085-1.36H216.28v42.17A8.576,8.576,0,0,0,224.856,130.463Z" transform="translate(-172.14 -37.325)" fill="#474756"/>
        <path id="Trazado_818642" data-name="Trazado 818642" d="M61.482,413.939H1.021A1.021,1.021,0,0,0,0,414.96v2.316a9.977,9.977,0,0,0,9.977,9.977H94.516a9.977,9.977,0,0,0,9.977-9.977V414.96a1.021,1.021,0,0,0-1.021-1.021Z" transform="translate(0 -303.336)" fill="#dfe2ea"/>
        <path id="Trazado_818643" data-name="Trazado 818643" d="M2.784,446.558a9.98,9.98,0,0,0,9.409,6.657H96.732a9.979,9.979,0,0,0,9.409-6.657H2.784Z" transform="translate(-2.216 -329.298)" fill="#c7cad3"/>
        <rect id="Rectángulo_381747" data-name="Rectángulo 381747" width="79.156" height="52.82" transform="translate(13.046 50.156)" fill="#fff"/>
        <path id="Trazado_818644" data-name="Trazado 818644" d="M264.341,117.757H216.28v34.515a8.576,8.576,0,0,0,8.576,8.576H246.64A8.789,8.789,0,0,0,254,170.576h2.753a8.787,8.787,0,0,0,7.359-9.76c.077-.008.151-.024.226-.036V117.757Z" transform="translate(-172.14 -67.602)" fill="#e9ebf2"/>
        <circle id="Elipse_4778" data-name="Elipse 4778" cx="3.235" cy="3.235" r="3.235" transform="translate(80.009 91.01)" fill="#00aaf0"/>
        <path id="Trazado_818645" data-name="Trazado 818645" d="M276.79,32.821H241.482a4.234,4.234,0,0,0-4.234,4.234V83.792a4.234,4.234,0,0,0,4.234,4.234h27.682l2.911,2.911,2.911-2.911h1.8a4.234,4.234,0,0,0,4.234-4.234V37.055A4.234,4.234,0,0,0,276.79,32.821Z" transform="translate(-188.828)" fill="#aae1ff"/>
        <g id="Grupo_1072229" data-name="Grupo 1072229" transform="translate(48.42 32.821)">
          <path id="Trazado_818646" data-name="Trazado 818646" d="M276.79,32.821H241.482a4.234,4.234,0,0,0-4.234,4.234V50.073h43.776V37.055A4.234,4.234,0,0,0,276.79,32.821Z" transform="translate(-237.248 -32.821)" fill="#6f4bef"/>
          <circle id="Elipse_4779" data-name="Elipse 4779" cx="1.617" cy="1.617" r="1.617" transform="translate(35.978 22.409)" fill="#6f4bef"/>
        </g>
        <path id="Trazado_818647" data-name="Trazado 818647" d="M289.222,145.858H265.057a1.617,1.617,0,0,1,0-3.235h24.164a1.617,1.617,0,0,1,0,3.235Z" transform="translate(-209.675 -87.393)" fill="#00aaf0"/>
        <path id="Trazado_818648" data-name="Trazado 818648" d="M128.346,250.2h-8.4a1.617,1.617,0,0,1,0-3.235h8.4a1.617,1.617,0,0,1,0,3.235Z" transform="translate(-94.175 -170.439)" fill="#dfe2ea"/>
        <circle id="Elipse_4780" data-name="Elipse 4780" cx="1.617" cy="1.617" r="1.617" transform="translate(53.766 62.58)" fill="#6f4bef"/>
        <circle id="Elipse_4781" data-name="Elipse 4781" cx="1.617" cy="1.617" r="1.617" transform="translate(19.093 76.525)" fill="#ffdc64"/>
        <path id="Trazado_818649" data-name="Trazado 818649" d="M128.346,279.785h-8.4a1.617,1.617,0,0,1,0-3.235h8.4a1.617,1.617,0,1,1,0,3.235Z" transform="translate(-94.175 -193.987)" fill="#dfe2ea"/>
        <circle id="Elipse_4782" data-name="Elipse 4782" cx="1.617" cy="1.617" r="1.617" transform="translate(19.093 82.564)" fill="#ffdc64"/>
        <path id="Trazado_818650" data-name="Trazado 818650" d="M128.346,311.484h-8.4a1.617,1.617,0,1,1,0-3.235h8.4a1.617,1.617,0,0,1,0,3.235Z" transform="translate(-94.175 -219.216)" fill="#dfe2ea"/>
        <circle id="Elipse_4783" data-name="Elipse 4783" cx="1.617" cy="1.617" r="1.617" transform="translate(19.093 89.034)" fill="#ffdc64"/>
        <path id="Trazado_818651" data-name="Trazado 818651" d="M128.346,341.95h-8.4a1.617,1.617,0,0,1,0-3.235h8.4a1.617,1.617,0,0,1,0,3.235Z" transform="translate(-94.175 -243.465)" fill="#dfe2ea"/>
        <circle id="Elipse_4784" data-name="Elipse 4784" cx="1.617" cy="1.617" r="1.617" transform="translate(19.093 95.25)" fill="#ffdc64"/>
        <g id="Grupo_1072230" data-name="Grupo 1072230" transform="translate(60.234 62.58)">
          <path id="Trazado_818652" data-name="Trazado 818652" d="M320.921,181.87H296.756a1.617,1.617,0,1,1,0-3.235h24.164a1.617,1.617,0,1,1,0,3.235Z" transform="translate(-295.139 -178.635)" fill="#00aaf0"/>
          <path id="Trazado_818653" data-name="Trazado 818653" d="M310.606,211.808H296.757a1.617,1.617,0,1,1,0-3.235h13.849a1.617,1.617,0,1,1,0,3.235Z" transform="translate(-295.14 -202.463)" fill="#00aaf0"/>
        </g>
        <circle id="Elipse_4785" data-name="Elipse 4785" cx="3.337" cy="3.337" r="3.337" transform="translate(54.783 38.241)" fill="#fff082"/>
        <path id="Trazado_818654" data-name="Trazado 818654" d="M113.866,164.009H102.558a1.076,1.076,0,0,1-1.076-1.076V151.625a1.076,1.076,0,0,1,1.076-1.076h11.308a1.076,1.076,0,0,1,1.076,1.076v11.308A1.076,1.076,0,0,1,113.866,164.009Z" transform="translate(-80.771 -93.701)" fill="#ff9ea4"/>
      </g>
    </g>
  </g>
</svg>
