<svg xmlns="http://www.w3.org/2000/svg" width="129" height="195" viewBox="0 0 129 195">
  <g id="Grupo_1072598" data-name="Grupo 1072598" transform="translate(-198 -4233)">
    <g id="Grupo_1071848" data-name="Grupo 1071848" transform="translate(198 4233)">
      <rect id="Rectángulo_375766" data-name="Rectángulo 375766" width="129" height="103" rx="10" transform="translate(0 92)" fill="#8054f8"/>
      <circle id="Elipse_4726" data-name="Elipse 4726" cx="61" cy="61" r="61" transform="translate(3)" fill="#fff"/>
    </g>
    <g id="Layer_1" transform="translate(208.547 4277.428)">
      <g id="Grupo_1072620" data-name="Grupo 1072620" transform="translate(5.26 3.49)">
        <path id="Trazado_819973" data-name="Trazado 819973" d="M47.392,35.23a6.2,6.2,0,0,0,6.2,6.2h2v12.4H43.19v2a6.2,6.2,0,0,1-12.4,0v-2H18.39v-10.9H34.746A4.23,4.23,0,0,0,38.972,38.7V31.756a4.22,4.22,0,0,0-4.226-4.226H27.2l.783-1.674a2.392,2.392,0,1,0-4.336-2.022l-1.725,3.7H18.39V16.63h37.2v12.4h-2A6.2,6.2,0,0,0,47.392,35.23Z" transform="translate(-13.195 -11.431)" fill="#f2bf22"/>
        <path id="Trazado_819974" data-name="Trazado 819974" d="M32.548,40.649V47.6a4.23,4.23,0,0,1-4.226,4.226H7.76v-15.4H15.5l1.725-3.7a2.392,2.392,0,1,1,4.336,2.022l-.783,1.674h7.549A4.22,4.22,0,0,1,32.548,40.649Z" transform="translate(-6.771 -20.324)" fill="#ffb69f"/>
        <path id="Trazado_819975" data-name="Trazado 819975" d="M41.516,101.182a3.236,3.236,0,0,1-3.234-3.23V92.988H31.774a.989.989,0,1,1,0-1.978h7.5a.989.989,0,0,1,.989.989v5.953a1.255,1.255,0,0,0,2.51,0V92a.989.989,0,0,1,.989-.989H55.169V87.324a.989.989,0,1,1,1.978,0V92a.989.989,0,0,1-.989.989H44.749v4.964a3.235,3.235,0,0,1-3.233,3.23Zm-13.7-8.194h-.944a.989.989,0,1,1,0-1.978h.944a.989.989,0,1,1,0,1.978Z" transform="translate(-17.724 -53.557)" fill="#f8e5b0"/>
        <path id="Trazado_819976" data-name="Trazado 819976" d="M41.916,36.153V43.1a7.179,7.179,0,0,1-7.169,7.173H18.39V47.327H34.746A4.23,4.23,0,0,0,38.972,43.1V36.153a4.22,4.22,0,0,0-4.226-4.226H27.2l.783-1.674a2.392,2.392,0,1,0-4.336-2.022l-1.725,3.7H18.39V28.984h1.654l.934-2a5.336,5.336,0,0,1,10.164,2h3.6A7.178,7.178,0,0,1,41.916,36.153Z" transform="translate(-13.195 -15.829)" fill="#e8a61e"/>
        <path id="Trazado_819977" data-name="Trazado 819977" d="M168.934,16.62v37.2h-12.4v-2a6.2,6.2,0,0,0-12.4,0v2h-12.4V41.42h-2a6.2,6.2,0,0,1,0-12.4h2V16.62h10.9V32.976A4.225,4.225,0,0,0,146.86,37.2h6.948a4.222,4.222,0,0,0,4.226-4.226V25.427l1.674.783a2.392,2.392,0,1,0,2.022-4.336l-3.7-1.725V16.62Z" transform="translate(-76.742 -11.425)" fill="#fc5d3d"/>
        <path id="Trazado_819978" data-name="Trazado 819978" d="M192.054,18.627a2.4,2.4,0,0,1-3.181,1.159L187.2,19v7.549a4.222,4.222,0,0,1-4.226,4.226h-6.948a4.225,4.225,0,0,1-4.226-4.226V5.99h15.4v7.735l3.7,1.725a2.393,2.393,0,0,1,1.159,3.177Z" transform="translate(-105.907 -5.001)" fill="#ffb69f"/>
        <path id="Trazado_819979" data-name="Trazado 819979" d="M144.894,55.377h-4.675a.989.989,0,0,1-.989-.989V42.979h-4.964a3.234,3.234,0,0,1,0-6.467h4.964V30a.989.989,0,0,1,1.978,0v7.5a.989.989,0,0,1-.989.989h-5.953a1.255,1.255,0,0,0,0,2.51h5.953a.989.989,0,0,1,.989.989V53.4h3.686a.989.989,0,1,1,0,1.978Zm-4.675-28.34a.989.989,0,0,1-.989-.989V25.1a.989.989,0,0,1,1.978,0v.944A.989.989,0,0,1,140.219,27.037Z" transform="translate(-81.272 -15.954)" fill="#ffcbc3"/>
        <path id="Trazado_819980" data-name="Trazado 819980" d="M185.64,29.372v3.6a7.178,7.178,0,0,1-7.169,7.169h-6.948a7.179,7.179,0,0,1-7.173-7.169V16.62H167.3V32.976a4.225,4.225,0,0,0,4.226,4.226h6.948a4.222,4.222,0,0,0,4.226-4.226V25.427l1.674.783a2.392,2.392,0,1,0,2.022-4.336l-3.7-1.725V16.62h2.944v1.654l2,.934A5.342,5.342,0,0,1,185.64,29.372Z" transform="translate(-101.405 -11.425)" fill="#b34f33"/>
        <path id="Trazado_819981" data-name="Trazado 819981" d="M181.456,131.884v10.9H165.1a4.23,4.23,0,0,0-4.226,4.226v6.948a4.225,4.225,0,0,0,4.226,4.226h7.549l-.783,1.674a2.392,2.392,0,1,0,4.336,2.022l1.725-3.7h3.529v10.9h-37.2v-12.4h2a6.2,6.2,0,0,0,0-12.4h-2v-12.4h12.4v-2a6.2,6.2,0,0,1,12.4,0v2Z" transform="translate(-89.264 -76.132)" fill="#72c2e9"/>
        <path id="Trazado_819982" data-name="Trazado 819982" d="M211.038,171.95v15.4H203.3l-1.725,3.7a2.392,2.392,0,1,1-4.336-2.022l.783-1.674h-7.549a4.225,4.225,0,0,1-4.226-4.226v-6.948a4.23,4.23,0,0,1,4.226-4.226Z" transform="translate(-114.64 -105.298)" fill="#ffb69f"/>
        <path id="Trazado_819983" data-name="Trazado 819983" d="M152.749,146.038a.989.989,0,0,1-.989-.989v-4.675a.989.989,0,0,1,.989-.989h11.409v-4.964a3.234,3.234,0,0,1,6.467,0v4.964h6.508a.989.989,0,1,1,0,1.978h-7.5a.989.989,0,0,1-.989-.989v-5.953a1.255,1.255,0,0,0-2.51,0v5.953a.989.989,0,0,1-.989.989H153.738v3.686A.989.989,0,0,1,152.749,146.038Zm29.285-4.675h-.944a.989.989,0,1,1,0-1.978h.944a.989.989,0,1,1,0,1.978Z" transform="translate(-93.796 -80.665)" fill="#c5e5fe"/>
        <path id="Trazado_819984" data-name="Trazado 819984" d="M181.754,171.673v6.948a4.225,4.225,0,0,0,4.226,4.226h7.549l-.783,1.674a2.392,2.392,0,1,0,4.336,2.022l1.725-3.7h3.529v2.944h-1.654l-.934,2a5.341,5.341,0,0,1-10.164-2h-3.6a7.178,7.178,0,0,1-7.169-7.169v-6.948a7.179,7.179,0,0,1,7.169-7.173h16.356v2.948H185.979A4.23,4.23,0,0,0,181.754,171.673Z" transform="translate(-110.144 -100.795)" fill="#48a6c8"/>
        <path id="Trazado_819985" data-name="Trazado 819985" d="M63.774,162.98a6.2,6.2,0,0,1-6.2,6.2h-2v12.4h-10.9V165.219a4.23,4.23,0,0,0-4.226-4.226H33.506a4.227,4.227,0,0,0-4.226,4.226v7.549l-1.674-.783a2.392,2.392,0,1,0-2.022,4.336l3.7,1.725v3.529H18.38v-37.2h12.4v2a6.2,6.2,0,0,0,12.4,0v-2h12.4v12.4h2a6.2,6.2,0,0,1,6.2,6.2Z" transform="translate(-13.189 -88.636)" fill="#13bf6d"/>
        <path id="Trazado_819986" data-name="Trazado 819986" d="M53.572,190.6v20.562h-15.4v-7.735l-3.7-1.725a2.392,2.392,0,1,1,2.022-4.336l1.674.783V190.6A4.227,4.227,0,0,1,42.4,186.37h6.948A4.23,4.23,0,0,1,53.572,190.6Z" transform="translate(-22.082 -114.012)" fill="#ffb69f"/>
        <path id="Trazado_819987" data-name="Trazado 819987" d="M93.752,183.146a.989.989,0,0,1-.989-.989v-.944a.989.989,0,0,1,1.978,0v.944A.989.989,0,0,1,93.752,183.146Zm0-4.9a.989.989,0,0,1-.989-.989v-7.5a.989.989,0,0,1,.989-.989h5.953a1.255,1.255,0,0,0,0-2.51H93.752a.989.989,0,0,1-.989-.989V153.862H89.077a.989.989,0,1,1,0-1.978h4.675a.989.989,0,0,1,.989.989v11.409h4.964a3.234,3.234,0,0,1,0,6.467H94.741v6.508A.989.989,0,0,1,93.752,178.246Z" transform="translate(-55.317 -93.171)" fill="#76ffbb"/>
        <path id="Trazado_819988" data-name="Trazado 819988" d="M52.024,186.1v16.356H49.077V186.1a4.23,4.23,0,0,0-4.226-4.226H37.9a4.227,4.227,0,0,0-4.226,4.226v7.549L32,192.865a2.392,2.392,0,1,0-2.022,4.336l3.7,1.725v3.529H30.734V200.8l-2-.934a5.336,5.336,0,0,1,2-10.164v-3.6A7.178,7.178,0,0,1,37.9,178.93h6.948A7.179,7.179,0,0,1,52.024,186.1Z" transform="translate(-17.587 -109.516)" fill="#139d6d"/>
        <circle id="Elipse_4845" data-name="Elipse 4845" cx="0.989" cy="0.989" r="0.989" transform="translate(14.125 30.509)"/>
        <path id="Trazado_819989" data-name="Trazado 819989" d="M16.418,42.408a.989.989,0,1,0,0-1.978H6.249a.989.989,0,1,0,0,1.978H9.466v9.911a.989.989,0,0,0,.989.989H21.862v1.009a7.191,7.191,0,0,0,14.382,0V53.308H47.651a.989.989,0,0,0,.989-.989v-12.4a.989.989,0,0,0-.989-.989h-2a5.213,5.213,0,0,1,0-10.426h2a.989.989,0,0,0,.989-.989v-12.4a.989.989,0,0,0-.989-.989h-37.2a.989.989,0,0,0-.989.989V25.03H6.249a.989.989,0,0,0,0,1.978h7.735a1,1,0,0,0,.9-.57l1.725-3.7a1.4,1.4,0,0,1,2.544,1.183L18.368,25.6a.989.989,0,0,0,.894,1.409h7.549a3.236,3.236,0,0,1,3.236,3.259H22.511a.989.989,0,1,0,0,1.978h7.537V35.2H22.511a.989.989,0,0,0,0,1.978h7.537a3.234,3.234,0,0,1-3.236,3.256H24.331a.989.989,0,1,0,0,1.978h2.481a5.225,5.225,0,0,0,5.215-5.191V30.245a5.216,5.216,0,0,0-5.215-5.215H20.817l.123-.265A3.382,3.382,0,1,0,14.811,21.9L13.355,25.03H11.444V16.108H46.662V26.53H45.653a7.191,7.191,0,0,0,0,14.382h1.009V51.33H35.255a.989.989,0,0,0-.989.989v2a5.213,5.213,0,0,1-10.426,0v-2a.989.989,0,0,0-.989-.989H11.444V42.408Z" transform="translate(-5.26 -9.92)"/>
        <circle id="Elipse_4846" data-name="Elipse 4846" cx="0.989" cy="0.989" r="0.989" transform="translate(64.904 14.121)"/>
        <path id="Trazado_819990" data-name="Trazado 819990" d="M129.231,34.474V45.881a.989.989,0,0,0,.989.989h12.4a.989.989,0,0,0,.989-.989v-2a5.213,5.213,0,0,1,10.426,0v2a.989.989,0,0,0,.989.989h12.4a.989.989,0,0,0,.989-.989V8.685a.989.989,0,0,0-.989-.989h-9.91V4.479a.989.989,0,0,0-1.978,0v7.735a.981.981,0,0,0,.57.894l3.7,1.729a1.4,1.4,0,1,1-1.183,2.544L156.94,16.6a.988.988,0,0,0-1.409.894v7.549a3.236,3.236,0,0,1-3.26,3.236V20.741a.989.989,0,1,0-1.978,0v7.537h-2.949V20.741a.989.989,0,1,0-1.978,0v7.537a3.237,3.237,0,0,1-3.255-3.236V22.557a.989.989,0,0,0-1.978,0v2.485a5.217,5.217,0,0,0,5.159,5.215h7a5.22,5.22,0,0,0,5.215-5.215V19.047l.265.123a3.379,3.379,0,1,0,2.857-6.125l-3.122-1.46V9.674h8.921V44.892H156.009V43.883a7.191,7.191,0,0,0-14.382,0v1.009H131.209V33.485a.989.989,0,0,0-.989-.989h-2a5.213,5.213,0,0,1,0-10.426h2a.989.989,0,0,0,.989-.989V9.674h8.923v4.969a.989.989,0,0,0,1.978,0V4.479a.989.989,0,0,0-1.978,0V7.7H130.22a.989.989,0,0,0-.989.989V20.092h-1.009a7.191,7.191,0,0,0,0,14.382Z" transform="translate(-75.229 -3.49)"/>
        <path id="Trazado_819991" data-name="Trazado 819991" d="M173.982,140.286a.989.989,0,0,0,0,1.978h10.168a.989.989,0,0,0,0-1.978h-3.217v-9.91a.989.989,0,0,0-.989-.989H168.538v-1.009a7.191,7.191,0,0,0-14.382,0v1.009H142.749a.989.989,0,0,0-.989.989v12.4a.989.989,0,0,0,.989.989h2a5.213,5.213,0,0,1,0,10.426h-2a.989.989,0,0,0-.989.989v12.4a.989.989,0,0,0,.989.989h37.2a.989.989,0,0,0,.989-.989v-9.912h3.217a.989.989,0,1,0,0-1.978h-7.735a1,1,0,0,0-.9.574l-1.725,3.691a1.4,1.4,0,1,1-2.544-1.179l.783-1.678a.991.991,0,0,0-.894-1.409h-7.549a3.232,3.232,0,0,1-3.236-3.257h7.537a.989.989,0,1,0,0-1.978h-7.537V147.5h7.537a.989.989,0,1,0,0-1.978h-7.537V145.5a3.234,3.234,0,0,1,3.236-3.236h2.485a.989.989,0,0,0,0-1.978h-2.485a5.236,5.236,0,0,0-5.215,5.167v7a5.219,5.219,0,0,0,5.215,5.215h5.994l-.123.265a3.38,3.38,0,1,0,6.125,2.861l1.46-3.126h1.911v8.923H143.738V156.165h1.009a7.191,7.191,0,0,0,0-14.382h-1.009V131.365h11.407a.989.989,0,0,0,.989-.989v-2a5.213,5.213,0,0,1,10.426,0v2a.989.989,0,0,0,.989.989h11.407v8.921Z" transform="translate(-87.753 -74.623)"/>
        <path id="Trazado_819992" data-name="Trazado 819992" d="M210.7,170.439a.991.991,0,1,0,.993-.989A.993.993,0,0,0,210.7,170.439Z" transform="translate(-129.416 -103.787)"/>
        <circle id="Elipse_4847" data-name="Elipse 4847" cx="0.989" cy="0.989" r="0.989" transform="translate(30.501 82.035)"/>
        <path id="Trazado_819993" data-name="Trazado 819993" d="M42.18,184.273a.989.989,0,0,0,1.978,0v-3.215h9.912a.989.989,0,0,0,.989-.989V168.662h1.009a7.191,7.191,0,0,0,0-14.382H55.06V142.873a.989.989,0,0,0-.989-.989h-12.4a.989.989,0,0,0-.989.989v2a5.213,5.213,0,0,1-10.426,0v-2a.989.989,0,0,0-.989-.989h-12.4a.989.989,0,0,0-.989.989v37.2a.989.989,0,0,0,.989.989h9.91v3.215a.989.989,0,1,0,1.978,0v-7.735a.99.99,0,0,0-.57-.894l-3.7-1.725a1.4,1.4,0,0,1,1.179-2.548l1.678.787a.992.992,0,0,0,1.409-.9v-7.549a3.236,3.236,0,0,1,3.259-3.236v7.539a.989.989,0,0,0,1.978,0v-7.539h2.95v7.539a.989.989,0,0,0,1.978,0v-7.539a3.238,3.238,0,0,1,3.255,3.236V166.2a.989.989,0,0,0,1.978,0v-2.485a5.223,5.223,0,0,0-5.167-5.215H32a5.216,5.216,0,0,0-5.215,5.215V169.7l-.265-.123a3.382,3.382,0,0,0-2.861,6.129l3.126,1.456v1.912H17.86V143.862H28.282v1.009a7.191,7.191,0,0,0,14.382,0v-1.009H53.082v11.407a.989.989,0,0,0,.989.989h2a5.213,5.213,0,0,1,0,10.426h-2a.989.989,0,0,0-.989.989v11.407H44.159v-4.971a.989.989,0,1,0-1.978,0Z" transform="translate(-11.679 -87.127)"/>
      </g>
    </g>
  </g>
</svg>
