<svg xmlns="http://www.w3.org/2000/svg" width="129" height="195" viewBox="0 0 129 195">
  <g id="Grupo_1072601" data-name="Grupo 1072601" transform="translate(-198 -4233)">
    <g id="Grupo_1071848" data-name="Grupo 1071848" transform="translate(198 4233)">
      <rect id="Rectángulo_375766" data-name="Rectángulo 375766" width="129" height="103" rx="10" transform="translate(0 92)" fill="#8054f8"/>
      <circle id="Elipse_4726" data-name="Elipse 4726" cx="61" cy="61" r="61" transform="translate(3)" fill="#fff"/>
    </g>
    <g id="FILLED_OUTLINE" transform="translate(176.233 4274.5)">
      <rect id="Rectángulo_381895" data-name="Rectángulo 381895" width="73.198" height="93.161" rx="16" transform="translate(48.318 17.664)" fill="#7950ea"/>
      <path id="Trazado_819897" data-name="Trazado 819897" d="M112,56h59.889v79.852H112Z" transform="translate(-57.028 -31.682)" fill="#8b74f7"/>
      <g id="Grupo_1072608" data-name="Grupo 1072608" transform="translate(83.253 29.309)">
        <path id="Trazado_819898" data-name="Trazado 819898" d="M248,80h24.954v3.327H248Z" transform="translate(-248 -80)" fill="#f9cb58"/>
        <path id="Trazado_819899" data-name="Trazado 819899" d="M248,216h16.636v3.327H248Z" transform="translate(-248 -187.719)" fill="#f9cb58"/>
        <path id="Trazado_819900" data-name="Trazado 819900" d="M248,320h14.972v3.327H248Z" transform="translate(-248 -270.093)" fill="#f9cb58"/>
        <path id="Trazado_819901" data-name="Trazado 819901" d="M248,112h19.963v3.327H248Z" transform="translate(-248 -105.346)" fill="#f9cb58"/>
        <path id="Trazado_819902" data-name="Trazado 819902" d="M248,184h24.954v3.327H248Z" transform="translate(-248 -162.373)" fill="#f9cb58"/>
      </g>
      <rect id="Rectángulo_381896" data-name="Rectángulo 381896" width="13.309" height="13.309" rx="6.654" transform="translate(63.29 30.972)" fill="#eab849"/>
      <path id="Trazado_819903" data-name="Trazado 819903" d="M0,0H11.763V3.327H0Z" transform="translate(67.099 38.117) rotate(-45)" fill="#f4f4f4"/>
      <rect id="Rectángulo_381897" data-name="Rectángulo 381897" width="13.309" height="13.309" rx="6.654" transform="translate(63.29 52.599)" fill="#eab849"/>
      <path id="Trazado_819904" data-name="Trazado 819904" d="M0,0H11.763V3.327H0Z" transform="translate(67.096 59.742) rotate(-45)" fill="#f4f4f4"/>
      <rect id="Rectángulo_381898" data-name="Rectángulo 381898" width="13.309" height="13.309" rx="6.654" transform="translate(63.29 74.225)" fill="#eab849"/>
      <path id="Trazado_819905" data-name="Trazado 819905" d="M292.085,192.063a3.529,3.529,0,0,0-4.991,0L248,231.157v4.991h4.991l39.094-39.094A3.529,3.529,0,0,0,292.085,192.063Z" transform="translate(-164.747 -138.632)" fill="#eab849"/>
      <path id="Trazado_819906" data-name="Trazado 819906" d="M416,196.222l4.991,4.991,4.159-4.159a3.529,3.529,0,0,0-4.991-4.991Z" transform="translate(-297.812 -138.632)" fill="#d3a039"/>
      <path id="Trazado_819907" data-name="Trazado 819907" d="M278.749,274.3,278.16,274a3.327,3.327,0,0,1-1.6-4.212l4.681-11.7A3.327,3.327,0,0,1,284.329,256h8.9a9.981,9.981,0,0,1,8.421,4.623l8.7,13.677L322,285.944v19.963L301.35,285.255a3.327,3.327,0,0,0-2.353-.974h-3.613a9.982,9.982,0,0,1-5.989-2l-7.25-5.438a3.682,3.682,0,0,1,4.036-6.143l7.233,4.133a2.971,2.971,0,0,0,3.946-4.228l-1.976-2.964-4.991-4.991Z" transform="translate(-187.178 -190.093)" fill="#f9cea0"/>
      <path id="Trazado_819908" data-name="Trazado 819908" d="M0,0H14.116V7.058H0Z" transform="translate(101.539 74.227) rotate(-45)" fill="#eab849"/>
      <path id="Trazado_819909" data-name="Trazado 819909" d="M74.36,213.947l-.084-.063a4.111,4.111,0,0,0-5.51.525L57.549,226.757a1.664,1.664,0,0,1-2.9-1.119V200l-3.993,2.994A6.654,6.654,0,0,0,48,208.318v53.235H62.972V244.631A11.36,11.36,0,0,1,66.3,236.6a11.359,11.359,0,0,0,3.327-8.032v-.744a3.325,3.325,0,0,1,.771-2.13c1.061-1.273,3.028-3.633,4.69-5.624a4.244,4.244,0,0,0-.727-6.121Z" transform="translate(-6.336 -145.738)" fill="#f9cea0"/>
      <path id="Trazado_819910" data-name="Trazado 819910" d="M111.82,92.525h-3.613a8.371,8.371,0,0,1-4.991-1.664l-7.251-5.438a2.019,2.019,0,0,1,2.213-3.368l7.233,4.133a4.635,4.635,0,0,0,6.156-6.6l-1.219-1.829,4.131-4.131,7.4,11.621,11.774,11.774L136,94.676,124.484,83.16l-1.305-2.051V64.933l5.335-5.335a5.194,5.194,0,0,0-5.335-8.592V20.991A5,5,0,0,0,118.188,16H51.645a5,5,0,0,0-4.991,4.991v32.44l-3.327,2.5A8.358,8.358,0,0,0,40,62.58v53.235h3.327V62.58a5.015,5.015,0,0,1,2-3.993l1.331-1V79.9a3.327,3.327,0,0,0,5.79,2.237l4.165-4.586h.026v-.029L63.66,69.79a2.438,2.438,0,0,1,3.28-.313l.085.064a2.582,2.582,0,0,1,1.028,1.781,2.547,2.547,0,0,1-.58,1.944c-1.662,1.991-3.63,4.352-4.691,5.624a5,5,0,0,0-1.157,3.195v.744a9.632,9.632,0,0,1-2.84,6.856,12.938,12.938,0,0,0-3.815,9.209v16.921H58.3v-3.327h59.889a5,5,0,0,0,4.991-4.991v-.974l10.469,10.469L136,114.639,115.349,93.987a4.958,4.958,0,0,0-3.529-1.462Zm-17.85-4.44.773.58-7.187,7.187H84.917V93.214l7.333-7.333A5.342,5.342,0,0,0,93.969,88.085Zm-3.044-7.766,4.681-11.7a1.656,1.656,0,0,1,1.545-1.046h8.7L91.305,82.12A1.674,1.674,0,0,1,90.925,80.319Zm8.321-1.434,18.942-18.942,2.638,2.638L102.636,80.771l-2.807-1.6a5.319,5.319,0,0,0-.583-.282Zm9.553,2.555a1.308,1.308,0,0,1-1.737,1.861l-1.432-.818,2.318-2.318Zm11.053-5.559-2.963-4.657,2.963-2.963Zm4.991-21.819a1.865,1.865,0,0,1,1.319,3.185l-2.983,2.983-2.638-2.638,2.983-2.983a1.853,1.853,0,0,1,1.319-.546ZM49.981,79.9V20.991a1.665,1.665,0,0,1,1.664-1.664h66.543a1.665,1.665,0,0,1,1.664,1.664V53.573L116.525,56.9V22.654H53.309V76.237Zm14.972,2.185a1.664,1.664,0,0,1,.385-1.064c.975-1.169,2.714-3.256,4.279-5.131h3.654a1.665,1.665,0,0,1,1.664,1.664v6.654a1.666,1.666,0,0,1-1.664,1.664H66.617a1.665,1.665,0,0,1-1.664-1.664Zm-3.815,9.953a13.026,13.026,0,0,0,2.618-3.745,4.961,4.961,0,0,0,2.86.9h6.654a5,5,0,0,0,4.991-4.991V77.553a5,5,0,0,0-4.991-4.991H71.324a5.935,5.935,0,0,0,.034-1.625,5.863,5.863,0,0,0-1.564-3.366h3.477a5,5,0,0,0,4.991-4.991V59.253H74.935V62.58a1.666,1.666,0,0,1-1.664,1.664H66.617a1.665,1.665,0,0,1-1.664-1.664V55.926a1.665,1.665,0,0,1,1.664-1.664h3.327V50.935H66.617a5,5,0,0,0-4.991,4.991V62.58a4.975,4.975,0,0,0,1.507,3.569,5.8,5.8,0,0,0-1.936,1.4l-4.562,5.021V25.981H113.2V60.228l-4.355,4.355a11.6,11.6,0,0,0-2.788-.338h-8.9a4.967,4.967,0,0,0-4.634,3.137l-4.681,11.7c-.018.044-.03.089-.046.133H83.253v3.327h4.508a5.037,5.037,0,0,0,1.2,1.925L81.59,91.836v7.343h7.343l8.5-8.5,3.789,2.842a11.717,11.717,0,0,0,6.987,2.329h3.613a1.652,1.652,0,0,1,1.176.487l.2.2v5.965H58.3V98.894a9.632,9.632,0,0,1,2.84-6.856ZM119.852,107.5a1.665,1.665,0,0,1-1.664,1.664H58.3v-3.327h58.225V99.868l3.327,3.327Z"/>
      <path id="Trazado_819911" data-name="Trazado 819911" d="M160.636,88.318h-3.327v3.327a1.665,1.665,0,0,1-1.664,1.664h-6.654a1.666,1.666,0,0,1-1.664-1.664V84.991a1.665,1.665,0,0,1,1.664-1.664h3.327V80h-3.327A5,5,0,0,0,144,84.991v6.654a5,5,0,0,0,4.991,4.991h6.654a5,5,0,0,0,4.991-4.991Z" transform="translate(-82.373 -50.691)"/>
      <path id="Trazado_819912" data-name="Trazado 819912" d="M0,0H11.763V3.327H0Z" transform="translate(67.099 38.115) rotate(-45)"/>
      <path id="Trazado_819913" data-name="Trazado 819913" d="M248,80h24.954v3.327H248Z" transform="translate(-164.747 -50.691)"/>
      <path id="Trazado_819914" data-name="Trazado 819914" d="M0,0H11.763V3.327H0Z" transform="translate(67.096 59.742) rotate(-45)"/>
      <path id="Trazado_819915" data-name="Trazado 819915" d="M248,216h16.636v3.327H248Z" transform="translate(-164.747 -158.41)"/>
      <path id="Trazado_819916" data-name="Trazado 819916" d="M248,112h19.963v3.327H248Z" transform="translate(-164.747 -76.037)"/>
      <path id="Trazado_819917" data-name="Trazado 819917" d="M248,184h24.954v3.327H248Z" transform="translate(-164.747 -133.065)"/>
    </g>
  </g>
</svg>
