<svg xmlns="http://www.w3.org/2000/svg" width="129" height="195" viewBox="0 0 129 195">
  <g id="Grupo_1072599" data-name="Grupo 1072599" transform="translate(-198 -4233)">
    <g id="Grupo_1071848" data-name="Grupo 1071848" transform="translate(198 4233)">
      <rect id="Rectángulo_375766" data-name="Rectángulo 375766" width="129" height="103" rx="10" transform="translate(0 92)" fill="#8054f8"/>
      <circle id="Elipse_4726" data-name="Elipse 4726" cx="61" cy="61" r="61" transform="translate(3)" fill="#fff"/>
    </g>
    <g id="Computer-Network-Intranet-Communication-Technology" transform="translate(213.638 4291.638)">
      <path id="Trazado_819918" data-name="Trazado 819918" d="M72.575,49v3.157a3.167,3.167,0,0,1-3.157,3.157H44.157A3.167,3.167,0,0,1,41,52.157V49Z" transform="translate(22.571 27.201)" fill="#d8d7da"/>
      <path id="Trazado_819919" data-name="Trazado 819919" d="M72.575,42.157v12.63H41V42.157A3.167,3.167,0,0,1,44.157,39h25.26a3.142,3.142,0,0,1,2.889,1.91,3,3,0,0,1,.268,1.247Z" transform="translate(22.571 21.414)" fill="#5aaae7"/>
      <path id="Trazado_819920" data-name="Trazado 819920" d="M72.575,13v3.157a3.167,3.167,0,0,1-3.157,3.157H44.157A3.167,3.167,0,0,1,41,16.157V13Z" transform="translate(22.571 6.366)" fill="#d8d7da"/>
      <path id="Trazado_819921" data-name="Trazado 819921" d="M72.575,6.157v12.63H41V6.157A3.167,3.167,0,0,1,44.157,3h25.26a3.142,3.142,0,0,1,2.889,1.91,3,3,0,0,1,.268,1.247Z" transform="translate(22.571 0.579)" fill="#5aaae7"/>
      <path id="Trazado_819922" data-name="Trazado 819922" d="M61.787,60.157v3.157H46V60.157A3.167,3.167,0,0,1,49.157,57H58.63A3.167,3.167,0,0,1,61.787,60.157Z" transform="translate(25.465 31.831)" fill="#898890"/>
      <path id="Trazado_819923" data-name="Trazado 819923" d="M61.787,24.157v3.157H46V24.157A3.167,3.167,0,0,1,49.157,21H58.63A3.167,3.167,0,0,1,61.787,24.157Z" transform="translate(25.465 10.996)" fill="#898890"/>
      <path id="Trazado_819924" data-name="Trazado 819924" d="M48,53h9.472v6.315H48Z" transform="translate(26.622 29.516)" fill="#acabb1"/>
      <path id="Trazado_819925" data-name="Trazado 819925" d="M48,17h9.472v6.315H48Z" transform="translate(26.622 8.681)" fill="#acabb1"/>
      <circle id="Elipse_4842" data-name="Elipse 4842" cx="3" cy="3" r="3" transform="translate(46.362 46.362)" fill="#ff9811"/>
      <path id="Trazado_819926" data-name="Trazado 819926" d="M34.575,49v3.157a3.167,3.167,0,0,1-3.157,3.157H6.157A3.167,3.167,0,0,1,3,52.157V49Z" transform="translate(0.579 27.201)" fill="#d8d7da"/>
      <path id="Trazado_819927" data-name="Trazado 819927" d="M34.575,42.157v12.63H3V42.157A3.167,3.167,0,0,1,6.157,39h25.26a3.142,3.142,0,0,1,2.889,1.91A3,3,0,0,1,34.575,42.157Z" transform="translate(0.579 21.414)" fill="#5aaae7"/>
      <path id="Trazado_819928" data-name="Trazado 819928" d="M34.575,13v3.157a3.167,3.167,0,0,1-3.157,3.157H6.157A3.167,3.167,0,0,1,3,16.157V13Z" transform="translate(0.579 6.366)" fill="#d8d7da"/>
      <path id="Trazado_819929" data-name="Trazado 819929" d="M34.575,6.157v12.63H3V6.157A3.167,3.167,0,0,1,6.157,3h25.26a3.142,3.142,0,0,1,2.889,1.91A3,3,0,0,1,34.575,6.157Z" transform="translate(0.579 0.579)" fill="#5aaae7"/>
      <path id="Trazado_819930" data-name="Trazado 819930" d="M23.787,60.157v3.157H8V60.157A3.167,3.167,0,0,1,11.157,57H20.63A3.167,3.167,0,0,1,23.787,60.157Z" transform="translate(3.472 31.831)" fill="#898890"/>
      <path id="Trazado_819931" data-name="Trazado 819931" d="M23.787,24.157v3.157H8V24.157A3.167,3.167,0,0,1,11.157,21H20.63A3.167,3.167,0,0,1,23.787,24.157Z" transform="translate(3.472 10.996)" fill="#898890"/>
      <path id="Trazado_819932" data-name="Trazado 819932" d="M10,53h9.472v6.315H10Z" transform="translate(4.63 29.516)" fill="#acabb1"/>
      <path id="Trazado_819933" data-name="Trazado 819933" d="M10,17h9.472v6.315H10Z" transform="translate(4.63 8.681)" fill="#acabb1"/>
      <path id="Trazado_819934" data-name="Trazado 819934" d="M66.654,41.457v12.63H51.23c4.31-2.194,11.477-6.71,15.156-13.877a3,3,0,0,1,.268,1.247Z" transform="translate(28.492 22.114)" fill="#3d9ae2"/>
      <path id="Trazado_819935" data-name="Trazado 819935" d="M66.654,5.457v12.63H51.23c4.31-2.194,11.477-6.71,15.156-13.877a3,3,0,0,1,.268,1.247Z" transform="translate(28.492 1.279)" fill="#3d9ae2"/>
      <path id="Trazado_819936" data-name="Trazado 819936" d="M28.654,41.457v12.63H13.23c4.31-2.194,11.477-6.71,15.156-13.877A3,3,0,0,1,28.654,41.457Z" transform="translate(6.499 22.114)" fill="#3d9ae2"/>
      <path id="Trazado_819937" data-name="Trazado 819937" d="M28.654,5.457v12.63H13.23c4.31-2.194,11.477-6.71,15.156-13.877A3,3,0,0,1,28.654,5.457Z" transform="translate(6.499 1.279)" fill="#3d9ae2"/>
      <g id="Grupo_1072609" data-name="Grupo 1072609" transform="translate(14.63 25.681)">
        <path id="Trazado_819938" data-name="Trazado 819938" d="M10,17h9.472v3.157H10Z" transform="translate(-10 -17)" fill="#898890"/>
        <path id="Trazado_819939" data-name="Trazado 819939" d="M48,17h9.472v3.157H48Z" transform="translate(11.992 -17)" fill="#898890"/>
        <path id="Trazado_819940" data-name="Trazado 819940" d="M48,53h9.472v3.157H48Z" transform="translate(11.992 3.835)" fill="#898890"/>
        <path id="Trazado_819941" data-name="Trazado 819941" d="M10,53h9.472v3.157H10Z" transform="translate(-10 3.835)" fill="#898890"/>
      </g>
      <path id="Trazado_819942" data-name="Trazado 819942" d="M70,38H44.736A4.736,4.736,0,0,0,40,42.736V58.524a4.736,4.736,0,0,0,4.736,4.736h6.315v3.448a4.736,4.736,0,0,0-3.157,4.446v3.157a1.579,1.579,0,0,0,1.579,1.579H65.26a1.579,1.579,0,0,0,1.579-1.579V71.154a4.736,4.736,0,0,0-3.157-4.446V63.26H70a4.736,4.736,0,0,0,4.736-4.736V42.736A4.736,4.736,0,0,0,70,38Zm-25.26,3.157H70a1.579,1.579,0,0,1,1.579,1.579V53.787H43.157V42.736A1.579,1.579,0,0,1,44.736,41.157ZM63.681,72.732H51.051V71.154a1.579,1.579,0,0,1,1.579-1.579H62.1a1.579,1.579,0,0,1,1.579,1.579Zm-3.157-6.315H54.209V63.26h6.315ZM70,60.1H44.736a1.579,1.579,0,0,1-1.579-1.579V56.945H71.575v1.579A1.579,1.579,0,0,1,70,60.1Z" transform="translate(21.992 20.835)"/>
      <path id="Trazado_819943" data-name="Trazado 819943" d="M70,2H44.736A4.736,4.736,0,0,0,40,6.736V22.524a4.736,4.736,0,0,0,4.736,4.736h6.315v3.448a4.736,4.736,0,0,0-3.157,4.446v3.157a1.579,1.579,0,0,0,1.579,1.579H65.26a1.579,1.579,0,0,0,1.579-1.579V35.154a4.736,4.736,0,0,0-3.157-4.446V27.26H70a4.736,4.736,0,0,0,4.736-4.736V6.736A4.736,4.736,0,0,0,70,2ZM44.736,5.157H70a1.579,1.579,0,0,1,1.579,1.579V17.787H43.157V6.736A1.579,1.579,0,0,1,44.736,5.157ZM63.681,36.732H51.051V35.154a1.579,1.579,0,0,1,1.579-1.579H62.1a1.579,1.579,0,0,1,1.579,1.579Zm-3.157-6.315H54.209V27.26h6.315ZM70,24.1H44.736a1.579,1.579,0,0,1-1.579-1.579V20.945H71.575v1.579A1.579,1.579,0,0,1,70,24.1Z" transform="translate(21.992 0)"/>
      <path id="Trazado_819944" data-name="Trazado 819944" d="M32,38H6.736A4.736,4.736,0,0,0,2,42.736V58.524A4.736,4.736,0,0,0,6.736,63.26h6.315v3.448a4.736,4.736,0,0,0-3.157,4.446v3.157a1.579,1.579,0,0,0,1.579,1.579H27.26a1.579,1.579,0,0,0,1.579-1.579V71.154a4.736,4.736,0,0,0-3.157-4.446V63.26H32a4.736,4.736,0,0,0,4.736-4.736V42.736A4.736,4.736,0,0,0,32,38ZM6.736,41.157H32a1.579,1.579,0,0,1,1.579,1.579V53.787H5.157V42.736A1.579,1.579,0,0,1,6.736,41.157ZM25.681,72.732H13.051V71.154a1.579,1.579,0,0,1,1.579-1.579H24.1a1.579,1.579,0,0,1,1.579,1.579Zm-3.157-6.315H16.209V63.26h6.315ZM32,60.1H6.736a1.579,1.579,0,0,1-1.579-1.579V56.945H33.575v1.579A1.579,1.579,0,0,1,32,60.1Z" transform="translate(0 20.835)"/>
      <path id="Trazado_819945" data-name="Trazado 819945" d="M6.736,27.26h6.315v3.448a4.736,4.736,0,0,0-3.157,4.446v3.157a1.579,1.579,0,0,0,1.579,1.579H27.26a1.579,1.579,0,0,0,1.579-1.579V35.154a4.736,4.736,0,0,0-3.157-4.446V27.26H32a4.736,4.736,0,0,0,4.736-4.736V6.736A4.736,4.736,0,0,0,32,2H6.736A4.736,4.736,0,0,0,2,6.736V22.524A4.736,4.736,0,0,0,6.736,27.26Zm18.945,9.472H13.051V35.154a1.579,1.579,0,0,1,1.579-1.579H24.1a1.579,1.579,0,0,1,1.579,1.579Zm-3.157-6.315H16.209V27.26h6.315ZM32,24.1H6.736a1.579,1.579,0,0,1-1.579-1.579V20.945H33.575v1.579A1.579,1.579,0,0,1,32,24.1ZM6.736,5.157H32a1.579,1.579,0,0,1,1.579,1.579V17.787H5.157V6.736A1.579,1.579,0,0,1,6.736,5.157Z" transform="translate(0 0)"/>
      <path id="Trazado_819946" data-name="Trazado 819946" d="M33.894,36.839h3.157V13.157h7.894V10H26v3.157h7.894Z" transform="translate(13.89 4.63)"/>
      <path id="Trazado_819947" data-name="Trazado 819947" d="M37.051,37H33.894V60.681H26v3.157H44.945V60.681H37.051Z" transform="translate(13.89 20.256)"/>
      <path id="Trazado_819948" data-name="Trazado 819948" d="M29,33.736A4.736,4.736,0,1,0,33.736,29,4.736,4.736,0,0,0,29,33.736Zm6.315,0a1.579,1.579,0,1,1-1.579-1.579A1.579,1.579,0,0,1,35.315,33.736Z" transform="translate(15.626 15.626)"/>
      <path id="Trazado_819949" data-name="Trazado 819949" d="M60.681,40.63V28H57.524v4.736H37v3.157H57.524V40.63Z" transform="translate(20.256 15.047)"/>
      <path id="Trazado_819950" data-name="Trazado 819950" d="M12,28V40.63h3.157V35.894H35.681V32.736H15.157V28Z" transform="translate(5.787 15.047)"/>
    </g>
  </g>
</svg>
