<svg xmlns="http://www.w3.org/2000/svg" xmlns:xlink="http://www.w3.org/1999/xlink" width="295" height="114.335" viewBox="0 0 295 114.335">
  <defs>
    <clipPath id="clip-path">
      <path id="path1821" d="M0-682.665H114.335V-568.33H0Z" transform="translate(0 682.665)"/>
    </clipPath>
  </defs>
  <g id="Grupo_1076081" data-name="Grupo 1076081" transform="translate(-943 -4443)">
    <rect id="Rectángulo_375758" data-name="Rectángulo 375758" width="295" height="102" rx="13" transform="translate(943 4449)" fill="#dbefed"/>
    <g id="g1815" transform="translate(1033 5125.665)">
      <g id="g1817" transform="translate(0 -682.665)">
        <g id="g1819" clip-path="url(#clip-path)">
          <g id="g1825" transform="translate(2.446 14.936)">
            <path id="path1827" d="M-241.506-482.986a48.639,48.639,0,0,1-48.585-48.583,48.639,48.639,0,0,1,48.585-48.583,48.639,48.639,0,0,1,48.585,48.583,48.639,48.639,0,0,1-48.585,48.583" transform="translate(290.091 580.152)" fill="#e5ecec"/>
          </g>
          <g id="g1829" transform="translate(0.213 12.703)">
            <path id="path1831" d="M-252.606-491.853a50.875,50.875,0,0,1-50.818-50.816,50.875,50.875,0,0,1,50.818-50.816,50.875,50.875,0,0,1,50.818,50.816A50.875,50.875,0,0,1-252.606-491.853Zm0-97.166a46.4,46.4,0,0,0-46.352,46.35,46.4,46.4,0,0,0,46.352,46.35,46.4,46.4,0,0,0,46.352-46.35A46.4,46.4,0,0,0-252.606-589.019Z" transform="translate(303.425 593.485)"/>
          </g>
          <g id="g1833" transform="translate(14.218 26.707)">
            <path id="path1835" d="M-182.991-365.965A36.854,36.854,0,0,1-219.8-402.776a36.774,36.774,0,0,1,14.434-29.211q.371-.285.75-.561a36.773,36.773,0,0,1,9.155-4.865,36.651,36.651,0,0,1,12.475-2.175,36.854,36.854,0,0,1,36.814,36.812,36.855,36.855,0,0,1-36.814,36.812" transform="translate(219.805 439.588)" fill="#f5737f"/>
          </g>
          <g id="g1837" transform="translate(11.985 24.474)">
            <path id="path1839" d="M-120.981-10.814a36.65,36.65,0,0,1,12.475-2.175A36.855,36.855,0,0,1-71.692,23.823a36.855,36.855,0,0,1-36.814,36.812A36.854,36.854,0,0,1-145.32,23.823a36.616,36.616,0,0,1,7.067-21.665" transform="translate(147.553 15.222)" fill="#f5737f"/>
            <path id="path1839_-_Contorno" data-name="path1839 - Contorno" d="M-119.606,51.767a39.09,39.09,0,0,1-39.047-39.045,38.717,38.717,0,0,1,7.5-22.982,2.233,2.233,0,0,1,3.12-.486,2.233,2.233,0,0,1,.486,3.12,34.279,34.279,0,0,0-6.637,20.348A34.619,34.619,0,0,0-119.606,47.3,34.619,34.619,0,0,0-85.026,12.722a34.619,34.619,0,0,0-34.581-34.579,34.385,34.385,0,0,0-11.716,2.043,2.233,2.233,0,0,1-2.859-1.342,2.233,2.233,0,0,1,1.342-2.859,38.838,38.838,0,0,1,13.234-2.308A39.09,39.09,0,0,1-80.559,12.722,39.09,39.09,0,0,1-119.606,51.767Z" transform="translate(158.653 26.323)"/>
          </g>
          <g id="g1841" transform="translate(29.402 33.748)">
            <path id="path1843" d="M0,0Z" fill="#f5737f"/>
          </g>
          <g id="g1845" transform="translate(29.402 33.748)">
            <path id="path1847"/>
          </g>
          <g id="g1849" transform="translate(25.99 38.478)">
            <path id="path1851" d="M-124.479-248.944a25.07,25.07,0,0,1-25.042-25.041,25.07,25.07,0,0,1,25.042-25.041,25.07,25.07,0,0,1,25.042,25.041,25.07,25.07,0,0,1-25.042,25.041" transform="translate(149.521 299.026)" fill="#e5ecec"/>
          </g>
          <g id="g1853" transform="translate(23.757 36.245)">
            <path id="path1855" d="M-203.5-241.477a27.305,27.305,0,0,1-27.275-27.274A27.306,27.306,0,0,1-203.5-296.025a27.305,27.305,0,0,1,27.275,27.274,27.175,27.175,0,0,1-1.383,8.582,2.233,2.233,0,0,1-2.823,1.415,2.233,2.233,0,0,1-1.415-2.823,22.716,22.716,0,0,0,1.155-7.174A22.834,22.834,0,0,0-203.5-291.558a22.834,22.834,0,0,0-22.809,22.808A22.834,22.834,0,0,0-203.5-245.943a22.515,22.515,0,0,0,10.358-2.49,2.233,2.233,0,0,1,3.005.97,2.233,2.233,0,0,1-.97,3.005A27.314,27.314,0,0,1-203.5-241.477Z" transform="translate(230.773 296.025)"/>
          </g>
          <g id="g1857" transform="translate(70.212 79.602)">
            <path id="path1859" transform="translate(0 0)"/>
          </g>
          <g id="g1861" transform="translate(37.761 50.249)">
            <path id="path1863" d="M-131.929-65.961a13.27,13.27,0,0,1-13.27,13.27,13.27,13.27,0,0,1-13.271-13.27A13.27,13.27,0,0,1-145.2-79.23a13.27,13.27,0,0,1,13.27,13.27" transform="translate(158.47 79.23)" fill="#f5737f"/>
          </g>
          <g id="g1865" transform="translate(35.528 48.016)">
            <path id="path1867" d="M-156.3-92.564a15.521,15.521,0,0,1,15.5,15.5,15.521,15.521,0,0,1-15.5,15.5,15.521,15.521,0,0,1-15.5-15.5A15.521,15.521,0,0,1-156.3-92.564Zm0,26.54a11.049,11.049,0,0,0,11.037-11.037A11.049,11.049,0,0,0-156.3-88.1a11.05,11.05,0,0,0-11.038,11.037A11.05,11.05,0,0,0-156.3-66.024Z" transform="translate(171.804 92.564)"/>
          </g>
          <g id="g1869" transform="translate(49.065 18.634)">
            <path id="path1871" d="M-261.725,33.106a2.226,2.226,0,0,1-1.579-.654,2.233,2.233,0,0,1,0-3.158l41.975-41.973a2.233,2.233,0,0,1,3.158,0,2.233,2.233,0,0,1,0,3.158l-41.975,41.973A2.226,2.226,0,0,1-261.725,33.106Z" transform="translate(263.958 13.333)"/>
          </g>
          <g id="g1873" transform="translate(85.036 2.233)">
            <path id="path1875" d="M-58.194,0l-9.731,9.731A6.761,6.761,0,0,0-69.9,14.265l.22,12.386L-57.14,14.09Z" transform="translate(69.901)" fill="#ffcb7c"/>
          </g>
          <g id="g1877" transform="translate(82.804 0)">
            <path id="path1879" d="M-69.292-13.334a2.23,2.23,0,0,1,.777.14,2.233,2.233,0,0,1,1.45,1.927l1.054,14.09a2.233,2.233,0,0,1-.647,1.744L-79.2,17.128a2.233,2.233,0,0,1-2.416.493,2.233,2.233,0,0,1-1.4-2.031L-83.232,3.2A9.028,9.028,0,0,1-80.6-2.949l9.731-9.731A2.233,2.233,0,0,1-69.292-13.334Zm-1.25,15.47-.615-8.215L-77.445.209a4.514,4.514,0,0,0-1.323,3.037l.126,7Z" transform="translate(83.232 13.334)"/>
          </g>
          <g id="g1881" transform="translate(85.257 16.323)">
            <path id="path1883" d="M-132.381-5.239l-14.091-1.054L-159.013,6.267l12.366.2a6.762,6.762,0,0,0,4.534-1.976Z" transform="translate(159.013 6.293)" fill="#ffd89e"/>
          </g>
          <g id="g1885" transform="translate(83.023 14.09)">
            <path id="path1887" d="M-157.573-19.627q.083,0,.167.006l14.091,1.054a2.233,2.233,0,0,1,1.927,1.45,2.233,2.233,0,0,1-.515,2.356l-9.731,9.731A8.968,8.968,0,0,1-157.665-2.4l-12.484-.2a2.233,2.233,0,0,1-2.034-1.394,2.233,2.233,0,0,1,.489-2.416l12.541-12.561A2.233,2.233,0,0,1-157.573-19.627Zm9.069,5.151-8.213-.614-8.1,8.11,7.1.115a4.468,4.468,0,0,0,2.919-1.322Z" transform="translate(172.347 19.627)"/>
          </g>
        </g>
      </g>
    </g>
  </g>
</svg>
