<svg xmlns="http://www.w3.org/2000/svg" width="76.94" height="115" viewBox="0 0 76.94 115">
  <g id="Grupo_1072256" data-name="Grupo 1072256" transform="translate(-201 -6741)">
    <g id="Grupo_1071854" data-name="Grupo 1071854" transform="translate(3 2517)">
      <rect id="Rectángulo_375766" data-name="Rectángulo 375766" width="76" height="61" rx="10" transform="translate(198 4278)" fill="#8054f8"/>
      <circle id="Elipse_4726" data-name="Elipse 4726" cx="36" cy="36" r="36" transform="translate(200 4224)" fill="#fff"/>
    </g>
    <g id="algoritmo" transform="translate(181.797 6757)">
      <path id="Trazado_818794" data-name="Trazado 818794" d="M200.607,27.844l-8.78-8.78a1.63,1.63,0,0,1,0-2.306l8.78-8.78a1.63,1.63,0,0,1,2.306,0l8.78,8.78a1.63,1.63,0,0,1,0,2.306l-8.78,8.78A1.631,1.631,0,0,1,200.607,27.844Z" transform="translate(-143.587 -6.293)" fill="#fe7ab6"/>
      <path id="Trazado_818795" data-name="Trazado 818795" d="M210.543,215.319H192.976a1.627,1.627,0,0,1-1.627-1.627v-4.555a1.627,1.627,0,0,1,1.627-1.627h17.568a1.627,1.627,0,0,1,1.627,1.627v4.555A1.627,1.627,0,0,1,210.543,215.319Z" transform="translate(-143.587 -174.096)" fill="#c9f6b0"/>
      <path id="Trazado_818796" data-name="Trazado 818796" d="M285.124,207.512h-4.88a1.627,1.627,0,0,1,1.627,1.627v4.555a1.627,1.627,0,0,1-1.627,1.627h4.88a1.627,1.627,0,0,0,1.627-1.627v-4.555A1.627,1.627,0,0,0,285.124,207.512Z" transform="translate(-218.167 -174.097)" fill="#bbf49b"/>
      <path id="Trazado_818797" data-name="Trazado 818797" d="M210.543,463.819H192.976a1.627,1.627,0,0,1-1.627-1.627v-4.555a1.627,1.627,0,0,1,1.627-1.627h17.568a1.627,1.627,0,0,1,1.627,1.627v4.555A1.627,1.627,0,0,1,210.543,463.819Z" transform="translate(-143.587 -382.581)" fill="#fe7ab6"/>
      <path id="Trazado_818798" data-name="Trazado 818798" d="M210.543,339.569H192.976a1.627,1.627,0,0,1-1.627-1.627v-4.555a1.627,1.627,0,0,1,1.627-1.627h17.568a1.627,1.627,0,0,1,1.627,1.627v4.555A1.627,1.627,0,0,1,210.543,339.569Z" transform="translate(-143.587 -278.338)" fill="#fea95c"/>
      <path id="Trazado_818799" data-name="Trazado 818799" d="M374.19,339.569H356.623A1.627,1.627,0,0,1,355,337.942v-4.555a1.627,1.627,0,0,1,1.627-1.627H374.19a1.627,1.627,0,0,1,1.627,1.627v4.555A1.627,1.627,0,0,1,374.19,339.569Z" transform="translate(-280.882 -278.338)" fill="#fea95c"/>
      <circle id="Elipse_4794" data-name="Elipse 4794" cx="7.808" cy="7.808" r="7.808" transform="translate(76.716 29.511)" fill="#ffe177"/>
      <path id="Trazado_818800" data-name="Trazado 818800" d="M237.568,42.633l-4.291-4.291A17.055,17.055,0,0,1,229,45.15a17.051,17.051,0,0,1-6.808,4.278l4.291,4.291a1.63,1.63,0,0,0,2.306,0l8.78-8.78A1.63,1.63,0,0,0,237.568,42.633Z" transform="translate(-169.462 -32.168)" fill="#fe5694"/>
      <path id="Trazado_818801" data-name="Trazado 818801" d="M29.33,339.569H46.9a1.627,1.627,0,0,0,1.627-1.627v-4.555a1.627,1.627,0,0,0-1.627-1.627H29.33a1.627,1.627,0,0,0-1.627,1.627v4.555A1.627,1.627,0,0,0,29.33,339.569Z" transform="translate(-6.292 -278.338)" fill="#fea95c"/>
      <circle id="Elipse_4795" data-name="Elipse 4795" cx="7.808" cy="7.808" r="7.808" transform="translate(24.013 29.511)" fill="#b3dafe"/>
      <path id="Trazado_818802" data-name="Trazado 818802" d="M60.853,189.61a7.806,7.806,0,0,1-10.645,10.645A7.807,7.807,0,1,0,60.853,189.61Z" transform="translate(-25.173 -159.078)" fill="#8ac9fe"/>
      <path id="Trazado_818803" data-name="Trazado 818803" d="M388.146,189.61A7.806,7.806,0,0,1,377.5,200.255a7.807,7.807,0,1,0,10.645-10.645Z" transform="translate(-299.763 -159.078)" fill="#ffd15b"/>
      <path id="Trazado_818804" data-name="Trazado 818804" d="M285.124,456.012h-4.88a1.627,1.627,0,0,1,1.627,1.627v4.555a1.627,1.627,0,0,1-1.627,1.627h4.88a1.627,1.627,0,0,0,1.627-1.627v-4.555A1.627,1.627,0,0,0,285.124,456.012Z" transform="translate(-218.167 -382.582)" fill="#fe5694"/>
      <g id="Grupo_1072255" data-name="Grupo 1072255" transform="translate(35.725 53.423)">
        <path id="Trazado_818805" data-name="Trazado 818805" d="M285.124,331.762h-4.88a1.627,1.627,0,0,1,1.627,1.627v4.555a1.627,1.627,0,0,1-1.627,1.627h4.88a1.627,1.627,0,0,0,1.627-1.627v-4.555A1.627,1.627,0,0,0,285.124,331.762Z" transform="translate(-253.892 -331.762)" fill="#fe9738"/>
        <path id="Trazado_818806" data-name="Trazado 818806" d="M448.77,331.762h-4.88a1.627,1.627,0,0,1,1.627,1.627v4.555a1.627,1.627,0,0,1-1.627,1.627h4.88a1.627,1.627,0,0,0,1.627-1.627v-4.555A1.627,1.627,0,0,0,448.77,331.762Z" transform="translate(-391.187 -331.762)" fill="#fe9738"/>
        <path id="Trazado_818807" data-name="Trazado 818807" d="M121.477,331.762H116.6a1.627,1.627,0,0,1,1.627,1.627v4.555a1.627,1.627,0,0,1-1.627,1.627h4.88a1.627,1.627,0,0,0,1.627-1.627v-4.555A1.627,1.627,0,0,0,121.477,331.762Z" transform="translate(-116.597 -331.762)" fill="#fe9738"/>
      </g>
      <path id="Trazado_818808" data-name="Trazado 818808" d="M93.308,52.215H85.732V46.251a9.015,9.015,0,1,0-10.14-10.14h-5.8v-1.07a2.837,2.837,0,0,0-2.834-2.834H59.38V22.965a2.829,2.829,0,0,0,.8-.559l2.485-2.485a1.208,1.208,0,0,0-1.708-1.708L58.472,20.7a.424.424,0,0,1-.6,0l-8.781-8.781a.424.424,0,0,1,0-.6l8.782-8.78a.421.421,0,0,1,.6,0l8.78,8.778a.425.425,0,0,1,0,.6l-2.311,2.311a1.208,1.208,0,0,0,1.708,1.708l2.311-2.311a2.844,2.844,0,0,0,0-4.014L60.181.833a2.836,2.836,0,0,0-4.015,0l-8.782,8.78a2.843,2.843,0,0,0,0,4.013l8.781,8.781a2.834,2.834,0,0,0,.8.559v9.242h-.984a1.208,1.208,0,1,0,0,2.415H66.957a.419.419,0,0,1,.419.419V39.6a.419.419,0,0,1-.419.419H49.389a.419.419,0,0,1-.419-.419V35.041a.419.419,0,0,1,.419-.419h.957a1.208,1.208,0,1,0,0-2.415h-.957a2.837,2.837,0,0,0-2.834,2.834v1.07h-5.8a9.015,9.015,0,1,0-10.14,10.14v5.964H23.037A2.838,2.838,0,0,0,20.2,55.049V59.6a2.838,2.838,0,0,0,2.834,2.834h7.576v14.9a1.208,1.208,0,0,0,1.208,1.208H46.555v1.07a2.837,2.837,0,0,0,2.834,2.834h9.1a1.208,1.208,0,0,0,0-2.415h-9.1a.419.419,0,0,1-.419-.419V75.057a.419.419,0,0,1,.419-.419H66.957a.419.419,0,0,1,.419.419v4.555a.419.419,0,0,1-.419.419H64.124a1.208,1.208,0,0,0,0,2.415h2.832a2.837,2.837,0,0,0,2.834-2.834v-1.07H84.525a1.208,1.208,0,0,0,1.208-1.208v-14.9h7.576A2.838,2.838,0,0,0,96.143,59.6V55.049a2.838,2.838,0,0,0-2.835-2.834Zm-8.784-21.5a6.6,6.6,0,1,1-6.6,6.6,6.608,6.608,0,0,1,6.6-6.6ZM69.791,39.6v-1.07h5.8a9.032,9.032,0,0,0,7.725,7.725v5.964H75.741a2.838,2.838,0,0,0-2.834,2.834v1.07H69.791v-1.07a2.838,2.838,0,0,0-2.834-2.834H59.38V42.431h7.576A2.837,2.837,0,0,0,69.791,39.6Zm-20.4,20.426a.419.419,0,0,1-.419-.419V55.049a.419.419,0,0,1,.419-.419H66.957a.419.419,0,0,1,.419.419V59.6a.419.419,0,0,1-.419.419Zm-24.168-22.7a6.6,6.6,0,1,1,6.6,6.6,6.608,6.608,0,0,1-6.6-6.6Zm7.808,8.932a9.032,9.032,0,0,0,7.725-7.725h5.8V39.6a2.837,2.837,0,0,0,2.834,2.834h7.576v9.784H49.389a2.838,2.838,0,0,0-2.834,2.834v1.07H43.439v-1.07A2.838,2.838,0,0,0,40.6,52.215H33.029ZM22.618,59.6V55.049a.419.419,0,0,1,.419-.419H40.605a.419.419,0,0,1,.419.419V59.6a.419.419,0,0,1-.419.419H23.037a.419.419,0,0,1-.419-.419ZM46.555,75.056v1.07H33.029V62.438h7.576A2.838,2.838,0,0,0,43.44,59.6v-1.07h3.115V59.6a2.838,2.838,0,0,0,2.834,2.834h7.576v9.784H49.389a2.837,2.837,0,0,0-2.834,2.834Zm36.762,1.07H69.791v-1.07a2.837,2.837,0,0,0-2.834-2.834H59.38V62.438h7.576A2.838,2.838,0,0,0,69.791,59.6v-1.07h3.115V59.6a2.838,2.838,0,0,0,2.834,2.834h7.576V76.127ZM93.727,59.6a.419.419,0,0,1-.419.419H75.741a.419.419,0,0,1-.419-.419V55.049a.419.419,0,0,1,.419-.419H93.308a.419.419,0,0,1,.419.419V59.6Z"/>
    </g>
  </g>
</svg>
