<svg xmlns="http://www.w3.org/2000/svg" width="72" height="72" viewBox="0 0 72 72">
  <g id="Grupo_1072426" data-name="Grupo 1072426" transform="translate(-200 -448)">
    <g id="Grupo_1071854" data-name="Grupo 1071854" transform="translate(0 -3776)">
      <circle id="Elipse_4726" data-name="Elipse 4726" cx="36" cy="36" r="36" transform="translate(200 4224)" fill="#8054f8"/>
    </g>
    <g id="algoritmo-_" data-name="algoritmo-&apos;" transform="translate(201 459)">
      <path id="Trazado_819296" data-name="Trazado 819296" d="M104.494,63.759H50.314a1.935,1.935,0,0,1-1.935-1.935V26.782a1.935,1.935,0,0,1,1.935-1.935h54.181a1.935,1.935,0,0,1,1.935,1.935V61.825A1.935,1.935,0,0,1,104.494,63.759Zm0,0" transform="translate(-41.693 -21.414)" fill="#bce8f1"/>
      <path id="Trazado_819297" data-name="Trazado 819297" d="M104.655,24.848H96.67v30.6a1.775,1.775,0,0,1-1.775,1.774H48.379v4.764a1.774,1.774,0,0,0,1.774,1.774h54.5a1.774,1.774,0,0,0,1.774-1.774V26.622A1.775,1.775,0,0,0,104.655,24.848Zm0,0" transform="translate(-41.693 -21.414)" fill="#95dae8"/>
      <path id="Trazado_819298" data-name="Trazado 819298" d="M106.429,33.19V26.762a1.914,1.914,0,0,0-1.914-1.914H50.293a1.914,1.914,0,0,0-1.914,1.914V33.19Zm0,0" transform="translate(-41.693 -21.414)" fill="#f0feff"/>
      <path id="Trazado_819299" data-name="Trazado 819299" d="M405.67,24.848h-7.846V33.19h9.76V26.762A1.914,1.914,0,0,0,405.67,24.848Zm0,0" transform="translate(-342.848 -21.414)" fill="#def4f8"/>
      <path id="Trazado_819300" data-name="Trazado 819300" d="M93.817,51.15H30.949V11.477a4.056,4.056,0,0,1,4.056-4.056H89.761a4.056,4.056,0,0,1,4.056,4.056V51.15ZM37.033,44.432h50.7A1.267,1.267,0,0,0,89,43.164V13.506a1.267,1.267,0,0,0-1.267-1.267h-50.7a1.267,1.267,0,0,0-1.267,1.267V43.165A1.267,1.267,0,0,0,37.033,44.432Zm0,0" transform="translate(-26.672 -6.396)" fill="#607882"/>
      <path id="Trazado_819301" data-name="Trazado 819301" d="M90.565,8V45.874a.972.972,0,0,1-.972.972H30.949v4.8H93.817V11.976A4.057,4.057,0,0,0,90.565,8Zm0,0" transform="translate(-26.672 -6.894)" fill="#495959"/>
      <path id="Trazado_819302" data-name="Trazado 819302" d="M70.321,316.428H13.226a5.8,5.8,0,0,1-5.8-5.8v-.716a.666.666,0,0,1,.666-.666h67.37a.666.666,0,0,1,.667.666v.716A5.8,5.8,0,0,1,70.321,316.428Zm0,0" transform="translate(-6.396 -266.507)" fill="#607882"/>
      <path id="Trazado_819303" data-name="Trazado 819303" d="M84.08,309.242H77.875a5.744,5.744,0,0,1-5.715,5.177H17.418a5.727,5.727,0,0,0,4.362,2.009H79a5.743,5.743,0,0,0,5.743-5.743V309.9A.659.659,0,0,0,84.08,309.242Zm0,0" transform="translate(-15.011 -266.507)" fill="#495959"/>
      <g id="Grupo_1072425" data-name="Grupo 1072425" transform="translate(16.892 14.598)">
        <path id="Trazado_819304" data-name="Trazado 819304" d="M123.431,107.33h-.855c-.219,0-.338-.079-.338-.351,0-.245.132-.311.477-.378l.245-.053c.736-.159.531-.915,1.094-.915.212,0,.384.093.384.451v3.765c0,.344-.132.583-.5.583s-.5-.239-.5-.583Zm0,0" transform="translate(-122.238 -105.633)" fill="#607882"/>
        <path id="Trazado_819305" data-name="Trazado 819305" d="M155.426,105.633c1.074,0,1.77.776,1.77,2.34,0,1.173-.371,2.459-1.77,2.459s-1.77-1.286-1.77-2.459C153.656,106.409,154.352,105.633,155.426,105.633Zm0,4c.51,0,.8-.418.8-1.6,0-.994-.219-1.6-.8-1.6s-.8.61-.8,1.6C154.624,109.219,154.916,109.637,155.426,109.637Zm0,0" transform="translate(-149.315 -105.633)" fill="#607882"/>
        <path id="Trazado_819306" data-name="Trazado 819306" d="M194.375,105.633c1.074,0,1.77.776,1.77,2.34,0,1.173-.371,2.459-1.77,2.459s-1.77-1.286-1.77-2.459C192.605,106.409,193.3,105.633,194.375,105.633Zm0,4c.511,0,.8-.418.8-1.6,0-.994-.219-1.6-.8-1.6s-.8.61-.8,1.6C193.573,109.219,193.865,109.637,194.375,109.637Zm0,0" transform="translate(-182.881 -105.633)" fill="#607882"/>
        <path id="Trazado_819307" data-name="Trazado 819307" d="M230.447,107.33h-.855c-.219,0-.338-.079-.338-.351,0-.245.132-.311.477-.378l.246-.053c.736-.159.53-.915,1.094-.915.212,0,.384.093.384.451v3.765c0,.344-.132.583-.5.583s-.5-.239-.5-.583Zm0,0" transform="translate(-214.465 -105.633)" fill="#607882"/>
        <path id="Trazado_819308" data-name="Trazado 819308" d="M262.441,105.633c1.074,0,1.77.776,1.77,2.34,0,1.173-.371,2.459-1.77,2.459s-1.77-1.286-1.77-2.459C260.672,106.409,261.368,105.633,262.441,105.633Zm0,4c.511,0,.8-.418.8-1.6,0-.994-.219-1.6-.8-1.6s-.8.61-.8,1.6C261.639,109.219,261.931,109.637,262.441,109.637Zm0,0" transform="translate(-241.542 -105.633)" fill="#607882"/>
        <path id="Trazado_819309" data-name="Trazado 819309" d="M298.509,107.33h-.855c-.219,0-.338-.079-.338-.351,0-.245.133-.311.477-.378l.246-.053c.735-.159.53-.915,1.094-.915.212,0,.384.093.384.451v3.765c0,.344-.133.583-.5.583s-.5-.239-.5-.583Zm0,0" transform="translate(-273.122 -105.633)" fill="#607882"/>
        <path id="Trazado_819310" data-name="Trazado 819310" d="M330.5,105.633c1.074,0,1.77.776,1.77,2.34,0,1.173-.371,2.459-1.77,2.459s-1.77-1.286-1.77-2.459C328.734,106.409,329.43,105.633,330.5,105.633Zm0,4c.51,0,.8-.418.8-1.6,0-.994-.219-1.6-.8-1.6s-.8.61-.8,1.6C329.7,109.219,329.994,109.637,330.5,109.637Zm0,0" transform="translate(-300.198 -105.633)" fill="#607882"/>
        <path id="Trazado_819311" data-name="Trazado 819311" d="M369.453,105.633c1.074,0,1.77.776,1.77,2.34,0,1.173-.371,2.459-1.77,2.459s-1.77-1.286-1.77-2.459C367.684,106.409,368.379,105.633,369.453,105.633Zm0,4c.511,0,.8-.418.8-1.6,0-.994-.219-1.6-.8-1.6s-.8.61-.8,1.6C368.651,109.219,368.943,109.637,369.453,109.637Zm0,0" transform="translate(-333.765 -105.633)" fill="#607882"/>
        <path id="Trazado_819312" data-name="Trazado 819312" d="M126.309,158.246c1.074,0,1.769.776,1.769,2.34,0,1.174-.371,2.459-1.769,2.459s-1.77-1.286-1.77-2.459C124.539,159.022,125.235,158.246,126.309,158.246Zm0,4c.51,0,.8-.418.8-1.6,0-.994-.219-1.6-.8-1.6s-.8.61-.8,1.6C125.507,161.832,125.8,162.25,126.309,162.25Zm0,0" transform="translate(-124.221 -150.975)" fill="#607882"/>
        <path id="Trazado_819313" data-name="Trazado 819313" d="M162.38,159.943h-.855c-.219,0-.338-.079-.338-.351,0-.246.133-.312.477-.378l.245-.053c.736-.159.531-.914,1.094-.914.212,0,.384.093.384.451v3.765c0,.344-.132.583-.5.583s-.5-.239-.5-.583Zm0,0" transform="translate(-155.805 -150.975)" fill="#607882"/>
        <path id="Trazado_819314" data-name="Trazado 819314" d="M194.375,158.246c1.074,0,1.77.776,1.77,2.34,0,1.174-.371,2.459-1.77,2.459s-1.77-1.286-1.77-2.459C192.605,159.022,193.3,158.246,194.375,158.246Zm0,4c.511,0,.8-.418.8-1.6,0-.994-.219-1.6-.8-1.6s-.8.61-.8,1.6C193.573,161.832,193.865,162.25,194.375,162.25Zm0,0" transform="translate(-182.881 -150.975)" fill="#607882"/>
        <path id="Trazado_819315" data-name="Trazado 819315" d="M230.447,159.943h-.855c-.219,0-.338-.079-.338-.351,0-.246.132-.312.477-.378l.246-.053c.736-.159.53-.914,1.094-.914.212,0,.384.093.384.451v3.765c0,.344-.132.583-.5.583s-.5-.239-.5-.583Zm0,0" transform="translate(-214.465 -150.975)" fill="#607882"/>
        <path id="Trazado_819316" data-name="Trazado 819316" d="M262.441,158.246c1.074,0,1.77.776,1.77,2.34,0,1.174-.371,2.459-1.77,2.459s-1.77-1.286-1.77-2.459C260.672,159.022,261.368,158.246,262.441,158.246Zm0,4c.511,0,.8-.418.8-1.6,0-.994-.219-1.6-.8-1.6s-.8.61-.8,1.6C261.639,161.832,261.931,162.25,262.441,162.25Zm0,0" transform="translate(-241.542 -150.975)" fill="#607882"/>
        <path id="Trazado_819317" data-name="Trazado 819317" d="M301.387,158.246c1.074,0,1.77.776,1.77,2.34,0,1.174-.371,2.459-1.77,2.459s-1.77-1.286-1.77-2.459C299.617,159.022,300.314,158.246,301.387,158.246Zm0,4c.51,0,.8-.418.8-1.6,0-.994-.219-1.6-.8-1.6s-.8.61-.8,1.6C300.585,161.832,300.877,162.25,301.387,162.25Zm0,0" transform="translate(-275.105 -150.975)" fill="#607882"/>
        <path id="Trazado_819318" data-name="Trazado 819318" d="M340.336,158.246c1.074,0,1.77.776,1.77,2.34,0,1.174-.371,2.459-1.77,2.459s-1.77-1.286-1.77-2.459C338.566,159.022,339.263,158.246,340.336,158.246Zm0,4c.51,0,.8-.418.8-1.6,0-.994-.219-1.6-.8-1.6s-.8.61-.8,1.6C339.534,161.832,339.826,162.25,340.336,162.25Zm0,0" transform="translate(-308.672 -150.975)" fill="#607882"/>
        <path id="Trazado_819319" data-name="Trazado 819319" d="M376.408,159.943h-.855c-.219,0-.338-.079-.338-.351,0-.246.132-.312.477-.378l.245-.053c.736-.159.53-.914,1.094-.914.212,0,.384.093.384.451v3.765c0,.344-.132.583-.5.583s-.5-.239-.5-.583Zm0,0" transform="translate(-340.256 -150.975)" fill="#607882"/>
        <path id="Trazado_819320" data-name="Trazado 819320" d="M123.431,212.556h-.855c-.219,0-.338-.079-.338-.351,0-.246.132-.312.477-.378l.245-.053c.736-.159.531-.914,1.094-.914.212,0,.384.093.384.451v3.765c0,.345-.132.584-.5.584s-.5-.239-.5-.584Zm0,0" transform="translate(-122.238 -196.318)" fill="#607882"/>
        <path id="Trazado_819321" data-name="Trazado 819321" d="M155.426,210.859c1.074,0,1.77.776,1.77,2.34,0,1.174-.371,2.459-1.77,2.459s-1.77-1.286-1.77-2.459C153.656,211.635,154.352,210.859,155.426,210.859Zm0,4c.51,0,.8-.417.8-1.6,0-.994-.219-1.6-.8-1.6s-.8.61-.8,1.6C154.624,214.445,154.916,214.863,155.426,214.863Zm0,0" transform="translate(-149.315 -196.318)" fill="#607882"/>
        <path id="Trazado_819322" data-name="Trazado 819322" d="M191.5,212.556h-.855c-.219,0-.338-.079-.338-.351,0-.246.132-.312.477-.378l.245-.053c.736-.159.53-.914,1.094-.914.212,0,.384.093.384.451v3.765c0,.345-.133.584-.5.584s-.5-.239-.5-.584Zm0,0" transform="translate(-180.898 -196.318)" fill="#607882"/>
        <path id="Trazado_819323" data-name="Trazado 819323" d="M223.492,210.859c1.074,0,1.77.776,1.77,2.34,0,1.174-.371,2.459-1.77,2.459s-1.77-1.286-1.77-2.459C221.723,211.635,222.418,210.859,223.492,210.859Zm0,4c.511,0,.8-.417.8-1.6,0-.994-.219-1.6-.8-1.6s-.8.61-.8,1.6C222.69,214.445,222.982,214.863,223.492,214.863Zm0,0" transform="translate(-207.975 -196.318)" fill="#607882"/>
        <path id="Trazado_819324" data-name="Trazado 819324" d="M262.441,210.859c1.074,0,1.77.776,1.77,2.34,0,1.174-.371,2.459-1.77,2.459s-1.77-1.286-1.77-2.459C260.672,211.635,261.368,210.859,262.441,210.859Zm0,4c.511,0,.8-.417.8-1.6,0-.994-.219-1.6-.8-1.6s-.8.61-.8,1.6C261.639,214.445,261.931,214.863,262.441,214.863Zm0,0" transform="translate(-241.542 -196.318)" fill="#607882"/>
        <path id="Trazado_819325" data-name="Trazado 819325" d="M298.509,212.556h-.855c-.219,0-.338-.079-.338-.351,0-.246.133-.312.477-.378l.246-.053c.735-.159.53-.914,1.094-.914.212,0,.384.093.384.451v3.765c0,.345-.133.584-.5.584s-.5-.239-.5-.584Zm0,0" transform="translate(-273.122 -196.318)" fill="#607882"/>
        <path id="Trazado_819326" data-name="Trazado 819326" d="M330.5,210.859c1.074,0,1.77.776,1.77,2.34,0,1.174-.371,2.459-1.77,2.459s-1.77-1.286-1.77-2.459C328.734,211.635,329.43,210.859,330.5,210.859Zm0,4c.51,0,.8-.417.8-1.6,0-.994-.219-1.6-.8-1.6s-.8.61-.8,1.6C329.7,214.445,329.994,214.863,330.5,214.863Zm0,0" transform="translate(-300.198 -196.318)" fill="#607882"/>
        <path id="Trazado_819327" data-name="Trazado 819327" d="M369.453,210.859c1.074,0,1.77.776,1.77,2.34,0,1.174-.371,2.459-1.77,2.459s-1.77-1.286-1.77-2.459C367.684,211.635,368.379,210.859,369.453,210.859Zm0,4c.511,0,.8-.417.8-1.6,0-.994-.219-1.6-.8-1.6s-.8.61-.8,1.6C368.651,214.445,368.943,214.863,369.453,214.863Zm0,0" transform="translate(-333.765 -196.318)" fill="#607882"/>
      </g>
      <path id="Trazado_819328" data-name="Trazado 819328" d="M111.375,69.1a2.3,2.3,0,0,0,2.293-2.293V37.145a2.3,2.3,0,0,0-2.293-2.293h-50.7a2.3,2.3,0,0,0-2.293,2.293V66.8A2.3,2.3,0,0,0,60.676,69.1ZM60.434,66.8V42.837H96.446a1.026,1.026,0,1,0,0-2.051H60.434V37.145a.242.242,0,0,1,.242-.242h50.7a.242.242,0,0,1,.242.242v3.641H101.325a1.026,1.026,0,1,0,0,2.051h10.292V66.8a.243.243,0,0,1-.242.242h-50.7A.243.243,0,0,1,60.434,66.8Zm0,0" transform="translate(-50.315 -30.035)"/>
      <path id="Trazado_819329" data-name="Trazado 819329" d="M69.069,41.709h-.9V5.081A5.087,5.087,0,0,0,63.088,0H8.333A5.054,5.054,0,0,0,4.012,2.406,1.026,1.026,0,1,0,5.755,3.487,3.015,3.015,0,0,1,8.333,2.051H63.088a3.034,3.034,0,0,1,3.03,3.03V41.709h-.3a1.025,1.025,0,0,0,0,2.051H68.7v.418A4.723,4.723,0,0,1,63.985,48.9H6.769a4.723,4.723,0,0,1-4.717-4.717v-.416l59.06.2h0a1.026,1.026,0,0,0,0-2.051L5.3,41.721V7.568a1.026,1.026,0,0,0-2.051,0V41.714l-1.566-.005A1.687,1.687,0,0,0,0,43.394v.783a6.776,6.776,0,0,0,6.769,6.769H63.985a6.776,6.776,0,0,0,6.769-6.769v-.783A1.687,1.687,0,0,0,69.069,41.709Zm0,0"/>
      <path id="Trazado_819330" data-name="Trazado 819330" d="M122.576,107.33h.855v2.519c0,.344.133.583.5.583s.5-.239.5-.583v-3.765c0-.358-.172-.451-.384-.451-.563,0-.358.756-1.094.915l-.245.053c-.345.066-.477.133-.477.378C122.238,107.25,122.358,107.33,122.576,107.33Zm0,0" transform="translate(-105.346 -91.035)"/>
      <path id="Trazado_819331" data-name="Trazado 819331" d="M155.426,110.432c1.4,0,1.77-1.286,1.77-2.459,0-1.564-.7-2.34-1.77-2.34s-1.77.776-1.77,2.34C153.656,109.146,154.028,110.432,155.426,110.432Zm0-4c.583,0,.8.609.8,1.6,0,1.187-.292,1.6-.8,1.6s-.8-.418-.8-1.6C154.624,107.038,154.843,106.428,155.426,106.428Zm0,0" transform="translate(-132.422 -91.035)"/>
      <path id="Trazado_819332" data-name="Trazado 819332" d="M194.375,110.432c1.4,0,1.77-1.286,1.77-2.459,0-1.564-.7-2.34-1.77-2.34s-1.77.776-1.77,2.34C192.605,109.146,192.977,110.432,194.375,110.432Zm0-4c.584,0,.8.609.8,1.6,0,1.187-.292,1.6-.8,1.6s-.8-.418-.8-1.6C193.573,107.038,193.792,106.428,194.375,106.428Zm0,0" transform="translate(-165.989 -91.035)"/>
      <path id="Trazado_819333" data-name="Trazado 819333" d="M229.592,107.33h.855v2.519c0,.344.132.583.5.583s.5-.239.5-.583v-3.765c0-.358-.172-.451-.384-.451-.564,0-.358.756-1.094.915l-.245.053c-.345.066-.477.133-.477.378C229.254,107.25,229.373,107.33,229.592,107.33Zm0,0" transform="translate(-197.573 -91.035)"/>
      <path id="Trazado_819334" data-name="Trazado 819334" d="M262.441,110.432c1.4,0,1.77-1.286,1.77-2.459,0-1.564-.7-2.34-1.77-2.34s-1.77.776-1.77,2.34C260.672,109.146,261.043,110.432,262.441,110.432Zm0-4c.584,0,.8.609.8,1.6,0,1.187-.292,1.6-.8,1.6s-.8-.418-.8-1.6C261.639,107.038,261.858,106.428,262.441,106.428Zm0,0" transform="translate(-224.649 -91.035)"/>
      <path id="Trazado_819335" data-name="Trazado 819335" d="M297.654,107.33h.855v2.519c0,.344.133.583.5.583s.5-.239.5-.583v-3.765c0-.358-.173-.451-.384-.451-.564,0-.358.756-1.094.915l-.246.053c-.344.066-.477.133-.477.378C297.316,107.25,297.436,107.33,297.654,107.33Zm0,0" transform="translate(-256.23 -91.035)"/>
      <path id="Trazado_819336" data-name="Trazado 819336" d="M330.5,110.432c1.4,0,1.77-1.286,1.77-2.459,0-1.564-.7-2.34-1.77-2.34s-1.77.776-1.77,2.34C328.734,109.146,329.106,110.432,330.5,110.432Zm0-4c.583,0,.8.609.8,1.6,0,1.187-.292,1.6-.8,1.6s-.8-.418-.8-1.6C329.7,107.038,329.921,106.428,330.5,106.428Zm0,0" transform="translate(-283.306 -91.035)"/>
      <path id="Trazado_819337" data-name="Trazado 819337" d="M369.453,110.432c1.4,0,1.77-1.286,1.77-2.459,0-1.564-.7-2.34-1.77-2.34s-1.77.776-1.77,2.34C367.684,109.146,368.055,110.432,369.453,110.432Zm0-4c.584,0,.8.609.8,1.6,0,1.187-.292,1.6-.8,1.6s-.8-.418-.8-1.6C368.651,107.038,368.87,106.428,369.453,106.428Zm0,0" transform="translate(-316.873 -91.035)"/>
      <path id="Trazado_819338" data-name="Trazado 819338" d="M124.539,160.586c0,1.173.371,2.459,1.77,2.459s1.769-1.286,1.769-2.459c0-1.564-.7-2.34-1.769-2.34S124.539,159.022,124.539,160.586Zm2.572.059c0,1.187-.292,1.6-.8,1.6s-.8-.417-.8-1.6c0-.994.219-1.6.8-1.6S127.111,159.651,127.111,160.646Zm0,0" transform="translate(-107.329 -136.378)"/>
      <path id="Trazado_819339" data-name="Trazado 819339" d="M162.884,163.045c.371,0,.5-.239.5-.583V158.7c0-.358-.173-.451-.385-.451-.563,0-.358.756-1.094.914l-.245.053c-.344.066-.477.133-.477.378,0,.272.119.351.338.351h.855v2.519C162.38,162.806,162.513,163.045,162.884,163.045Zm0,0" transform="translate(-138.913 -136.378)"/>
      <path id="Trazado_819340" data-name="Trazado 819340" d="M194.375,163.045c1.4,0,1.77-1.286,1.77-2.459,0-1.564-.7-2.34-1.77-2.34s-1.77.776-1.77,2.34C192.605,161.759,192.977,163.045,194.375,163.045Zm0-4c.584,0,.8.609.8,1.6,0,1.187-.292,1.6-.8,1.6s-.8-.418-.8-1.6C193.573,159.651,193.792,159.042,194.375,159.042Zm0,0" transform="translate(-165.989 -136.378)"/>
      <path id="Trazado_819341" data-name="Trazado 819341" d="M229.592,159.943h.855v2.519c0,.344.132.583.5.583s.5-.239.5-.583V158.7c0-.358-.172-.451-.384-.451-.564,0-.358.756-1.094.914l-.245.053c-.345.066-.477.133-.477.378C229.254,159.863,229.373,159.943,229.592,159.943Zm0,0" transform="translate(-197.573 -136.378)"/>
      <path id="Trazado_819342" data-name="Trazado 819342" d="M262.441,163.045c1.4,0,1.77-1.286,1.77-2.459,0-1.564-.7-2.34-1.77-2.34s-1.77.776-1.77,2.34C260.672,161.759,261.043,163.045,262.441,163.045Zm0-4c.584,0,.8.609.8,1.6,0,1.187-.292,1.6-.8,1.6s-.8-.418-.8-1.6C261.639,159.651,261.858,159.042,262.441,159.042Zm0,0" transform="translate(-224.649 -136.378)"/>
      <path id="Trazado_819343" data-name="Trazado 819343" d="M299.617,160.586c0,1.173.371,2.459,1.77,2.459s1.77-1.286,1.77-2.459c0-1.564-.7-2.34-1.77-2.34S299.617,159.022,299.617,160.586Zm2.572.059c0,1.187-.292,1.6-.8,1.6s-.8-.417-.8-1.6c0-.994.219-1.6.8-1.6S302.189,159.651,302.189,160.646Zm0,0" transform="translate(-258.213 -136.378)"/>
      <path id="Trazado_819344" data-name="Trazado 819344" d="M338.566,160.586c0,1.173.371,2.459,1.77,2.459s1.77-1.286,1.77-2.459c0-1.564-.7-2.34-1.77-2.34S338.566,159.022,338.566,160.586Zm2.572.059c0,1.187-.292,1.6-.8,1.6s-.8-.417-.8-1.6c0-.994.219-1.6.8-1.6S341.139,159.651,341.139,160.646Zm0,0" transform="translate(-291.779 -136.378)"/>
      <path id="Trazado_819345" data-name="Trazado 819345" d="M376.911,163.045c.371,0,.5-.239.5-.583V158.7c0-.358-.172-.451-.384-.451-.564,0-.358.756-1.094.914l-.245.053c-.345.066-.477.133-.477.378,0,.272.119.351.338.351h.855v2.519C376.408,162.806,376.541,163.045,376.911,163.045Zm0,0" transform="translate(-323.363 -136.378)"/>
      <path id="Trazado_819346" data-name="Trazado 819346" d="M122.576,212.556h.855v2.519c0,.345.133.584.5.584s.5-.239.5-.584V211.31c0-.358-.172-.451-.384-.451-.563,0-.358.756-1.094.914l-.245.053c-.345.066-.477.132-.477.378C122.238,212.477,122.358,212.556,122.576,212.556Zm0,0" transform="translate(-105.346 -181.72)"/>
      <path id="Trazado_819347" data-name="Trazado 819347" d="M155.426,215.658c1.4,0,1.77-1.286,1.77-2.459,0-1.564-.7-2.34-1.77-2.34s-1.77.776-1.77,2.34C153.656,214.372,154.028,215.658,155.426,215.658Zm0-4c.583,0,.8.61.8,1.6,0,1.187-.292,1.6-.8,1.6s-.8-.418-.8-1.6C154.624,212.264,154.843,211.655,155.426,211.655Zm0,0" transform="translate(-132.422 -181.72)"/>
      <path id="Trazado_819348" data-name="Trazado 819348" d="M190.643,212.556h.855v2.519c0,.345.133.584.5.584s.5-.239.5-.584V211.31c0-.358-.173-.451-.385-.451-.563,0-.358.756-1.094.914l-.245.053c-.344.066-.477.132-.477.378C190.3,212.477,190.424,212.556,190.643,212.556Zm0,0" transform="translate(-164.006 -181.72)"/>
      <path id="Trazado_819349" data-name="Trazado 819349" d="M223.492,215.658c1.4,0,1.77-1.286,1.77-2.459,0-1.564-.7-2.34-1.77-2.34s-1.77.776-1.77,2.34C221.723,214.372,222.094,215.658,223.492,215.658Zm0-4c.584,0,.8.61.8,1.6,0,1.187-.291,1.6-.8,1.6s-.8-.418-.8-1.6C222.69,212.264,222.909,211.655,223.492,211.655Zm0,0" transform="translate(-191.082 -181.72)"/>
      <path id="Trazado_819350" data-name="Trazado 819350" d="M262.441,215.658c1.4,0,1.77-1.286,1.77-2.459,0-1.564-.7-2.34-1.77-2.34s-1.77.776-1.77,2.34C260.672,214.372,261.043,215.658,262.441,215.658Zm0-4c.584,0,.8.61.8,1.6,0,1.187-.292,1.6-.8,1.6s-.8-.418-.8-1.6C261.639,212.264,261.858,211.655,262.441,211.655Zm0,0" transform="translate(-224.649 -181.72)"/>
      <path id="Trazado_819351" data-name="Trazado 819351" d="M297.654,212.556h.855v2.519c0,.345.133.584.5.584s.5-.239.5-.584V211.31c0-.358-.173-.451-.384-.451-.564,0-.358.756-1.094.914l-.246.053c-.344.066-.477.132-.477.378C297.316,212.477,297.436,212.556,297.654,212.556Zm0,0" transform="translate(-256.23 -181.72)"/>
      <path id="Trazado_819352" data-name="Trazado 819352" d="M330.5,215.658c1.4,0,1.77-1.286,1.77-2.459,0-1.564-.7-2.34-1.77-2.34s-1.77.776-1.77,2.34C328.734,214.372,329.106,215.658,330.5,215.658Zm0-4c.583,0,.8.61.8,1.6,0,1.187-.292,1.6-.8,1.6s-.8-.418-.8-1.6C329.7,212.264,329.921,211.655,330.5,211.655Zm0,0" transform="translate(-283.306 -181.72)"/>
      <path id="Trazado_819353" data-name="Trazado 819353" d="M369.453,215.658c1.4,0,1.77-1.286,1.77-2.459,0-1.564-.7-2.34-1.77-2.34s-1.77.776-1.77,2.34C367.684,214.372,368.055,215.658,369.453,215.658Zm0-4c.584,0,.8.61.8,1.6,0,1.187-.292,1.6-.8,1.6s-.8-.418-.8-1.6C368.651,212.264,368.87,211.655,369.453,211.655Zm0,0" transform="translate(-316.873 -181.72)"/>
    </g>
  </g>
</svg>
