<svg xmlns="http://www.w3.org/2000/svg" width="485" height="166" viewBox="0 0 485 166">
  <g id="Grupo_1072623" data-name="Grupo 1072623" transform="translate(-546 -6374.438)">
    <g id="Grupo_1072217" data-name="Grupo 1072217" transform="translate(546 6374.438)">
      <rect id="Rectángulo_381719" data-name="Rectángulo 381719" width="485" height="166" fill="#f7f4ff"/>
      <g id="Grupo_1072216" data-name="Grupo 1072216" transform="translate(26 29)">
        <path id="Trazado_819998" data-name="Trazado 819998" d="M3.359-4.008V0H1.016V-11.375H5.453a5.134,5.134,0,0,1,2.254.469A3.454,3.454,0,0,1,9.2-9.574a3.714,3.714,0,0,1,.523,1.965A3.266,3.266,0,0,1,8.582-4.973a4.767,4.767,0,0,1-3.168.965Zm0-1.9H5.453a2.059,2.059,0,0,0,1.418-.437,1.591,1.591,0,0,0,.488-1.25,1.876,1.876,0,0,0-.492-1.352,1.839,1.839,0,0,0-1.359-.531H3.359Zm12.578-.43a6.134,6.134,0,0,0-.812-.062,1.654,1.654,0,0,0-1.68.867V0H11.188V-8.453H13.32l.063,1.008a2.092,2.092,0,0,1,1.883-1.164,2.366,2.366,0,0,1,.7.1ZM16.391-4.3a5.013,5.013,0,0,1,.484-2.242A3.546,3.546,0,0,1,18.27-8.07a4.069,4.069,0,0,1,2.113-.539,3.849,3.849,0,0,1,2.793,1.047,4.2,4.2,0,0,1,1.207,2.844l.016.578A4.418,4.418,0,0,1,23.313-1.02,3.775,3.775,0,0,1,20.4.156,3.793,3.793,0,0,1,17.48-1.016,4.5,4.5,0,0,1,16.391-4.2Zm2.258.164A3.151,3.151,0,0,0,19.1-2.3a1.5,1.5,0,0,0,1.3.637,1.5,1.5,0,0,0,1.281-.629A3.448,3.448,0,0,0,22.141-4.3a3.12,3.12,0,0,0-.461-1.828,1.5,1.5,0,0,0-1.3-.648,1.475,1.475,0,0,0-1.281.645A3.506,3.506,0,0,0,18.648-4.141Zm14.758-.008A5.119,5.119,0,0,1,32.539-.98,2.872,2.872,0,0,1,30.117.156,2.639,2.639,0,0,1,27.922-.9l-.1.9H25.789V-12h2.258v4.3A2.571,2.571,0,0,1,30.1-8.609a2.9,2.9,0,0,1,2.426,1.137,5.126,5.126,0,0,1,.879,3.2Zm-2.258-.164a3.363,3.363,0,0,0-.406-1.871,1.374,1.374,0,0,0-1.211-.59,1.489,1.489,0,0,0-1.484.883v3.336a1.509,1.509,0,0,0,1.5.891,1.394,1.394,0,0,0,1.438-1.078A5.562,5.562,0,0,0,31.148-4.312ZM39.7,0a2.507,2.507,0,0,1-.227-.758,2.732,2.732,0,0,1-2.133.914,3,3,0,0,1-2.059-.719,2.312,2.312,0,0,1-.816-1.812,2.389,2.389,0,0,1,1-2.062,4.915,4.915,0,0,1,2.879-.727h1.039v-.484a1.393,1.393,0,0,0-.3-.937,1.183,1.183,0,0,0-.949-.352,1.345,1.345,0,0,0-.895.273.929.929,0,0,0-.324.75H34.648A2.268,2.268,0,0,1,35.1-7.273a3,3,0,0,1,1.281-.98,4.669,4.669,0,0,1,1.859-.355,3.689,3.689,0,0,1,2.48.785,2.747,2.747,0,0,1,.918,2.207v3.664a4.041,4.041,0,0,0,.336,1.82V0ZM37.828-1.57a1.945,1.945,0,0,0,.922-.223,1.462,1.462,0,0,0,.625-.6V-3.844h-.844q-1.7,0-1.8,1.172l-.008.133a.9.9,0,0,0,.3.7A1.153,1.153,0,0,0,37.828-1.57ZM50.992-4.148A5.119,5.119,0,0,1,50.125-.98,2.872,2.872,0,0,1,47.7.156,2.639,2.639,0,0,1,45.508-.9l-.1.9H43.375V-12h2.258v4.3a2.571,2.571,0,0,1,2.055-.914,2.9,2.9,0,0,1,2.426,1.137,5.126,5.126,0,0,1,.879,3.2Zm-2.258-.164a3.363,3.363,0,0,0-.406-1.871,1.374,1.374,0,0,0-1.211-.59,1.489,1.489,0,0,0-1.484.883v3.336a1.509,1.509,0,0,0,1.5.891A1.394,1.394,0,0,0,48.57-2.742,5.562,5.562,0,0,0,48.734-4.312ZM54.766,0H52.5V-8.453h2.266Zm-2.4-10.641a1.112,1.112,0,0,1,.34-.836,1.277,1.277,0,0,1,.926-.328,1.28,1.28,0,0,1,.922.328,1.105,1.105,0,0,1,.344.836,1.108,1.108,0,0,1-.348.844,1.283,1.283,0,0,1-.918.328,1.283,1.283,0,0,1-.918-.328A1.108,1.108,0,0,1,52.367-10.641ZM59.008,0H56.742V-12h2.266ZM63.25,0H60.984V-8.453H63.25Zm-2.4-10.641a1.112,1.112,0,0,1,.34-.836,1.277,1.277,0,0,1,.926-.328,1.28,1.28,0,0,1,.922.328,1.105,1.105,0,0,1,.344.836,1.108,1.108,0,0,1-.348.844,1.283,1.283,0,0,1-.918.328A1.283,1.283,0,0,1,61.2-9.8,1.108,1.108,0,0,1,60.852-10.641Zm3.906,6.352a5.094,5.094,0,0,1,.887-3.148A2.877,2.877,0,0,1,68.07-8.609a2.589,2.589,0,0,1,2.039.922V-12h2.266V0H70.336l-.109-.9A2.657,2.657,0,0,1,68.055.156,2.869,2.869,0,0,1,65.66-1.02,5.258,5.258,0,0,1,64.758-4.289Zm2.258.164A3.328,3.328,0,0,0,67.43-2.3a1.349,1.349,0,0,0,1.2.633,1.511,1.511,0,0,0,1.477-.883V-5.891a1.489,1.489,0,0,0-1.461-.883Q67.016-6.773,67.016-4.125ZM79.023,0A2.507,2.507,0,0,1,78.8-.758a2.732,2.732,0,0,1-2.133.914,3,3,0,0,1-2.059-.719,2.312,2.312,0,0,1-.816-1.812,2.389,2.389,0,0,1,1-2.062,4.915,4.915,0,0,1,2.879-.727H78.7v-.484a1.393,1.393,0,0,0-.3-.937,1.183,1.183,0,0,0-.949-.352,1.345,1.345,0,0,0-.895.273.929.929,0,0,0-.324.75H73.977a2.268,2.268,0,0,1,.453-1.359,3,3,0,0,1,1.281-.98,4.669,4.669,0,0,1,1.859-.355,3.689,3.689,0,0,1,2.48.785,2.747,2.747,0,0,1,.918,2.207v3.664A4.041,4.041,0,0,0,81.3-.133V0ZM77.156-1.57a1.945,1.945,0,0,0,.922-.223,1.462,1.462,0,0,0,.625-.6V-3.844h-.844q-1.7,0-1.8,1.172l-.008.133a.9.9,0,0,0,.3.7A1.153,1.153,0,0,0,77.156-1.57Zm5.2-2.719a5.094,5.094,0,0,1,.887-3.148,2.877,2.877,0,0,1,2.426-1.172,2.589,2.589,0,0,1,2.039.922V-12h2.266V0H87.93L87.82-.9A2.657,2.657,0,0,1,85.648.156,2.869,2.869,0,0,1,83.254-1.02,5.258,5.258,0,0,1,82.352-4.289Zm2.258.164a3.328,3.328,0,0,0,.414,1.82,1.349,1.349,0,0,0,1.2.633A1.511,1.511,0,0,0,87.7-2.555V-5.891a1.489,1.489,0,0,0-1.461-.883Q84.609-6.773,84.609-4.125ZM100.6,0a2.507,2.507,0,0,1-.227-.758,2.732,2.732,0,0,1-2.133.914,3,3,0,0,1-2.059-.719,2.312,2.312,0,0,1-.816-1.812,2.389,2.389,0,0,1,1-2.062,4.915,4.915,0,0,1,2.879-.727h1.039v-.484a1.393,1.393,0,0,0-.3-.937,1.183,1.183,0,0,0-.949-.352,1.345,1.345,0,0,0-.895.273.929.929,0,0,0-.324.75H95.555a2.268,2.268,0,0,1,.453-1.359,3,3,0,0,1,1.281-.98,4.669,4.669,0,0,1,1.859-.355,3.689,3.689,0,0,1,2.48.785,2.747,2.747,0,0,1,.918,2.207v3.664a4.041,4.041,0,0,0,.336,1.82V0ZM98.734-1.57a1.945,1.945,0,0,0,.922-.223,1.462,1.462,0,0,0,.625-.6V-3.844h-.844q-1.7,0-1.8,1.172l-.008.133a.9.9,0,0,0,.3.7A1.153,1.153,0,0,0,98.734-1.57Zm16.8-2.633a6.981,6.981,0,0,1-.7,2.359,3.826,3.826,0,0,1-1.32,1.531,3.058,3.058,0,0,1-1.75.477,2.44,2.44,0,0,1-1.937-.914l-.773,4h-2.2l2.023-11.7,2.031-.008-.148.852a2.7,2.7,0,0,1,2.156-1,2.4,2.4,0,0,1,1.93.9,3.922,3.922,0,0,1,.734,2.363A9.133,9.133,0,0,1,115.539-4.2Zm-2.187-.164.047-.75a2.084,2.084,0,0,0-.277-1.2,1,1,0,0,0-.855-.461,1.819,1.819,0,0,0-1.586.813l-.633,3.484a1.233,1.233,0,0,0,1.242.82,1.591,1.591,0,0,0,1.328-.617A4.223,4.223,0,0,0,113.352-4.367Zm8.672-1.969a4.548,4.548,0,0,0-.742-.078,2.136,2.136,0,0,0-1.867.883L118.438,0h-2.2L117.7-8.453l2.07-.008-.2,1.031a2.325,2.325,0,0,1,1.969-1.2,3.214,3.214,0,0,1,.766.109ZM124.3,0h-2.219l1.469-8.453h2.219Zm-.492-10.6a1.1,1.1,0,0,1,.344-.867,1.209,1.209,0,0,1,.867-.344,1.215,1.215,0,0,1,.867.3,1.1,1.1,0,0,1,.383.828,1.132,1.132,0,0,1-.324.844,1.215,1.215,0,0,1-.887.375,1.235,1.235,0,0,1-.863-.3A1.091,1.091,0,0,1,123.813-10.6Zm7.2,1.992a3.39,3.39,0,0,1,1.926.574A3.234,3.234,0,0,1,134.121-6.5a4.761,4.761,0,0,1,.27,2.176,5.143,5.143,0,0,1-1.4,3.262,3.96,3.96,0,0,1-3.02,1.215,3.38,3.38,0,0,1-1.906-.566,3.222,3.222,0,0,1-1.187-1.527,4.657,4.657,0,0,1-.273-2.156,5.3,5.3,0,0,1,1.422-3.328A3.878,3.878,0,0,1,131.008-8.609Zm-2.227,5.32a1.956,1.956,0,0,0,.352,1.184,1.168,1.168,0,0,0,.945.449,1.712,1.712,0,0,0,1.594-.934,4.659,4.659,0,0,0,.539-2.535,2.127,2.127,0,0,0-.363-1.2,1.148,1.148,0,0,0-.949-.465,1.714,1.714,0,0,0-1.574.926A4.611,4.611,0,0,0,128.781-3.289Zm12.031-3.047a4.548,4.548,0,0,0-.742-.078,2.136,2.136,0,0,0-1.867.883L137.227,0h-2.2l1.469-8.453,2.07-.008-.2,1.031a2.325,2.325,0,0,1,1.969-1.2,3.214,3.214,0,0,1,.766.109ZM143.094,0h-2.219l1.469-8.453h2.219ZM142.6-10.6a1.1,1.1,0,0,1,.344-.867,1.209,1.209,0,0,1,.867-.344,1.215,1.215,0,0,1,.867.3,1.1,1.1,0,0,1,.383.828,1.132,1.132,0,0,1-.324.844,1.215,1.215,0,0,1-.887.375,1.235,1.235,0,0,1-.863-.3A1.091,1.091,0,0,1,142.6-10.6Z" transform="translate(73.87 15)" fill="#8054f8"/>
        <path id="Trazado_820003" data-name="Trazado 820003" d="M3.359-4.008V0H1.016V-11.375H5.453a5.134,5.134,0,0,1,2.254.469A3.454,3.454,0,0,1,9.2-9.574a3.714,3.714,0,0,1,.523,1.965A3.266,3.266,0,0,1,8.582-4.973a4.767,4.767,0,0,1-3.168.965Zm0-1.9H5.453a2.059,2.059,0,0,0,1.418-.437,1.591,1.591,0,0,0,.488-1.25,1.876,1.876,0,0,0-.492-1.352,1.839,1.839,0,0,0-1.359-.531H3.359Zm12.578-.43a6.134,6.134,0,0,0-.812-.062,1.654,1.654,0,0,0-1.68.867V0H11.188V-8.453H13.32l.063,1.008a2.092,2.092,0,0,1,1.883-1.164,2.366,2.366,0,0,1,.7.1ZM16.391-4.3a5.013,5.013,0,0,1,.484-2.242A3.546,3.546,0,0,1,18.27-8.07a4.069,4.069,0,0,1,2.113-.539,3.849,3.849,0,0,1,2.793,1.047,4.2,4.2,0,0,1,1.207,2.844l.016.578A4.418,4.418,0,0,1,23.313-1.02,3.775,3.775,0,0,1,20.4.156,3.793,3.793,0,0,1,17.48-1.016,4.5,4.5,0,0,1,16.391-4.2Zm2.258.164A3.151,3.151,0,0,0,19.1-2.3a1.5,1.5,0,0,0,1.3.637,1.5,1.5,0,0,0,1.281-.629A3.448,3.448,0,0,0,22.141-4.3a3.12,3.12,0,0,0-.461-1.828,1.5,1.5,0,0,0-1.3-.648,1.475,1.475,0,0,0-1.281.645A3.506,3.506,0,0,0,18.648-4.141Zm14.758-.008A5.119,5.119,0,0,1,32.539-.98,2.872,2.872,0,0,1,30.117.156,2.639,2.639,0,0,1,27.922-.9l-.1.9H25.789V-12h2.258v4.3A2.571,2.571,0,0,1,30.1-8.609a2.9,2.9,0,0,1,2.426,1.137,5.126,5.126,0,0,1,.879,3.2Zm-2.258-.164a3.363,3.363,0,0,0-.406-1.871,1.374,1.374,0,0,0-1.211-.59,1.489,1.489,0,0,0-1.484.883v3.336a1.509,1.509,0,0,0,1.5.891,1.394,1.394,0,0,0,1.438-1.078A5.562,5.562,0,0,0,31.148-4.312ZM39.7,0a2.507,2.507,0,0,1-.227-.758,2.732,2.732,0,0,1-2.133.914,3,3,0,0,1-2.059-.719,2.312,2.312,0,0,1-.816-1.812,2.389,2.389,0,0,1,1-2.062,4.915,4.915,0,0,1,2.879-.727h1.039v-.484a1.393,1.393,0,0,0-.3-.937,1.183,1.183,0,0,0-.949-.352,1.345,1.345,0,0,0-.895.273.929.929,0,0,0-.324.75H34.648A2.268,2.268,0,0,1,35.1-7.273a3,3,0,0,1,1.281-.98,4.669,4.669,0,0,1,1.859-.355,3.689,3.689,0,0,1,2.48.785,2.747,2.747,0,0,1,.918,2.207v3.664a4.041,4.041,0,0,0,.336,1.82V0ZM37.828-1.57a1.945,1.945,0,0,0,.922-.223,1.462,1.462,0,0,0,.625-.6V-3.844h-.844q-1.7,0-1.8,1.172l-.008.133a.9.9,0,0,0,.3.7A1.153,1.153,0,0,0,37.828-1.57ZM50.992-4.148A5.119,5.119,0,0,1,50.125-.98,2.872,2.872,0,0,1,47.7.156,2.639,2.639,0,0,1,45.508-.9l-.1.9H43.375V-12h2.258v4.3a2.571,2.571,0,0,1,2.055-.914,2.9,2.9,0,0,1,2.426,1.137,5.126,5.126,0,0,1,.879,3.2Zm-2.258-.164a3.363,3.363,0,0,0-.406-1.871,1.374,1.374,0,0,0-1.211-.59,1.489,1.489,0,0,0-1.484.883v3.336a1.509,1.509,0,0,0,1.5.891A1.394,1.394,0,0,0,48.57-2.742,5.562,5.562,0,0,0,48.734-4.312ZM54.766,0H52.5V-8.453h2.266Zm-2.4-10.641a1.112,1.112,0,0,1,.34-.836,1.277,1.277,0,0,1,.926-.328,1.28,1.28,0,0,1,.922.328,1.105,1.105,0,0,1,.344.836,1.108,1.108,0,0,1-.348.844,1.283,1.283,0,0,1-.918.328,1.283,1.283,0,0,1-.918-.328A1.108,1.108,0,0,1,52.367-10.641ZM59.008,0H56.742V-12h2.266ZM63.25,0H60.984V-8.453H63.25Zm-2.4-10.641a1.112,1.112,0,0,1,.34-.836,1.277,1.277,0,0,1,.926-.328,1.28,1.28,0,0,1,.922.328,1.105,1.105,0,0,1,.344.836,1.108,1.108,0,0,1-.348.844,1.283,1.283,0,0,1-.918.328A1.283,1.283,0,0,1,61.2-9.8,1.108,1.108,0,0,1,60.852-10.641Zm3.906,6.352a5.094,5.094,0,0,1,.887-3.148A2.877,2.877,0,0,1,68.07-8.609a2.589,2.589,0,0,1,2.039.922V-12h2.266V0H70.336l-.109-.9A2.657,2.657,0,0,1,68.055.156,2.869,2.869,0,0,1,65.66-1.02,5.258,5.258,0,0,1,64.758-4.289Zm2.258.164A3.328,3.328,0,0,0,67.43-2.3a1.349,1.349,0,0,0,1.2.633,1.511,1.511,0,0,0,1.477-.883V-5.891a1.489,1.489,0,0,0-1.461-.883Q67.016-6.773,67.016-4.125ZM79.023,0A2.507,2.507,0,0,1,78.8-.758a2.732,2.732,0,0,1-2.133.914,3,3,0,0,1-2.059-.719,2.312,2.312,0,0,1-.816-1.812,2.389,2.389,0,0,1,1-2.062,4.915,4.915,0,0,1,2.879-.727H78.7v-.484a1.393,1.393,0,0,0-.3-.937,1.183,1.183,0,0,0-.949-.352,1.345,1.345,0,0,0-.895.273.929.929,0,0,0-.324.75H73.977a2.268,2.268,0,0,1,.453-1.359,3,3,0,0,1,1.281-.98,4.669,4.669,0,0,1,1.859-.355,3.689,3.689,0,0,1,2.48.785,2.747,2.747,0,0,1,.918,2.207v3.664A4.041,4.041,0,0,0,81.3-.133V0ZM77.156-1.57a1.945,1.945,0,0,0,.922-.223,1.462,1.462,0,0,0,.625-.6V-3.844h-.844q-1.7,0-1.8,1.172l-.008.133a.9.9,0,0,0,.3.7A1.153,1.153,0,0,0,77.156-1.57Zm5.2-2.719a5.094,5.094,0,0,1,.887-3.148,2.877,2.877,0,0,1,2.426-1.172,2.589,2.589,0,0,1,2.039.922V-12h2.266V0H87.93L87.82-.9A2.657,2.657,0,0,1,85.648.156,2.869,2.869,0,0,1,83.254-1.02,5.258,5.258,0,0,1,82.352-4.289Zm2.258.164a3.328,3.328,0,0,0,.414,1.82,1.349,1.349,0,0,0,1.2.633A1.511,1.511,0,0,0,87.7-2.555V-5.891a1.489,1.489,0,0,0-1.461-.883Q84.609-6.773,84.609-4.125ZM100.6,0a2.507,2.507,0,0,1-.227-.758,2.732,2.732,0,0,1-2.133.914,3,3,0,0,1-2.059-.719,2.312,2.312,0,0,1-.816-1.812,2.389,2.389,0,0,1,1-2.062,4.915,4.915,0,0,1,2.879-.727h1.039v-.484a1.393,1.393,0,0,0-.3-.937,1.183,1.183,0,0,0-.949-.352,1.345,1.345,0,0,0-.895.273.929.929,0,0,0-.324.75H95.555a2.268,2.268,0,0,1,.453-1.359,3,3,0,0,1,1.281-.98,4.669,4.669,0,0,1,1.859-.355,3.689,3.689,0,0,1,2.48.785,2.747,2.747,0,0,1,.918,2.207v3.664a4.041,4.041,0,0,0,.336,1.82V0ZM98.734-1.57a1.945,1.945,0,0,0,.922-.223,1.462,1.462,0,0,0,.625-.6V-3.844h-.844q-1.7,0-1.8,1.172l-.008.133a.9.9,0,0,0,.3.7A1.153,1.153,0,0,0,98.734-1.57Zm16.8-2.633a6.981,6.981,0,0,1-.7,2.359,3.826,3.826,0,0,1-1.32,1.531,3.058,3.058,0,0,1-1.75.477,2.44,2.44,0,0,1-1.937-.914l-.773,4h-2.2l2.023-11.7,2.031-.008-.148.852a2.7,2.7,0,0,1,2.156-1,2.4,2.4,0,0,1,1.93.9,3.922,3.922,0,0,1,.734,2.363A9.133,9.133,0,0,1,115.539-4.2Zm-2.187-.164.047-.75a2.084,2.084,0,0,0-.277-1.2,1,1,0,0,0-.855-.461,1.819,1.819,0,0,0-1.586.813l-.633,3.484a1.233,1.233,0,0,0,1.242.82,1.591,1.591,0,0,0,1.328-.617A4.223,4.223,0,0,0,113.352-4.367Zm7.719-4.242A3.39,3.39,0,0,1,123-8.035,3.234,3.234,0,0,1,124.184-6.5a4.762,4.762,0,0,1,.27,2.176,5.143,5.143,0,0,1-1.4,3.262,3.96,3.96,0,0,1-3.02,1.215,3.38,3.38,0,0,1-1.906-.566,3.222,3.222,0,0,1-1.187-1.527,4.657,4.657,0,0,1-.273-2.156,5.3,5.3,0,0,1,1.422-3.328A3.878,3.878,0,0,1,121.07-8.609Zm-2.227,5.32a1.955,1.955,0,0,0,.352,1.184,1.168,1.168,0,0,0,.945.449,1.712,1.712,0,0,0,1.594-.934,4.659,4.659,0,0,0,.539-2.535,2.127,2.127,0,0,0-.363-1.2,1.148,1.148,0,0,0-.949-.465,1.714,1.714,0,0,0-1.574.926A4.611,4.611,0,0,0,118.844-3.289Zm11.141.906q.125-.625-.867-.906l-.711-.18q-2.523-.7-2.453-2.453a2.428,2.428,0,0,1,1.059-1.949,3.942,3.942,0,0,1,2.457-.738,3.536,3.536,0,0,1,2.313.758,2.5,2.5,0,0,1,.9,1.977l-2.187-.008a.963.963,0,0,0-1.078-1.1,1.552,1.552,0,0,0-.895.258,1.061,1.061,0,0,0-.465.7q-.117.625.945.883l.313.07a6.285,6.285,0,0,1,1.648.59,2.488,2.488,0,0,1,.879.824,2.04,2.04,0,0,1,.285,1.18,2.251,2.251,0,0,1-.52,1.406,3.18,3.18,0,0,1-1.359.93,4.736,4.736,0,0,1-1.816.3,3.568,3.568,0,0,1-2.344-.809,2.607,2.607,0,0,1-.953-2.051l2.078.016a1.142,1.142,0,0,0,1.3,1.227,1.845,1.845,0,0,0,1-.25A.987.987,0,0,0,129.984-2.383Zm7.625-8.148-.367,2.078h1.406L138.359-6.8h-1.406l-.719,4.234a1.077,1.077,0,0,0,.063.609q.109.211.531.227.125.008.672-.039l-.156,1.727a3.706,3.706,0,0,1-1.266.18,1.985,1.985,0,0,1-1.617-.68,2.456,2.456,0,0,1-.437-1.8L134.75-6.8h-1.2l.289-1.656h1.2l.359-2.078ZM142.477.156a3.677,3.677,0,0,1-1.965-.543,3.292,3.292,0,0,1-1.277-1.469,4.093,4.093,0,0,1-.328-2.059l.023-.312a5.465,5.465,0,0,1,.719-2.266,4.341,4.341,0,0,1,1.547-1.59,3.827,3.827,0,0,1,2.094-.527,2.926,2.926,0,0,1,2.473,1.2,4.105,4.105,0,0,1,.637,2.957l-.125.961h-5.18a1.814,1.814,0,0,0,.4,1.313,1.521,1.521,0,0,0,1.172.508,2.712,2.712,0,0,0,2.109-.93l1.008,1.25A3.135,3.135,0,0,1,144.406-.23,4.5,4.5,0,0,1,142.477.156Zm.7-6.945a1.565,1.565,0,0,0-1.082.383,3.363,3.363,0,0,0-.848,1.383h3.031l.047-.2a2.071,2.071,0,0,0,.008-.594,1.134,1.134,0,0,0-.383-.707A1.2,1.2,0,0,0,143.18-6.789Zm9.539.453a4.548,4.548,0,0,0-.742-.078,2.136,2.136,0,0,0-1.867.883L149.133,0h-2.2L148.4-8.453l2.07-.008-.2,1.031a2.325,2.325,0,0,1,1.969-1.2,3.214,3.214,0,0,1,.766.109ZM155,0h-2.219l1.469-8.453h2.219Zm-.492-10.6a1.1,1.1,0,0,1,.344-.867,1.209,1.209,0,0,1,.867-.344,1.215,1.215,0,0,1,.867.3,1.1,1.1,0,0,1,.383.828,1.132,1.132,0,0,1-.324.844,1.215,1.215,0,0,1-.887.375,1.235,1.235,0,0,1-.863-.3A1.091,1.091,0,0,1,154.508-10.6Zm7.2,1.992a3.39,3.39,0,0,1,1.926.574A3.234,3.234,0,0,1,164.816-6.5a4.761,4.761,0,0,1,.27,2.176,5.143,5.143,0,0,1-1.4,3.262,3.96,3.96,0,0,1-3.02,1.215,3.38,3.38,0,0,1-1.906-.566,3.222,3.222,0,0,1-1.187-1.527,4.657,4.657,0,0,1-.273-2.156,5.3,5.3,0,0,1,1.422-3.328A3.878,3.878,0,0,1,161.7-8.609Zm-2.227,5.32a1.956,1.956,0,0,0,.352,1.184,1.168,1.168,0,0,0,.945.449,1.712,1.712,0,0,0,1.594-.934,4.659,4.659,0,0,0,.539-2.535,2.127,2.127,0,0,0-.363-1.2,1.148,1.148,0,0,0-.949-.465,1.714,1.714,0,0,0-1.574.926A4.611,4.611,0,0,0,159.477-3.289Zm12.031-3.047a4.548,4.548,0,0,0-.742-.078,2.136,2.136,0,0,0-1.867.883L167.922,0h-2.2l1.469-8.453,2.07-.008-.2,1.031a2.325,2.325,0,0,1,1.969-1.2,3.214,3.214,0,0,1,.766.109ZM173.789,0H171.57l1.469-8.453h2.219ZM173.3-10.6a1.1,1.1,0,0,1,.344-.867,1.209,1.209,0,0,1,.867-.344,1.215,1.215,0,0,1,.867.3,1.1,1.1,0,0,1,.383.828,1.132,1.132,0,0,1-.324.844,1.215,1.215,0,0,1-.887.375,1.235,1.235,0,0,1-.863-.3A1.091,1.091,0,0,1,173.3-10.6Z" transform="translate(0 105)" fill="#8054f8"/>
        <path id="Trazado_819999" data-name="Trazado 819999" d="M3.359-4.008V0H1.016V-11.375H5.453a5.134,5.134,0,0,1,2.254.469A3.454,3.454,0,0,1,9.2-9.574a3.714,3.714,0,0,1,.523,1.965A3.266,3.266,0,0,1,8.582-4.973a4.767,4.767,0,0,1-3.168.965Zm0-1.9H5.453a2.059,2.059,0,0,0,1.418-.437,1.591,1.591,0,0,0,.488-1.25,1.876,1.876,0,0,0-.492-1.352,1.839,1.839,0,0,0-1.359-.531H3.359Zm12.578-.43a6.134,6.134,0,0,0-.812-.062,1.654,1.654,0,0,0-1.68.867V0H11.188V-8.453H13.32l.063,1.008a2.092,2.092,0,0,1,1.883-1.164,2.366,2.366,0,0,1,.7.1ZM16.391-4.3a5.013,5.013,0,0,1,.484-2.242A3.546,3.546,0,0,1,18.27-8.07a4.069,4.069,0,0,1,2.113-.539,3.849,3.849,0,0,1,2.793,1.047,4.2,4.2,0,0,1,1.207,2.844l.016.578A4.418,4.418,0,0,1,23.313-1.02,3.775,3.775,0,0,1,20.4.156,3.793,3.793,0,0,1,17.48-1.016,4.5,4.5,0,0,1,16.391-4.2Zm2.258.164A3.151,3.151,0,0,0,19.1-2.3a1.5,1.5,0,0,0,1.3.637,1.5,1.5,0,0,0,1.281-.629A3.448,3.448,0,0,0,22.141-4.3a3.12,3.12,0,0,0-.461-1.828,1.5,1.5,0,0,0-1.3-.648,1.475,1.475,0,0,0-1.281.645A3.506,3.506,0,0,0,18.648-4.141Zm14.758-.008A5.119,5.119,0,0,1,32.539-.98,2.872,2.872,0,0,1,30.117.156,2.639,2.639,0,0,1,27.922-.9l-.1.9H25.789V-12h2.258v4.3A2.571,2.571,0,0,1,30.1-8.609a2.9,2.9,0,0,1,2.426,1.137,5.126,5.126,0,0,1,.879,3.2Zm-2.258-.164a3.363,3.363,0,0,0-.406-1.871,1.374,1.374,0,0,0-1.211-.59,1.489,1.489,0,0,0-1.484.883v3.336a1.509,1.509,0,0,0,1.5.891,1.394,1.394,0,0,0,1.438-1.078A5.562,5.562,0,0,0,31.148-4.312ZM39.7,0a2.507,2.507,0,0,1-.227-.758,2.732,2.732,0,0,1-2.133.914,3,3,0,0,1-2.059-.719,2.312,2.312,0,0,1-.816-1.812,2.389,2.389,0,0,1,1-2.062,4.915,4.915,0,0,1,2.879-.727h1.039v-.484a1.393,1.393,0,0,0-.3-.937,1.183,1.183,0,0,0-.949-.352,1.345,1.345,0,0,0-.895.273.929.929,0,0,0-.324.75H34.648A2.268,2.268,0,0,1,35.1-7.273a3,3,0,0,1,1.281-.98,4.669,4.669,0,0,1,1.859-.355,3.689,3.689,0,0,1,2.48.785,2.747,2.747,0,0,1,.918,2.207v3.664a4.041,4.041,0,0,0,.336,1.82V0ZM37.828-1.57a1.945,1.945,0,0,0,.922-.223,1.462,1.462,0,0,0,.625-.6V-3.844h-.844q-1.7,0-1.8,1.172l-.008.133a.9.9,0,0,0,.3.7A1.153,1.153,0,0,0,37.828-1.57ZM50.992-4.148A5.119,5.119,0,0,1,50.125-.98,2.872,2.872,0,0,1,47.7.156,2.639,2.639,0,0,1,45.508-.9l-.1.9H43.375V-12h2.258v4.3a2.571,2.571,0,0,1,2.055-.914,2.9,2.9,0,0,1,2.426,1.137,5.126,5.126,0,0,1,.879,3.2Zm-2.258-.164a3.363,3.363,0,0,0-.406-1.871,1.374,1.374,0,0,0-1.211-.59,1.489,1.489,0,0,0-1.484.883v3.336a1.509,1.509,0,0,0,1.5.891A1.394,1.394,0,0,0,48.57-2.742,5.562,5.562,0,0,0,48.734-4.312ZM54.766,0H52.5V-8.453h2.266Zm-2.4-10.641a1.112,1.112,0,0,1,.34-.836,1.277,1.277,0,0,1,.926-.328,1.28,1.28,0,0,1,.922.328,1.105,1.105,0,0,1,.344.836,1.108,1.108,0,0,1-.348.844,1.283,1.283,0,0,1-.918.328,1.283,1.283,0,0,1-.918-.328A1.108,1.108,0,0,1,52.367-10.641ZM59.008,0H56.742V-12h2.266ZM63.25,0H60.984V-8.453H63.25Zm-2.4-10.641a1.112,1.112,0,0,1,.34-.836,1.277,1.277,0,0,1,.926-.328,1.28,1.28,0,0,1,.922.328,1.105,1.105,0,0,1,.344.836,1.108,1.108,0,0,1-.348.844,1.283,1.283,0,0,1-.918.328A1.283,1.283,0,0,1,61.2-9.8,1.108,1.108,0,0,1,60.852-10.641Zm3.906,6.352a5.094,5.094,0,0,1,.887-3.148A2.877,2.877,0,0,1,68.07-8.609a2.589,2.589,0,0,1,2.039.922V-12h2.266V0H70.336l-.109-.9A2.657,2.657,0,0,1,68.055.156,2.869,2.869,0,0,1,65.66-1.02,5.258,5.258,0,0,1,64.758-4.289Zm2.258.164A3.328,3.328,0,0,0,67.43-2.3a1.349,1.349,0,0,0,1.2.633,1.511,1.511,0,0,0,1.477-.883V-5.891a1.489,1.489,0,0,0-1.461-.883Q67.016-6.773,67.016-4.125ZM79.023,0A2.507,2.507,0,0,1,78.8-.758a2.732,2.732,0,0,1-2.133.914,3,3,0,0,1-2.059-.719,2.312,2.312,0,0,1-.816-1.812,2.389,2.389,0,0,1,1-2.062,4.915,4.915,0,0,1,2.879-.727H78.7v-.484a1.393,1.393,0,0,0-.3-.937,1.183,1.183,0,0,0-.949-.352,1.345,1.345,0,0,0-.895.273.929.929,0,0,0-.324.75H73.977a2.268,2.268,0,0,1,.453-1.359,3,3,0,0,1,1.281-.98,4.669,4.669,0,0,1,1.859-.355,3.689,3.689,0,0,1,2.48.785,2.747,2.747,0,0,1,.918,2.207v3.664A4.041,4.041,0,0,0,81.3-.133V0ZM77.156-1.57a1.945,1.945,0,0,0,.922-.223,1.462,1.462,0,0,0,.625-.6V-3.844h-.844q-1.7,0-1.8,1.172l-.008.133a.9.9,0,0,0,.3.7A1.153,1.153,0,0,0,77.156-1.57Zm5.2-2.719a5.094,5.094,0,0,1,.887-3.148,2.877,2.877,0,0,1,2.426-1.172,2.589,2.589,0,0,1,2.039.922V-12h2.266V0H87.93L87.82-.9A2.657,2.657,0,0,1,85.648.156,2.869,2.869,0,0,1,83.254-1.02,5.258,5.258,0,0,1,82.352-4.289Zm2.258.164a3.328,3.328,0,0,0,.414,1.82,1.349,1.349,0,0,0,1.2.633A1.511,1.511,0,0,0,87.7-2.555V-5.891a1.489,1.489,0,0,0-1.461-.883Q84.609-6.773,84.609-4.125ZM99.219-1.664a1.481,1.481,0,0,0,1.016-.344,1.2,1.2,0,0,0,.406-.914h2.117a2.9,2.9,0,0,1-.469,1.574,3.093,3.093,0,0,1-1.262,1.109,3.949,3.949,0,0,1-1.77.395A3.67,3.67,0,0,1,96.4-1,4.56,4.56,0,0,1,95.352-4.18v-.148a4.508,4.508,0,0,1,1.039-3.117,3.627,3.627,0,0,1,2.852-1.164,3.555,3.555,0,0,1,2.543.9,3.2,3.2,0,0,1,.973,2.4h-2.117a1.539,1.539,0,0,0-.406-1.066,1.358,1.358,0,0,0-1.031-.41,1.361,1.361,0,0,0-1.191.574,3.324,3.324,0,0,0-.4,1.863v.234a3.366,3.366,0,0,0,.4,1.875A1.378,1.378,0,0,0,99.219-1.664ZM103.7-4.3a5.013,5.013,0,0,1,.484-2.242,3.546,3.546,0,0,1,1.395-1.523,4.069,4.069,0,0,1,2.113-.539,3.849,3.849,0,0,1,2.793,1.047,4.2,4.2,0,0,1,1.207,2.844l.016.578a4.418,4.418,0,0,1-1.086,3.121A3.775,3.775,0,0,1,107.7.156a3.793,3.793,0,0,1-2.918-1.172A4.5,4.5,0,0,1,103.7-4.2Zm2.258.164a3.151,3.151,0,0,0,.453,1.84,1.5,1.5,0,0,0,1.3.637,1.5,1.5,0,0,0,1.281-.629,3.448,3.448,0,0,0,.461-2.012,3.12,3.12,0,0,0-.461-1.828,1.5,1.5,0,0,0-1.3-.648,1.475,1.475,0,0,0-1.281.645A3.506,3.506,0,0,0,105.953-4.141Zm9.219-4.312.07.977a2.951,2.951,0,0,1,2.43-1.133,2.453,2.453,0,0,1,2,.789,3.682,3.682,0,0,1,.672,2.359V0h-2.258V-5.406a1.465,1.465,0,0,0-.312-1.043,1.4,1.4,0,0,0-1.039-.324,1.553,1.553,0,0,0-1.43.813V0h-2.258V-8.453ZM121.7-4.289a5.094,5.094,0,0,1,.887-3.148,2.877,2.877,0,0,1,2.426-1.172,2.589,2.589,0,0,1,2.039.922V-12h2.266V0h-2.039l-.109-.9A2.657,2.657,0,0,1,125,.156a2.869,2.869,0,0,1-2.395-1.176A5.258,5.258,0,0,1,121.7-4.289Zm2.258.164a3.328,3.328,0,0,0,.414,1.82,1.349,1.349,0,0,0,1.2.633,1.511,1.511,0,0,0,1.477-.883V-5.891a1.489,1.489,0,0,0-1.461-.883Q123.961-6.773,123.961-4.125ZM133.453,0h-2.266V-8.453h2.266Zm-2.4-10.641a1.112,1.112,0,0,1,.34-.836,1.277,1.277,0,0,1,.926-.328,1.28,1.28,0,0,1,.922.328,1.105,1.105,0,0,1,.344.836,1.109,1.109,0,0,1-.348.844,1.283,1.283,0,0,1-.918.328A1.283,1.283,0,0,1,131.4-9.8,1.109,1.109,0,0,1,131.055-10.641Zm7.773,8.977a1.481,1.481,0,0,0,1.016-.344,1.2,1.2,0,0,0,.406-.914h2.117a2.9,2.9,0,0,1-.469,1.574,3.093,3.093,0,0,1-1.262,1.109,3.949,3.949,0,0,1-1.77.395A3.67,3.67,0,0,1,136.008-1a4.56,4.56,0,0,1-1.047-3.184v-.148A4.508,4.508,0,0,1,136-7.445a3.627,3.627,0,0,1,2.852-1.164,3.555,3.555,0,0,1,2.543.9,3.2,3.2,0,0,1,.973,2.4H140.25a1.539,1.539,0,0,0-.406-1.066,1.358,1.358,0,0,0-1.031-.41,1.361,1.361,0,0,0-1.191.574,3.324,3.324,0,0,0-.4,1.863v.234a3.366,3.366,0,0,0,.4,1.875A1.378,1.378,0,0,0,138.828-1.664ZM146.039,0h-2.266V-8.453h2.266Zm-2.4-10.641a1.112,1.112,0,0,1,.34-.836,1.277,1.277,0,0,1,.926-.328,1.28,1.28,0,0,1,.922.328,1.105,1.105,0,0,1,.344.836,1.109,1.109,0,0,1-.348.844,1.283,1.283,0,0,1-.918.328,1.283,1.283,0,0,1-.918-.328A1.109,1.109,0,0,1,143.641-10.641ZM147.547-4.3a5.013,5.013,0,0,1,.484-2.242,3.546,3.546,0,0,1,1.395-1.523,4.069,4.069,0,0,1,2.113-.539,3.849,3.849,0,0,1,2.793,1.047,4.2,4.2,0,0,1,1.207,2.844l.016.578a4.418,4.418,0,0,1-1.086,3.121A3.775,3.775,0,0,1,151.555.156a3.793,3.793,0,0,1-2.918-1.172,4.5,4.5,0,0,1-1.09-3.187Zm2.258.164a3.151,3.151,0,0,0,.453,1.84,1.5,1.5,0,0,0,1.3.637,1.5,1.5,0,0,0,1.281-.629A3.448,3.448,0,0,0,153.3-4.3a3.12,3.12,0,0,0-.461-1.828,1.5,1.5,0,0,0-1.3-.648,1.475,1.475,0,0,0-1.281.645A3.506,3.506,0,0,0,149.8-4.141Zm9.219-4.312.07.977a2.951,2.951,0,0,1,2.43-1.133,2.453,2.453,0,0,1,2,.789,3.682,3.682,0,0,1,.672,2.359V0h-2.258V-5.406a1.465,1.465,0,0,0-.312-1.043,1.4,1.4,0,0,0-1.039-.324,1.553,1.553,0,0,0-1.43.813V0H156.9V-8.453ZM170.8,0a2.507,2.507,0,0,1-.227-.758,2.732,2.732,0,0,1-2.133.914,3,3,0,0,1-2.059-.719,2.312,2.312,0,0,1-.816-1.812,2.389,2.389,0,0,1,1-2.062,4.915,4.915,0,0,1,2.879-.727h1.039v-.484a1.393,1.393,0,0,0-.3-.937,1.183,1.183,0,0,0-.949-.352,1.345,1.345,0,0,0-.895.273.929.929,0,0,0-.324.75h-2.258a2.268,2.268,0,0,1,.453-1.359,3,3,0,0,1,1.281-.98,4.669,4.669,0,0,1,1.859-.355,3.689,3.689,0,0,1,2.48.785,2.747,2.747,0,0,1,.918,2.207v3.664a4.041,4.041,0,0,0,.336,1.82V0Zm-1.867-1.57a1.945,1.945,0,0,0,.922-.223,1.462,1.462,0,0,0,.625-.6V-3.844h-.844q-1.7,0-1.8,1.172l-.008.133a.9.9,0,0,0,.3.7A1.153,1.153,0,0,0,168.938-1.57ZM176.867,0H174.6V-12h2.266Z" transform="translate(255 15)" fill="#8054f8"/>
        <path id="Trazado_820004" data-name="Trazado 820004" d="M3.359-4.008V0H1.016V-11.375H5.453a5.134,5.134,0,0,1,2.254.469A3.454,3.454,0,0,1,9.2-9.574a3.714,3.714,0,0,1,.523,1.965A3.266,3.266,0,0,1,8.582-4.973a4.767,4.767,0,0,1-3.168.965Zm0-1.9H5.453a2.059,2.059,0,0,0,1.418-.437,1.591,1.591,0,0,0,.488-1.25,1.876,1.876,0,0,0-.492-1.352,1.839,1.839,0,0,0-1.359-.531H3.359Zm12.578-.43a6.134,6.134,0,0,0-.812-.062,1.654,1.654,0,0,0-1.68.867V0H11.188V-8.453H13.32l.063,1.008a2.092,2.092,0,0,1,1.883-1.164,2.366,2.366,0,0,1,.7.1ZM16.391-4.3a5.013,5.013,0,0,1,.484-2.242A3.546,3.546,0,0,1,18.27-8.07a4.069,4.069,0,0,1,2.113-.539,3.849,3.849,0,0,1,2.793,1.047,4.2,4.2,0,0,1,1.207,2.844l.016.578A4.418,4.418,0,0,1,23.313-1.02,3.775,3.775,0,0,1,20.4.156,3.793,3.793,0,0,1,17.48-1.016,4.5,4.5,0,0,1,16.391-4.2Zm2.258.164A3.151,3.151,0,0,0,19.1-2.3a1.5,1.5,0,0,0,1.3.637,1.5,1.5,0,0,0,1.281-.629A3.448,3.448,0,0,0,22.141-4.3a3.12,3.12,0,0,0-.461-1.828,1.5,1.5,0,0,0-1.3-.648,1.475,1.475,0,0,0-1.281.645A3.506,3.506,0,0,0,18.648-4.141Zm14.758-.008A5.119,5.119,0,0,1,32.539-.98,2.872,2.872,0,0,1,30.117.156,2.639,2.639,0,0,1,27.922-.9l-.1.9H25.789V-12h2.258v4.3A2.571,2.571,0,0,1,30.1-8.609a2.9,2.9,0,0,1,2.426,1.137,5.126,5.126,0,0,1,.879,3.2Zm-2.258-.164a3.363,3.363,0,0,0-.406-1.871,1.374,1.374,0,0,0-1.211-.59,1.489,1.489,0,0,0-1.484.883v3.336a1.509,1.509,0,0,0,1.5.891,1.394,1.394,0,0,0,1.438-1.078A5.562,5.562,0,0,0,31.148-4.312ZM39.7,0a2.507,2.507,0,0,1-.227-.758,2.732,2.732,0,0,1-2.133.914,3,3,0,0,1-2.059-.719,2.312,2.312,0,0,1-.816-1.812,2.389,2.389,0,0,1,1-2.062,4.915,4.915,0,0,1,2.879-.727h1.039v-.484a1.393,1.393,0,0,0-.3-.937,1.183,1.183,0,0,0-.949-.352,1.345,1.345,0,0,0-.895.273.929.929,0,0,0-.324.75H34.648A2.268,2.268,0,0,1,35.1-7.273a3,3,0,0,1,1.281-.98,4.669,4.669,0,0,1,1.859-.355,3.689,3.689,0,0,1,2.48.785,2.747,2.747,0,0,1,.918,2.207v3.664a4.041,4.041,0,0,0,.336,1.82V0ZM37.828-1.57a1.945,1.945,0,0,0,.922-.223,1.462,1.462,0,0,0,.625-.6V-3.844h-.844q-1.7,0-1.8,1.172l-.008.133a.9.9,0,0,0,.3.7A1.153,1.153,0,0,0,37.828-1.57ZM50.992-4.148A5.119,5.119,0,0,1,50.125-.98,2.872,2.872,0,0,1,47.7.156,2.639,2.639,0,0,1,45.508-.9l-.1.9H43.375V-12h2.258v4.3a2.571,2.571,0,0,1,2.055-.914,2.9,2.9,0,0,1,2.426,1.137,5.126,5.126,0,0,1,.879,3.2Zm-2.258-.164a3.363,3.363,0,0,0-.406-1.871,1.374,1.374,0,0,0-1.211-.59,1.489,1.489,0,0,0-1.484.883v3.336a1.509,1.509,0,0,0,1.5.891A1.394,1.394,0,0,0,48.57-2.742,5.562,5.562,0,0,0,48.734-4.312ZM54.766,0H52.5V-8.453h2.266Zm-2.4-10.641a1.112,1.112,0,0,1,.34-.836,1.277,1.277,0,0,1,.926-.328,1.28,1.28,0,0,1,.922.328,1.105,1.105,0,0,1,.344.836,1.108,1.108,0,0,1-.348.844,1.283,1.283,0,0,1-.918.328,1.283,1.283,0,0,1-.918-.328A1.108,1.108,0,0,1,52.367-10.641ZM59.008,0H56.742V-12h2.266ZM63.25,0H60.984V-8.453H63.25Zm-2.4-10.641a1.112,1.112,0,0,1,.34-.836,1.277,1.277,0,0,1,.926-.328,1.28,1.28,0,0,1,.922.328,1.105,1.105,0,0,1,.344.836,1.108,1.108,0,0,1-.348.844,1.283,1.283,0,0,1-.918.328A1.283,1.283,0,0,1,61.2-9.8,1.108,1.108,0,0,1,60.852-10.641Zm3.906,6.352a5.094,5.094,0,0,1,.887-3.148A2.877,2.877,0,0,1,68.07-8.609a2.589,2.589,0,0,1,2.039.922V-12h2.266V0H70.336l-.109-.9A2.657,2.657,0,0,1,68.055.156,2.869,2.869,0,0,1,65.66-1.02,5.258,5.258,0,0,1,64.758-4.289Zm2.258.164A3.328,3.328,0,0,0,67.43-2.3a1.349,1.349,0,0,0,1.2.633,1.511,1.511,0,0,0,1.477-.883V-5.891a1.489,1.489,0,0,0-1.461-.883Q67.016-6.773,67.016-4.125ZM79.023,0A2.507,2.507,0,0,1,78.8-.758a2.732,2.732,0,0,1-2.133.914,3,3,0,0,1-2.059-.719,2.312,2.312,0,0,1-.816-1.812,2.389,2.389,0,0,1,1-2.062,4.915,4.915,0,0,1,2.879-.727H78.7v-.484a1.393,1.393,0,0,0-.3-.937,1.183,1.183,0,0,0-.949-.352,1.345,1.345,0,0,0-.895.273.929.929,0,0,0-.324.75H73.977a2.268,2.268,0,0,1,.453-1.359,3,3,0,0,1,1.281-.98,4.669,4.669,0,0,1,1.859-.355,3.689,3.689,0,0,1,2.48.785,2.747,2.747,0,0,1,.918,2.207v3.664A4.041,4.041,0,0,0,81.3-.133V0ZM77.156-1.57a1.945,1.945,0,0,0,.922-.223,1.462,1.462,0,0,0,.625-.6V-3.844h-.844q-1.7,0-1.8,1.172l-.008.133a.9.9,0,0,0,.3.7A1.153,1.153,0,0,0,77.156-1.57Zm5.2-2.719a5.094,5.094,0,0,1,.887-3.148,2.877,2.877,0,0,1,2.426-1.172,2.589,2.589,0,0,1,2.039.922V-12h2.266V0H87.93L87.82-.9A2.657,2.657,0,0,1,85.648.156,2.869,2.869,0,0,1,83.254-1.02,5.258,5.258,0,0,1,82.352-4.289Zm2.258.164a3.328,3.328,0,0,0,.414,1.82,1.349,1.349,0,0,0,1.2.633A1.511,1.511,0,0,0,87.7-2.555V-5.891a1.489,1.489,0,0,0-1.461-.883Q84.609-6.773,84.609-4.125Zm13.8-6.406v2.078h1.445V-6.8H98.406v4.219a1.007,1.007,0,0,0,.18.672.9.9,0,0,0,.688.2,3.6,3.6,0,0,0,.664-.055V-.047a4.648,4.648,0,0,1-1.367.2,2.156,2.156,0,0,1-2.422-2.4V-6.8H94.914V-8.453h1.234v-2.078ZM100.523-4.3a5.013,5.013,0,0,1,.484-2.242A3.546,3.546,0,0,1,102.4-8.07a4.069,4.069,0,0,1,2.113-.539,3.849,3.849,0,0,1,2.793,1.047,4.2,4.2,0,0,1,1.207,2.844l.016.578a4.418,4.418,0,0,1-1.086,3.121A3.775,3.775,0,0,1,104.531.156a3.793,3.793,0,0,1-2.918-1.172,4.5,4.5,0,0,1-1.09-3.187Zm2.258.164a3.151,3.151,0,0,0,.453,1.84,1.5,1.5,0,0,0,1.3.637,1.5,1.5,0,0,0,1.281-.629,3.448,3.448,0,0,0,.461-2.012,3.12,3.12,0,0,0-.461-1.828,1.5,1.5,0,0,0-1.3-.648,1.475,1.475,0,0,0-1.281.645A3.506,3.506,0,0,0,102.781-4.141Zm9.844-6.391v2.078h1.445V-6.8h-1.445v4.219a1.007,1.007,0,0,0,.18.672.9.9,0,0,0,.688.2,3.6,3.6,0,0,0,.664-.055V-.047a4.648,4.648,0,0,1-1.367.2,2.156,2.156,0,0,1-2.422-2.4V-6.8h-1.234V-8.453h1.234v-2.078ZM120.227,0A2.507,2.507,0,0,1,120-.758a2.732,2.732,0,0,1-2.133.914,3,3,0,0,1-2.059-.719,2.312,2.312,0,0,1-.816-1.812,2.389,2.389,0,0,1,1-2.062,4.915,4.915,0,0,1,2.879-.727h1.039v-.484a1.393,1.393,0,0,0-.3-.937,1.183,1.183,0,0,0-.949-.352,1.345,1.345,0,0,0-.895.273.929.929,0,0,0-.324.75H115.18a2.268,2.268,0,0,1,.453-1.359,3,3,0,0,1,1.281-.98,4.669,4.669,0,0,1,1.859-.355,3.689,3.689,0,0,1,2.48.785,2.747,2.747,0,0,1,.918,2.207v3.664a4.041,4.041,0,0,0,.336,1.82V0Zm-1.867-1.57a1.945,1.945,0,0,0,.922-.223,1.462,1.462,0,0,0,.625-.6V-3.844h-.844q-1.7,0-1.8,1.172l-.008.133a.9.9,0,0,0,.3.7A1.153,1.153,0,0,0,118.359-1.57ZM126.289,0h-2.266V-12h2.266Z" transform="translate(255 105)" fill="#8054f8"/>
        <g id="Grupo_1072215" data-name="Grupo 1072215" transform="translate(126.871 37)">
          <path id="Trazado_820000" data-name="Trazado 820000" d="M3.156-4.008,2.453,0H.164L2.141-11.375l3.984.008a3.986,3.986,0,0,1,2.9,1.023,3.174,3.174,0,0,1,.922,2.672A3.592,3.592,0,0,1,8.551-5,5.075,5.075,0,0,1,5.313-4Zm.32-1.9,1.906.016a2.41,2.41,0,0,0,1.531-.477,1.918,1.918,0,0,0,.727-1.289,1.646,1.646,0,0,0-.262-1.3,1.418,1.418,0,0,0-1.121-.516L4.1-9.477Zm7.563,1.313a13.2,13.2,0,0,1,1.668-4.988,7.175,7.175,0,0,1,3.246-3.066l.375,1.258q-2.672,2.039-3.383,6.555a19.376,19.376,0,0,0-.258,2.75q-.039,3.211,1.469,4.461l-.492,1.18A5.13,5.13,0,0,1,11.3.313,10.87,10.87,0,0,1,10.906-3a13.121,13.121,0,0,1,.1-1.406Zm11.422,2.25H18.492L17.32,0H14.8l6.078-11.375h2.117L25.156,0H22.82Zm-3.031-1.9h2.742l-.641-4.234ZM25.7,3.578,25.32,2.344Q28,.273,28.7-4.281a19.275,19.275,0,0,0,.242-2.7q.039-3.211-1.453-4.469l.492-1.18a4.565,4.565,0,0,1,1.582,1.457,6.725,6.725,0,0,1,.977,2.309,11.6,11.6,0,0,1,.3,2.781,13.865,13.865,0,0,1-.75,4.223,11.039,11.039,0,0,1-1.84,3.441A6.68,6.68,0,0,1,25.7,3.578ZM34.742-7.547l-2.281-.719.664-1.328,2.242,1,.336-2.781h1.5l-.625,2.711,2.4-.922.2,1.508-2.562.7,1.258,2.125-1.258.813-.984-2.289L33.9-4.562l-1.164-.93ZM45.891-4.008,45.188,0H42.9l1.977-11.375,3.984.008a3.986,3.986,0,0,1,2.9,1.023,3.174,3.174,0,0,1,.922,2.672A3.592,3.592,0,0,1,51.285-5a5.075,5.075,0,0,1-3.238,1Zm.32-1.9,1.906.016a2.41,2.41,0,0,0,1.531-.477,1.918,1.918,0,0,0,.727-1.289,1.646,1.646,0,0,0-.262-1.3,1.418,1.418,0,0,0-1.121-.516l-2.156-.008Zm7.563,1.313a13.2,13.2,0,0,1,1.668-4.988,7.175,7.175,0,0,1,3.246-3.066l.375,1.258Q56.391-9.352,55.68-4.836a19.376,19.376,0,0,0-.258,2.75q-.039,3.211,1.469,4.461L56.4,3.555A5.13,5.13,0,0,1,54.039.313,10.87,10.87,0,0,1,53.641-3a13.121,13.121,0,0,1,.1-1.406ZM58.508,0l1.977-11.375,3.547.008a4.705,4.705,0,0,1,2.969.8,2.488,2.488,0,0,1,.9,2.242A2.865,2.865,0,0,1,65.906-5.8a1.911,1.911,0,0,1,1.055.879,2.63,2.63,0,0,1,.32,1.52,3.291,3.291,0,0,1-1.262,2.5A5,5,0,0,1,62.875,0Zm3.156-4.953-.539,3.07,1.8.008a2.327,2.327,0,0,0,1.414-.418,1.658,1.658,0,0,0,.68-1.129,1.4,1.4,0,0,0-.191-1.1,1.269,1.269,0,0,0-1.012-.426Zm.281-1.656,1.555.016A2.475,2.475,0,0,0,64.918-7a1.575,1.575,0,0,0,.66-1.086q.2-1.375-1.445-1.383l-1.687-.008ZM75.523,0H73.258V-12h2.266ZM87.352-2.344H83.383L82.211,0H79.688l6.078-11.375h2.117L90.047,0H87.711Zm-3.031-1.9h2.742l-.641-4.234Zm6.266,7.82-.375-1.234q2.68-2.07,3.383-6.625a19.275,19.275,0,0,0,.242-2.7q.039-3.211-1.453-4.469l.492-1.18a4.565,4.565,0,0,1,1.582,1.457,6.725,6.725,0,0,1,.977,2.309,11.6,11.6,0,0,1,.3,2.781,13.865,13.865,0,0,1-.75,4.223,11.039,11.039,0,0,1-1.84,3.441A6.68,6.68,0,0,1,90.586,3.578Z" transform="translate(82 15)" fill="#12263f"/>
          <path id="Trazado_820001" data-name="Trazado 820001" d="M3.156-4.008,2.453,0H.164L2.141-11.375l3.984.008a3.986,3.986,0,0,1,2.9,1.023,3.174,3.174,0,0,1,.922,2.672A3.592,3.592,0,0,1,8.551-5,5.075,5.075,0,0,1,5.313-4Zm.32-1.9,1.906.016a2.41,2.41,0,0,0,1.531-.477,1.918,1.918,0,0,0,.727-1.289,1.646,1.646,0,0,0-.262-1.3,1.418,1.418,0,0,0-1.121-.516L4.1-9.477Zm7.563,1.313a13.2,13.2,0,0,1,1.668-4.988,7.175,7.175,0,0,1,3.246-3.066l.375,1.258q-2.672,2.039-3.383,6.555a19.376,19.376,0,0,0-.258,2.75q-.039,3.211,1.469,4.461l-.492,1.18A5.13,5.13,0,0,1,11.3.313,10.87,10.87,0,0,1,10.906-3a13.121,13.121,0,0,1,.1-1.406ZM15.773,0,17.75-11.375l3.547.008a4.705,4.705,0,0,1,2.969.8,2.488,2.488,0,0,1,.9,2.242A2.865,2.865,0,0,1,23.172-5.8a1.911,1.911,0,0,1,1.055.879,2.63,2.63,0,0,1,.32,1.52,3.291,3.291,0,0,1-1.262,2.5A5,5,0,0,1,20.141,0ZM18.93-4.953l-.539,3.07,1.8.008a2.327,2.327,0,0,0,1.414-.418,1.658,1.658,0,0,0,.68-1.129,1.4,1.4,0,0,0-.191-1.1,1.269,1.269,0,0,0-1.012-.426Zm.281-1.656,1.555.016A2.475,2.475,0,0,0,22.184-7a1.575,1.575,0,0,0,.66-1.086q.2-1.375-1.445-1.383l-1.687-.008ZM25.156,3.578l-.375-1.234q2.68-2.07,3.383-6.625a19.275,19.275,0,0,0,.242-2.7q.039-3.211-1.453-4.469l.492-1.18a4.565,4.565,0,0,1,1.582,1.457A6.725,6.725,0,0,1,30-8.859a11.6,11.6,0,0,1,.3,2.781,13.865,13.865,0,0,1-.75,4.223,11.039,11.039,0,0,1-1.84,3.441A6.68,6.68,0,0,1,25.156,3.578Z" transform="translate(120 37)" fill="#12263f"/>
          <path id="Trazado_820002" data-name="Trazado 820002" d="M3.156-4.008,2.453,0H.164L2.141-11.375l3.984.008a3.986,3.986,0,0,1,2.9,1.023,3.174,3.174,0,0,1,.922,2.672A3.592,3.592,0,0,1,8.551-5,5.075,5.075,0,0,1,5.313-4Zm.32-1.9,1.906.016a2.41,2.41,0,0,0,1.531-.477,1.918,1.918,0,0,0,.727-1.289,1.646,1.646,0,0,0-.262-1.3,1.418,1.418,0,0,0-1.121-.516L4.1-9.477Zm7.563,1.313a13.2,13.2,0,0,1,1.668-4.988,7.175,7.175,0,0,1,3.246-3.066l.375,1.258q-2.672,2.039-3.383,6.555a19.376,19.376,0,0,0-.258,2.75q-.039,3.211,1.469,4.461l-.492,1.18A5.13,5.13,0,0,1,11.3.313,10.87,10.87,0,0,1,10.906-3a13.121,13.121,0,0,1,.1-1.406Zm11.422,2.25H18.492L17.32,0H14.8l6.078-11.375h2.117L25.156,0H22.82Zm-3.031-1.9h2.742l-.641-4.234ZM33.328,0H31.063V-12h2.266Zm5.141,0,1.977-11.375,3.547.008a4.705,4.705,0,0,1,2.969.8,2.488,2.488,0,0,1,.9,2.242A2.865,2.865,0,0,1,45.867-5.8a1.911,1.911,0,0,1,1.055.879,2.63,2.63,0,0,1,.32,1.52,3.291,3.291,0,0,1-1.262,2.5A5,5,0,0,1,42.836,0Zm3.156-4.953-.539,3.07,1.8.008A2.327,2.327,0,0,0,44.3-2.293a1.658,1.658,0,0,0,.68-1.129,1.4,1.4,0,0,0-.191-1.1,1.269,1.269,0,0,0-1.012-.426Zm.281-1.656,1.555.016A2.475,2.475,0,0,0,44.879-7a1.575,1.575,0,0,0,.66-1.086q.2-1.375-1.445-1.383l-1.687-.008ZM47.852,3.578l-.375-1.234q2.68-2.07,3.383-6.625a19.275,19.275,0,0,0,.242-2.7q.039-3.211-1.453-4.469l.492-1.18a4.565,4.565,0,0,1,1.582,1.457A6.725,6.725,0,0,1,52.7-8.859,11.6,11.6,0,0,1,53-6.078a13.865,13.865,0,0,1-.75,4.223,11.039,11.039,0,0,1-1.84,3.441A6.68,6.68,0,0,1,47.852,3.578ZM61.844-5.828H55.055l.328-1.844h6.789Zm-.586,3.383H54.469L54.8-4.289h6.789Z" transform="translate(0 25)" fill="#12263f"/>
          <line id="Línea_200" data-name="Línea 200" x2="110" transform="translate(72.5 19.5)" fill="none" stroke="#12263f" stroke-width="1"/>
        </g>
        <line id="Línea_201" data-name="Línea 201" x2="30" y2="14" transform="translate(186.257 18.5)" fill="none" stroke="#8054f8" stroke-width="1"/>
        <path id="Trazado_818598" data-name="Trazado 818598" d="M1.127,25.088V38.4" transform="translate(279.536 -6.5)" fill="none" stroke="#8054f8" stroke-width="1"/>
        <path id="Trazado_818599" data-name="Trazado 818599" d="M27,0,9.818,23.693" transform="translate(134.556 65.5)" fill="none" stroke="#8054f8" stroke-width="1"/>
        <path id="Trazado_818600" data-name="Trazado 818600" d="M0,0,14.047,14.555" transform="translate(279.173 73.5)" fill="none" stroke="#8054f8" stroke-width="1"/>
        <path id="Polígono_9" data-name="Polígono 9" d="M5,0l5,9H0Z" transform="matrix(-0.454, -0.891, 0.891, -0.454, 213.194, 40.498)" fill="#8054f8"/>
        <path id="Polígono_10" data-name="Polígono 10" d="M5,0l5,9H0Z" transform="translate(284.792 39.152) rotate(-172)" fill="#8054f8"/>
        <path id="Polígono_11" data-name="Polígono 11" d="M5,0l5,9H0Z" transform="matrix(-0.914, -0.407, 0.407, -0.914, 283.18, 82.145)" fill="#8054f8"/>
        <path id="Polígono_12" data-name="Polígono 12" d="M5,0l5,9H0Z" transform="matrix(-0.921, 0.391, -0.391, -0.921, 165.573, 72.044)" fill="#8054f8"/>
      </g>
    </g>
  </g>
</svg>
