<svg xmlns="http://www.w3.org/2000/svg" width="132" height="165" viewBox="0 0 132 165">
  <g id="Grupo_1072509" data-name="Grupo 1072509" transform="translate(1069 2278)">
    <rect id="Rectángulo_381727" data-name="Rectángulo 381727" width="132" height="165" rx="5" transform="translate(-1069 -2278)" fill="#fff"/>
    <g id="Grupo_1072508" data-name="Grupo 1072508" transform="translate(-1052.277 -2266.851)">
      <g id="Grupo_1072482" data-name="Grupo 1072482" transform="translate(0 18.714)">
        <path id="Trazado_819715" data-name="Trazado 819715" d="M-982.887-2241.5h-69.165v104.734h69.165" transform="translate(1052.403 2241.5)" fill="none" stroke="#283859" stroke-width="1"/>
        <line id="Línea_202" data-name="Línea 202" x1="69.282" y1="0.796" transform="translate(0 51.763)" fill="none" stroke="#283859" stroke-width="1"/>
      </g>
      <g id="algoritmo--" transform="translate(65.54 4.897)">
        <g id="Grupo_1072503" data-name="Grupo 1072503" transform="translate(0.477 0.477)">
          <g id="Grupo_1072485" data-name="Grupo 1072485" transform="translate(3.939)">
            <g id="Grupo_1072484" data-name="Grupo 1072484">
              <g id="Grupo_1072483" data-name="Grupo 1072483">
                <path id="Trazado_819716" data-name="Trazado 819716" d="M84.241,8.065v3.318a.565.565,0,0,1-.565.565H70.065a.565.565,0,0,1-.565-.565V8.065a.565.565,0,0,1,.565-.565H83.676A.565.565,0,0,1,84.241,8.065Z" transform="translate(-69.5 -7.5)" fill="#7ca1d8"/>
              </g>
            </g>
          </g>
          <g id="Grupo_1072488" data-name="Grupo 1072488" transform="translate(18.68 9.721)">
            <g id="Grupo_1072487" data-name="Grupo 1072487">
              <g id="Grupo_1072486" data-name="Grupo 1072486">
                <path id="Trazado_819717" data-name="Trazado 819717" d="M314.4,161.065v3.318a.565.565,0,0,1-.565.565H302.065a.565.565,0,0,1-.565-.565v-3.318a.565.565,0,0,1,.565-.565h11.768A.565.565,0,0,1,314.4,161.065Z" transform="translate(-301.5 -160.5)" fill="#f3d064"/>
              </g>
            </g>
          </g>
          <g id="Grupo_1072491" data-name="Grupo 1072491" transform="translate(0.064 17.409)">
            <g id="Grupo_1072490" data-name="Grupo 1072490">
              <g id="Grupo_1072489" data-name="Grupo 1072489">
                <path id="Trazado_819718" data-name="Trazado 819718" d="M21.4,282.065v3.318a.565.565,0,0,1-.565.565H9.065a.565.565,0,0,1-.565-.565v-3.318a.565.565,0,0,1,.565-.565H20.833A.565.565,0,0,1,21.4,282.065Z" transform="translate(-8.5 -281.5)" fill="#ff395e"/>
              </g>
            </g>
          </g>
          <g id="Grupo_1072494" data-name="Grupo 1072494" transform="translate(12.962 27.13)">
            <g id="Grupo_1072493" data-name="Grupo 1072493">
              <g id="Grupo_1072492" data-name="Grupo 1072492">
                <path id="Trazado_819719" data-name="Trazado 819719" d="M226.241,435.065v3.318a.565.565,0,0,1-.565.565H212.065a.565.565,0,0,1-.565-.565v-3.318a.565.565,0,0,1,.565-.565h13.611A.565.565,0,0,1,226.241,435.065Z" transform="translate(-211.5 -434.5)" fill="#dfde48"/>
              </g>
            </g>
          </g>
          <path id="Trazado_819720" data-name="Trazado 819720" d="M83.676,34.175H70.065a.565.565,0,0,1-.565-.565v2.224a.565.565,0,0,0,.565.565H83.676a.565.565,0,0,0,.565-.565V33.61A.565.565,0,0,1,83.676,34.175Z" transform="translate(-65.561 -31.951)" fill="#80c3d1"/>
          <path id="Trazado_819721" data-name="Trazado 819721" d="M313.833,187.175H302.065a.565.565,0,0,1-.565-.565v2.224a.565.565,0,0,0,.565.565h11.768a.565.565,0,0,0,.565-.565V186.61A.565.565,0,0,1,313.833,187.175Z" transform="translate(-282.82 -175.23)" fill="#ebbd45"/>
          <path id="Trazado_819722" data-name="Trazado 819722" d="M20.833,308.175H9.065a.565.565,0,0,1-.565-.565v2.224a.565.565,0,0,0,.565.565H20.833a.565.565,0,0,0,.565-.565V307.61A.565.565,0,0,1,20.833,308.175Z" transform="translate(-8.436 -288.542)" fill="#b12e65"/>
          <path id="Trazado_819723" data-name="Trazado 819723" d="M225.676,461.175H212.065a.565.565,0,0,1-.565-.565v2.224a.565.565,0,0,0,.565.565h13.611a.565.565,0,0,0,.565-.565V460.61A.565.565,0,0,1,225.676,461.175Z" transform="translate(-198.538 -431.821)" fill="#c5d65c"/>
          <g id="XMLID_6_" transform="translate(14.614 28.528)">
            <g id="Grupo_1072496" data-name="Grupo 1072496">
              <g id="Grupo_1072495" data-name="Grupo 1072495">
                <circle id="Elipse_4811" data-name="Elipse 4811" cx="0.826" cy="0.826" r="0.826" fill="#9cb549"/>
              </g>
            </g>
          </g>
          <g id="XMLID_5_" transform="translate(17.663 28.528)">
            <g id="Grupo_1072498" data-name="Grupo 1072498">
              <g id="Grupo_1072497" data-name="Grupo 1072497">
                <circle id="Elipse_4812" data-name="Elipse 4812" cx="0.826" cy="0.826" r="0.826" fill="#9cb549"/>
              </g>
            </g>
          </g>
          <g id="XMLID_63_" transform="translate(0 6.735)">
            <g id="Grupo_1072500" data-name="Grupo 1072500">
              <g id="Grupo_1072499" data-name="Grupo 1072499">
                <path id="Trazado_819724" data-name="Trazado 819724" d="M11.058,114.051v2.456a.551.551,0,0,1-.551.551H8.051a.551.551,0,0,1-.551-.551v-2.456a.551.551,0,0,1,.551-.551h2.456A.551.551,0,0,1,11.058,114.051Z" transform="translate(-7.5 -113.5)" fill="#eab430"/>
              </g>
            </g>
          </g>
          <g id="XMLID_64_" transform="translate(18.108 17.854)">
            <g id="Grupo_1072502" data-name="Grupo 1072502">
              <g id="Grupo_1072501" data-name="Grupo 1072501">
                <path id="Trazado_819725" data-name="Trazado 819725" d="M296.058,289.051v2.456a.551.551,0,0,1-.551.551h-2.456a.551.551,0,0,1-.551-.551v-2.456a.551.551,0,0,1,.551-.551h2.456A.551.551,0,0,1,296.058,289.051Z" transform="translate(-292.5 -288.5)" fill="#eab430"/>
              </g>
            </g>
          </g>
        </g>
        <g id="Grupo_1072504" data-name="Grupo 1072504">
          <path id="Trazado_819726" data-name="Trazado 819726" d="M32.427,9.721H20.658a1.042,1.042,0,0,0-1.041,1.041v1.183H17.71V5.4h1.818A1.042,1.042,0,0,0,20.57,4.36V1.041A1.042,1.042,0,0,0,19.528,0H5.917A1.042,1.042,0,0,0,4.876,1.041V4.36A1.042,1.042,0,0,0,5.917,5.4H8.767a.477.477,0,1,0,0-.953H5.917a.088.088,0,0,1-.088-.088V1.041A.088.088,0,0,1,5.917.953H19.528a.088.088,0,0,1,.088.088V4.36a.088.088,0,0,1-.088.088H10.674a.477.477,0,1,0,0,.953h6.084V19.633H14.851V18.45a1.042,1.042,0,0,0-1.041-1.041H2.041A1.042,1.042,0,0,0,1,18.45v3.318A1.042,1.042,0,0,0,2.041,22.81H13.81a1.042,1.042,0,0,0,1.041-1.041V20.586h1.906V27.13H14.939A1.042,1.042,0,0,0,13.9,28.172V31.49a1.042,1.042,0,0,0,1.041,1.041H28.551a1.042,1.042,0,0,0,1.041-1.041V28.172a1.042,1.042,0,0,0-1.041-1.041H25.287a.477.477,0,0,0,0,.953h3.264a.088.088,0,0,1,.088.088V31.49a.088.088,0,0,1-.088.088H14.939a.088.088,0,0,1-.088-.088V28.172a.088.088,0,0,1,.088-.088h8.442a.477.477,0,0,0,0-.953H17.71V12.9h1.906v1.183a1.042,1.042,0,0,0,1.041,1.041H32.427a1.042,1.042,0,0,0,1.041-1.041V10.762A1.042,1.042,0,0,0,32.427,9.721ZM13.9,21.769a.088.088,0,0,1-.088.088H2.041a.088.088,0,0,1-.088-.088V18.45a.088.088,0,0,1,.088-.088H13.81a.088.088,0,0,1,.088.088v3.318Zm18.616-7.688a.088.088,0,0,1-.088.088H20.658a.088.088,0,0,1-.088-.088V10.762a.088.088,0,0,1,.088-.088H32.427a.088.088,0,0,1,.088.088v3.318Z" transform="translate(-0.936)" fill="#000100"/>
          <path id="Trazado_819727" data-name="Trazado 819727" d="M93.734,20.642l-1.308,1.321-.2-.123a.477.477,0,0,0-.494.815l.524.318a.477.477,0,0,0,.586-.072l1.573-1.588a.477.477,0,1,0-.677-.67Z" transform="translate(-85.686 -19.198)" fill="#000100"/>
          <path id="Trazado_819728" data-name="Trazado 819728" d="M146.195,35.953a.477.477,0,1,0,0-.953h-5.718a.477.477,0,0,0,0,.953Z" transform="translate(-131.105 -32.776)" fill="#000100"/>
          <path id="Trazado_819729" data-name="Trazado 819729" d="M250.175,35.953a.477.477,0,1,0,0-.953h-.7a.477.477,0,1,0,0,.953Z" transform="translate(-233.179 -32.776)" fill="#000100"/>
          <path id="Trazado_819730" data-name="Trazado 819730" d="M321.672,174.64a.477.477,0,0,0-.674,0l-.858.858a.476.476,0,0,0,0,.674l.762.762a.477.477,0,1,0,.674-.674l-.426-.426.521-.521A.477.477,0,0,0,321.672,174.64Z" transform="translate(-299.668 -163.413)" fill="#000100"/>
          <path id="Trazado_819731" data-name="Trazado 819731" d="M378.314,174.64a.477.477,0,1,0-.674.674l.521.521-.426.426a.477.477,0,1,0,.674.674l.762-.762a.477.477,0,0,0,0-.674Z" transform="translate(-353.515 -163.413)" fill="#000100"/>
          <path id="Trazado_819732" data-name="Trazado 819732" d="M351.287,175.032a.476.476,0,0,0-.619.265l-.635,1.588a.477.477,0,1,0,.885.354l.635-1.588A.477.477,0,0,0,351.287,175.032Z" transform="translate(-327.76 -163.879)" fill="#000100"/>
          <path id="Trazado_819733" data-name="Trazado 819733" d="M416.352,188h-3.876a.477.477,0,1,0,0,.953h3.876a.477.477,0,1,0,0-.953Z" transform="translate(-385.823 -176.055)" fill="#000100"/>
          <path id="Trazado_819734" data-name="Trazado 819734" d="M30.733,296.641l-1.308,1.321-.2-.123a.477.477,0,0,0-.494.815l.524.318a.476.476,0,0,0,.586-.072l1.573-1.588a.477.477,0,0,0-.677-.67Z" transform="translate(-26.688 -277.661)" fill="#000100"/>
          <path id="Trazado_819735" data-name="Trazado 819735" d="M84.767,309h-6.29a.477.477,0,0,0,0,.953h6.29a.477.477,0,0,0,0-.953Z" transform="translate(-73.044 -289.367)" fill="#000100"/>
          <path id="Trazado_819736" data-name="Trazado 819736" d="M230,450.3a1.3,1.3,0,1,0,1.3-1.3A1.3,1.3,0,0,0,230,450.3Zm1.652,0a.349.349,0,1,1-.349-.349A.35.35,0,0,1,231.652,450.3Z" transform="translate(-215.386 -420.472)" fill="#000100"/>
          <path id="Trazado_819737" data-name="Trazado 819737" d="M278,450.3a1.3,1.3,0,1,0,1.3-1.3A1.3,1.3,0,0,0,278,450.3Zm1.652,0a.349.349,0,1,1-.349-.349A.35.35,0,0,1,279.652,450.3Z" transform="translate(-260.337 -420.472)" fill="#000100"/>
          <path id="Trazado_819738" data-name="Trazado 819738" d="M327.366,462h-.89a.477.477,0,1,0,0,.953h.89a.477.477,0,1,0,0-.953Z" transform="translate(-305.287 -432.646)" fill="#000100"/>
          <path id="Trazado_819739" data-name="Trazado 819739" d="M361.477,462.953h3.113a.477.477,0,0,0,0-.953h-3.113a.477.477,0,1,0,0,.953Z" transform="translate(-338.063 -432.646)" fill="#000100"/>
          <path id="Trazado_819740" data-name="Trazado 819740" d="M1.027,110.511H3.484a1.029,1.029,0,0,0,1.027-1.027v-2.456A1.029,1.029,0,0,0,3.484,106H1.027A1.029,1.029,0,0,0,0,107.027v2.456A1.029,1.029,0,0,0,1.027,110.511Zm-.074-3.484a.074.074,0,0,1,.074-.074H3.484a.074.074,0,0,1,.074.074v2.456a.074.074,0,0,1-.074.074H1.027a.074.074,0,0,1-.074-.074Z" transform="translate(0 -99.265)" fill="#000100"/>
          <path id="Trazado_819741" data-name="Trazado 819741" d="M98,102.477a.476.476,0,0,0,.477.477h7.243a.477.477,0,1,0,0-.953H98.477A.476.476,0,0,0,98,102.477Z" transform="translate(-91.773 -95.519)" fill="#000100"/>
          <path id="Trazado_819742" data-name="Trazado 819742" d="M98.477,134.953h7.243a.477.477,0,1,0,0-.953H98.477a.477.477,0,1,0,0,.953Z" transform="translate(-91.773 -125.486)" fill="#000100"/>
          <path id="Trazado_819743" data-name="Trazado 819743" d="M98.477,166.953h1.716a.477.477,0,1,0,0-.953H98.477a.477.477,0,1,0,0,.953Z" transform="translate(-91.773 -155.453)" fill="#000100"/>
          <path id="Trazado_819744" data-name="Trazado 819744" d="M155.352,166h-3.876a.477.477,0,0,0,0,.953h3.876a.477.477,0,0,0,0-.953Z" transform="translate(-141.406 -155.453)" fill="#000100"/>
          <path id="Trazado_819745" data-name="Trazado 819745" d="M286.027,281A1.029,1.029,0,0,0,285,282.027v2.456a1.029,1.029,0,0,0,1.027,1.027h2.456a1.029,1.029,0,0,0,1.027-1.027v-2.456A1.029,1.029,0,0,0,288.484,281Zm2.531,1.027v2.456a.074.074,0,0,1-.074.074h-2.456a.074.074,0,0,1-.074-.074v-2.456a.074.074,0,0,1,.074-.074h2.456A.074.074,0,0,1,288.558,282.027Z" transform="translate(-266.892 -263.146)" fill="#000100"/>
          <path id="Trazado_819746" data-name="Trazado 819746" d="M390.72,277h-7.243a.477.477,0,0,0,0,.953h7.243a.477.477,0,1,0,0-.953Z" transform="translate(-358.665 -259.4)" fill="#000100"/>
          <path id="Trazado_819747" data-name="Trazado 819747" d="M390.72,309h-7.243a.477.477,0,0,0,0,.953h7.243a.477.477,0,1,0,0-.953Z" transform="translate(-358.665 -289.367)" fill="#000100"/>
          <path id="Trazado_819748" data-name="Trazado 819748" d="M383.477,341a.477.477,0,0,0,0,.953h1.716a.477.477,0,1,0,0-.953Z" transform="translate(-358.665 -319.334)" fill="#000100"/>
          <path id="Trazado_819749" data-name="Trazado 819749" d="M440.352,341h-3.876a.477.477,0,1,0,0,.953h3.876a.477.477,0,1,0,0-.953Z" transform="translate(-408.298 -319.334)" fill="#000100"/>
        </g>
      </g>
      <g id="algoritmo---2" data-name="algoritmo--" transform="translate(65.54 56.66)">
        <g id="Grupo_1072503-2" data-name="Grupo 1072503" transform="translate(0.477 0.477)">
          <g id="Grupo_1072485-2" data-name="Grupo 1072485" transform="translate(3.939)">
            <g id="Grupo_1072484-2" data-name="Grupo 1072484">
              <g id="Grupo_1072483-2" data-name="Grupo 1072483">
                <path id="Trazado_819716-2" data-name="Trazado 819716" d="M84.241,8.065v3.318a.565.565,0,0,1-.565.565H70.065a.565.565,0,0,1-.565-.565V8.065a.565.565,0,0,1,.565-.565H83.676A.565.565,0,0,1,84.241,8.065Z" transform="translate(-69.5 -7.5)" fill="#7ca1d8"/>
              </g>
            </g>
          </g>
          <g id="Grupo_1072488-2" data-name="Grupo 1072488" transform="translate(18.68 9.721)">
            <g id="Grupo_1072487-2" data-name="Grupo 1072487">
              <g id="Grupo_1072486-2" data-name="Grupo 1072486">
                <path id="Trazado_819717-2" data-name="Trazado 819717" d="M314.4,161.065v3.318a.565.565,0,0,1-.565.565H302.065a.565.565,0,0,1-.565-.565v-3.318a.565.565,0,0,1,.565-.565h11.768A.565.565,0,0,1,314.4,161.065Z" transform="translate(-301.5 -160.5)" fill="#f3d064"/>
              </g>
            </g>
          </g>
          <g id="Grupo_1072491-2" data-name="Grupo 1072491" transform="translate(0.064 17.409)">
            <g id="Grupo_1072490-2" data-name="Grupo 1072490">
              <g id="Grupo_1072489-2" data-name="Grupo 1072489">
                <path id="Trazado_819718-2" data-name="Trazado 819718" d="M21.4,282.065v3.318a.565.565,0,0,1-.565.565H9.065a.565.565,0,0,1-.565-.565v-3.318a.565.565,0,0,1,.565-.565H20.833A.565.565,0,0,1,21.4,282.065Z" transform="translate(-8.5 -281.5)" fill="#ff395e"/>
              </g>
            </g>
          </g>
          <g id="Grupo_1072494-2" data-name="Grupo 1072494" transform="translate(12.962 27.13)">
            <g id="Grupo_1072493-2" data-name="Grupo 1072493">
              <g id="Grupo_1072492-2" data-name="Grupo 1072492">
                <path id="Trazado_819719-2" data-name="Trazado 819719" d="M226.241,435.065v3.318a.565.565,0,0,1-.565.565H212.065a.565.565,0,0,1-.565-.565v-3.318a.565.565,0,0,1,.565-.565h13.611A.565.565,0,0,1,226.241,435.065Z" transform="translate(-211.5 -434.5)" fill="#dfde48"/>
              </g>
            </g>
          </g>
          <path id="Trazado_819720-2" data-name="Trazado 819720" d="M83.676,34.175H70.065a.565.565,0,0,1-.565-.565v2.224a.565.565,0,0,0,.565.565H83.676a.565.565,0,0,0,.565-.565V33.61A.565.565,0,0,1,83.676,34.175Z" transform="translate(-65.561 -31.951)" fill="#80c3d1"/>
          <path id="Trazado_819721-2" data-name="Trazado 819721" d="M313.833,187.175H302.065a.565.565,0,0,1-.565-.565v2.224a.565.565,0,0,0,.565.565h11.768a.565.565,0,0,0,.565-.565V186.61A.565.565,0,0,1,313.833,187.175Z" transform="translate(-282.82 -175.23)" fill="#ebbd45"/>
          <path id="Trazado_819722-2" data-name="Trazado 819722" d="M20.833,308.175H9.065a.565.565,0,0,1-.565-.565v2.224a.565.565,0,0,0,.565.565H20.833a.565.565,0,0,0,.565-.565V307.61A.565.565,0,0,1,20.833,308.175Z" transform="translate(-8.436 -288.542)" fill="#b12e65"/>
          <path id="Trazado_819723-2" data-name="Trazado 819723" d="M225.676,461.175H212.065a.565.565,0,0,1-.565-.565v2.224a.565.565,0,0,0,.565.565h13.611a.565.565,0,0,0,.565-.565V460.61A.565.565,0,0,1,225.676,461.175Z" transform="translate(-198.538 -431.821)" fill="#c5d65c"/>
          <g id="XMLID_6_2" data-name="XMLID_6_" transform="translate(14.614 28.528)">
            <g id="Grupo_1072496-2" data-name="Grupo 1072496">
              <g id="Grupo_1072495-2" data-name="Grupo 1072495">
                <circle id="Elipse_4811-2" data-name="Elipse 4811" cx="0.826" cy="0.826" r="0.826" fill="#9cb549"/>
              </g>
            </g>
          </g>
          <g id="XMLID_5_2" data-name="XMLID_5_" transform="translate(17.663 28.528)">
            <g id="Grupo_1072498-2" data-name="Grupo 1072498">
              <g id="Grupo_1072497-2" data-name="Grupo 1072497">
                <circle id="Elipse_4812-2" data-name="Elipse 4812" cx="0.826" cy="0.826" r="0.826" fill="#9cb549"/>
              </g>
            </g>
          </g>
          <g id="XMLID_63_2" data-name="XMLID_63_" transform="translate(0 6.735)">
            <g id="Grupo_1072500-2" data-name="Grupo 1072500">
              <g id="Grupo_1072499-2" data-name="Grupo 1072499">
                <path id="Trazado_819724-2" data-name="Trazado 819724" d="M11.058,114.051v2.456a.551.551,0,0,1-.551.551H8.051a.551.551,0,0,1-.551-.551v-2.456a.551.551,0,0,1,.551-.551h2.456A.551.551,0,0,1,11.058,114.051Z" transform="translate(-7.5 -113.5)" fill="#eab430"/>
              </g>
            </g>
          </g>
          <g id="XMLID_64_2" data-name="XMLID_64_" transform="translate(18.108 17.854)">
            <g id="Grupo_1072502-2" data-name="Grupo 1072502">
              <g id="Grupo_1072501-2" data-name="Grupo 1072501">
                <path id="Trazado_819725-2" data-name="Trazado 819725" d="M296.058,289.051v2.456a.551.551,0,0,1-.551.551h-2.456a.551.551,0,0,1-.551-.551v-2.456a.551.551,0,0,1,.551-.551h2.456A.551.551,0,0,1,296.058,289.051Z" transform="translate(-292.5 -288.5)" fill="#eab430"/>
              </g>
            </g>
          </g>
        </g>
        <g id="Grupo_1072504-2" data-name="Grupo 1072504">
          <path id="Trazado_819726-2" data-name="Trazado 819726" d="M32.427,9.721H20.658a1.042,1.042,0,0,0-1.041,1.041v1.183H17.71V5.4h1.818A1.042,1.042,0,0,0,20.57,4.36V1.041A1.042,1.042,0,0,0,19.528,0H5.917A1.042,1.042,0,0,0,4.876,1.041V4.36A1.042,1.042,0,0,0,5.917,5.4H8.767a.477.477,0,1,0,0-.953H5.917a.088.088,0,0,1-.088-.088V1.041A.088.088,0,0,1,5.917.953H19.528a.088.088,0,0,1,.088.088V4.36a.088.088,0,0,1-.088.088H10.674a.477.477,0,1,0,0,.953h6.084V19.633H14.851V18.45a1.042,1.042,0,0,0-1.041-1.041H2.041A1.042,1.042,0,0,0,1,18.45v3.318A1.042,1.042,0,0,0,2.041,22.81H13.81a1.042,1.042,0,0,0,1.041-1.041V20.586h1.906V27.13H14.939A1.042,1.042,0,0,0,13.9,28.172V31.49a1.042,1.042,0,0,0,1.041,1.041H28.551a1.042,1.042,0,0,0,1.041-1.041V28.172a1.042,1.042,0,0,0-1.041-1.041H25.287a.477.477,0,0,0,0,.953h3.264a.088.088,0,0,1,.088.088V31.49a.088.088,0,0,1-.088.088H14.939a.088.088,0,0,1-.088-.088V28.172a.088.088,0,0,1,.088-.088h8.442a.477.477,0,0,0,0-.953H17.71V12.9h1.906v1.183a1.042,1.042,0,0,0,1.041,1.041H32.427a1.042,1.042,0,0,0,1.041-1.041V10.762A1.042,1.042,0,0,0,32.427,9.721ZM13.9,21.769a.088.088,0,0,1-.088.088H2.041a.088.088,0,0,1-.088-.088V18.45a.088.088,0,0,1,.088-.088H13.81a.088.088,0,0,1,.088.088v3.318Zm18.616-7.688a.088.088,0,0,1-.088.088H20.658a.088.088,0,0,1-.088-.088V10.762a.088.088,0,0,1,.088-.088H32.427a.088.088,0,0,1,.088.088v3.318Z" transform="translate(-0.936)" fill="#000100"/>
          <path id="Trazado_819727-2" data-name="Trazado 819727" d="M93.734,20.642l-1.308,1.321-.2-.123a.477.477,0,0,0-.494.815l.524.318a.477.477,0,0,0,.586-.072l1.573-1.588a.477.477,0,1,0-.677-.67Z" transform="translate(-85.686 -19.198)" fill="#000100"/>
          <path id="Trazado_819728-2" data-name="Trazado 819728" d="M146.195,35.953a.477.477,0,1,0,0-.953h-5.718a.477.477,0,0,0,0,.953Z" transform="translate(-131.105 -32.776)" fill="#000100"/>
          <path id="Trazado_819729-2" data-name="Trazado 819729" d="M250.175,35.953a.477.477,0,1,0,0-.953h-.7a.477.477,0,1,0,0,.953Z" transform="translate(-233.179 -32.776)" fill="#000100"/>
          <path id="Trazado_819730-2" data-name="Trazado 819730" d="M321.672,174.64a.477.477,0,0,0-.674,0l-.858.858a.476.476,0,0,0,0,.674l.762.762a.477.477,0,1,0,.674-.674l-.426-.426.521-.521A.477.477,0,0,0,321.672,174.64Z" transform="translate(-299.668 -163.413)" fill="#000100"/>
          <path id="Trazado_819731-2" data-name="Trazado 819731" d="M378.314,174.64a.477.477,0,1,0-.674.674l.521.521-.426.426a.477.477,0,1,0,.674.674l.762-.762a.477.477,0,0,0,0-.674Z" transform="translate(-353.515 -163.413)" fill="#000100"/>
          <path id="Trazado_819732-2" data-name="Trazado 819732" d="M351.287,175.032a.476.476,0,0,0-.619.265l-.635,1.588a.477.477,0,1,0,.885.354l.635-1.588A.477.477,0,0,0,351.287,175.032Z" transform="translate(-327.76 -163.879)" fill="#000100"/>
          <path id="Trazado_819733-2" data-name="Trazado 819733" d="M416.352,188h-3.876a.477.477,0,1,0,0,.953h3.876a.477.477,0,1,0,0-.953Z" transform="translate(-385.823 -176.055)" fill="#000100"/>
          <path id="Trazado_819734-2" data-name="Trazado 819734" d="M30.733,296.641l-1.308,1.321-.2-.123a.477.477,0,0,0-.494.815l.524.318a.476.476,0,0,0,.586-.072l1.573-1.588a.477.477,0,0,0-.677-.67Z" transform="translate(-26.688 -277.661)" fill="#000100"/>
          <path id="Trazado_819735-2" data-name="Trazado 819735" d="M84.767,309h-6.29a.477.477,0,0,0,0,.953h6.29a.477.477,0,0,0,0-.953Z" transform="translate(-73.044 -289.367)" fill="#000100"/>
          <path id="Trazado_819736-2" data-name="Trazado 819736" d="M230,450.3a1.3,1.3,0,1,0,1.3-1.3A1.3,1.3,0,0,0,230,450.3Zm1.652,0a.349.349,0,1,1-.349-.349A.35.35,0,0,1,231.652,450.3Z" transform="translate(-215.386 -420.472)" fill="#000100"/>
          <path id="Trazado_819737-2" data-name="Trazado 819737" d="M278,450.3a1.3,1.3,0,1,0,1.3-1.3A1.3,1.3,0,0,0,278,450.3Zm1.652,0a.349.349,0,1,1-.349-.349A.35.35,0,0,1,279.652,450.3Z" transform="translate(-260.337 -420.472)" fill="#000100"/>
          <path id="Trazado_819738-2" data-name="Trazado 819738" d="M327.366,462h-.89a.477.477,0,1,0,0,.953h.89a.477.477,0,1,0,0-.953Z" transform="translate(-305.287 -432.646)" fill="#000100"/>
          <path id="Trazado_819739-2" data-name="Trazado 819739" d="M361.477,462.953h3.113a.477.477,0,0,0,0-.953h-3.113a.477.477,0,1,0,0,.953Z" transform="translate(-338.063 -432.646)" fill="#000100"/>
          <path id="Trazado_819740-2" data-name="Trazado 819740" d="M1.027,110.511H3.484a1.029,1.029,0,0,0,1.027-1.027v-2.456A1.029,1.029,0,0,0,3.484,106H1.027A1.029,1.029,0,0,0,0,107.027v2.456A1.029,1.029,0,0,0,1.027,110.511Zm-.074-3.484a.074.074,0,0,1,.074-.074H3.484a.074.074,0,0,1,.074.074v2.456a.074.074,0,0,1-.074.074H1.027a.074.074,0,0,1-.074-.074Z" transform="translate(0 -99.265)" fill="#000100"/>
          <path id="Trazado_819741-2" data-name="Trazado 819741" d="M98,102.477a.476.476,0,0,0,.477.477h7.243a.477.477,0,1,0,0-.953H98.477A.476.476,0,0,0,98,102.477Z" transform="translate(-91.773 -95.519)" fill="#000100"/>
          <path id="Trazado_819742-2" data-name="Trazado 819742" d="M98.477,134.953h7.243a.477.477,0,1,0,0-.953H98.477a.477.477,0,1,0,0,.953Z" transform="translate(-91.773 -125.486)" fill="#000100"/>
          <path id="Trazado_819743-2" data-name="Trazado 819743" d="M98.477,166.953h1.716a.477.477,0,1,0,0-.953H98.477a.477.477,0,1,0,0,.953Z" transform="translate(-91.773 -155.453)" fill="#000100"/>
          <path id="Trazado_819744-2" data-name="Trazado 819744" d="M155.352,166h-3.876a.477.477,0,0,0,0,.953h3.876a.477.477,0,0,0,0-.953Z" transform="translate(-141.406 -155.453)" fill="#000100"/>
          <path id="Trazado_819745-2" data-name="Trazado 819745" d="M286.027,281A1.029,1.029,0,0,0,285,282.027v2.456a1.029,1.029,0,0,0,1.027,1.027h2.456a1.029,1.029,0,0,0,1.027-1.027v-2.456A1.029,1.029,0,0,0,288.484,281Zm2.531,1.027v2.456a.074.074,0,0,1-.074.074h-2.456a.074.074,0,0,1-.074-.074v-2.456a.074.074,0,0,1,.074-.074h2.456A.074.074,0,0,1,288.558,282.027Z" transform="translate(-266.892 -263.146)" fill="#000100"/>
          <path id="Trazado_819746-2" data-name="Trazado 819746" d="M390.72,277h-7.243a.477.477,0,0,0,0,.953h7.243a.477.477,0,1,0,0-.953Z" transform="translate(-358.665 -259.4)" fill="#000100"/>
          <path id="Trazado_819747-2" data-name="Trazado 819747" d="M390.72,309h-7.243a.477.477,0,0,0,0,.953h7.243a.477.477,0,1,0,0-.953Z" transform="translate(-358.665 -289.367)" fill="#000100"/>
          <path id="Trazado_819748-2" data-name="Trazado 819748" d="M383.477,341a.477.477,0,0,0,0,.953h1.716a.477.477,0,1,0,0-.953Z" transform="translate(-358.665 -319.334)" fill="#000100"/>
          <path id="Trazado_819749-2" data-name="Trazado 819749" d="M440.352,341h-3.876a.477.477,0,1,0,0,.953h3.876a.477.477,0,1,0,0-.953Z" transform="translate(-408.298 -319.334)" fill="#000100"/>
        </g>
      </g>
      <g id="algoritmo---3" data-name="algoritmo--" transform="translate(65.54 108.422)">
        <g id="Grupo_1072503-3" data-name="Grupo 1072503" transform="translate(0.477 0.477)">
          <g id="Grupo_1072485-3" data-name="Grupo 1072485" transform="translate(3.939)">
            <g id="Grupo_1072484-3" data-name="Grupo 1072484">
              <g id="Grupo_1072483-3" data-name="Grupo 1072483">
                <path id="Trazado_819716-3" data-name="Trazado 819716" d="M84.241,8.065v3.318a.565.565,0,0,1-.565.565H70.065a.565.565,0,0,1-.565-.565V8.065a.565.565,0,0,1,.565-.565H83.676A.565.565,0,0,1,84.241,8.065Z" transform="translate(-69.5 -7.5)" fill="#7ca1d8"/>
              </g>
            </g>
          </g>
          <g id="Grupo_1072488-3" data-name="Grupo 1072488" transform="translate(18.68 9.721)">
            <g id="Grupo_1072487-3" data-name="Grupo 1072487">
              <g id="Grupo_1072486-3" data-name="Grupo 1072486">
                <path id="Trazado_819717-3" data-name="Trazado 819717" d="M314.4,161.065v3.318a.565.565,0,0,1-.565.565H302.065a.565.565,0,0,1-.565-.565v-3.318a.565.565,0,0,1,.565-.565h11.768A.565.565,0,0,1,314.4,161.065Z" transform="translate(-301.5 -160.5)" fill="#f3d064"/>
              </g>
            </g>
          </g>
          <g id="Grupo_1072491-3" data-name="Grupo 1072491" transform="translate(0.064 17.409)">
            <g id="Grupo_1072490-3" data-name="Grupo 1072490">
              <g id="Grupo_1072489-3" data-name="Grupo 1072489">
                <path id="Trazado_819718-3" data-name="Trazado 819718" d="M21.4,282.065v3.318a.565.565,0,0,1-.565.565H9.065a.565.565,0,0,1-.565-.565v-3.318a.565.565,0,0,1,.565-.565H20.833A.565.565,0,0,1,21.4,282.065Z" transform="translate(-8.5 -281.5)" fill="#ff395e"/>
              </g>
            </g>
          </g>
          <g id="Grupo_1072494-3" data-name="Grupo 1072494" transform="translate(12.962 27.13)">
            <g id="Grupo_1072493-3" data-name="Grupo 1072493">
              <g id="Grupo_1072492-3" data-name="Grupo 1072492">
                <path id="Trazado_819719-3" data-name="Trazado 819719" d="M226.241,435.065v3.318a.565.565,0,0,1-.565.565H212.065a.565.565,0,0,1-.565-.565v-3.318a.565.565,0,0,1,.565-.565h13.611A.565.565,0,0,1,226.241,435.065Z" transform="translate(-211.5 -434.5)" fill="#dfde48"/>
              </g>
            </g>
          </g>
          <path id="Trazado_819720-3" data-name="Trazado 819720" d="M83.676,34.175H70.065a.565.565,0,0,1-.565-.565v2.224a.565.565,0,0,0,.565.565H83.676a.565.565,0,0,0,.565-.565V33.61A.565.565,0,0,1,83.676,34.175Z" transform="translate(-65.561 -31.951)" fill="#80c3d1"/>
          <path id="Trazado_819721-3" data-name="Trazado 819721" d="M313.833,187.175H302.065a.565.565,0,0,1-.565-.565v2.224a.565.565,0,0,0,.565.565h11.768a.565.565,0,0,0,.565-.565V186.61A.565.565,0,0,1,313.833,187.175Z" transform="translate(-282.82 -175.23)" fill="#ebbd45"/>
          <path id="Trazado_819722-3" data-name="Trazado 819722" d="M20.833,308.175H9.065a.565.565,0,0,1-.565-.565v2.224a.565.565,0,0,0,.565.565H20.833a.565.565,0,0,0,.565-.565V307.61A.565.565,0,0,1,20.833,308.175Z" transform="translate(-8.436 -288.542)" fill="#b12e65"/>
          <path id="Trazado_819723-3" data-name="Trazado 819723" d="M225.676,461.175H212.065a.565.565,0,0,1-.565-.565v2.224a.565.565,0,0,0,.565.565h13.611a.565.565,0,0,0,.565-.565V460.61A.565.565,0,0,1,225.676,461.175Z" transform="translate(-198.538 -431.821)" fill="#c5d65c"/>
          <g id="XMLID_6_3" data-name="XMLID_6_" transform="translate(14.614 28.528)">
            <g id="Grupo_1072496-3" data-name="Grupo 1072496">
              <g id="Grupo_1072495-3" data-name="Grupo 1072495">
                <circle id="Elipse_4811-3" data-name="Elipse 4811" cx="0.826" cy="0.826" r="0.826" fill="#9cb549"/>
              </g>
            </g>
          </g>
          <g id="XMLID_5_3" data-name="XMLID_5_" transform="translate(17.663 28.528)">
            <g id="Grupo_1072498-3" data-name="Grupo 1072498">
              <g id="Grupo_1072497-3" data-name="Grupo 1072497">
                <circle id="Elipse_4812-3" data-name="Elipse 4812" cx="0.826" cy="0.826" r="0.826" fill="#9cb549"/>
              </g>
            </g>
          </g>
          <g id="XMLID_63_3" data-name="XMLID_63_" transform="translate(0 6.735)">
            <g id="Grupo_1072500-3" data-name="Grupo 1072500">
              <g id="Grupo_1072499-3" data-name="Grupo 1072499">
                <path id="Trazado_819724-3" data-name="Trazado 819724" d="M11.058,114.051v2.456a.551.551,0,0,1-.551.551H8.051a.551.551,0,0,1-.551-.551v-2.456a.551.551,0,0,1,.551-.551h2.456A.551.551,0,0,1,11.058,114.051Z" transform="translate(-7.5 -113.5)" fill="#eab430"/>
              </g>
            </g>
          </g>
          <g id="XMLID_64_3" data-name="XMLID_64_" transform="translate(18.108 17.854)">
            <g id="Grupo_1072502-3" data-name="Grupo 1072502">
              <g id="Grupo_1072501-3" data-name="Grupo 1072501">
                <path id="Trazado_819725-3" data-name="Trazado 819725" d="M296.058,289.051v2.456a.551.551,0,0,1-.551.551h-2.456a.551.551,0,0,1-.551-.551v-2.456a.551.551,0,0,1,.551-.551h2.456A.551.551,0,0,1,296.058,289.051Z" transform="translate(-292.5 -288.5)" fill="#eab430"/>
              </g>
            </g>
          </g>
        </g>
        <g id="Grupo_1072504-3" data-name="Grupo 1072504">
          <path id="Trazado_819726-3" data-name="Trazado 819726" d="M32.427,9.721H20.658a1.042,1.042,0,0,0-1.041,1.041v1.183H17.71V5.4h1.818A1.042,1.042,0,0,0,20.57,4.36V1.041A1.042,1.042,0,0,0,19.528,0H5.917A1.042,1.042,0,0,0,4.876,1.041V4.36A1.042,1.042,0,0,0,5.917,5.4H8.767a.477.477,0,1,0,0-.953H5.917a.088.088,0,0,1-.088-.088V1.041A.088.088,0,0,1,5.917.953H19.528a.088.088,0,0,1,.088.088V4.36a.088.088,0,0,1-.088.088H10.674a.477.477,0,1,0,0,.953h6.084V19.633H14.851V18.45a1.042,1.042,0,0,0-1.041-1.041H2.041A1.042,1.042,0,0,0,1,18.45v3.318A1.042,1.042,0,0,0,2.041,22.81H13.81a1.042,1.042,0,0,0,1.041-1.041V20.586h1.906V27.13H14.939A1.042,1.042,0,0,0,13.9,28.172V31.49a1.042,1.042,0,0,0,1.041,1.041H28.551a1.042,1.042,0,0,0,1.041-1.041V28.172a1.042,1.042,0,0,0-1.041-1.041H25.287a.477.477,0,0,0,0,.953h3.264a.088.088,0,0,1,.088.088V31.49a.088.088,0,0,1-.088.088H14.939a.088.088,0,0,1-.088-.088V28.172a.088.088,0,0,1,.088-.088h8.442a.477.477,0,0,0,0-.953H17.71V12.9h1.906v1.183a1.042,1.042,0,0,0,1.041,1.041H32.427a1.042,1.042,0,0,0,1.041-1.041V10.762A1.042,1.042,0,0,0,32.427,9.721ZM13.9,21.769a.088.088,0,0,1-.088.088H2.041a.088.088,0,0,1-.088-.088V18.45a.088.088,0,0,1,.088-.088H13.81a.088.088,0,0,1,.088.088v3.318Zm18.616-7.688a.088.088,0,0,1-.088.088H20.658a.088.088,0,0,1-.088-.088V10.762a.088.088,0,0,1,.088-.088H32.427a.088.088,0,0,1,.088.088v3.318Z" transform="translate(-0.936)" fill="#000100"/>
          <path id="Trazado_819727-3" data-name="Trazado 819727" d="M93.734,20.642l-1.308,1.321-.2-.123a.477.477,0,0,0-.494.815l.524.318a.477.477,0,0,0,.586-.072l1.573-1.588a.477.477,0,1,0-.677-.67Z" transform="translate(-85.686 -19.198)" fill="#000100"/>
          <path id="Trazado_819728-3" data-name="Trazado 819728" d="M146.195,35.953a.477.477,0,1,0,0-.953h-5.718a.477.477,0,0,0,0,.953Z" transform="translate(-131.105 -32.776)" fill="#000100"/>
          <path id="Trazado_819729-3" data-name="Trazado 819729" d="M250.175,35.953a.477.477,0,1,0,0-.953h-.7a.477.477,0,1,0,0,.953Z" transform="translate(-233.179 -32.776)" fill="#000100"/>
          <path id="Trazado_819730-3" data-name="Trazado 819730" d="M321.672,174.64a.477.477,0,0,0-.674,0l-.858.858a.476.476,0,0,0,0,.674l.762.762a.477.477,0,1,0,.674-.674l-.426-.426.521-.521A.477.477,0,0,0,321.672,174.64Z" transform="translate(-299.668 -163.413)" fill="#000100"/>
          <path id="Trazado_819731-3" data-name="Trazado 819731" d="M378.314,174.64a.477.477,0,1,0-.674.674l.521.521-.426.426a.477.477,0,1,0,.674.674l.762-.762a.477.477,0,0,0,0-.674Z" transform="translate(-353.515 -163.413)" fill="#000100"/>
          <path id="Trazado_819732-3" data-name="Trazado 819732" d="M351.287,175.032a.476.476,0,0,0-.619.265l-.635,1.588a.477.477,0,1,0,.885.354l.635-1.588A.477.477,0,0,0,351.287,175.032Z" transform="translate(-327.76 -163.879)" fill="#000100"/>
          <path id="Trazado_819733-3" data-name="Trazado 819733" d="M416.352,188h-3.876a.477.477,0,1,0,0,.953h3.876a.477.477,0,1,0,0-.953Z" transform="translate(-385.823 -176.055)" fill="#000100"/>
          <path id="Trazado_819734-3" data-name="Trazado 819734" d="M30.733,296.641l-1.308,1.321-.2-.123a.477.477,0,0,0-.494.815l.524.318a.476.476,0,0,0,.586-.072l1.573-1.588a.477.477,0,0,0-.677-.67Z" transform="translate(-26.688 -277.661)" fill="#000100"/>
          <path id="Trazado_819735-3" data-name="Trazado 819735" d="M84.767,309h-6.29a.477.477,0,0,0,0,.953h6.29a.477.477,0,0,0,0-.953Z" transform="translate(-73.044 -289.367)" fill="#000100"/>
          <path id="Trazado_819736-3" data-name="Trazado 819736" d="M230,450.3a1.3,1.3,0,1,0,1.3-1.3A1.3,1.3,0,0,0,230,450.3Zm1.652,0a.349.349,0,1,1-.349-.349A.35.35,0,0,1,231.652,450.3Z" transform="translate(-215.386 -420.472)" fill="#000100"/>
          <path id="Trazado_819737-3" data-name="Trazado 819737" d="M278,450.3a1.3,1.3,0,1,0,1.3-1.3A1.3,1.3,0,0,0,278,450.3Zm1.652,0a.349.349,0,1,1-.349-.349A.35.35,0,0,1,279.652,450.3Z" transform="translate(-260.337 -420.472)" fill="#000100"/>
          <path id="Trazado_819738-3" data-name="Trazado 819738" d="M327.366,462h-.89a.477.477,0,1,0,0,.953h.89a.477.477,0,1,0,0-.953Z" transform="translate(-305.287 -432.646)" fill="#000100"/>
          <path id="Trazado_819739-3" data-name="Trazado 819739" d="M361.477,462.953h3.113a.477.477,0,0,0,0-.953h-3.113a.477.477,0,1,0,0,.953Z" transform="translate(-338.063 -432.646)" fill="#000100"/>
          <path id="Trazado_819740-3" data-name="Trazado 819740" d="M1.027,110.511H3.484a1.029,1.029,0,0,0,1.027-1.027v-2.456A1.029,1.029,0,0,0,3.484,106H1.027A1.029,1.029,0,0,0,0,107.027v2.456A1.029,1.029,0,0,0,1.027,110.511Zm-.074-3.484a.074.074,0,0,1,.074-.074H3.484a.074.074,0,0,1,.074.074v2.456a.074.074,0,0,1-.074.074H1.027a.074.074,0,0,1-.074-.074Z" transform="translate(0 -99.265)" fill="#000100"/>
          <path id="Trazado_819741-3" data-name="Trazado 819741" d="M98,102.477a.476.476,0,0,0,.477.477h7.243a.477.477,0,1,0,0-.953H98.477A.476.476,0,0,0,98,102.477Z" transform="translate(-91.773 -95.519)" fill="#000100"/>
          <path id="Trazado_819742-3" data-name="Trazado 819742" d="M98.477,134.953h7.243a.477.477,0,1,0,0-.953H98.477a.477.477,0,1,0,0,.953Z" transform="translate(-91.773 -125.486)" fill="#000100"/>
          <path id="Trazado_819743-3" data-name="Trazado 819743" d="M98.477,166.953h1.716a.477.477,0,1,0,0-.953H98.477a.477.477,0,1,0,0,.953Z" transform="translate(-91.773 -155.453)" fill="#000100"/>
          <path id="Trazado_819744-3" data-name="Trazado 819744" d="M155.352,166h-3.876a.477.477,0,0,0,0,.953h3.876a.477.477,0,0,0,0-.953Z" transform="translate(-141.406 -155.453)" fill="#000100"/>
          <path id="Trazado_819745-3" data-name="Trazado 819745" d="M286.027,281A1.029,1.029,0,0,0,285,282.027v2.456a1.029,1.029,0,0,0,1.027,1.027h2.456a1.029,1.029,0,0,0,1.027-1.027v-2.456A1.029,1.029,0,0,0,288.484,281Zm2.531,1.027v2.456a.074.074,0,0,1-.074.074h-2.456a.074.074,0,0,1-.074-.074v-2.456a.074.074,0,0,1,.074-.074h2.456A.074.074,0,0,1,288.558,282.027Z" transform="translate(-266.892 -263.146)" fill="#000100"/>
          <path id="Trazado_819746-3" data-name="Trazado 819746" d="M390.72,277h-7.243a.477.477,0,0,0,0,.953h7.243a.477.477,0,1,0,0-.953Z" transform="translate(-358.665 -259.4)" fill="#000100"/>
          <path id="Trazado_819747-3" data-name="Trazado 819747" d="M390.72,309h-7.243a.477.477,0,0,0,0,.953h7.243a.477.477,0,1,0,0-.953Z" transform="translate(-358.665 -289.367)" fill="#000100"/>
          <path id="Trazado_819748-3" data-name="Trazado 819748" d="M383.477,341a.477.477,0,0,0,0,.953h1.716a.477.477,0,1,0,0-.953Z" transform="translate(-358.665 -319.334)" fill="#000100"/>
          <path id="Trazado_819749-3" data-name="Trazado 819749" d="M440.352,341h-3.876a.477.477,0,1,0,0,.953h3.876a.477.477,0,1,0,0-.953Z" transform="translate(-408.298 -319.334)" fill="#000100"/>
        </g>
      </g>
      <g id="Grupo_1072505" data-name="Grupo 1072505" transform="translate(9.954)">
        <circle id="Elipse_4808" data-name="Elipse 4808" cx="18.714" cy="18.714" r="18.714" fill="#283859"/>
        <circle id="Elipse_4813" data-name="Elipse 4813" cx="1.195" cy="1.195" r="1.195" transform="translate(7.167 7.963)" fill="#fff"/>
        <circle id="Elipse_4816" data-name="Elipse 4816" cx="1.195" cy="1.195" r="1.195" transform="translate(16.723 11.945)" fill="#fff"/>
        <circle id="Elipse_4822" data-name="Elipse 4822" cx="1.195" cy="1.195" r="1.195" transform="translate(15.927 17.52)" fill="#fff"/>
        <circle id="Elipse_4818" data-name="Elipse 4818" cx="1.195" cy="1.195" r="1.195" transform="translate(20.705 5.574)" fill="#fff"/>
        <circle id="Elipse_4814" data-name="Elipse 4814" cx="1.195" cy="1.195" r="1.195" transform="translate(8.76 19.909)" fill="#fff"/>
        <circle id="Elipse_4823" data-name="Elipse 4823" cx="1.195" cy="1.195" r="1.195" transform="translate(8.76 26.279)" fill="#fff"/>
        <circle id="Elipse_4821" data-name="Elipse 4821" cx="1.195" cy="1.195" r="1.195" transform="translate(3.185 15.131)" fill="#fff"/>
        <circle id="Elipse_4815" data-name="Elipse 4815" cx="1.195" cy="1.195" r="1.195" transform="translate(18.316 23.89)" fill="#fff"/>
        <circle id="Elipse_4824" data-name="Elipse 4824" cx="1.195" cy="1.195" r="1.195" transform="translate(24.687 26.279)" fill="#fff"/>
        <circle id="Elipse_4820" data-name="Elipse 4820" cx="1.195" cy="1.195" r="1.195" transform="translate(16.723 28.668)" fill="#fff"/>
        <circle id="Elipse_4817" data-name="Elipse 4817" cx="1.195" cy="1.195" r="1.195" transform="translate(24.687 13.538)" fill="#fff"/>
        <circle id="Elipse_4825" data-name="Elipse 4825" cx="1.195" cy="1.195" r="1.195" transform="translate(27.872 10.353)" fill="#fff"/>
        <circle id="Elipse_4819" data-name="Elipse 4819" cx="1.195" cy="1.195" r="1.195" transform="translate(27.872 21.501)" fill="#fff"/>
      </g>
      <g id="Grupo_1072506" data-name="Grupo 1072506" transform="translate(9.954 52.559)">
        <circle id="Elipse_4808-2" data-name="Elipse 4808" cx="18.714" cy="18.714" r="18.714" fill="#283859"/>
        <circle id="Elipse_4813-2" data-name="Elipse 4813" cx="1.195" cy="1.195" r="1.195" transform="translate(7.167 7.963)" fill="#fff"/>
        <circle id="Elipse_4816-2" data-name="Elipse 4816" cx="1.195" cy="1.195" r="1.195" transform="translate(16.723 11.945)" fill="#fff"/>
        <circle id="Elipse_4822-2" data-name="Elipse 4822" cx="1.195" cy="1.195" r="1.195" transform="translate(15.927 17.52)" fill="#fff"/>
        <circle id="Elipse_4818-2" data-name="Elipse 4818" cx="1.195" cy="1.195" r="1.195" transform="translate(20.705 5.574)" fill="#fff"/>
        <circle id="Elipse_4814-2" data-name="Elipse 4814" cx="1.195" cy="1.195" r="1.195" transform="translate(8.76 19.909)" fill="#fff"/>
        <circle id="Elipse_4823-2" data-name="Elipse 4823" cx="1.195" cy="1.195" r="1.195" transform="translate(8.76 26.279)" fill="#fff"/>
        <circle id="Elipse_4821-2" data-name="Elipse 4821" cx="1.195" cy="1.195" r="1.195" transform="translate(3.185 15.131)" fill="#fff"/>
        <circle id="Elipse_4815-2" data-name="Elipse 4815" cx="1.195" cy="1.195" r="1.195" transform="translate(18.316 23.89)" fill="#fff"/>
        <circle id="Elipse_4824-2" data-name="Elipse 4824" cx="1.195" cy="1.195" r="1.195" transform="translate(24.687 26.279)" fill="#fff"/>
        <circle id="Elipse_4820-2" data-name="Elipse 4820" cx="1.195" cy="1.195" r="1.195" transform="translate(16.723 28.668)" fill="#fff"/>
        <circle id="Elipse_4817-2" data-name="Elipse 4817" cx="1.195" cy="1.195" r="1.195" transform="translate(24.687 13.538)" fill="#fff"/>
        <circle id="Elipse_4825-2" data-name="Elipse 4825" cx="1.195" cy="1.195" r="1.195" transform="translate(27.872 10.353)" fill="#fff"/>
        <circle id="Elipse_4819-2" data-name="Elipse 4819" cx="1.195" cy="1.195" r="1.195" transform="translate(27.872 21.501)" fill="#fff"/>
      </g>
      <g id="Grupo_1072507" data-name="Grupo 1072507" transform="translate(9.954 105.118)">
        <circle id="Elipse_4808-3" data-name="Elipse 4808" cx="18.714" cy="18.714" r="18.714" transform="translate(0 0)" fill="#283859"/>
        <circle id="Elipse_4813-3" data-name="Elipse 4813" cx="1.195" cy="1.195" r="1.195" transform="translate(7.167 7.963)" fill="#fff"/>
        <circle id="Elipse_4816-3" data-name="Elipse 4816" cx="1.195" cy="1.195" r="1.195" transform="translate(16.723 11.945)" fill="#fff"/>
        <circle id="Elipse_4822-3" data-name="Elipse 4822" cx="1.195" cy="1.195" r="1.195" transform="translate(15.927 17.52)" fill="#fff"/>
        <circle id="Elipse_4818-3" data-name="Elipse 4818" cx="1.195" cy="1.195" r="1.195" transform="translate(20.705 5.574)" fill="#fff"/>
        <circle id="Elipse_4814-3" data-name="Elipse 4814" cx="1.195" cy="1.195" r="1.195" transform="translate(8.76 19.909)" fill="#fff"/>
        <circle id="Elipse_4823-3" data-name="Elipse 4823" cx="1.195" cy="1.195" r="1.195" transform="translate(8.76 26.279)" fill="#fff"/>
        <circle id="Elipse_4821-3" data-name="Elipse 4821" cx="1.195" cy="1.195" r="1.195" transform="translate(3.185 15.131)" fill="#fff"/>
        <circle id="Elipse_4815-3" data-name="Elipse 4815" cx="1.195" cy="1.195" r="1.195" transform="translate(18.316 23.89)" fill="#fff"/>
        <circle id="Elipse_4824-3" data-name="Elipse 4824" cx="1.195" cy="1.195" r="1.195" transform="translate(24.687 26.279)" fill="#fff"/>
        <circle id="Elipse_4820-3" data-name="Elipse 4820" cx="1.195" cy="1.195" r="1.195" transform="translate(16.723 28.668)" fill="#fff"/>
        <circle id="Elipse_4817-3" data-name="Elipse 4817" cx="1.195" cy="1.195" r="1.195" transform="translate(24.687 13.538)" fill="#fff"/>
        <circle id="Elipse_4825-3" data-name="Elipse 4825" cx="1.195" cy="1.195" r="1.195" transform="translate(27.872 10.353)" fill="#fff"/>
        <circle id="Elipse_4819-3" data-name="Elipse 4819" cx="1.195" cy="1.195" r="1.195" transform="translate(27.872 21.501)" fill="#fff"/>
      </g>
    </g>
  </g>
</svg>
