<svg xmlns="http://www.w3.org/2000/svg" width="400" height="149" viewBox="0 0 400 149">
  <g id="Grupo_1072193" data-name="Grupo 1072193" transform="translate(-1020 -2078)">
    <g id="Grupo_1071913" data-name="Grupo 1071913" transform="translate(0 36.484)">
      <rect id="Rectángulo_381506" data-name="Rectángulo 381506" width="400" height="113" transform="translate(1020 2077.516)" fill="#f0f8f7"/>
    </g>
    <g id="Grupo_1071914" data-name="Grupo 1071914" transform="translate(1151.5 2077.971)">
      <path id="Trazado_813500" data-name="Trazado 813500" d="M68,0a68,68,0,1,0,68,68A68,68,0,0,0,68,0Z" transform="translate(0.5 0.029)" fill="#8054f8"/>
      <g id="dato" transform="translate(18.5 18.029)">
        <path id="Trazado_819693" data-name="Trazado 819693" d="M2,57H22.653v7.944H2Z" transform="translate(0.589 32.968)" fill="#838f9b"/>
        <path id="Trazado_819694" data-name="Trazado 819694" d="M43,57H73.185v7.944H43Z" transform="translate(24.726 32.968)" fill="#838f9b"/>
        <path id="Trazado_819695" data-name="Trazado 819695" d="M59.484,59.944v7.944H15V58.355A6.353,6.353,0,0,1,21.355,52H53.177a6.353,6.353,0,0,1,6.307,6.355Z" transform="translate(8.242 30.024)" fill="#aab2bd"/>
        <path id="Trazado_819696" data-name="Trazado 819696" d="M88.613,12H6V69.194H88.613Z" transform="translate(2.944 6.476)" fill="#e6e9ed"/>
        <path id="Trazado_819697" data-name="Trazado 819697" d="M41.242,48.476h4.274a12.686,12.686,0,0,0,8.976-3.718l12.44-12.44A4.494,4.494,0,0,1,74.6,35.5v.016a4.473,4.473,0,0,1-1.3,3.162L54.142,58.008l-.35.35a9.462,9.462,0,0,0-2.971,6.005H19a15.7,15.7,0,0,1,1.335-6.355,15.873,15.873,0,0,1,14.553-9.532h6.355Z" transform="translate(10.597 17.661)" fill="#3bafda"/>
        <path id="Trazado_819698" data-name="Trazado 819698" d="M36.121,28A11.121,11.121,0,1,1,25,39.121,10.933,10.933,0,0,1,26.589,33.4,11.086,11.086,0,0,1,36.121,28Z" transform="translate(14.129 15.895)" fill="#f0d0b4"/>
        <g id="Grupo_1072481" data-name="Grupo 1072481" transform="translate(15.298 24.831)">
          <path id="Trazado_819699" data-name="Trazado 819699" d="M32.355,22v9.993A11.062,11.062,0,0,0,26,36.934V22Z" transform="translate(-0.581 -12.468)" fill="#fcd770"/>
          <path id="Trazado_819700" data-name="Trazado 819700" d="M18,16h6.355V41.419H18Z" transform="translate(-5.29 -16)" fill="#fcd770"/>
          <path id="Trazado_819701" data-name="Trazado 819701" d="M10,26h6.355v9.532H10Z" transform="translate(-10 -10.113)" fill="#fcd770"/>
        </g>
        <path id="Trazado_819702" data-name="Trazado 819702" d="M77.306,2V36.952H36V2Z" transform="translate(20.605 0.589)" fill="#ffeaa7"/>
        <path id="Trazado_819703" data-name="Trazado 819703" d="M49,6a11.122,11.122,0,0,1,7.864,18.985L49,17.121Z" transform="translate(28.258 2.944)" fill="#69d6f4"/>
        <path id="Trazado_819704" data-name="Trazado 819704" d="M53.121,13l7.864,7.864A11.122,11.122,0,0,1,42,13Z" transform="translate(24.137 7.065)" fill="#ccd1d9"/>
        <path id="Trazado_819705" data-name="Trazado 819705" d="M53.121,6V17.121H42A11.113,11.113,0,0,1,53.121,6Z" transform="translate(24.137 2.944)" fill="#ff826e"/>
        <path id="Trazado_819706" data-name="Trazado 819706" d="M93.145,77.258V39.129H99.5V1H55.016V16.887H7.355V77.258h21.33a17.321,17.321,0,0,0-.605,3.33,7.953,7.953,0,0,0-6.426,7.791H1V99.5H99.5V88.379H69.315A7.937,7.937,0,0,0,63.3,80.7a8.038,8.038,0,0,1,2.107-3.443ZM31.279,80.435a14.316,14.316,0,0,1,14.2-12.71H56.108a14.2,14.2,0,0,0,10.111-4.188L78.655,51.1a2.879,2.879,0,0,1,2.053-.852,2.913,2.913,0,0,1,2.064,4.962L63.3,74.864a11.1,11.1,0,0,0-3.185,5.572Zm14.2-37.193a12.693,12.693,0,0,0-3.177,1.868V35.952h3.177Zm4.766,2.242a9.532,9.532,0,1,1-9.532,9.532,9.542,9.542,0,0,1,9.532-9.532ZM58.194,4.177H96.323V35.952H58.194Zm-47.661,69.9V20.065H55.016V39.129H89.968V74.081H68.546L85.028,57.448a6.087,6.087,0,0,0-8.622-8.593L63.97,61.292a11.05,11.05,0,0,1-4.89,2.847A12.671,12.671,0,0,0,48.661,42.416V32.774H39.129v16.1a12.676,12.676,0,0,0,3.1,15.987,17.517,17.517,0,0,0-12.292,9.216ZM4.177,96.323V91.556H21.653v4.766Zm92.145-4.766v4.766H69.315V91.556ZM66.137,88.379v7.944H24.831V88.379A4.772,4.772,0,0,1,29.6,83.613H61.371A4.772,4.772,0,0,1,66.137,88.379Z" transform="translate(0)"/>
        <path id="Trazado_819707" data-name="Trazado 819707" d="M18.532,25H9V37.71h9.532Zm-3.177,9.532H12.177V28.177h3.177Z" transform="translate(4.71 14.129)"/>
        <path id="Trazado_819708" data-name="Trazado 819708" d="M26.532,15H17V43.6h9.532ZM23.355,40.419H20.177V18.177h3.177Z" transform="translate(9.419 8.242)"/>
        <path id="Trazado_819709" data-name="Trazado 819709" d="M53.71,5a12.71,12.71,0,1,0,12.71,12.71A12.725,12.725,0,0,0,53.71,5ZM52.121,8.32v7.8h-7.8A9.545,9.545,0,0,1,52.121,8.32ZM44.32,19.3h8.732l6.172,6.172A9.507,9.507,0,0,1,44.32,19.3Zm17.15,3.926L55.3,17.052V8.32a9.507,9.507,0,0,1,6.172,14.9Z" transform="translate(23.548 2.355)"/>
        <path id="Trazado_819710" data-name="Trazado 819710" d="M9,35h3.177v3.177H9Z" transform="translate(4.71 20.016)"/>
        <path id="Trazado_819711" data-name="Trazado 819711" d="M13,35h3.177v3.177H13Z" transform="translate(7.065 20.016)"/>
        <path id="Trazado_819712" data-name="Trazado 819712" d="M17,35h3.177v3.177H17Z" transform="translate(9.419 20.016)"/>
        <path id="Trazado_819713" data-name="Trazado 819713" d="M9,39H24.887v3.177H9Z" transform="translate(4.71 22.371)"/>
        <path id="Trazado_819714" data-name="Trazado 819714" d="M9,43H24.887v3.177H9Z" transform="translate(4.71 24.726)"/>
      </g>
    </g>
  </g>
</svg>
