<svg xmlns="http://www.w3.org/2000/svg" width="295" height="423.668" viewBox="0 0 295 423.668">
  <g id="Grupo_1072551" data-name="Grupo 1072551" transform="translate(-180 -9248)">
    <g id="Grupo_1072542" data-name="Grupo 1072542" transform="translate(0 6)">
      <g id="Grupo_1072197" data-name="Grupo 1072197" transform="translate(180 9242)">
        <rect id="web-AdobeStock_200818697" width="236.756" height="356.079" rx="13" transform="translate(28 38.14)" fill="#dbefed"/>
        <path id="Sustracción_1" data-name="Sustracción 1" d="M116.486,0H0V.365a59.23,59.23,0,0,0,1.183,11.8A58.354,58.354,0,0,0,4.576,23.149a58.561,58.561,0,0,0,5.37,9.944,58.721,58.721,0,0,0,7.112,8.662,58.918,58.918,0,0,0,8.62,7.15A58.294,58.294,0,0,0,35.574,54.3a57.654,57.654,0,0,0,10.934,3.409,58.454,58.454,0,0,0,23.476,0A57.537,57.537,0,0,0,80.914,54.3,58.251,58.251,0,0,0,90.808,48.9a58.906,58.906,0,0,0,8.621-7.15,58.948,58.948,0,0,0,7.111-8.662,58.737,58.737,0,0,0,5.37-9.944A58.36,58.36,0,0,0,115.3,12.163a59.263,59.263,0,0,0,1.183-11.8c0-.12,0-.239,0-.355V0Z" transform="translate(295 423.668) rotate(180)" fill="#8054f8"/>
        <g id="Grupo_1071549" data-name="Grupo 1071549" transform="translate(0 0)">
          <path id="Sustracción_2" data-name="Sustracción 2" d="M103.065,51.473H0V51.15A51.124,51.124,0,0,1,1.048,40.842,50.658,50.658,0,0,1,8.8,22.55,51.551,51.551,0,0,1,41.15,1.039a52.409,52.409,0,0,1,20.769,0,51.456,51.456,0,0,1,18.427,7.7A51.657,51.657,0,0,1,94.266,22.55a50.642,50.642,0,0,1,8.8,28.6c0,.106,0,.211,0,.315v.009Z" transform="translate(51.473 28.737) rotate(90)" fill="#d8dcfc"/>
          <path id="Trazado_818001" data-name="Trazado 818001" d="M325.19,448.2a3.777,3.777,0,0,0,1.11,2.679l3.835,3.834-3.835,3.834a3.79,3.79,0,0,0,5.359,5.359l3.834-3.834,3.834,3.834a3.789,3.789,0,0,0,5.358-5.359l-3.834-3.834,3.834-3.834a3.789,3.789,0,0,0,0-5.358h0a3.789,3.789,0,0,0-5.358,0l-3.834,3.834-3.834-3.834a3.791,3.791,0,0,0-5.359,0h0a3.777,3.777,0,0,0-1.11,2.679Z" transform="translate(-325.19 -444.408)" fill="#8054f8"/>
        </g>
      </g>
    </g>
    <g id="Grupo_1072550" data-name="Grupo 1072550" transform="translate(3787.659 11456)">
      <g id="Grupo_1072545" data-name="Grupo 1072545" transform="translate(-3536.85 -2206)">
        <rect id="Rectángulo_381844" data-name="Rectángulo 381844" width="97" height="124" rx="2" transform="translate(0.191 21)" fill="#50d9d7"/>
        <path id="Trazado_819783" data-name="Trazado 819783" d="M3,9H71.082v9.726H3Z" transform="translate(11.4 25.041)" fill="#fff"/>
        <path id="Trazado_819784" data-name="Trazado 819784" d="M3,13H71.082v9.726H3Z" transform="translate(11.4 40.493)" fill="#fff"/>
        <path id="Trazado_819785" data-name="Trazado 819785" d="M3,17H61.356v9.726H3Z" transform="translate(11.4 55.945)" fill="#fff"/>
        <rect id="Rectángulo_381847" data-name="Rectángulo 381847" width="67" height="28" rx="1" transform="translate(15.191 102)" fill="#93e6e5"/>
        <circle id="Elipse_4831" data-name="Elipse 4831" cx="4.5" cy="4.5" r="4.5" transform="translate(0.191)" fill="#ffac00"/>
      </g>
      <g id="Grupo_1072549" data-name="Grupo 1072549" transform="translate(-3605.659 -1904.062)">
        <rect id="Rectángulo_381844-2" data-name="Rectángulo 381844" width="78" height="101" rx="2" transform="translate(0 16.062)" fill="#50d9d7"/>
        <path id="Trazado_819783-2" data-name="Trazado 819783" d="M3,9H57.753v7.822H3Z" transform="translate(8.762 18.49)" fill="#fff"/>
        <path id="Trazado_819784-2" data-name="Trazado 819784" d="M3,13H57.753v7.822H3Z" transform="translate(8.762 30.133)" fill="#fff"/>
        <path id="Trazado_819785-2" data-name="Trazado 819785" d="M3,17H49.932v7.822H3Z" transform="translate(8.762 41.778)" fill="#fff"/>
        <rect id="Rectángulo_381847-2" data-name="Rectángulo 381847" width="56" height="24" rx="1" transform="translate(10 82.062)" fill="#93e6e5"/>
        <ellipse id="Elipse_4831-2" data-name="Elipse 4831" cx="4" cy="4.5" rx="4" ry="4.5" transform="translate(0 0.062)" fill="#ffac00"/>
      </g>
      <g id="Grupo_1072544" data-name="Grupo 1072544" transform="translate(-3527.607 -2039.626)">
        <rect id="Rectángulo_381846" data-name="Rectángulo 381846" width="98" height="128" rx="2" transform="translate(-0.052 -0.374)" fill="#00bebd"/>
        <path id="Trazado_819786" data-name="Trazado 819786" d="M25,37H93.082v9.726H25Z" transform="translate(-9.226 -11.594)" fill="#fff"/>
        <path id="Trazado_819787" data-name="Trazado 819787" d="M25,41H73.63v9.726H25Z" transform="translate(-9.226 3.858)" fill="#fff"/>
        <path id="Trazado_819788" data-name="Trazado 819788" d="M33,53H62.178v9.726H33Z" transform="translate(21.678 50.214)" fill="#fff"/>
        <path id="Trazado_819789" data-name="Trazado 819789" d="M33,49H62.178v9.726H33Z" transform="translate(21.678 34.762)" fill="#fff"/>
        <rect id="Rectángulo_381848" data-name="Rectángulo 381848" width="30" height="43" rx="1" transform="translate(15.948 69.626)" fill="#50d9d7"/>
        <circle id="Elipse_4832" data-name="Elipse 4832" cx="5" cy="5" r="5" transform="translate(-0.052 136.626)" fill="#ffac00"/>
        <circle id="Elipse_4833" data-name="Elipse 4833" cx="5" cy="5" r="5" transform="translate(20.948 136.626)" fill="#ffac00"/>
      </g>
      <g id="Grupo_1072543" data-name="Grupo 1072543" transform="translate(-3412.583 -1983.141)">
        <rect id="Rectángulo_381845" data-name="Rectángulo 381845" width="97" height="124" rx="2" transform="translate(-0.076 21.141)" fill="#00aaa8"/>
        <path id="Trazado_819790" data-name="Trazado 819790" d="M55,9H84.178v9.726H55Z" transform="translate(-1.168 25.124)" fill="#fff"/>
        <path id="Trazado_819791" data-name="Trazado 819791" d="M55,13H84.178v9.726H55Z" transform="translate(-1.168 40.576)" fill="#fff"/>
        <path id="Trazado_819792" data-name="Trazado 819792" d="M55,17H74.452v9.726H55Z" transform="translate(-1.168 56.028)" fill="#fff"/>
        <path id="Trazado_819793" data-name="Trazado 819793" d="M47,22h68.082v9.726H47Z" transform="translate(-32.072 75.343)" fill="#fff"/>
        <path id="Trazado_819794" data-name="Trazado 819794" d="M47,26H76.178v9.726H47Z" transform="translate(-32.072 90.795)" fill="#fff"/>
        <rect id="Rectángulo_381849" data-name="Rectángulo 381849" width="30" height="47" rx="1" transform="translate(13.924 34.141)" fill="#00bebd"/>
        <ellipse id="Elipse_4834" data-name="Elipse 4834" cx="5" cy="4.5" rx="5" ry="4.5" transform="translate(67.924 0.141)" fill="#ffac00"/>
        <circle id="Elipse_4835" data-name="Elipse 4835" cx="4.5" cy="4.5" r="4.5" transform="translate(49.924 0.141)" fill="#ffac00"/>
        <circle id="Elipse_4836" data-name="Elipse 4836" cx="4.5" cy="4.5" r="4.5" transform="translate(87.924 0.141)" fill="#ffac00"/>
      </g>
      <g id="Grupo_1072546" data-name="Grupo 1072546" transform="translate(-3526.97 -2078.608)">
        <path id="Trazado_819781" data-name="Trazado 819781" d="M68.944,69.944a3.463,3.463,0,0,1-3.463-3.463V42.24A17.314,17.314,0,0,0,48.166,24.926h-27.7a3.463,3.463,0,0,1,0-6.926h27.7a24.24,24.24,0,0,1,24.24,24.24v24.24A3.463,3.463,0,0,1,68.944,69.944Z" transform="translate(-12.252 -14.829)" fill="#ffac00"/>
        <circle id="Elipse_4827" data-name="Elipse 4827" cx="6.657" cy="6.657" r="6.657" transform="translate(0)" fill="#ffac00"/>
        <ellipse id="Elipse_4828" data-name="Elipse 4828" cx="7.17" cy="6.657" rx="7.17" ry="6.657" transform="translate(49.326 45.066)" fill="#ffac00"/>
      </g>
      <g id="Grupo_1072548" data-name="Grupo 1072548" transform="translate(-3439.232 -1994.988)">
        <path id="Trazado_819781-2" data-name="Trazado 819781" d="M68.944,69.944a3.463,3.463,0,0,1-3.463-3.463V42.24A17.314,17.314,0,0,0,48.166,24.926h-27.7a3.463,3.463,0,0,1,0-6.926h27.7a24.24,24.24,0,0,1,24.24,24.24v24.24A3.463,3.463,0,0,1,68.944,69.944Z" transform="translate(-12.252 -14.829)" fill="#ffac00"/>
        <circle id="Elipse_4827-2" data-name="Elipse 4827" cx="6.657" cy="6.657" r="6.657" fill="#ffac00"/>
        <ellipse id="Elipse_4828-2" data-name="Elipse 4828" cx="7.17" cy="6.657" rx="7.17" ry="6.657" transform="translate(49.326 45.066)" fill="#ffac00"/>
      </g>
      <g id="Grupo_1072547" data-name="Grupo 1072547" transform="translate(-3505.013 -1862.981) rotate(180)">
        <path id="Trazado_819782" data-name="Trazado 819782" d="M43.767,72.945H4.863a4.863,4.863,0,1,1,0-9.726h38.9A24.315,24.315,0,0,0,68.082,38.9V4.863a4.863,4.863,0,0,1,9.726,0V38.9A34.041,34.041,0,0,1,43.767,72.945Z" transform="translate(0.727 5.079)" fill="#ffac00"/>
        <ellipse id="Elipse_4829" data-name="Elipse 4829" cx="10.5" cy="9" rx="10.5" ry="9" transform="translate(-0.354 64.019)" fill="#ffac00"/>
        <ellipse id="Elipse_4830" data-name="Elipse 4830" cx="10" cy="9.5" rx="10" ry="9.5" transform="translate(63.646 0.019)" fill="#ffac00"/>
      </g>
    </g>
  </g>
</svg>
