<svg xmlns="http://www.w3.org/2000/svg" xmlns:xlink="http://www.w3.org/1999/xlink" width="505" height="485" viewBox="0 0 505 485">
  <defs>
    <clipPath id="clip-path">
      <rect id="Rectángulo_381820" data-name="Rectángulo 381820" width="317.833" height="423.028" fill="none"/>
    </clipPath>
    <clipPath id="clip-path-2">
      <rect id="Rectángulo_381819" data-name="Rectángulo 381819" width="164.615" height="182.66" fill="none"/>
    </clipPath>
    <clipPath id="clip-path-3">
      <rect id="Rectángulo_381818" data-name="Rectángulo 381818" width="306.635" height="316.145" fill="none"/>
    </clipPath>
  </defs>
  <g id="Grupo_1072439" data-name="Grupo 1072439" transform="translate(-915 -4730)">
    <g id="Grupo_1072438" data-name="Grupo 1072438">
      <g id="Grupo_1072177" data-name="Grupo 1072177" transform="translate(915.714 4730)">
        <rect id="web-AdobeStock_200818697" width="364.714" height="353.958" rx="13" transform="translate(-0.714)" fill="#d8dcfc"/>
        <g id="Grupo_1071549" data-name="Grupo 1071549" transform="translate(452.813 0)">
          <path id="Sustracción_2" data-name="Sustracción 2" d="M103.065,0H0V.323A51.124,51.124,0,0,0,1.048,10.631a50.569,50.569,0,0,0,3,9.6A50.975,50.975,0,0,0,8.8,28.923a51.539,51.539,0,0,0,6.294,7.569,51.823,51.823,0,0,0,7.627,6.245,51.5,51.5,0,0,0,8.753,4.716,51.518,51.518,0,0,0,9.676,2.981,52.155,52.155,0,0,0,10.384,1.039,52.124,52.124,0,0,0,10.386-1.039,51.324,51.324,0,0,0,9.675-2.981,51.578,51.578,0,0,0,8.753-4.716,51.843,51.843,0,0,0,7.626-6.245,51.66,51.66,0,0,0,6.294-7.569,50.832,50.832,0,0,0,4.749-8.689,50.583,50.583,0,0,0,3.007-9.6A51.157,51.157,0,0,0,103.068.323c0-.106,0-.211,0-.315V0Z" transform="translate(51.473 28.737) rotate(90)" fill="#98d1ca"/>
          <path id="Trazado_818001" data-name="Trazado 818001" d="M345.794,448.2a3.777,3.777,0,0,1-1.11,2.679l-3.835,3.834,3.835,3.834a3.79,3.79,0,0,1-5.359,5.359l-3.834-3.834-3.834,3.834a3.789,3.789,0,0,1-5.358-5.359l3.834-3.834-3.834-3.834a3.789,3.789,0,0,1,0-5.358h0a3.789,3.789,0,0,1,5.358,0l3.834,3.834,3.834-3.834a3.791,3.791,0,0,1,5.359,0h0a3.777,3.777,0,0,1,1.11,2.679Z" transform="translate(-294.321 -444.408)" fill="#8054f8"/>
        </g>
      </g>
      <path id="Rectángulo_381822" data-name="Rectángulo 381822" d="M0,0H104a0,0,0,0,1,0,0V60a52,52,0,0,1-52,52h0A52,52,0,0,1,0,60V0A0,0,0,0,1,0,0Z" transform="translate(959 4730)" fill="#d3c3fd"/>
      <g id="Grupo_1072434" data-name="Grupo 1072434" transform="translate(1078 4744.617)">
        <g id="Grupo_1072433" data-name="Grupo 1072433" clip-path="url(#clip-path)">
          <path id="Trazado_819420" data-name="Trazado 819420" d="M246.147,169.116c3.529,5.193,8.9,8.545,3.865,13.3-5.622,5.3-21.1,21.386-21.1,21.386l13.911,30.528s21.809-22.014,33.231-34.266,17.589-24.871,10.113-37.956-40.017,7.011-40.017,7.011" transform="translate(27.897 19.216)" fill="#f2ac30"/>
          <path id="Trazado_819421" data-name="Trazado 819421" d="M245.723,169.48c1.507,2.128,3.3,4.036,4.769,6.187,2.006,2.936.512,5.149-1.73,7.3-2.716,2.613-5.355,5.3-8,7.985q-6.132,6.225-12.191,12.529a.578.578,0,0,0-.087.679q6.957,15.263,13.911,30.529a.565.565,0,0,0,.881.114q8.392-8.475,16.7-17.021,6.519-6.7,12.963-13.46c4.879-5.14,9.659-10.334,13.158-16.545a27.3,27.3,0,0,0,3.515-18.276c-.77-4.307-2.811-9.35-7.024-11.277-7.119-3.258-16.769.828-23.346,3.638a101.629,101.629,0,0,0-13.323,6.848c-.616.378-.053,1.35.565.968a100.711,100.711,0,0,1,16.807-8.256,41.292,41.292,0,0,1,13.4-3.1c5.485-.154,8.526,2.418,10.6,7.341,6.479,15.357-6.9,29.2-16.6,39.39-7.985,8.387-16.094,16.66-24.221,24.907q-2,2.028-4,4.049c.294.038.588.075.881.114L229.5,203.7c-.165-.361-.358.813-.02.462.218-.225.434-.451.653-.676q1.541-1.6,3.086-3.191,4.852-5.01,9.748-9.972,2.381-2.411,4.788-4.8c1.285-1.269,3.093-2.572,4.014-4.133,2.824-4.781-2.551-8.907-5.078-12.476-.414-.584-1.387-.026-.968.567" transform="translate(27.837 19.136)" fill="#f2ac30"/>
          <path id="Trazado_819422" data-name="Trazado 819422" d="M163.444,254.209c-.668,9.124-8.8,95.326-13.4,143.835H200.7l13.839-118.6,11.375,118.6h57.841c-4.141-40.907-10.833-106.261-12.52-118.29-2.494-17.758-5.92-49.118-20.872-74.661-10.281-1.558-92.832,17.654-92.832,17.654,1.869,5.6,6.853,18.69,5.918,31.463" transform="translate(18.286 24.983)" fill="#356db4"/>
          <path id="Trazado_819423" data-name="Trazado 819423" d="M154.467,346.033q-2.452,26.038-4.927,52.074h1.118q3.425-36.116,6.825-72.235c2.24-23.85,4.82-47.707,6.584-71.6.659-10.77-2.378-20.969-5.752-31.053q17.089-3.97,34.246-7.635c17.073-3.671,34.333-7.74,51.715-9.646,1.455-.159,5.336-1.056,6.137.326a123.157,123.157,0,0,1,9.833,22.284c4.517,13.333,7.083,27.239,9.082,41.143,2.059,14.324,3.594,28.7,5.125,43.091q4.538,42.649,8.8,85.325h1.122q-4.109-40.673-8.38-81.328c-1.46-13.8-2.87-27.6-4.749-41.345-1.808-13.226-3.912-26.4-7.491-39.275a148.047,148.047,0,0,0-7.621-21.149,112.1,112.1,0,0,0-5.235-10.138c-.3-.515-1.54-.363-2.037-.366-6.009-.025-12.155,1.3-18.047,2.316-9.243,1.6-18.442,3.46-27.626,5.368q-22.109,4.6-44.111,9.7l-1.645.381a.562.562,0,0,0-.392.69c3.419,10.171,6.563,20.439,5.9,31.314-2.261,30.621-5.6,61.195-8.479,91.761" transform="translate(18.224 24.92)" fill="#32015c"/>
          <path id="Trazado_819424" data-name="Trazado 819424" d="M209.655,271.413a.561.561,0,0,0-1.122,0q-4.34,37.193-8.679,74.385-2.581,22.109-5.159,44.218h1.121q2.645-22.666,5.29-45.329,3.968-34,7.934-68,3.329,34.694,6.655,69.389l4.214,43.938h1.123q-2.188-22.805-4.375-45.61-3.5-36.5-7-72.994" transform="translate(23.727 33.011)" fill="#32015c"/>
          <path id="Trazado_819425" data-name="Trazado 819425" d="M34.177,115.127c-1.244-3.737-6.435-18.485-6.435-18.485S12.579,87.091,5.935,83.353-3.619,66.739,7.18,63.623c2.908-5.4,7.35-5.872,9.843-4.419,1.659-12.253,7.859-13.729,14.712-11.444S42.761,55.93,46.914,65.275s5.125,14.337,8.654,23.683,6.23,16.41,6.23,16.41-8.1,17.029-27.622,9.759" transform="translate(0 5.711)" fill="#ffd4d4"/>
          <path id="Trazado_819426" data-name="Trazado 819426" d="M38.517,81.748A16.614,16.614,0,1,1,21.9,65.135,16.614,16.614,0,0,1,38.517,81.748" transform="translate(0.644 7.938)" fill="#d4336e"/>
          <path id="Trazado_819427" data-name="Trazado 819427" d="M3.072,80.956C5.41,83.6,9.3,82.2,8.68,76.44c3.893-.314,4.671-5.764,8.255-10.594,1.558,6.232,4.363,7.009,6.387,6.074s3.738-2.18,3.892-7.943,1.871-7.32,4.363-6.542,4.674,6.542,7.787,13.707S42.79,83.915,38.271,85s-8.564,2.8-11.212,7.633.467,9.5,8.724,5.92,10.745-9.347,10.745-9.347-.156-14.484-4.983-26.32-15.734-9.347-15.734-9.347L12.885,63.2,2.605,74.258" transform="translate(0.317 6.498)" fill="#ffd4d4"/>
          <path id="Trazado_819428" data-name="Trazado 819428" d="M172.071,71.063c6.021.519,12.359-6.231,10.9-14.33s-14.228,4.256-14.228,4.256Z" transform="translate(20.565 6.579)" fill="#495edb"/>
          <path id="Trazado_819429" data-name="Trazado 819429" d="M172.132,71.69c4.588.2,8.3-2.791,10.335-6.716,1.292-2.491,2.781-9.168-.432-11-4.284-2.442-10.817,3.986-13.623,6.685a.555.555,0,0,0-.145.545q1.663,5.037,3.324,10.073c.225.683,1.309.392,1.081-.3q-1.417-4.3-2.836-8.595-.222-.671-.442-1.341c.038.116-.395.6.2.043.956-.887,1.957-1.727,2.977-2.538,1.877-1.491,7.668-6.159,9.582-2.754,1.614,2.872.14,7.367-1.387,9.924a9.77,9.77,0,0,1-8.634,4.849c-.722-.031-.721,1.09,0,1.122" transform="translate(20.504 6.512)" fill="#495edb"/>
          <path id="Trazado_819430" data-name="Trazado 819430" d="M116.842,40.434c-1.246,7.89-2.7,14.694,4.361,27.361s9.553,28.608,32.812,25.387a80.692,80.692,0,0,1,2.91,10.593l30.526-6.645-9.761-29.7c12.981-3.838,12.768-12,10.483-17.4s-22.527-26.835-29.8-28.7-34.057-.415-41.533,19.105" transform="translate(14.113 2.525)" fill="#ffd4d4"/>
          <path id="Trazado_819431" data-name="Trazado 819431" d="M148.666,59.757c1.915-2.139-1.582-6.748-3.607-4.8s2.036,6.562,3.607,4.8" transform="translate(17.611 6.64)"/>
          <path id="Trazado_819432" data-name="Trazado 819432" d="M129.646,62.257c1.913-2.143-1.584-6.748-3.611-4.8s2.041,6.562,3.611,4.8" transform="translate(15.292 6.945)"/>
          <path id="Trazado_819433" data-name="Trazado 819433" d="M139.362,73.049a12.114,12.114,0,0,1-5.877-1.627c-2.712-1.808-2.445-4.407-1.83-6.713,1.319-5.7-1.355-10.7-7.34-13.682a.561.561,0,1,1,.5-1c6.391,3.189,9.355,8.781,7.928,14.957-.645,2.418-.646,4.17,1.319,5.484a10.993,10.993,0,0,0,5.3,1.463.561.561,0,0,1,0,1.122" transform="translate(15.112 6.089)"/>
          <path id="Trazado_819434" data-name="Trazado 819434" d="M138.82,75.281a.561.561,0,0,1-.13-1.106,20.45,20.45,0,0,0,11.54-7.4.561.561,0,0,1,.859.722,21.49,21.49,0,0,1-12.139,7.766.523.523,0,0,1-.13.016" transform="translate(16.849 8.114)"/>
          <path id="Trazado_819435" data-name="Trazado 819435" d="M150.2,88.275a.561.561,0,0,1-.2-1.084,27.161,27.161,0,0,0,9.665-6.615l.471-.536a24.705,24.705,0,0,0,3.485-4.631,45.131,45.131,0,0,0,2.46-5.54,16.433,16.433,0,0,0,1.318-5.415.561.561,0,1,1,1.122,0,17.374,17.374,0,0,1-1.388,5.806,46.213,46.213,0,0,1-2.521,5.673,25.567,25.567,0,0,1-3.635,4.85l-.488.553a28.3,28.3,0,0,1-10.083,6.9.561.561,0,0,1-.2.038" transform="translate(18.237 7.787)"/>
          <path id="Trazado_819436" data-name="Trazado 819436" d="M140.347,50.136c-.83-2.7,2.386-4.467,6.957-2.6s5.467,3.958,4.05,3.634c-8.2-1.868-10.487.1-11.007-1.038" transform="translate(17.088 5.699)" fill="#495edb"/>
          <path id="Trazado_819437" data-name="Trazado 819437" d="M140.944,50.048c-.918-3.922,5.1-2.409,6.86-1.65A11.4,11.4,0,0,1,151,50.389c.077.083.156.165.234.248q.252.705.325.057c-.788-.119-1.573-.328-2.36-.464a26.7,26.7,0,0,0-5.625-.379c-.378.013-2.473.442-2.686.063a.561.561,0,0,0-.968.567c.72,1.285,3.363.49,4.485.468a41.928,41.928,0,0,1,7.071.859.891.891,0,0,0,1.111-.8c0-.853-.938-1.605-1.547-2.042a14.714,14.714,0,0,0-6.212-2.625c-2.645-.414-5.683.942-4.965,4.011.166.7,1.246.406,1.083-.3" transform="translate(17.032 5.638)" fill="#495edb"/>
          <path id="Trazado_819438" data-name="Trazado 819438" d="M126.823,50.983c-2.91-1.66-6.751-2.595-8-.935s-.208,3.635,1.039,3.531,6.023-.935,7.892-.727c1.037,0,0-1.141-.936-1.869" transform="translate(14.413 5.993)" fill="#495edb"/>
          <path id="Trazado_819439" data-name="Trazado 819439" d="M127.167,50.57c-2.015-1.1-5.428-2.746-7.739-1.557-1.688.869-2.543,4.12-.357,5.011a5.479,5.479,0,0,0,2.787-.058c1.536-.211,3.073-.413,4.622-.5.777-.044,1.785.273,2.255-.5.491-.81-1-1.928-1.454-2.305-.553-.459-1.352.33-.793.793.274.228,1.419.9.724.88a17.11,17.11,0,0,0-1.991.105c-1.351.118-2.7.316-4.039.5-.417.057-.835.112-1.254.154q-1.287-.21-.988-1.805c.157-1.107,1.057-1.381,1.93-1.469,1.942-.194,4.086.821,5.733,1.722.634.348,1.2-.62.565-.968" transform="translate(14.352 5.923)" fill="#495edb"/>
          <path id="Trazado_819440" data-name="Trazado 819440" d="M163.563,30.643c-1.455,7.477.414,22.324,7.683,30.113s6.231-6.127,5.4-8.411c4.152-4.775,12.021-5.669,15.035,2.016.936,3.112-.681,8.885-.681,8.885,5.423-2.056,8.076-9.862,6.1-14.224s-2.7-12.877-2.18-19.524-6.129-21.7-24.508-16.925c-5.2-9.046-10.555-10.758-19.964-9.349C141.9,4.5,132.341-1.287,125.176,1.1c-4.737,1.58-7.511,6.7-.346,13.862-11.112-3.115-21.079-2.7-25.44,8.307s1.242,25.232,18.587,25.544a36.494,36.494,0,0,1,1.5-6.983c1.35,8.1,8.152,8.228,14.486,3.348a61.651,61.651,0,0,0,11.32-12.149c-2.494,6.75-.313,7.58,4.568,7.062s10.489-8.1,13.708-9.451" transform="translate(11.94 0.063)" fill="#495edb"/>
          <path id="Trazado_819441" data-name="Trazado 819441" d="M163.08,30.557c-1.327,7.34-.02,15.361,2.686,22.242.832,2.117,6.731,14.093,10.55,10.4,1.388-1.344,1.481-3.6,1.531-5.411a23.732,23.732,0,0,0-.188-3.422c-.146-1.234-.556-1.611.32-2.463,3.232-3.14,8.3-3.561,11.492-.231,2.947,3.073,2.062,7.78,1.047,11.489a.567.567,0,0,0,.823.634c4.6-1.967,7.109-7.022,7.02-11.876-.044-2.39-1.363-4.639-1.9-6.938a50.7,50.7,0,0,1-1.069-11.968c.029-4.1.209-7.293-1.474-11.136a18.317,18.317,0,0,0-8.176-8.766A16.872,16.872,0,0,0,179.6,11.3a25.678,25.678,0,0,0-4.266-.063c-.867.056-4.4,1.087-4.825.363-2.617-4.439-6.266-8.024-11.449-9.028a24.812,24.812,0,0,0-7.757.046,34.375,34.375,0,0,1-12.052-.947c-5.272-1.176-11.719-3.168-16.607.188-5.336,3.665-1.489,10.1,1.845,13.568l.545-.938c-5.69-1.556-12.514-2.883-18.117-.265-5.3,2.477-8.5,7.95-9.242,13.646a19.141,19.141,0,0,0,3.882,14.557c3.931,4.972,10.391,6.822,16.477,7.014a.574.574,0,0,0,.561-.561,35.776,35.776,0,0,1,1.483-6.834H119c1.337,6.816,6.836,8.41,12.678,5.409,5.727-2.94,10.539-8.846,14.152-14.075l-1.025-.432c-.693,1.968-1.706,4.569-.53,6.555.945,1.593,3.494,1.384,5.018,1.277,6.326-.451,9.359-7.076,14.611-9.587.653-.311.084-1.279-.565-.968-3.894,1.861-6.615,5.808-10.251,8.126a9.334,9.334,0,0,1-6.675,1.237c-2.824-.538-1.1-4.705-.526-6.341.223-.635-.685-.927-1.025-.433a58.9,58.9,0,0,1-9.8,10.872c-2.467,2.143-5.388,4.02-8.724,4.274-3.784.289-5.625-2.973-6.26-6.211-.114-.581-.92-.489-1.083,0a37.3,37.3,0,0,0-1.522,7.132c.187-.186.374-.374.561-.561-5.781-.183-11.314-1.87-15.3-6.233a17.477,17.477,0,0,1-4.07-13.057c.387-5.479,3.31-10.972,8.242-13.567,5.382-2.832,12.3-1.406,17.829.108a.565.565,0,0,0,.546-.937c-3.769-3.922-6.708-10.437.1-12.925,5.571-2.037,12.443.987,17.989,1.927,5.183.88,10.236-.772,15.392.017,5.275.808,8.664,4.927,11.224,9.27a.569.569,0,0,0,.634.257c6.151-1.509,12.582-1.214,17.636,2.954A17.854,17.854,0,0,1,194.373,27.5c.328,2.689-.148,5.5-.091,8.21a49.83,49.83,0,0,0,1.265,10.318c.76,3.219,2.108,5.507,1.4,8.951a10.884,10.884,0,0,1-6.174,7.852l.825.633c1.317-4.812,1.8-9.862-2.258-13.469-3.979-3.535-9.847-1.442-13.034,2.022a.564.564,0,0,0-.145.545,17.043,17.043,0,0,1,.408,7.278c-.789,5.724-5.406.2-7.009-2.136-5.007-7.3-6.969-18.168-5.4-26.843.127-.708-.954-1.01-1.083-.3" transform="translate(11.882 0)" fill="#495edb"/>
          <path id="Trazado_819442" data-name="Trazado 819442" d="M117.477,41.039a.561.561,0,0,1-.555-.488l-.1-.716a15.61,15.61,0,0,1-.212-4.206,15.035,15.035,0,0,1,3.451-7.245,13.732,13.732,0,0,1,2.81-2.8.561.561,0,1,1,.642.92,12.793,12.793,0,0,0-2.585,2.59,13.932,13.932,0,0,0-3.207,6.7,14.8,14.8,0,0,0,.212,3.888l.1.726a.562.562,0,0,1-.484.629.547.547,0,0,1-.074,0" transform="translate(14.202 3.106)"/>
          <path id="Trazado_819443" data-name="Trazado 819443" d="M169.261,54.37a.572.572,0,0,1-.086-.007.544.544,0,0,1-.464-.626,11,11,0,0,0,.2-1.776,7.486,7.486,0,0,0-.194-1.536c-.191-.855-.406-1.821-.714-2.754a19.387,19.387,0,0,0-1.715-3.942.561.561,0,1,1,.968-.565,20.5,20.5,0,0,1,1.815,4.167,29.066,29.066,0,0,1,.739,2.848,8.574,8.574,0,0,1,.221,1.783,11.756,11.756,0,0,1-.209,1.921.584.584,0,0,1-.562.488" transform="translate(20.256 5.226)"/>
          <path id="Trazado_819444" data-name="Trazado 819444" d="M29.538,109.611c6.543,1.869,20.872-1.557,28.038-11.525,4.986,11.214,21.807,48.907,23.051,50.776s16.511-9.346,33.957-23.365,28.036-18.065,38.627-16.819,15.577-.312,14.641-6.231-2.18-10.9-2.18-10.9,12.148,4.983,31.151-6.231c4.05,11.839,3.738,14.019,5.3,15.887.876,1.051,5.687-.358,12.4-1.511a54.928,54.928,0,0,1,16.57-.668c13.393,1.868,41.017,31.382,54.1,43.613,15.991,14.952,34.526,31.15,25.544,49.221-6.27,12.61-28.863,3.736-28.863,3.736S280,189.982,270.03,180.015s-26.791-27.1-26.791-27.1,19.729,59.4,23.467,68.432c-19.937,16.821-78.384,25.345-94.226,18.143C167.3,223.93,149.784,170.046,142,155.4c-23.675,16.511-40.185,32.4-54.2,37.382S61.314,202.753,48.853,168.8c-7.135-19.442-19.315-59.188-19.315-59.188" transform="translate(3.6 10.397)" fill="#283859"/>
          <path id="Trazado_819445" data-name="Trazado 819445" d="M29.451,110.212c10.235,2.68,22.667-3.716,28.672-11.783h-.969c7.31,16.442,14.4,33.031,22.249,49.225.7,1.455,1.107,2.391,2.9,1.8,4.145-1.357,7.992-4.631,11.477-7.128,12.9-9.251,24.568-20.677,38.573-28.274a39.442,39.442,0,0,1,14.508-4.83c5.056-.54,10.058.832,15.122.329,3.051-.3,6.079-1.6,6.552-4.933.325-2.308-.516-4.9-.947-7.14-.389-2.017-.821-4.031-1.314-6.026l-.69.69a22.359,22.359,0,0,0,8.6,1.11c8.162-.168,16.017-3.359,22.985-7.4l-.823-.335c1.585,4.669,2.667,9.534,4.336,14.165.9,2.5,2.32,2.659,4.824,2.319,6.972-.949,13.635-2.761,20.743-2.728,5.437.026,9.672,1.617,14.233,4.429,10.214,6.295,19.067,14.97,27.689,23.228,8.785,8.414,17.634,16.79,26.344,25.281,10.068,9.815,22.72,23.554,16.165,38.643-4.252,9.783-17.3,7.7-25.523,5.278q-1.447-.424-2.862-.947c-.532-.2.249.5.139.206-.121-.326-.268-.643-.416-.958-1.925-4.095-5.013-7.711-8-11.055-8.277-9.264-17.516-17.793-26.23-26.651q-2.046-2.078-4.088-4.159a.565.565,0,0,0-.938.546q6.649,20.017,13.437,39.987c2.722,8,5.438,16,8.322,23.94.407,1.121.82,2.238,1.249,3.349.171.442.374.8.233.92a39.106,39.106,0,0,1-3.157,2.312,72.046,72.046,0,0,1-13.591,6.849,161.892,161.892,0,0,1-33.737,8.878c-10.5,1.716-21.327,2.75-31.963,1.949a50.265,50.265,0,0,1-5.888-.788c-.7-.138-4.43-.665-4.685-1.433q-1.774-5.318-3.528-10.644c-3.482-10.5-7-20.98-10.634-31.426-2.86-8.228-5.787-16.434-8.9-24.571a157.673,157.673,0,0,0-7.375-17.261.56.56,0,0,0-.767-.2c-12.928,9.046-25.028,19.2-37.928,28.274-7.824,5.505-16.283,9.951-25.678,12.037-9.132,2.027-15.868-2.524-20.825-9.992-6.986-10.521-10.437-23.529-14.376-35.429q-6.652-20.094-12.827-40.348c-.21-.689-1.295-.395-1.081.3,5.369,17.514,10.873,35,16.87,52.313,3.68,10.622,7.5,22.955,16.258,30.59,5.423,4.726,12.1,4.879,18.726,3.035,9.123-2.544,17.076-6.97,24.771-12.433,12.439-8.828,24.153-18.628,36.657-27.377l-.767-.2c4.174,7.921,7.152,16.542,10.233,24.928,4.062,11.05,7.882,22.191,11.645,33.345,2.848,8.443,5.633,16.908,8.445,25.361.673,2.024,6.33,2.405,8.1,2.66a81.166,81.166,0,0,0,13.091.6,176.007,176.007,0,0,0,40.889-6.05c11.5-3.019,23.9-7.075,33.187-14.8a.545.545,0,0,0,.145-.546c-5.032-12.25-8.9-25.066-13.136-37.605q-5.2-15.4-10.331-30.827l-.938.545q9.521,9.7,19.084,19.357c4.758,4.8,9.721,9.452,14.008,14.688,2.013,2.461,4.3,5.328,5.389,8.375.4,1.124,4.1,1.622,5.021,1.869a40.367,40.367,0,0,0,12.639,1.536c4.15-.221,8.222-1.647,10.918-4.923,3.377-4.1,4.162-10.26,3.478-15.346-.837-6.215-4.447-11.816-8.2-16.665-4.743-6.13-10.5-11.459-16.141-16.737-8.459-7.909-16.608-16.137-25.066-24.046-8.04-7.52-16.5-15.508-26.336-20.652-10.57-5.531-22.261-1.033-33.279.2-2.347.263-2.652-1.442-3.2-3.366-1.194-4.171-2.4-8.32-3.791-12.43a.568.568,0,0,0-.823-.335c-6.875,3.984-14.4,6.948-22.419,7.244a20.8,20.8,0,0,1-8.3-1.069c-.418-.168-.782.314-.69.689.495,2,.914,4.011,1.315,6.027.552,2.781,2.073,6.822-.3,9.134-1.853,1.8-5.354,1.678-7.713,1.656-2.993-.028-5.944-.592-8.937-.6-11.591-.048-22.1,7.131-30.971,13.809-11.432,8.606-22.17,18.875-34.8,25.774-.445.243-2.424,1.438-2.746.863-.475-.849-.875-1.747-1.291-2.626-1.691-3.56-3.316-7.152-4.946-10.74Q66.367,116.5,58.122,97.863c-.19-.427-.748-.3-.969,0-5.693,7.651-17.694,13.811-27.4,11.268a.561.561,0,0,0-.3,1.081" transform="translate(3.538 10.336)" fill="#283859"/>
          <path id="Trazado_819446" data-name="Trazado 819446" d="M30.609,99.941a5.109,5.109,0,0,1-3.932-1.5c-1.415-1.552-1.452-4.048-.1-6.515,2.839-5.176,7.238-6.859,11.572-7.907a3.479,3.479,0,0,0,2.466-1.862c1.076-2.16.45-6.149-1.758-11.231-2.782-6.4-5.186-11.932-7.482-12.648a2.427,2.427,0,0,0-2.192.053c-.851.607-1.322,2.364-1.4,5.222-.16,6.068-2.086,7.454-4.216,8.436a3.7,3.7,0,0,1-3.237.019c-1.539-.738-2.75-2.52-3.608-5.305a42.05,42.05,0,0,0-2.276,4.036c-1.438,2.8-2.694,5.236-5.152,5.741.175,2.79-.7,4.87-2.4,5.618a3.651,3.651,0,0,1-4.232-1.212.561.561,0,0,1,.841-.743,2.571,2.571,0,0,0,2.937.929c1.032-.455,2.017-2.01,1.693-5.014a.562.562,0,0,1,.513-.619c2.211-.177,3.356-2.4,4.8-5.213a35.992,35.992,0,0,1,3.046-5.155.555.555,0,0,1,.56-.215.563.563,0,0,1,.435.414c.969,3.881,2.344,5.256,3.326,5.726a2.619,2.619,0,0,0,2.28-.026c1.932-.892,3.423-2.006,3.565-7.448.092-3.32.685-5.259,1.869-6.105a3.543,3.543,0,0,1,3.178-.211c2.661.828,4.737,5.351,8.178,13.273,1.658,3.814,3.3,9.023,1.731,12.178a4.586,4.586,0,0,1-3.205,2.451c-4.082.988-8.223,2.562-10.852,7.357-1.115,2.033-1.135,4.033-.055,5.219,1.4,1.532,4.412,1.5,8.063-.083C43.5,94.16,46,88.6,46.024,88.547a.561.561,0,0,1,1.029.447c-.105.243-2.676,6.009-11.037,9.638a13.949,13.949,0,0,1-5.406,1.31" transform="translate(0.307 6.938)"/>
          <path id="Trazado_819447" data-name="Trazado 819447" d="M39.176,123.256a13.963,13.963,0,0,1-5.347-1,.561.561,0,0,1,.425-1.039c2.857,1.17,6.256,1.213,10.394.135,3.477-.872,7.93-2.3,11.6-5.636.212-.214.463-.447.722-.687A10.147,10.147,0,0,0,59.1,112.59a.56.56,0,1,1,.979.545,11.145,11.145,0,0,1-2.342,2.721c-.248.229-.489.452-.711.675-3.876,3.524-8.5,5.009-12.1,5.911a22.865,22.865,0,0,1-5.751.813" transform="translate(4.08 13.686)"/>
          <path id="Trazado_819448" data-name="Trazado 819448" d="M39.548,123.516a.562.562,0,0,1-.527-.368c-.344-.943-.67-1.9-1-2.875-.464-1.366-.943-2.78-1.489-4.174-.581-1.447-1.241-3.092-1.776-4.7-.139-.418-.316-.826-.491-1.228a8.16,8.16,0,0,1-.782-2.534.561.561,0,1,1,1.117-.094,7.3,7.3,0,0,0,.694,2.182c.187.433.376.871.526,1.32.525,1.575,1.178,3.2,1.753,4.641.556,1.423,1.04,2.848,1.508,4.227.328.963.651,1.915.993,2.85a.563.563,0,0,1-.334.72.583.583,0,0,1-.193.034" transform="translate(4.08 13.043)"/>
          <path id="Trazado_819449" data-name="Trazado 819449" d="M44.694,122.879a.56.56,0,0,1-.476-.264,11.438,11.438,0,0,1-.939-2.148c-.114-.319-.23-.639-.355-.951-.219-.655-.452-1.277-.685-1.9s-.468-1.246-.676-1.87c-.445-1.252-1.016-2.63-1.741-4.2-.323-.755-.589-1.527-.846-2.272s-.515-1.494-.82-2.206a.561.561,0,1,1,1.03-.444c.323.749.591,1.529.851,2.284.25.727.509,1.478.81,2.182.733,1.586,1.315,2.994,1.776,4.29.209.62.438,1.23.665,1.84.239.636.478,1.272.689,1.909.119.292.238.625.358.957a10.434,10.434,0,0,0,.835,1.933.562.562,0,0,1-.178.773.553.553,0,0,1-.3.085" transform="translate(4.644 12.953)"/>
          <path id="Trazado_819450" data-name="Trazado 819450" d="M51.021,120.845a.56.56,0,0,1-.544-.424,12.674,12.674,0,0,0-.63-1.69c-.141-.331-.278-.654-.389-.951-.258-.617-.5-1.253-.735-1.889-.229-.61-.458-1.221-.711-1.832l-.059-.145C46.747,111,45.5,108,44.174,105.04a.561.561,0,0,1,1.024-.46c1.333,2.971,2.581,5.987,3.789,8.905l.061.144c.259.623.493,1.245.726,1.868s.467,1.246.727,1.87c.113.3.245.61.378.926a13.576,13.576,0,0,1,.687,1.854.562.562,0,0,1-.544.7" transform="translate(5.377 12.705)"/>
          <path id="Trazado_819451" data-name="Trazado 819451" d="M53.9,114.19a.559.559,0,0,1-.5-.309,9.808,9.808,0,0,1-.447-1.11,9.5,9.5,0,0,0-.385-.97l-1.59-3.857a28.435,28.435,0,0,1-1.246-2.964c-.074-.171-.194-.4-.319-.645a6.278,6.278,0,0,1-.744-1.954.561.561,0,0,1,1.113-.141,5.525,5.525,0,0,0,.629,1.583c.138.268.269.525.369.761a28.366,28.366,0,0,0,1.214,2.889l.339.733,1.256,3.138a9.548,9.548,0,0,1,.42,1.052,8.728,8.728,0,0,0,.39.982.561.561,0,0,1-.248.754.567.567,0,0,1-.252.059" transform="translate(5.93 12.4)"/>
          <path id="Trazado_819452" data-name="Trazado 819452" d="M158.857,107.24a.559.559,0,0,1-.556-.506,15.747,15.747,0,0,0-.7-3.1c-.114-.481-.2-.912-.292-1.34a22.6,22.6,0,0,0-.644-2.6c-.508-1.322-.927-2.68-1.332-3.994-.184-.665-.315-1.243-.447-1.819s-.257-1.13-.411-1.694a.561.561,0,0,1,1.083-.3c.157.58.289,1.161.423,1.741.127.561.254,1.123.407,1.685.416,1.347.828,2.688,1.332,4a23.948,23.948,0,0,1,.688,2.756c.086.42.173.841.271,1.263a16.106,16.106,0,0,1,.736,3.289.561.561,0,0,1-.5.614l-.057,0" transform="translate(18.823 11.148)"/>
          <path id="Trazado_819453" data-name="Trazado 819453" d="M163.858,108.278a.561.561,0,0,1-.561-.561,3.47,3.47,0,0,0-.192-.942c-.038-.131-.075-.257-.105-.375a13.4,13.4,0,0,0-.5-1.932c-.348-1.6-.8-3.122-1.148-4.271-.218-.812-.4-1.605-.588-2.4-.177-.765-.356-1.53-.56-2.3-.077-.384-.185-.745-.294-1.114a8.314,8.314,0,0,1-.452-2.351.561.561,0,1,1,1.122,0,7.473,7.473,0,0,0,.406,2.033c.119.4.234.8.311,1.178.2.743.379,1.519.561,2.294s.363,1.563.573,2.345c.352,1.15.808,2.7,1.15,4.284a13.856,13.856,0,0,1,.522,2c.017.058.049.167.083.282a4.422,4.422,0,0,1,.238,1.262.561.561,0,0,1-.561.561" transform="translate(19.432 11.148)"/>
          <path id="Trazado_819454" data-name="Trazado 819454" d="M169.525,107.146a.562.562,0,0,1-.533-.384c-.053-.16-.105-.346-.158-.533s-.1-.353-.153-.506a7.976,7.976,0,0,1-.434-1.522,24.257,24.257,0,0,0-.589-2.451c-.118-.421-.233-.84-.339-1.26l-.385-1.435c-.714-2.661-1.389-5.175-2.006-7.814a.562.562,0,0,1,1.094-.256c.613,2.622,1.283,5.127,2,7.779l.388,1.445c.1.418.218.83.332,1.24a24.714,24.714,0,0,1,.613,2.552,6.956,6.956,0,0,0,.383,1.335c.068.2.123.392.178.586.049.171.1.34.146.486a.561.561,0,0,1-.533.738" transform="translate(20.098 11.035)"/>
          <path id="Trazado_819455" data-name="Trazado 819455" d="M175.031,104.856a.562.562,0,0,1-.535-.392c-.76-2.391-1.4-4.77-1.979-6.985l-.294-.963c-.321-1.058-.652-2.154-1.044-3.247-.177-.491-.32-1.02-.462-1.555a13.453,13.453,0,0,0-.661-2.038.561.561,0,1,1,1.023-.462,14.216,14.216,0,0,1,.721,2.211c.135.5.266,1,.434,1.463.4,1.122.738,2.231,1.062,3.3l.3.979c.582,2.224,1.218,4.586,1.971,6.953a.561.561,0,0,1-.366.7.55.55,0,0,1-.169.026" transform="translate(20.718 10.832)"/>
          <path id="Trazado_819456" data-name="Trazado 819456" d="M162.136,109.279a11.606,11.606,0,0,1-2.123-.183,23.478,23.478,0,0,1-2.817-.657,18.788,18.788,0,0,0-3.161-.685.561.561,0,0,1,.112-1.116,19.9,19.9,0,0,1,3.348.72,22.836,22.836,0,0,0,2.7.633,12.569,12.569,0,0,0,3.4.1,13.348,13.348,0,0,1,1.572-.022,10.642,10.642,0,0,0,2.017-.077,31.481,31.481,0,0,0,7.137-2.452,46.685,46.685,0,0,0,5.945-3.076c1.133-.719,2.277-1.448,3.4-2.263.589-.493,1.233-1.138,1.8-1.707a.56.56,0,1,1,.793.792c-.586.587-1.249,1.252-1.906,1.8-1.177.858-2.337,1.6-3.46,2.31a48.035,48.035,0,0,1-6.118,3.172,32.3,32.3,0,0,1-7.407,2.532,11.57,11.57,0,0,1-2.229.093,12.534,12.534,0,0,0-1.446.018c-.563.047-1.078.071-1.561.071" transform="translate(18.711 11.983)"/>
          <path id="Trazado_819457" data-name="Trazado 819457" d="M130.87,151.3a.56.56,0,0,1-.5-.31c-.246-.492-.45-1.021-.645-1.531s-.38-.986-.6-1.429a22.2,22.2,0,0,0-1.225-2.764c-.231-.517-.468-.955-.7-1.394a10.687,10.687,0,0,1-1.232-2.991.561.561,0,0,1,1.1-.22,9.7,9.7,0,0,0,1.12,2.679c.249.464.5.928.711,1.41a22,22,0,0,1,1.264,2.853,15.547,15.547,0,0,1,.614,1.454c.2.508.381.988.6,1.432a.561.561,0,0,1-.5.812" transform="translate(15.349 17.087)"/>
          <path id="Trazado_819458" data-name="Trazado 819458" d="M217.82,144.152a.639.639,0,0,1-.289-.07,12.664,12.664,0,0,1-2.891-2.289c-.333-.321-.668-.645-1.015-.954a22.663,22.663,0,0,0-3.314-2.337l-4.337-2.79a.68.68,0,0,1-.205-.92.638.638,0,0,1,.892-.213l4.315,2.778a23.69,23.69,0,0,1,3.486,2.464c.369.328.719.663,1.065,1a11.473,11.473,0,0,0,2.585,2.069.678.678,0,0,1,.291.894.647.647,0,0,1-.58.37" transform="translate(25.065 16.389)"/>
          <path id="Trazado_819459" data-name="Trazado 819459" d="M242.323,209.949a.562.562,0,0,1-.526-.365l-7.244-19.471a.561.561,0,0,1,1.052-.392l7.244,19.47a.563.563,0,0,1-.33.722.576.576,0,0,1-.2.035" transform="translate(28.58 23.077)"/>
          <path id="Trazado_819460" data-name="Trazado 819460" d="M180.008,236.762a149.183,149.183,0,0,1-15.609-.8.558.558,0,0,1-.5-.617.549.549,0,0,1,.616-.5c30.276,3.186,64.293-3.357,86.671-16.669a.561.561,0,1,1,.574.964c-18.783,11.174-45.682,17.622-71.755,17.622" transform="translate(19.974 26.579)"/>
          <path id="Trazado_819461" data-name="Trazado 819461" d="M244.395,253.834a13.828,13.828,0,0,1-5.414-1.143c-8.3-3.509-14.882-14.55-17.49-23.323a.561.561,0,1,1,1.076-.32c2.615,8.8,9.244,19.39,16.85,22.608a12.383,12.383,0,0,0,11.012-.515.561.561,0,0,1,.519,1,14.05,14.05,0,0,1-6.554,1.7" transform="translate(26.99 27.865)"/>
          <path id="Trazado_819462" data-name="Trazado 819462" d="M252.43,269a.56.56,0,0,1-.558-.508c-2.145-22.677-13.844-46.293-13.962-46.528a.561.561,0,1,1,1-.5c.119.238,11.911,24.034,14.076,46.924a.563.563,0,0,1-.506.611l-.054,0" transform="translate(28.987 26.951)"/>
          <path id="Trazado_819463" data-name="Trazado 819463" d="M8.58,75.972a3.679,3.679,0,0,1-2.808-1.352,8.7,8.7,0,0,1-1.687-4.565c-.171-3.019,1.389-6.315,2.726-8.543a.561.561,0,1,1,.963.577c-1.256,2.093-2.723,5.17-2.568,7.935a7.578,7.578,0,0,0,1.454,3.911,2.463,2.463,0,0,0,2.584.817.561.561,0,1,1,.329,1.073,3.379,3.379,0,0,1-.992.148" transform="translate(0.496 7.463)"/>
          <path id="Trazado_819464" data-name="Trazado 819464" d="M15.484,66.12a.561.561,0,0,1-.558-.5,56.7,56.7,0,0,1-.178-6.471c.006-.6.011-1.188.011-1.752a.561.561,0,1,1,1.122,0c0,.568,0,1.159-.011,1.764a55.728,55.728,0,0,0,.173,6.339.562.562,0,0,1-.5.618.585.585,0,0,1-.062,0" transform="translate(1.796 6.926)"/>
          <path id="Trazado_819465" data-name="Trazado 819465" d="M208.312,270.255a24.081,24.081,0,0,1-6.168-.923.56.56,0,0,1-.375-.371L188.245,225.3a.561.561,0,0,1,1.071-.331l13.433,43.366c1.118.3,5.3,1.3,8.274.477-2.752-9.544-9.195-34.382-9.262-34.635a.562.562,0,1,1,1.087-.283c.066.259,6.75,26.023,9.4,35.128a.563.563,0,0,1-.346.683,10.535,10.535,0,0,1-3.6.549" transform="translate(22.938 27.369)"/>
        </g>
      </g>
      <g id="Grupo_1072436" data-name="Grupo 1072436" transform="translate(915 4842.216)">
        <g id="Grupo_1072437" data-name="Grupo 1072437">
          <path id="Trazado_819466" data-name="Trazado 819466" d="M131.788,116.563a36.766,36.766,0,0,1-9.2,3.38c-.791.122-3.683-22.045-3.683-22.045,13.414-4.917,20-9.557,23.552-19.777s-6.249-12-6.8-22.3c-.443-8.239,1.251-34.806-29.411-30.805s-55.33,47.328-42.888,60.44S87.126,100.34,86.9,103.676s-12,21.553-12.665,22.44S82.682,145,92.015,148.782s61.1,2,39.773-32.219" transform="translate(12.03 4.929)" fill="#ffd4d4"/>
          <path id="Trazado_819467" data-name="Trazado 819467" d="M5.293,319.056C3.96,299.725,3.96,236.73,40.956,209.4c3-2.333,5.445-9.331,5.445-9.331,16.552,4.332,58.995,15.665,77.77,14.667-2.221,6.329-8.443,16-8.443,16l5.886,87.989-48.329,1L63.622,304.39l1.331,14.666Z" transform="translate(0.982 40.078)" fill="#f2ac30"/>
          <path id="Trazado_819468" data-name="Trazado 819468" d="M6,319.156a189.011,189.011,0,0,1,4.984-58.411c3.051-12.15,7.746-23.976,14.807-34.368a70.041,70.041,0,0,1,12.746-14.134c2.125-1.794,4.035-3.114,5.543-5.485a33.042,33.042,0,0,0,2.935-6.231c.024-.066.048-.131.071-.2l-.738.419c12.636,3.308,25.286,6.56,38.053,9.333,12.89,2.8,26.6,5.975,39.877,5.356q-.288-.38-.579-.76a83.619,83.619,0,0,1-8.195,15.559c-.478.759-.192,1.772-.134,2.63q.63,9.431,1.263,18.859,1.845,27.6,3.692,55.2l.8,11.9c.2-.2.4-.4.6-.6l-37.023.766-8.417.175L74,319.21c-1.027.02,0,.449-.3-.018q-4.728-7.5-9.457-15c-.3-.468-1.175-.325-1.117.3q.664,7.332,1.331,14.666c.2-.2.4-.4.6-.6H5.4a.6.6,0,0,0,0,1.2h59.66a.6.6,0,0,0,.6-.6Q65,311.824,64.33,304.49l-1.119.3L72.669,319.8c.545.865,1.338.612,2.278.593l8.238-.17,38.538-.8a.6.6,0,0,0,.6-.6l-5.736-85.756q-.061-.9-.121-1.808c-.048-.7-.17-.02.393-.917a83.335,83.335,0,0,0,8-15.346.6.6,0,0,0-.579-.76c-13.2.616-26.742-2.552-39.559-5.313-12.77-2.751-25.417-6.024-38.051-9.332a.611.611,0,0,0-.738.419,37.2,37.2,0,0,1-2.519,5.524c-1.642,2.967-4.355,4.667-6.856,6.83a71.326,71.326,0,0,0-11.8,13.408C17.831,235.762,13.32,247.314,10.2,259,5.122,278,3.576,298.224,4.716,317.827q.04.664.085,1.329c.053.768,1.253.773,1.2,0" transform="translate(0.874 39.978)" fill="#f2ac30"/>
          <path id="Trazado_819469" data-name="Trazado 819469" d="M68.761,221.691a.584.584,0,0,1-.1-.008c-13.65-2.35-26.25-7.65-32.1-13.5a.6.6,0,0,1,.849-.849c5.687,5.686,18.034,10.855,31.454,13.165a.6.6,0,0,1-.1,1.192" transform="translate(7.288 41.499)"/>
          <path id="Trazado_819470" data-name="Trazado 819470" d="M14.982,317.2a.6.6,0,0,1-.6-.574C13.815,303.891,12.7,238.935,46.6,210.813a.6.6,0,1,1,.767.924c-33.459,27.76-32.345,92.2-31.782,104.835a.6.6,0,0,1-.573.627h-.028" transform="translate(2.847 42.203)"/>
          <path id="Trazado_819471" data-name="Trazado 819471" d="M112.85,108.318c9.9-2.4,14.152-5.708,20.708-6.375,2.223-7.112-5.22-19.331-10.442-21.554-5.334,3.557-11,5.777-14.221,6.334,1.554,10.492,3.955,21.6,3.955,21.6" transform="translate(21.814 16.104)" fill="#32015c"/>
          <path id="Trazado_819472" data-name="Trazado 819472" d="M113.108,109c6.9-1.732,13.456-5.518,20.548-6.353a.618.618,0,0,0,.579-.441c1.726-6.391-2.068-13.482-5.985-18.3-.6-.739-4.049-4.775-5.339-3.937-4.284,2.786-9.017,5.289-14.077,6.274a.608.608,0,0,0-.419.737q1.633,10.853,3.955,21.6c.163.757,1.32.437,1.157-.318q-2.312-10.729-3.955-21.6-.209.369-.419.737a29.61,29.61,0,0,0,6.026-1.917c1.227-.527,2.427-1.091,3.618-1.694.621-.314,4.052-2.812,4.555-2.575,4.343,2.054,7.3,7.748,8.912,12a16.862,16.862,0,0,1,1.154,6.956c-.122,2.134-3.607,1.943-5.347,2.493-5.151,1.626-10.017,3.858-15.281,5.178a.6.6,0,0,0,.319,1.158" transform="translate(21.716 15.998)" fill="#32015c"/>
          <path id="Trazado_819473" data-name="Trazado 819473" d="M106.315,87.617A39.606,39.606,0,0,1,87.931,83.1a.6.6,0,0,1,.565-1.059A38.051,38.051,0,0,0,112.909,85.8a.6.6,0,0,1,.229,1.179,35.9,35.9,0,0,1-6.823.639" transform="translate(17.551 16.421)"/>
          <path id="Trazado_819474" data-name="Trazado 819474" d="M92.169,78.727c2.948,9.283,8.958,11.749,7.417-2.121C125.751,60.942,126.665,39.4,123,31.9c16.164,2.168,27,9.5,24.5,27.831,17.163-4.5,16-33.5,1.164-38.828-.331-21-23.227-26.307-45.827-13.5C92.706,13.142,89.1,20.143,75.3,25.545,59.11,31.881,53.495,52.552,53.495,69.957c0,26.482-.155,39.437-20.985,55.6s-40.382,36.688-28.33,62.162c7.332,15.5,23.331,14.5,23.331,14.5-4.5,20.829,8.331,33.161,20.665,32.33,0,0,3.5-43.328,8-62.327s13.33-26.832,28.164-34.33,18.633-10.143,17.163-24.5a160.416,160.416,0,0,0-3.165-19.5c-13.166,5.5-19.7-2.131-21.165-7.666-2.333-8.832,9.832-15.665,15-7.5" transform="translate(0.097 0.1)" fill="#32015c"/>
          <path id="Trazado_819475" data-name="Trazado 819475" d="M91.688,78.987c.69,2.077,4.606,11.455,7.869,6.9a6.927,6.927,0,0,0,.875-3.122,20.413,20.413,0,0,0,.08-3.076c-.052-2.338.152-2.853,2.15-4.146a60.637,60.637,0,0,0,11.989-10.188c7.467-8.251,14.193-22.562,8.964-33.661l-.677.881c6.627.929,13.468,2.68,18.549,7.281,5.616,5.086,6.4,12.865,5.508,19.971a.6.6,0,0,0,.759.579c9.361-2.642,13.385-12.079,12.981-21.176A24.708,24.708,0,0,0,156.5,26.353a17.443,17.443,0,0,0-4.053-4.1,14.257,14.257,0,0,0-2.866-1.575c-.552-.235-.469-2.958-.579-3.683C147.307,5.627,137.012.059,126.327,0,112.4-.075,100.757,7.586,90.417,16.035a61.631,61.631,0,0,1-8.778,6.046c-3.459,1.948-7.287,3.087-10.7,5.117-5.175,3.076-8.969,8.033-11.7,13.306-6.332,12.242-6.1,25.809-6.3,39.192-.179,11.863-1.322,23.58-8.477,33.463-4.164,5.75-9.793,10.053-15.281,14.442A123.84,123.84,0,0,0,12.11,143.8c-5.1,5.992-9.265,12.87-11.185,20.552-2.014,8.064-.591,16.317,2.834,23.771,4.1,8.918,13.879,15.358,23.848,14.8q-.29-.38-.579-.76c-1.737,8.514-1.162,17.533,4.081,24.751a20.146,20.146,0,0,0,17.161,8.34.614.614,0,0,0,.6-.6c1.558-19.235,3.338-38.661,7.005-57.619,2.5-12.935,7.478-24.454,18.4-32.356,5.361-3.878,11.452-6.5,17.2-9.708,3.857-2.153,7.747-4.734,9.667-8.861,2.408-5.172,1.217-11.674.538-17.067a139.3,139.3,0,0,0-2.671-15.2.6.6,0,0,0-.738-.419c-7.532,2.994-16.532,2.471-20-5.939-3.405-8.259,7.981-16.33,13.472-8.346.436.633,1.476.034,1.036-.606C87.56,70.928,75.151,76,76.438,85.112a13.646,13.646,0,0,0,5.948,9.241c4.834,3.321,11.122,2.241,16.207.22l-.737-.419a146.045,146.045,0,0,1,2.763,15.961c.7,5.561,1.7,12.07-1.438,17.1-2.992,4.788-9.4,7.386-14.2,9.833A74.309,74.309,0,0,0,69.7,146.772c-9.216,7.991-13.018,19.551-15.221,31.18-2.245,11.85-3.576,23.89-4.841,35.875-.732,6.932-1.406,13.875-1.969,20.822.2-.2.4-.4.6-.6a19.13,19.13,0,0,1-15.807-7.335c-5.524-6.7-5.938-16.1-4.278-24.236a.607.607,0,0,0-.579-.76c-9.037.509-17.608-4.948-21.995-12.6-8.551-14.925-3.377-31.28,6.764-43.767a115.448,115.448,0,0,1,16.91-16.3c5.417-4.42,10.889-8.56,15.281-14.064,6.86-8.6,8.886-19.031,9.409-29.767.646-13.308-.437-26.309,4.14-39.108A36.787,36.787,0,0,1,68.585,30.35c2.724-2.323,5.9-3.651,9.162-5.029A52.045,52.045,0,0,0,87.4,19.86c4.924-3.471,9.212-7.728,14.329-10.947a50.5,50.5,0,0,1,21.486-7.558c5.963-.609,12.182.358,17.222,3.729,5.315,3.555,7.543,9.761,7.725,15.917a.621.621,0,0,0,.442.579c15.177,5.8,14.732,33.184-1.166,37.671l.76.579c.9-7.179.03-14.447-5.005-19.969-4.986-5.467-12.9-7.455-19.934-8.439a.607.607,0,0,0-.677.881c2.68,5.69,1.506,12.846-.477,18.537-3.851,11.055-12.963,19.414-22.723,25.35a.589.589,0,0,0-.3.519c.148,1.476,1.216,8.965-1.425,9.142-2.458.166-4.292-5.616-4.813-7.182-.242-.73-1.4-.418-1.157.319" transform="translate(0 0)" fill="#32015c"/>
          <path id="Trazado_819476" data-name="Trazado 819476" d="M101.234,57.554c-3.046.4-3.419,6.58-.418,6.416s2.916-6.751.418-6.416" transform="translate(19.781 11.527)"/>
          <path id="Trazado_819477" data-name="Trazado 819477" d="M100.641,59.167a.6.6,0,0,1-.341-1.095l.128-.089a7.635,7.635,0,0,0,2.187-1.874.6.6,0,0,1,1.049.583,8.054,8.054,0,0,1-2.554,2.278l-.13.09a.6.6,0,0,1-.34.106" transform="translate(20.04 11.178)"/>
          <path id="Trazado_819478" data-name="Trazado 819478" d="M119.4,51.66c-3.028.517-3.174,6.7-.181,6.427s2.67-6.851.181-6.427" transform="translate(23.448 10.345)"/>
          <path id="Trazado_819479" data-name="Trazado 819479" d="M118.853,53.3a.6.6,0,0,1-.36-1.08l.155-.115a7.554,7.554,0,0,0,2.089-1.933.6.6,0,1,1,1.071.544,7.946,7.946,0,0,1-2.443,2.35l-.152.114a.592.592,0,0,1-.359.12" transform="translate(23.689 9.985)"/>
          <path id="Trazado_819480" data-name="Trazado 819480" d="M114.4,74.364a.6.6,0,0,1-.432-1.017c.365-.379.713-.733,1.039-1.066,3.441-3.5,4.366-4.444.973-9.6l-.174-.265c-3.975-6.047-4.534-7.24-.935-13.933a.6.6,0,1,1,1.057.569c-3.362,6.252-2.96,6.863.881,12.705l.174.265c3.924,5.967,2.447,7.47-1.12,11.1-.325.331-.67.682-1.032,1.059a.6.6,0,0,1-.432.184" transform="translate(22.53 9.648)"/>
          <path id="Trazado_819481" data-name="Trazado 819481" d="M93.965,54.279c-2.128,3.851-1.75,5.83,1,3.417a42.067,42.067,0,0,1,8.917-5.919c2.249-1,.077-3.817-3.5-3.165-1.833.332-4.666,2.5-6.416,5.667" transform="translate(18.55 9.719)"/>
          <path id="Trazado_819482" data-name="Trazado 819482" d="M93.231,59.45h0a1.059,1.059,0,0,1-.939-.523c-.609-1.032.342-3.2,1.247-4.837,1.9-3.451,4.879-5.614,6.835-5.968a6.533,6.533,0,0,1,1.152-.106c2.231,0,3.692,1.206,3.932,2.342a1.822,1.822,0,0,1-1.233,2.068,41.441,41.441,0,0,0-8.765,5.82,3.851,3.851,0,0,1-2.23,1.2m0-1.2,0,.6v-.6h0m8.3-9.034a5.273,5.273,0,0,0-.939.086c-1.658.3-4.354,2.39-6,5.367-1.126,2.038-1.348,3.211-1.287,3.571a3.673,3.673,0,0,0,1.366-.9,42.9,42.9,0,0,1,9.068-6.016c.425-.187.609-.431.547-.723-.124-.582-1.151-1.39-2.758-1.39" transform="translate(18.45 9.619)"/>
          <path id="Trazado_819483" data-name="Trazado 819483" d="M114.5,50.244c2.165-3.915,5.746-7.832,7.581-7.333s2.666,3,1.583,3.751-1.918-1.335-5.5,1.083c-3.141,2.117-3.835,3.165-3.666,2.5" transform="translate(22.932 8.587)"/>
          <path id="Trazado_819484" data-name="Trazado 819484" d="M114.616,51.142h-.294l-.209-.244a.789.789,0,0,1-.1-.7l.056-.143c2.216-4.005,6.027-8.235,8.265-7.621a3.577,3.577,0,0,1,2.465,2.784,1.768,1.768,0,0,1-2.395,2.18,3.687,3.687,0,0,0-.993-.16,5.278,5.278,0,0,0-2.817,1.107c-1.479,1-2.4,1.749-2.955,2.2s-.738.6-1.029.6m7.227-7.575c-1.173,0-3.354,2.025-5.243,4.712.385-.282.826-.594,1.329-.933a6.385,6.385,0,0,1,3.488-1.312,4.827,4.827,0,0,1,1.3.2c.311.082.477.193.707.034a.844.844,0,0,0,.2-.85,2.37,2.37,0,0,0-1.6-1.829.7.7,0,0,0-.18-.022" transform="translate(22.832 8.488)"/>
          <path id="Trazado_819485" data-name="Trazado 819485" d="M110.528,77.649a7.583,7.583,0,0,1-4.957-2,17.239,17.239,0,0,1-3.715-4.574.6.6,0,0,1,1.039-.6,16.036,16.036,0,0,0,3.445,4.254,6.127,6.127,0,0,0,5.256,1.624,5.541,5.541,0,0,0,2.38-1.11.6.6,0,1,1,.8.9,6.672,6.672,0,0,1-2.918,1.385,7.083,7.083,0,0,1-1.328.128" transform="translate(20.388 14.057)"/>
          <path id="Trazado_819486" data-name="Trazado 819486" d="M115.18,73.525c-.306,0-.612-.022-.918-.044-.963-.068-1.934-.1-2.856-.224-.424-.059-.847-.118-1.271-.15-1.172-.192-2.111-.354-3.172-.6-.318-.085-.612-.157-.907-.228a17.443,17.443,0,0,1-1.913-.543,8.339,8.339,0,0,1-1.086-.431c-.241-.109-.49-.222-.753-.322a.6.6,0,1,1,.425-1.121c.287.108.558.229.821.348a7.4,7.4,0,0,0,.964.384,16.638,16.638,0,0,0,1.825.517c.306.074.611.148.916.232,1.006.229,1.928.388,3.026.57.395.028.844.089,1.292.151.972.134,1.87.152,2.778.217a9.133,9.133,0,0,0,2.209-.114l.221,1.18a9.786,9.786,0,0,1-1.6.175" transform="translate(20.416 13.987)"/>
          <path id="Trazado_819487" data-name="Trazado 819487" d="M110.988,56.689a6.037,6.037,0,0,1,2.762-2.275c1.22-.485,2.194.121,3.214.726a.6.6,0,0,0,.606-1.036c-1.394-.827-2.524-1.331-4.14-.846a6.86,6.86,0,0,0-3.479,2.824c-.442.64.6,1.239,1.036.606" transform="translate(22.004 10.631)" fill="#495edb"/>
          <path id="Trazado_819488" data-name="Trazado 819488" d="M109.316,45.714C94.47,36.475,84.5,62.588,96.306,71.238c6.2,4.541,13.666.784,16.71-5.5,3.052-6.305,2.317-15.675-3.7-20.024-.629-.454-1.227.587-.606,1.036,5.29,3.823,5.7,11.635,3.719,17.294-2.283,6.53-10.01,10.792-15.919,5.81-9.768-8.235-1.124-31.4,12.2-23.1.659.411,1.262-.628.606-1.036" transform="translate(18.25 8.767)" fill="#495edb"/>
          <path id="Trazado_819489" data-name="Trazado 819489" d="M83.372,66.437q5.792-1.709,11.582-3.417a.6.6,0,0,0-.318-1.157L83.052,65.28a.6.6,0,0,0,.319,1.157" transform="translate(16.553 12.387)" fill="#495edb"/>
          <path id="Trazado_819490" data-name="Trazado 819490" d="M132.268,55.643c.825-5.04.748-13.517-4.472-16.359-2.3-1.254-5.028-.049-6.837,1.467-2.973,2.491-4.182,6.928-4.852,10.559-.907,4.92-1.43,15.317,5.668,16.148,6.541.765,9.475-6.554,10.493-11.815.146-.756-1.011-1.078-1.157-.319-.844,4.361-2.811,10.463-7.989,10.991-6.643.677-6.482-8.659-6.1-12.925.4-4.44,3.825-16.522,10.63-12.818,4.327,2.356,4.123,10.678,3.457,14.752-.124.757,1.032,1.081,1.157.319" transform="translate(23.155 7.765)" fill="#495edb"/>
          <path id="Trazado_819491" data-name="Trazado 819491" d="M138.64,302.875c1.364-2.183-.973-5.568-2.167-6.832-3.522-3.734-7.165-7-14.052-7.333-2.523-.121-8.179,1.007-10.665.444-4.031-.91-5.668-29.107-5.668-29.107-16,2.167-33.107,4.667-33.107,4.667s9.012,36.211,11.444,38.662c3.024,3.044,6.291,4.262,10.109,3.33a108.862,108.862,0,0,1,13.554-2.443A26.217,26.217,0,0,1,119.42,305.6c1.611.544,1.824,1.906,4.89.78,1.236-.457,4.279,1.277,5.554.886a12.75,12.75,0,0,0,2.446-1.666c.332-.5,4,.993,6.329-2.722" transform="translate(14.62 52.093)" fill="#ffd4d4"/>
          <path id="Trazado_819492" data-name="Trazado 819492" d="M40.807,212.565l-1.332,8s8.443,6.441,24,8.221c3.112,15.108,16.222,68.439,16.222,68.439,11.332,2.666,28.33-.224,33.662-3.779-.221-16.665-6.553-55.549-8.331-58.884,7.777,1.778,12.222.67,12.222.67,4.888-14.891,10.887-31.11,13.109-37.332s4.445-8.887,9.778-11.109,23.11-10,19.552-38.664c11.333,1.556,28,4.222,28,4.222l-.444-47.55s-28.666-14.223-53.107-2.223c7.555,7.111,5.112,19.556-8.666,26.221s-32.442.888-43.328-12.444c-12.444,3.555-29.553,14.223-34,37.108s-7.333,59.105-7.333,59.105" transform="translate(7.908 19.584)" fill="#8054f8"/>
          <path id="Trazado_819493" data-name="Trazado 819493" d="M40.328,212.513l-1.332,8a.636.636,0,0,0,.275.678,33.834,33.834,0,0,0,6.452,3.571,56.992,56.992,0,0,0,7.17,2.616c1,.3,10.134,1.843,10.169,2.009,1.716,8.3,3.721,16.543,5.675,24.787q5.142,21.683,10.478,43.318a.6.6,0,0,0,.419.42,57.684,57.684,0,0,0,30.02-1.937,19.181,19.181,0,0,0,4.105-1.9c.78-.493.227-3,.192-3.78-.194-4.237-.606-8.467-1.06-12.684-.988-9.194-2.308-18.359-3.842-27.478-.6-3.552-1.239-7.1-1.989-10.623a22,22,0,0,0-1.418-5.14q-.339.439-.678.882c3.975.853,8.5,1.619,12.54.669.532-.125.661-1.154.755-1.437q1.014-3.077,2.062-6.144,1.874-5.517,3.825-11c2.031-5.754,4.117-11.489,6.19-17.229,2.1-5.8,4.3-10.221,10.248-12.707a33.167,33.167,0,0,0,13.346-9.7c6.634-8.255,7.635-19.3,6.453-29.466l-.76.58c9.349,1.29,18.681,2.731,28,4.22a.61.61,0,0,0,.76-.579q-.221-23.775-.444-47.55a.594.594,0,0,0-.3-.519c-16.2-7.98-37.2-10.1-53.713-2.223a.605.605,0,0,0-.122.943,12.864,12.864,0,0,1,2.481,15.31c-2.953,6.126-9.721,10.089-16.062,11.786-13.837,3.705-28.79-3.654-37.565-14.169a.59.59,0,0,0-.583-.155,50.6,50.6,0,0,0-22.352,13.541c-8.064,8.423-11.289,19-13.188,30.227-2.964,17.531-4.812,35.308-6.231,53.025-.061.772,1.139.766,1.2,0,.645-8.058,1.457-16.1,2.347-24.141.809-7.32,1.721-14.63,2.794-21.915,1.036-7.024,1.993-14.2,4.4-20.908,4.441-12.391,14.448-22.018,26.5-26.994,1.074-.443,2.17-.829,3.272-1.194,1.69-.559,2.234.833,3.354,2.013a43.182,43.182,0,0,0,8.282,6.651,40.144,40.144,0,0,0,18.444,6.038c8.936.655,19-2.9,24.517-10.216,4.648-6.168,4.935-14.147-.759-19.747q-.059.47-.121.942c13.5-6.435,28.885-5.595,42.912-1.4a67.1,67.1,0,0,1,9.379,3.517c.068.034-.089-.754-.079.359q.016,1.75.032,3.5.2,21.638.4,43.275l.76-.579c-9.321-1.49-18.651-2.931-28-4.222-.341-.047-.809.149-.76.579,1.2,10.313.108,21.192-6.764,29.426-3.8,4.555-8.71,6.92-13.933,9.37-4,1.877-6.309,5.155-7.974,9.134-1.967,4.7-3.513,9.629-5.236,14.424q-3.669,10.22-7.154,20.506c-.134.4-1.047,3.69-1.071,3.695a13.886,13.886,0,0,1-1.77.226,34.17,34.17,0,0,1-10-.924.607.607,0,0,0-.678.881c1.28,2.588,1.554,6,2.091,8.794,1.057,5.517,1.94,11.067,2.766,16.622.957,6.447,1.791,12.914,2.458,19.4q.416,4.042.693,8.1c.079,1.182.138,2.363.187,3.546.065,1.614.1,1.844-1.377,2.557-6.165,2.976-13.822,3.637-20.55,3.782-1.772.037-3.545-.038-5.311-.164-.569-.041-5.224-.564-5.193-.438q-.189-.771-.379-1.542-2.908-11.86-5.774-23.728c-3.465-14.352-7.075-28.7-10.067-43.16a.611.611,0,0,0-.579-.44,56.071,56.071,0,0,1-22.058-7.06c-.483-.289-.955-.6-1.416-.921s.146-.018.066.467c.061-.364.121-.729.182-1.091l1.142-6.855c.126-.757-1.031-1.081-1.157-.319" transform="translate(7.809 19.476)" fill="#495edb"/>
          <path id="Trazado_819494" data-name="Trazado 819494" d="M61.2,214.739a.6.6,0,0,1-.588-.48c-3.687-18.22-7.7-35.742-9.76-42.611A.6.6,0,0,1,52,171.3c2.068,6.9,6.093,24.467,9.787,42.717a.6.6,0,0,1-.469.708.593.593,0,0,1-.12.012" transform="translate(10.181 34.23)"/>
          <path id="Trazado_819495" data-name="Trazado 819495" d="M96.263,223.257a.6.6,0,0,1-.591-.489,29.465,29.465,0,0,0-2.164-5.8,83.554,83.554,0,0,1-4.045-10.586c-1.528-5.143-1.856-16.86-2.144-27.2-.175-6.335-.342-12.32-.766-15.788a.6.6,0,0,1,.523-.669.592.592,0,0,1,.669.523c.43,3.524.6,9.535.774,15.9.287,10.262.612,21.9,2.095,26.887a82.185,82.185,0,0,0,3.991,10.44,30.018,30.018,0,0,1,2.247,6.06.6.6,0,0,1-.479.7.585.585,0,0,1-.11.011" transform="translate(17.338 32.598)"/>
          <path id="Trazado_819496" data-name="Trazado 819496" d="M140.132,142.978a.6.6,0,0,1-.6-.538c-.006-.065-.673-6.483-1.33-10.862a.6.6,0,0,1,1.187-.179c.661,4.406,1.33,10.852,1.337,10.916a.6.6,0,0,1-.535.659.521.521,0,0,1-.061,0" transform="translate(27.684 26.22)"/>
          <path id="Trazado_819497" data-name="Trazado 819497" d="M53.958,291.053a.6.6,0,0,1-.6-.57l-.777-15.219a.6.6,0,1,1,1.2-.061l.777,15.22a.6.6,0,0,1-.569.629h-.031" transform="translate(10.533 55.015)"/>
          <path id="Trazado_819498" data-name="Trazado 819498" d="M53.456,280.741a.6.6,0,0,1-.128-1.186l10.114-2.224A.6.6,0,0,1,63.7,278.5l-10.114,2.223a.6.6,0,0,1-.13.014" transform="translate(10.588 55.553)"/>
          <path id="Trazado_819499" data-name="Trazado 819499" d="M119.069,300.623a.6.6,0,0,1-.176-1.173c.145-.046.178-.107.2-.167a4.231,4.231,0,0,0-.855-2.485,14.289,14.289,0,0,0-8.926-5.292,15.887,15.887,0,0,0-4.531-.1,17.036,17.036,0,0,0-2.131.4c-.376.089-.751.175-1.127.25a.6.6,0,1,1-.234-1.176c.363-.073.726-.157,1.089-.241a18.219,18.219,0,0,1,2.3-.433,17.084,17.084,0,0,1,4.852.121,15.529,15.529,0,0,1,9.691,5.787c.166.249,1.467,2.269,1,3.575a1.44,1.44,0,0,1-.976.909.605.605,0,0,1-.176.026" transform="translate(20.194 58.112)"/>
          <path id="Trazado_819500" data-name="Trazado 819500" d="M124.607,301.433a.6.6,0,0,1-.27-1.137c.892-.445,1.266-.875,1.34-1.532a4.259,4.259,0,0,0-.078-2.5c-.537-1.928-2.319-3.57-3.621-4.769a16.62,16.62,0,0,0-5.367-2.995,10.161,10.161,0,0,0-5.572-.521c-.864.06-1.7.2-2.507.333-.829.139-1.69.282-2.552.34a.593.593,0,0,1-.639-.559.6.6,0,0,1,.561-.64c.8-.053,1.63-.191,2.434-.324.835-.139,1.7-.283,2.564-.34a11.209,11.209,0,0,1,6.147.593,17.679,17.679,0,0,1,5.746,3.231c1.406,1.3,3.335,3.073,3.947,5.28a5.28,5.28,0,0,1,.116,3.081,3.106,3.106,0,0,1-1.981,2.392.6.6,0,0,1-.268.064" transform="translate(21.102 57.414)"/>
          <path id="Trazado_819502" data-name="Trazado 819502" d="M106.471,136.167a48.636,48.636,0,0,1-32.789-12.651.6.6,0,1,1,.8-.893,47.512,47.512,0,0,0,35.025,12.245c8.531-.568,16.258-3.523,19.685-7.528,4.24-5.117,5.936-12.084,6.106-16.895a.625.625,0,0,1,.621-.579.6.6,0,0,1,.579.621,30.1,30.1,0,0,1-6.388,17.626c-3.632,4.247-11.685,7.366-20.522,7.953-.936.062-1.981.1-3.117.1" transform="translate(14.72 22.008)"/>
        </g>
      </g>
      <g id="Grupo_1072432" data-name="Grupo 1072432" transform="translate(1055.385 4889)">
        <g id="Grupo_1072431" data-name="Grupo 1072431" clip-path="url(#clip-path-2)">
          <path id="Trazado_819406" data-name="Trazado 819406" d="M153.673,37.49,93.251,2.606c-6.019-3.475-15.867-3.475-21.886,0L10.943,37.49C4.924,40.965,0,49.495,0,56.445v69.769c0,6.95,4.924,15.48,10.943,18.956l60.421,34.883c6.019,3.476,15.867,3.476,21.886,0l60.422-34.883c6.019-3.476,10.943-12.006,10.943-18.956V56.445c0-6.95-4.924-15.48-10.943-18.955" fill="#def2ff"/>
          <path id="Trazado_819407" data-name="Trazado 819407" d="M134.27,86.265A41.3,41.3,0,0,0,98.995,45.471a40.583,40.583,0,0,0-5.946-.426A41.224,41.224,0,0,0,75.39,123.518c4.5,2.736,4.516,6.289,4.32,12.634-.164,5.341-.526,9.644,1.936,11.9,1.965,2.153,6.327,3.651,11.4,3.651s9.438-1.5,11.4-3.651c2.462-2.26,2.1-6.563,1.934-11.9-.2-6.345-.184-9.9,4.319-12.634A41.224,41.224,0,0,0,134.27,86.265" transform="translate(-9.709 -8.438)" fill="#98d1ca"/>
          <path id="Trazado_819408" data-name="Trazado 819408" d="M134.6,86.171A42.13,42.13,0,0,0,106.216,46.7c-16.986-5.832-36.049.533-46.73,14.755-11.205,14.92-10.507,36.009.875,50.58a41.84,41.84,0,0,0,10.222,9.232c1.971,1.281,4.274,2.107,6.067,3.633s2.386,3.75,2.576,6c.4,4.776-.815,9.724.367,14.427.953,3.794,5.065,5.452,8.5,6.213,5.8,1.283,16.117.67,18.27-6.213,2.131-6.813-3.242-17.817,5-21.8,14.193-6.863,23.129-21.706,23.244-37.352a.407.407,0,0,0-.813,0,40.865,40.865,0,0,1-22.841,36.651c-3.29,1.648-4.734,4.52-5.034,8.076-.416,4.914,1.36,10.817-.8,15.429-2.3,4.908-10.461,5.169-14.947,4.723a14.863,14.863,0,0,1-7.679-2.779c-2.149-1.7-2.475-4.28-2.554-6.848-.139-4.51.911-9.368-.487-13.758-1.24-3.893-5.318-5.13-8.453-7.106A40.821,40.821,0,0,1,52.409,81.643C54.4,62.215,70.841,46.9,90.131,45.454a40.819,40.819,0,0,1,43.661,40.717.407.407,0,0,0,.813,0" transform="translate(-9.637 -8.344)" fill="#283859"/>
          <path id="Trazado_819409" data-name="Trazado 819409" d="M112.852,150.063a62.3,62.3,0,0,1-26.806,0,44.4,44.4,0,0,1,.063,5.762c-.163,5.341-.524,9.644,1.937,11.9,1.965,2.153,6.326,3.651,11.4,3.651s9.438-1.5,11.4-3.651c2.462-2.26,2.1-6.563,1.935-11.9a44.662,44.662,0,0,1,.064-5.762" transform="translate(-16.108 -28.111)" fill="#32015c"/>
          <path id="Trazado_819410" data-name="Trazado 819410" d="M112.609,149.578a62.849,62.849,0,0,1-26.59,0,.41.41,0,0,0-.514.392c.471,5.256-1.344,11.5.974,16.442,2.05,4.371,8.674,5.224,12.834,5.282,4.441.063,10.435-1.06,12.837-5.282,1.086-1.91,1.035-4.445,1.026-6.561-.011-3.294-.348-6.591-.054-9.88.047-.522-.766-.517-.813,0-.437,4.879.809,10.022-.394,14.813-1.271,5.061-8.327,6.039-12.6,6.1-4.5.063-11.052-1.151-12.6-6.1-.68-2.176-.47-4.681-.4-6.926a65.986,65.986,0,0,0,.007-7.887l-.514.393a63.9,63.9,0,0,0,27.022,0c.512-.111.3-.895-.216-.784" transform="translate(-15.974 -28.018)" fill="#32015c"/>
          <path id="Trazado_819411" data-name="Trazado 819411" d="M91.633,139.98H91.6a.812.812,0,0,1-.784-.839,73.292,73.292,0,0,0-3.682-25.17,17.613,17.613,0,0,1-2.625.118c-7.923-.232-12.457-4.4-13.932-7.9-.929-2.2-.758-4.308.458-5.632.779-.847,2.678-2.074,6.653-.781,4.82,1.57,8.207,6.41,10.511,12.368a15.079,15.079,0,0,0,7.365-3.989,25.165,25.165,0,0,1-7.306-16.325c-.245-6.755,3.44-9.734,6.97-10.271a7.71,7.71,0,0,1,8.713,5.424c1.31,4.837-.535,14.135-5.37,20.266q-.336.427-.686.826a16.553,16.553,0,0,0,2.561,1.763,14.1,14.1,0,0,0,2.969,1.236c2.963-8.922,7.277-12.787,9.715-14.335a6.714,6.714,0,0,1,6.848-.483A5.405,5.405,0,0,1,122.85,101c.028,1.985-.949,5.9-7.8,9.855A15.465,15.465,0,0,1,104.565,113c-1.763,5.877-2.952,13.9-2.657,24.8a.814.814,0,0,1-.791.835.83.83,0,0,1-.835-.791c-.3-11,.865-19.167,2.65-25.22a15.787,15.787,0,0,1-3.27-1.367,17.987,17.987,0,0,1-2.889-2,16.624,16.624,0,0,1-8.006,4.431A77.754,77.754,0,0,1,92.444,139.2a.813.813,0,0,1-.812.785M74.522,100.836a2.982,2.982,0,0,0-2.286.823c-.774.842-.833,2.3-.158,3.9,1.289,3.054,5.331,6.694,12.483,6.9a15.851,15.851,0,0,0,1.984-.063c-2.2-5.486-5.282-9.748-9.356-11.074a8.762,8.762,0,0,0-2.666-.488m30.547,10.594a14.09,14.09,0,0,0,9.17-1.985c4.479-2.583,7.026-5.654,6.987-8.424a3.751,3.751,0,0,0-2.016-3.333,5.118,5.118,0,0,0-5.2.424c-1.8,1.143-5.986,4.614-8.938,13.317M96.42,83.1a6.239,6.239,0,0,0-.944.071c-2.838.43-5.8,2.917-5.59,8.6a23.425,23.425,0,0,0,6.8,15.212c.217-.249.423-.5.615-.741,4.943-6.268,6.125-14.966,5.078-18.833A6.007,6.007,0,0,0,96.42,83.1" transform="translate(-13.111 -15.261)" fill="#32015c"/>
          <path id="Trazado_819412" data-name="Trazado 819412" d="M99.476,157.9a38.112,38.112,0,0,1-10.794-1.414.406.406,0,1,1,.229-.779c7.082,2.082,14.534,1.4,20.964.6a.412.412,0,0,1,.453.354.405.405,0,0,1-.353.453,84.476,84.476,0,0,1-10.5.792" transform="translate(-16.558 -29.165)"/>
          <path id="Trazado_819413" data-name="Trazado 819413" d="M23.875,138.069c-2.451,1.92-4.814.969-5.251-2.114l-2.357-16.649c-.436-3.084,1.567-4.653,4.455-3.49l15.6,6.281c2.888,1.163,3.246,3.685.795,5.6Z" transform="translate(-3.036 -21.624)" fill="#d4336e"/>
          <path id="Trazado_819414" data-name="Trazado 819414" d="M90.632,202.967a3.266,3.266,0,0,1-1.388-.293c-.68-.316-1.813-1.195-1.762-3.525.047-2.176,1.369-4.061,3.721-5.3a11.353,11.353,0,0,1,1.231-.556,10.255,10.255,0,0,0-5.844-2.475,6.427,6.427,0,0,0-6.6,3.572.406.406,0,0,1-.727-.363,7.218,7.218,0,0,1,7.386-4.019,11.061,11.061,0,0,1,6.645,2.989,16.109,16.109,0,0,1,12.7,1.558.406.406,0,1,1-.445.68,15.209,15.209,0,0,0-11.628-1.575,7.6,7.6,0,0,1,1.506,2.626,4.956,4.956,0,0,1-1.514,5.345,5.1,5.1,0,0,1-3.285,1.338m2.448-9.049a11.058,11.058,0,0,0-1.5.649,5.458,5.458,0,0,0-3.288,4.6c-.031,1.4.416,2.362,1.292,2.771a3.733,3.733,0,0,0,3.794-.922,4.14,4.14,0,0,0,1.275-4.488,6.989,6.989,0,0,0-1.576-2.612" transform="translate(-14.841 -35.588)" fill="#495edb"/>
          <path id="Trazado_819415" data-name="Trazado 819415" d="M168.71,151.723a9.778,9.778,0,1,1-9.778-9.779,9.778,9.778,0,0,1,9.778,9.779" transform="translate(-27.941 -26.59)" fill="#7db3db"/>
          <path id="Trazado_819416" data-name="Trazado 819416" d="M170.518,62.133a4.737,4.737,0,0,1-6.64.9l-7.366-5.6a4.74,4.74,0,0,1,5.737-7.546l7.365,5.6a4.741,4.741,0,0,1,.9,6.641" transform="translate(-28.969 -9.165)" fill="#ffc4c4"/>
          <path id="Trazado_819417" data-name="Trazado 819417" d="M47.814,160.218a4.737,4.737,0,0,1,5.964,3.056l2.839,8.806a4.739,4.739,0,0,1-9.022,2.907l-2.838-8.806a4.74,4.74,0,0,1,3.057-5.963" transform="translate(-8.341 -29.971)" fill="#ffc4c4"/>
          <path id="Trazado_819418" data-name="Trazado 819418" d="M31.046,73.623a6.838,6.838,0,1,1,6.838-6.838,6.845,6.845,0,0,1-6.838,6.838m0-12.863a6.025,6.025,0,1,0,6.025,6.025,6.032,6.032,0,0,0-6.025-6.025" transform="translate(-4.535 -11.23)" fill="#495edb"/>
          <path id="Trazado_819419" data-name="Trazado 819419" d="M76.212,34.213a16.366,16.366,0,0,1-4.467-.7.406.406,0,0,1,.223-.782c4.278,1.218,7.2.826,10.071-1.359a22.889,22.889,0,0,0,2.515-2.234,8.232,8.232,0,0,1-3.473-3.191,7.334,7.334,0,0,1-.591-6.123,3.951,3.951,0,0,1,2.776-2.442c1.993-.255,4.457.705,5.217,2.733,1.511,3.016-.442,6.316-2.519,8.685A7.223,7.223,0,0,0,89,28.986a8.329,8.329,0,0,0,6.835-6.128.406.406,0,1,1,.785.21,9.141,9.141,0,0,1-7.5,6.722,8.028,8.028,0,0,1-3.759-.328,25.078,25.078,0,0,1-2.826,2.552,10.019,10.019,0,0,1-6.319,2.2m7.7-16.068a4.016,4.016,0,0,0-.5.031,3.113,3.113,0,0,0-2.173,1.952,6.458,6.458,0,0,0,.531,5.391A7.374,7.374,0,0,0,85.143,28.5c2.172-2.423,3.883-5.5,2.6-8.068a4.072,4.072,0,0,0-3.824-2.291" transform="translate(-13.385 -3.248)" fill="#283859"/>
        </g>
      </g>
      <g id="Grupo_1072430" data-name="Grupo 1072430" transform="translate(1113.365 4883.5)">
        <g id="Grupo_1072429" data-name="Grupo 1072429" clip-path="url(#clip-path-3)">
          <path id="Trazado_819361" data-name="Trazado 819361" d="M73.368,150.952a98.886,98.886,0,0,0-4.7-17.994c-1.325-3.434-.363-5.582-5.506-8.568S51.713,116.1,50.551,115.6s-2.984-7.628-9.785-1.326-14.261,6.8-16.085.828c-3.483-.662-5.474-3.481-4.48-5.472s8.957-7.463,8.957-7.463c-3.98,2.154-10.947,2.652-11.941-.331s2.321-5.31,7.961-6.967,28.2-11.776,34.33-7.961S75.433,99.014,82.4,103.659s9.454,12.106,12.771,20.9,5.971,18.079,5.971,18.079-8.7,15.285-27.772,8.318" transform="translate(3.316 16.746)" fill="#ffd4d4"/>
          <path id="Trazado_819362" data-name="Trazado 819362" d="M23.647,111.582a4.619,4.619,0,0,1-4-2.172.6.6,0,0,1,.986-.677c2.169,3.153,5.883,1.277,9.818-1.107l.791-.475c.3-.156.577-.294.854-.43a10.712,10.712,0,0,0,2.67-1.651.6.6,0,1,1,.818.87,11.733,11.733,0,0,1-2.959,1.852c-.27.133-.539.266-.8.4l-.754.454c-2,1.21-4.846,2.934-7.426,2.934" transform="translate(3.804 20.415)"/>
          <path id="Trazado_819363" data-name="Trazado 819363" d="M21.25,102.224a7.878,7.878,0,0,1-2.032-.257.6.6,0,1,1,.3-1.155,10.527,10.527,0,0,0,4.672-.142c.381-.069.768-.139,1.161-.2a24.865,24.865,0,0,0,3.957-1.287c.3-.153.61-.294.922-.435s.595-.271.919-.432c.222-.112.442-.248.669-.389a6.235,6.235,0,0,1,1.535-.757.6.6,0,1,1,.329,1.148,5.285,5.285,0,0,0-1.236.626c-.257.159-.509.314-.761.44-.337.171-.649.312-.959.453s-.595.271-.92.432a26.015,26.015,0,0,1-4.226,1.375c-.425.068-.8.136-1.175.2a17.674,17.674,0,0,1-3.156.379" transform="translate(3.653 18.904)"/>
          <path id="Trazado_819364" data-name="Trazado 819364" d="M64.451,91.232a5.131,5.131,0,0,1,1.43,7.082L52.118,119.036a5.12,5.12,0,0,1-7.077,1.43L24.317,106.706a5.125,5.125,0,0,1-1.43-7.079l13.762-20.72a5.122,5.122,0,0,1,7.078-1.432Z" transform="translate(4.289 14.912)" fill="#495edb"/>
          <path id="Trazado_819365" data-name="Trazado 819365" d="M154.519,38.9c-30.733,1.631-25.434,26.972-22.979,35.256,2.247,7.58-8.19,13.9-2.863,23.265S143.4,111.849,158,112.515c0,0-.723,16.256-1.386,21.559l30.521-1.99c-1.279-9.4-4.037-28.9-.278-36.157,1.529-2.952,10.756,9.445,20.563-5.637s-22.165-53.024-52.9-51.393" transform="translate(24.742 7.559)" fill="#ffd4d4"/>
          <path id="Trazado_819366" data-name="Trazado 819366" d="M153.045,102.422a.6.6,0,0,1-.035-1.193,38.453,38.453,0,0,0,20.932-8.036.6.6,0,0,1,.744.934,39.678,39.678,0,0,1-21.607,8.294h-.035" transform="translate(29.666 18.11)"/>
          <path id="Trazado_819367" data-name="Trazado 819367" d="M153.957,71.366c3.055-.154,4.534,5.825,1.567,6.2s-4.074-6.078-1.567-6.2" transform="translate(29.69 13.887)"/>
          <path id="Trazado_819368" data-name="Trazado 819368" d="M154.666,72.829a.591.591,0,0,1-.245-.053l-.183-.082a7.929,7.929,0,0,1-2.873-1.75.6.6,0,0,1,.922-.761,7.514,7.514,0,0,0,2.439,1.422l.184.082a.6.6,0,0,1-.245,1.142" transform="translate(29.429 13.615)"/>
          <path id="Trazado_819369" data-name="Trazado 819369" d="M135.011,68.875c3.057-.043,4.316,5.985,1.339,6.255s-3.85-6.223-1.339-6.255" transform="translate(25.987 13.403)"/>
          <path id="Trazado_819370" data-name="Trazado 819370" d="M135.678,70.367a.612.612,0,0,1-.266-.062l-.2-.1a7.835,7.835,0,0,1-2.783-1.843.6.6,0,1,1,.947-.725,7.466,7.466,0,0,0,2.367,1.5l.2.1a.6.6,0,0,1-.266,1.132" transform="translate(25.746 13.116)"/>
          <path id="Trazado_819371" data-name="Trazado 819371" d="M143.992,86.226a7.767,7.767,0,0,1-5.578-1.726c-2.111-1.889-.866-4.182-.042-5.7,1.207-2.227,2.432-4.867,2.38-7.565-.045-2.265-.909-3.316-2.216-4.906l-.545-.668a.6.6,0,1,1,.931-.748l.536.657c1.361,1.655,2.435,2.96,2.488,5.642C142,74.187,140.7,77,139.423,79.369c-.978,1.8-1.521,3.069-.211,4.241,1.683,1.509,3.786,1.459,6.009,1.4.342-.007.681-.017,1.02-.019h0a.6.6,0,0,1,0,1.195c-.333,0-.667.011-1,.019-.418.01-.839.02-1.259.02" transform="translate(26.709 12.589)"/>
          <path id="Trazado_819372" data-name="Trazado 819372" d="M146.563,91.957c-1.792,0-3.427-1.572-4.861-4.672a.6.6,0,0,1,.059-.6.611.611,0,0,1,.552-.244c1.925.235,7.74-1.811,9.687-3.958a.6.6,0,0,1,1.029.518c-.745,3.719-3.241,8.956-6.465,8.956m-3.365-4.34c1.087,2.062,2.241,3.145,3.365,3.145,2.006,0,3.874-3.217,4.832-6.227a21.019,21.019,0,0,1-8.2,3.082" transform="translate(27.565 16.013)"/>
          <path id="Trazado_819373" data-name="Trazado 819373" d="M149.892,65.513c-.825-2.073,1.2-4.412,4.928-2.837A15.148,15.148,0,0,1,161.649,69c1.327,2.486-.252,1.038-1.827-.2a10.868,10.868,0,0,0-7.617-2.614c-1.367.029-2.145.158-2.314-.671" transform="translate(29.133 12.096)" fill="#d4336e"/>
          <path id="Trazado_819374" data-name="Trazado 819374" d="M162.131,71.054c-.452,0-.957-.391-2.057-1.273l-.523-.418a10.2,10.2,0,0,0-6.93-2.488l-.737.016c-.219.006-.419.012-.6.012-.532,0-1.639,0-1.877-1.174a2.851,2.851,0,0,1,.3-2.672c.977-1.441,3.138-1.809,5.445-.834a15.639,15.639,0,0,1,7.125,6.594c.572,1.07.683,1.531.462,1.9a.812.812,0,0,1-.606.337m-9.51-5.375a11.419,11.419,0,0,1,7.669,2.745l.532.423.185.149a14.638,14.638,0,0,0-6.321-5.676c-1.77-.747-3.337-.561-3.994.4a1.752,1.752,0,0,0-.147,1.66c.057.239.074.32.736.32.171,0,.361-.006.566-.012Z" transform="translate(29.035 12.002)" fill="#d4336e"/>
          <path id="Trazado_819375" data-name="Trazado 819375" d="M131.875,70.649c2.653-4.532,13.268-15.923,28.085-22.226,0,13.933,7.405,35.6,24.545,36.153-.553,5.752-1.216,9.952.219,10.505s6.193-2.542,6.967-9.4c4.1-4.421,13.929-2.986,16.144,3.982s-4.534,17.8-16.916,12.826c-1.99-.332-4.424,3.317-3.98,11.277,10.061,1.106,21.119-2.432,27.2-12.825s4.974-23.1-1.332-33.282S205.291,53.4,206.51,48.2c18.355,3.759,29.755-9.077,27.27-25.329s-18.109-26.28-35.689-21.8S175.543,26.306,193.313,38.4c-2.49,2.818-10.134.068-19.754-4.408s-38.267-11.02-52.411,11.115c-14.485,22.666,6.967,37.481,12.439,35.99a30.472,30.472,0,0,1-1.713-10.449" transform="translate(22.615 0)" fill="#d4336e"/>
          <path id="Trazado_819376" data-name="Trazado 819376" d="M284.221,224.623c-11.279-26.092-15.038-41.573-25.873-68.551s-30.738-26.979-42.68-28.307-15.794-6.766-16.458-15.61c-24.545,9.067-29.319-2.523-29.76-1.638-2.1,13.049-6.193,13.047-20.349,11.056s-32.284,21.008-46.878,39.806c0,0-8.847-24.88-11.06-28.639-11.609,10.117-21.115,9.034-28.248,6.714,0,0,3.1,10.98,4.909,18.608-14.25,4.809,2.859,42.94,10.4,57.606,13.82,26.869,37.906,18.877,56.263-8.987,4.447,4.6,9.437,9.29,9.662,11.5a122.474,122.474,0,0,1-1.018,20.373c-1.1,6.634-6.632,25.653-6.632,26.315s7.074,17.913,7.074,17.913,69.437,1.328,69.219,11.278c10.614-1.548,46,.663,67.005-9.51s15.7-33.833,4.421-59.93m-53.958,29.634,2.874-31.4,7.961,30.517Z" transform="translate(12.13 21.497)" fill="#98d1ca"/>
          <path id="Trazado_819377" data-name="Trazado 819377" d="M284.841,224.418c-6.235-14.474-11.425-29.31-16.691-44.151-2.758-7.776-5.635-15.506-8.686-23.172a53.5,53.5,0,0,0-10.53-17.368c-6.658-7.033-15.759-10.37-25.176-11.6-4.794-.626-9.71-.707-14.339-2.221-6.313-2.063-8.97-7.395-9.507-13.657a.6.6,0,0,0-.756-.576c-8.259,2.986-20.4,6.417-27.832-.362-.508-.462-1.566-2.007-2.285-1-.555.779-.546,2.774-.774,3.741a19.307,19.307,0,0,1-1.246,3.66,6.99,6.99,0,0,1-4.68,3.973c-5.041,1.381-10.4-.83-15.459-.724-5.163.11-10.02,3.127-14.038,6.082-12.285,9.032-21.674,22.085-30.935,34.009l1,.264q-2.356-6.625-4.812-13.21c-1.917-5.154-3.581-10.768-6.307-15.572a.607.607,0,0,0-.939-.122c-8.134,6.92-17.347,9.84-27.667,6.561a.6.6,0,0,0-.735.735c1.741,6.174,3.415,12.369,4.909,18.607.141-.245.28-.49.418-.735-7.9,2.9-6.151,13.764-4.824,20.156C65.287,189,70,199.856,74.915,210.2c4.654,9.793,10.631,20.587,22.37,22.458,12.034,1.92,23.016-7.353,30.374-15.7a92.1,92.1,0,0,0,7.451-9.883c-.313.042-.625.081-.938.122,1.929,1.987,3.888,3.945,5.785,5.962,1.43,1.521,3.61,3.461,3.74,5.68a102.291,102.291,0,0,1-.252,12.071c-.5,8.349-2.708,16.281-4.874,24.321-.8,2.952-1.635,5.893-2.386,8.856-.346,1.369.33,2.507.824,3.794,1.954,5.082,4.028,10.117,6.094,15.155a.618.618,0,0,0,.576.438c10.888.211,21.786.808,32.636,1.727a198.122,198.122,0,0,1,24.008,3.193c2.583.541,11.91,1.915,11.977,5.762a.61.61,0,0,0,.756.576c9.822-1.362,19.973-.824,29.859-1.529,12.153-.867,24.665-2.479,35.914-7.4,25.6-11.2,14.274-42.166,6.01-61.386-.3-.707-1.332-.1-1.031.6,4.95,11.516,9.912,24,9.812,36.734a25.84,25.84,0,0,1-4.235,14.421c-3.425,5.053-9.056,7.917-14.615,9.99-11.394,4.254-23.893,5.4-35.944,6.112-8.648.511-17.5.113-26.088,1.3.251.194.5.385.755.577-.078-4.474-8.384-5.887-11.493-6.613-8.783-2.051-17.887-2.887-26.858-3.634-8.36-.7-16.742-1.142-25.125-1.443q-2.964-.106-5.926-.177c-.857-.019.338.857-.061-.115q-1.052-2.571-2.094-5.145-1.738-4.283-3.432-8.583c-.5-1.27-1.439-2.94-1.169-4.041,1.521-6.177,3.353-12.277,4.894-18.451a96.889,96.889,0,0,0,2.677-21.462c.051-2.1.622-5.364-.38-7.342-2.119-4.183-6.3-7.489-9.511-10.8a.6.6,0,0,0-.938.121c-7.119,10.687-17.105,22.494-30.446,24.929-12.854,2.344-21.11-8.5-26.165-18.675a178.64,178.64,0,0,1-12.032-29.964c-1.784-6.21-6.01-20.849,2.653-24.031a.612.612,0,0,0,.417-.736c-1.494-6.237-3.169-12.435-4.909-18.607l-.735.735c10.75,3.415,20.366.333,28.828-6.868l-.938-.121c2.779,4.894,4.456,10.632,6.411,15.886q2.337,6.288,4.587,12.61c.134.374.7.65,1,.264,9.393-12.094,18.889-25.144,31.343-34.3,5.044-3.708,10.336-5.986,16.638-5.12,4.181.572,9.06,1.54,13.139-.039,3.357-1.3,4.715-4.851,5.547-8.068.294-1.142.931-2.473,0-3.254.189.159.356.349.529.526a16.125,16.125,0,0,0,1.989,1.7c7.8,5.674,19.422,2.423,27.538-.511-.252-.192-.5-.383-.756-.577.383,4.482,1.58,8.755,5.023,11.847,3.825,3.433,9.323,4.1,14.219,4.587,10,.994,19.612,2.817,27.545,9.455,5.71,4.777,9.577,11.379,12.371,18.187,3.279,7.99,6.229,16.122,9.121,24.259,5.314,14.936,10.536,29.866,16.813,44.436.3.706,1.332.1,1.031-.6" transform="translate(12.026 21.402)" fill="#7db3db"/>
          <path id="Trazado_819378" data-name="Trazado 819378" d="M203.6,236.045l2.874-31.4-1.173.159q3.98,15.258,7.961,30.517l.576-.756L203,235.448c-.762.062-.769,1.258,0,1.195l10.835-.884a.608.608,0,0,0,.577-.756q-3.982-15.26-7.961-30.517a.6.6,0,0,0-1.174.159l-2.874,31.4c-.07.768,1.124.761,1.195,0" transform="translate(39.388 39.709)" fill="#7db3db"/>
          <path id="Trazado_819379" data-name="Trazado 819379" d="M91.28,246.819c4.867-4.645,16.585-12.826,19.461-8.626,3.98-3.094,7.518-2.431,7.518-2.431,3.317-3.538,7.3-4.425,11.278.221s15.92,14.594,17.913,16.585,17.471,1.547,52.191-5.971c7.074,2.875,7.457,22.9,7.457,22.9-12.889.816-107.827.364-107.827.364Z" transform="translate(17.763 45.303)" fill="#ffd4d4"/>
          <path id="Trazado_819380" data-name="Trazado 819380" d="M128.654,258.8a.6.6,0,0,1-.426-.179l-.164-.167a.583.583,0,0,1-.145-.244,10.524,10.524,0,0,1-1.143-2.6c-.311-.619-.6-1.236-.886-1.853s-.584-1.253-.92-1.922c-.728-1.125-1.408-2.4-2.067-3.635-.516-.971-1.048-1.967-1.616-2.912-.855,1-1.773,1.963-2.665,2.9a52.382,52.382,0,0,0-3.756,4.24l-.214.286c-1.478,1.99-4.23,5.688-7.691,3.683a3.645,3.645,0,0,1-1.886-2.272c-.607-2.12.616-4.56,1.171-5.511.848-1.359,1.782-2.675,2.685-3.947.891-1.256,1.812-2.554,2.632-3.863.444-.669.843-1.358,1.242-2.046a19.018,19.018,0,0,1,2.823-4.029.6.6,0,0,1,.845.845,17.867,17.867,0,0,0-2.633,3.783c-.412.71-.824,1.42-1.273,2.1-.828,1.325-1.76,2.639-2.66,3.908s-1.817,2.56-2.638,3.872c-.363.624-1.539,2.84-1.045,4.567a2.476,2.476,0,0,0,1.316,1.554c2.371,1.371,4.262-.8,6.155-3.35l.219-.294a53.319,53.319,0,0,1,3.843-4.342c1.115-1.172,2.169-2.278,3.139-3.473a.592.592,0,0,1,.5-.219.6.6,0,0,1,.469.272c.76,1.183,1.439,2.457,2.1,3.691.646,1.214,1.315,2.468,2.049,3.608.373.735.669,1.37.966,2.008.283.606.566,1.215.89,1.862a.969.969,0,0,1,.044.116,8.218,8.218,0,0,0,1.214,2.6.6.6,0,0,1-.467.97" transform="translate(20.416 45.643)"/>
          <path id="Trazado_819381" data-name="Trazado 819381" d="M100.035,253.884a4.8,4.8,0,0,1-3.833-1.712c-2.189-3.055.984-6.227,2.027-7.27,3.555-3.382,7.8-5.759,11.907-8.059a.6.6,0,1,1,.583,1.043c-4.04,2.264-8.22,4.6-11.655,7.871-2.377,2.376-2.989,4.188-1.915,5.69,1.324,1.614,3.725,1.468,5.384.642a25.192,25.192,0,0,0,5-3.382l.786.9a26.2,26.2,0,0,1-5.268,3.559,6.85,6.85,0,0,1-3.012.718" transform="translate(18.574 46.075)"/>
          <path id="Trazado_819382" data-name="Trazado 819382" d="M93.228,251.422a.6.6,0,0,1-.082-1.189,6.847,6.847,0,0,0,3.31-1.49.6.6,0,1,1,.845.845,7.967,7.967,0,0,1-3.988,1.828.677.677,0,0,1-.085.006" transform="translate(18.026 48.371)"/>
          <path id="Trazado_819383" data-name="Trazado 819383" d="M125.856,201.78a.6.6,0,0,1-.407-.161,23.547,23.547,0,0,1-5.333-8.532c-3.506-10.974-.7-22.387,2.866-33.087.194-.581-.757-1.646-1.386-2.35-.245-.276-.477-.536-.657-.769-.628-1.066-1.214-2.067-1.794-3.07a.6.6,0,1,1,1.033-.6q.871,1.505,1.749,3c.123.151.334.389.561.642.908,1.018,2.039,2.286,1.627,3.524-3.5,10.508-6.264,21.7-2.86,32.345a22.553,22.553,0,0,0,5.008,8.023.6.6,0,0,1-.407,1.033" transform="translate(23.062 29.757)"/>
          <path id="Trazado_819384" data-name="Trazado 819384" d="M71.649,152.731a11.256,11.256,0,0,1-5.852-1.207.6.6,0,0,1,.657-1c3.585,2.364,16.213.876,26.311-6.016a.6.6,0,1,1,.674.987c-7.494,5.114-15.991,7.234-21.79,7.234" transform="translate(12.752 28.102)"/>
          <path id="Trazado_819385" data-name="Trazado 819385" d="M100.789,168.831a.6.6,0,0,1-.585-.485c-1.082-5.659-2-8.592-5.158-16.52a.6.6,0,1,1,1.111-.441c3.193,8.013,4.119,10.987,5.22,16.736a.6.6,0,0,1-.474.7.609.609,0,0,1-.113.011" transform="translate(18.488 29.386)"/>
          <path id="Trazado_819386" data-name="Trazado 819386" d="M215.429,241.538a.6.6,0,0,1-.575-.431c-.932-3.237-1.928-6.951-2.983-10.884-2.107-7.86-4.5-16.771-7.024-24.2-3.645-10.713-6.566-21.626-9.735-33.757a.6.6,0,0,1,.428-.729.591.591,0,0,1,.728.428c3.163,12.107,6.079,23,9.711,33.673,2.541,7.47,4.935,16.4,7.047,24.28,1.054,3.927,2.048,7.635,2.977,10.86a.6.6,0,0,1-.407.739.575.575,0,0,1-.166.024" transform="translate(37.965 33.376)"/>
          <path id="Trazado_819387" data-name="Trazado 819387" d="M181.671,247.216a.587.587,0,0,1-.417-.173.729.729,0,0,1-.174-.718.768.768,0,0,1,.658-.386.441.441,0,0,0,.166-.019.636.636,0,0,1,.123-.047c.263-.066.527-.161.8-.259a9.858,9.858,0,0,1,1.377-.412,18.226,18.226,0,0,0,2.64-.633l.632-.183c.561-.1,1.055-.141,1.53-.184.205-.017.407-.035.6-.055-.032-.076-.066-.151-.1-.227a7.725,7.725,0,0,1-.964-4.541c.44-2.842,3.119-4.821,4.25-5.538,3.021-1.871,6.582-2.408,10.027-2.929.662-.1,1.319-.2,1.967-.307a79.541,79.541,0,0,1,8.39-.747c1.367-.073,2.734-.145,4.1-.253,3.261-.166,6.618-.336,10-.336h7.3a.6.6,0,0,1,0,1.195h-7.3c-3.35,0-6.689.168-9.919.332-1.362.109-2.739.182-4.115.254a78.454,78.454,0,0,0-8.262.733c-.65.109-1.314.209-1.982.309-3.326.5-6.764,1.021-9.571,2.758-.988.628-3.339,2.351-3.707,4.725a6.745,6.745,0,0,0,.88,3.863c.142.323.283.644.411.964a.6.6,0,0,1-.437.809,13.821,13.821,0,0,1-1.468.18c-.446.038-.907.078-1.37.156l-.559.166a18.949,18.949,0,0,1-2.774.664,8.61,8.61,0,0,0-1.179.361c-.294.1-.576.2-.857.277a1.374,1.374,0,0,1-.38.1.6.6,0,0,1-.324.1" transform="translate(35.231 44.616)"/>
          <path id="Trazado_819388" data-name="Trazado 819388" d="M198.894,266.095a.6.6,0,0,1-.6-.6,35.241,35.241,0,0,0-2.117-12.4l-.29-.817a22.562,22.562,0,0,0-2.629-5.685,13.769,13.769,0,0,0-4.935-4.129.6.6,0,1,1,.572-1.048,14.9,14.9,0,0,1,5.358,4.514,23.529,23.529,0,0,1,2.761,5.949l.284.8a36.213,36.213,0,0,1,2.19,12.43c0,.013,0,.029,0,.044v.332a.6.6,0,0,1-.6.6" transform="translate(36.588 46.967)"/>
          <path id="Trazado_819389" data-name="Trazado 819389" d="M141.268,265.26h-.035a.6.6,0,0,1-.561-.631,63.25,63.25,0,0,1,3.043-11.213,48.536,48.536,0,0,0,2.055-6.285c.254-.919.511-1.844.8-2.779,2.248-7.393,4.166-14.086,4.833-21.1a33.7,33.7,0,0,0,.661-6.576,18.758,18.758,0,0,0-1.294-6c-.4-1.272-.82-2.533-1.24-3.8-.971-2.929-1.977-5.96-2.757-9.075a63.005,63.005,0,0,1-2.226-12.912,22.965,22.965,0,0,1,.251-5.11c.069-.547.137-1.1.192-1.644l.055-.555c.21-2.114.429-4.3.837-6.355.342-1.144.613-2.235.886-3.326s.56-2.239.9-3.364a47.905,47.905,0,0,1,1.658-4.815c.257-.667.52-1.35.782-2.071.738-2.335,1.4-4.714,2.1-7.233.533-1.915,1.07-3.848,1.65-5.781.209-1.058.491-2.185.763-3.272s.553-2.211.772-3.309c.141-.5.252-.94.361-1.37a19.944,19.944,0,0,1,1-3.172.6.6,0,0,1,1.1.471,19.05,19.05,0,0,0-.94,2.994c-.112.441-.226.889-.36,1.357-.213,1.08-.5,2.218-.773,3.319-.269,1.075-.546,2.186-.765,3.272-.59,1.979-1.125,3.9-1.656,5.812-.673,2.418-1.367,4.918-2.119,7.3-.275.754-.539,1.443-.8,2.117a47.485,47.485,0,0,0-1.627,4.716c-.334,1.113-.615,2.236-.888,3.323-.277,1.109-.556,2.218-.888,3.325-.383,1.945-.6,4.1-.806,6.184l-.056.558c-.054.558-.124,1.116-.195,1.672a21.86,21.86,0,0,0-.248,4.843,62.216,62.216,0,0,0,2.187,12.708c.779,3.1,1.778,6.114,2.742,9.023.423,1.272.842,2.537,1.241,3.8a19.9,19.9,0,0,1,1.353,6.372,34.545,34.545,0,0,1-.674,6.751c-.671,7.066-2.6,13.818-4.872,21.275-.282.925-.536,1.841-.788,2.751a50.565,50.565,0,0,1-2.106,6.435,62.711,62.711,0,0,0-2.949,10.811.6.6,0,0,1-.6.563" transform="translate(27.375 25.91)"/>
          <path id="Trazado_819390" data-name="Trazado 819390" d="M171.1,134.2a5.767,5.767,0,0,1-4.729-2.8c-2.261-2.886-2.78-6.349-3.282-9.7-.1-.683-.208-1.381-.327-2.075-.916,1.559-1.847,3.1-2.869,4.636l-.281.425c-1.432,2.172-4.1,6.214-7.109,6.591a3.814,3.814,0,0,1-3.127-1.1c-2.393-2.221-2.218-5.039-2.05-7.763l.03-.509a.6.6,0,1,1,1.192.07l-.03.511c-.158,2.56-.307,4.977,1.666,6.812a2.634,2.634,0,0,0,2.172.793c2.463-.307,5.027-4.194,6.259-6.063l.284-.43c1.3-1.948,2.461-3.936,3.583-5.858a.664.664,0,0,1,.631-.331.586.586,0,0,1,.516.421c.272,1.222.46,2.479.641,3.694.5,3.345.976,6.5,3.063,9.17.852,1.232,2.664,3.084,5.444,1.97a39.821,39.821,0,0,0,7.042-3.271,23.142,23.142,0,0,0,5.656-4.849.6.6,0,0,1,.917.766,24.342,24.342,0,0,1-5.948,5.1,40.822,40.822,0,0,1-7.245,3.371,5.631,5.631,0,0,1-2.1.424" transform="translate(28.652 22.847)"/>
          <path id="Trazado_819391" data-name="Trazado 819391" d="M158.589,133.3a2.413,2.413,0,0,1-.435-.039,2,2,0,0,1-1.633-1.645,3,3,0,0,1,1.037-3.12,2.871,2.871,0,0,1,3.151-.174.6.6,0,0,1,.3.664,2.139,2.139,0,0,1,.306.671,2.977,2.977,0,0,1-.409,2.366,2.785,2.785,0,0,1-2.313,1.277m.645-4.173a1.565,1.565,0,0,0-.954.32,1.812,1.812,0,0,0-.591,1.917.815.815,0,0,0,.68.722,1.6,1.6,0,0,0,1.549-.738,1.8,1.8,0,0,0,.239-1.382.8.8,0,0,0-.465-.571.6.6,0,0,1-.287-.259,1.618,1.618,0,0,0-.171-.008" transform="translate(30.442 24.896)"/>
          <path id="Trazado_819392" data-name="Trazado 819392" d="M154.065,159.727a2.564,2.564,0,0,1-1.7-.743,2.881,2.881,0,0,1-.846-2.295,3.879,3.879,0,0,1,1.546-2.777,1.982,1.982,0,0,1,2.3-.118.669.669,0,0,1,.27.2,1.606,1.606,0,0,1,1.1,1.419,4.326,4.326,0,0,1-1.7,4.059,2.012,2.012,0,0,1-.966.253m.13-5.052a.693.693,0,0,0-.417.194,2.7,2.7,0,0,0-1.069,1.9,1.676,1.676,0,0,0,.471,1.342c.711.624,1.136.392,1.273.313a3.2,3.2,0,0,0,1.1-2.82c-.017-.1-.082-.431-.248-.462a.6.6,0,0,1-.379-.239l-.008,0a2.37,2.37,0,0,0-.722-.227" transform="translate(29.484 29.868)"/>
          <path id="Trazado_819393" data-name="Trazado 819393" d="M152.082,187.117a2.083,2.083,0,0,1-1.609-.9,4.029,4.029,0,0,1-.63-2.886,2.309,2.309,0,0,1,.925-1.639.6.6,0,0,1,.566-.053.57.57,0,0,1,.625-.545,2.392,2.392,0,0,1,2.327,2.033,3.671,3.671,0,0,1-1.505,3.831,1.626,1.626,0,0,1-.7.158m-.388-4.876a.6.6,0,0,1-.264.446,1.189,1.189,0,0,0-.4.828,2.863,2.863,0,0,0,.375,1.951c.323.393.614.538.868.416a2.61,2.61,0,0,0,.847-2.518,1.192,1.192,0,0,0-1.215-1.075.621.621,0,0,1-.207-.047" transform="translate(29.151 35.24)"/>
          <path id="Trazado_819394" data-name="Trazado 819394" d="M153.719,226.764a1.553,1.553,0,0,1-.852-.251c-1.089-.692-1.318-2.642-1.064-3.785a.6.6,0,0,1,.32-.406.6.6,0,0,1,.326-.495,1.025,1.025,0,0,0,.3-.306,2.365,2.365,0,0,1,.209-.247.551.551,0,0,1,.153-.111,2.127,2.127,0,0,1,2.515.608,3.162,3.162,0,0,1-.372,4.365,2.557,2.557,0,0,1-1.539.627m-.737-3.866a.6.6,0,0,1-.013.09c-.186.84.031,2.194.541,2.518.272.18.7-.067,1-.3a1.977,1.977,0,0,0,.237-2.629,1.062,1.062,0,0,0-1.006-.381c-.014.018-.029.036-.042.055a2.123,2.123,0,0,1-.71.645l-.008,0" transform="translate(29.523 43)"/>
          <path id="Trazado_819395" data-name="Trazado 819395" d="M71.6,105c-2.321-2.544-8.183-5.64-13.378-8.184-4.408-2.156-10.286,1.88-3.983,8.625S72.378,115.5,72.378,115.5" transform="translate(10.019 18.726)" fill="#ffd4d4"/>
          <path id="Trazado_819396" data-name="Trazado 819396" d="M72.477,116.194a.584.584,0,0,1-.161-.023c-.49-.137-12.065-3.439-18.411-10.227-4.179-4.473-2.874-7.328-2.119-8.347,1.408-1.905,4.335-2.429,6.8-1.223,5.023,2.46,11.1,5.628,13.558,8.318a.6.6,0,0,1-.883.805c-2.344-2.57-8.657-5.825-13.2-8.049-1.928-.944-4.261-.564-5.317.859-1.2,1.623-.441,4.173,2.033,6.82,6.119,6.548,17.743,9.861,17.86,9.894a.6.6,0,0,1-.161,1.173" transform="translate(9.921 18.629)"/>
          <path id="Trazado_819397" data-name="Trazado 819397" d="M166.151,264.528H118.994L100.019,209.1a13.941,13.941,0,0,0-12.3-8.786H7.192c-5.107,0-7.932,3.955-6.278,8.786L20.461,266.2c2.14,5.543,2.389,10.105,7.946,10.105H166.151a5.888,5.888,0,0,0,0-11.775" transform="translate(0.086 38.982)" fill="#f2ac30"/>
          <path id="Trazado_819398" data-name="Trazado 819398" d="M166.237,264.06H119.551c-.923,0,.234.816-.018.078l-2.154-6.292q-4.372-12.767-8.743-25.535-3.67-10.717-7.337-21.432c-2.143-6.26-7.08-11.029-14.059-11.029H16.587c-4.05,0-9.5-.836-13.292.931-6.091,2.84-2.16,10.689-.637,15.138l8.694,25.395q3.845,11.235,7.692,22.468c1.76,5.136,2.789,13.248,9.535,13.248H166.207c8.446,0,8.313-12.412.03-12.97-.771-.051-.765,1.143,0,1.195,7.293.491,6.421,10.581-.57,10.581H28.711c-5.3,0-6.207-5.635-7.6-9.7q-.812-2.367-1.622-4.735-8.25-24.1-16.5-48.2-.706-2.064-1.412-4.125c-1.784-5.21,2.138-8.031,6.8-8.031H80.032c6.826,0,13.243-.67,18.035,5.585,1.322,1.726,1.9,4.04,2.595,6.073q1.7,4.953,3.393,9.909,7.223,21.1,14.45,42.2a.609.609,0,0,0,.576.438h47.157a.6.6,0,0,0,0-1.195" transform="translate(0 38.852)" fill="#f2ac30"/>
          <path id="Trazado_819399" data-name="Trazado 819399" d="M111.556,256.452H17.9a.6.6,0,1,1,0-1.195h93.657a.6.6,0,1,1,0,1.195" transform="translate(3.367 49.673)"/>
          <path id="Trazado_819400" data-name="Trazado 819400" d="M50.858,242.7c-4.088,0-8.584-4.052-10.024-9.035-.825-2.855-.526-5.521.824-7.317a5.149,5.149,0,0,1,4.23-2.048c4.09,0,8.584,4.053,10.021,9.036.825,2.853.524,5.52-.825,7.317a5.146,5.146,0,0,1-4.226,2.046m-4.97-17.2a3.933,3.933,0,0,0-3.276,1.57c-1.122,1.493-1.351,3.777-.631,6.269,1.3,4.506,5.283,8.171,8.876,8.171a3.93,3.93,0,0,0,3.272-1.57c1.123-1.493,1.352-3.777.632-6.268-1.3-4.507-5.279-8.172-8.873-8.172" transform="translate(7.857 43.65)"/>
          <path id="Trazado_819401" data-name="Trazado 819401" d="M139.991,66.085c-2.828-3.44-7.037-6.428-8.74-5.605s-2.07,3.417-.873,3.954,1.635-1.653,5.579.067c3.456,1.505,4.318,2.206,4.034,1.584" transform="translate(25.235 11.742)" fill="#d4336e"/>
          <path id="Trazado_819402" data-name="Trazado 819402" d="M140.068,67.006h0a3.974,3.974,0,0,1-1.43-.557c-.638-.308-1.554-.753-2.822-1.3a6.32,6.32,0,0,0-2.429-.622,3.144,3.144,0,0,0-1.472.382,1.983,1.983,0,0,1-1.686.17,1.962,1.962,0,0,1-1.051-1.866,3.559,3.559,0,0,1,1.91-3.172,2.13,2.13,0,0,1,.931-.2c2.358,0,6.155,3.07,8.531,5.961a.609.609,0,0,1,.081.13.8.8,0,0,1,0,.774.732.732,0,0,1-.564.3m-6.68-3.677a7.364,7.364,0,0,1,2.906.722c.694.3,1.285.572,1.784.806-2.221-2.215-4.7-3.82-6.058-3.82a.959.959,0,0,0-.411.078,2.353,2.353,0,0,0-1.235,2.081c0,.149.032.65.348.791a.32.32,0,0,0,.142.036,1.67,1.67,0,0,0,.544-.2,4.3,4.3,0,0,1,1.981-.5" transform="translate(25.138 11.645)" fill="#d4336e"/>
          <path id="Trazado_819403" data-name="Trazado 819403" d="M187.491,40.621a.6.6,0,0,1-.526-.314,32.07,32.07,0,0,1-2.736-6.242,19.94,19.94,0,0,1-1.368-6.734,3.789,3.789,0,0,1,1.8-3.5,2.921,2.921,0,0,1,3.181.478c5.186,3.976,2.493,12.264,1.094,15.643a.594.594,0,0,1-.78.323.572.572,0,0,1-.1-.055.595.595,0,0,1-.564.4m-1.683-15.867a1.318,1.318,0,0,0-.6.145,2.664,2.664,0,0,0-1.147,2.432,18.972,18.972,0,0,0,1.309,6.37,30.045,30.045,0,0,0,2.492,5.742c1.3-3.157,3.763-10.731-.731-14.176a2.339,2.339,0,0,0-1.319-.512" transform="translate(35.585 4.585)"/>
          <path id="Trazado_819404" data-name="Trazado 819404" d="M200.035,43.625a17.04,17.04,0,0,1-6.157-1.663l-.82-.333c-2.1-.9-4.371-1.809-6.57-2.688a.6.6,0,0,1,.221-1.152h.019a.6.6,0,0,1,.339-.4l1.213-.539a33.163,33.163,0,0,1,6.364-2.335c3.1-.618,7.348-.168,9.165,3.133a3.88,3.88,0,0,1-3.328,5.961c-.148.01-.3.013-.446.013m-12.006-5.354c1.856.744,3.736,1.5,5.487,2.254l.815.332c2.025.828,4.118,1.69,6.079,1.563a2.693,2.693,0,0,0,2.347-4.2c-1.5-2.727-5.171-3.069-7.868-2.531a32.233,32.233,0,0,0-6.121,2.255Z" transform="translate(36.217 6.671)"/>
          <path id="Trazado_819405" data-name="Trazado 819405" d="M195,44.833a.6.6,0,0,1-.358-.119c-.539-.4-1.051-.868-1.546-1.318a17.585,17.585,0,0,0-2.01-1.65,28.734,28.734,0,0,1-2.622-1.837c-.5-.38-1.015-.768-1.571-1.156a77.184,77.184,0,0,1-6.352-5.891.6.6,0,0,1,.846-.846A75.553,75.553,0,0,0,187.6,37.8c.536.375,1.061.772,1.576,1.161a28.215,28.215,0,0,0,2.539,1.78,18.485,18.485,0,0,1,2.175,1.775c.325.3.639.581.957.846a.614.614,0,0,1,.742.579v.3a.6.6,0,0,1-.33.534.607.607,0,0,1-.268.063" transform="translate(35.098 6.196)"/>
        </g>
      </g>
      <path id="Sustracción_11" data-name="Sustracción 11" d="M162.285,82.054H0v-.508A82.516,82.516,0,0,1,1.649,65.108,81.463,81.463,0,0,1,49.56,6.408a80.9,80.9,0,0,1,63.166,0,81.153,81.153,0,0,1,13.784,7.514,81.573,81.573,0,0,1,35.776,67.623c0,.167,0,.333,0,.494v.014Z" transform="translate(915.714 5132.946)" fill="#283859"/>
      <rect id="web-AdobeStock_200818697-2" data-name="web-AdobeStock_200818697" width="304.522" height="14.645" rx="7.323" transform="translate(1103.192 5185)" fill="#283859"/>
    </g>
  </g>
</svg>
