<svg xmlns="http://www.w3.org/2000/svg" xmlns:xlink="http://www.w3.org/1999/xlink" width="504.286" height="414.722" viewBox="0 0 504.286 414.722">
  <defs>
    <clipPath id="clip-path">
      <rect id="Rectángulo_381839" data-name="Rectángulo 381839" width="484.923" height="367.722" fill="none"/>
    </clipPath>
    <clipPath id="clip-path-8">
      <rect id="Rectángulo_381830" data-name="Rectángulo 381830" width="83.244" height="109.512" fill="none"/>
    </clipPath>
    <clipPath id="clip-path-9">
      <rect id="Rectángulo_381831" data-name="Rectángulo 381831" width="14.559" height="64.004" fill="none"/>
    </clipPath>
    <clipPath id="clip-path-10">
      <rect id="Rectángulo_381832" data-name="Rectángulo 381832" width="44.96" height="17.834" fill="none"/>
    </clipPath>
    <clipPath id="clip-path-11">
      <rect id="Rectángulo_381833" data-name="Rectángulo 381833" width="17.654" height="18.196" fill="none"/>
    </clipPath>
    <clipPath id="clip-path-12">
      <rect id="Rectángulo_381834" data-name="Rectángulo 381834" width="17.471" height="6.746" fill="none"/>
    </clipPath>
    <clipPath id="clip-path-13">
      <rect id="Rectángulo_381835" data-name="Rectángulo 381835" width="45.64" height="18.103" fill="none"/>
    </clipPath>
    <clipPath id="clip-path-14">
      <rect id="Rectángulo_381836" data-name="Rectángulo 381836" width="17.92" height="18.471" fill="none"/>
    </clipPath>
    <clipPath id="clip-path-15">
      <rect id="Rectángulo_381837" data-name="Rectángulo 381837" width="17.735" height="6.849" fill="none"/>
    </clipPath>
  </defs>
  <g id="Grupo_1072478" data-name="Grupo 1072478" transform="translate(-180 -7890)">
    <rect id="web-AdobeStock_200818697" width="417.776" height="224.6" rx="13" transform="translate(266.51 7890)" fill="#98d1ca"/>
    <path id="Sustracción_13" data-name="Sustracción 13" d="M463.579,0H0V1.452A235.715,235.715,0,0,0,4.709,48.406a232.23,232.23,0,0,0,13.5,43.718A233.055,233.055,0,0,0,39.585,131.7a233.692,233.692,0,0,0,28.3,34.471,234.475,234.475,0,0,0,34.3,28.455,231.993,231.993,0,0,0,39.378,21.464,229.446,229.446,0,0,0,43.513,13.567,232.629,232.629,0,0,0,93.426,0,228.98,228.98,0,0,0,43.5-13.567,231.821,231.821,0,0,0,39.374-21.464,234.426,234.426,0,0,0,34.308-28.455,234.594,234.594,0,0,0,28.3-34.471,233.753,233.753,0,0,0,21.369-39.573,232.254,232.254,0,0,0,13.51-43.718,235.85,235.85,0,0,0,4.709-46.954c0-.477,0-.95,0-1.412V0Z" transform="translate(684.286 8304.682) rotate(180)" fill="#f0f8f7"/>
    <g id="Grupo_1071549" data-name="Grupo 1071549" transform="translate(180 7890)">
      <path id="Sustracción_2" data-name="Sustracción 2" d="M143.781,71.808H0v-.451a71.321,71.321,0,0,1,1.462-14.38A70.67,70.67,0,0,1,12.278,31.459,71.915,71.915,0,0,1,57.406,1.45a73.113,73.113,0,0,1,28.974,0,71.783,71.783,0,0,1,25.707,10.737,72.064,72.064,0,0,1,19.419,19.272,70.648,70.648,0,0,1,12.279,39.9c0,.148,0,.294,0,.439v.012Z" transform="translate(71.808 40.09) rotate(90)" fill="#d8dcfc"/>
      <path id="Trazado_818001" data-name="Trazado 818001" d="M325.19,449.693a5.269,5.269,0,0,0,1.548,3.738l5.35,5.348-5.35,5.348a5.287,5.287,0,1,0,7.477,7.477l5.348-5.348,5.348,5.348a5.286,5.286,0,0,0,7.475-7.477l-5.348-5.348,5.348-5.348a5.286,5.286,0,0,0,0-7.475h0a5.287,5.287,0,0,0-7.475,0l-5.348,5.348-5.348-5.348a5.288,5.288,0,0,0-7.477,0h0a5.269,5.269,0,0,0-1.548,3.738Z" transform="translate(-325.19 -444.408)" fill="#8054f8"/>
    </g>
    <g id="Grupo_1072477" data-name="Grupo 1072477" transform="translate(180 7937)">
      <g id="Grupo_1072476" data-name="Grupo 1072476" clip-path="url(#clip-path)">
        <g id="Grupo_1072441" data-name="Grupo 1072441">
          <g id="Grupo_1072440" data-name="Grupo 1072440" clip-path="url(#clip-path)">
            <path id="Trazado_819503" data-name="Trazado 819503" d="M221.739,240.1l3.981-2.412,5.35,5.542-2.551,3.893a18.914,18.914,0,0,1,1.839,4.672l4.522,1.108-.135,7.7-4.558.949a18.893,18.893,0,0,1-2,4.607l2.412,3.98-5.542,5.35-3.893-2.551a18.891,18.891,0,0,1-4.672,1.839l-1.11,4.522-7.7-.135-.949-4.56a18.849,18.849,0,0,1-4.607-2l-3.98,2.413-5.35-5.543,2.551-3.893a18.889,18.889,0,0,1-1.839-4.672l-4.522-1.11.136-7.7,4.557-.949a18.853,18.853,0,0,1,2-4.607l-2.412-3.98,5.542-5.35,3.893,2.551a18.866,18.866,0,0,1,4.673-1.839l1.109-4.522,7.7.135.95,4.558a18.88,18.88,0,0,1,4.6,2m-15.79,10.055a8.264,8.264,0,1,0,11.685.206,8.265,8.265,0,0,0-11.685-.206" transform="translate(8.466 10.455)" fill="#f5f5f5"/>
          </g>
        </g>
        <path id="Trazado_819504" data-name="Trazado 819504" d="M477.953,339l-55.147-37.24-267.2-1.277L143.37,339.563Z" transform="translate(6.422 13.46)" fill="#455a64"/>
        <path id="Trazado_819505" data-name="Trazado 819505" d="M143.9,337.7l.147,14.941,334.435-.243V336.655Z" transform="translate(6.446 15.081)" fill="#455a64"/>
        <g id="Grupo_1072443" data-name="Grupo 1072443">
          <g id="Grupo_1072442" data-name="Grupo 1072442" clip-path="url(#clip-path)">
            <path id="Trazado_819506" data-name="Trazado 819506" d="M151.888,337.585c0,.15,72.217.237,161.281.2,89.095-.043,161.3-.2,161.3-.349s-72.2-.237-161.3-.2c-89.064.043-161.281.2-161.281.349" transform="translate(6.804 15.106)" fill="#263238"/>
          </g>
        </g>
        <g id="Grupo_1072445" data-name="Grupo 1072445">
          <g id="Grupo_1072444" data-name="Grupo 1072444" clip-path="url(#clip-path)">
            <path id="Trazado_819507" data-name="Trazado 819507" d="M437.7,166.54h-96.77a3.2,3.2,0,0,1-3.195-3.195V3.456A3.2,3.2,0,0,1,340.929.261H437.7a3.2,3.2,0,0,1,3.2,3.195V163.345a3.2,3.2,0,0,1-3.2,3.195" transform="translate(15.129 0.012)" fill="#fff"/>
            <path id="Trazado_819508" data-name="Trazado 819508" d="M440.894,18.84H337.734V4.03A3.769,3.769,0,0,1,341.5.26h95.764a3.628,3.628,0,0,1,3.628,3.628Z" transform="translate(15.129 0.012)" fill="#e0e0e0"/>
            <path id="Trazado_819509" data-name="Trazado 819509" d="M437.445,166.552a3.993,3.993,0,0,0,1.33-.3,3.524,3.524,0,0,0,1.321-1.007,3.451,3.451,0,0,0,.754-2.138c-.011-3.56-.029-8.792-.05-15.527-.021-13.495-.05-33-.087-57.107-.017-24.113-.037-52.821-.059-84.7v-1.5a4.836,4.836,0,0,0-.122-1.421A3.211,3.211,0,0,0,438.765.812,3.175,3.175,0,0,0,437.4.527h-4.571l-12.38,0L394.914.539l-53.7.005a3.186,3.186,0,0,0-3.188,2.928C338,4,338.024,4.6,338.017,5.164V12q0,6.814,0,13.535,0,13.439,0,26.462c-.005,17.348-.01,34.082-.016,50.024s-.018,31.088-.025,45.266q0,5.316-.008,10.447,0,2.566,0,5.082a3.292,3.292,0,0,0,2.569,3.454,17.679,17.679,0,0,0,2.407.074l2.429,0,4.784,0,9.254.009,57.1.087,15.525.051,4.037.026c.91.009,1.376.028,1.376.028s-.466.019-1.376.028l-4.037.026-15.525.051-57.1.087-9.254.009-4.784,0-2.429,0a17.737,17.737,0,0,1-2.494-.078,3.686,3.686,0,0,1-2.17-1.386,3.773,3.773,0,0,1-.741-2.479q0-2.517,0-5.082,0-5.129-.007-10.447c-.008-14.178-.017-29.325-.025-45.266s-.01-32.676-.016-50.024q0-13.012,0-26.462,0-6.72,0-13.535,0-3.407,0-6.836c.007-.581-.015-1.121.016-1.737A3.731,3.731,0,0,1,341.219,0l53.7.006,25.535.006,12.38,0H437.4a3.719,3.719,0,0,1,3.617,2.709,5.354,5.354,0,0,1,.141,1.557v1.5c-.022,31.876-.042,60.584-.059,84.7-.037,24.1-.066,43.613-.087,57.107-.022,6.735-.04,11.967-.051,15.527a3.5,3.5,0,0,1-2.164,3.2,3.6,3.6,0,0,1-1,.24c-.232.006-.348,0-.348,0" transform="translate(15.117 0)" fill="#263238"/>
            <path id="Trazado_819510" data-name="Trazado 819510" d="M352.549,10.668A3.044,3.044,0,1,1,349.5,7.625a3.045,3.045,0,0,1,3.045,3.043" transform="translate(15.52 0.342)" fill="#fff"/>
            <path id="Trazado_819511" data-name="Trazado 819511" d="M361.511,10.668a3.043,3.043,0,1,1-3.043-3.043,3.044,3.044,0,0,1,3.043,3.043" transform="translate(15.921 0.342)" fill="#fff"/>
            <path id="Trazado_819512" data-name="Trazado 819512" d="M370.473,10.668a3.044,3.044,0,1,1-3.043-3.043,3.044,3.044,0,0,1,3.043,3.043" transform="translate(16.323 0.342)" fill="#fff"/>
            <path id="Trazado_819513" data-name="Trazado 819513" d="M381.6,42.333h-19a2.061,2.061,0,1,1,0-4.123h19a2.061,2.061,0,0,1,0,4.123" transform="translate(16.151 1.712)" fill="#263238"/>
            <path id="Trazado_819514" data-name="Trazado 819514" d="M381.6,52.66h-19a2.061,2.061,0,1,1,0-4.123h19a2.061,2.061,0,0,1,0,4.123" transform="translate(16.151 2.174)" fill="#e0e0e0"/>
            <path id="Trazado_819515" data-name="Trazado 819515" d="M382.121,80.947h-19a2.061,2.061,0,0,1,0-4.123h19a2.061,2.061,0,1,1,0,4.123" transform="translate(16.174 3.441)" fill="#e0e0e0"/>
            <path id="Trazado_819516" data-name="Trazado 819516" d="M381.6,63.332h-19a2.061,2.061,0,1,1,0-4.123h19a2.061,2.061,0,0,1,0,4.123" transform="translate(16.151 2.652)" fill="#98d1ca"/>
            <path id="Trazado_819517" data-name="Trazado 819517" d="M381.6,122.844h-19a2.061,2.061,0,1,1,0-4.123h19a2.061,2.061,0,0,1,0,4.123" transform="translate(16.151 5.318)" fill="#98d1ca"/>
            <path id="Trazado_819518" data-name="Trazado 819518" d="M410.732,42.333h-19a2.061,2.061,0,0,1,0-4.123h19a2.061,2.061,0,0,1,0,4.123" transform="translate(17.456 1.712)" fill="#455a64"/>
            <path id="Trazado_819519" data-name="Trazado 819519" d="M431.3,52.66H391.558a2.07,2.07,0,0,1,0-4.123H431.3a2.07,2.07,0,0,1,0,4.123" transform="translate(17.456 2.174)" fill="#263238"/>
            <path id="Trazado_819520" data-name="Trazado 819520" d="M430.294,63.332H390.273a2.065,2.065,0,0,1,0-4.123h40.021a2.065,2.065,0,0,1,0,4.123" transform="translate(17.396 2.652)" fill="#e0e0e0"/>
            <path id="Trazado_819521" data-name="Trazado 819521" d="M402.623,71.962H362.6a2.065,2.065,0,0,1,0-4.123h40.02a2.065,2.065,0,0,1,0,4.123" transform="translate(16.156 3.039)" fill="#e0e0e0"/>
            <path id="Trazado_819522" data-name="Trazado 819522" d="M353.782,40.273a2.094,2.094,0,1,1-2.095-2.094,2.094,2.094,0,0,1,2.095,2.094" transform="translate(15.66 1.71)" fill="#455a64"/>
            <path id="Trazado_819523" data-name="Trazado 819523" d="M353.782,30.391a2.094,2.094,0,1,1-2.095-2.094,2.094,2.094,0,0,1,2.095,2.094" transform="translate(15.66 1.268)" fill="#455a64"/>
            <path id="Trazado_819524" data-name="Trazado 819524" d="M353.782,50.569a2.094,2.094,0,1,1-2.095-2.094,2.094,2.094,0,0,1,2.095,2.094" transform="translate(15.66 2.171)" fill="#455a64"/>
            <path id="Trazado_819525" data-name="Trazado 819525" d="M353.782,61.272a2.094,2.094,0,1,1-2.095-2.094,2.094,2.094,0,0,1,2.095,2.094" transform="translate(15.66 2.651)" fill="#455a64"/>
            <path id="Trazado_819526" data-name="Trazado 819526" d="M382.121,109.828h-19a2.061,2.061,0,0,1,0-4.123h19a2.061,2.061,0,1,1,0,4.123" transform="translate(16.174 4.735)" fill="#e0e0e0"/>
            <path id="Trazado_819527" data-name="Trazado 819527" d="M381.6,92.213h-19a2.061,2.061,0,1,1,0-4.123h19a2.061,2.061,0,0,1,0,4.123" transform="translate(16.151 3.946)" fill="#98d1ca"/>
            <path id="Trazado_819528" data-name="Trazado 819528" d="M430.294,92.213H390.273a2.065,2.065,0,0,1,0-4.123h40.021a2.065,2.065,0,0,1,0,4.123" transform="translate(17.396 3.946)" fill="#e0e0e0"/>
            <path id="Trazado_819529" data-name="Trazado 819529" d="M402.623,100.843H362.6a2.065,2.065,0,0,1,0-4.123h40.02a2.065,2.065,0,0,1,0,4.123" transform="translate(16.156 4.333)" fill="#e0e0e0"/>
            <path id="Trazado_819530" data-name="Trazado 819530" d="M353.782,90.154a2.094,2.094,0,1,1-2.095-2.094,2.094,2.094,0,0,1,2.095,2.094" transform="translate(15.66 3.945)" fill="#455a64"/>
            <path id="Trazado_819531" data-name="Trazado 819531" d="M373.544,32.854H361.65a1,1,0,0,1-1-1V29.879a1,1,0,0,1,1-1h11.894a1,1,0,0,1,1,1v1.975a1,1,0,0,1-1,1" transform="translate(16.155 1.294)" fill="#455a64"/>
            <path id="Trazado_819532" data-name="Trazado 819532" d="M381.6,133.36h-19a2.061,2.061,0,1,1,0-4.123h19a2.061,2.061,0,0,1,0,4.123" transform="translate(16.151 5.789)" fill="#263238"/>
            <path id="Trazado_819533" data-name="Trazado 819533" d="M410.732,133.36h-19a2.061,2.061,0,0,1,0-4.123h19a2.061,2.061,0,0,1,0,4.123" transform="translate(17.456 5.789)" fill="#455a64"/>
            <path id="Trazado_819534" data-name="Trazado 819534" d="M353.782,131.3a2.094,2.094,0,1,1-2.095-2.094,2.094,2.094,0,0,1,2.095,2.094" transform="translate(15.66 5.788)" fill="#455a64"/>
            <path id="Trazado_819535" data-name="Trazado 819535" d="M353.782,140.8a2.094,2.094,0,1,1-2.095-2.094,2.094,2.094,0,0,1,2.095,2.094" transform="translate(15.66 6.214)" fill="#455a64"/>
            <path id="Trazado_819536" data-name="Trazado 819536" d="M373.544,143.266H361.65a1,1,0,0,1-1-1v-1.975a1,1,0,0,1,1-1h11.894a1,1,0,0,1,1,1v1.974a1,1,0,0,1-1,1" transform="translate(16.155 6.24)" fill="#455a64"/>
            <rect id="Rectángulo_381825" data-name="Rectángulo 381825" width="188.429" height="119.861" transform="translate(157.576 140.885)" fill="#fff"/>
            <rect id="Rectángulo_381826" data-name="Rectángulo 381826" width="33.937" height="119.861" transform="translate(157.576 140.885)" fill="#ebebeb"/>
            <path id="Trazado_819537" data-name="Trazado 819537" d="M165.164,147.261a2.354,2.354,0,0,1,.565-.246l.116-.559.946-.017.136.555a2.334,2.334,0,0,1,.573.226l.479-.313.679.657-.3.488a2.313,2.313,0,0,1,.246.565l.559.116.017.946-.555.136a2.315,2.315,0,0,1-.226.574l.313.477-.656.679-.489-.3a2.312,2.312,0,0,1-.565.246l-.116.559-.945.017-.137-.555a2.254,2.254,0,0,1-.573-.226l-.477.313-.68-.656.3-.489a2.313,2.313,0,0,1-.246-.565l-.559-.116-.017-.945.555-.136a2.325,2.325,0,0,1,.226-.574l-.313-.477.657-.68Zm.5,1.259a1.014,1.014,0,1,0,1.433-.025,1.014,1.014,0,0,0-1.433.025" transform="translate(7.326 6.56)" fill="#e0e0e0"/>
            <path id="Trazado_819538" data-name="Trazado 819538" d="M173.3,172.7H158.505a1.52,1.52,0,1,1,0-3.04H173.3a1.52,1.52,0,1,1,0,3.04" transform="translate(7.032 7.6)" fill="#e0e0e0"/>
            <path id="Trazado_819539" data-name="Trazado 819539" d="M173.3,165.287H158.505a1.52,1.52,0,1,1,0-3.04H173.3a1.52,1.52,0,1,1,0,3.04" transform="translate(7.032 7.268)" fill="#e0e0e0"/>
            <path id="Trazado_819540" data-name="Trazado 819540" d="M173.3,158.506H158.505a1.52,1.52,0,1,1,0-3.04H173.3a1.52,1.52,0,1,1,0,3.04" transform="translate(7.032 6.964)" fill="#e0e0e0"/>
            <path id="Trazado_819541" data-name="Trazado 819541" d="M211.309,151.924H197.3a1.52,1.52,0,1,1,0-3.04h14.013a1.52,1.52,0,0,1,0,3.04" transform="translate(8.77 6.669)" fill="#263238"/>
            <path id="Trazado_819542" data-name="Trazado 819542" d="M211.309,159.541H197.3a1.52,1.52,0,1,1,0-3.04h14.013a1.52,1.52,0,1,1,0,3.04" transform="translate(8.77 7.011)" fill="#e0e0e0"/>
            <path id="Trazado_819543" data-name="Trazado 819543" d="M211.309,167.413H197.3a1.52,1.52,0,1,1,0-3.04h14.013a1.52,1.52,0,0,1,0,3.04" transform="translate(8.77 7.363)" fill="#98d1ca"/>
            <path id="Trazado_819544" data-name="Trazado 819544" d="M205.332,182.632H197.3a1.52,1.52,0,1,1,0-3.04h8.036a1.52,1.52,0,1,1,0,3.04" transform="translate(8.77 8.045)" fill="#263238"/>
            <path id="Trazado_819545" data-name="Trazado 819545" d="M205.332,190.52H197.3a1.52,1.52,0,1,1,0-3.04h8.036a1.52,1.52,0,1,1,0,3.04" transform="translate(8.77 8.398)" fill="#263238"/>
            <path id="Trazado_819546" data-name="Trazado 819546" d="M228.476,190.52H213.742a1.52,1.52,0,1,1,0-3.04h14.734a1.52,1.52,0,0,1,0,3.04" transform="translate(9.507 8.398)" fill="#e0e0e0"/>
            <path id="Trazado_819547" data-name="Trazado 819547" d="M220.5,197.536H205.766a1.52,1.52,0,1,1,0-3.04H220.5a1.52,1.52,0,0,1,0,3.04" transform="translate(9.149 8.713)" fill="#98d1ca"/>
            <path id="Trazado_819548" data-name="Trazado 819548" d="M223.4,205.537h-10.12a1.038,1.038,0,0,1-1.038-1.037v-.965a1.038,1.038,0,0,1,1.038-1.037H223.4a1.038,1.038,0,0,1,1.039,1.037v.964a1.038,1.038,0,0,1-1.039,1.039" transform="translate(9.508 9.071)" fill="#98d1ca"/>
            <path id="Trazado_819549" data-name="Trazado 819549" d="M222.923,221.219h-9.156a1.52,1.52,0,1,1,0-3.04h9.156a1.52,1.52,0,0,1,0,3.04" transform="translate(9.508 9.773)" fill="#98d1ca"/>
            <path id="Trazado_819550" data-name="Trazado 819550" d="M222.923,237.783h-9.156a1.52,1.52,0,1,1,0-3.04h9.156a1.52,1.52,0,0,1,0,3.04" transform="translate(9.508 10.515)" fill="#98d1ca"/>
            <path id="Trazado_819551" data-name="Trazado 819551" d="M244.759,237.783h-16.05a1.52,1.52,0,0,1,0-3.04h16.05a1.52,1.52,0,0,1,0,3.04" transform="translate(10.177 10.515)" fill="#455a64"/>
            <path id="Trazado_819552" data-name="Trazado 819552" d="M254.922,237.783H252.61a1.52,1.52,0,0,1,0-3.04h2.312a1.52,1.52,0,1,1,0,3.04" transform="translate(11.248 10.515)" fill="#e0e0e0"/>
            <path id="Trazado_819553" data-name="Trazado 819553" d="M243.732,221.219H230.168a1.52,1.52,0,1,1,0-3.04h13.564a1.52,1.52,0,0,1,0,3.04" transform="translate(10.242 9.773)" fill="#e0e0e0"/>
            <path id="Trazado_819554" data-name="Trazado 819554" d="M273.475,228.49H230.168a1.52,1.52,0,1,1,0-3.039h43.307a1.52,1.52,0,1,1,0,3.039" transform="translate(10.242 10.099)" fill="#e0e0e0"/>
            <path id="Trazado_819555" data-name="Trazado 819555" d="M277.592,221.219H249.942a1.52,1.52,0,0,1,0-3.04h27.649a1.52,1.52,0,0,1,0,3.04" transform="translate(11.128 9.773)" fill="#455a64"/>
            <path id="Trazado_819556" data-name="Trazado 819556" d="M241.19,205.537H228.771a1.038,1.038,0,0,1-1.039-1.037v-.965a1.038,1.038,0,0,1,1.039-1.037H241.19a1.037,1.037,0,0,1,1.037,1.037v.965a1.037,1.037,0,0,1-1.037,1.037" transform="translate(10.201 9.071)" fill="#455a64"/>
            <path id="Trazado_819557" data-name="Trazado 819557" d="M250.31,205.537H246.5a1.038,1.038,0,0,1-1.037-1.037v-.965A1.038,1.038,0,0,1,246.5,202.5h3.811a1.037,1.037,0,0,1,1.037,1.037v.965a1.037,1.037,0,0,1-1.037,1.037" transform="translate(10.996 9.071)" fill="#e0e0e0"/>
            <path id="Trazado_819558" data-name="Trazado 819558" d="M271.706,205.537H256.418a1.037,1.037,0,0,1-1.037-1.037v-.965a1.037,1.037,0,0,1,1.037-1.037h15.287a1.037,1.037,0,0,1,1.037,1.037v.965a1.037,1.037,0,0,1-1.037,1.037" transform="translate(11.44 9.071)" fill="#e0e0e0"/>
            <path id="Trazado_819559" data-name="Trazado 819559" d="M229.561,197.536h-3.283a1.52,1.52,0,1,1,0-3.04h3.283a1.52,1.52,0,0,1,0,3.04" transform="translate(10.068 8.713)" fill="#263238"/>
            <path id="Trazado_819560" data-name="Trazado 819560" d="M256.938,197.536h-20.9a1.52,1.52,0,0,1,0-3.04h20.9a1.52,1.52,0,0,1,0,3.04" transform="translate(10.505 8.713)" fill="#e0e0e0"/>
            <path id="Trazado_819561" data-name="Trazado 819561" d="M232.8,151.924H218.783a1.52,1.52,0,1,1,0-3.04H232.8a1.52,1.52,0,1,1,0,3.04" transform="translate(9.732 6.669)" fill="#455a64"/>
            <path id="Trazado_819562" data-name="Trazado 819562" d="M250.851,159.541H218.783a1.52,1.52,0,1,1,0-3.04h32.068a1.52,1.52,0,1,1,0,3.04" transform="translate(9.732 7.011)" fill="#263238"/>
            <path id="Trazado_819563" data-name="Trazado 819563" d="M285.376,167.413H218.783a1.52,1.52,0,1,1,0-3.04h66.593a1.52,1.52,0,0,1,0,3.04" transform="translate(9.732 7.363)" fill="#e0e0e0"/>
            <path id="Trazado_819564" data-name="Trazado 819564" d="M250.182,172.957h-31.4a1.52,1.52,0,1,1,0-3.04h31.4a1.52,1.52,0,1,1,0,3.04" transform="translate(9.732 7.611)" fill="#e0e0e0"/>
            <path id="Trazado_819565" data-name="Trazado 819565" d="M244.035,182.632h-31.4a1.52,1.52,0,1,1,0-3.04h31.4a1.52,1.52,0,0,1,0,3.04" transform="translate(9.457 8.045)" fill="#455a64"/>
            <path id="Trazado_819566" data-name="Trazado 819566" d="M259.964,182.632H249.439a1.52,1.52,0,0,1,0-3.04h10.525a1.52,1.52,0,1,1,0,3.04" transform="translate(11.106 8.045)" fill="#98d1ca"/>
            <path id="Trazado_819567" data-name="Trazado 819567" d="M286.121,182.584H266.239a1.52,1.52,0,1,1,0-3.04h19.881a1.52,1.52,0,1,1,0,3.04" transform="translate(11.858 8.043)" fill="#263238"/>
            <path id="Trazado_819568" data-name="Trazado 819568" d="M312.017,182.584h-19.88a1.52,1.52,0,1,1,0-3.04h19.88a1.52,1.52,0,0,1,0,3.04" transform="translate(13.018 8.043)" fill="#e0e0e0"/>
            <path id="Trazado_819569" data-name="Trazado 819569" d="M166.892,180.548h-8.387a1.52,1.52,0,0,1,0-3.04h8.387a1.52,1.52,0,1,1,0,3.04" transform="translate(7.032 7.952)" fill="#e0e0e0"/>
            <path id="Trazado_819570" data-name="Trazado 819570" d="M164.381,204.09H158.5a1.52,1.52,0,0,1,0-3.04h5.877a1.52,1.52,0,0,1,0,3.04" transform="translate(7.032 9.006)" fill="#e0e0e0"/>
            <path id="Trazado_819571" data-name="Trazado 819571" d="M174.819,188.4H158.5a1.52,1.52,0,0,1,0-3.04h16.314a1.52,1.52,0,0,1,0,3.04" transform="translate(7.032 8.303)" fill="#e0e0e0"/>
            <path id="Trazado_819572" data-name="Trazado 819572" d="M171.957,196.243H158.505a1.52,1.52,0,0,1,0-3.04h13.452a1.52,1.52,0,0,1,0,3.04" transform="translate(7.032 8.655)" fill="#e0e0e0"/>
            <path id="Trazado_819573" data-name="Trazado 819573" d="M190.789,150.405a1.544,1.544,0,1,1-1.544-1.544,1.545,1.545,0,0,1,1.544,1.544" transform="translate(8.408 6.668)" fill="#455a64"/>
            <path id="Trazado_819574" data-name="Trazado 819574" d="M190.789,142.642a1.544,1.544,0,1,1-1.544-1.544,1.545,1.545,0,0,1,1.544,1.544" transform="translate(8.408 6.321)" fill="#455a64"/>
            <path id="Trazado_819575" data-name="Trazado 819575" d="M190.789,158a1.544,1.544,0,1,1-1.544-1.544A1.545,1.545,0,0,1,190.789,158" transform="translate(8.408 7.008)" fill="#455a64"/>
            <path id="Trazado_819576" data-name="Trazado 819576" d="M190.789,165.893a1.544,1.544,0,1,1-1.544-1.543,1.545,1.545,0,0,1,1.544,1.543" transform="translate(8.408 7.362)" fill="#455a64"/>
            <path id="Trazado_819577" data-name="Trazado 819577" d="M190.789,173.788a1.544,1.544,0,1,1-1.544-1.544,1.545,1.545,0,0,1,1.544,1.544" transform="translate(8.408 7.716)" fill="#455a64"/>
            <path id="Trazado_819578" data-name="Trazado 819578" d="M190.789,181.683a1.544,1.544,0,1,1-1.544-1.544,1.545,1.545,0,0,1,1.544,1.544" transform="translate(8.408 8.069)" fill="#455a64"/>
            <path id="Trazado_819579" data-name="Trazado 819579" d="M190.789,189.577a1.544,1.544,0,1,1-1.544-1.544,1.545,1.545,0,0,1,1.544,1.544" transform="translate(8.408 8.423)" fill="#455a64"/>
            <path id="Trazado_819580" data-name="Trazado 819580" d="M190.789,197.472a1.544,1.544,0,1,1-1.544-1.544,1.545,1.545,0,0,1,1.544,1.544" transform="translate(8.408 8.777)" fill="#455a64"/>
            <path id="Trazado_819581" data-name="Trazado 819581" d="M190.789,205.366a1.544,1.544,0,1,1-1.544-1.544,1.545,1.545,0,0,1,1.544,1.544" transform="translate(8.408 9.13)" fill="#455a64"/>
            <path id="Trazado_819582" data-name="Trazado 819582" d="M190.789,213.261a1.544,1.544,0,1,1-1.544-1.544,1.545,1.545,0,0,1,1.544,1.544" transform="translate(8.408 9.484)" fill="#455a64"/>
            <path id="Trazado_819583" data-name="Trazado 819583" d="M190.789,221.155a1.544,1.544,0,1,1-1.544-1.544,1.545,1.545,0,0,1,1.544,1.544" transform="translate(8.408 9.838)" fill="#455a64"/>
            <path id="Trazado_819584" data-name="Trazado 819584" d="M190.789,229.05a1.544,1.544,0,1,1-1.544-1.544,1.545,1.545,0,0,1,1.544,1.544" transform="translate(8.408 10.191)" fill="#455a64"/>
            <path id="Trazado_819585" data-name="Trazado 819585" d="M190.789,236.944a1.544,1.544,0,1,1-1.544-1.544,1.545,1.545,0,0,1,1.544,1.544" transform="translate(8.408 10.545)" fill="#455a64"/>
            <path id="Trazado_819586" data-name="Trazado 819586" d="M335.242,119.2H156.465a5.645,5.645,0,0,0-5.645,5.645v10.7H339.249V123.21a4.007,4.007,0,0,0-4.007-4.007" transform="translate(6.756 5.34)" fill="#e0e0e0"/>
            <path id="Trazado_819587" data-name="Trazado 819587" d="M162.48,127.593a2.245,2.245,0,1,1-2.244-2.243,2.244,2.244,0,0,1,2.244,2.243" transform="translate(7.077 5.615)" fill="#fff"/>
            <path id="Trazado_819588" data-name="Trazado 819588" d="M169.091,127.593a2.245,2.245,0,1,1-2.244-2.243,2.244,2.244,0,0,1,2.244,2.243" transform="translate(7.373 5.615)" fill="#fff"/>
            <path id="Trazado_819589" data-name="Trazado 819589" d="M175.7,127.593a2.245,2.245,0,1,1-2.244-2.243,2.244,2.244,0,0,1,2.244,2.243" transform="translate(7.67 5.615)" fill="#fff"/>
            <path id="Trazado_819590" data-name="Trazado 819590" d="M189.179,247.777,205.106,265l14.458-17.218Z" transform="translate(8.474 11.099)" fill="#fff"/>
            <path id="Trazado_819591" data-name="Trazado 819591" d="M334.15,255.418a5.993,5.993,0,0,0,1.649-.306,5.1,5.1,0,0,0,3.22-3.457,5.568,5.568,0,0,0,.18-1.7q0-.914-.006-1.922-.006-2.017-.013-4.408c-.007-3.187-.016-6.862-.025-11-.021-16.561-.05-40.511-.087-70.1q-.008-11.1-.018-23.229,0-6.059-.008-12.357c-.014-1.039.028-2.128-.031-3.139a4.907,4.907,0,0,0-3.853-4.254,22.134,22.134,0,0,0-3.2-.1l-55.562.025-61.4.016-32.474,0h-25c-.69.01-1.431-.025-2.078.024a4.791,4.791,0,0,0-1.888.6,4.869,4.869,0,0,0-2.331,3.111,14.693,14.693,0,0,0-.13,2.878v2.944q0,2.942,0,5.87v11.66q0,11.6,0,22.972c0,15.15-.005,29.957-.008,44.341q0,10.789-.005,21.248,0,5.227,0,10.365c.006,1.705-.017,3.433.014,5.1a4.851,4.851,0,0,0,4.721,4.561l2.5.007,4.972,0,9.8,0,18.968.008h.1l.068.072,14.586,15.356-.327.01,12.9-15.34.062-.073h.1l83.761.091,22.863.055,5.956.029c1.343.009,2.031.03,2.031.03s-.689.021-2.031.03l-5.956.029-22.863.055-83.761.091.158-.073q-6.2,7.386-12.877,15.356l-.158.188-.17-.178-14.6-15.34.167.072-18.968.008-9.8,0-4.972,0-2.511-.005a5.347,5.347,0,0,1-5.209-5.025c-.033-1.727-.01-3.411-.018-5.13q0-5.139,0-10.365,0-10.455-.006-21.248c0-14.384-.005-29.192-.008-44.341q0-11.364,0-22.972V124.63a6.264,6.264,0,0,1,.144-1.527,5.411,5.411,0,0,1,2.593-3.461,5.323,5.323,0,0,1,2.1-.671c.755-.054,1.419-.015,2.132-.027h25l32.474,0,61.4.016,55.562.025a21.805,21.805,0,0,1,3.287.117,5.354,5.354,0,0,1,4.2,4.645c.064,1.1.017,2.126.03,3.186q0,6.3-.008,12.357-.009,12.116-.018,23.229c-.037,29.593-.066,53.543-.087,70.1-.008,4.137-.018,7.813-.024,11q-.008,2.39-.014,4.408,0,1.009-.006,1.922a5.685,5.685,0,0,1-.2,1.728,5.1,5.1,0,0,1-1.513,2.431,5.053,5.053,0,0,1-3.035,1.3c-.283.009-.426.007-.426.007" transform="translate(6.744 5.328)" fill="#263238"/>
            <path id="Trazado_819592" data-name="Trazado 819592" d="M322.605,99.248H180.9a3.311,3.311,0,0,1-3.311-3.311V23.694a3.311,3.311,0,0,1,3.311-3.311H323.253a3.311,3.311,0,0,1,3.311,3.311v71.6a3.958,3.958,0,0,1-3.959,3.959" transform="translate(7.955 0.913)" fill="#fff"/>
            <path id="Trazado_819593" data-name="Trazado 819593" d="M326.564,37.318H177.594V24.011a3.629,3.629,0,0,1,3.629-3.629H322.936a3.629,3.629,0,0,1,3.629,3.629Z" transform="translate(7.955 0.913)" fill="#e0e0e0"/>
            <path id="Trazado_819594" data-name="Trazado 819594" d="M322.385,99.26a6.117,6.117,0,0,0,1.137-.189,4.193,4.193,0,0,0,2.527-2.085,4.576,4.576,0,0,0,.459-2.4q0-1.385-.013-3.026c-.007-2.189-.016-4.712-.025-7.551-.02-11.374-.05-27.81-.087-48.119q0-3.81-.008-7.8,0-2,0-4.031A3.181,3.181,0,0,0,324.56,20.9a4.039,4.039,0,0,0-1.956-.29l-2.111,0-4.282,0-8.8.007-38.138.025-87.387.022a5.626,5.626,0,0,0-1.381.1,3.409,3.409,0,0,0-2.579,2.779,9.954,9.954,0,0,0-.047,1.4v4.316q0,5.742,0,11.4,0,11.323,0,22.3t-.006,21.52q0,5.274,0,10.434a3.963,3.963,0,0,0,2.458,3.807,5.779,5.779,0,0,0,2.407.29h2.526l71.372.059,48.116.087,13.082.05,3.4.027c.766.009,1.159.028,1.159.028s-.393.019-1.159.028l-3.4.026-13.082.051-48.116.087-71.372.059h-2.526a6.268,6.268,0,0,1-2.6-.325,4.476,4.476,0,0,1-2.779-4.276q0-5.159,0-10.434,0-10.547-.007-21.52t0-22.3q0-5.662,0-11.4V24.939a10.453,10.453,0,0,1,.053-1.484,3.957,3.957,0,0,1,2.991-3.223,6.2,6.2,0,0,1,1.507-.11l87.387.022,38.138.025,8.8.007,4.282,0,2.111,0a4.464,4.464,0,0,1,2.132.332,3.6,3.6,0,0,1,2.045,3.543q0,2.037,0,4.031,0,3.987-.008,7.8c-.037,20.309-.067,36.745-.087,48.119-.009,2.839-.018,5.362-.025,7.551q-.006,1.639-.013,3.026a6.679,6.679,0,0,1-.091,1.326,4.486,4.486,0,0,1-.409,1.129,4.213,4.213,0,0,1-2.609,2.088,3.446,3.446,0,0,1-1.151.136" transform="translate(7.944 0.901)" fill="#263238"/>
            <path id="Trazado_819595" data-name="Trazado 819595" d="M191.1,29.87a2.774,2.774,0,1,1-2.775-2.774A2.775,2.775,0,0,1,191.1,29.87" transform="translate(8.312 1.214)" fill="#fff"/>
            <path id="Trazado_819596" data-name="Trazado 819596" d="M199.268,29.87a2.774,2.774,0,1,1-2.774-2.774,2.774,2.774,0,0,1,2.774,2.774" transform="translate(8.678 1.214)" fill="#fff"/>
            <path id="Trazado_819597" data-name="Trazado 819597" d="M207.438,29.87a2.774,2.774,0,1,1-2.774-2.774,2.774,2.774,0,0,1,2.774,2.774" transform="translate(9.044 1.214)" fill="#fff"/>
            <path id="Trazado_819598" data-name="Trazado 819598" d="M219.5,59.6H202.185a1.879,1.879,0,0,1,0-3.758H219.5a1.879,1.879,0,0,1,0,3.758" transform="translate(8.973 2.501)" fill="#263238"/>
            <path id="Trazado_819599" data-name="Trazado 819599" d="M219.5,69.01H202.185a1.879,1.879,0,0,1,0-3.758H219.5a1.879,1.879,0,0,1,0,3.758" transform="translate(8.973 2.923)" fill="#e0e0e0"/>
            <path id="Trazado_819600" data-name="Trazado 819600" d="M308.41,59.6h-50.23a1.879,1.879,0,0,1,0-3.758h50.23a1.879,1.879,0,0,1,0,3.758" transform="translate(11.481 2.501)" fill="#e0e0e0"/>
            <path id="Trazado_819601" data-name="Trazado 819601" d="M219.5,78.738H202.185a1.879,1.879,0,0,1,0-3.758H219.5a1.879,1.879,0,0,1,0,3.758" transform="translate(8.973 3.359)" fill="#98d1ca"/>
            <path id="Trazado_819602" data-name="Trazado 819602" d="M295.53,69.01H278.213a1.879,1.879,0,1,1,0-3.758H295.53a1.879,1.879,0,0,1,0,3.758" transform="translate(12.378 2.923)" fill="#98d1ca"/>
            <path id="Trazado_819603" data-name="Trazado 819603" d="M246.056,59.6H228.739a1.879,1.879,0,0,1,0-3.758h17.317a1.879,1.879,0,0,1,0,3.758" transform="translate(10.162 2.501)" fill="#455a64"/>
            <path id="Trazado_819604" data-name="Trazado 819604" d="M268.37,69.01H228.739a1.879,1.879,0,0,1,0-3.758H268.37a1.879,1.879,0,0,1,0,3.758" transform="translate(10.162 2.923)" fill="#263238"/>
            <path id="Trazado_819605" data-name="Trazado 819605" d="M307.242,78.738H228.654a1.881,1.881,0,0,1,0-3.758h78.588a1.881,1.881,0,0,1,0,3.758" transform="translate(10.162 3.359)" fill="#e0e0e0"/>
            <path id="Trazado_819606" data-name="Trazado 819606" d="M267.544,85.59h-38.8a1.879,1.879,0,1,1,0-3.758h38.8a1.879,1.879,0,0,1,0,3.758" transform="translate(10.162 3.666)" fill="#e0e0e0"/>
            <path id="Trazado_819607" data-name="Trazado 819607" d="M194.143,57.719a1.908,1.908,0,1,1-1.909-1.909,1.909,1.909,0,0,1,1.909,1.909" transform="translate(8.526 2.5)" fill="#455a64"/>
            <path id="Trazado_819608" data-name="Trazado 819608" d="M194.143,48.711a1.908,1.908,0,1,1-1.909-1.909,1.909,1.909,0,0,1,1.909,1.909" transform="translate(8.526 2.097)" fill="#455a64"/>
            <path id="Trazado_819609" data-name="Trazado 819609" d="M194.143,67.1a1.908,1.908,0,1,1-1.909-1.909,1.909,1.909,0,0,1,1.909,1.909" transform="translate(8.526 2.92)" fill="#455a64"/>
            <path id="Trazado_819610" data-name="Trazado 819610" d="M194.143,76.861a1.908,1.908,0,1,1-1.909-1.909,1.909,1.909,0,0,1,1.909,1.909" transform="translate(8.526 3.358)" fill="#455a64"/>
            <path id="Trazado_819611" data-name="Trazado 819611" d="M212.348,50.093H201.684a1,1,0,0,1-1-1V47.47a1,1,0,0,1,1-1h10.664a1,1,0,0,1,1,1v1.623a1,1,0,0,1-1,1" transform="translate(8.99 2.082)" fill="#455a64"/>
          </g>
        </g>
        <g id="Grupo_1072447" data-name="Grupo 1072447">
          <g id="Grupo_1072446" data-name="Grupo 1072446" clip-path="url(#clip-path)">
            <path id="Trazado_819612" data-name="Trazado 819612" d="M390.179,333c8.715,3.795,17.112,4.144,25.093,0l5.826-48.826H384.89Z" transform="translate(17.241 12.73)" fill="#6f4439"/>
            <path id="Trazado_819613" data-name="Trazado 819613" d="M387.343,281.752l1.09-3.486,27.273-3.33a1.584,1.584,0,0,1,1.692,1.057l1.98,5.759h3.486v6.32c-13.7,2.413-26.808,2.556-39.226,0v-6.32Z" transform="translate(17.185 12.315)" fill="#e0e0e0"/>
            <path id="Trazado_819614" data-name="Trazado 819614" d="M387.35,281.764a1.275,1.275,0,0,0-.255-.022l-.719-.025-2.731-.056-.1,0v.106c-.016,1.63-.037,3.763-.061,6.32v.132l.132.028a91.435,91.435,0,0,0,16.837,1.925,115.315,115.315,0,0,0,22.317-1.792l.151-.025.226-.038v-.23c0-2.146,0-4.26,0-6.32v-.27h-.27l-3.486,0,.252.18q-1-2.893-1.951-5.646a1.881,1.881,0,0,0-1.06-1.2,1.853,1.853,0,0,0-.809-.142c-.273.022-.48.056-.722.084l-2.756.344-10.016,1.26-13.895,1.8-.067.008-.019.063q-.478,1.647-.75,2.588l-.187.682a1.293,1.293,0,0,0-.054.247.777.777,0,0,0,.087-.2c.063-.176.137-.389.23-.651l.87-2.6-.085.071,13.921-1.593L412.4,275.6l2.758-.33a2.284,2.284,0,0,1,1.269.028,1.359,1.359,0,0,1,.773.9l1.934,5.652.062.18h.19l3.486,0-.27-.27c0,2.06,0,4.174,0,6.32l.225-.268-.15.025a118.237,118.237,0,0,1-22.214,1.843,95.758,95.758,0,0,1-16.78-1.759l.131.16c-.025-2.557-.045-4.69-.061-6.32l-.1.1,2.78-.055.7-.025a.793.793,0,0,0,.225-.022" transform="translate(17.178 12.304)" fill="#263238"/>
            <path id="Trazado_819615" data-name="Trazado 819615" d="M387.586,316.047c9.461,1.529,19.9,1.307,30.953,0l1.506-14.8a153.468,153.468,0,0,1-34.285,0Z" transform="translate(17.28 13.494)" fill="#ae7461"/>
            <path id="Trazado_819616" data-name="Trazado 819616" d="M404.335,305.793a3.288,3.288,0,0,1,1.277,4.2l-.984,2.12a3.289,3.289,0,0,1-4.03,1.731Z" transform="translate(17.945 13.698)" fill="#6f4439"/>
            <path id="Trazado_819617" data-name="Trazado 819617" d="M403.771,305.507l-3.737,8.047a3.289,3.289,0,0,1-1.277-4.2l.985-2.119a3.287,3.287,0,0,1,4.029-1.732" transform="translate(17.849 13.678)" fill="#6f4439"/>
            <path id="Trazado_819618" data-name="Trazado 819618" d="M386.889,281.551a5.834,5.834,0,0,0,1.233.372c.8.211,1.974.462,3.432.722a66.335,66.335,0,0,0,23.054-.05c1.457-.265,2.629-.521,3.429-.736a5.888,5.888,0,0,0,1.231-.377,5.8,5.8,0,0,0-1.276.17c-.812.15-1.989.347-3.447.563a78.233,78.233,0,0,1-22.931.049c-1.459-.21-2.637-.4-3.449-.548a5.867,5.867,0,0,0-1.277-.165" transform="translate(17.331 12.609)" fill="#263238"/>
          </g>
        </g>
        <g id="Grupo_1072449" data-name="Grupo 1072449">
          <g id="Grupo_1072448" data-name="Grupo 1072448" clip-path="url(#clip-path)">
            <path id="Trazado_819619" data-name="Trazado 819619" d="M374.82,212.056s5.965,1.285,7,5.52-8.308,105.519-8.683,107.987c-.589,3.875-3.858,8.8-11.222,8.534-6.417-.231-93.877-.027-115.9.024-2.926.007-4.685-2.486-5.07-5.45l108.286-6.392Z" transform="translate(10.793 9.499)" fill="#e0e0e0"/>
            <path id="Trazado_819620" data-name="Trazado 819620" d="M377.535,215.434l-9.38,109.229a3.534,3.534,0,0,1-3.459,3.18l-123.75.556,23.772-23.59,80.392-.566,8.6-85.575a2.685,2.685,0,0,1,2.059-2.333l18.009-4.2a3.077,3.077,0,0,1,3.759,3.3" transform="translate(10.793 9.499)" fill="#e0e0e0"/>
            <path id="Trazado_819621" data-name="Trazado 819621" d="M377.564,215.436a2.428,2.428,0,0,0,.02-.528,2.936,2.936,0,0,0-.482-1.477,3.115,3.115,0,0,0-2.1-1.385,3.726,3.726,0,0,0-1.646.135l-1.833.418-9.559,2.194-6.06,1.4a2.834,2.834,0,0,0-2.288,2.435q-.18,1.755-.372,3.611c-2.012,19.794-4.885,48.056-8.334,81.986l.23-.21-80.392.532h-.109l-.078.077c-7.618,7.558-15.623,15.5-23.775,23.587l-.471.468.664,0,5.482-.024,90.718-.429,20.371-.1,4.916-.025c.818-.009,1.612,0,2.443-.023a3.751,3.751,0,0,0,3.482-3.205c.091-.812.141-1.585.213-2.375q.2-2.356.4-4.672c1.049-12.353,2.026-23.859,2.917-34.364,1.768-21,3.2-38,4.188-49.763l1.111-13.532c.12-1.539.212-2.715.275-3.52s.075-1.2.075-1.2-.053.4-.131,1.2-.185,1.978-.329,3.515c-.278,3.1-.686,7.658-1.212,13.523-1.03,11.757-2.519,28.75-4.359,49.747-.912,10.5-1.912,22.009-2.984,34.358q-.2,2.316-.405,4.671c-.071.779-.127,1.586-.213,2.352a3.289,3.289,0,0,1-3.054,2.8c-.784.022-1.611.012-2.419.019l-4.917.019-20.371.079-90.715.387-5.481.025.192.465L264.936,305l-.187.078,80.391-.6h.211l.02-.209c3.369-33.938,6.176-62.207,8.141-82.006q.183-1.854.356-3.609a2.584,2.584,0,0,1,2.088-2.23L362.009,215l9.543-2.258,1.828-.436a3.647,3.647,0,0,1,1.6-.15,3.043,3.043,0,0,1,2.06,1.32,2.976,2.976,0,0,1,.506,1.44c.028.346,0,.524.017.524" transform="translate(10.765 9.497)" fill="#263238"/>
            <path id="Trazado_819622" data-name="Trazado 819622" d="M285.474,321.5h-11.5l14.543-18.864h6.828Z" transform="translate(12.273 13.557)" fill="#263238"/>
            <path id="Trazado_819623" data-name="Trazado 819623" d="M368.687,220.081,359.9,314.986l-16.367-13.017,7.046-79.96a1.387,1.387,0,0,1,1.186-1.25l15.343-2.2a1.388,1.388,0,0,1,1.577,1.517" transform="translate(15.389 9.79)" fill="#263238"/>
            <path id="Trazado_819624" data-name="Trazado 819624" d="M351.812,321.5H339.939L327.875,302.64H334.7Z" transform="translate(14.687 13.557)" fill="#263238"/>
            <path id="Trazado_819625" data-name="Trazado 819625" d="M337.6,321.5H326.1l-6.3-18.864h6.828Z" transform="translate(14.325 13.557)" fill="#263238"/>
            <path id="Trazado_819626" data-name="Trazado 819626" d="M323.882,321.5h-11.5l-.62-18.864h6.828Z" transform="translate(13.965 13.557)" fill="#263238"/>
            <path id="Trazado_819627" data-name="Trazado 819627" d="M311.36,321.5h-11.5L304.1,302.64h6.827Z" transform="translate(13.432 13.557)" fill="#263238"/>
            <path id="Trazado_819628" data-name="Trazado 819628" d="M298.336,321.5h-11.5L296.2,302.64h6.828Z" transform="translate(12.849 13.557)" fill="#263238"/>
            <path id="Trazado_819629" data-name="Trazado 819629" d="M274.526,317.183c0,.09,17.541.163,39.174.163s39.178-.073,39.178-.163-17.538-.163-39.178-.163-39.174.073-39.174.163" transform="translate(12.297 14.201)" fill="#e0e0e0"/>
            <path id="Trazado_819630" data-name="Trazado 819630" d="M276.522,313.872c0,.09,16.658.163,37.2.163s37.206-.073,37.206-.163-16.655-.163-37.206-.163-37.2.073-37.2.163" transform="translate(12.387 14.053)" fill="#e0e0e0"/>
            <path id="Trazado_819631" data-name="Trazado 819631" d="M276.522,310.875c0,.181,15.675.327,35.006.327s35.01-.146,35.01-.327-15.671-.326-35.01-.326-35.006.145-35.006.326" transform="translate(12.387 13.911)" fill="#e0e0e0"/>
            <path id="Trazado_819632" data-name="Trazado 819632" d="M276.06,308.133c0,.181,15.338.326,34.254.326s34.257-.145,34.257-.326-15.334-.327-34.257-.327-34.254.146-34.254.327" transform="translate(12.366 13.788)" fill="#e0e0e0"/>
            <path id="Trazado_819633" data-name="Trazado 819633" d="M274.526,306.131c0,.181,15.438.327,34.476.327s34.48-.146,34.48-.327-15.435-.326-34.48-.326-34.476.145-34.476.326" transform="translate(12.297 13.699)" fill="#e0e0e0"/>
            <path id="Trazado_819634" data-name="Trazado 819634" d="M272.9,304.04c0,.181,15.727.327,35.123.327s35.127-.146,35.127-.327-15.724-.326-35.127-.326-35.123.145-35.123.326" transform="translate(12.225 13.605)" fill="#e0e0e0"/>
            <path id="Trazado_819635" data-name="Trazado 819635" d="M361.965,320.7l-21.439-20.058" transform="translate(15.254 13.467)" fill="#e0e0e0"/>
            <path id="Trazado_819636" data-name="Trazado 819636" d="M340.526,300.637c-.1.11,4.614,4.689,10.533,10.228s10.8,9.94,10.907,9.83-4.613-4.688-10.535-10.229-10.8-9.939-10.9-9.829" transform="translate(15.254 13.467)" fill="#263238"/>
          </g>
        </g>
        <g id="Grupo_1072475" data-name="Grupo 1072475">
          <g id="Grupo_1072474" data-name="Grupo 1072474" clip-path="url(#clip-path)">
            <path id="Trazado_819637" data-name="Trazado 819637" d="M.974,230s1.051-11.088,28.688-18.186c13.344-3.426,45.2-5.072,48.807,15.631.117.671,15.854,130.884,15.854,130.884H35.432Z" transform="translate(0.044 9.395)" fill="#455a64"/>
            <path id="Trazado_819638" data-name="Trazado 819638" d="M10.346,357.857H37.514L28.44,230.283c-.664-6.208-7.089-10.684-14.35-10l-2.432.23C4.4,221.2-.2,228.2.006,236.165Z" transform="translate(0 9.865)" fill="#455a64"/>
            <path id="Trazado_819639" data-name="Trazado 819639" d="M34.347,352.371c.148-.013-1.769-25.142-4.286-56.122s-4.679-56.1-4.828-56.085S27,265.3,29.519,296.292s4.679,56.091,4.828,56.078" transform="translate(1.13 10.758)" fill="#263238"/>
            <path id="Trazado_819640" data-name="Trazado 819640" d="M5.966,223.425a28.172,28.172,0,0,1,3.819-.9,14.811,14.811,0,0,1,9.062,1.764,14.807,14.807,0,0,1,6.1,6.933,28.172,28.172,0,0,1,1.151,3.75,3.435,3.435,0,0,0-.053-1.069,12.6,12.6,0,0,0-.742-2.826,14.454,14.454,0,0,0-6.183-7.26,14.448,14.448,0,0,0-9.386-1.672,12.581,12.581,0,0,0-2.815.786,3.448,3.448,0,0,0-.95.493" transform="translate(0.267 9.943)" fill="#263238"/>
            <path id="Trazado_819641" data-name="Trazado 819641" d="M88.125,71.13c-.273-7.468,4.789-8.477,8.686-7.618a13.214,13.214,0,0,1,16.25.887A11.752,11.752,0,0,1,130.44,74.634a9.819,9.819,0,0,1,7.984,16.843,9.439,9.439,0,0,1-4.625,18.2L87.971,79.162c-2.748-2.893.3-4.043.154-8.031" transform="translate(3.889 2.739)" fill="#263238"/>
            <path id="Trazado_819642" data-name="Trazado 819642" d="M136.229,110.554A40.049,40.049,0,0,0,97.64,72.329l-2.073-.073c-22.394.511-34.472,19.816-33.342,42.188l.59,74.537.146,14.153,51.2,12.173.52-29.5s21.6-2.576,22.633-24.048c.5-10.37-.217-31.807-1.09-51.2" transform="translate(2.784 3.237)" fill="#ae7461"/>
            <path id="Trazado_819643" data-name="Trazado 819643" d="M113.8,181.307a52.136,52.136,0,0,1-27.853-9.239s6.07,15.695,27.573,14.523Z" transform="translate(3.85 7.708)" fill="#6f4439"/>
            <path id="Trazado_819644" data-name="Trazado 819644" d="M127.331,129.772a3.07,3.07,0,0,1-3.068,2.99,2.936,2.936,0,0,1-3.064-2.878,3.072,3.072,0,0,1,3.065-2.992,2.939,2.939,0,0,1,3.066,2.88" transform="translate(5.429 5.684)" fill="#263238"/>
            <path id="Trazado_819645" data-name="Trazado 819645" d="M128.988,120.015c-.394.387-2.656-1.417-5.958-1.524-3.3-.157-5.779,1.456-6.121,1.04-.17-.186.243-.894,1.325-1.625a8.421,8.421,0,0,1,4.919-1.327,8.086,8.086,0,0,1,4.726,1.713c.987.815,1.3,1.55,1.111,1.723" transform="translate(5.235 5.222)" fill="#263238"/>
            <path id="Trazado_819646" data-name="Trazado 819646" d="M101.934,129.121a3.07,3.07,0,0,1-3.069,2.989,2.935,2.935,0,0,1-3.063-2.878,3.072,3.072,0,0,1,3.065-2.991,2.937,2.937,0,0,1,3.066,2.881" transform="translate(4.291 5.655)" fill="#263238"/>
            <path id="Trazado_819647" data-name="Trazado 819647" d="M98.778,118.5c-.395.387-2.661-1.416-5.961-1.523-3.294-.157-5.779,1.455-6.122,1.039-.169-.185.24-.893,1.327-1.624a8.421,8.421,0,0,1,4.919-1.328,8.1,8.1,0,0,1,4.726,1.713c.984.815,1.3,1.55,1.112,1.723" transform="translate(3.882 5.154)" fill="#263238"/>
            <path id="Trazado_819648" data-name="Trazado 819648" d="M107.857,143.32c-.008-.189,2.055-.471,5.4-.777.846-.056,1.65-.2,1.813-.767a4.3,4.3,0,0,0-.474-2.518q-1.08-3.1-2.264-6.507c-3.138-9.262-5.375-16.865-5-16.988s3.22,7.284,6.357,16.545q1.13,3.424,2.159,6.542a4.884,4.884,0,0,1,.32,3.324,2.116,2.116,0,0,1-1.43,1.183,5.659,5.659,0,0,1-1.439.148c-3.352.061-5.428,0-5.434-.185" transform="translate(4.806 5.186)" fill="#263238"/>
            <path id="Trazado_819649" data-name="Trazado 819649" d="M98.482,143.993c.538-.013.418,3.571,3.394,6.223s6.8,2.395,6.815,2.9c.042.227-.876.666-2.49.652a8.92,8.92,0,0,1-5.7-2.214,7.777,7.777,0,0,1-2.616-5.21c-.084-1.5.348-2.377.592-2.347" transform="translate(4.385 6.45)" fill="#263238"/>
            <path id="Trazado_819650" data-name="Trazado 819650" d="M99.193,109.477c-.423.843-3.239-.027-6.7-.093-3.454-.145-6.359.551-6.684-.316-.141-.413.465-1.172,1.7-1.86a10.331,10.331,0,0,1,5.173-1.169,9.911,9.911,0,0,1,5.019,1.482c1.156.76,1.672,1.554,1.484,1.956" transform="translate(3.843 4.75)" fill="#263238"/>
            <path id="Trazado_819651" data-name="Trazado 819651" d="M128.543,111.312c-.545.776-2.854.1-5.59.2-2.737-.005-5.024.739-5.593-.021-.252-.369.077-1.137,1.056-1.893a8.1,8.1,0,0,1,9.011-.141c1,.725,1.354,1.483,1.115,1.86" transform="translate(5.254 4.845)" fill="#263238"/>
            <path id="Trazado_819652" data-name="Trazado 819652" d="M134.733,100.738s-5.187-13.653-11.562-17.024c-7.718-4.079-11.4,4.421-18.815,2.062s-14.777-6.271-22.63-.757c-8.6,6.034-4.832,10.615-5.688,20.129-3.471,38.567-10.915,49.243-12.275,30.971-.149-2-5.627-3.785-6.148-12.239-.675-10.963-.624-24.242,2.09-31.909,2.288-6.462,6.175-10.844,13.033-15.584,10.826-7.482,25.32-7.136,35.123-5.8s28.367,13.335,26.872,30.147" transform="translate(2.565 3.128)" fill="#263238"/>
            <path id="Trazado_819653" data-name="Trazado 819653" d="M65.443,133.015a5.834,5.834,0,0,0-6.1-5.844c-4.019.239-8.559,2.355-8.588,10.643-.054,14.7,14.718,11.723,14.745,11.3.018-.286-.029-9.949-.062-16.1" transform="translate(2.274 5.696)" fill="#ae7461"/>
            <path id="Trazado_819654" data-name="Trazado 819654" d="M62.111,143.368c-.065-.047-.257.179-.691.375a2.555,2.555,0,0,1-1.915.032c-1.55-.576-2.849-3.046-2.912-5.7a8.454,8.454,0,0,1,.731-3.664,2.956,2.956,0,0,1,1.933-1.959,1.3,1.3,0,0,1,1.509.707c.2.412.1.705.18.73.041.038.316-.246.2-.853a1.637,1.637,0,0,0-.575-.924,1.931,1.931,0,0,0-1.415-.379,3.6,3.6,0,0,0-2.684,2.27,8.685,8.685,0,0,0-.9,4.094c.084,2.964,1.59,5.741,3.713,6.363a2.744,2.744,0,0,0,2.343-.379c.457-.363.535-.691.485-.718" transform="translate(2.489 5.901)" fill="#6f4439"/>
            <path id="Trazado_819655" data-name="Trazado 819655" d="M66.648,107.349c1.861,1.37,3.827,2.783,6.117,3.093s4.965-.917,5.434-3.179c.21-1.017,0-2.211.7-2.978.837-.914,2.306-.566,3.53-.392A9.379,9.379,0,0,0,92.4,97.518c1.031,1.67,3.576,1.689,5.263.685s2.808-2.7,4.15-4.135,3.2-2.688,5.131-2.342c1.08.192,2.074.874,3.169.817,1.934-.1,2.957-2.328,3.316-4.231s.666-4.129,2.337-5.112c1.546-.91,3.49-.282,5.256.042s4.073-.01,4.589-1.73a3.488,3.488,0,0,0-.563-2.687,9.517,9.517,0,0,0-11.1-4,12.9,12.9,0,0,0-23.6-3.341,13.093,13.093,0,0,0-21.084,4.027,9.488,9.488,0,0,0-11.18,13.414c-2.695,1.415-5.047,3.957-5.21,6.995s2.691,6.172,5.652,5.477a5.255,5.255,0,0,0,8.9,5.56" transform="translate(2.368 2.919)" fill="#263238"/>
            <path id="Trazado_819656" data-name="Trazado 819656" d="M57.259,99.773c-.049-.041-.314,1.224.814,2.855a4.726,4.726,0,0,0,2.882,1.86,5.089,5.089,0,0,0,4.229-1.069l-.617-.115a14.691,14.691,0,0,0,2.8,3.768,8.449,8.449,0,0,0,2.617,1.758,6.524,6.524,0,0,0,7.271-1.9,8.475,8.475,0,0,0,1.3-3.013,2.882,2.882,0,0,0,.156-1.183c-.063-.017-.2.383-.47,1.086a9.881,9.881,0,0,1-1.455,2.746c-1.467,2.056-6.041,2.97-8.833-.108a14.783,14.783,0,0,1-2.674-3.531l-.243-.442-.375.327a4.462,4.462,0,0,1-3.581,1,4.325,4.325,0,0,1-2.608-1.5,7.134,7.134,0,0,1-1.21-2.545" transform="translate(2.562 4.469)" fill="#455a64"/>
            <path id="Trazado_819657" data-name="Trazado 819657" d="M223.669,283.922s27.716-.831,29.377-1.35a17.438,17.438,0,0,1,7.681,0c1.973.624,9.862,3.426,9.862,3.426l16.744,4.463s16.825,11.007,16.473,13.208-2.179,3.712-5.19,2.57-18.2-9.031-18.2-9.031l-16.674-1.765s-22.8,8.191-27.407,7.786-16.4-2.4-16.4-2.4-1.66-11.819-.83-13.687,4.567-3.218,4.567-3.218" transform="translate(9.804 12.639)" fill="#ae7461"/>
            <path id="Trazado_819658" data-name="Trazado 819658" d="M302.6,313.177s-14.045-15.061-17.938-17.092-25.553-5.584-25.553-5.584-6.938-2.876-9.476-1.861-29.445,5.077-30.63,5.246,5.754,23.691,5.754,23.691a54.839,54.839,0,0,0,20.138-.846c10.83-2.538,14.553-5.923,14.553-5.923l10.812-2.839,6.615,2.523s1.188,9.793,5.927,9.285l2.2-1.523-1.691-10.83,6.937,2.877s5.415,8.122,9.477,6.937,2.876-4.061,2.876-4.061" transform="translate(9.804 12.92)" fill="#ae7461"/>
            <path id="Trazado_819659" data-name="Trazado 819659" d="M302.614,313.187a3.307,3.307,0,0,1,.108,1.175,2.6,2.6,0,0,1-.523,1.322,3.857,3.857,0,0,1-1.59,1.159,4.006,4.006,0,0,1-2.437.349,7.463,7.463,0,0,1-2.688-1.363,24.511,24.511,0,0,1-5.1-5.6l-.026-.038-.041-.017-6.928-2.9-.284-.118.047.305c.5,3.259,1.063,6.914,1.664,10.835l.085-.2-2.2,1.518.1-.036a3.169,3.169,0,0,1-2.441-.9,7.2,7.2,0,0,1-1.615-2.351,21.292,21.292,0,0,1-1.622-5.86l-.019-.138-.126-.049-6.611-2.533-.071-.027-.075.02L259.4,310.574l-.049.013-.057.045a28.137,28.137,0,0,1-7.48,3.812,62.812,62.812,0,0,1-8.519,2.37,54.193,54.193,0,0,1-9.091,1.025,51.449,51.449,0,0,1-9.382-.519l.212.19c-.479-1.66-.994-3.445-1.511-5.24-1.485-5.321-2.98-10.56-4.065-15.737a17.913,17.913,0,0,1-.295-1.93,2.355,2.355,0,0,1,0-.438c-.01-.068.065-.108-.043-.02a.127.127,0,0,1-.06.016l.027-.005.061-.008.123-.019.976-.146,3.867-.592,7.571-1.192c4.97-.8,9.787-1.59,14.406-2.472,1.159-.241,2.288-.435,3.434-.786a6.322,6.322,0,0,1,3.25-.1,33.038,33.038,0,0,1,6.264,1.88l.026.01.025,0c7.572,1.273,14.5,2.519,20.539,3.968a37.332,37.332,0,0,1,4.3,1.26,13.1,13.1,0,0,1,3.414,2.309c2.045,1.734,3.821,3.45,5.423,5,3.194,3.1,5.624,5.616,7.29,7.316l1.9,1.946c.43.441.663.655.663.655s-.2-.249-.612-.7q-.647-.7-1.846-1.993c-1.634-1.732-4.035-4.275-7.2-7.41-1.59-1.562-3.354-3.292-5.4-5.052-.513-.439-1.042-.881-1.611-1.3a7.627,7.627,0,0,0-1.88-1.088,37.426,37.426,0,0,0-4.345-1.3c-6.057-1.487-12.976-2.759-20.555-4.058l.051.015a33.326,33.326,0,0,0-6.36-1.928,6.785,6.785,0,0,0-3.494.111c-1.056.321-2.224.526-3.364.759-4.608.868-9.425,1.647-14.394,2.442l-7.57,1.183-3.866.588-.973.145-.122.018-.061.008-.033.006a.453.453,0,0,0-.115.043.519.519,0,0,0-.231.416,2.855,2.855,0,0,0,0,.55,18.306,18.306,0,0,0,.3,2c1.091,5.223,2.583,10.451,4.069,15.783l1.513,5.245.047.165.165.025a51.848,51.848,0,0,0,9.5.523,54.6,54.6,0,0,0,9.179-1.044,63.173,63.173,0,0,0,8.593-2.4,40.842,40.842,0,0,0,3.994-1.692A19.112,19.112,0,0,0,259.631,311l-.106.057,10.808-2.852-.146-.007,6.619,2.513-.145-.186a21.651,21.651,0,0,0,1.68,5.992,7.63,7.63,0,0,0,1.725,2.48,3.59,3.59,0,0,0,2.77.992l.053-.006.043-.029,2.2-1.529.1-.072-.02-.124c-.622-3.916-1.2-7.57-1.72-10.825l-.237.186,6.948,2.853-.066-.054a24.524,24.524,0,0,0,5.208,5.62,7.616,7.616,0,0,0,2.785,1.369,4.157,4.157,0,0,0,2.54-.4,3.943,3.943,0,0,0,1.621-1.23,2.649,2.649,0,0,0,.508-1.386,2.241,2.241,0,0,0-.187-1.182" transform="translate(9.793 12.91)" fill="#6f4439"/>
            <path id="Trazado_819660" data-name="Trazado 819660" d="M258.3,299.98a4.021,4.021,0,0,0,1.067-.026c.682-.053,1.667-.146,2.884-.274l4.266-.474,1.233-.145a4.107,4.107,0,0,1,1.227.026,24.878,24.878,0,0,1,2.632.546c3.524,1.024,7.048,1.7,8.406,3.793a7.887,7.887,0,0,1,1.254,2.526,10.406,10.406,0,0,0,.278,1.021,2.539,2.539,0,0,0-.072-1.072,7.21,7.21,0,0,0-1.149-2.7,6.572,6.572,0,0,0-1.437-1.473,8.325,8.325,0,0,0-2.1-1.064c-1.53-.558-3.232-1.089-5.049-1.557a23.539,23.539,0,0,0-2.7-.547,4.55,4.55,0,0,0-1.352-.014l-1.231.163-4.257.59c-1.21.177-2.189.328-2.863.445a3.993,3.993,0,0,0-1.041.237" transform="translate(11.571 13.371)" fill="#6f4439"/>
            <path id="Trazado_819661" data-name="Trazado 819661" d="M296.018,307.976a8.584,8.584,0,0,0-1.162-1.17c-.779-.719-1.929-1.735-3.385-2.949s-3.218-2.629-5.25-4.1c-1.021-.732-2.107-1.482-3.285-2.191a17.565,17.565,0,0,0-1.871-.979,16.555,16.555,0,0,0-2.071-.663c-5.612-1.547-10.864-1.951-14.6-2.512l-4.452-.554a9.717,9.717,0,0,0-1.642-.13,9.508,9.508,0,0,0,1.613.34l4.426.724c3.727.659,8.961,1.123,14.515,2.656a16.477,16.477,0,0,1,2,.637,17.356,17.356,0,0,1,1.812.939c1.16.691,2.244,1.424,3.265,2.14,2.035,1.444,3.815,2.826,5.3,4l3.489,2.81a10.618,10.618,0,0,0,1.3,1.01" transform="translate(11.571 13.112)" fill="#6f4439"/>
            <path id="Trazado_819662" data-name="Trazado 819662" d="M127.51,213.95a161.73,161.73,0,0,1,13.244,22.337c5.018,10.449,21.26,46.02,21.26,46.02l66.162,3.472L227.2,311.34s-63.9,22.766-78.209,18.375-29.544-20.885-29.544-20.885L112.6,201.007s5.676-1.07,14.906,12.943" transform="translate(5.044 9.003)" fill="#98d1ca"/>
            <path id="Trazado_819663" data-name="Trazado 819663" d="M117.206,202.066s16.964,38.479,19.444,54.779c4.921,32.359,6.574,52.613,6.574,52.613l5.768,50.077H36S32.256,266.724,34.66,235.6c1.8-23.314,19.657-37.835,26.962-45.811.439-.48,2.451-7.007,2.451-7.007l52.655,13.485Z" transform="translate(1.517 8.188)" fill="#98d1ca"/>
            <path id="Trazado_819664" data-name="Trazado 819664" d="M118.862,206.836a2.041,2.041,0,0,0,.131.366c.108.261.251.608.43,1.049.4.949.967,2.3,1.692,4.02,1.453,3.5,3.547,8.565,5.654,15a178.462,178.462,0,0,1,5.841,23.018c1.681,8.788,3.043,18.54,4.178,28.806,2.083,20.557,3.967,39.165,5.335,52.669.7,6.714,1.267,12.157,1.662,15.956.2,1.858.366,3.313.479,4.336.059.472.1.845.14,1.125a1.95,1.95,0,0,0,.064.381,1.893,1.893,0,0,0-.009-.387c-.022-.283-.049-.657-.084-1.133-.09-1.025-.216-2.483-.378-4.346-.355-3.8-.864-9.253-1.491-15.974-1.306-13.485-3.032-32.118-5.176-52.689-1.136-10.276-2.514-20.039-4.226-28.841a174.208,174.208,0,0,0-5.968-23.045c-2.161-6.431-4.312-11.484-5.828-14.956-.746-1.742-1.37-3.075-1.785-3.982-.2-.433-.361-.772-.481-1.028a2.19,2.19,0,0,0-.181-.343" transform="translate(5.324 9.265)" fill="#263238"/>
            <g id="Grupo_1072452" data-name="Grupo 1072452" transform="translate(65.215 250.217)" opacity="0.3">
              <g id="Grupo_1072451" data-name="Grupo 1072451">
                <g id="Grupo_1072450" data-name="Grupo 1072450" clip-path="url(#clip-path-8)">
                  <path id="Trazado_819665" data-name="Trazado 819665" d="M62.687,265.946c1.04-10.253,5.646-20.536,14.08-26.457l68.9,98.384C133.5,344.431,120,351.2,106.482,348.315c-7.269-1.555-13.733-5.842-18.973-11.113-10.9-10.957-16.806-25.886-20.961-40.769-2.77-9.926-4.9-20.233-3.862-30.486" transform="translate(-62.419 -239.489)"/>
                </g>
              </g>
            </g>
            <path id="Trazado_819666" data-name="Trazado 819666" d="M55.2,255.88c8.584,30.375,27.9,67.438,33.836,74.885a46.056,46.056,0,0,0,36.046,17.686c7.773,0,73.471-12.794,92.94-16.619a8.339,8.339,0,0,0,6.553-6.473l.169-.806,8.765-2.36-4.668-23.517-.931-1.3-93.962,2.956L106.614,224.2c-.516-.87-8.411-26.418-29.814-25.258" transform="translate(2.473 8.91)" fill="#98d1ca"/>
            <path id="Trazado_819667" data-name="Trazado 819667" d="M76.8,198.943s.24.01.71.009A20.531,20.531,0,0,1,79.6,199a23.624,23.624,0,0,1,7.9,1.875,28.656,28.656,0,0,1,10.311,7.954,51.623,51.623,0,0,1,8.672,15.445l-.013-.026,27.256,76.158.057.162.173-.005,93.962-2.922-.229-.113.932,1.3-.046-.1c1.35,6.8,2.785,14.038,4.237,21.35.147.743.295,1.485.429,2.167l.2-.316-8.765,2.361-.17.046-.025.161a8.471,8.471,0,0,1-2.582,5.062,7.88,7.88,0,0,1-2.4,1.54,14.056,14.056,0,0,1-2.806.717l-11.5,2.245-22.464,4.322c-14.721,2.79-28.9,5.442-42.433,7.731-3.383.561-6.726,1.1-10.03,1.565-1.654.207-3.3.439-4.919.513a38.266,38.266,0,0,1-4.867-.243,46.14,46.14,0,0,1-17.758-5.7,47.22,47.22,0,0,1-13.252-11.3,62.315,62.315,0,0,1-4.558-6.877q-2.053-3.49-3.884-6.9A371.526,371.526,0,0,1,60.877,272.78c-1.989-5.392-3.4-9.621-4.3-12.5-.442-1.436-.78-2.533-1.011-3.283s-.363-1.113-.363-1.113.1.384.31,1.127.541,1.857.962,3.3c.867,2.9,2.25,7.137,4.212,12.544a363.726,363.726,0,0,0,20.009,44.5q1.829,3.415,3.874,6.924a62.655,62.655,0,0,0,4.578,6.935A47.617,47.617,0,0,0,102.5,342.641a46.6,46.6,0,0,0,17.928,5.78,38.882,38.882,0,0,0,4.923.252c1.672-.074,3.315-.306,4.977-.512,3.313-.464,6.66-1,10.047-1.556,13.54-2.277,27.726-4.918,42.451-7.7l22.467-4.313,11.5-2.242a14.524,14.524,0,0,0,2.909-.747,8.447,8.447,0,0,0,2.564-1.643,9.024,9.024,0,0,0,2.745-5.348l-.194.206,8.764-2.36.247-.066-.05-.25c-.136-.683-.282-1.424-.429-2.167-1.452-7.314-2.889-14.549-4.239-21.35l-.011-.057-.034-.047-.931-1.3-.085-.118-.144,0-93.961,2.989.231.157c-11.041-30.65-20.471-56.825-27.413-76.1l-.013-.026a51.549,51.549,0,0,0-8.754-15.443,28.685,28.685,0,0,0-10.428-7.95,23.315,23.315,0,0,0-7.954-1.81,18.269,18.269,0,0,0-2.1-.009c-.471.015-.709.032-.709.032" transform="translate(2.473 8.909)" fill="#263238"/>
            <path id="Trazado_819668" data-name="Trazado 819668" d="M150.388,290.71a26.592,26.592,0,0,1,10.842-11.639,7.372,7.372,0,0,0-2.186.99,20.1,20.1,0,0,0-7.823,8.4,7.384,7.384,0,0,0-.833,2.252" transform="translate(6.736 12.501)" fill="#263238"/>
            <path id="Trazado_819669" data-name="Trazado 819669" d="M119.7,314.391c.093.014.276-1.2.821-3.1a28.622,28.622,0,0,1,7.919-12.971c1.437-1.351,2.436-2.07,2.382-2.146-.022-.031-.289.121-.757.426a17.453,17.453,0,0,0-1.882,1.434,25.313,25.313,0,0,0-8.033,13.158,17.668,17.668,0,0,0-.416,2.329,2.659,2.659,0,0,0-.033.869" transform="translate(5.361 13.267)" fill="#263238"/>
            <g id="Grupo_1072455" data-name="Grupo 1072455" transform="translate(135.564 244.845)" opacity="0.3">
              <g id="Grupo_1072454" data-name="Grupo 1072454">
                <g id="Grupo_1072453" data-name="Grupo 1072453" clip-path="url(#clip-path-9)">
                  <path id="Trazado_819670" data-name="Trazado 819670" d="M144.311,298.149l-5.47.2c-.882-21.461-5.3-42.862-9.09-64.005,9.645,19.7,12.173,42,14.559,63.8" transform="translate(-129.752 -234.347)"/>
                </g>
              </g>
            </g>
            <path id="Trazado_819671" data-name="Trazado 819671" d="M62.187,189.493a2.06,2.06,0,0,0,.516.18l1.5.413,5.539,1.473c4.677,1.242,11.123,3.025,18.288,4.832s13.721,3.205,18.5,3.991c2.39.395,4.332.674,5.681.812l1.552.157a2.034,2.034,0,0,0,.546.018,2.087,2.087,0,0,0-.532-.126l-1.538-.258c-1.336-.2-3.266-.538-5.642-.981-4.755-.881-11.279-2.33-18.439-4.141s-13.621-3.528-18.326-4.676c-2.351-.581-4.261-1.022-5.584-1.306l-1.529-.313a2.037,2.037,0,0,0-.541-.073" transform="translate(2.786 8.488)" fill="#263238"/>
            <path id="Trazado_819672" data-name="Trazado 819672" d="M386.979,230.321H351.018a4.5,4.5,0,0,1-4.5-4.5V176.047a4.5,4.5,0,0,1,4.5-4.5h22.806l17.655,18.2v36.078a4.5,4.5,0,0,1-4.5,4.5" transform="translate(15.522 7.685)" fill="#98d1ca"/>
            <g id="Grupo_1072458" data-name="Grupo 1072458" transform="translate(362.04 220.172)" opacity="0.2">
              <g id="Grupo_1072457" data-name="Grupo 1072457">
                <g id="Grupo_1072456" data-name="Grupo 1072456" clip-path="url(#clip-path-10)">
                  <path id="Trazado_819673" data-name="Trazado 819673" d="M384.709,228.566H353.287a6.77,6.77,0,0,1-6.769-6.769v-9.769a1.294,1.294,0,0,1,1.294-1.294h42.372a1.293,1.293,0,0,1,1.293,1.294V221.8a6.769,6.769,0,0,1-6.768,6.769" transform="translate(-346.518 -210.732)"/>
                </g>
              </g>
            </g>
            <g id="Grupo_1072461" data-name="Grupo 1072461" transform="translate(389.346 179.232)" opacity="0.2">
              <g id="Grupo_1072460" data-name="Grupo 1072460">
                <g id="Grupo_1072459" data-name="Grupo 1072459" clip-path="url(#clip-path-11)">
                  <path id="Trazado_819674" data-name="Trazado 819674" d="M372.653,171.547v14.009a4.186,4.186,0,0,0,4.184,4.185l13.47,0Z" transform="translate(-372.653 -171.547)" fill="#fff"/>
                </g>
              </g>
            </g>
            <g id="Grupo_1072464" data-name="Grupo 1072464" transform="translate(389.529 194.469)" opacity="0.2">
              <g id="Grupo_1072463" data-name="Grupo 1072463">
                <g id="Grupo_1072462" data-name="Grupo 1072462" clip-path="url(#clip-path-12)">
                  <path id="Trazado_819675" data-name="Trazado 819675" d="M372.829,186.131a4.652,4.652,0,0,0,3.69,4.515c.145.042.295.073.443.1,1.759.313,13.337,2.374,13.337,2.107v-3.764H376.83s-3.363-.115-4-2.958" transform="translate(-372.828 -186.131)"/>
                </g>
              </g>
            </g>
            <path id="Trazado_819676" data-name="Trazado 819676" d="M358.836,218.324a3.85,3.85,0,0,1,6.673-2.377l-1.039.959a2.249,2.249,0,0,0-1.758-.82,2.238,2.238,0,0,0,0,4.476,2.229,2.229,0,0,0,1.758-.83l1.039.959a3.844,3.844,0,0,1-6.673-2.367" transform="translate(16.074 9.618)" fill="#fafafa"/>
            <path id="Trazado_819677" data-name="Trazado 819677" d="M365.678,221.131l.55-1.219a4.113,4.113,0,0,0,2.308.729c.958,0,1.348-.32,1.348-.749,0-1.308-4.065-.41-4.065-3.006,0-1.189.959-2.178,2.947-2.178a4.682,4.682,0,0,1,2.427.62l-.5,1.229a3.945,3.945,0,0,0-1.938-.55c-.959,0-1.328.359-1.328.8,0,1.288,4.065.4,4.065,2.967,0,1.168-.97,2.167-2.967,2.167a4.985,4.985,0,0,1-2.847-.809" transform="translate(16.381 9.618)" fill="#fafafa"/>
            <path id="Trazado_819678" data-name="Trazado 819678" d="M371.776,221.131l.549-1.219a4.119,4.119,0,0,0,2.309.729c.958,0,1.348-.32,1.348-.749,0-1.308-4.065-.41-4.065-3.006,0-1.189.958-2.178,2.946-2.178a4.683,4.683,0,0,1,2.428.62l-.5,1.229a3.945,3.945,0,0,0-1.938-.55c-.958,0-1.328.359-1.328.8,0,1.288,4.066.4,4.066,2.967,0,1.168-.97,2.167-2.967,2.167a4.983,4.983,0,0,1-2.847-.809" transform="translate(16.654 9.618)" fill="#fafafa"/>
            <path id="Trazado_819679" data-name="Trazado 819679" d="M361.136,196.831c.739.226,1.076.692,1.076,1.8v2.57a1.057,1.057,0,0,0,1.172,1.189h.289v1.959h-.931c-2.008,0-3.036-1.027-3.036-2.875v-2.906a.658.658,0,0,0-.706-.756h-.531v-1.959H359a.659.659,0,0,0,.706-.756v-2.907c0-1.847,1.028-2.875,3.036-2.875h.931v1.959h-.289a1.057,1.057,0,0,0-1.172,1.189v2.571c0,1.107-.337,1.573-1.076,1.8" transform="translate(16.058 8.48)" fill="#fafafa"/>
            <path id="Trazado_819680" data-name="Trazado 819680" d="M377.821,195.852v1.959h-.531a.658.658,0,0,0-.706.755v2.908c0,1.847-1.028,2.875-3.036,2.875h-.931v-1.959h.288a1.058,1.058,0,0,0,1.173-1.189v-2.57c0-1.109.337-1.574,1.076-1.8-.739-.226-1.076-.691-1.076-1.8v-2.57a1.057,1.057,0,0,0-1.173-1.189h-.288v-1.96h.931c2.008,0,3.036,1.028,3.036,2.875V195.1a.658.658,0,0,0,.706.755Z" transform="translate(16.692 8.48)" fill="#fafafa"/>
            <path id="Trazado_819681" data-name="Trazado 819681" d="M424.495,252.938h-36.5a4.567,4.567,0,0,1-4.568-4.568V197.844a4.567,4.567,0,0,1,4.568-4.568h23.151l17.921,18.471V248.37a4.568,4.568,0,0,1-4.568,4.568" transform="translate(17.176 8.658)" fill="#98d1ca"/>
            <g id="Grupo_1072467" data-name="Grupo 1072467" transform="translate(400.598 243.493)" opacity="0.2">
              <g id="Grupo_1072466" data-name="Grupo 1072466">
                <g id="Grupo_1072465" data-name="Grupo 1072465" clip-path="url(#clip-path-13)">
                  <path id="Trazado_819682" data-name="Trazado 819682" d="M421.857,251.156H390.628a7.205,7.205,0,0,1-7.2-7.206v-10.9h45.64v10.9a7.206,7.206,0,0,1-7.206,7.206" transform="translate(-383.422 -233.053)"/>
                </g>
              </g>
            </g>
            <g id="Grupo_1072470" data-name="Grupo 1072470" transform="translate(428.317 201.933)" opacity="0.2">
              <g id="Grupo_1072469" data-name="Grupo 1072469">
                <g id="Grupo_1072468" data-name="Grupo 1072468" clip-path="url(#clip-path-14)">
                  <path id="Trazado_819683" data-name="Trazado 819683" d="M409.953,193.275V207.5a4.247,4.247,0,0,0,4.248,4.247l13.673,0Z" transform="translate(-409.953 -193.275)" fill="#fff"/>
                </g>
              </g>
            </g>
            <g id="Grupo_1072473" data-name="Grupo 1072473" transform="translate(428.502 217.401)" opacity="0.2">
              <g id="Grupo_1072472" data-name="Grupo 1072472">
                <g id="Grupo_1072471" data-name="Grupo 1072471" clip-path="url(#clip-path-15)">
                  <path id="Trazado_819684" data-name="Trazado 819684" d="M410.131,208.08a4.722,4.722,0,0,0,3.747,4.582,4.422,4.422,0,0,0,.449.1c1.786.32,13.538,2.41,13.538,2.14v-3.821H414.192s-3.414-.117-4.061-3" transform="translate(-410.13 -208.08)"/>
                </g>
              </g>
            </g>
            <path id="Trazado_819685" data-name="Trazado 819685" d="M401.7,218.833l-5.479,2.007,5.479,1.991v2.056l-7.832-2.978v-2.139l7.832-2.979Z" transform="translate(17.643 9.711)" fill="#fafafa"/>
            <path id="Trazado_819686" data-name="Trazado 819686" d="M407.23,212.919h2.287l-5.43,15.5H401.8Z" transform="translate(17.999 9.538)" fill="#fafafa"/>
            <path id="Trazado_819687" data-name="Trazado 819687" d="M417.3,219.771v2.139l-7.832,2.978v-2.056l5.479-1.991-5.479-2.007v-2.04Z" transform="translate(18.342 9.711)" fill="#fafafa"/>
            <path id="Trazado_819688" data-name="Trazado 819688" d="M399.82,239.5v6.134H398.4V243.12h-2.786v2.515h-1.419V239.5h1.419v2.419H398.4V239.5Z" transform="translate(17.658 10.729)" fill="#fafafa"/>
            <path id="Trazado_819689" data-name="Trazado 819689" d="M402.27,240.657h-1.963V239.5h5.346v1.157H403.69v4.977h-1.42Z" transform="translate(17.932 10.729)" fill="#fafafa"/>
            <path id="Trazado_819690" data-name="Trazado 819690" d="M411.734,245.635l-.008-3.681-1.805,3.032h-.639l-1.8-2.953v3.6h-1.332V239.5h1.174l2.3,3.811,2.26-3.811h1.166l.018,6.134Z" transform="translate(18.194 10.729)" fill="#fafafa"/>
            <path id="Trazado_819691" data-name="Trazado 819691" d="M414.16,239.5h1.42v4.977h3.076v1.157h-4.5Z" transform="translate(18.552 10.729)" fill="#fafafa"/>
          </g>
        </g>
      </g>
    </g>
    <path id="Sustracción_12" data-name="Sustracción 12" d="M116.486,0H0V.365a59.23,59.23,0,0,0,1.183,11.8A58.354,58.354,0,0,0,4.576,23.149a58.561,58.561,0,0,0,5.37,9.944,58.721,58.721,0,0,0,7.112,8.662,58.918,58.918,0,0,0,8.62,7.15A58.294,58.294,0,0,0,35.574,54.3a57.654,57.654,0,0,0,10.934,3.409,58.454,58.454,0,0,0,23.476,0A57.537,57.537,0,0,0,80.914,54.3,58.251,58.251,0,0,0,90.808,48.9a58.906,58.906,0,0,0,8.621-7.15,58.948,58.948,0,0,0,7.111-8.662,58.737,58.737,0,0,0,5.37-9.944A58.36,58.36,0,0,0,115.3,12.163a59.263,59.263,0,0,0,1.183-11.8c0-.12,0-.239,0-.355V0Z" transform="translate(684.286 8304.682) rotate(180)" fill="#8054f8"/>
  </g>
</svg>
