<svg xmlns="http://www.w3.org/2000/svg" width="156" height="118" viewBox="0 0 156 118">
  <g id="Grupo_1071992" data-name="Grupo 1071992" transform="translate(-315 -1806)">
    <rect id="Rectángulo_381505" data-name="Rectángulo 381505" width="156" height="118" transform="translate(315 1806)" fill="#f0f8f7"/>
    <g id="datos_1_" data-name="datos (1)" transform="translate(336.589 1812)">
      <path id="Trazado_818428" data-name="Trazado 818428" d="M11.723,0H84.839a7.312,7.312,0,0,1,7.312,7.312V65.8a7.312,7.312,0,0,1-7.312,7.312H11.723A7.312,7.312,0,0,1,4.411,65.8V7.312A7.311,7.311,0,0,1,11.723,0Z" fill="#87ced9"/>
      <g id="Grupo_1071988" data-name="Grupo 1071988" transform="translate(9.895 5.484)">
        <rect id="Rectángulo_381605" data-name="Rectángulo 381605" width="3.656" height="3.656" fill="#4398d1"/>
        <rect id="Rectángulo_381606" data-name="Rectángulo 381606" width="3.656" height="3.656" transform="translate(7.312)" fill="#4398d1"/>
        <rect id="Rectángulo_381607" data-name="Rectángulo 381607" width="3.656" height="3.656" transform="translate(14.623)" fill="#4398d1"/>
        <path id="Trazado_818429" data-name="Trazado 818429" d="M64.689,70.621H137.8a7.312,7.312,0,0,1,7.312,7.312v58.493a7.312,7.312,0,0,1-7.312,7.312H64.689a7.312,7.312,0,0,1-7.312-7.312V77.933A7.311,7.311,0,0,1,64.689,70.621Z" transform="translate(-51.893 -61.481)" fill="#4398d1"/>
      </g>
      <path id="Trazado_818430" data-name="Trazado 818430" d="M199.8,70.621h-8.684c-13.1,41.711-38.187,62.792-55.554,73.116H199.8a7.312,7.312,0,0,0,7.312-7.312V77.933A7.312,7.312,0,0,0,199.8,70.621Z" transform="translate(-103.994 -55.998)" fill="#3f8fc4"/>
      <g id="Grupo_1071989" data-name="Grupo 1071989" transform="translate(20.862 20.107)">
        <rect id="Rectángulo_381608" data-name="Rectángulo 381608" width="3.656" height="3.656" fill="#87ced9"/>
        <rect id="Rectángulo_381609" data-name="Rectángulo 381609" width="3.656" height="3.656" transform="translate(7.312)" fill="#87ced9"/>
        <rect id="Rectángulo_381610" data-name="Rectángulo 381610" width="3.656" height="3.656" transform="translate(14.623)" fill="#87ced9"/>
      </g>
      <g id="Grupo_1071990" data-name="Grupo 1071990" transform="translate(20.862 27.419)">
        <rect id="Rectángulo_381611" data-name="Rectángulo 381611" width="76.772" height="3.656" transform="translate(0 45.698)" fill="#3685ba"/>
        <rect id="Rectángulo_381612" data-name="Rectángulo 381612" width="3.656" height="10.968" transform="translate(3.656 31.075)" fill="#3685ba"/>
        <rect id="Rectángulo_381613" data-name="Rectángulo 381613" width="3.656" height="21.935" transform="translate(10.967 20.107)" fill="#3685ba"/>
        <rect id="Rectángulo_381614" data-name="Rectángulo 381614" width="3.656" height="16.451" transform="translate(18.279 25.591)" fill="#3685ba"/>
        <rect id="Rectángulo_381615" data-name="Rectángulo 381615" width="3.656" height="29.247" transform="translate(25.591 12.795)" fill="#3685ba"/>
        <rect id="Rectángulo_381616" data-name="Rectángulo 381616" width="3.656" height="32.903" transform="translate(32.903 9.14)" fill="#3685ba"/>
        <rect id="Rectángulo_381617" data-name="Rectángulo 381617" width="3.656" height="12.795" transform="translate(40.214 10.967)" fill="#3685ba"/>
        <rect id="Rectángulo_381618" data-name="Rectángulo 381618" width="3.656" height="20.107" transform="translate(47.526 3.656)" fill="#3685ba"/>
        <rect id="Rectángulo_381619" data-name="Rectángulo 381619" width="3.656" height="23.763" transform="translate(54.837)" fill="#3685ba"/>
        <rect id="Rectángulo_381620" data-name="Rectángulo 381620" width="3.656" height="34.73" transform="translate(62.149 7.312)" fill="#3685ba"/>
        <rect id="Rectángulo_381621" data-name="Rectángulo 381621" width="3.656" height="27.419" transform="translate(69.461 14.623)" fill="#3685ba"/>
      </g>
      <rect id="Rectángulo_381622" data-name="Rectángulo 381622" width="7.756" height="31.021" transform="translate(108.618 100.548) rotate(135)" fill="#fdb62f"/>
      <rect id="Rectángulo_381623" data-name="Rectángulo 381623" width="7.756" height="10.34" transform="translate(93.981 85.918) rotate(135)" fill="#fa962a"/>
      <circle id="Elipse_4742" data-name="Elipse 4742" cx="23.763" cy="23.763" r="23.763" transform="translate(46.453 45.698)" fill="#fdb62f"/>
      <circle id="Elipse_4743" data-name="Elipse 4743" cx="16.451" cy="16.451" r="16.451" transform="translate(53.765 53.009)" fill="#87ced9"/>
      <g id="Grupo_1071991" data-name="Grupo 1071991" transform="translate(53.765 53.009)">
        <path id="Trazado_818431" data-name="Trazado 818431" d="M244.8,353.1a16.237,16.237,0,0,0,1.309,3.656h29.44a16.251,16.251,0,0,0,1.309-3.656Z" transform="translate(-244.373 -332.996)" fill="#4398d1"/>
        <path id="Trazado_818432" data-name="Trazado 818432" d="M317.032,272.45V256.107a15.485,15.485,0,0,0-3.656,0V272.45Z" transform="translate(-298.753 -255.998)" fill="#4398d1"/>
        <path id="Trazado_818433" data-name="Trazado 818433" d="M281.722,276.112v-15.5a16.368,16.368,0,0,0-3.656,1.819v13.676Z" transform="translate(-270.754 -259.661)" fill="#4398d1"/>
        <path id="Trazado_818434" data-name="Trazado 818434" d="M352.343,276.112V262.436a16.364,16.364,0,0,0-3.656-1.819v15.5Z" transform="translate(-326.752 -259.661)" fill="#4398d1"/>
        <path id="Trazado_818435" data-name="Trazado 818435" d="M246.412,285.564a16.374,16.374,0,0,0-3.656,10.33h3.656Z" transform="translate(-242.756 -279.442)" fill="#4398d1"/>
        <path id="Trazado_818436" data-name="Trazado 818436" d="M384,295.893h3.656A16.376,16.376,0,0,0,384,285.563Z" transform="translate(-354.75 -279.441)" fill="#4398d1"/>
      </g>
    </g>
  </g>
</svg>
