<svg xmlns="http://www.w3.org/2000/svg" xmlns:xlink="http://www.w3.org/1999/xlink" width="610" height="441" viewBox="0 0 610 441">
  <defs>
    <clipPath id="clip-path">
      <path id="Trazado_818081" data-name="Trazado 818081" d="M0,0H323.563V239.417H0V0Z" fill="none"/>
    </clipPath>
  </defs>
  <g id="Grupo_1076087" data-name="Grupo 1076087" transform="translate(-180 -1306)">
    <path id="Trazado_828774" data-name="Trazado 828774" d="M0,0H610V441H0Z" transform="translate(180 1306)" fill="#f0f8f7"/>
    <g id="Grupo_1071924" data-name="Grupo 1071924" transform="translate(184 1306)" opacity="0.071" style="mix-blend-mode: multiply;isolation: isolate">
      <path id="Sustracción_2" data-name="Sustracción 2" d="M155.374,77.6H0V77.11A77.071,77.071,0,0,1,1.58,61.571,76.367,76.367,0,0,1,13.268,34,77.714,77.714,0,0,1,62.035,1.567a79.008,79.008,0,0,1,31.31,0,77.572,77.572,0,0,1,27.78,11.6A77.874,77.874,0,0,1,142.109,34,76.343,76.343,0,0,1,155.378,77.11c0,.16,0,.318,0,.474V77.6Z" transform="translate(77.597 57.58) rotate(90)" fill="#d8dcfc"/>
      <path id="Trazado_818001" data-name="Trazado 818001" d="M325.19,449.226a4.8,4.8,0,0,0,1.411,3.407l4.877,4.876-4.877,4.876a4.82,4.82,0,0,0,6.816,6.816l4.876-4.876,4.876,4.876a4.819,4.819,0,0,0,6.815-6.816l-4.876-4.876,4.876-4.876a4.819,4.819,0,0,0,0-6.815h0a4.819,4.819,0,0,0-6.815,0l-4.876,4.876-4.876-4.876a4.821,4.821,0,0,0-6.816,0h0a4.8,4.8,0,0,0-1.411,3.407Z" transform="translate(-241.96 -274.496)" fill="#283859"/>
      <path id="Rectángulo_33781" data-name="Rectángulo 33781" d="M0,0H103.328a0,0,0,0,1,0,0V88.411a41,41,0,0,1-41,41H41a41,41,0,0,1-41-41V0A0,0,0,0,1,0,0Z" transform="translate(263.864 0)" fill="#42f7c3"/>
      <g id="Rectángulo_33782" data-name="Rectángulo 33782" transform="translate(263.864 307.945)" fill="none" stroke="#283859" stroke-width="3">
        <rect width="103.328" height="120.438" rx="51" stroke="none"/>
        <rect x="1.5" y="1.5" width="100.328" height="117.438" rx="49.5" fill="none"/>
      </g>
      <g id="Elipse_4715" data-name="Elipse 4715" transform="translate(0.025 68.035)" fill="none" stroke="#8054f8" stroke-width="3">
        <ellipse cx="48.153" cy="48.153" rx="48.153" ry="48.153" stroke="none"/>
        <ellipse cx="48.153" cy="48.153" rx="46.653" ry="46.653" fill="none"/>
      </g>
      <ellipse id="Elipse_4718" data-name="Elipse 4718" cx="47.055" cy="47.055" rx="47.055" ry="47.055" transform="translate(392.18 145.63)" fill="#8054f8"/>
      <ellipse id="Elipse_4719" data-name="Elipse 4719" cx="62.198" cy="63.201" rx="62.198" ry="63.201" transform="translate(26.017 314.207)" fill="#98d1ca"/>
      <path id="Trazado_818002" data-name="Trazado 818002" d="M29.421,2.694A3.935,3.935,0,0,1,32.2,9.411L25.494,16.12l-1.9,1.9,1.9,1.906L32.2,26.637A3.935,3.935,0,1,1,26.638,32.2L19.931,25.5l-1.906-1.906L16.119,25.5,9.412,32.2a3.935,3.935,0,0,1-5.565-5.565l6.707-6.707,1.906-1.906-1.906-1.9L3.847,9.411A3.935,3.935,0,0,1,9.412,3.846l6.707,6.709,1.906,1.9,1.906-1.9,6.707-6.709a3.914,3.914,0,0,1,2.783-1.152m0-2.694a6.606,6.606,0,0,0-4.689,1.942L18.025,8.649,11.316,1.942a6.629,6.629,0,0,0-9.375,0h0a6.631,6.631,0,0,0,0,9.375L8.65,18.024,1.941,24.733a6.629,6.629,0,1,0,9.375,9.375L18.025,27.4l6.707,6.709a6.631,6.631,0,0,0,9.377,0h0a6.631,6.631,0,0,0,0-9.375L27.4,18.024l6.709-6.707a6.631,6.631,0,0,0,0-9.375h0A6.606,6.606,0,0,0,29.421,0Z" transform="matrix(-0.695, -0.719, 0.719, -0.695, 51.06, 56.606)" fill="#283859"/>
      <g id="Sustracción_3" data-name="Sustracción 3" transform="translate(412.528 146.974) rotate(-90)" fill="none">
        <path d="M146.97,74.072H0v-.464A74.225,74.225,0,0,1,1.493,58.774,73.251,73.251,0,0,1,12.548,32.455,73.942,73.942,0,0,1,32.4,12.571a73.294,73.294,0,0,1,82.172,0A73.851,73.851,0,0,1,134.42,32.455a73.319,73.319,0,0,1,11.058,26.319,74.207,74.207,0,0,1,1.5,14.835c0,.153,0,.3,0,.452v.012Z" stroke="none"/>
        <path d="M 143.9285888671875 71.07225036621094 C 143.7885589599609 67.13199615478516 143.3228149414062 63.2080078125 142.5387115478516 59.3739013671875 C 141.61181640625 54.83250427246094 140.2301483154297 50.375732421875 138.430908203125 46.12456512451172 C 136.6634826660156 41.93669128417969 134.4775085449219 37.90235900878906 131.9328155517578 34.13235855102539 C 129.409423828125 30.3897533416748 126.5137176513672 26.87275314331055 123.3269882202148 23.6799201965332 C 120.1353378295898 20.48477554321289 116.6239624023438 17.58314895629883 112.8904037475586 15.05567073822021 C 109.1302947998047 12.51027488708496 105.1021728515625 10.3202543258667 100.9167556762695 8.54598331451416 C 96.68056488037109 6.748108386993408 92.23161315917969 5.364879131317139 87.69158935546875 4.4343581199646 C 83.06254577636719 3.482587337493896 78.28337860107422 3.000004053115845 73.48683929443359 3.000004053115845 C 68.69031524658203 3.000004053115845 63.91117095947266 3.482587337493896 59.28010940551758 4.434774875640869 C 54.75398635864258 5.362191677093506 50.30356979370117 6.745628833770752 46.05277633666992 8.546586990356445 C 41.86640167236328 10.32073307037354 37.83908843994141 12.51052474975586 34.08075714111328 15.05646228790283 C 30.34408950805664 17.58344078063965 26.83354759216309 20.4843578338623 23.64577674865723 23.67948341369629 C 20.45281791687012 26.87729644775391 17.55588150024414 30.39414978027344 15.0348596572876 34.13325500488281 C 12.491943359375 37.90190124511719 10.30581855773926 41.9365234375 8.537131309509277 46.1252555847168 C 6.738339424133301 50.38446044921875 5.357255935668945 54.84196090698242 4.43211030960083 59.374755859375 C 3.64945912361145 63.20386505126953 3.184563159942627 67.12783813476562 3.044907331466675 71.07225036621094 L 143.9285888671875 71.07225036621094 M 146.9696502685547 74.07225036621094 L 5.961100214335602e-06 74.07225036621094 C 5.961100214335602e-06 73.99567413330078 5.961100214335602e-06 73.91904449462891 5.961100214335602e-06 73.84243774414062 C 5.961100214335602e-06 73.76179504394531 5.961100214335602e-06 73.68518829345703 5.961100214335602e-06 73.60860443115234 C 5.961100214335602e-06 68.61579895019531 0.5012142658233643 63.62567138671875 1.492880940437317 58.77398300170898 C 2.457610130310059 54.04727554321289 3.899276733398438 49.39585876464844 5.77348518371582 44.95808792114258 C 7.616672515869141 40.59292221069336 9.896422386169434 36.38498306274414 12.54804801940918 32.45525360107422 C 15.17675590515137 28.55642127990723 18.19621467590332 24.8914623260498 21.52285957336426 21.55977439880371 C 24.84952735900879 18.22541999816895 28.50898551940918 15.20285797119141 32.40017318725586 12.57137870788574 C 36.32642364501953 9.911691665649414 40.52481842041016 7.631003856658936 44.88219451904297 5.78439998626709 C 49.31369400024414 3.90687894821167 53.95540237426758 2.463483095169067 58.67792129516602 1.495837330818176 C 63.51498413085938 0.5012956857681274 68.50025939941406 3.997802650701487e-06 73.48683929443359 3.997802650701487e-06 C 78.47480010986328 3.997802650701487e-06 83.45873260498047 0.5012956857681274 88.2957763671875 1.495837330818176 C 93.0169677734375 2.463483095169067 97.65863037109375 3.904191493988037 102.0887985229492 5.78439998626709 C 106.4448394775391 7.631003856658936 110.6432342529297 9.911691665649414 114.572151184082 12.57137870788574 C 118.459342956543 15.20285797119141 122.1187744140625 18.22541999816895 125.449462890625 21.55977439880371 C 128.7747955322266 24.8914623260498 131.7915344238281 28.55642127990723 134.4202575683594 32.45525360107422 C 137.0745697021484 36.38767242431641 139.3542938232422 40.59694290161133 141.1948394775391 44.95808792114258 C 143.0730743408203 49.39585876464844 144.5133972167969 54.04727554321289 145.4781036376953 58.77398300170898 C 146.4697723388672 63.62298202514648 146.9736785888672 68.61579895019531 146.9736785888672 73.60860443115234 C 146.9736785888672 73.76179504394531 146.9696502685547 73.90962982177734 146.9696502685547 74.06017303466797 L 146.9696502685547 74.07225036621094 Z" stroke="none" fill="#283859"/>
      </g>
      <g id="Sustracción_8" data-name="Sustracción 8" transform="translate(486.6 244.913) rotate(90)" fill="none">
        <path d="M146.97,74.072H0v-.464A74.225,74.225,0,0,1,1.493,58.774,73.251,73.251,0,0,1,12.548,32.455,73.942,73.942,0,0,1,32.4,12.571a73.294,73.294,0,0,1,82.172,0A73.851,73.851,0,0,1,134.42,32.455a73.319,73.319,0,0,1,11.058,26.319,74.207,74.207,0,0,1,1.5,14.835c0,.153,0,.3,0,.452v.012Z" stroke="none"/>
        <path d="M 143.9285888671875 71.07225036621094 C 143.7885589599609 67.13199615478516 143.3228149414062 63.2080078125 142.5387115478516 59.3739013671875 C 141.61181640625 54.83250427246094 140.2301483154297 50.375732421875 138.430908203125 46.12456512451172 C 136.6634826660156 41.93669128417969 134.4775085449219 37.90235900878906 131.9328155517578 34.13235855102539 C 129.409423828125 30.3897533416748 126.5137176513672 26.87275314331055 123.3269882202148 23.6799201965332 C 120.1353378295898 20.48477554321289 116.6239624023438 17.58314895629883 112.8904037475586 15.05567073822021 C 109.1302947998047 12.51027488708496 105.1021728515625 10.3202543258667 100.9167556762695 8.54598331451416 C 96.68056488037109 6.748108386993408 92.23161315917969 5.364879131317139 87.69158935546875 4.4343581199646 C 83.06254577636719 3.482587337493896 78.28337860107422 3.000004053115845 73.48683929443359 3.000004053115845 C 68.69031524658203 3.000004053115845 63.91117095947266 3.482587337493896 59.28010940551758 4.434774875640869 C 54.75398635864258 5.362191677093506 50.30356979370117 6.745628833770752 46.05277633666992 8.546586990356445 C 41.86640167236328 10.32073307037354 37.83908843994141 12.51052474975586 34.08075714111328 15.05646228790283 C 30.34408950805664 17.58344078063965 26.83354759216309 20.4843578338623 23.64577674865723 23.67948341369629 C 20.45281791687012 26.87729644775391 17.55588150024414 30.39414978027344 15.0348596572876 34.13325500488281 C 12.491943359375 37.90190124511719 10.30581855773926 41.9365234375 8.537131309509277 46.1252555847168 C 6.738339424133301 50.38446044921875 5.357255935668945 54.84196090698242 4.43211030960083 59.374755859375 C 3.64945912361145 63.20386505126953 3.184563159942627 67.12783813476562 3.044907331466675 71.07225036621094 L 143.9285888671875 71.07225036621094 M 146.9696502685547 74.07225036621094 L 5.961100214335602e-06 74.07225036621094 C 5.961100214335602e-06 73.99567413330078 5.961100214335602e-06 73.91904449462891 5.961100214335602e-06 73.84243774414062 C 5.961100214335602e-06 73.76179504394531 5.961100214335602e-06 73.68518829345703 5.961100214335602e-06 73.60860443115234 C 5.961100214335602e-06 68.61579895019531 0.5012142658233643 63.62567138671875 1.492880940437317 58.77398300170898 C 2.457610130310059 54.04727554321289 3.899276733398438 49.39585876464844 5.77348518371582 44.95808792114258 C 7.616672515869141 40.59292221069336 9.896422386169434 36.38498306274414 12.54804801940918 32.45525360107422 C 15.17675590515137 28.55642127990723 18.19621467590332 24.8914623260498 21.52285957336426 21.55977439880371 C 24.84952735900879 18.22541999816895 28.50898551940918 15.20285797119141 32.40017318725586 12.57137870788574 C 36.32642364501953 9.911691665649414 40.52481842041016 7.631003856658936 44.88219451904297 5.78439998626709 C 49.31369400024414 3.90687894821167 53.95540237426758 2.463483095169067 58.67792129516602 1.495837330818176 C 63.51498413085938 0.5012956857681274 68.50025939941406 3.997802650701487e-06 73.48683929443359 3.997802650701487e-06 C 78.47480010986328 3.997802650701487e-06 83.45873260498047 0.5012956857681274 88.2957763671875 1.495837330818176 C 93.0169677734375 2.463483095169067 97.65863037109375 3.904191493988037 102.0887985229492 5.78439998626709 C 106.4448394775391 7.631003856658936 110.6432342529297 9.911691665649414 114.572151184082 12.57137870788574 C 118.459342956543 15.20285797119141 122.1187744140625 18.22541999816895 125.449462890625 21.55977439880371 C 128.7747955322266 24.8914623260498 131.7915344238281 28.55642127990723 134.4202575683594 32.45525360107422 C 137.0745697021484 36.38767242431641 139.3542938232422 40.59694290161133 141.1948394775391 44.95808792114258 C 143.0730743408203 49.39585876464844 144.5133972167969 54.04727554321289 145.4781036376953 58.77398300170898 C 146.4697723388672 63.62298202514648 146.9736785888672 68.61579895019531 146.9736785888672 73.60860443115234 C 146.9736785888672 73.76179504394531 146.9696502685547 73.90962982177734 146.9696502685547 74.06017303466797 L 146.9696502685547 74.07225036621094 Z" stroke="none" fill="#283859"/>
      </g>
      <path id="Trazado_113513" data-name="Trazado 113513" d="M325.19,448.5a4.078,4.078,0,0,0,1.2,2.893l4.14,4.139-4.14,4.139a4.091,4.091,0,0,0,5.786,5.786l4.139-4.139,4.139,4.139a4.091,4.091,0,0,0,5.785-5.786L342.1,455.53l4.139-4.139a4.091,4.091,0,0,0,0-5.785h0a4.091,4.091,0,0,0-5.785,0l-4.139,4.139-4.139-4.139a4.092,4.092,0,0,0-5.786,0h0a4.077,4.077,0,0,0-1.2,2.892Z" transform="translate(-19.968 -424.207)" fill="#283859"/>
      <path id="Trazado_818001-2" data-name="Trazado 818001" d="M325.19,449.226a4.8,4.8,0,0,0,1.411,3.407l4.877,4.876-4.877,4.876a4.82,4.82,0,0,0,6.816,6.816l4.876-4.876,4.876,4.876a4.819,4.819,0,0,0,6.815-6.816l-4.876-4.876,4.876-4.876a4.819,4.819,0,0,0,0-6.815h0a4.819,4.819,0,0,0-6.815,0l-4.876,4.876-4.876-4.876a4.821,4.821,0,0,0-6.816,0h0a4.8,4.8,0,0,0-1.411,3.407Z" transform="translate(240.585 -306.338)" fill="#283859"/>
      <rect id="Rectángulo_33776" data-name="Rectángulo 33776" width="73.141" height="216.939" rx="36.57" transform="translate(530.549 174.948)" fill="#98d1ca"/>
      <path id="Trazado_113169" data-name="Trazado 113169" d="M29.421,2.694A3.935,3.935,0,0,1,32.2,9.411L25.494,16.12l-1.9,1.9,1.9,1.906L32.2,26.637A3.935,3.935,0,1,1,26.638,32.2L19.931,25.5l-1.906-1.906L16.119,25.5,9.412,32.2a3.935,3.935,0,0,1-5.565-5.565l6.707-6.707,1.906-1.906-1.906-1.9L3.847,9.411A3.935,3.935,0,0,1,9.412,3.846l6.707,6.709,1.906,1.9,1.906-1.9,6.707-6.709a3.914,3.914,0,0,1,2.783-1.152m0-2.694a6.606,6.606,0,0,0-4.689,1.942L18.025,8.649,11.316,1.942a6.629,6.629,0,0,0-9.375,0h0a6.631,6.631,0,0,0,0,9.375L8.65,18.024,1.941,24.733a6.629,6.629,0,1,0,9.375,9.375L18.025,27.4l6.707,6.709a6.631,6.631,0,0,0,9.377,0h0a6.631,6.631,0,0,0,0-9.375L27.4,18.024l6.709-6.707a6.631,6.631,0,0,0,0-9.375h0A6.606,6.606,0,0,0,29.421,0Z" transform="matrix(-0.695, -0.719, 0.719, -0.695, 504.616, 428.383)" fill="#8054f8"/>
      <path id="Trazado_113169-2" data-name="Trazado 113169" d="M20.188,1.849A2.7,2.7,0,0,1,22.1,6.458l-4.6,4.6-1.306,1.306,1.306,1.308,4.6,4.6A2.7,2.7,0,1,1,18.279,22.1l-4.6-4.6-1.308-1.308-1.308,1.308-4.6,4.6A2.7,2.7,0,0,1,2.64,18.278l4.6-4.6L8.55,12.368,7.242,11.062l-4.6-4.6A2.7,2.7,0,0,1,6.459,2.639l4.6,4.6,1.308,1.306,1.308-1.306,4.6-4.6a2.686,2.686,0,0,1,1.91-.79m0-1.849a4.533,4.533,0,0,0-3.217,1.333l-4.6,4.6-4.6-4.6a4.549,4.549,0,0,0-6.433,0h0a4.55,4.55,0,0,0,0,6.433l4.6,4.6-4.6,4.6A4.549,4.549,0,1,0,7.765,23.4l4.6-4.6,4.6,4.6a4.55,4.55,0,0,0,6.435,0h0a4.55,4.55,0,0,0,0-6.433l-4.6-4.6,4.6-4.6a4.55,4.55,0,0,0,0-6.433h0A4.533,4.533,0,0,0,20.188,0Z" transform="matrix(-0.695, -0.719, 0.719, -0.695, 139.966, 112.352)" fill="#283859"/>
    </g>
    <g id="Grupo_1071890" data-name="Grupo 1071890" transform="translate(391.666 1331.417)">
      <g id="Grupo_1071889" data-name="Grupo 1071889">
        <g id="Enmascarar_grupo_119" data-name="Enmascarar grupo 119" clip-path="url(#clip-path)">
          <path id="Trazado_818076" data-name="Trazado 818076" d="M302.813,239.417H10a10,10,0,0,1-10-10V16.75a10,10,0,0,1,10-10H302.813a10,10,0,0,1,10,10V229.417a10,10,0,0,1-10,10" fill="#98d1ca"/>
          <path id="Trazado_818077" data-name="Trazado 818077" d="M312.813,233.417H20a10,10,0,0,1-10-10V10.75a10,10,0,0,1,10-10H312.813a10,10,0,0,1,10,10V223.417a10,10,0,0,1-10,10" fill="#fcfbff"/>
          <rect id="Rectángulo_381482" data-name="Rectángulo 381482" width="312.813" height="232.667" rx="10" transform="translate(10 0.75)" fill="none" stroke="#b5e1ff" stroke-linecap="round" stroke-linejoin="round" stroke-width="1.5"/>
          <rect id="Rectángulo_381483" data-name="Rectángulo 381483" width="32.5" height="54.187" transform="translate(118.108 99.334)" fill="#d3c3fd"/>
          <rect id="Rectángulo_381484" data-name="Rectángulo 381484" width="32.5" height="80.34" transform="translate(239.92 73.181)" fill="#d3c3fd"/>
          <rect id="Rectángulo_381485" data-name="Rectángulo 381485" width="32.5" height="69.771" transform="translate(176.941 83.75)" fill="#ffac00"/>
          <line id="Línea_180" data-name="Línea 180" x2="176.638" transform="translate(107.233 153.521)" fill="none" stroke="#1574dd" stroke-miterlimit="10" stroke-width="1.5"/>
          <path id="Trazado_818078" data-name="Trazado 818078" d="M100.216,53.266A34.5,34.5,0,0,0,68.98,33.417v34.5Z" fill="#ffac00"/>
          <path id="Trazado_818079" data-name="Trazado 818079" d="M100.216,53.266A34.5,34.5,0,0,0,68.98,33.417v34.5Z" fill="none" stroke="#b5e1ff" stroke-linecap="round" stroke-linejoin="round" stroke-width="1.5"/>
          <circle id="Elipse_4733" data-name="Elipse 4733" cx="34.5" cy="34.5" r="34.5" transform="translate(34.479 33.417)" fill="none" stroke="#b5e1ff" stroke-linecap="round" stroke-linejoin="round" stroke-width="1.5"/>
          <rect id="Rectángulo_381486" data-name="Rectángulo 381486" width="34.128" height="5.25" transform="translate(116.48 24.917)" fill="#ffac00"/>
          <rect id="Rectángulo_381487" data-name="Rectángulo 381487" width="54.128" height="5.25" transform="translate(116.48 35.417)" fill="#b5e1ff"/>
          <rect id="Rectángulo_381488" data-name="Rectángulo 381488" width="54.128" height="5.25" transform="translate(116.48 44.167)" fill="#b5e1ff"/>
          <rect id="Rectángulo_381489" data-name="Rectángulo 381489" width="34.128" height="5.25" transform="translate(118.108 165.104)" fill="#ffac00"/>
          <rect id="Rectángulo_381490" data-name="Rectángulo 381490" width="54.128" height="5.25" transform="translate(118.108 175.604)" fill="#b5e1ff"/>
          <rect id="Rectángulo_381491" data-name="Rectángulo 381491" width="34.128" height="5.25" transform="translate(118.108 184.354)" fill="#b5e1ff"/>
          <rect id="Rectángulo_381492" data-name="Rectángulo 381492" width="34.128" height="5.25" transform="translate(202.042 165.104)" fill="#ffac00"/>
          <rect id="Rectángulo_381493" data-name="Rectángulo 381493" width="54.128" height="5.25" transform="translate(202.042 175.604)" fill="#b5e1ff"/>
          <rect id="Rectángulo_381494" data-name="Rectángulo 381494" width="34.128" height="5.25" transform="translate(202.042 184.354)" fill="#b5e1ff"/>
          <rect id="Rectángulo_381495" data-name="Rectángulo 381495" width="19.546" height="5.25" transform="translate(34.479 111.604)" fill="#d3c3fd"/>
          <rect id="Rectángulo_381496" data-name="Rectángulo 381496" width="31" height="5.25" transform="translate(34.48 122.104)" fill="#b5e1ff"/>
          <rect id="Rectángulo_381497" data-name="Rectángulo 381497" width="19.546" height="5.25" transform="translate(34.479 137.771)" fill="#8054f8"/>
          <rect id="Rectángulo_381498" data-name="Rectángulo 381498" width="31" height="5.25" transform="translate(34.48 148.271)" fill="#b5e1ff"/>
          <rect id="Rectángulo_381499" data-name="Rectángulo 381499" width="19.546" height="5.25" transform="translate(34.479 163.938)" fill="#d3c3fd"/>
          <rect id="Rectángulo_381500" data-name="Rectángulo 381500" width="31" height="5.25" transform="translate(34.48 174.438)" fill="#b5e1ff"/>
        </g>
      </g>
      <text id="_50_100" data-name="50 / 100" transform="translate(239.146 41.417)" fill="#ffac00" font-size="15" font-family="Poppins-SemiBold, Poppins" font-weight="600"><tspan x="0" y="0">50 / 100</tspan></text>
    </g>
    <path id="Trazado_818013" data-name="Trazado 818013" d="M162.3,333.516s-51.833,50.333-129.75,8.75l2.079-12.584L160.732,322Z" transform="translate(259.675 1302.068)" fill="#d2552a"/>
    <path id="Trazado_818014" data-name="Trazado 818014" d="M49.637,294.766,22.8,399.016h124.75s11.539-68,5.394-104.25Z" transform="translate(259.675 1302.068)" fill="#7040bf"/>
    <path id="Trazado_818015" data-name="Trazado 818015" d="M153.655,299.713c-.2-1.7-.437-3.357-.707-4.947H49.637l-4.89,19Z" transform="translate(259.675 1302.068)" fill="#492994"/>
    <path id="Trazado_818016" data-name="Trazado 818016" d="M94.179,399.016l15.125-69,9.612-3.035" transform="translate(259.675 1302.068)" fill="none" stroke="#492994" stroke-linecap="round" stroke-linejoin="round" stroke-width="1.5"/>
    <path id="Trazado_818017" data-name="Trazado 818017" d="M59.054,180.516a29.714,29.714,0,0,1-9-26.75c2.75-17,15.75-19.75,15.75-19.75s-15.25-15.75,2.5-36.25c0,0,5.5-5.25,12.25-6,0,0,5.5-25.5,34.5-22.75s20.124,31,11.937,34.75c0,0,4.914,13.25-2.512,19.75v8.75s19.825,5,22.325,26-19.813,28.5-19.813,28.5-57.189,4.67-67.937-6.25" transform="translate(259.675 1302.068)" fill="#00184c"/>
    <path id="Trazado_818018" data-name="Trazado 818018" d="M82.784,160.3,40.59,171.677a8.989,8.989,0,0,0-5.821,4.9c-5.831,12.587-24.152,53.189-27.715,73.938,0,0-7.347,25.346,8.974,34.793A22.552,22.552,0,0,0,30.569,287.9l11.235-1.63-9.25,56s40.25,5.25,48.25-23l5-24.5h50s-3.5,28.25,26.5,38.75l-8.5-62.25,4.393-24.054,16.015,13.956a41.161,41.161,0,0,0,16.645,8.948c9.929,2.567,23.291,1.831,31.2-15.85,13.75-30.75,21.5-71.25,21.5-71.25l-18.25-18.75-35.75,52.25L158.5,173.7a9.006,9.006,0,0,0-5.167-3.463L112.3,160.3Z" transform="translate(259.675 1302.068)" fill="#ffac00"/>
    <path id="Trazado_818019" data-name="Trazado 818019" d="M140.637,221.349C139.068,203.377,120.3,171.682,112.3,160.3H82.784S97.97,243.849,85.8,294.766h50s5.968-60.41,4.833-73.417" transform="translate(259.675 1302.068)" fill="#fcfbff"/>
    <path id="Trazado_818020" data-name="Trazado 818020" d="M140.028,243.993c-15.686,5.047-35.012,7.564-49.576,8.812-.309,14.81-1.643,29.382-4.649,41.961h50s2.834-28.681,4.225-50.773" transform="translate(259.675 1302.068)" fill="#b5e1ff"/>
    <path id="Trazado_818021" data-name="Trazado 818021" d="M112.3,160.3l-.786-11.179a17,17,0,0,0,5.536-.852c13.5-4.5,9.985-20.963,8-30a64.1,64.1,0,0,0-4.025-12.827c-10.62,4.014-21.475-1.673-21.475-1.673-4,8.5-11.5,9.75-11.5,9.75.335,6.358-1.791,10.3-3.236,12.215.546,1.735-2.034,34.566-2.034,34.566s3.1,19.468,4.533,32.368c4.112.342,8.336.531,12.655.531a143.643,143.643,0,0,0,29.817-3.033A253.679,253.679,0,0,0,112.3,160.3" transform="translate(259.675 1302.068)" fill="#ffa189"/>
    <path id="Trazado_818022" data-name="Trazado 818022" d="M103.1,109.516s12.325,3.888,18.571-2.59c-.207-.5-.42-1-.645-1.486-10.62,4.013-21.475-1.674-21.475-1.674-4,8.5-11.5,9.75-11.5,9.75a24.131,24.131,0,0,1-.025,2.924c4.3.134,11.744-.627,15.074-6.924" transform="translate(259.675 1302.068)" fill="#f8756a"/>
    <path id="Trazado_818023" data-name="Trazado 818023" d="M86.952,122.233c3.038,3.3,3.111,8.177.164,10.888s-7.8,2.231-10.836-1.072-3.111-8.178-.164-10.888,7.8-2.231,10.836,1.072" transform="translate(259.675 1302.068)" fill="#ffa189"/>
    <path id="Trazado_818024" data-name="Trazado 818024" d="M20.8,257.266s3.5-15.25,24-17.75,43-.75,51.75-3.5l1.764,25.5s-36.912,23.25-56.514,24.75Z" transform="translate(259.675 1302.068)" fill="#ffac00"/>
    <path id="Trazado_818025" data-name="Trazado 818025" d="M45.4,239.33s2.393-5.986,6.962-25.464l-.805,25.056Z" transform="translate(259.675 1302.068)" fill="#d2552a"/>
    <path id="Trazado_818026" data-name="Trazado 818026" d="M111.518,149.118a22.621,22.621,0,0,1-17.339-11.227s.952,13.846,17.848,18.471Z" transform="translate(259.675 1302.068)" fill="#f8756a"/>
    <path id="Trazado_828775" data-name="Trazado 828775" d="M0,0,7.25,5" transform="translate(338.229 1425.959)" fill="none" stroke="#f8756a" stroke-linecap="round" stroke-width="1.5"/>
    <path id="Trazado_818027" data-name="Trazado 818027" d="M158.2,247.212s4.049-14.685,4.107-25.946c.038-7.4-7.25-16.5-9.356-25.25" transform="translate(259.675 1302.068)" fill="none" stroke="#d2552a" stroke-linecap="round" stroke-linejoin="round" stroke-width="1.5"/>
    <path id="Trazado_818028" data-name="Trazado 818028" d="M165.054,268.516H112.8l9.5-68.25h52.25Z" transform="translate(259.675 1302.068)" fill="#283859"/>
    <path id="Trazado_818029" data-name="Trazado 818029" d="M96.7,238.131s8.229-3.74,10.854-7.115,11.6-8.148,11.6-8.148l-.854,7.393s27.625-8.62,31.125-7.245-3.25,5.5-3.25,5.5,6.5-2.343,6.75-.984-2,4.984-3.375,5.984c0,0,1.75-.5,1.875,1.25s-9,9.125-16.5,12c0,0,8.375-1.75,10.75,0,0,0-12.25,6.125-16.75,7.5s-30.81,4.371-30.81,4.371Z" transform="translate(259.675 1302.068)" fill="#ffa189"/>
    <path id="Trazado_828776" data-name="Trazado 828776" d="M22.625,0,0,7.5" transform="translate(383.229 1530.584)" fill="none" stroke="#f8756a" stroke-linecap="round" stroke-width="1.5"/>
    <path id="Trazado_818030" data-name="Trazado 818030" d="M149.554,233.516s-15.25,6-23.625,8.25" transform="translate(259.675 1302.068)" fill="none" stroke="#f8756a" stroke-linecap="round" stroke-linejoin="round" stroke-width="1.5"/>
    <path id="Trazado_828777" data-name="Trazado 828777" d="M7.5,0,0,2.125" transform="translate(387.104 1548.834)" fill="none" stroke="#f8756a" stroke-linecap="round" stroke-width="1.5"/>
    <path id="Trazado_818031" data-name="Trazado 818031" d="M96.206,262.814a263.55,263.55,0,0,1-30.772,16.251" transform="translate(259.675 1302.068)" fill="none" stroke="#d2552a" stroke-linecap="round" stroke-linejoin="round" stroke-width="1.5"/>
    <path id="Trazado_818032" data-name="Trazado 818032" d="M20.8,257.266s3.5-15.25,24-17.75,43-.75,51.75-3.5" transform="translate(259.675 1302.068)" fill="none" stroke="#d2552a" stroke-linecap="round" stroke-linejoin="round" stroke-width="1.5"/>
    <path id="Trazado_818033" data-name="Trazado 818033" d="M189.554,216.516a37.621,37.621,0,0,0-9.5,17" transform="translate(259.675 1302.068)" fill="none" stroke="#d2552a" stroke-linecap="round" stroke-linejoin="round" stroke-width="1.5"/>
    <path id="Trazado_818034" data-name="Trazado 818034" d="M96.7,238.131l1.419,20.506,4.722-.555Z" transform="translate(259.675 1302.068)" fill="#f8756a"/>
    <path id="Trazado_818035" data-name="Trazado 818035" d="M226.537,165.533l14.046-18.674a45.994,45.994,0,0,1,13.125-9.75c9.357-4.4,21.625-12.75,21.625-12.75s4.125,2.625,0,6.5l-11.125,10.75,6.92,5.136a4.756,4.756,0,0,1,.163,7.837c-.144.1-.3.189-.458.277a5.428,5.428,0,0,1-3,6.625,5.031,5.031,0,0,1-3.125,4.625c-3.25,1.375-8.8-.75-8.8-.75s-1.2,6.69-10.95,8.565l-4.3,6.113Z" transform="translate(259.675 1302.068)" fill="#ffa189"/>
    <path id="Trazado_818036" data-name="Trazado 818036" d="M250.708,144.734l20-1.875s1.875,5.5-3.25,6.75a100.932,100.932,0,0,0-10.375,3.25s.83,7.875-7.022,10Z" transform="translate(259.675 1302.068)" fill="#ffa189"/>
    <path id="Trazado_818037" data-name="Trazado 818037" d="M254.247,144.4l16.461-1.543s1.875,5.5-3.25,6.75a100.932,100.932,0,0,0-10.375,3.25s.83,7.875-7.023,10" transform="translate(259.675 1302.068)" fill="none" stroke="#f8756a" stroke-linecap="round" stroke-linejoin="round" stroke-width="1.5"/>
    <path id="Trazado_818038" data-name="Trazado 818038" d="M257.083,152.859s10.125,3.25,13.75,2" transform="translate(259.675 1302.068)" fill="none" stroke="#f8756a" stroke-linecap="round" stroke-linejoin="round" stroke-width="1.5"/>
    <path id="Trazado_818039" data-name="Trazado 818039" d="M255.9,158.454s5.929,3.655,11.929,3.03" transform="translate(259.675 1302.068)" fill="none" stroke="#f8756a" stroke-linecap="round" stroke-linejoin="round" stroke-width="1.5"/>
    <path id="Trazado_818040" data-name="Trazado 818040" d="M255.9,165.359s-3.154-2.356-2.862-3.8" transform="translate(259.675 1302.068)" fill="none" stroke="#f8756a" stroke-linecap="round" stroke-linejoin="round" stroke-width="1.5"/>
    <path id="Trazado_818041" data-name="Trazado 818041" d="M226.537,165.533l17.436,10.016-3.319,4.488Z" transform="translate(259.675 1302.068)" fill="#f8756a"/>
    <path id="Trazado_818042" data-name="Trazado 818042" d="M109.738,120.914c.079,1.067-.47,1.978-1.228,2.034s-1.435-.762-1.515-1.829.47-1.978,1.227-2.035,1.436.763,1.516,1.83" transform="translate(259.675 1302.068)" fill="#00184c"/>
    <path id="Trazado_818043" data-name="Trazado 818043" d="M123.675,119.539c.08,1.067-.47,1.978-1.227,2.034s-1.436-.762-1.515-1.829.469-1.978,1.227-2.035,1.435.763,1.515,1.83" transform="translate(259.675 1302.068)" fill="#00184c"/>
    <path id="Trazado_818044" data-name="Trazado 818044" d="M102.438,115.436a6.266,6.266,0,0,1,7.077-1.793" transform="translate(259.675 1302.068)" fill="none" stroke="#00184c" stroke-linecap="round" stroke-linejoin="round" stroke-width="3"/>
    <path id="Trazado_818045" data-name="Trazado 818045" d="M118.163,112.7a6.472,6.472,0,0,1,4.807-2.252" transform="translate(259.675 1302.068)" fill="none" stroke="#00184c" stroke-linecap="round" stroke-linejoin="round" stroke-width="3"/>
    <path id="Trazado_818046" data-name="Trazado 818046" d="M114.286,121.063c0,4.041-2.88,7.317-6.433,7.317s-6.434-3.276-6.434-7.317,2.881-7.317,6.434-7.317S114.286,117.022,114.286,121.063Z" transform="translate(259.675 1302.068)" fill="none" stroke="#fcfbff" stroke-linecap="round" stroke-linejoin="round" stroke-width="1.5"/>
    <path id="Trazado_818047" data-name="Trazado 818047" d="M129.789,119.219c0,4.041-2.376,7.317-5.306,7.317s-5.307-3.276-5.307-7.317,2.376-7.317,5.307-7.317S129.789,115.178,129.789,119.219Z" transform="translate(259.675 1302.068)" fill="none" stroke="#fcfbff" stroke-linecap="round" stroke-linejoin="round" stroke-width="1.5"/>
    <path id="Trazado_828778" data-name="Trazado 828778" d="M0,.846,4.953,0" transform="translate(373.899 1421.288)" fill="none" stroke="#fcfbff" stroke-linecap="round" stroke-width="1.5"/>
    <path id="Trazado_818048" data-name="Trazado 818048" d="M117.246,120.95s5.132,5.816,5.682,8.566-4.625,2.375-4.625,2.375" transform="translate(259.675 1302.068)" fill="none" stroke="#f8756a" stroke-linecap="round" stroke-linejoin="round" stroke-width="1.5"/>
    <path id="Trazado_818049" data-name="Trazado 818049" d="M111.491,134.391l7.394,1s-.244,3.333-4.289,2.833-3.105-3.833-3.105-3.833" transform="translate(259.675 1302.068)" fill="#fcfbff"/>
    <path id="Trazado_828779" data-name="Trazado 828779" d="M10.75,0A10.75,10.75,0,1,1,0,10.75,10.75,10.75,0,0,1,10.75,0Z" transform="translate(328.479 1435.501)" fill="none" stroke="#fcfbff" stroke-linecap="round" stroke-width="1.5"/>
    <path id="Trazado_818050" data-name="Trazado 818050" d="M142.23,200.266l-.813,5.417H159.9l.74-5.417" transform="translate(259.675 1302.068)" fill="none" stroke="#00184c" stroke-linecap="round" stroke-linejoin="round" stroke-width="1.5"/>
    <path id="Trazado_818051" data-name="Trazado 818051" d="M88.153,29.349H37.122a5.629,5.629,0,0,0-5.629,5.628V53.739a5.629,5.629,0,0,0,5.629,5.629h32.97L80.555,71.141V59.368h7.6a5.629,5.629,0,0,0,5.629-5.629V34.977a5.629,5.629,0,0,0-5.629-5.628" transform="translate(259.675 1302.068)" fill="#d8dcfc"/>
    <path id="Trazado_818052" data-name="Trazado 818052" d="M52.354,43.658a2.975,2.975,0,1,1-2.975-2.975,2.975,2.975,0,0,1,2.975,2.975" transform="translate(259.675 1302.068)" fill="#283859"/>
    <path id="Trazado_818053" data-name="Trazado 818053" d="M66.612,43.658a2.975,2.975,0,1,1-2.975-2.975,2.975,2.975,0,0,1,2.975,2.975" transform="translate(259.675 1302.068)" fill="#283859"/>
    <path id="Trazado_818054" data-name="Trazado 818054" d="M79.554,43.658a2.975,2.975,0,1,1-2.975-2.975,2.975,2.975,0,0,1,2.975,2.975" transform="translate(259.675 1302.068)" fill="#283859"/>
    <path id="Trazado_818055" data-name="Trazado 818055" d="M342.8,252.043s-27.25,5.557-44.75-13.443,9.25-46.719,9.25-46.719-14.25-13.281-7.5-26.031c0,0,6.667-9.25,18.958-3.25,0,0,14.368-19.5,38.33-8.5s23.7,42,22.962,47.668c0,0,29.575,45.508-37.25,50.275" transform="translate(259.675 1302.068)" fill="#00184c"/>
    <path id="Trazado_818056" data-name="Trazado 818056" d="M317.554,287.849l-4.5,13.25-37.5-38.75a21.8,21.8,0,0,0-1.583-13.667c-3.334-7-1.167-15-1.167-15a4.769,4.769,0,0,0-5.833,1.5l-3.553,11.2-30.883-8.14a6.852,6.852,0,0,0-1.75-.312c-2.051-.094-6.547.091-7.314,3.416,0,0-5.667-1.875-8.868,3.062l3.2,1.438s-5.021.479-6.188,3.812l3.875,2.993s2.688,4.883,5.146,6.528c7.933,5.311,34.167,10.667,37.917,14.917l34.012,57.777c4.874,8.28,11.4,15.743,20.9,17.14,6.372.936,16.043-.845,20.833-7.417a205.869,205.869,0,0,0,20.25-34Z" transform="translate(259.675 1302.068)" fill="#ffa189"/>
    <path id="Trazado_828780" data-name="Trazado 828780" d="M0,0,11.417,12.083" transform="translate(572.729 1603.168)" fill="none" stroke="#f8756a" stroke-linecap="round" stroke-width="1.5"/>
    <path id="Trazado_818057" data-name="Trazado 818057" d="M344.694,302.336l-5.39,32.1s11.666-19.478,15.25-26.833Z" transform="translate(259.675 1302.068)" fill="#f8756a"/>
    <path id="Trazado_828781" data-name="Trazado 828781" d="M0,0,20.667,6.667" transform="translate(483.146 1543.418)" fill="none" stroke="#f8756a" stroke-linecap="round" stroke-width="1.5"/>
    <path id="Trazado_828782" data-name="Trazado 828782" d="M0,0,23,7" transform="translate(477.479 1547.918)" fill="none" stroke="#f8756a" stroke-linecap="round" stroke-width="1.5"/>
    <path id="Trazado_828783" data-name="Trazado 828783" d="M0,0,23.034,6.307" transform="translate(474.278 1554.111)" fill="none" stroke="#f8756a" stroke-linecap="round" stroke-width="1.5"/>
    <path id="Trazado_818058" data-name="Trazado 818058" d="M249.679,258.349s11.5-6.25,16.125,5" transform="translate(259.675 1302.068)" fill="none" stroke="#f8756a" stroke-linecap="round" stroke-linejoin="round" stroke-width="1.5"/>
    <path id="Trazado_818059" data-name="Trazado 818059" d="M457.47,278.849s22.833,2.667,31.167,28.75-19,91.417-19,91.417H359.97l40.667-73.5Z" transform="translate(259.675 1302.068)" fill="#00184c"/>
    <path id="Trazado_818060" data-name="Trazado 818060" d="M418.97,334.433l6.124,4.5-12.916,60.083" transform="translate(259.675 1302.068)" fill="none" stroke="#013f81" stroke-linecap="round" stroke-linejoin="round" stroke-width="1.5"/>
    <path id="Trazado_818061" data-name="Trazado 818061" d="M445.779,288.449l6.856,6.769a33.876,33.876,0,0,0,28.1,9.494l.233-.03" transform="translate(259.675 1302.068)" fill="none" stroke="#013f81" stroke-linecap="round" stroke-linejoin="round" stroke-width="1.5"/>
    <path id="Trazado_818062" data-name="Trazado 818062" d="M459.637,399.016S484.3,322.958,475.3,304.987" transform="translate(259.675 1302.068)" fill="none" stroke="#013f81" stroke-linecap="round" stroke-linejoin="round" stroke-width="1.5"/>
    <path id="Trazado_818063" data-name="Trazado 818063" d="M425.137,218.916c-4.687-5.906-11.316-9.11-17.036-10.847a44.342,44.342,0,0,0-16.564-1.656L374.3,207.849l-22.8,13.876-8.413,4.5a28.588,28.588,0,0,0-13.68,16,60.588,60.588,0,0,0-1.858,6.882c-3,14.25-10,38.75-10,38.75l37,19.75,8.688-17.833a23.891,23.891,0,0,0,6.562.417c9.333,5.5,30.833,35.333,30.833,35.333l56.833-46.667s-22.333-47.333-32.333-59.933" transform="translate(259.675 1302.068)" fill="#8054f8"/>
    <path id="Trazado_818064" data-name="Trazado 818064" d="M363.242,289.766s-9.852-.119-11.605-8.583a96.774,96.774,0,0,0-5.333-17.167s2.375,31.083-1.61,38.32l9.86,5.263Z" transform="translate(259.675 1302.068)" fill="#013f81"/>
    <path id="Trazado_818065" data-name="Trazado 818065" d="M374.3,207.849l-18.285-9.075a7.667,7.667,0,0,0,4.785-7.237,7.2,7.2,0,1,0-14.375,0c0,.2.014.39.028.584l-.3-.26c-8.473-1.137-25.081-21.394-25.084-21.4a14.459,14.459,0,0,0-3.264,7.554l.333,8.5-6.333,11h5.75s-.083,16.666,7.917,20.666c6.971,3.486,13.687,1.149,17.946-2.046l8.088,5.588s2.466,20.292,15.466,18.625c15.974-2.048,7.333-32.5,7.333-32.5" transform="translate(259.675 1302.068)" fill="#ffa189"/>
    <path id="Trazado_818066" data-name="Trazado 818066" d="M343.646,191.1c-8.862-3.907-22.575-20.632-22.578-20.636a14.366,14.366,0,0,0-3.1,6.588c6.74,4.492,17.256,11.014,25.681,14.049Z" transform="translate(259.675 1302.068)" fill="#f8756a"/>
    <path id="Trazado_818067" data-name="Trazado 818067" d="M343.417,216.136s5.137-5.492,7.137-9.89c0,0,1.45,9.563-.525,14.458Z" transform="translate(259.675 1302.068)" fill="#f8756a"/>
    <path id="Trazado_828784" data-name="Trazado 828784" d="M0,7.25,4.737,0" transform="translate(610.742 1489.543)" fill="none" stroke="#f8756a" stroke-linecap="round" stroke-width="1.5"/>
    <path id="Trazado_818068" data-name="Trazado 818068" d="M324.3,202.516l8.167-3.333s1.27,4.416-3.042,5.791c-3.5,1.117-5.125-2.458-5.125-2.458" transform="translate(259.675 1302.068)" fill="#fcfbff"/>
    <path id="Trazado_818069" data-name="Trazado 818069" d="M324.741,187.349c0,1.07-.616,1.937-1.375,1.937s-1.375-.867-1.375-1.937.616-1.937,1.375-1.937,1.375.867,1.375,1.937" transform="translate(259.675 1302.068)" fill="#00184c"/>
    <path id="Trazado_818070" data-name="Trazado 818070" d="M321.054,180.2a6.264,6.264,0,0,1,6.812,2.625" transform="translate(259.675 1302.068)" fill="none" stroke="#00184c" stroke-linecap="round" stroke-linejoin="round" stroke-width="3"/>
    <path id="Trazado_818071" data-name="Trazado 818071" d="M392.8,282.849l.5,14-42.75,53.75L321.22,362.355a10.867,10.867,0,0,0-5.3,4.531L301.8,390.6a8.213,8.213,0,0,0,9-1.25l-1.75,3.625s6.625,1.625,9.875-1.875l-1.5,2.875a13.831,13.831,0,0,0,8.263.371s6.112,0,8.487-2.371c3.88-3.874,9.75-12.5,9.75-12.5s9.625.875,13.75-5.125l4.125-6,53.906-35.4a31.479,31.479,0,0,0,14.13-24.23l1.714-25.869Z" transform="translate(259.675 1302.068)" fill="#ffa189"/>
    <path id="Trazado_828785" data-name="Trazado 828785" d="M0,18.125,10.5,0" transform="translate(570.479 1673.293)" fill="none" stroke="#f8756a" stroke-linecap="round" stroke-width="1.5"/>
    <path id="Trazado_828786" data-name="Trazado 828786" d="M0,17.625,9.375,0" transform="translate(578.604 1675.543)" fill="none" stroke="#f8756a" stroke-linecap="round" stroke-width="1.5"/>
    <path id="Trazado_828787" data-name="Trazado 828787" d="M0,17.5,9.112,0" transform="translate(585.367 1678.918)" fill="none" stroke="#f8756a" stroke-linecap="round" stroke-width="1.5"/>
    <path id="Trazado_818072" data-name="Trazado 818072" d="M392.8,282.849h38.75l-.475,7.163Z" transform="translate(259.675 1302.068)" fill="#f8756a"/>
    <path id="Trazado_828788" data-name="Trazado 828788" d="M0,0H93.25V7.917H0Z" transform="translate(516.979 1693.167)" fill="#283859"/>
    <path id="Trazado_818073" data-name="Trazado 818073" d="M302.115,399.016H202.637l-20-78.333h99.478Z" transform="translate(259.675 1302.068)" fill="#b5e1ff"/>
    <path id="Trazado_818074" data-name="Trazado 818074" d="M282.115,320.683h-7l20,78.333h7Z" transform="translate(259.675 1302.068)" fill="#283859"/>
    <path id="Trazado_818075" data-name="Trazado 818075" d="M239.875,357.146c1.037,4.153-.729,8.17-3.944,8.973s-6.662-1.913-7.7-6.066.729-8.17,3.944-8.973,6.662,1.913,7.7,6.066" transform="translate(259.675 1302.068)" fill="#fcfbff"/>
    <path id="Trazado_828789" data-name="Trazado 828789" d="M2.25,46.5,0,0" transform="translate(650.229 1538.418)" fill="none" stroke="#013f81" stroke-linecap="round" stroke-width="1.5"/>
    <path id="Trazado_828790" data-name="Trazado 828790" d="M0,27.653V0" transform="translate(691.229 1557.265)" fill="none" stroke="#013f81" stroke-linecap="round" stroke-width="1.5"/>
    <path id="Trazado_828791" data-name="Trazado 828791" d="M0,0H491.774" transform="translate(261.175 1701.084)" fill="none" stroke="#b5e1ff" stroke-linecap="round" stroke-width="3"/>
    <path id="Trazado_818011" data-name="Trazado 818011" d="M515.7,125.349H430.825a10,10,0,0,1-10-10V13.882a10,10,0,0,1,10-10H515.7a10,10,0,0,1,10,10V115.349a10,10,0,0,1-10,10" transform="translate(-221.878 1410.744)" fill="#8054f8"/>
    <path id="Trazado_818012" data-name="Trazado 818012" d="M519.052,122.217H434.177a10,10,0,0,1-10-10V10.75a10,10,0,0,1,10-10h84.875a10,10,0,0,1,10,10V112.217a10,10,0,0,1-10,10" transform="translate(-221.877 1410.744)" fill="#283859"/>
    <path id="Trazado_828792" data-name="Trazado 828792" d="M10,0H94.875a10,10,0,0,1,10,10V111.467a10,10,0,0,1-10,10H10a10,10,0,0,1-10-10V10A10,10,0,0,1,10,0Z" transform="translate(202.3 1411.494)" fill="none"/>
    <path id="Trazado_828793" data-name="Trazado 828793" d="M10.8,14.609H6.574L5.835,17H2.54L7.233,4.2h2.9L14.862,17H11.548ZM7.312,12.228h2.751L8.683,7.789Zm14.1-2.057-.976-.07a1.752,1.752,0,0,0-1.793.879V17H15.679V7.49h2.777l.1,1.222a2.294,2.294,0,0,1,2.083-1.4,2.888,2.888,0,0,1,.826.105Zm4.922,4.72a1.317,1.317,0,0,0,.967-.338,1.241,1.241,0,0,0,.334-.945H30.41a3.288,3.288,0,0,1-1.121,2.566,4.168,4.168,0,0,1-2.887,1,4.22,4.22,0,0,1-3.27-1.3,5.125,5.125,0,0,1-1.2-3.6v-.123A5.792,5.792,0,0,1,22.469,9.6,3.872,3.872,0,0,1,24,7.908a4.573,4.573,0,0,1,2.373-.593A4.116,4.116,0,0,1,29.32,8.343a3.647,3.647,0,0,1,1.09,2.786H27.632A1.626,1.626,0,0,0,27.272,10a1.244,1.244,0,0,0-.967-.4q-1.151,0-1.345,1.468a10.357,10.357,0,0,0-.062,1.283,4.068,4.068,0,0,0,.343,1.986A1.187,1.187,0,0,0,26.332,14.891ZM34.558,8.51a3.251,3.251,0,0,1,4.8-.264A4.186,4.186,0,0,1,40.174,11v6H37.2V11.067A1.674,1.674,0,0,0,36.9,9.956,1.322,1.322,0,0,0,35.85,9.6a1.424,1.424,0,0,0-1.292.58V17H31.6V3.5h2.962ZM44.947,17H41.976V7.49h2.971ZM41.8,5.038A1.322,1.322,0,0,1,42.257,4,1.943,1.943,0,0,1,44.63,4a1.322,1.322,0,0,1,.457,1.037,1.322,1.322,0,0,1-.457,1.037,1.943,1.943,0,0,1-2.373,0A1.322,1.322,0,0,1,41.8,5.038Zm8.763,8.438,1.5-5.985h3.12L52.083,17H49.06l-3.1-9.51h3.129Zm5-1.318a5.613,5.613,0,0,1,.554-2.536,3.96,3.96,0,0,1,1.591-1.709,4.791,4.791,0,0,1,2.435-.6,4.373,4.373,0,0,1,3.366,1.323,5.076,5.076,0,0,1,1.23,3.6v.105A4.925,4.925,0,0,1,63.5,15.871a4.384,4.384,0,0,1-3.344,1.305A4.434,4.434,0,0,1,56.9,15.958a4.761,4.761,0,0,1-1.327-3.3Zm2.962.185a3.538,3.538,0,0,0,.413,1.934,1.376,1.376,0,0,0,1.222.615q1.582,0,1.617-2.435v-.3q0-2.558-1.635-2.558-1.485,0-1.608,2.206Zm12.5,1.986a.684.684,0,0,0-.4-.606,6.016,6.016,0,0,0-1.5-.475A6.853,6.853,0,0,1,67.3,12.6a3.062,3.062,0,0,1-1.1-.971,2.319,2.319,0,0,1-.378-1.31A2.628,2.628,0,0,1,66.9,8.163a4.453,4.453,0,0,1,2.83-.848,4.934,4.934,0,0,1,3.023.853A2.666,2.666,0,0,1,73.9,10.408H70.927q0-1.143-1.2-1.143a1.194,1.194,0,0,0-.782.259.8.8,0,0,0-.316.646.737.737,0,0,0,.387.642,3.654,3.654,0,0,0,1.235.4,10.671,10.671,0,0,1,1.49.378A2.706,2.706,0,0,1,73.88,14.24a2.491,2.491,0,0,1-1.156,2.118,5.068,5.068,0,0,1-2.993.817,5.172,5.172,0,0,1-2.18-.439,3.645,3.645,0,0,1-1.494-1.2,2.707,2.707,0,0,1-.536-1.591h2.769a1.145,1.145,0,0,0,.439.962,1.808,1.808,0,0,0,1.081.3,1.422,1.422,0,0,0,.91-.246A.787.787,0,0,0,71.024,14.328ZM21.08,33.457,23.172,29.2H26.7l-3.577,6.346L26.793,42h-3.56L21.08,37.667,18.927,42H15.376l3.665-6.451L15.473,29.2h3.516Zm9.8,6.17h5.37V42H27.795V29.2H30.88ZM44.151,38.6a1.268,1.268,0,0,0-.479-1.055,5.954,5.954,0,0,0-1.683-.782,16.147,16.147,0,0,1-1.969-.782q-2.487-1.222-2.487-3.357a3.011,3.011,0,0,1,.62-1.876,4.008,4.008,0,0,1,1.753-1.266,6.823,6.823,0,0,1,2.549-.453,5.969,5.969,0,0,1,2.474.492,3.917,3.917,0,0,1,1.7,1.4A3.661,3.661,0,0,1,47.236,33H44.16a1.547,1.547,0,0,0-.479-1.213,1.867,1.867,0,0,0-1.3-.431,2.106,2.106,0,0,0-1.305.365,1.074,1.074,0,0,0,.048,1.819,6.65,6.65,0,0,0,1.854.826,11.36,11.36,0,0,1,2.18.918,3.663,3.663,0,0,1,2.074,3.3,3.125,3.125,0,0,1-1.266,2.637,5.629,5.629,0,0,1-3.472.958,6.888,6.888,0,0,1-2.817-.558,4.247,4.247,0,0,1-1.9-1.529,3.985,3.985,0,0,1-.637-2.237H40.24a1.963,1.963,0,0,0,.532,1.516,2.513,2.513,0,0,0,1.727.488,1.985,1.985,0,0,0,1.208-.33A1.088,1.088,0,0,0,44.151,38.6Zm12.814-.747,1.582-5.361h3.173l-3.876,11.1-.167.4a2.944,2.944,0,0,1-2.918,1.846,4.642,4.642,0,0,1-1.222-.175v-2.11h.387a2.026,2.026,0,0,0,.954-.18,1.094,1.094,0,0,0,.488-.647L55.6,42.1,52.3,32.49h3.164ZM22.24,58.457,24.332,54.2h3.524l-3.577,6.346L27.953,67h-3.56L22.24,62.667,20.087,67H16.536L20.2,60.549,16.633,54.2h3.516Zm9.8,6.17h5.37V67H28.955V54.2H32.04ZM45.312,63.6a1.268,1.268,0,0,0-.479-1.055,5.954,5.954,0,0,0-1.683-.782,16.147,16.147,0,0,1-1.969-.782q-2.487-1.222-2.487-3.357a3.011,3.011,0,0,1,.62-1.876,4.008,4.008,0,0,1,1.753-1.266,6.823,6.823,0,0,1,2.549-.453,5.969,5.969,0,0,1,2.474.492,3.917,3.917,0,0,1,1.7,1.4A3.661,3.661,0,0,1,48.4,58H45.32a1.547,1.547,0,0,0-.479-1.213,1.867,1.867,0,0,0-1.3-.431,2.106,2.106,0,0,0-1.305.365,1.074,1.074,0,0,0,.048,1.819,6.65,6.65,0,0,0,1.854.826,11.36,11.36,0,0,1,2.18.918,3.663,3.663,0,0,1,2.074,3.3,3.125,3.125,0,0,1-1.266,2.637,5.629,5.629,0,0,1-3.472.958,6.888,6.888,0,0,1-2.817-.558,4.247,4.247,0,0,1-1.9-1.529,3.985,3.985,0,0,1-.637-2.237H41.4a1.963,1.963,0,0,0,.532,1.516,2.513,2.513,0,0,0,1.727.488,1.985,1.985,0,0,0,1.208-.33A1.088,1.088,0,0,0,45.312,63.6Zm9.439-5.142L56.843,54.2h3.524L56.79,60.549,60.464,67H56.9l-2.153-4.333L52.6,67H49.047l3.665-6.451L49.144,54.2h3.516Z" transform="translate(216.123 1439.744)" fill="#fff"/>
    <path id="Trazado_818007" data-name="Trazado 818007" d="M257.7,125.349H172.825a10,10,0,0,1-10-10V13.882a10,10,0,0,1,10-10H257.7a10,10,0,0,1,10,10V115.349a10,10,0,0,1-10,10" transform="translate(195.548 1611.059)" fill="#8054f8"/>
    <path id="Trazado_818008" data-name="Trazado 818008" d="M261.052,122.217H176.177a10,10,0,0,1-10-10V10.75a10,10,0,0,1,10-10h84.875a10,10,0,0,1,10,10V112.217a10,10,0,0,1-10,10" transform="translate(195.548 1611.059)" fill="#283859"/>
    <path id="Trazado_828794" data-name="Trazado 828794" d="M10,0H94.875a10,10,0,0,1,10,10V111.467a10,10,0,0,1-10,10H10a10,10,0,0,1-10-10V10A10,10,0,0,1,10,0Z" transform="translate(361.726 1611.809)" fill="#283859"/>
    <path id="Trazado_828795" data-name="Trazado 828795" d="M10.8,14.609H6.574L5.835,17H2.54L7.233,4.2h2.9L14.862,17H11.548ZM7.312,12.228h2.751L8.683,7.789Zm14.1-2.057-.976-.07a1.752,1.752,0,0,0-1.793.879V17H15.679V7.49h2.777l.1,1.222a2.294,2.294,0,0,1,2.083-1.4,2.888,2.888,0,0,1,.826.105Zm4.922,4.72a1.317,1.317,0,0,0,.967-.338,1.241,1.241,0,0,0,.334-.945H30.41a3.288,3.288,0,0,1-1.121,2.566,4.168,4.168,0,0,1-2.887,1,4.22,4.22,0,0,1-3.27-1.3,5.125,5.125,0,0,1-1.2-3.6v-.123A5.792,5.792,0,0,1,22.469,9.6,3.872,3.872,0,0,1,24,7.908a4.573,4.573,0,0,1,2.373-.593A4.116,4.116,0,0,1,29.32,8.343a3.647,3.647,0,0,1,1.09,2.786H27.632A1.626,1.626,0,0,0,27.272,10a1.244,1.244,0,0,0-.967-.4q-1.151,0-1.345,1.468a10.357,10.357,0,0,0-.062,1.283,4.068,4.068,0,0,0,.343,1.986A1.187,1.187,0,0,0,26.332,14.891ZM34.558,8.51a3.251,3.251,0,0,1,4.8-.264A4.186,4.186,0,0,1,40.174,11v6H37.2V11.067A1.674,1.674,0,0,0,36.9,9.956,1.322,1.322,0,0,0,35.85,9.6a1.424,1.424,0,0,0-1.292.58V17H31.6V3.5h2.962ZM44.947,17H41.976V7.49h2.971ZM41.8,5.038A1.322,1.322,0,0,1,42.257,4,1.943,1.943,0,0,1,44.63,4a1.322,1.322,0,0,1,.457,1.037,1.322,1.322,0,0,1-.457,1.037,1.943,1.943,0,0,1-2.373,0A1.322,1.322,0,0,1,41.8,5.038Zm8.763,8.438,1.5-5.985h3.12L52.083,17H49.06l-3.1-9.51h3.129Zm5-1.318a5.613,5.613,0,0,1,.554-2.536,3.96,3.96,0,0,1,1.591-1.709,4.791,4.791,0,0,1,2.435-.6,4.373,4.373,0,0,1,3.366,1.323,5.076,5.076,0,0,1,1.23,3.6v.105A4.925,4.925,0,0,1,63.5,15.871a4.384,4.384,0,0,1-3.344,1.305A4.434,4.434,0,0,1,56.9,15.958a4.761,4.761,0,0,1-1.327-3.3Zm2.962.185a3.538,3.538,0,0,0,.413,1.934,1.376,1.376,0,0,0,1.222.615q1.582,0,1.617-2.435v-.3q0-2.558-1.635-2.558-1.485,0-1.608,2.206Zm12.5,1.986a.684.684,0,0,0-.4-.606,6.016,6.016,0,0,0-1.5-.475A6.853,6.853,0,0,1,67.3,12.6a3.062,3.062,0,0,1-1.1-.971,2.319,2.319,0,0,1-.378-1.31A2.628,2.628,0,0,1,66.9,8.163a4.453,4.453,0,0,1,2.83-.848,4.934,4.934,0,0,1,3.023.853A2.666,2.666,0,0,1,73.9,10.408H70.927q0-1.143-1.2-1.143a1.194,1.194,0,0,0-.782.259.8.8,0,0,0-.316.646.737.737,0,0,0,.387.642,3.654,3.654,0,0,0,1.235.4,10.671,10.671,0,0,1,1.49.378A2.706,2.706,0,0,1,73.88,14.24a2.491,2.491,0,0,1-1.156,2.118,5.068,5.068,0,0,1-2.993.817,5.172,5.172,0,0,1-2.18-.439,3.645,3.645,0,0,1-1.494-1.2,2.707,2.707,0,0,1-.536-1.591H68.29a1.145,1.145,0,0,0,.439.962,1.808,1.808,0,0,0,1.081.3,1.422,1.422,0,0,0,.91-.246A.787.787,0,0,0,71.024,14.328ZM32.334,37.667a4.673,4.673,0,0,1-.721,2.36,4.35,4.35,0,0,1-1.85,1.586,6.3,6.3,0,0,1-2.72.563,5.025,5.025,0,0,1-3.973-1.644,6.786,6.786,0,0,1-1.45-4.641v-.633a7.746,7.746,0,0,1,.655-3.292,4.961,4.961,0,0,1,1.885-2.18,5.26,5.26,0,0,1,2.848-.769,5.516,5.516,0,0,1,3.744,1.226,4.844,4.844,0,0,1,1.608,3.379H29.285a2.292,2.292,0,0,0-.589-1.679,2.422,2.422,0,0,0-1.687-.51,1.843,1.843,0,0,0-1.687.861,5.536,5.536,0,0,0-.562,2.751v.905a6.126,6.126,0,0,0,.514,2.927,1.882,1.882,0,0,0,1.771.879,2.369,2.369,0,0,0,1.626-.5,2.126,2.126,0,0,0,.6-1.591Zm8.06.932a1.268,1.268,0,0,0-.479-1.055,5.954,5.954,0,0,0-1.683-.782,16.147,16.147,0,0,1-1.969-.782q-2.487-1.222-2.487-3.357a3.011,3.011,0,0,1,.62-1.876,4.008,4.008,0,0,1,1.753-1.266,6.823,6.823,0,0,1,2.549-.453,5.969,5.969,0,0,1,2.474.492,3.917,3.917,0,0,1,1.7,1.4A3.661,3.661,0,0,1,43.479,33H40.4a1.547,1.547,0,0,0-.479-1.213,1.867,1.867,0,0,0-1.3-.431,2.106,2.106,0,0,0-1.305.365,1.074,1.074,0,0,0,.048,1.819,6.65,6.65,0,0,0,1.854.826,11.36,11.36,0,0,1,2.18.918,3.663,3.663,0,0,1,2.074,3.3,3.125,3.125,0,0,1-1.266,2.637,5.629,5.629,0,0,1-3.472.958,6.888,6.888,0,0,1-2.817-.558,4.247,4.247,0,0,1-1.9-1.529,3.985,3.985,0,0,1-.637-2.237h3.094a1.963,1.963,0,0,0,.532,1.516,2.513,2.513,0,0,0,1.727.488,1.985,1.985,0,0,0,1.208-.33A1.088,1.088,0,0,0,40.394,38.6Zm9.633-.079L52.576,29.2h3.445L51.714,42H48.339L44.068,29.2h3.419Z" transform="translate(376.548 1651.059)" fill="#fff"/>
    <path id="Trazado_818009" data-name="Trazado 818009" d="M388.7,125.349H303.825a10,10,0,0,1-10-10V13.882a10,10,0,0,1,10-10H388.7a10,10,0,0,1,10,10V115.349a10,10,0,0,1-10,10" transform="translate(349.823 1360.07)" fill="#8054f8"/>
    <path id="Trazado_818010" data-name="Trazado 818010" d="M392.052,122.217H307.177a10,10,0,0,1-10-10V10.75a10,10,0,0,1,10-10h84.875a10,10,0,0,1,10,10V112.217a10,10,0,0,1-10,10" transform="translate(349.823 1360.07)" fill="#283859"/>
    <path id="Trazado_828796" data-name="Trazado 828796" d="M10.8,14.609H6.574L5.835,17H2.54L7.233,4.2h2.9L14.862,17H11.548ZM7.312,12.228h2.751L8.683,7.789Zm14.1-2.057-.976-.07a1.752,1.752,0,0,0-1.793.879V17H15.679V7.49h2.777l.1,1.222a2.294,2.294,0,0,1,2.083-1.4,2.888,2.888,0,0,1,.826.105Zm4.922,4.72a1.317,1.317,0,0,0,.967-.338,1.241,1.241,0,0,0,.334-.945H30.41a3.288,3.288,0,0,1-1.121,2.566,4.168,4.168,0,0,1-2.887,1,4.22,4.22,0,0,1-3.27-1.3,5.125,5.125,0,0,1-1.2-3.6v-.123A5.792,5.792,0,0,1,22.469,9.6,3.872,3.872,0,0,1,24,7.908a4.573,4.573,0,0,1,2.373-.593A4.116,4.116,0,0,1,29.32,8.343a3.647,3.647,0,0,1,1.09,2.786H27.632A1.626,1.626,0,0,0,27.272,10a1.244,1.244,0,0,0-.967-.4q-1.151,0-1.345,1.468a10.357,10.357,0,0,0-.062,1.283,4.068,4.068,0,0,0,.343,1.986A1.187,1.187,0,0,0,26.332,14.891ZM34.558,8.51a3.251,3.251,0,0,1,4.8-.264A4.186,4.186,0,0,1,40.174,11v6H37.2V11.067A1.674,1.674,0,0,0,36.9,9.956,1.322,1.322,0,0,0,35.85,9.6a1.424,1.424,0,0,0-1.292.58V17H31.6V3.5h2.962ZM44.947,17H41.976V7.49h2.971ZM41.8,5.038A1.322,1.322,0,0,1,42.257,4,1.943,1.943,0,0,1,44.63,4a1.322,1.322,0,0,1,.457,1.037,1.322,1.322,0,0,1-.457,1.037,1.943,1.943,0,0,1-2.373,0A1.322,1.322,0,0,1,41.8,5.038Zm8.763,8.438,1.5-5.985h3.12L52.083,17H49.06l-3.1-9.51h3.129Zm5-1.318a5.613,5.613,0,0,1,.554-2.536,3.96,3.96,0,0,1,1.591-1.709,4.791,4.791,0,0,1,2.435-.6,4.373,4.373,0,0,1,3.366,1.323,5.076,5.076,0,0,1,1.23,3.6v.105A4.925,4.925,0,0,1,63.5,15.871a4.384,4.384,0,0,1-3.344,1.305A4.434,4.434,0,0,1,56.9,15.958a4.761,4.761,0,0,1-1.327-3.3Zm2.962.185a3.538,3.538,0,0,0,.413,1.934,1.376,1.376,0,0,0,1.222.615q1.582,0,1.617-2.435v-.3q0-2.558-1.635-2.558-1.485,0-1.608,2.206Zm12.5,1.986a.684.684,0,0,0-.4-.606,6.016,6.016,0,0,0-1.5-.475A6.853,6.853,0,0,1,67.3,12.6a3.062,3.062,0,0,1-1.1-.971,2.319,2.319,0,0,1-.378-1.31A2.628,2.628,0,0,1,66.9,8.163a4.453,4.453,0,0,1,2.83-.848,4.934,4.934,0,0,1,3.023.853A2.666,2.666,0,0,1,73.9,10.408H70.927q0-1.143-1.2-1.143a1.194,1.194,0,0,0-.782.259.8.8,0,0,0-.316.646.737.737,0,0,0,.387.642,3.654,3.654,0,0,0,1.235.4,10.671,10.671,0,0,1,1.49.378A2.706,2.706,0,0,1,73.88,14.24a2.491,2.491,0,0,1-1.156,2.118,5.068,5.068,0,0,1-2.993.817,5.172,5.172,0,0,1-2.18-.439,3.645,3.645,0,0,1-1.494-1.2,2.707,2.707,0,0,1-.536-1.591h2.769a1.145,1.145,0,0,0,.439.962,1.808,1.808,0,0,0,1.081.3,1.422,1.422,0,0,0,.91-.246A.787.787,0,0,0,71.024,14.328ZM21.339,29.2h3.076v8.78a4.2,4.2,0,0,1-.567,2.18,3.87,3.87,0,0,1-1.582,1.485A4.835,4.835,0,0,1,20,42.176a4.661,4.661,0,0,1-3.252-1.055,3.833,3.833,0,0,1-1.16-2.988h3.094a2.113,2.113,0,0,0,.3,1.274A1.2,1.2,0,0,0,20,39.8a1.148,1.148,0,0,0,.989-.479,2.251,2.251,0,0,0,.347-1.34Zm11.619,9.4a1.268,1.268,0,0,0-.479-1.055,5.954,5.954,0,0,0-1.683-.782,16.147,16.147,0,0,1-1.969-.782q-2.487-1.222-2.487-3.357a3.011,3.011,0,0,1,.62-1.876,4.008,4.008,0,0,1,1.753-1.266,6.823,6.823,0,0,1,2.549-.453,5.969,5.969,0,0,1,2.474.492,3.917,3.917,0,0,1,1.7,1.4A3.661,3.661,0,0,1,36.043,33H32.967a1.547,1.547,0,0,0-.479-1.213,1.867,1.867,0,0,0-1.3-.431,2.106,2.106,0,0,0-1.305.365,1.074,1.074,0,0,0,.048,1.819,6.65,6.65,0,0,0,1.854.826,11.36,11.36,0,0,1,2.18.918,3.663,3.663,0,0,1,2.074,3.3,3.125,3.125,0,0,1-1.266,2.637,5.629,5.629,0,0,1-3.472.958,6.888,6.888,0,0,1-2.817-.558,4.247,4.247,0,0,1-1.9-1.529,3.985,3.985,0,0,1-.637-2.237h3.094a1.963,1.963,0,0,0,.532,1.516,2.513,2.513,0,0,0,1.727.488,1.985,1.985,0,0,0,1.208-.33A1.088,1.088,0,0,0,32.958,38.6Zm15.5-2.733a7.546,7.546,0,0,1-.694,3.313A5.132,5.132,0,0,1,45.795,41.4a5.494,5.494,0,0,1-2.914.778,5.572,5.572,0,0,1-2.9-.751,5.123,5.123,0,0,1-1.973-2.149,7.329,7.329,0,0,1-.743-3.208v-.721a7.58,7.58,0,0,1,.69-3.318,5.119,5.119,0,0,1,1.978-2.219,5.854,5.854,0,0,1,5.832-.009A5.211,5.211,0,0,1,47.746,32a7.362,7.362,0,0,1,.716,3.274Zm-3.138-.536a5.381,5.381,0,0,0-.637-2.9,2.044,2.044,0,0,0-1.824-.989q-2.32,0-2.452,3.48l-.009.94a5.535,5.535,0,0,0,.624,2.892,2.041,2.041,0,0,0,1.854,1.011,2.016,2.016,0,0,0,1.8-.993,5.383,5.383,0,0,0,.642-2.856ZM60.741,42H57.673l-4.535-7.963V42H50.053V29.2h3.085l4.526,7.963V29.2h3.076Z" transform="translate(655.823 1400.07)" fill="#fff"/>
  </g>
</svg>
