<svg xmlns="http://www.w3.org/2000/svg" width="102.802" height="102.802" viewBox="0 0 102.802 102.802">
  <g id="Grupo_1071918" data-name="Grupo 1071918" transform="translate(-0.5 -0.431)">
    <path id="Trazado_813500" data-name="Trazado 813500" d="M51.4,0a51.4,51.4,0,1,0,51.4,51.4A51.4,51.4,0,0,0,51.4,0Z" transform="translate(0.5 0.431)" fill="#8054f8"/>
    <g id="adjunto-archivo-" transform="translate(-3.973 15.43)">
      <g id="Grupo_1071994" data-name="Grupo 1071994" transform="translate(24.524 1.052)">
        <path id="Trazado_818463" data-name="Trazado 818463" d="M175.521,56.435h-35.3a1.878,1.878,0,0,1-1.878-1.878V9.378A1.878,1.878,0,0,1,140.216,7.5h35.3A1.878,1.878,0,0,1,177.4,9.378V54.557A1.878,1.878,0,0,1,175.521,56.435Z" transform="translate(-123.284 -7.5)" fill="#c8effe"/>
        <path id="Trazado_818464" data-name="Trazado 818464" d="M384.679,9.379V54.557a1.879,1.879,0,0,1-1.879,1.879h-3.38a1.879,1.879,0,0,0,1.879-1.879V9.379A1.879,1.879,0,0,0,379.42,7.5h3.38a1.879,1.879,0,0,1,1.879,1.879Z" transform="translate(-330.564 -7.5)" fill="#99e6fc"/>
        <path id="Trazado_818465" data-name="Trazado 818465" d="M100.716,100.114h-35.3a1.878,1.878,0,0,1-1.878-1.878V53.057a1.878,1.878,0,0,1,1.878-1.878h35.3a1.878,1.878,0,0,1,1.878,1.878V98.236A1.878,1.878,0,0,1,100.716,100.114Z" transform="translate(-58.967 -45.055)" fill="#eaf6ff"/>
        <path id="Trazado_818466" data-name="Trazado 818466" d="M310.3,53.057V98.237a1.879,1.879,0,0,1-1.879,1.879H305.11a1.879,1.879,0,0,0,1.879-1.879V53.057a1.879,1.879,0,0,0-1.879-1.877h3.312A1.879,1.879,0,0,1,310.3,53.057Z" transform="translate(-266.673 -45.056)" fill="#c8effe"/>
        <path id="Trazado_818467" data-name="Trazado 818467" d="M89.65,167.96v35.93a4.788,4.788,0,0,1-4.788,4.788H35.76a4.788,4.788,0,0,1-4.79-4.788V176.34a4.789,4.789,0,0,1,4.79-4.788h22a4.606,4.606,0,0,0,4.178-2.67l.882-1.9A4.606,4.606,0,0,1,67,164.31H86A3.649,3.649,0,0,1,89.65,167.96Z" transform="translate(-30.97 -142.324)" fill="#ffd15b"/>
        <path id="Trazado_818468" data-name="Trazado 818468" d="M398.822,167.96v35.93a4.788,4.788,0,0,1-4.788,4.788H390.56a4.788,4.788,0,0,0,4.788-4.788V167.96a3.649,3.649,0,0,0-3.648-3.65h3.473A3.649,3.649,0,0,1,398.822,167.96Z" transform="translate(-340.143 -142.324)" fill="#feb137"/>
        <path id="Trazado_818469" data-name="Trazado 818469" d="M268.745,290.085v19.576a4.788,4.788,0,0,1-4.788,4.788H239.912a6.015,6.015,0,0,1-.642-2.713V293.373a6.044,6.044,0,0,1,6.043-6.043h18.362a6.034,6.034,0,0,1,5.07,2.755Z" transform="translate(-210.065 -248.096)" fill="#feb137"/>
        <path id="Trazado_818470" data-name="Trazado 818470" d="M288.265,317.782H269.9a6.043,6.043,0,0,1-6.043-6.043V293.376a6.043,6.043,0,0,1,6.043-6.043h18.362a6.043,6.043,0,0,1,6.043,6.043v18.362a6.043,6.043,0,0,1-6.043,6.043Z" transform="translate(-231.207 -248.098)" fill="#0593fc"/>
        <path id="Trazado_818471" data-name="Trazado 818471" d="M416.782,287.333h-3.448a6.043,6.043,0,0,1,6.043,6.043v18.362a6.043,6.043,0,0,1-6.043,6.043h3.448a6.043,6.043,0,0,0,6.043-6.043V293.376A6.043,6.043,0,0,0,416.782,287.333Z" transform="translate(-359.723 -248.098)" fill="#0181fa"/>
        <path id="Trazado_818474" data-name="Trazado 818474" d="M92,293.067H76.79a1.734,1.734,0,0,1-1.734-1.734v-2.265a1.734,1.734,0,0,1,1.734-1.734H92a1.734,1.734,0,0,1,1.734,1.734v2.265A1.734,1.734,0,0,1,92,293.067Z" transform="translate(-68.875 -248.098)" fill="#eaf6ff"/>
        <path id="Trazado_818475" data-name="Trazado 818475" d="M180.555,289.064v2.266a1.735,1.735,0,0,1-1.734,1.734h-2.79a1.734,1.734,0,0,0,1.734-1.734v-2.266a1.734,1.734,0,0,0-1.734-1.734h2.79A1.735,1.735,0,0,1,180.555,289.064Z" transform="translate(-155.691 -248.096)" fill="#c8effe"/>
        <path id="Trazado_818476" data-name="Trazado 818476" d="M112.756,96.207h-6.7a1.912,1.912,0,0,1,0-3.824h6.7a1.912,1.912,0,0,1,0,3.824Z" transform="translate(-93.883 -80.482)" fill="#0593fc"/>
        <path id="Trazado_818477" data-name="Trazado 818477" d="M150.054,94.292a1.912,1.912,0,0,1-1.911,1.912H145.3a1.912,1.912,0,1,0,0-3.825h2.843A1.912,1.912,0,0,1,150.054,94.292Z" transform="translate(-129.27 -80.479)" fill="#0181fa"/>
      </g>
      <g id="Grupo_1071995" data-name="Grupo 1071995" transform="translate(23.473 0)">
        <path id="Trazado_818478" data-name="Trazado 818478" d="M84.256,39.759V26.687a4.706,4.706,0,0,0-4.7-4.7H69.2V9.054a2.933,2.933,0,0,0-2.93-2.93H40.629V2.93a.828.828,0,0,1,.827-.827h35.3a.828.828,0,0,1,.827.827V18.081a1.052,1.052,0,0,0,2.1,0V2.93A2.933,2.933,0,0,0,76.761,0h-35.3a2.933,2.933,0,0,0-2.93,2.93V6.124H30.968a2.933,2.933,0,0,0-2.93,2.93V29.369a5.849,5.849,0,0,0-4.565,5.7v27.55a5.847,5.847,0,0,0,5.84,5.84H52.518a1.052,1.052,0,1,0,0-2.1H29.313a3.741,3.741,0,0,1-3.737-3.737V35.067a3.741,3.741,0,0,1,3.737-3.737h22a5.675,5.675,0,0,0,5.132-3.278l.882-1.9a3.565,3.565,0,0,1,3.224-2.059h19a2.6,2.6,0,0,1,2.6,2.6V39.26c-.188-.015-.378-.025-.57-.025H63.22a7.1,7.1,0,0,0-7.095,7.095V64.692a7.1,7.1,0,0,0,7.095,7.095H81.583a7.1,7.1,0,0,0,7.095-7.095V46.33A7.1,7.1,0,0,0,84.256,39.759Zm-28.832-14.5-.882,1.9a3.565,3.565,0,0,1-3.224,2.059H30.141V9.054a.828.828,0,0,1,.827-.827h35.3a.828.828,0,0,1,.827.827V21.986H60.556a5.675,5.675,0,0,0-5.132,3.278Zm31.15,39.427a5,5,0,0,1-4.992,4.992H63.22a5,5,0,0,1-4.992-4.992V46.33a5,5,0,0,1,4.992-4.992H81.583a5.068,5.068,0,0,1,4.992,4.992V64.692Z" transform="translate(-23.473 0)"/>
        <path id="Trazado_818480" data-name="Trazado 818480" d="M70.343,279.833a2.789,2.789,0,0,0-2.786,2.786v2.265a2.789,2.789,0,0,0,2.786,2.786H85.556a2.789,2.789,0,0,0,2.786-2.786v-2.265a2.789,2.789,0,0,0-2.786-2.786Zm15.9,2.786v2.265a.683.683,0,0,1-.683.683H70.343a.683.683,0,0,1-.683-.683v-2.265a.684.684,0,0,1,.683-.683H85.556A.684.684,0,0,1,86.239,282.619Z" transform="translate(-61.376 -240.598)"/>
        <path id="Trazado_818481" data-name="Trazado 818481" d="M99.606,90.81h6.7a2.964,2.964,0,0,0,0-5.927h-6.7a2.964,2.964,0,0,0,0,5.927Zm0-3.824h6.7a.861.861,0,0,1,0,1.721h-6.7a.861.861,0,0,1,0-1.721Z" transform="translate(-86.383 -72.982)"/>
        <path id="Trazado_818482" data-name="Trazado 818482" d="M215.285,98.521H201.969a1.052,1.052,0,0,0,0,2.1h13.317a1.052,1.052,0,1,0,0-2.1Z" transform="translate(-176.038 -84.708)"/>
        <path id="Trazado_818483" data-name="Trazado 818483" d="M163.109,141.1h-8.724a1.052,1.052,0,0,0,0,2.1h8.724a1.052,1.052,0,0,0,0-2.1Z" transform="translate(-135.126 -121.318)"/>
        <path id="Trazado_818484" data-name="Trazado 818484" d="M97.695,143.205h2.972a1.052,1.052,0,0,0,0-2.1H97.695a1.052,1.052,0,0,0,0,2.1Z" transform="translate(-86.384 -121.318)"/>
        <path id="Trazado_818485" data-name="Trazado 818485" d="M114.367,171.682H97.695a1.052,1.052,0,0,0,0,2.1h16.673a1.052,1.052,0,0,0,0-2.1Z" transform="translate(-86.384 -147.611)"/>
      </g>
    </g>
  </g>
</svg>
