<svg xmlns="http://www.w3.org/2000/svg" xmlns:xlink="http://www.w3.org/1999/xlink" width="400" height="149" viewBox="0 0 400 149">
  <defs>
    <clipPath id="clip-path">
      <path id="path9052" d="M0-682.665H81.381v81.381H0Z" transform="translate(0 682.665)"/>
    </clipPath>
  </defs>
  <g id="Grupo_1071915" data-name="Grupo 1071915" transform="translate(-1020 -2078)">
    <g id="Grupo_1071913" data-name="Grupo 1071913" transform="translate(0 36.484)">
      <rect id="Rectángulo_381506" data-name="Rectángulo 381506" width="400" height="113" transform="translate(1020 2077.516)" fill="#f0f8f7"/>
    </g>
    <g id="Grupo_1071914" data-name="Grupo 1071914" transform="translate(1151.5 2077.971)">
      <path id="Trazado_813500" data-name="Trazado 813500" d="M68,0a68,68,0,1,0,68,68A68,68,0,0,0,68,0Z" transform="translate(0.5 0.029)" fill="#8054f8"/>
      <g id="g9024" transform="translate(27.109 26.638)">
        <path id="path9026" d="M20.276-662.389H10v-10.276H20.276Z" transform="translate(-8.808 673.857)" fill="#e279b3"/>
        <path id="path9028" d="M119.108-662.389H96.2v-10.276h22.907Z" transform="translate(-84.733 673.857)" fill="#a2f5c3"/>
        <path id="path9030" d="M311.262-662.389H288.355v-10.276h22.907Z" transform="translate(-253.98 673.857)" fill="#88f2a9"/>
        <path id="path9032" d="M503.418-662.389H480.511v-10.276h22.907Z" transform="translate(-423.229 673.857)" fill="#a2f5c3"/>
        <path id="path9034" d="M20.276-576.188H10v-10.276H20.276Z" transform="translate(-8.808 597.932)" fill="#b2e5fb"/>
        <path id="path9036" d="M20.276-489.988H10v-10.276H20.276Z" transform="translate(-8.808 522.008)" fill="#91dafa"/>
        <path id="path9038" d="M20.276-403.787H10v-10.276H20.276Z" transform="translate(-8.808 446.083)" fill="#b2e5fb"/>
        <path id="path9040" d="M20.276-317.587H10v-10.276H20.276Z" transform="translate(-8.808 370.159)" fill="#91dafa"/>
        <path id="path9042" d="M20.276-231.387H10v-10.276H20.276Z" transform="translate(-8.808 294.235)" fill="#b2e5fb"/>
        <path id="path9044" d="M20.276-145.186H10v-10.276H20.276Z" transform="translate(-8.808 218.31)" fill="#91dafa"/>
        <path id="path9046" d="M164.92-524.808H96.2v-61.656H164.92Z" transform="translate(-84.732 597.932)" fill="#e6fdef"/>
        <g id="g9048" transform="translate(0 0)">
          <g id="g9050" transform="translate(0 0)" clip-path="url(#clip-path)">
            <g id="g9056" transform="translate(43.772 59.316)">
              <path id="path9058" d="M-269.066-101.72c0,3.924-8.152,7.106-18.208,7.106s-18.208-3.181-18.208-7.106v-13.767h36.417Z" transform="translate(305.483 115.488)" fill="#b6c4cf"/>
            </g>
            <g id="g9060" transform="translate(43.772 59.316)">
              <path id="path9062" d="M-134.534-154.221c10.056,0,18.208-3.181,18.208-7.106v-13.767h-4.441v12.029a2.212,2.212,0,0,1-1.457,2.086,37.592,37.592,0,0,1-12.31,1.873c-10.056,0-18.208-3.181-18.208-7.106v4.885c0,3.924,8.152,7.106,18.208,7.106" transform="translate(152.742 175.094)" fill="#9facba"/>
            </g>
            <g id="g9064" transform="translate(43.772 45.548)">
              <path id="path9066" d="M-269.066-101.72c0,3.924-8.152,7.106-18.208,7.106s-18.208-3.181-18.208-7.106v-13.767h36.417Z" transform="translate(305.483 115.488)" fill="#b6c4cf"/>
            </g>
            <g id="g9068" transform="translate(43.772 45.548)">
              <path id="path9070" d="M-134.534-154.221c10.056,0,18.208-3.181,18.208-7.106v-13.767h-4.441v12.03a2.212,2.212,0,0,1-1.457,2.086,37.592,37.592,0,0,1-12.31,1.873c-10.056,0-18.208-3.181-18.208-7.106v4.885c0,3.924,8.152,7.106,18.208,7.106" transform="translate(152.742 175.094)" fill="#9facba"/>
            </g>
            <g id="g9072" transform="translate(43.772 38.442)">
              <path id="path9074" d="M-269.066-52.5c0,3.924-8.152,7.106-18.208,7.106s-18.208-3.181-18.208-7.106,8.152-7.106,18.208-7.106,18.208,3.181,18.208,7.106" transform="translate(305.483 59.607)" fill="#d9e7ec"/>
            </g>
            <g id="g9076" transform="translate(33.183 10.276)">
              <path id="path9078" d="M-8.808,54.04A1.192,1.192,0,0,1-10,52.848V-8.808A1.192,1.192,0,0,1-8.808-10,1.192,1.192,0,0,1-7.616-8.808V52.848A1.192,1.192,0,0,1-8.808,54.04Z" transform="translate(10 10)"/>
            </g>
            <g id="g9080" transform="translate(56.09 10.276)">
              <path id="path9082" d="M-8.808,19.359A1.192,1.192,0,0,1-10,18.167V-8.808A1.192,1.192,0,0,1-8.808-10,1.192,1.192,0,0,1-7.616-8.808V18.167A1.192,1.192,0,0,1-8.808,19.359Z" transform="translate(10 10)"/>
            </g>
            <g id="g9084" transform="translate(0 20.552)">
              <path id="path9086" d="M70.189-7.616h-79A1.192,1.192,0,0,1-10-8.808,1.192,1.192,0,0,1-8.808-10h79a1.192,1.192,0,0,1,1.192,1.192A1.192,1.192,0,0,1,70.189-7.616Z" transform="translate(10 10)"/>
            </g>
            <g id="g9088" transform="translate(0 30.828)">
              <path id="path9090" d="M70.189-7.616h-79A1.192,1.192,0,0,1-10-8.808,1.192,1.192,0,0,1-8.808-10h79a1.192,1.192,0,0,1,1.192,1.192A1.192,1.192,0,0,1,70.189-7.616Z" transform="translate(10 10)"/>
            </g>
            <g id="g9092" transform="translate(0 41.104)">
              <path id="path9094" d="M35.627-7.616H-8.808A1.192,1.192,0,0,1-10-8.808,1.192,1.192,0,0,1-8.808-10H35.627a1.192,1.192,0,0,1,1.192,1.192A1.192,1.192,0,0,1,35.627-7.616Z" transform="translate(10 10)"/>
            </g>
            <g id="g9096" transform="translate(0 51.38)">
              <path id="path9098" d="M33.611-7.616H-8.808A1.192,1.192,0,0,1-10-8.808,1.192,1.192,0,0,1-8.808-10H33.611A1.192,1.192,0,0,1,34.8-8.808,1.192,1.192,0,0,1,33.611-7.616Z" transform="translate(10 10)"/>
            </g>
            <g id="g9100" transform="translate(0 61.656)">
              <path id="path9102" d="M33.611-7.616H-8.808A1.192,1.192,0,0,1-10-8.808,1.192,1.192,0,0,1-8.808-10H33.611A1.192,1.192,0,0,1,34.8-8.808,1.192,1.192,0,0,1,33.611-7.616Z" transform="translate(10 10)"/>
            </g>
            <g id="g9104" transform="translate(78.997 38.837)">
              <path id="path9106" d="M-8.808-62.33A1.192,1.192,0,0,1-10-63.522v-7.405A1.192,1.192,0,0,1-8.808-72.12a1.192,1.192,0,0,1,1.192,1.192v7.405A1.192,1.192,0,0,1-8.808-62.33Z" transform="translate(10 72.12)"/>
            </g>
            <g id="g9108" transform="translate(0 10.276)">
              <path id="path9110" d="M-117.438-463.158h-14.7a1.192,1.192,0,0,1-1.192-1.192v-61.655a1.192,1.192,0,0,1,1.192-1.192h79a1.192,1.192,0,0,1,1.192,1.192v23a1.192,1.192,0,0,1-1.192,1.192,1.192,1.192,0,0,1-1.192-1.192v-21.806h-76.612v59.271h13.51a1.192,1.192,0,0,1,1.192,1.192A1.192,1.192,0,0,1-117.438-463.158Z" transform="translate(133.333 527.197)"/>
            </g>
            <g id="g9112" transform="translate(20.266 71.931)">
              <path id="path9114" d="M-172.493-7.616h-22.154a1.192,1.192,0,0,1-1.192-1.192A1.192,1.192,0,0,1-194.647-10h22.154A1.192,1.192,0,0,1-171.3-8.808,1.192,1.192,0,0,1-172.493-7.616Z" transform="translate(195.84 10)"/>
            </g>
            <g id="g9116" transform="translate(18.811 0)">
              <path id="path9118" d="M51.377,2.66a1.192,1.192,0,0,1-1.192-1.192V-7.616H-8.808A1.192,1.192,0,0,1-10-8.808,1.192,1.192,0,0,1-8.808-10H51.377a1.192,1.192,0,0,1,1.192,1.192V1.468A1.192,1.192,0,0,1,51.377,2.66Z" transform="translate(10 10)"/>
            </g>
            <g id="g9120" transform="translate(0 0)">
              <path id="path9122" d="M-8.808-83.54A1.192,1.192,0,0,1-10-84.732V-95.008A1.192,1.192,0,0,1-8.808-96.2H4.44a1.192,1.192,0,0,1,1.192,1.192A1.192,1.192,0,0,1,4.44-93.816H-7.616v9.084A1.192,1.192,0,0,1-8.808-83.54Z" transform="translate(10 96.2)"/>
            </g>
            <g id="g9124" transform="translate(33.183 0)">
              <path id="path9126" d="M-8.808-83.54A1.192,1.192,0,0,1-10-84.732V-95.008A1.192,1.192,0,0,1-8.808-96.2a1.192,1.192,0,0,1,1.192,1.192v10.276A1.192,1.192,0,0,1-8.808-83.54Z" transform="translate(10 96.2)"/>
            </g>
            <g id="g9128" transform="translate(56.09 0)">
              <path id="path9130" d="M-8.808,2.66A1.192,1.192,0,0,1-10,1.468V-8.808A1.192,1.192,0,0,1-8.808-10,1.192,1.192,0,0,1-7.616-8.808V1.468A1.192,1.192,0,0,1-8.808,2.66Z" transform="translate(10 10)"/>
            </g>
            <g id="g9132" transform="translate(10.276 0)">
              <path id="path9134" d="M-8.808,64.316A1.192,1.192,0,0,1-10,63.124V-8.808A1.192,1.192,0,0,1-8.808-10,1.192,1.192,0,0,1-7.616-8.808V63.124A1.192,1.192,0,0,1-8.808,64.316Z" transform="translate(10 10)"/>
            </g>
            <g id="g9136" transform="translate(42.58 58.123)">
              <path id="path9138" d="M-296.083,13.257c-9.4,0-19.4-2.908-19.4-8.3V-8.808A1.192,1.192,0,0,1-314.291-10,1.192,1.192,0,0,1-313.1-8.808V4.959c0,2.792,7.277,5.914,17.016,5.914s17.016-3.122,17.016-5.914V-8.808A1.192,1.192,0,0,1-277.874-10a1.192,1.192,0,0,1,1.192,1.192V4.959C-276.682,10.349-286.678,13.257-296.083,13.257Z" transform="translate(315.483 10)"/>
            </g>
            <g id="g9140" transform="translate(42.58 44.356)">
              <path id="path9142" d="M-296.083,13.257c-9.4,0-19.4-2.908-19.4-8.3V-8.808A1.192,1.192,0,0,1-314.291-10,1.192,1.192,0,0,1-313.1-8.808V4.959c0,2.792,7.277,5.914,17.016,5.914s17.016-3.122,17.016-5.914V-8.808A1.192,1.192,0,0,1-277.874-10a1.192,1.192,0,0,1,1.192,1.192V4.959C-276.682,10.349-286.678,13.257-296.083,13.257Z" transform="translate(315.483 10)"/>
            </g>
            <g id="g9144" transform="translate(42.58 37.25)">
              <path id="path9146" d="M-296.083-69.606c9.4,0,19.4,2.908,19.4,8.3s-10,8.3-19.4,8.3-19.4-2.908-19.4-8.3S-305.488-69.606-296.083-69.606Zm0,14.211c9.739,0,17.016-3.122,17.016-5.914s-7.277-5.914-17.016-5.914S-313.1-64.1-313.1-61.309-305.822-55.4-296.083-55.4Z" transform="translate(315.483 69.606)"/>
            </g>
            <g id="g9148" transform="translate(68.626 57.552)">
              <path id="path9150" d="M-17.794-8.9a1.2,1.2,0,0,1-1.2,1.2,1.2,1.2,0,0,1-1.2-1.2A1.2,1.2,0,0,1-19-10.1a1.2,1.2,0,0,1,1.2,1.2" transform="translate(20.203 10.103)"/>
            </g>
            <g id="g9152" transform="translate(73.443 55.947)">
              <path id="path9154" d="M-17.8-8.9a1.2,1.2,0,0,1-1.2,1.2,1.2,1.2,0,0,1-1.2-1.2A1.2,1.2,0,0,1-19-10.1a1.2,1.2,0,0,1,1.2,1.2" transform="translate(20.204 10.101)"/>
            </g>
            <g id="g9156" transform="translate(68.626 71.065)">
              <path id="path9158" d="M-17.794-8.9a1.2,1.2,0,0,1-1.2,1.2,1.2,1.2,0,0,1-1.2-1.2A1.2,1.2,0,0,1-19-10.1a1.2,1.2,0,0,1,1.2,1.2" transform="translate(20.203 10.101)"/>
            </g>
            <g id="g9160" transform="translate(73.443 69.46)">
              <path id="path9162" d="M-17.8-8.9a1.2,1.2,0,0,1-1.2,1.2,1.2,1.2,0,0,1-1.2-1.2A1.2,1.2,0,0,1-19-10.1a1.2,1.2,0,0,1,1.2,1.2" transform="translate(20.204 10.101)"/>
            </g>
          </g>
        </g>
      </g>
    </g>
  </g>
</svg>
