<svg xmlns="http://www.w3.org/2000/svg" xmlns:xlink="http://www.w3.org/1999/xlink" width="400" height="353.964" viewBox="0 0 400 353.964">
  <defs>
    <clipPath id="clip-path">
      <rect id="Rectángulo_381604" data-name="Rectángulo 381604" width="344.43" height="353.109" fill="none"/>
    </clipPath>
    <clipPath id="clip-path-2">
      <rect id="Rectángulo_381600" data-name="Rectángulo 381600" width="20.231" height="27.317" fill="none"/>
    </clipPath>
    <clipPath id="clip-path-3">
      <rect id="Rectángulo_381601" data-name="Rectángulo 381601" width="43.704" height="18.861" fill="none"/>
    </clipPath>
    <clipPath id="clip-path-4">
      <rect id="Rectángulo_381603" data-name="Rectángulo 381603" width="66.399" height="57.503" fill="none"/>
    </clipPath>
  </defs>
  <g id="Grupo_1071986" data-name="Grupo 1071986" transform="translate(-180 -779.105)">
    <g id="Grupo_1071875" data-name="Grupo 1071875" transform="translate(180 796)">
      <path id="web-AdobeStock_200818697" d="M170,0h49.43c93.888,0,170,82.409,170,184.066V336.733H0V184.066C0,82.409,76.112,0,170,0Z" transform="translate(0)" fill="#d8dcfc"/>
      <path id="Rectángulo_33777" data-name="Rectángulo 33777" d="M27,0h0A27,27,0,0,1,54,27V75.336a0,0,0,0,1,0,0H0a0,0,0,0,1,0,0V27A27,27,0,0,1,27,0Z" transform="translate(345.998 261.733)" fill="#98d1ca"/>
      <g id="Elipse_4715" data-name="Elipse 4715" transform="translate(332.665 31.822)" fill="none" stroke="#8054f8" stroke-width="3">
        <ellipse cx="33.668" cy="33.668" rx="33.668" ry="33.668" stroke="none"/>
        <ellipse cx="33.668" cy="33.668" rx="32.168" ry="32.168" fill="none"/>
      </g>
      <ellipse id="Elipse_4718" data-name="Elipse 4718" cx="24.668" cy="24.668" rx="24.668" ry="24.668" transform="translate(0)" fill="#98d1ca"/>
      <path id="Trazado_113169" data-name="Trazado 113169" d="M15.423,17.486a2.063,2.063,0,0,0,1.459-3.521l-3.517-3.517-1-1,1-1,3.517-3.516a2.063,2.063,0,1,0-2.918-2.918L10.448,5.533l-1,1-1-1L4.934,2.017A2.063,2.063,0,0,0,2.017,4.935L5.533,8.451l1,1-1,1L2.017,13.965a2.063,2.063,0,0,0,2.917,2.917L8.45,13.365l1-1,1,1,3.516,3.517a2.052,2.052,0,0,0,1.459.6m0,1.412a3.463,3.463,0,0,1-2.458-1.018L9.449,14.365,5.932,17.881a3.475,3.475,0,0,1-4.915,0h0a3.476,3.476,0,0,1,0-4.915L4.534,9.45,1.017,5.933A3.475,3.475,0,1,1,5.932,1.018L9.449,4.535l3.516-3.517a3.476,3.476,0,0,1,4.916,0h0a3.476,3.476,0,0,1,0,4.915L14.364,9.45l3.517,3.516a3.476,3.476,0,0,1,0,4.915h0A3.463,3.463,0,0,1,15.423,18.9Z" transform="matrix(0.695, -0.719, 0.719, 0.695, 29.751, 45.417)" fill="#8054f8"/>
      <g id="Sustracción_3" data-name="Sustracción 3" transform="translate(0 336.972) rotate(-90)" fill="none">
        <path d="M72.236,0H0V.229A36.718,36.718,0,0,0,.734,7.544a36.211,36.211,0,0,0,2.1,6.813,36.321,36.321,0,0,0,3.33,6.165,36.478,36.478,0,0,0,4.411,5.373,36.3,36.3,0,0,0,5.346,4.432,35.985,35.985,0,0,0,6.135,3.347,35.8,35.8,0,0,0,6.781,2.115,36.111,36.111,0,0,0,7.279.738,36.106,36.106,0,0,0,7.279-.738,35.691,35.691,0,0,0,6.779-2.115,36.067,36.067,0,0,0,6.136-3.347,36.5,36.5,0,0,0,5.346-4.432,36.507,36.507,0,0,0,4.409-5.373,36.262,36.262,0,0,0,3.33-6.165A36.07,36.07,0,0,0,71.5,7.544,36.709,36.709,0,0,0,72.238.229c0-.076,0-.148,0-.223V0Z" stroke="none"/>
        <path d="M 3.113296508789062 3 C 3.222221374511719 4.329624176025391 3.409393310546875 5.649227142333984 3.673538208007812 6.945789337158203 C 4.108245849609375 9.082683563232422 4.757316589355469 11.18447113037109 5.602775573730469 13.19294166564941 C 6.434066772460938 15.16815376281738 7.461585998535156 17.07071876525879 8.657386779785156 18.84871864318848 C 9.842185974121094 20.61174201965332 11.20398712158203 22.27037811279297 12.7057991027832 23.77939987182617 C 14.2034912109375 25.28548240661621 15.85321044921875 26.65321350097656 17.61111450195312 27.84591674804688 C 19.37548065185547 29.04505920410156 21.26716232299805 30.07699966430664 23.23334121704102 30.91296577453613 C 25.22946929931641 31.76145935058594 27.31921005249023 32.41321182250977 29.44650268554688 32.85051727294922 C 31.62022018432617 33.29891967773438 33.86518478393555 33.52628326416016 36.11904525756836 33.52628326416016 C 38.37290573120117 33.52628326416016 40.61786651611328 33.29891967773438 42.79343414306641 32.85014343261719 C 44.92440032958984 32.41195297241211 47.01316070556641 31.76043510437012 49.00286865234375 30.91321182250977 C 50.96848297119141 30.07721328735352 52.86074829101562 29.04504776000977 54.62708282470703 27.84540176391602 C 56.38198852539062 26.65349578857422 58.03253936767578 25.28505897521973 59.53203582763672 23.77897644042969 C 61.030517578125 22.272705078125 62.39178466796875 20.61392974853516 63.57892608642578 18.84743499755859 C 64.77444458007812 17.07043647766113 65.80181121826172 15.16816520690918 66.63365936279297 13.19064712524414 C 67.47843170166016 11.18808364868164 68.12763214111328 9.087011337280273 68.56345367431641 6.944635391235352 C 68.82785797119141 5.647548675537109 69.01526641845703 4.328464508056641 69.12440490722656 3 L 3.113296508789062 3 M 0 0 L 72.23611450195312 0.00131988525390625 L 72.23611450195312 0.0059661865234375 C 72.23611450195312 0.0802001953125 72.23809051513672 0.1530838012695312 72.23809051513672 0.2286338806152344 C 72.23809051513672 2.690670013427734 71.99042510986328 5.152717590332031 71.50301361083984 7.54383659362793 C 71.02884674072266 9.874658584594727 70.32091522216797 12.16835403442383 69.39777374267578 14.3566837310791 C 68.49314117431641 16.50724792480469 67.37264251708984 18.58290672302246 66.06803131103516 20.52204704284668 C 64.77600860595703 22.44462394714355 63.29325866699219 24.25188255310059 61.65885925292969 25.89478874206543 C 60.02180862426758 27.53902435302734 58.22318649291992 29.02949523925781 56.3126335144043 30.32711791992188 C 54.38155364990234 31.6386604309082 52.31800842285156 32.7633056640625 50.17700958251953 33.67389297485352 C 47.99957275390625 34.60105895996094 45.71816253662109 35.31149291992188 43.39768218994141 35.78865814208984 C 38.64348602294922 36.76937103271484 33.59591293334961 36.7696418762207 28.84040832519531 35.78865814208984 C 26.51926803588867 35.31149291992188 24.23785781860352 34.5997314453125 22.05976104736328 33.67389297485352 C 19.9180908203125 32.7633056640625 17.85456466674805 31.6386604309082 15.92479705810547 30.32711791992188 C 14.01226806640625 29.02949523925781 12.2136344909668 27.53902435302734 10.57856369018555 25.89478874206543 C 8.943504333496094 24.25188255310059 7.459434509277344 22.44462394714355 6.167411804199219 20.52204704284668 C 4.864128112792969 18.58423614501953 3.743621826171875 16.50923538208008 2.837677001953125 14.3566837310791 C 1.916519165039062 12.16835403442383 1.207916259765625 9.874658584594727 0.7337493896484375 7.54383659362793 C 0.2463531494140625 5.151388168334961 0 2.690670013427734 0 0.2286338806152344 C 0 0.1908607482910156 0 0.1530838012695312 0 0.1133308410644531 C 0 0.07555389404296875 0 0.0377655029296875 0 0 Z" stroke="none" fill="#8054f8"/>
      </g>
    </g>
    <g id="Grupo_1071985" data-name="Grupo 1071985" transform="translate(208 779.105)">
      <g id="Grupo_1071987" data-name="Grupo 1071987">
        <g id="Grupo_1071983" data-name="Grupo 1071983">
          <g id="Grupo_1071982" data-name="Grupo 1071982" clip-path="url(#clip-path)">
            <path id="Trazado_818369" data-name="Trazado 818369" d="M135.891,59.631l-1.139,91.733c-.194,15.6,2.709,38.554,27.387,37.736,21.358-2.325,27.023-22.543,27.19-37.1.078-6.905.159-12.664.213-13.373,0,0,23.379-1.906,25.353-25,.954-11.159,1.046-34.3.888-55.243a43.169,43.169,0,0,0-40.039-42.7l-2.229-.163c-24.15-.352-37.939,19.962-37.622,44.113" transform="translate(-14.05 -1.618)" fill="#ffbe9d"/>
            <path id="Trazado_818370" data-name="Trazado 818370" d="M192.493,151.666s-14.632-.21-29.444-11.094c0,0,6.109,17.418,29.323,17.021Z" transform="translate(-17.002 -14.658)" fill="#eb996e"/>
            <path id="Trazado_818371" data-name="Trazado 818371" d="M179.487,73.463c-.46.468-3.125-1.679-6.995-1.783-3.863-.161-6.757,1.794-7.164,1.3-.2-.221.278-1.075,1.539-1.961a9.685,9.685,0,0,1,5.751-1.631,9.342,9.342,0,0,1,5.551,2.019c1.164.971,1.542,1.852,1.318,2.06" transform="translate(-17.235 -7.234)" fill="#263238"/>
            <path id="Trazado_818372" data-name="Trazado 818372" d="M179.5,82.518a3.13,3.13,0,0,1-3.241,2.93,2.994,2.994,0,0,1-3.012-3.05,3.132,3.132,0,0,1,3.238-2.933,3,3,0,0,1,3.015,3.053" transform="translate(-18.065 -8.286)" fill="#263238"/>
            <path id="Trazado_818373" data-name="Trazado 818373" d="M191.96,100.526c0-.2,2.234-.424,5.845-.62.914-.027,1.785-.144,1.983-.752a4.629,4.629,0,0,0-.409-2.733q-1.039-3.384-2.178-7.1c-3.007-10.1-5.113-18.387-4.705-18.5s3.177,7.978,6.183,18.083q1.08,3.735,2.063,7.135c.267,1.056.772,2.268.21,3.595a2.279,2.279,0,0,1-1.587,1.216,6.19,6.19,0,0,1-1.557.1c-3.614-.07-5.849-.216-5.847-.419" transform="translate(-20.016 -7.384)" fill="#263238"/>
            <path id="Trazado_818374" data-name="Trazado 818374" d="M177.625,57.362c-.374.858-3.471.212-7.18.4-3.712.112-6.757,1.009-7.187.184-.19-.394.387-1.185,1.648-1.951a11.7,11.7,0,0,1,5.43-1.527,11.578,11.578,0,0,1,5.516,1.082c1.308.661,1.937,1.4,1.774,1.81" transform="translate(-17.02 -5.679)" fill="#263238"/>
            <path id="Trazado_818375" data-name="Trazado 818375" d="M218.672,65.355c-.406.7-3.425-.077-7.083-.19-3.659-.179-6.7.356-7.082-.375-.169-.348.434-.976,1.709-1.532a12.778,12.778,0,0,1,5.412-.894,13.193,13.193,0,0,1,5.38,1.325c1.258.657,1.843,1.332,1.664,1.666" transform="translate(-21.322 -6.502)" fill="#263238"/>
            <path id="Trazado_818376" data-name="Trazado 818376" d="M134.85,83.894c-.382-.2-15.538-5.856-16.188,9.981s15.386,13.224,15.432,12.77.755-22.751.755-22.751" transform="translate(-12.371 -8.629)" fill="#ffbe9d"/>
            <path id="Trazado_818377" data-name="Trazado 818377" d="M129.972,101.033c-.068-.054-.284.182-.759.376a2.76,2.76,0,0,1-2.065-.042c-1.648-.683-2.948-3.4-2.908-6.254a9.135,9.135,0,0,1,.934-3.919,3.193,3.193,0,0,1,2.163-2.033,1.406,1.406,0,0,1,1.6.823c.194.451.081.763.163.795.043.041.351-.252.25-.911a1.757,1.757,0,0,0-.582-1.018,2.083,2.083,0,0,0-1.509-.465,3.878,3.878,0,0,0-2.983,2.337,9.375,9.375,0,0,0-1.138,4.376c-.03,3.2,1.482,6.249,3.745,7a2.957,2.957,0,0,0,2.54-.315c.506-.372.6-.723.551-.753" transform="translate(-12.84 -9.216)" fill="#eb996e"/>
            <path id="Trazado_818378" data-name="Trazado 818378" d="M186.811,115.041c.173-.4-2.93-1.329-5.111-4.24a17.75,17.75,0,0,1-2.192-4.136c-.462-1.149-.812-1.871-.984-1.818s-.122.829.133,2.08a11.681,11.681,0,0,0,2.038,4.633,9.467,9.467,0,0,0,4.046,3.1c1.209.49,2.028.52,2.069.385" transform="translate(-18.605 -10.932)" fill="#263238"/>
            <path id="Trazado_818379" data-name="Trazado 818379" d="M244.075,36.037a3.741,3.741,0,0,0-1.757-2.185c-1.808-1.067-3.891-.925-5.9-.958a33.351,33.351,0,0,1-17.366-5.279,77.686,77.686,0,0,0-8.081-9.794c-7-7.218-12.76-12.13-18.717-14.528-7.706-3.1-20.594-4.36-28.628-2.252S148.371,9.669,147.254,17.9c-4.506-3.81-11.271-3.777-16.759-1.571l-.138-.06c-6.112,2.178-9.584,8.636-11.387,14.869s-2.573,12.9-5.873,18.484c-.69,1.168-1.509,2.567-.907,3.783a2.578,2.578,0,0,0,2.7,1.175,7.554,7.554,0,0,0,2.845-1.287l-2.045,4.9a14.446,14.446,0,0,0,6.648-.444c1.3,5.829,2.847,12.486,4.348,16.436,2.556-.007,4.893.176,6.469,1.592,2.141,1.925,3.1,5.546,6.655,4.171,1.81-.7,3.462-4.5,4.068-6.342a90.123,90.123,0,0,0,3.9-38.15A28.962,28.962,0,0,1,156.723,29l-.273.246C162.9,27,170.2,24.8,176.327,27.827c4.75,2.35,7.542,7.279,11.094,11.212a36.256,36.256,0,0,0,25.841,11.936c.341,6.5-.2,15.693.137,22.2l5.469-10.416.005.052c.448-.762.818-1.531,1.176-2.3l.123-.234v-.029a40.323,40.323,0,0,1,1.829-3.7l.062.056c3.524,3.108,8.715-1.645,5.936-5.433a9.16,9.16,0,0,0-1.964-1.973,6.428,6.428,0,0,0,6.122,1.587,5.043,5.043,0,0,0,3.567-4.987,4.287,4.287,0,0,0-2.556-3.44,14.488,14.488,0,0,0,8.237-1.816c1.627-.928,3.222-2.454,2.67-4.5" transform="translate(-11.676 0)" fill="#263238"/>
            <path id="Trazado_818380" data-name="Trazado 818380" d="M155.529,22.946a19.869,19.869,0,0,0-2.317,2.119,16.563,16.563,0,0,0-3.545,7.669,29.07,29.07,0,0,0-.59,5.871c-.01,2.127.161,4.405.324,6.807a61.069,61.069,0,0,1,.174,7.575,26.678,26.678,0,0,1-.521,4,8.333,8.333,0,0,1-1.63,3.877,3.484,3.484,0,0,1-3.26,1.1,5.187,5.187,0,0,1-2.934-1.656c-1.487-1.735-1.857-3.936-2.227-5.874l.485.058a19.335,19.335,0,0,1-2.811,4.84,6.876,6.876,0,0,1-4.494,2.447,4.437,4.437,0,0,1-2.381-.417,3.845,3.845,0,0,1-1.619-1.594,3.959,3.959,0,0,1-.491-2.048,2.877,2.877,0,0,1,.742-1.8l.245.219a14.9,14.9,0,0,1-4.962,3.724,13.305,13.305,0,0,1-1.538.6,2.559,2.559,0,0,1-.551.137,2.793,2.793,0,0,1,.521-.222c.343-.142.854-.347,1.49-.671a15.343,15.343,0,0,0,4.789-3.777l.245.219a2.962,2.962,0,0,0-.153,3.432,3.465,3.465,0,0,0,1.463,1.411,4.028,4.028,0,0,0,2.159.351,6.45,6.45,0,0,0,4.171-2.325,19.059,19.059,0,0,0,2.706-4.736l.332-.741.153.8c.37,1.937.764,4.049,2.119,5.612a4.667,4.667,0,0,0,2.625,1.482,2.942,2.942,0,0,0,2.771-.928,7.888,7.888,0,0,0,1.5-3.627,26.484,26.484,0,0,0,.518-3.914,61.816,61.816,0,0,0-.142-7.512c-.149-2.4-.3-4.687-.275-6.842a28.967,28.967,0,0,1,.665-5.947,16.34,16.34,0,0,1,3.763-7.729,9.367,9.367,0,0,1,2.473-1.979" transform="translate(-12.683 -2.393)" fill="#455a64"/>
            <path id="Trazado_818381" data-name="Trazado 818381" d="M231.029,43.913c.005.007-.057.061-.185.158l-.577.421a7.792,7.792,0,0,1-.978.628,12.32,12.32,0,0,1-1.406.739A20.476,20.476,0,0,1,218,47.637a26.174,26.174,0,0,1-13.942-5.148,45.345,45.345,0,0,1-11.977-13.8c-1.68-2.8-3.049-5.665-4.559-8.313a30.644,30.644,0,0,0-5.161-7.032A15.773,15.773,0,0,0,175.7,9.3a11.3,11.3,0,0,0-3.509-.4,12.425,12.425,0,0,0-3.214.617,13.369,13.369,0,0,0-7.423,6.281,16.005,16.005,0,0,0-1.192,3.464.769.769,0,0,1,.018-.243c.03-.191.066-.424.109-.707a11.592,11.592,0,0,1,.877-2.608,13.158,13.158,0,0,1,2.586-3.507,13.521,13.521,0,0,1,4.9-3.041,12.712,12.712,0,0,1,3.316-.673,11.7,11.7,0,0,1,3.652.389,16.155,16.155,0,0,1,6.883,4.114,30.864,30.864,0,0,1,5.275,7.128c1.528,2.667,2.9,5.528,4.564,8.3a45.362,45.362,0,0,0,11.806,13.678,26.012,26.012,0,0,0,13.673,5.17,20.806,20.806,0,0,0,9.777-1.589,32.586,32.586,0,0,0,3.233-1.755" transform="translate(-16.721 -0.883)" fill="#455a64"/>
            <path id="Trazado_818382" data-name="Trazado 818382" d="M238.753,36.706a3.61,3.61,0,0,1-.829.577,17.856,17.856,0,0,1-2.452,1.246,23.893,23.893,0,0,1-3.885,1.276,25.149,25.149,0,0,1-9.967.319,23.95,23.95,0,0,1-3.957-1.024,17.9,17.9,0,0,1-2.528-1.087,3.625,3.625,0,0,1-.863-.522c.045-.091,1.32.564,3.51,1.246a27.369,27.369,0,0,0,3.917.9,26.978,26.978,0,0,0,9.779-.314,27.239,27.239,0,0,0,3.851-1.145c2.143-.82,3.374-1.556,3.424-1.468" transform="translate(-22.343 -3.827)" fill="#455a64"/>
            <path id="Trazado_818383" data-name="Trazado 818383" d="M218.864,75.09c-.46.468-3.125-1.679-6.995-1.783-3.863-.161-6.758,1.794-7.164,1.3-.2-.221.278-1.075,1.539-1.961A9.691,9.691,0,0,1,212,71.01a9.348,9.348,0,0,1,5.551,2.02c1.164.971,1.542,1.851,1.318,2.06" transform="translate(-21.341 -7.404)" fill="#263238"/>
            <path id="Trazado_818384" data-name="Trazado 818384" d="M215.386,83.773a3.131,3.131,0,0,1-3.241,2.93,2.994,2.994,0,0,1-3.012-3.05,3.132,3.132,0,0,1,3.238-2.933,3,3,0,0,1,3.015,3.053" transform="translate(-21.807 -8.417)" fill="#263238"/>
            <path id="Trazado_818385" data-name="Trazado 818385" d="M371.354,177.372c0-6.711-6.413-6.711-6.413-6.711-2.443-3.208-5.191-2.042-5.191-2.042l-10.382,7c-1.526,2.625-11.6,12.546-11.6,12.546-2.748-2.042-2.748-6.127-6.042-11.087s-10.752-4.377-10.752-4.377,5.8,13.13,6.413,21.3-4.46,30.955-4.46,30.955l29.35,8.249s1.852-12.5,5.141-13.509c3.958-1.215,6.161-7.055,6.161-7.055,4.279-8.668,12.967-21.265,14.188-27.684s-6.413-7.586-6.413-7.586" transform="translate(-33.469 -17.561)" fill="#ffbe9d"/>
            <path id="Trazado_818386" data-name="Trazado 818386" d="M127.5,162.217c18.695,11.747,37.535,16.167,56.616,8.56L212.8,178.1l28.221,188.544L75.56,368.084l8.152-43.791,20.512-157.34Z" transform="translate(-7.879 -16.915)" fill="#283859"/>
            <path id="Trazado_818387" data-name="Trazado 818387" d="M228.778,179.952s22.309,9.264,30.824,25.492,22.2,61.777,22.2,61.777l25.208-46.295,46.785,11.96s-34.824,96.055-43.566,104.8c-9.572,9.574-35.655,19.227-48.427,11.777s-15.371-35.729-15.371-35.729Z" transform="translate(-23.855 -18.764)" fill="#283859"/>
            <path id="Trazado_818388" data-name="Trazado 818388" d="M230.468,263.637c-.129,0-.233-8.374-.233-18.7s.1-18.705.233-18.705.233,8.373.233,18.705-.1,18.7-.233,18.7" transform="translate(-24.007 -23.59)" fill="#263238"/>
            <path id="Trazado_818389" data-name="Trazado 818389" d="M239.477,191.98a28.1,28.1,0,0,1-1.088,3.088c-.7,1.894-1.635,4.522-2.547,7.462s-1.625,5.639-2.116,7.6a27.733,27.733,0,0,1-.846,3.163,3.24,3.24,0,0,1,.087-.879c.084-.56.233-1.366.439-2.358.409-1.983,1.077-4.705,1.99-7.661s1.9-5.577,2.685-7.445c.391-.934.724-1.683.971-2.194a3.234,3.234,0,0,1,.425-.774" transform="translate(-24.282 -20.018)" fill="#263238"/>
            <path id="Trazado_818390" data-name="Trazado 818390" d="M93.319,238.058l5.176-71.043s-38.946,3.613-51.834,31.09C35.8,221.259,5.821,290.924,2.612,300.454c-9.416,27.965,5.294,66.412,65.936,64.185l6.913-38.018Z" transform="translate(0 -17.415)" fill="#283859"/>
            <path id="Trazado_818391" data-name="Trazado 818391" d="M55.5,352.3a4.441,4.441,0,0,1,.317-.682L56.8,349.7c.9-1.691,2.162-4.068,3.715-6.989l1.241-2.313a6.861,6.861,0,0,1,1.782-2.289,4.842,4.842,0,0,1,3-.862,13.631,13.631,0,0,1,3.228.523,33.115,33.115,0,0,1,6.517,2.465,17.277,17.277,0,0,1,3.129,1.993l.36.313a1.171,1.171,0,0,1,.306.481,4.051,4.051,0,0,1,.2.979,15.242,15.242,0,0,1,.042,1.928c-.094,2.568-.414,5.043-.733,7.43s-.693,4.677-1.058,6.858c-.734,4.36-1.466,8.273-2.1,11.556l-1.522,7.767q-.261,1.326-.416,2.11a6,6,0,0,1-.157.735,3.669,3.669,0,0,1,.064-.75c.064-.489.176-1.207.331-2.128.333-1.886.8-4.538,1.376-7.795.587-3.289,1.286-7.206,1.995-11.566.353-2.179.708-4.47,1.029-6.85s.627-4.851.72-7.382a15.033,15.033,0,0,0-.04-1.868,3.568,3.568,0,0,0-.169-.862.685.685,0,0,0-.185-.3l-.343-.3a16.928,16.928,0,0,0-3.04-1.944,33.14,33.14,0,0,0-6.418-2.455,13.311,13.311,0,0,0-3.124-.528,4.458,4.458,0,0,0-2.76.762,6.527,6.527,0,0,0-1.7,2.152l-1.267,2.3c-1.606,2.891-2.914,5.245-3.844,6.919q-.669,1.174-1.066,1.87a4.507,4.507,0,0,1-.4.637" transform="translate(-5.787 -35.166)" fill="#263238"/>
            <path id="Trazado_818392" data-name="Trazado 818392" d="M24.056,316.37a1.689,1.689,0,0,1,.458-.014l1.308.05c1.134.056,2.775.151,4.8.339a62.323,62.323,0,0,1,7.073,1.029,36.2,36.2,0,0,1,8.319,2.756,32.615,32.615,0,0,1,7.318,4.829,19.551,19.551,0,0,1,4.443,5.614,12.44,12.44,0,0,1,1.346,4.634,8.253,8.253,0,0,1,.026,1.313,1.676,1.676,0,0,1-.039.455c-.051,0-.033-.632-.168-1.748a13.045,13.045,0,0,0-1.459-4.5,19.781,19.781,0,0,0-4.435-5.444,33.207,33.207,0,0,0-7.237-4.729,37.114,37.114,0,0,0-8.2-2.756,68.807,68.807,0,0,0-7.016-1.121c-2.014-.228-3.649-.375-4.779-.486l-1.3-.138a1.685,1.685,0,0,1-.451-.079" transform="translate(-2.508 -32.987)" fill="#263238"/>
            <path id="Trazado_818393" data-name="Trazado 818393" d="M69.651,312.367a16.851,16.851,0,0,1-.968,2.8c-.667,1.7-1.661,4.02-2.8,6.559l-2.923,6.5a20.719,20.719,0,0,1-1.273,2.668,16.787,16.787,0,0,1,.968-2.8c.667-1.7,1.661-4.021,2.8-6.56l2.923-6.5a20.6,20.6,0,0,1,1.272-2.667" transform="translate(-6.432 -32.571)" fill="#263238"/>
            <path id="Trazado_818394" data-name="Trazado 818394" d="M94.613,247.6c-.129,0-.233-4.5-.233-10.056s.1-10.058.233-10.058.233,4.5.233,10.058-.1,10.056-.233,10.056" transform="translate(-9.841 -23.721)" fill="#263238"/>
            <g id="Grupo_1071972" data-name="Grupo 1071972" transform="translate(36.368 304.388)" opacity="0.3">
              <g id="Grupo_1071971" data-name="Grupo 1071971">
                <g id="Grupo_1071970" data-name="Grupo 1071970" clip-path="url(#clip-path-2)">
                  <path id="Trazado_818395" data-name="Trazado 818395" d="M60.833,339.822c-10.245,3.574-17.171,12.871-19.968,23.354-.293,1.1-.489,2.4.246,3.266a2.578,2.578,0,0,0,3.217.263,7.522,7.522,0,0,0,2.281-2.627c4.936-7.9,9.755-15.216,14.225-24.256" transform="translate(-40.601 -339.822)"/>
                </g>
              </g>
            </g>
            <g id="Grupo_1071975" data-name="Grupo 1071975" transform="translate(11.551 279.455)" opacity="0.3">
              <g id="Grupo_1071974" data-name="Grupo 1071974">
                <g id="Grupo_1071973" data-name="Grupo 1071973" clip-path="url(#clip-path-3)">
                  <path id="Trazado_818396" data-name="Trazado 818396" d="M45.234,316.65c-5.357-2.978-11.519-4.256-17.636-4.626a26.784,26.784,0,0,0-7.129.627c-3.2.672-6.876,2.288-7.573,4.584,7.354-2.3,18.177-.786,25.7.859a27.618,27.618,0,0,1,18,12.752,25.676,25.676,0,0,0-11.365-14.2" transform="translate(-12.895 -311.986)"/>
                </g>
              </g>
            </g>
            <path id="Trazado_818397" data-name="Trazado 818397" d="M86.51,213.223a5.706,5.706,0,0,1-.356-1.121c-.192-.729-.5-1.776-.927-3.054A49.31,49.31,0,0,0,74.643,191.06c-.912-.991-1.675-1.772-2.22-2.293a5.739,5.739,0,0,1-.807-.856,5.686,5.686,0,0,1,.93.723c.584.482,1.387,1.232,2.337,2.2a44.409,44.409,0,0,1,10.659,18.114c.385,1.3.65,2.366.788,3.112a5.687,5.687,0,0,1,.18,1.164" transform="translate(-7.467 -19.594)" fill="#263238"/>
            <path id="Trazado_818398" data-name="Trazado 818398" d="M99.082,377.2,55.684,272.5c-1.98-4.778.5-8.651,5.549-8.651h8.732c3.563,0,5.991-1.963,6.22-5.027l.289-3.85c.231-3.063,2.663-5.026,6.23-5.026h41.488a14.521,14.521,0,0,1,9.607,4.25l3.368,3.263a14.514,14.514,0,0,0,9.6,4.25h52.842c5.046,0,10.7,3.873,12.62,8.652L255.249,377.2Z" transform="translate(-5.735 -26.062)" fill="#b7a6e3"/>
            <path id="Trazado_818400" data-name="Trazado 818400" d="M94.273,343.979,77.905,280.7c-1.078-4.167,1.652-8.347,5.45-8.347H211.647a5.85,5.85,0,0,1,5.463,4.713l23.825,95.25c1.046,4.182-.626,6.691-4.428,6.643L107.426,379a5.855,5.855,0,0,1-5.391-4.676Z" transform="translate(-8.099 -28.399)" fill="#e0e0e0"/>
            <path id="Trazado_818401" data-name="Trazado 818401" d="M105.291,376.458,98.318,276.8a6.112,6.112,0,0,1,6.1-6.539H237.341V376.458Z" transform="translate(-10.25 -28.181)" fill="#ebebeb"/>
            <path id="Trazado_818402" data-name="Trazado 818402" d="M104.443,378.738,120.257,276a7.361,7.361,0,0,1,7.228-5.738h134.47a7.269,7.269,0,0,1,6.789,10.126l-29.036,94.02Z" transform="translate(-10.891 -28.181)" fill="#fafafa"/>
            <path id="Trazado_818403" data-name="Trazado 818403" d="M104.213,379.986l32.613-96.221a9.655,9.655,0,0,1,9.07-6.689H284.522a6.775,6.775,0,0,1,6.191,8.989L260.38,380.032Z" transform="translate(-10.867 -28.892)" fill="#d3c3fd"/>
            <g id="Grupo_1071981" data-name="Grupo 1071981" transform="translate(96.174 293.638)" opacity="0.3">
              <g id="Grupo_1071980" data-name="Grupo 1071980">
                <g id="Grupo_1071979" data-name="Grupo 1071979" clip-path="url(#clip-path-4)">
                  <path id="Trazado_818404" data-name="Trazado 818404" d="M171.569,369.168s-5.234.239-7.647.4a71.232,71.232,0,0,1-33.684-5.975c-3.262-1.454-6.712-3.5-7.7-6.936-1.105-3.844,1.384-7.845,4.418-10.45s6.726-4.46,9.36-7.469,3.882-7.879,1.286-10.921l-.717.525c-1.877,4.751-7.1,7.044-11.422,9.762a40.307,40.307,0,0,0-16.928,22.125c-1.522,4.981-1.928,10.792,1.092,15.036,2.143,3.011,5.651,4.722,9.116,6.008,10.487,3.889,21.7,4.034,32.882,4.047,3.533,0,14.379-.145,14.379-.145,3.41-.928,4.535-2.7,6.589-5.579,1.885-2.641,1.472-8.361-1.027-10.431" transform="translate(-107.37 -327.82)"/>
                </g>
              </g>
            </g>
            <path id="Trazado_818405" data-name="Trazado 818405" d="M168.472,368.9l-36.157-5.436-14.037-8.077a6.332,6.332,0,0,1-3.226-5.1c0-.039-.005-.08-.006-.119a6.409,6.409,0,0,1,3.973-6.119c4.453-1.877,11.508-4.373,14.516-9.643,4.324-7.575,0-9.146,0-9.146L103.342,337.33,81.969,351.877l-4.3,24.256,29.821,9.739s33.231,1.873,42.4.845,9.17-5.3,9.17-5.3c1.7-.532,5.145-3.555,5.142-6.372,4.45-4.174,4.269-6.144,4.269-6.144" transform="translate(-8.099 -33.916)" fill="#ffbe9d"/>
            <path id="Trazado_818406" data-name="Trazado 818406" d="M127.413,385.634a7.152,7.152,0,0,1,1.49.285c.945.229,2.319.533,4.022.872a85,85,0,0,0,26.985,1.053c1.724-.206,3.118-.4,4.078-.557a7.225,7.225,0,0,1,1.507-.168,7.039,7.039,0,0,1-1.463.4c-.949.228-2.338.491-4.064.753a73.454,73.454,0,0,1-27.134-1.059c-1.7-.4-3.064-.766-3.993-1.067a7.223,7.223,0,0,1-1.427-.516" transform="translate(-13.286 -40.21)" fill="#eb996e"/>
            <path id="Trazado_818407" data-name="Trazado 818407" d="M131.1,379.394a7.484,7.484,0,0,1,1.512.288c.959.233,2.356.536,4.086.868a87.786,87.786,0,0,0,13.667,1.511,92.781,92.781,0,0,0,13.742-.631c1.749-.211,3.165-.412,4.139-.57a7.464,7.464,0,0,1,1.529-.173,7.384,7.384,0,0,1-1.485.408c-.964.231-2.373.5-4.125.766a77.761,77.761,0,0,1-13.819.814,74.256,74.256,0,0,1-13.736-1.7c-1.73-.39-3.117-.759-4.06-1.063a7.313,7.313,0,0,1-1.45-.52" transform="translate(-13.67 -39.56)" fill="#eb996e"/>
            <path id="Trazado_818408" data-name="Trazado 818408" d="M358.5,218.41,294.262,231.1a8.192,8.192,0,0,1-9.625-6.45L267.075,135.73a8.193,8.193,0,0,1,6.45-9.625l40.742-8.047,37.957,26.276,12.729,64.451a8.193,8.193,0,0,1-6.45,9.625" transform="translate(-27.832 -12.31)" fill="#ebebeb"/>
            <path id="Trazado_818409" data-name="Trazado 818409" d="M319.779,118.057l4.943,25.025a7.621,7.621,0,0,0,8.952,6l24.063-4.749Z" transform="translate(-33.344 -12.31)" fill="#f5f5f5"/>
            <path id="Trazado_818410" data-name="Trazado 818410" d="M326.148,148.273s.882,6.132,8.186,6.763a7.936,7.936,0,0,0,.826.021c3.253-.058,24.663-.465,24.569-.94-.1-.514-1.328-6.724-1.328-6.724l-24.062,4.752s-6.049.982-8.19-3.872" transform="translate(-34.008 -15.369)" fill="#e0e0e0"/>
            <path id="Trazado_818411" data-name="Trazado 818411" d="M358.477,218.382s.116-.039.347-.1a6.989,6.989,0,0,0,1.011-.331,8.132,8.132,0,0,0,5.082-8.664c-.47-2.6-1.11-5.6-1.77-8.961-2.677-13.455-6.51-32.713-11.14-55.98l.08.122-37.973-26.252.17.035L290.775,122.9l-12.3,2.431-3.121.616a20.935,20.935,0,0,0-3.071.725,7.964,7.964,0,0,0-4.447,4.165,7.858,7.858,0,0,0-.645,4.258c.227,1.442.561,2.919.834,4.369q.861,4.367,1.712,8.673,1.7,8.612,3.346,16.958c2.192,11.118,4.3,21.841,6.318,32.058q1.508,7.662,2.939,14.929.713,3.63,1.406,7.152.347,1.76.687,3.493a18.835,18.835,0,0,0,.819,3.36,8.026,8.026,0,0,0,4.682,4.469,7.942,7.942,0,0,0,3.186.463,30.551,30.551,0,0,0,3.182-.542l12.129-2.38,36.607-7.155L355,219.021l2.592-.488c.584-.107.886-.15.886-.15s-.3.074-.877.2l-2.582.534-9.941,2.008-36.578,7.3-12.124,2.41a30.4,30.4,0,0,1-3.229.555,8.311,8.311,0,0,1-3.336-.477,8.407,8.407,0,0,1-4.912-4.674,19.081,19.081,0,0,1-.846-3.431l-.693-3.492q-.7-3.52-1.418-7.15-1.438-7.258-2.958-14.925c-2.022-10.215-4.145-20.937-6.344-32.053q-1.649-8.338-3.353-16.957-.85-4.3-1.714-8.672c-.275-1.465-.6-2.895-.838-4.4a8.323,8.323,0,0,1,.683-4.509,8.43,8.43,0,0,1,4.709-4.409,21.27,21.27,0,0,1,3.143-.745l3.121-.616,12.3-2.427,23.51-4.636.093-.018.078.054,37.941,26.3.065.045.015.077c4.564,23.281,8.34,42.551,10.979,56.013.645,3.368,1.265,6.353,1.721,8.981a8.225,8.225,0,0,1-1.846,6.345,8.13,8.13,0,0,1-3.386,2.4,6.084,6.084,0,0,1-1.026.3c-.234.054-.354.073-.354.073" transform="translate(-27.806 -12.283)" fill="#263238"/>
            <path id="Trazado_818412" data-name="Trazado 818412" d="M357.736,144.333a3.189,3.189,0,0,1-.609.168l-1.764.392-6.5,1.359L339.2,148.21l-5.714,1.13a7.861,7.861,0,0,1-8.182-3.969,9.094,9.094,0,0,1-.955-2.985l-1.114-5.712c-.7-3.63-1.327-6.907-1.86-9.677-.505-2.719-.917-4.936-1.215-6.533-.126-.735-.228-1.327-.306-1.78a3.164,3.164,0,0,1-.076-.627,3.106,3.106,0,0,1,.168.608c.1.449.231,1.035.393,1.764.332,1.589.794,3.8,1.36,6.5.562,2.765,1.224,6.035,1.959,9.659.364,1.82.745,3.729,1.141,5.707a8.643,8.643,0,0,0,.914,2.851,7.424,7.424,0,0,0,7.7,3.741l5.706-1.1,9.677-1.859,6.533-1.214,1.781-.306a3.161,3.161,0,0,1,.627-.076" transform="translate(-33.344 -12.31)" fill="#263238"/>
            <path id="Trazado_818413" data-name="Trazado 818413" d="M319.4,143.254c.025.126-7.543,1.728-16.9,3.576s-16.969,3.245-16.993,3.119,7.541-1.727,16.9-3.577,16.966-3.244,16.991-3.118" transform="translate(-29.771 -14.937)" fill="#263238"/>
            <path id="Trazado_818414" data-name="Trazado 818414" d="M338.236,153.645c.025.126-11.143,2.439-24.941,5.164s-25.009,4.833-25.034,4.707,11.14-2.438,24.943-5.165,25.006-4.832,25.031-4.706" transform="translate(-30.058 -16.02)" fill="#263238"/>
            <path id="Trazado_818415" data-name="Trazado 818415" d="M340.988,167.582c.025.126-11.143,2.439-24.941,5.164s-25.009,4.833-25.034,4.707,11.14-2.438,24.943-5.165,25.006-4.832,25.031-4.706" transform="translate(-30.345 -17.474)" fill="#263238"/>
            <path id="Trazado_818416" data-name="Trazado 818416" d="M293.767,191.39c-.025-.126,11.143-2.439,24.941-5.164s25.009-4.833,25.034-4.707-11.14,2.438-24.943,5.165-25.006,4.832-25.031,4.706" transform="translate(-30.632 -18.927)" fill="#263238"/>
            <path id="Trazado_818417" data-name="Trazado 818417" d="M346.494,195.456c.025.126-11.143,2.439-24.941,5.164s-25.009,4.833-25.034,4.707,11.14-2.438,24.943-5.165,25.006-4.832,25.031-4.706" transform="translate(-30.919 -20.38)" fill="#263238"/>
            <path id="Trazado_818418" data-name="Trazado 818418" d="M349.246,209.393c.025.126-11.143,2.439-24.941,5.164s-25.009,4.833-25.034,4.707,11.14-2.438,24.943-5.165,25.006-4.832,25.031-4.706" transform="translate(-31.206 -21.833)" fill="#263238"/>
            <path id="Trazado_818419" data-name="Trazado 818419" d="M318.936,215.781l-47.145,9.311a3.781,3.781,0,0,1-4.442-2.977l-3.377-17.1a3.782,3.782,0,0,1,2.977-4.443l47.145-9.311a3.78,3.78,0,0,1,4.442,2.977l3.378,17.1a3.783,3.783,0,0,1-2.977,4.443" transform="translate(-27.518 -19.936)" fill="#8054f8"/>
            <path id="Trazado_818420" data-name="Trazado 818420" d="M279.85,208.33l4.208-.83c3.033-.6,5.469.817,6.023,3.621s-1.162,5.043-4.193,5.642l-4.208.831Zm5.586,6.694a2.932,2.932,0,1,0-1.136-5.743l-1.957.387,1.135,5.743Z" transform="translate(-29.181 -21.622)" fill="#fff"/>
            <path id="Trazado_818421" data-name="Trazado 818421" d="M292.41,210.644a5.176,5.176,0,1,1,6.016,3.789,4.889,4.889,0,0,1-6.016-3.789m7.967-1.574a2.955,2.955,0,1,0-2.313,3.536,2.881,2.881,0,0,0,2.313-3.536" transform="translate(-30.48 -21.348)" fill="#fff"/>
            <path id="Trazado_818422" data-name="Trazado 818422" d="M304.878,208.182a5.2,5.2,0,0,1,8.219-4.9l-1.126,1.542a3.038,3.038,0,0,0-2.544-.624,3.022,3.022,0,1,0,1.172,5.929,3.012,3.012,0,0,0,2.112-1.558l1.628,1a5.193,5.193,0,0,1-9.462-1.391" transform="translate(-31.78 -21.092)" fill="#fff"/>
            <path id="Trazado_818423" data-name="Trazado 818423" d="M356.886,155.794s4.745-6.007,8.4-2.648,2.6,5.087-.874,10.4c0,0,7.755-.408,5.269,7.559,0,0,7.728-.855,6.985,5.664,0,0,5.836,5.71,2.8,9.392s-14.041,10.325-16.822,9.182-2.8-5.08-2.8-5.08-3.307-1.49-4.22-3.232.655-4.185.655-4.185-2.788-2.848-3.479-3.643.378-4.49.378-4.49l4.451-4.319s-6.129,2.664-7.406,1.648-2.717-1.894-1.35-3.748,6.229-6,6.229-6Z" transform="translate(-36.32 -15.863)" fill="#ffbe9d"/>
            <path id="Trazado_818424" data-name="Trazado 818424" d="M361.875,193.582a21.135,21.135,0,0,1,2.008-2.439,23.462,23.462,0,0,1,5.662-5.186,54.623,54.623,0,0,0,6.363-4.091,30.012,30.012,0,0,0,2.169-2.232,5.656,5.656,0,0,1-1.821,2.621,37.6,37.6,0,0,1-6.318,4.327,28.478,28.478,0,0,0-5.672,4.914,9.97,9.97,0,0,1-2.392,2.086" transform="translate(-37.733 -18.731)" fill="#eb996e"/>
            <path id="Trazado_818425" data-name="Trazado 818425" d="M357.081,186.2c-.144-.144,2.7-3.22,6.361-6.869,1.836-1.8,3.41-3.543,4.765-4.611a5.731,5.731,0,0,1,2.385-1.409c.053.1-.836.64-2.041,1.8-1.226,1.132-2.732,2.924-4.588,4.741-3.656,3.649-6.738,6.49-6.882,6.346" transform="translate(-37.233 -18.07)" fill="#eb996e"/>
            <path id="Trazado_818426" data-name="Trazado 818426" d="M358.71,171.68c-.146-.185,1.614-1.581,3.566-3.441,1.987-1.848,2.955-3.822,3.143-3.75.211.047-.545,2.339-2.626,4.278-2.031,1.932-3.979,3.05-4.083,2.913" transform="translate(-37.403 -17.152)" fill="#eb996e"/>
            <path id="Trazado_818427" data-name="Trazado 818427" d="M356.86,155.752a1.956,1.956,0,0,1-.079.444c-.08.331-.181.748-.305,1.266-.3,1.163-.717,2.777-1.249,4.831l-.012.046-.039.034c-.9.787-1.9,1.692-2.988,2.715a26.536,26.536,0,0,0-3.309,3.535,1.849,1.849,0,0,0-.336,1.123,1.776,1.776,0,0,0,.6,1.047,11.989,11.989,0,0,0,1.092.9,1.65,1.65,0,0,0,1.235.245,23.724,23.724,0,0,0,6.012-1.864l1.434-.593-1.106,1.082c-1.4,1.369-2.892,2.826-4.436,4.334l.067-.095a5.659,5.659,0,0,0-.228,4.508,12.584,12.584,0,0,0,3.51,3.578l.3.227-.243.287c-.968,1.144-1.654,2.953-.388,4.069a16.472,16.472,0,0,0,4.2,2.875l-.521.289.007-.087s0-.04,0-.024v.006c.092.107-.207-.257.212.315,1-.472.289-.194.507-.272h0v.005l-.007.169,0,.363a6.888,6.888,0,0,0,.067.73,5.694,5.694,0,0,0,.385,1.4,3.716,3.716,0,0,0,.787,1.18,2.2,2.2,0,0,0,1.15.66,6.994,6.994,0,0,0,2.932-.578,26.056,26.056,0,0,0,2.912-1.309,47.973,47.973,0,0,0,5.181-3.134,30.2,30.2,0,0,0,4.532-3.719,3.67,3.67,0,0,0,1.177-2.332,5.672,5.672,0,0,0-.477-2.61,14.84,14.84,0,0,0-3.05-4.432l-.11-.116.008-.171a5.581,5.581,0,0,0-.262-2.547,3.781,3.781,0,0,0-1.561-1.846,8.351,8.351,0,0,0-4.782-.915l-.446.029.107-.44c.117-.485.256-.962.356-1.439a8.066,8.066,0,0,0,.111-1.425,3.959,3.959,0,0,0-.8-2.522,5.816,5.816,0,0,0-4.617-1.807h-.52l.278-.422a43.112,43.112,0,0,0,2.5-4.074,5.985,5.985,0,0,0,.635-2.017,3.308,3.308,0,0,0-.4-1.878,8.383,8.383,0,0,0-2.438-2.65,3.582,3.582,0,0,0-2.9-.3,9.708,9.708,0,0,0-3.607,2.258c-.366.333-.626.609-.806.79a1.759,1.759,0,0,1-.279.268,1.248,1.248,0,0,1,.219-.321,10.67,10.67,0,0,1,.757-.849,11.791,11.791,0,0,1,1.39-1.226,7.385,7.385,0,0,1,2.239-1.209,3.9,3.9,0,0,1,3.174.268l.743.543.671.642a7.654,7.654,0,0,1,1.218,1.577,3.744,3.744,0,0,1,.477,2.12,6.409,6.409,0,0,1-.653,2.194,42.756,42.756,0,0,1-2.485,4.159l-.242-.42a8.1,8.1,0,0,1,2.7.385,5,5,0,0,1,2.41,1.6,4.56,4.56,0,0,1,.949,2.873,8.72,8.72,0,0,1-.11,1.547c-.1.507-.242,1.009-.365,1.522l-.339-.411a8.927,8.927,0,0,1,5.2.979,4.456,4.456,0,0,1,1.847,2.165,6.256,6.256,0,0,1,.317,2.875l-.1-.287a15.448,15.448,0,0,1,3.224,4.656,6.36,6.36,0,0,1,.536,2.951,4.574,4.574,0,0,1-.431,1.516,6.618,6.618,0,0,1-.932,1.243,30.712,30.712,0,0,1-4.643,3.827,48.281,48.281,0,0,1-5.262,3.186,26.674,26.674,0,0,1-2.994,1.344,7.538,7.538,0,0,1-3.294.613,3.66,3.66,0,0,1-2.5-2.279,6.368,6.368,0,0,1-.434-1.588,7.414,7.414,0,0,1-.073-.808l0-.408.011-.214,0-.042,0-.012c.218-.08-.492.2.51-.278.42.569.121.206.213.316v.03l0,.072-.009.1-.049.541-.473-.252a17.025,17.025,0,0,1-4.407-3.045,3.454,3.454,0,0,1-.754-1.208,2.855,2.855,0,0,1-.061-1.431,5.489,5.489,0,0,1,1.21-2.37l.058.512a13.077,13.077,0,0,1-3.706-3.838,4.712,4.712,0,0,1-.409-2.63,8.341,8.341,0,0,1,.653-2.453l.022-.051.046-.045,4.466-4.3.327.488a23.892,23.892,0,0,1-6.21,1.854,2.181,2.181,0,0,1-1.6-.371,12.363,12.363,0,0,1-1.129-.957,2.264,2.264,0,0,1-.726-1.358,2.31,2.31,0,0,1,.425-1.422,25.908,25.908,0,0,1,3.437-3.577c1.111-1.009,2.135-1.894,3.052-2.666l-.05.08q.9-3.07,1.4-4.814c.157-.505.282-.911.382-1.235a1.667,1.667,0,0,1,.155-.407" transform="translate(-36.292 -15.842)" fill="#eb996e"/>
          </g>
        </g>
      </g>
    </g>
  </g>
</svg>
