<svg xmlns="http://www.w3.org/2000/svg" width="190" height="163" viewBox="0 0 190 163">
  <g id="Grupo_1071968" data-name="Grupo 1071968" transform="translate(-180 -552)">
    <rect id="Rectángulo_381468" data-name="Rectángulo 381468" width="190" height="163" transform="translate(180 552)" fill="#98d1ca"/>
    <g id="carpeta" transform="translate(195.484 566)">
      <path id="Trazado_818346" data-name="Trazado 818346" d="M161.871,132.129v13.064a2.179,2.179,0,0,1-2.177,2.177H118.323V134.306h-4.355v13.064H72.6a2.179,2.179,0,0,1-2.177-2.177V132.129H66.065v13.064a6.539,6.539,0,0,0,6.532,6.532h41.371v21.239h4.355V151.726h41.371a6.539,6.539,0,0,0,6.532-6.532V132.129h-4.355Z" transform="translate(-36.484 -97.29)" fill="#edf4ff"/>
      <path id="Trazado_818347" data-name="Trazado 818347" d="M180.557,256.452H143.167a4.355,4.355,0,0,1-3.079-1.275l-5.521-5.521a6.532,6.532,0,0,0-4.619-1.913H110.88a6.526,6.526,0,0,0-2.177.372l-2.475,6.161v54.62a6.532,6.532,0,0,0,6.532,6.532h67.8a6.532,6.532,0,0,0,6.532-6.532v-45.91A6.533,6.533,0,0,0,180.557,256.452Z" transform="translate(-66.057 -182.419)" fill="#ffe09f"/>
      <path id="Trazado_818348" data-name="Trazado 818348" d="M103.452,301.036V249.149A6.551,6.551,0,0,0,99.1,255.31v56.613a6.532,6.532,0,0,0,6.532,6.532h69.677a6.513,6.513,0,0,0,6.132-4.355H116.516a13.065,13.065,0,0,1-13.064-13.065Z" transform="translate(-60.807 -183.455)" fill="#f6d190"/>
      <path id="Trazado_818349" data-name="Trazado 818349" d="M42.193,0H26.951a2.177,2.177,0,0,0-2.177,2.177V34.839a2.177,2.177,0,0,0,2.177,2.177H50.9a2.177,2.177,0,0,0,2.177-2.177V10.887l-8.208-4.3Z" transform="translate(-6.081)" fill="#eceaec"/>
      <path id="Trazado_818350" data-name="Trazado 818350" d="M54.355,70.42H43.468a2.177,2.177,0,1,1,0-4.355H54.355a2.177,2.177,0,1,1,0,4.355Z" transform="translate(-18.243 -48.646)" fill="#6f6571"/>
      <path id="Trazado_818351" data-name="Trazado 818351" d="M54.355,103.452H43.468a2.177,2.177,0,1,1,0-4.355H54.355a2.177,2.177,0,1,1,0,4.355Z" transform="translate(-18.243 -72.968)" fill="#857e87"/>
      <circle id="Elipse_4741" data-name="Elipse 4741" cx="4.355" cy="4.355" r="4.355" transform="translate(75.306 47.903)" fill="#b6b1b7"/>
      <path id="Trazado_818352" data-name="Trazado 818352" d="M20.871,28.306V0H18.693a2.177,2.177,0,0,0-2.177,2.177V37.016a2.177,2.177,0,0,0,2.177,2.177H44.822A2.177,2.177,0,0,0,47,37.016V34.839H27.4a6.532,6.532,0,0,1-6.532-6.532Z" fill="#dad8db"/>
      <path id="Trazado_818353" data-name="Trazado 818353" d="M90.839,8.71a2.177,2.177,0,0,0,2.177,2.177h8.71L90.839,0Z" transform="translate(-54.726)" fill="#dad8db"/>
      <path id="Trazado_818354" data-name="Trazado 818354" d="M247.742,280.774H252.1v10.211h-4.355Z" transform="translate(-170.258 -206.742)" fill="#fff"/>
      <path id="Trazado_818355" data-name="Trazado 818355" d="M223.871,0H208.629a2.177,2.177,0,0,0-2.177,2.177V34.839a2.177,2.177,0,0,0,2.177,2.177h23.952a2.177,2.177,0,0,0,2.177-2.177V10.887l-8.208-4.3Z" transform="translate(-139.855)" fill="#eceaec"/>
      <path id="Trazado_818356" data-name="Trazado 818356" d="M236.032,70.42H225.145a2.177,2.177,0,0,1,0-4.355h10.887a2.177,2.177,0,0,1,0,4.355Z" transform="translate(-152.016 -48.646)" fill="#6f6571"/>
      <path id="Trazado_818357" data-name="Trazado 818357" d="M236.032,103.452H225.145a2.177,2.177,0,0,1,0-4.355h10.887a2.177,2.177,0,0,1,0,4.355Z" transform="translate(-152.016 -72.968)" fill="#857e87"/>
      <path id="Trazado_818358" data-name="Trazado 818358" d="M202.549,28.306V0h-2.177a2.177,2.177,0,0,0-2.177,2.177V37.016a2.177,2.177,0,0,0,2.177,2.177H226.5a2.177,2.177,0,0,0,2.177-2.177V34.839h-19.6a6.532,6.532,0,0,1-6.532-6.532Z" transform="translate(-133.775)" fill="#dad8db"/>
      <path id="Trazado_818359" data-name="Trazado 818359" d="M272.516,8.71a2.177,2.177,0,0,0,2.177,2.177h8.71L272.516,0Z" transform="translate(-188.5)" fill="#dad8db"/>
      <path id="Trazado_818360" data-name="Trazado 818360" d="M405.549,0H390.307a2.177,2.177,0,0,0-2.177,2.177V34.839a2.177,2.177,0,0,0,2.177,2.177h23.952a2.177,2.177,0,0,0,2.177-2.177V10.887l-8.208-4.3Z" transform="translate(-273.63)" fill="#eceaec"/>
      <path id="Trazado_818361" data-name="Trazado 818361" d="M417.71,70.42H406.823a2.177,2.177,0,1,1,0-4.355H417.71a2.177,2.177,0,0,1,0,4.355Z" transform="translate(-285.791 -48.646)" fill="#6f6571"/>
      <path id="Trazado_818362" data-name="Trazado 818362" d="M417.71,103.452H406.823a2.177,2.177,0,1,1,0-4.355H417.71a2.177,2.177,0,0,1,0,4.355Z" transform="translate(-285.791 -72.968)" fill="#857e87"/>
      <path id="Trazado_818363" data-name="Trazado 818363" d="M384.226,28.306V0h-2.177a2.177,2.177,0,0,0-2.177,2.177V37.016a2.177,2.177,0,0,0,2.177,2.177h26.129a2.177,2.177,0,0,0,2.177-2.177V34.839h-19.6a6.532,6.532,0,0,1-6.532-6.532Z" transform="translate(-267.549)" fill="#dad8db"/>
      <path id="Trazado_818364" data-name="Trazado 818364" d="M454.194,8.71a2.177,2.177,0,0,0,2.177,2.177h8.71L454.194,0Z" transform="translate(-322.275)" fill="#dad8db"/>
      <path id="Trazado_818365" data-name="Trazado 818365" d="M195.038,361.6l14.975-44.925a2.177,2.177,0,0,0-2.066-2.866H132.934a6.532,6.532,0,0,0-6.2,4.467l-11.186,33.559L115,360.923l2.339,3.56h71.5c2.772,0,5.238-.167,6.159-2.773C195.012,361.673,195.025,361.636,195.038,361.6Z" transform="translate(-72.517 -231.065)" fill="#ecbd83"/>
      <path id="Trazado_818366" data-name="Trazado 818366" d="M331.226,466.807H315.984a2.177,2.177,0,0,1,0-4.355h15.242a2.177,2.177,0,0,1,0,4.355Z" transform="translate(-218.904 -340.516)" fill="#f6d190"/>
      <path id="Trazado_818367" data-name="Trazado 818367" d="M347.742,433.774H332.5a2.177,2.177,0,0,1,0-4.355h15.242a2.177,2.177,0,0,1,0,4.355Z" transform="translate(-231.065 -316.193)" fill="#ffe09f"/>
      <path id="Trazado_818368" data-name="Trazado 818368" d="M119.361,467.9a13.043,13.043,0,0,1-12.675-9.878L102.961,469.2a6.512,6.512,0,0,0,5.513,3.058h71.5a6.538,6.538,0,0,0,6.158-4.355Z" transform="translate(-63.652 -337.254)" fill="#e2a975"/>
    </g>
  </g>
</svg>
