<svg xmlns="http://www.w3.org/2000/svg" width="102.802" height="102.802" viewBox="0 0 102.802 102.802">
  <g id="Grupo_1071919" data-name="Grupo 1071919" transform="translate(-0.5 -0.431)">
    <path id="Trazado_813500" data-name="Trazado 813500" d="M51.4,0a51.4,51.4,0,1,0,51.4,51.4A51.4,51.4,0,0,0,51.4,0Z" transform="translate(0.5 0.431)" fill="#8054f8"/>
    <g id="analitica" transform="translate(54.834 53.728)">
      <g id="Grupo_1072001" data-name="Grupo 1072001" transform="translate(-35.334 -35.298)">
        <g id="Grupo_1071996" data-name="Grupo 1071996" transform="translate(0 0)">
          <circle id="Elipse_4756" data-name="Elipse 4756" cx="12.514" cy="12.514" r="12.514" transform="translate(0 17.695) rotate(-45)" fill="#60b7ff"/>
          <circle id="Elipse_4757" data-name="Elipse 4757" cx="10.959" cy="10.959" r="10.959" transform="translate(2.199 17.695) rotate(-45)" fill="#8ac9fe"/>
          <path id="Trazado_818499" data-name="Trazado 818499" d="M112.608,112.62h12.514a12.509,12.509,0,0,1-6.256,10.839Z" transform="translate(-94.911 -94.925)" fill="#fd4755" fill-rule="evenodd"/>
          <path id="Trazado_818500" data-name="Trazado 818500" d="M112.608,112.62h10.959a10.954,10.954,0,0,1-5.479,9.492Z" transform="translate(-94.911 -94.925)" fill="#fe646f" fill-rule="evenodd"/>
          <path id="Trazado_818501" data-name="Trazado 818501" d="M125.122,20.524H112.608V8.01A12.514,12.514,0,0,1,125.122,20.524Z" transform="translate(-94.911 -2.829)" fill="#ffd064" fill-rule="evenodd"/>
          <path id="Trazado_818502" data-name="Trazado 818502" d="M123.567,31.967H112.608V21.008A10.959,10.959,0,0,1,123.567,31.967Z" transform="translate(-94.911 -14.272)" fill="#ffe177" fill-rule="evenodd"/>
        </g>
        <g id="Grupo_1071997" data-name="Grupo 1071997" transform="translate(36.138 4.85)">
          <path id="Trazado_818503" data-name="Trazado 818503" d="M268.106,5.247h3.227a1.349,1.349,0,0,1,1.347,1.347V9.821a1.349,1.349,0,0,1-1.347,1.347h-3.227a1.349,1.349,0,0,1-1.347-1.347V6.594A1.349,1.349,0,0,1,268.106,5.247Z" transform="translate(-266.759 -5.247)" fill="#8ac9fe" fill-rule="evenodd"/>
          <path id="Trazado_818504" data-name="Trazado 818504" d="M268.106,87.873h3.227a1.349,1.349,0,0,1,1.347,1.347v3.227a1.349,1.349,0,0,1-1.347,1.347h-3.227a1.349,1.349,0,0,1-1.347-1.347V89.22A1.349,1.349,0,0,1,268.106,87.873Z" transform="translate(-266.759 -77.989)" fill="#ffe177" fill-rule="evenodd"/>
          <path id="Trazado_818505" data-name="Trazado 818505" d="M268.106,170.5h3.227a1.349,1.349,0,0,1,1.347,1.347v3.227a1.349,1.349,0,0,1-1.347,1.347h-3.227a1.349,1.349,0,0,1-1.347-1.347v-3.227A1.349,1.349,0,0,1,268.106,170.5Z" transform="translate(-266.759 -150.73)" fill="#fe646f" fill-rule="evenodd"/>
        </g>
        <g id="Grupo_1071998" data-name="Grupo 1071998" transform="translate(5.184 37.078)">
          <path id="Trazado_818506" data-name="Trazado 818506" d="M198.208,348.361h3.974a1.2,1.2,0,0,1,1.2,1.2v16.227a1.2,1.2,0,0,1-1.2,1.2h-3.974a1.2,1.2,0,0,1-1.2-1.2V349.557A1.2,1.2,0,0,1,198.208,348.361Z" transform="translate(-174.402 -339.544)" fill="#ffe177" fill-rule="evenodd"/>
          <path id="Trazado_818507" data-name="Trazado 818507" d="M202.182,348.361a1.2,1.2,0,0,1,1.2,1.2v16.227a1.2,1.2,0,0,1-1.2,1.2h-3.974a1.2,1.2,0,0,1-1.2-1.2h3.974a1.2,1.2,0,0,0,1.2-1.2Z" transform="translate(-174.402 -339.544)" fill="#ffd064" fill-rule="evenodd"/>
          <path id="Trazado_818508" data-name="Trazado 818508" d="M294.793,348.361h3.974a1.2,1.2,0,0,1,1.2,1.2v16.227a1.2,1.2,0,0,1-1.2,1.2h-3.974a1.2,1.2,0,0,1-1.2-1.2V349.557A1.2,1.2,0,0,1,294.793,348.361Z" transform="translate(-259.433 -339.544)" fill="#fe646f" fill-rule="evenodd"/>
          <path id="Trazado_818509" data-name="Trazado 818509" d="M298.767,348.361a1.2,1.2,0,0,1,1.2,1.2v16.227a1.2,1.2,0,0,1-1.2,1.2h-3.974a1.2,1.2,0,0,1-1.2-1.2h3.974a1.2,1.2,0,0,0,1.2-1.2Z" transform="translate(-259.433 -339.544)" fill="#fd4755" fill-rule="evenodd"/>
          <path id="Trazado_818510" data-name="Trazado 818510" d="M9.2,321.361H13.17a1.2,1.2,0,0,1,1.2,1.2v19.457a1.2,1.2,0,0,1-1.2,1.2H9.2a1.2,1.2,0,0,1-1.2-1.2V322.557A1.2,1.2,0,0,1,9.2,321.361Z" transform="translate(-8 -315.774)" fill="#6cf5c2" fill-rule="evenodd"/>
          <path id="Trazado_818511" data-name="Trazado 818511" d="M13.17,321.361a1.2,1.2,0,0,1,1.2,1.2v19.457a1.2,1.2,0,0,1-1.2,1.2H9.2a1.2,1.2,0,0,1-1.2-1.2h3.974a1.2,1.2,0,0,0,1.2-1.2Z" transform="translate(-8 -315.774)" fill="#00e499" fill-rule="evenodd"/>
          <path id="Trazado_818512" data-name="Trazado 818512" d="M101.622,274.658H105.6a1.2,1.2,0,0,1,1.2,1.2V300.9a1.2,1.2,0,0,1-1.2,1.2h-3.974a1.2,1.2,0,0,1-1.2-1.2V275.854A1.2,1.2,0,0,1,101.622,274.658Z" transform="translate(-89.37 -274.658)" fill="#8ac9fe" fill-rule="evenodd"/>
          <path id="Trazado_818513" data-name="Trazado 818513" d="M105.6,274.658a1.2,1.2,0,0,1,1.2,1.2V300.9a1.2,1.2,0,0,1-1.2,1.2h-3.974a1.2,1.2,0,0,1-1.2-1.2H104.4a1.2,1.2,0,0,0,1.2-1.2Z" transform="translate(-89.37 -274.658)" fill="#60b7ff" fill-rule="evenodd"/>
        </g>
        <g id="Grupo_1071999" data-name="Grupo 1071999" transform="translate(24.3 23.047)">
          <path id="Trazado_818514" data-name="Trazado 818514" d="M375.312,354.862a12.391,12.391,0,0,1-2.091,2.3l5.686,5.574,2.165-2.231Z" transform="translate(-348.648 -331.236)" fill="#a79ba7" fill-rule="evenodd"/>
          <path id="Trazado_818515" data-name="Trazado 818515" d="M386.468,354.541a1.428,1.428,0,0,1-.619.83l5.648,5.611.692-.758Z" transform="translate(-359.765 -330.954)" fill="#837683" fill-rule="evenodd"/>
          <path id="Trazado_818516" data-name="Trazado 818516" d="M417,400.352l2.443-2.518a1.124,1.124,0,0,0-.024-1.584l-6.767-6.566a1.124,1.124,0,0,0-1.584.024l-2.443,2.518a1.123,1.123,0,0,0,.024,1.584l6.767,6.566A1.123,1.123,0,0,0,417,400.352Z" transform="translate(-379.536 -361.616)" fill="#f1ba84" fill-rule="evenodd"/>
          <path id="Trazado_818517" data-name="Trazado 818517" d="M434.177,389.683l6.767,6.566a1.123,1.123,0,0,1,.024,1.584l-2.443,2.518a1.111,1.111,0,0,1-.3.222,1.125,1.125,0,0,0,1.3-.222l2.443-2.518a1.123,1.123,0,0,0-.024-1.584l-6.767-6.566a1.125,1.125,0,0,0-1.281-.2A1.114,1.114,0,0,1,434.177,389.683Z" transform="translate(-402.065 -361.615)" fill="#e3a76f" fill-rule="evenodd"/>
          <circle id="Elipse_4758" data-name="Elipse 4758" cx="12.322" cy="12.322" r="12.322" transform="translate(0 17.423) rotate(-45)" fill="#eceff1"/>
          <path id="Trazado_818518" data-name="Trazado 818518" d="M309.112,200a12.322,12.322,0,1,1,0,24.643q-.3,0-.6-.015a12.322,12.322,0,0,0,0-24.614Q308.811,200,309.112,200Z" transform="translate(-291.681 -194.903)" fill="#d1d1d6" fill-rule="evenodd"/>
        </g>
        <g id="Grupo_1072000" data-name="Grupo 1072000" transform="translate(32.759 31.497)">
          <circle id="Elipse_4759" data-name="Elipse 4759" cx="8.972" cy="8.972" r="8.972" transform="translate(0 0)" fill="#837683"/>
          <path id="Trazado_818519" data-name="Trazado 818519" d="M315.019,236.977a8.973,8.973,0,0,1-8.174,8.937q.394.035.8.035a9.052,9.052,0,0,0,1.284-.091l.162-.025a8.973,8.973,0,0,0-1.446-17.828q-.4,0-.8.035A8.973,8.973,0,0,1,315.019,236.977Z" transform="translate(-298.671 -228.005)" fill="#685e68" fill-rule="evenodd"/>
          <path id="Trazado_818520" data-name="Trazado 818520" d="M267.666,310.239a6.268,6.268,0,0,0-6.23,5.591,8.942,8.942,0,0,0,6.23,2.515,9.052,9.052,0,0,0,1.284-.091,8.944,8.944,0,0,0,4.945-2.424A6.266,6.266,0,0,0,267.666,310.239Z" transform="translate(-258.694 -300.402)" fill="#8ac9fe" fill-rule="evenodd"/>
          <path id="Trazado_818521" data-name="Trazado 818521" d="M306.847,310.289c3.729.474,5.232,3.3,5.578,6.678a9,9,0,0,0,1.449-1.137,6.266,6.266,0,0,0-6.229-5.591A6.336,6.336,0,0,0,306.847,310.289Z" transform="translate(-298.673 -300.402)" fill="#60b7ff" fill-rule="evenodd"/>
          <circle id="Elipse_4760" data-name="Elipse 4760" cx="3.168" cy="3.168" r="3.168" transform="translate(5.804 3.028)" fill="#f6dccd"/>
          <path id="Trazado_818522" data-name="Trazado 818522" d="M312.95,256.486a3.168,3.168,0,0,1-2.769,3.143,3.207,3.207,0,0,0,.4.025,3.168,3.168,0,0,0,0-6.336,3.2,3.2,0,0,0-.4.025A3.168,3.168,0,0,1,312.95,256.486Z" transform="translate(-301.608 -250.29)" fill="#f1cbbc" fill-rule="evenodd"/>
        </g>
      </g>
      <path id="Trazado_818523" data-name="Trazado 818523" d="M29.485,36.255a7.966,7.966,0,0,0,1.323,4.4A7.2,7.2,0,0,1,34.523,36.8a4.124,4.124,0,1,1,5.956,0,7.208,7.208,0,0,1,3.714,3.857,8.013,8.013,0,1,0-14.708-4.4Zm8.015-.092a2.211,2.211,0,1,1,2.211-2.211A2.213,2.213,0,0,1,37.5,36.163Zm0,8.107a7.977,7.977,0,0,1-5.2-1.928,5.309,5.309,0,0,1,10.411,0A7.981,7.981,0,0,1,37.5,44.27Zm-9.929-8.015A9.929,9.929,0,1,1,37.5,46.184,9.941,9.941,0,0,1,27.572,36.255ZM17.421,33.82H12.968V59.342h4.453Zm1.914-.957V60.3a.958.958,0,0,1-.957.957H12.011a.957.957,0,0,1-.957-.957V32.863a.957.957,0,0,1,.957-.957h6.366a.957.957,0,0,1,.957.957Zm39.948,21.29-6.767-6.566a.157.157,0,0,0-.112-.045h0a.161.161,0,0,0-.115.048l-2.443,2.518a.168.168,0,0,0,0,.231l6.766,6.566a.169.169,0,0,0,.231,0l2.444-2.518A.168.168,0,0,0,59.282,54.153ZM40.528,49.185a13.309,13.309,0,0,1-4.452.271v9.886h4.452Zm-11.555-2.76a13.374,13.374,0,0,1-3.114-3.788H24.521V59.342h4.452Zm-2.837-10.17A11.365,11.365,0,1,1,37.5,47.619,11.378,11.378,0,0,1,26.136,36.255Zm7.058-12.562a13.187,13.187,0,0,1,3.346-.682V21.691H33.195ZM47.7,44.751c-.255.306-.524.6-.805.883l2.382,2.312.832-.857ZM60.66,55.717l-2.442,2.518a2.08,2.08,0,0,1-2.938.044l-6.766-6.566a2.081,2.081,0,0,1-.47-2.294l-2.6-2.527a13.272,13.272,0,0,1-3,1.687V60.3a.958.958,0,0,1-.957.957H35.119a.957.957,0,0,1-.957-.957V49.108a13.177,13.177,0,0,1-3.274-1.341V60.3a.957.957,0,0,1-.957.957H23.564a.957.957,0,0,1-.957-.957V41.68a.957.957,0,0,1,.957-.957H25a13.278,13.278,0,0,1,6.285-16.2V20.734a.957.957,0,0,1,.957-.957H37.5a.957.957,0,0,1,.957.957v2.277a13.176,13.176,0,0,1,5.044,1.4h7.531a.957.957,0,1,1,0,1.914H46.306a13.257,13.257,0,0,1,2.52,16.856l2.715,2.635a2.083,2.083,0,0,1,2.308.4l6.766,6.566a2.079,2.079,0,0,1,.044,2.937Zm-54.3-16.31H1.911V59.342H6.364Zm1.914-.957V60.3a.957.957,0,0,1-.957.957H.954A.957.957,0,0,1,0,60.3V38.45a.957.957,0,0,1,.957-.957H7.321a.957.957,0,0,1,.957.957Zm24.917-23.3h3.346V11.807H33.195Zm-1.914.957V10.85a.957.957,0,0,1,.957-.957H37.5a.957.957,0,0,1,.957.957v5.26a.957.957,0,0,1-.957.957h-5.26A.957.957,0,0,1,31.281,16.11Zm10.493.331h9.257a.957.957,0,0,0,0-1.914H41.774a.957.957,0,0,0,0,1.914Zm0-4.007H60.288a.957.957,0,0,0,0-1.914H41.774a.957.957,0,0,0,0,1.914ZM33.195,5.268h3.346V1.923H33.195Zm-1.914.957V.966a.957.957,0,0,1,.957-.957H37.5a.957.957,0,0,1,.957.957V6.225a.957.957,0,0,1-.957.957h-5.26A.957.957,0,0,1,31.281,6.225Zm10.493.331h9.257a.957.957,0,1,0,0-1.914H41.774a.957.957,0,0,0,0,1.914Zm0-4.006H60.288a.957.957,0,1,0,0-1.914H41.774a.957.957,0,0,0,0,1.914ZM1.911,13.48A11.556,11.556,0,0,0,18.479,23.893l-5.837-9.928a.965.965,0,0,1-.131-.485V1.963A11.573,11.573,0,0,0,1.911,13.48ZM14.425,1.963A11.578,11.578,0,0,1,24.986,12.528l-10.561,0ZM24.984,14.442l-9.844,0,4.987,8.482a11.559,11.559,0,0,0,4.856-8.478ZM0,13.48A13.471,13.471,0,1,0,13.468.009,13.487,13.487,0,0,0,0,13.48ZM40.818,21.36a.957.957,0,0,0,.957.957H60.288a.957.957,0,1,0,0-1.914H41.774A.957.957,0,0,0,40.818,21.36Z" transform="translate(-31.105 -31.083)" fill-rule="evenodd"/>
    </g>
  </g>
</svg>
