<svg xmlns="http://www.w3.org/2000/svg" width="295" height="262.873" viewBox="0 0 295 262.873">
  <g id="Grupo_1071916" data-name="Grupo 1071916" transform="translate(0 0)">
    <rect id="web-AdobeStock_200818697" width="272.714" height="246.831" rx="13" transform="translate(0 0)" fill="#ece5fe"/>
    <g id="gestion-de-proyectos_1_" data-name="gestion-de-proyectos (1)" transform="translate(-0.497 -0.627)">
      <path id="Trazado_818437" data-name="Trazado 818437" d="M76.833,218.034H237.424a8.808,8.808,0,0,0,8.808-8.808V47.167H107.659L76.833,77.993Z" transform="translate(-28.729 -12.125)" fill="#f1e8dc"/>
      <circle id="Elipse_4744" data-name="Elipse 4744" cx="3.303" cy="3.303" r="3.303" transform="translate(192.078 43.629)" fill="#9a99a1"/>
      <circle id="Elipse_4745" data-name="Elipse 4745" cx="3.303" cy="3.303" r="3.303" transform="translate(157.288 43.629)" fill="#9a99a1"/>
      <circle id="Elipse_4746" data-name="Elipse 4746" cx="3.303" cy="3.303" r="3.303" transform="translate(122.498 43.629)" fill="#9a99a1"/>
      <circle id="Elipse_4747" data-name="Elipse 4747" cx="3.303" cy="3.303" r="3.303" transform="translate(87.708 43.629)" fill="#9a99a1"/>
      <path id="Trazado_818438" data-name="Trazado 818438" d="M0,0H22.9V13.211a2.2,2.2,0,0,1-2.2,2.2H2.2a2.2,2.2,0,0,1-2.2-2.2Z" transform="translate(147.223 105.816) rotate(90)" fill="#54c1ed"/>
      <path id="Trazado_818439" data-name="Trazado 818439" d="M2.2,0H55.488a2.2,2.2,0,0,1,2.2,2.2V15.413H2.2a2.2,2.2,0,0,1-2.2-2.2V2.2A2.2,2.2,0,0,1,2.2,0Z" transform="translate(193.463 71.026) rotate(90)" fill="#f4644d"/>
      <path id="Trazado_818440" data-name="Trazado 818440" d="M0,0H34.35V15.413H2.2a2.2,2.2,0,0,1-2.2-2.2Z" transform="translate(162.636 94.366) rotate(90)" fill="#8bc932"/>
      <path id="Trazado_818441" data-name="Trazado 818441" d="M0,0H46.24V15.413H2.2a2.2,2.2,0,0,1-2.2-2.2Z" transform="translate(178.05 82.476) rotate(90)" fill="#f9d36b"/>
      <path id="Trazado_818442" data-name="Trazado 818442" d="M98.849,240.422H76.83V100.381L90.041,87.17V231.614a8.811,8.811,0,0,0,8.808,8.808Z" transform="translate(-28.727 -34.512)" fill="#efdbc6"/>
      <path id="Trazado_818443" data-name="Trazado 818443" d="M76.833,77.994H98.852a8.808,8.808,0,0,0,8.808-8.808V47.168Z" transform="translate(-28.729 -12.126)" fill="#e5cfbd"/>
      <g id="Grupo_1071993" data-name="Grupo 1071993" transform="translate(65.147 78.638)">
        <path id="Trazado_818444" data-name="Trazado 818444" d="M167.278,186.774H118.837a3.3,3.3,0,1,1,0-6.606h48.442a3.3,3.3,0,0,1,0,6.606Z" transform="translate(-115.534 -165.193)" fill="#9a99a1"/>
        <path id="Trazado_818445" data-name="Trazado 818445" d="M176.792,220.775H159.558a3.3,3.3,0,0,1,0-6.606h17.234a3.3,3.3,0,0,1,0,6.606Z" transform="translate(-138.322 -184.221)" fill="#9a99a1"/>
        <path id="Trazado_818446" data-name="Trazado 818446" d="M126.544,220.775h-7.707a3.3,3.3,0,0,1,0-6.606h7.707a3.3,3.3,0,0,1,0,6.606Z" transform="translate(-115.535 -184.221)" fill="#9a99a1"/>
        <path id="Trazado_818447" data-name="Trazado 818447" d="M182.948,152.77H146.837a3.3,3.3,0,1,1,0-6.606h36.111a3.3,3.3,0,0,1,0,6.606Z" transform="translate(-131.203 -146.164)" fill="#9a99a1"/>
        <circle id="Elipse_4748" data-name="Elipse 4748" cx="3.303" cy="3.303" r="3.303" transform="translate(3.303 0.002)" fill="#9a99a1"/>
        <circle id="Elipse_4749" data-name="Elipse 4749" cx="3.303" cy="3.303" r="3.303" transform="translate(45.139 29.947)" fill="#9a99a1"/>
        <path id="Trazado_818448" data-name="Trazado 818448" d="M331.154,346.606H282.713a3.3,3.3,0,0,1,0-6.606h48.442a3.3,3.3,0,0,1,0,6.606Z" transform="translate(-207.243 -254.639)" fill="#9a99a1"/>
        <path id="Trazado_818449" data-name="Trazado 818449" d="M340.668,380.606H323.435a3.3,3.3,0,1,1,0-6.606h17.233a3.3,3.3,0,0,1,0,6.606Z" transform="translate(-230.031 -273.666)" fill="#9a99a1"/>
        <path id="Trazado_818450" data-name="Trazado 818450" d="M290.42,380.606h-7.707a3.3,3.3,0,1,1,0-6.606h7.707a3.3,3.3,0,1,1,0,6.606Z" transform="translate(-207.243 -273.666)" fill="#9a99a1"/>
        <path id="Trazado_818451" data-name="Trazado 818451" d="M346.824,312.606H310.713a3.3,3.3,0,0,1,0-6.606h36.111a3.3,3.3,0,1,1,0,6.606Z" transform="translate(-222.912 -235.612)" fill="#9a99a1"/>
        <circle id="Elipse_4750" data-name="Elipse 4750" cx="3.303" cy="3.303" r="3.303" transform="translate(75.47 70.387)" fill="#9a99a1"/>
        <circle id="Elipse_4751" data-name="Elipse 4751" cx="3.303" cy="3.303" r="3.303" transform="translate(117.306 100.335)" fill="#9a99a1"/>
      </g>
      <path id="Trazado_818452" data-name="Trazado 818452" d="M128.987,309.757V296.728a4.4,4.4,0,0,0-4-4.386l-9.718-.884a39.36,39.36,0,0,0-2.812-6.76l6.253-7.5a4.4,4.4,0,0,0-.269-5.933l-9.213-9.213a4.4,4.4,0,0,0-5.933-.269l-7.5,6.253a39.363,39.363,0,0,0-6.76-2.812l-.884-9.718a4.4,4.4,0,0,0-4.386-4H70.728a4.4,4.4,0,0,0-4.386,4l-.884,9.718a39.36,39.36,0,0,0-6.76,2.812l-7.5-6.253a4.4,4.4,0,0,0-5.933.269l-9.213,9.213a4.4,4.4,0,0,0-.269,5.933l6.253,7.5a39.362,39.362,0,0,0-2.812,6.76l-9.718.884a4.4,4.4,0,0,0-4,4.386v13.029a4.4,4.4,0,0,0,4,4.386l9.718.884a39.362,39.362,0,0,0,2.812,6.76l-6.253,7.5a4.4,4.4,0,0,0,.269,5.933l9.213,9.213a4.4,4.4,0,0,0,5.933.269l7.5-6.253a39.366,39.366,0,0,0,6.76,2.812l.884,9.718a4.4,4.4,0,0,0,4.386,4H83.757a4.4,4.4,0,0,0,4.386-4l.884-9.718a39.36,39.36,0,0,0,6.76-2.812l7.5,6.253a4.4,4.4,0,0,0,5.933-.269l9.213-9.213a4.4,4.4,0,0,0,.269-5.933l-6.253-7.5a39.362,39.362,0,0,0,2.812-6.76l9.718-.884a4.4,4.4,0,0,0,4-4.386ZM77.243,321.974a18.731,18.731,0,1,1,18.731-18.731A18.731,18.731,0,0,1,77.243,321.974Z" transform="translate(0 -126.473)" fill="#46bee8"/>
      <path id="Trazado_818453" data-name="Trazado 818453" d="M57.029,273.812l-9.217,9.217a4.4,4.4,0,0,0-.269,5.932l6.253,7.5A39.949,39.949,0,0,1,70.461,279.8l-7.5-6.253a4.4,4.4,0,0,0-5.932.269Z" transform="translate(-11.767 -138.239)" fill="#17afde"/>
      <path id="Trazado_818454" data-name="Trazado 818454" d="M53.8,411.12l-6.253,7.5a4.4,4.4,0,0,0,.269,5.932l9.217,9.213a4.4,4.4,0,0,0,5.932.273l7.5-6.253A39.949,39.949,0,0,1,53.8,411.12Z" transform="translate(-11.767 -215.801)" fill="#17afde"/>
      <path id="Trazado_818455" data-name="Trazado 818455" d="M37.434,354.025a39.782,39.782,0,0,1,1.779-11.785l-9.71.885a4.4,4.4,0,0,0-4,4.386v13.026a4.4,4.4,0,0,0,4,4.386l9.71.885a39.782,39.782,0,0,1-1.779-11.785Z" transform="translate(-0.002 -177.255)" fill="#17afde"/>
      <path id="Trazado_818456" data-name="Trazado 818456" d="M112.221,314a24.221,24.221,0,1,0,24.221,24.221A24.221,24.221,0,0,0,112.221,314Zm0,35.23a11.009,11.009,0,1,1,11.009-11.009A11.01,11.01,0,0,1,112.221,349.23Z" transform="translate(-34.978 -161.451)" fill="#17afde"/>
      <path id="Trazado_818457" data-name="Trazado 818457" d="M436.5,100.5v90.844l9.013,19.365a2.2,2.2,0,0,0,3.992,0l9.013-19.365V100.5Z" transform="translate(-230.006 -41.972)" fill="#ffb155"/>
      <path id="Trazado_818458" data-name="Trazado 818458" d="M458.519,45.317H436.5V36.509a11.009,11.009,0,1,1,22.019,0Z" transform="translate(-230.006)" fill="#f4644d" fill-rule="evenodd"/>
      <path id="Trazado_818459" data-name="Trazado 818459" d="M436.5,70.5h22.019V83.711H436.5Z" transform="translate(-230.006 -25.183)" fill="#e6f0f6"/>
      <path id="Trazado_818460" data-name="Trazado 818460" d="M436.5,70.5h8.808V83.711H436.5Z" transform="translate(-230.006 -25.183)" fill="#aacfe2"/>
      <path id="Trazado_818461" data-name="Trazado 818461" d="M451.913,205.535l-2.409,5.174a2.2,2.2,0,0,1-3.99,0L436.5,191.346V100.5h8.808v90.846Z" transform="translate(-230.006 -41.972)" fill="#f19b40"/>
      <path id="Trazado_818462" data-name="Trazado 818462" d="M445.308,26V45.6H436.5V36.789A11.013,11.013,0,0,1,445.307,26Z" transform="translate(-230.006 -0.28)" fill="#e8533a" fill-rule="evenodd"/>
    </g>
    <path id="Sustracci贸n_1" data-name="Sustracci贸n 1" d="M116.486,58.9H0v-.365a59.23,59.23,0,0,1,1.183-11.8A58.474,58.474,0,0,1,35.574,4.6a58.069,58.069,0,0,1,45.34,0,58.251,58.251,0,0,1,9.894,5.393,58.552,58.552,0,0,1,25.68,48.539c0,.12,0,.239,0,.355v.01Z" transform="translate(0 203.976)" fill="#8054f8"/>
    <g id="Grupo_1071549" data-name="Grupo 1071549" transform="translate(243.527 0)">
      <path id="Sustracci贸n_2" data-name="Sustracci贸n 2" d="M103.065,0H0V.323A51.124,51.124,0,0,0,1.048,10.631a50.569,50.569,0,0,0,3,9.6A50.975,50.975,0,0,0,8.8,28.923a51.539,51.539,0,0,0,6.294,7.569,51.823,51.823,0,0,0,7.627,6.245,51.5,51.5,0,0,0,8.753,4.716,51.518,51.518,0,0,0,9.676,2.981,52.155,52.155,0,0,0,10.384,1.039,52.124,52.124,0,0,0,10.386-1.039,51.324,51.324,0,0,0,9.675-2.981,51.578,51.578,0,0,0,8.753-4.716,51.843,51.843,0,0,0,7.626-6.245,51.66,51.66,0,0,0,6.294-7.569,50.832,50.832,0,0,0,4.749-8.689,50.583,50.583,0,0,0,3.007-9.6A51.157,51.157,0,0,0,103.068.323c0-.106,0-.211,0-.315V0Z" transform="translate(51.473 28.737) rotate(90)" fill="#d8dcfc"/>
      <path id="Trazado_818001" data-name="Trazado 818001" d="M345.794,448.2a3.777,3.777,0,0,1-1.11,2.679l-3.835,3.834,3.835,3.834a3.79,3.79,0,0,1-5.359,5.359l-3.834-3.834-3.834,3.834a3.789,3.789,0,0,1-5.358-5.359l3.834-3.834-3.834-3.834a3.789,3.789,0,0,1,0-5.358h0a3.789,3.789,0,0,1,5.358,0l3.834,3.834,3.834-3.834a3.791,3.791,0,0,1,5.359,0h0a3.777,3.777,0,0,1,1.11,2.679Z" transform="translate(-294.321 -444.408)" fill="#8054f8"/>
    </g>
  </g>
</svg>
