<svg xmlns="http://www.w3.org/2000/svg" xmlns:xlink="http://www.w3.org/1999/xlink" width="500" height="132" viewBox="0 0 500 132">
  <defs>
    <clipPath id="clip-path">
      <path id="path4158" d="M0-682.665H81.335v81.335H0Z" transform="translate(0 682.665)"/>
    </clipPath>
  </defs>
  <g id="Grupo_1076074" data-name="Grupo 1076074" transform="translate(-288 -1886)">
    <g id="Grupo_1076072" data-name="Grupo 1076072">
      <g id="Grupo_1072221" data-name="Grupo 1072221">
        <rect id="Rectángulo_375740" data-name="Rectángulo 375740" width="156" height="132" rx="10" transform="translate(460 1886)" fill="#fff"/>
        <text id="León" transform="translate(519 2007)" fill="#12263f" font-size="16" font-family="Roboto-Bold, Roboto" font-weight="700"><tspan x="0" y="0">León</tspan></text>
        <g id="leon" transform="translate(491.999 1901)">
          <path id="Trazado_818601" data-name="Trazado 818601" d="M45.5,2.263a2.93,2.93,0,0,0,1.488-.408A14.3,14.3,0,0,1,54.308,0,25.945,25.945,0,0,1,66.05,2.936L63.115,5.871a33.627,33.627,0,0,1,8.419,3.161c12.187,6.386,18,20.323,18,20.323H83.663C91,41.1,91,57.243,91,57.243l-4.4-1.468s0,13.21-5.871,22.016l-4.4-2.936A38.571,38.571,0,0,1,64.582,86.6l-2.936-2.936S54.308,89.534,45.5,91c-8.807-1.468-16.145-7.339-16.145-7.339L26.421,86.6A38.571,38.571,0,0,1,14.678,74.856l-4.4,2.936C4.4,68.985,4.4,55.775,4.4,55.775L0,57.243S0,41.1,7.34,29.355H1.469s5.813-13.937,18-20.323a33.627,33.627,0,0,1,8.419-3.161L24.953,2.936A25.944,25.944,0,0,1,36.7,0a14.3,14.3,0,0,1,7.317,1.855,2.93,2.93,0,0,0,1.488.408" fill="#d26437"/>
          <path id="Trazado_818602" data-name="Trazado 818602" d="M33.277,16.188S37.521,7.522,44.663,2.129a2.951,2.951,0,0,1-.65-.274A14.3,14.3,0,0,0,36.7,0,25.945,25.945,0,0,0,24.953,2.936l2.936,2.936a33.627,33.627,0,0,0-8.419,3.161c-12.187,6.386-18,20.323-18,20.323H7.34C0,41.1,0,57.243,0,57.243l4.4-1.468s0,13.21,5.871,22.016l4.4-2.936A38.571,38.571,0,0,0,26.421,86.6l2.936-2.936S36.695,89.534,45.5,91C45.5,91,34.86,86.6,33.277,16.188Z" fill="#b44632"/>
          <path id="Trazado_818603" data-name="Trazado 818603" d="M336.887,49.648a5.305,5.305,0,0,1,6.322,5.672c-.416,4.373-3.63,12.086-8.033,16.627L321.033,57.713C326.452,53.411,333.183,50.367,336.887,49.648Z" transform="translate(-263.973 -40.742)" fill="#ebaf4b"/>
          <path id="Trazado_818604" data-name="Trazado 818604" d="M342.607,79.387c4.507-3.445,11.169-7.977,13.014-8.162,2.121-.213,3.443,2.712,2.614,5.869-.72,2.741-3.466,7.769-6.2,11.783Z" transform="translate(-281.712 -58.557)" fill="#e18c46"/>
          <path id="Trazado_818605" data-name="Trazado 818605" d="M72.412,49.648a5.305,5.305,0,0,0-6.322,5.672c.416,4.373,3.63,12.086,8.033,16.627L88.266,57.713C82.847,53.411,76.116,50.367,72.412,49.648Z" transform="translate(-54.323 -40.742)" fill="#ebaf4b"/>
          <path id="Trazado_818606" data-name="Trazado 818606" d="M95.936,79.387c-4.507-3.445-11.169-7.977-13.014-8.162-2.121-.213-3.443,2.712-2.614,5.869.72,2.741,3.466,7.769,6.2,11.783Z" transform="translate(-65.827 -58.557)" fill="#e18c46"/>
          <path id="Trazado_818607" data-name="Trazado 818607" d="M122.638,92.394c-5.793-4.506-17.613,2.935-17.613,2.935S93.2,87.888,87.412,92.394c-13.21,10.274-16.145,39.63-14.678,45.5,1.068,4.272,10.274,11.742,20.549,14.678h23.484c10.274-2.936,19.481-10.406,20.549-14.678C138.783,132.023,135.848,102.668,122.638,92.394Z" transform="translate(-59.523 -74.781)" fill="#ffc850"/>
          <path id="Trazado_818608" data-name="Trazado 818608" d="M81.783,146.594c-1.127-7.04,1.539-38.274,11.017-55.585a7.949,7.949,0,0,0-5.388,1.425c-13.21,10.274-16.145,39.63-14.678,45.5.643,2.572,4.246,6.3,9.245,9.5C81.9,147.15,81.826,146.862,81.783,146.594Z" transform="translate(-59.523 -74.821)" fill="#ebaf4b"/>
          <path id="Trazado_818609" data-name="Trazado 818609" d="M137.321,309.271c-1.068,4.272-10.274,11.742-20.549,14.678H93.288c-10.274-2.935-19.481-10.406-20.549-14.678a9.04,9.04,0,0,1-.169-.958,31.192,31.192,0,0,0,.169,8.315c1.068,4.272,10.274,11.742,20.549,14.678h23.484c10.274-2.935,19.481-10.406,20.549-14.678a31.192,31.192,0,0,0,.169-8.315A9.01,9.01,0,0,1,137.321,309.271Z" transform="translate(-59.529 -253.514)" fill="#faebc8"/>
          <path id="Trazado_818610" data-name="Trazado 818610" d="M187.462,414.924a9.851,9.851,0,0,0,9.72,8.254h4.924a9.851,9.851,0,0,0,9.71-8.2L199.645,412.9Z" transform="translate(-154.142 -339.516)" fill="#f5dcb4"/>
          <path id="Trazado_818611" data-name="Trazado 818611" d="M182.591,346.839a10.423,10.423,0,0,0-8.073,3.44,10.424,10.424,0,0,0-8.073-3.44c-5.269,0-9.54,3.286-9.54,7.339s4.271,7.339,9.54,7.339a10.423,10.423,0,0,0,8.073-3.44,10.424,10.424,0,0,0,8.073,3.44c5.269,0,9.54-3.286,9.54-7.339S187.86,346.839,182.591,346.839Z" transform="translate(-129.016 -285.193)" fill="#faebc8"/>
          <path id="Trazado_818612" data-name="Trazado 818612" d="M176.945,378.271a11.057,11.057,0,0,1-6.985-2.458.77.77,0,0,0-.968,0,11.051,11.051,0,0,1-6.983,2.458,11.288,11.288,0,0,1-11.235-11.316,1.468,1.468,0,1,1,2.935,0,8.349,8.349,0,0,0,8.3,8.38,8.142,8.142,0,0,0,5.147-1.813,3.687,3.687,0,0,1,4.64,0,8.15,8.15,0,0,0,5.149,1.813,8.349,8.349,0,0,0,8.3-8.38,1.468,1.468,0,0,1,2.936,0A11.288,11.288,0,0,1,176.945,378.271Z" transform="translate(-123.976 -300.527)" fill="#d4af91"/>
          <path id="Trazado_818613" data-name="Trazado 818613" d="M208.216,345.541l3.118,2.6a7.5,7.5,0,0,0,9.6,0l3.118-2.6a1.921,1.921,0,0,0-1.222-3.4H209.439A1.921,1.921,0,0,0,208.216,345.541Z" transform="translate(-170.634 -281.33)" fill="#5d5360"/>
          <path id="Trazado_818614" data-name="Trazado 818614" d="M249.211,145.693a1.467,1.467,0,0,1-1.468-1.468V132.243a1.468,1.468,0,0,1,2.935,0v11.983A1.467,1.467,0,0,1,249.211,145.693Z" transform="translate(-203.709 -107.531)" fill="#ffdc64"/>
          <path id="Trazado_818615" data-name="Trazado 818615" d="M153.049,249.758h0a4.4,4.4,0,0,1-4.4-4.4v-1.468a4.4,4.4,0,0,1,4.4-4.4h0a4.4,4.4,0,0,1,4.4,4.4v1.468A4.4,4.4,0,0,1,153.049,249.758Z" transform="translate(-122.225 -196.919)" fill="#4b3f4e"/>
          <path id="Trazado_818616" data-name="Trazado 818616" d="M173.42,239.484v5.137a2.2,2.2,0,0,0,4.4,0v-.734A4.4,4.4,0,0,0,173.42,239.484Z" transform="translate(-142.596 -196.919)" fill="#5d5360"/>
          <circle id="Elipse_4776" data-name="Elipse 4776" cx="1.468" cy="1.468" r="1.468" transform="translate(29.356 44.033)" fill="#fff"/>
          <path id="Trazado_818617" data-name="Trazado 818617" d="M318.211,249.758h0a4.4,4.4,0,0,1-4.4-4.4v-1.468a4.4,4.4,0,0,1,4.4-4.4h0a4.4,4.4,0,0,1,4.4,4.4v1.468A4.4,4.4,0,0,1,318.211,249.758Z" transform="translate(-258.032 -196.919)" fill="#4b3f4e"/>
          <path id="Trazado_818618" data-name="Trazado 818618" d="M338.582,239.484v5.137a2.2,2.2,0,1,0,4.4,0v-.734A4.4,4.4,0,0,0,338.582,239.484Z" transform="translate(-278.403 -196.919)" fill="#5d5360"/>
          <circle id="Elipse_4777" data-name="Elipse 4777" cx="1.468" cy="1.468" r="1.468" transform="translate(58.711 44.033)" fill="#fff"/>
          <path id="Trazado_818619" data-name="Trazado 818619" d="M217.016,347.916l-3.118-3.586a3.117,3.117,0,0,1-.693-2.19h-3.766a1.921,1.921,0,0,0-1.222,3.4l3.118,2.6a7.49,7.49,0,0,0,7.446,1.247A7.467,7.467,0,0,1,217.016,347.916Z" transform="translate(-170.634 -281.33)" fill="#4b3f4e"/>
          <path id="Trazado_818620" data-name="Trazado 818620" d="M72.741,309.271a9.04,9.04,0,0,1-.169-.958,31.192,31.192,0,0,0,.169,8.315c.643,2.572,4.246,6.3,9.245,9.5-.075-.286-.153-.574-.2-.842a40.155,40.155,0,0,1-.2-6.77C76.8,315.373,73.366,311.774,72.741,309.271Z" transform="translate(-59.53 -253.514)" fill="#f5dcb4"/>
        </g>
      </g>
    </g>
    <g id="Grupo_1076071" data-name="Grupo 1076071">
      <g id="Grupo_1072222" data-name="Grupo 1072222">
        <rect id="Rectángulo_375739" data-name="Rectángulo 375739" width="156" height="132" rx="10" transform="translate(288 1886)" fill="#fff"/>
        <text id="Vaca_" data-name="Vaca " transform="translate(347 2007)" fill="#12263f" font-size="16" font-family="Roboto-Bold, Roboto" font-weight="700"><tspan x="0" y="0">Vaca </tspan></text>
        <g id="g4152" transform="translate(325 2581.665)">
          <g id="g4154" transform="translate(0 -682.665)">
            <g id="g4156" clip-path="url(#clip-path)">
              <g id="g4162" transform="translate(60.982 4.841)">
                <path id="path4164" d="M-53.116-119.719-60.3-132.5c4.911-1.852,10.437-3.7,15.773-3.381a5.762,5.762,0,0,1,3.442,1.3c1.843,1.694.981,4.3-.336,6.017a25.918,25.918,0,0,1-6.286,5.469c-.41.277-5.294,3.579-5.409,3.375" transform="translate(60.3 135.912)" fill="#c6c6c6"/>
              </g>
              <g id="g4166" transform="translate(60.982 4.841)">
                <path id="path4168" d="M-116.617-35.7a5.761,5.761,0,0,1,3.442,1.3,3.52,3.52,0,0,1,.279.289c.915-1.635,1.254-3.673-.279-5.082a5.763,5.763,0,0,0-3.442-1.3c-5.336-.319-10.863,1.529-15.773,3.381l2.234,3.972c4.32-1.534,9-2.832,13.54-2.56" transform="translate(132.39 40.533)" fill="#b7b7b7"/>
              </g>
              <g id="g4170" transform="translate(0.08 4.841)">
                <path id="path4172" d="M-96.772-119.719l7.184-12.776c-4.911-1.852-10.437-3.7-15.773-3.381a5.762,5.762,0,0,0-3.442,1.3c-1.843,1.694-.981,4.3.336,6.017a25.924,25.924,0,0,0,6.286,5.469c.41.277,5.294,3.579,5.409,3.375" transform="translate(109.861 135.912)" fill="#c6c6c6"/>
              </g>
              <g id="g4174" transform="translate(0.08 4.841)">
                <path id="path4176" d="M-16.68-43.752a5.761,5.761,0,0,1,3.442-1.3C-9.011-45.3-4.666-44.194-.6-42.8l1.94-3.45c-4.911-1.852-10.437-3.7-15.774-3.381a5.761,5.761,0,0,0-3.442,1.3c-1.826,1.678-1,4.249.3,5.967a3.181,3.181,0,0,1,.9-1.381" transform="translate(18.936 49.67)" fill="#b7b7b7"/>
              </g>
              <g id="g4178" transform="translate(5.685 0)">
                <path id="path4180" d="M-515.812-281.765c0,21.048-15.618,38.111-34.884,38.111s-34.884-17.063-34.884-38.111,15.618-38.111,34.884-38.111,34.884,17.063,34.884,38.111" transform="translate(585.58 319.877)" fill="#fff8e6"/>
              </g>
              <g id="g4182" transform="translate(5.685 0)">
                <path id="path4184" d="M-108.444-288.95c0-19.094,12.853-34.908,29.622-37.68a32.154,32.154,0,0,0-9.406-1.4c-19.266,0-34.884,17.063-34.884,38.111s15.618,38.111,34.884,38.111a32.236,32.236,0,0,0,5.262-.431c-14.7-4.485-25.478-19.22-25.478-36.708" transform="translate(123.112 328.033)" fill="#fff1cf"/>
              </g>
              <g id="g4186" transform="translate(38.412 0)">
                <path id="path4188" d="M-228.359-121.946c-6.292-9.963-16.812-16.494-28.73-16.494-.466,0-.929.013-1.391.033a17.5,17.5,0,0,0-.766,5.135,17.518,17.518,0,0,0,17.524,17.512,17.489,17.489,0,0,0,13.364-6.186" transform="translate(259.246 138.44)" fill="#575757"/>
              </g>
              <g id="g4190" transform="translate(38.412 0)">
                <path id="path4192" d="M-5.664-.243a17.5,17.5,0,0,0-.766,5.135c0,.174,0,.347.008.519A32.708,32.708,0,0,1,5.132,1.127,32.224,32.224,0,0,0,.539.085L.5.079Q.239.04-.024.005L-.131-.009Q-.36-.039-.59-.065L-.74-.082Q-.949-.1-1.159-.125l-.177-.017-.4-.033L-1.927-.19-2.31-.215l-.2-.012C-2.642-.235-2.769-.24-2.9-.246L-3.1-.254c-.135-.005-.271-.008-.406-.012l-.179,0q-.292-.005-.586-.006c-.243,0-.485,0-.727.01q-.332.009-.664.023" transform="translate(6.431 0.276)" fill="#454545"/>
              </g>
              <g id="g4194" transform="translate(5.685 24.095)">
                <path id="path4196" d="M-41.333,0a17.969,17.969,0,0,0-3.261.3,41.137,41.137,0,0,0-2.33,13.717,40.4,40.4,0,0,0,6.275,21.809l.168-.063a17.891,17.891,0,0,0,17.039-17.87A17.891,17.891,0,0,0-41.333,0" transform="translate(46.924)" fill="#575757"/>
              </g>
              <g id="g4198" transform="translate(5.685 24.095)">
                <path id="path4200" d="M-108.444-110.808a41.339,41.339,0,0,1,1.6-11.45,17.813,17.813,0,0,0-10.681-3.537,17.985,17.985,0,0,0-3.261.3,41.137,41.137,0,0,0-2.33,13.717,40.4,40.4,0,0,0,6.275,21.809l.168-.063a17.826,17.826,0,0,0,11.411-4.845,40.94,40.94,0,0,1-3.185-15.929" transform="translate(123.112 125.796)" fill="#454545"/>
              </g>
              <g id="g4202" transform="translate(18.982 0.645)">
                <path id="path4204" d="M-28.321-3.844a3.3,3.3,0,0,0-2.043-.5c-1.416.205-1.849,1.713-1.781,2.948a14.823,14.823,0,0,0,1.2,4.608,30.584,30.584,0,0,0,1.465,3.336,8.014,8.014,0,0,0,7.51-3.713C-23.687.38-25.7-2.274-28.321-3.844" transform="translate(32.152 4.364)" fill="#ffd3bc"/>
              </g>
              <g id="g4206" transform="translate(18.982 0.645)">
                <path id="path4208" d="M-36.717-56.027a14.819,14.819,0,0,1-1.2-4.608A3.54,3.54,0,0,1-37.4-62.8c-.148-.1-.3-.194-.45-.285a3.3,3.3,0,0,0-2.043-.5c-1.416.205-1.849,1.713-1.781,2.948a14.823,14.823,0,0,0,1.2,4.608,30.583,30.583,0,0,0,1.465,3.336,7.439,7.439,0,0,0,3.488-.465c-.4-.871-1.119-2.675-1.2-2.871" transform="translate(41.684 63.605)" fill="#ffbe9c"/>
              </g>
              <g id="g4210" transform="translate(2.265 33.12)">
                <path id="path4212" d="M-566.38-178.233c0,13.314-17.149,24.108-38.3,24.108s-38.3-10.793-38.3-24.108,17.149-24.108,38.3-24.108,38.3,10.793,38.3,24.108" transform="translate(642.988 202.341)" fill="#ffd3bc"/>
              </g>
              <g id="g4214" transform="translate(51.972 0.645)">
                <path id="path4216" d="M-46.981-3.844a3.294,3.294,0,0,1,2.043-.5c1.416.205,1.849,1.713,1.781,2.948a14.824,14.824,0,0,1-1.2,4.608,30.553,30.553,0,0,1-1.465,3.336,8.014,8.014,0,0,1-7.51-3.713C-51.615.38-49.6-2.274-46.981-3.844" transform="translate(53.336 4.364)" fill="#ffd3bc"/>
              </g>
              <g id="g4218" transform="translate(2.265 33.393)">
                <path id="path4220" d="M-403.653-323.894c-21.155,0-38.3-10.793-38.3-24.108,0-8.14,6.411-15.337,16.226-19.7-18.41,1.755-32.52,11.757-32.52,23.834,0,13.314,17.149,24.108,38.3,24.108a54.8,54.8,0,0,0,22.077-4.406c-1.886.18-3.818.273-5.784.273" transform="translate(458.251 367.703)" fill="#ffbe9c"/>
              </g>
              <g id="g4222" transform="translate(51.972 0.645)">
                <path id="path4224" d="M-65.1-22.568a3.723,3.723,0,0,1,1.375-.492c-.042-1.138-.521-2.355-1.784-2.538a3.294,3.294,0,0,0-2.043.5c-2.621,1.57-4.634,4.224-6.355,6.682a8.952,8.952,0,0,0,2.493,2.473C-69.7-18.386-67.7-21.01-65.1-22.568" transform="translate(73.908 25.62)" fill="#ffbe9c"/>
              </g>
              <g id="g4226" transform="translate(23.708 41.737)">
                <path id="path4228" d="M-41.816-21.976A2.9,2.9,0,0,1-44.644-19a2.9,2.9,0,0,1-2.828-2.973,2.9,2.9,0,0,1,2.828-2.972,2.9,2.9,0,0,1,2.828,2.972" transform="translate(47.472 24.948)" fill="#ffa1ac"/>
              </g>
              <g id="g4230" transform="translate(52.102 41.737)">
                <path id="path4232" d="M-41.816-21.976A2.9,2.9,0,0,1-44.644-19a2.9,2.9,0,0,1-2.828-2.973,2.9,2.9,0,0,1,2.828-2.972,2.9,2.9,0,0,1,2.828,2.972" transform="translate(47.472 24.948)" fill="#ffa1ac"/>
              </g>
              <g id="g4234" transform="translate(29.248 25.238)">
                <path id="path4236" d="M-8.809-5.671A1.191,1.191,0,0,1-10-6.862V-8.809A1.191,1.191,0,0,1-8.809-10,1.191,1.191,0,0,1-7.617-8.809v1.946A1.191,1.191,0,0,1-8.809-5.671Z" transform="translate(10 10)" fill="#495560"/>
              </g>
              <g id="g4238" transform="translate(49.507 25.238)">
                <path id="path4240" d="M-8.809-5.671A1.191,1.191,0,0,1-10-6.862V-8.809A1.191,1.191,0,0,1-8.809-10,1.191,1.191,0,0,1-7.617-8.809v1.946A1.191,1.191,0,0,1-8.809-5.671Z" transform="translate(10 10)" fill="#495560"/>
              </g>
              <g id="g4242" transform="translate(36.789 50.737)">
                <path id="path4244" d="M-6.138-6.4A4.734,4.734,0,0,1-9.707-8.026a1.191,1.191,0,0,1,.115-1.681,1.191,1.191,0,0,1,1.681.115,2.352,2.352,0,0,0,1.772.808,2.353,2.353,0,0,0,1.773-.808,1.191,1.191,0,0,1,1.681-.115,1.191,1.191,0,0,1,.115,1.681A4.735,4.735,0,0,1-6.138-6.4Z" transform="translate(10 10)" fill="#495560"/>
              </g>
            </g>
          </g>
        </g>
      </g>
    </g>
    <g id="Grupo_1076073" data-name="Grupo 1076073">
      <g id="Grupo_1072224" data-name="Grupo 1072224">
        <rect id="Rectángulo_375741" data-name="Rectángulo 375741" width="156" height="132" rx="10" transform="translate(632 1886)" fill="#fff"/>
        <text id="Serpiente" transform="translate(676 2007)" fill="#12263f" font-size="16" font-family="Roboto-Bold, Roboto" font-weight="700"><tspan x="0" y="0">Serpiente</tspan></text>
        <g id="serpiente-2" data-name="serpiente" transform="translate(666.001 1900.501)">
          <path id="Trazado_818621" data-name="Trazado 818621" d="M9.128,126.9,6.152,124.5a17.6,17.6,0,0,1,3.141-9.281A1.314,1.314,0,0,0,7.219,113.6a19.949,19.949,0,0,0-3.694,10.842L.565,126.493a1.314,1.314,0,0,0-.332,1.829,1.237,1.237,0,0,0,1.829.332l2.721-1.887c.674.542,1.757,1.35,2.683,2.175a1.284,1.284,0,0,0,1.849-.188A1.314,1.314,0,0,0,9.128,126.9Zm0,0" transform="translate(0 -93.151)" fill="#ff929f"/>
          <path id="Trazado_818622" data-name="Trazado 818622" d="M61.782,49.282s12.479-8.156,10.95-26.505C71.31,5.722,47.338-9.538,23.352,8.887c-4.288,3.294-4.944,9.506-4.029,13.709a4.928,4.928,0,0,0,8.054,2.671c6.473-5.658,16.866-12.474,25.208-7.333,15.641,9.638-10.692,29.054-10.692,29.054Zm0,0" transform="translate(-15.69 -0.002)" fill="#7fb762"/>
          <path id="Trazado_818623" data-name="Trazado 818623" d="M151.738,197.634l19.889,2.294a27.58,27.58,0,0,0,10.523-17.335,52.707,52.707,0,0,1-17.185,1.176C160.57,191.122,151.738,197.634,151.738,197.634Zm0,0" transform="translate(-125.535 -150.649)" fill="#6b9e4c"/>
          <path id="Trazado_818624" data-name="Trazado 818624" d="M72.977,222.836s-7.667-7.24,0-14.481c6.012-5.678,23.851,5.111,38.971,2.982s19.555,8.406,12.99,15.759C124.3,227.308,72.977,222.836,72.977,222.836Zm0,0" transform="translate(-57.556 -170.579)" fill="#8dc971"/>
          <path id="Trazado_818625" data-name="Trazado 818625" d="M83.76,214c.006-5.382,13.454-3.595,13.457-3.595-10.507-2.122-20.133-5.927-24.239-2.049-7.667,7.24,0,14.481,0,14.481s19.471,1.7,34.577,2.95C96.355,219.861,83.754,218.694,83.76,214Zm0,0" transform="translate(-57.556 -170.581)" fill="#7fb762"/>
          <path id="Trazado_818626" data-name="Trazado 818626" d="M42.991,295.714s-11.361-1.341-7.339-12.72c4.237-11.986,23.051-3.706,38.869-3.484s33.431-6.359,30.006,13.647C103.713,292.616,42.991,295.714,42.991,295.714Zm0,0" transform="translate(-28.784 -228.353)" fill="#9ad880"/>
          <path id="Trazado_818627" data-name="Trazado 818627" d="M54.675,286.116c-1.744-6.1,5.109-8.241,5.112-8.242-11.159-1.744-21.184-3.23-24.136,5.12-4.022,11.379,7.339,12.72,7.339,12.72s10.5-.536,22.833-1.123C60.606,290.1,55.96,290.616,54.675,286.116Zm0,0" transform="translate(-28.783 -228.353)" fill="#8dc971"/>
          <path id="Trazado_818628" data-name="Trazado 818628" d="M49.967,287.551a7.846,7.846,0,0,0,7.24-10.864c-6.806-.583-12.341.166-14.773,5.2A7.848,7.848,0,0,0,49.967,287.551Zm0,0" transform="translate(-35.106 -228.354)" fill="#ffcd00"/>
          <path id="Trazado_818629" data-name="Trazado 818629" d="M214.218,323.13a5.338,5.338,0,1,1-5.337-5.337A5.337,5.337,0,0,1,214.218,323.13Zm0,0" transform="translate(-168.394 -262.5)" fill="#ffde55"/>
          <path id="Trazado_818630" data-name="Trazado 818630" d="M90.17,284.189a26.155,26.155,0,0,1-23.054,13.373H15.842a8.23,8.23,0,0,0,0,16.46h54.28c22.089,0,25-17.386,24.553-28.713A2.414,2.414,0,0,0,90.17,284.189Zm0,0" transform="translate(-6.299 -233.693)" fill="#b2e59c"/>
          <path id="Trazado_818631" data-name="Trazado 818631" d="M23.1,375.687a8.23,8.23,0,0,1,8.23-8.23H15.842a8.23,8.23,0,0,0,0,16.46H31.333A8.23,8.23,0,0,1,23.1,375.687Zm0,0" transform="translate(-6.299 -303.588)" fill="#9ad880"/>
          <path id="Trazado_818632" data-name="Trazado 818632" d="M68.163,78.24c-1.912.58-3.087,2.285-2.625,3.807s2.387,2.286,4.3,1.705,3.088-2.285,2.625-3.807S70.075,77.659,68.163,78.24Zm0,0" transform="translate(-54.138 -64.155)" fill="#fff"/>
          <path id="Trazado_818633" data-name="Trazado 818633" d="M58.121,68.74a1.315,1.315,0,0,1-1.64-.876l-.633-2.088a1.315,1.315,0,1,1,2.515-.764L59,67.1A1.314,1.314,0,0,1,58.121,68.74Zm0,0" transform="translate(-46.156 -52.601)" fill="#57565c"/>
          <path id="Trazado_818634" data-name="Trazado 818634" d="M158.357,418.426a8.454,8.454,0,0,0-8.416,7.658h16.832A8.455,8.455,0,0,0,158.357,418.426Zm0,0" transform="translate(-124.049 -345.755)" fill="#ffe98d"/>
          <path id="Trazado_818635" data-name="Trazado 818635" d="M314.253,375.45a7.358,7.358,0,0,0,6.128-11.431,27.255,27.255,0,0,1-5.668.594h-6.946a7.359,7.359,0,0,0,6.485,10.837Zm0,0" transform="translate(-253.897 -300.744)" fill="#ffe98d"/>
          <path id="Trazado_818636" data-name="Trazado 818636" d="M289.885,239.7a7.431,7.431,0,0,0,7.411-6.913,20.837,20.837,0,0,0-9.221-.494,31.832,31.832,0,0,1-5.614.256A7.429,7.429,0,0,0,289.885,239.7Zm0,0" transform="translate(-233.683 -191.533)" fill="#ffcd00"/>
          <g id="Grupo_1072223" data-name="Grupo 1072223" transform="translate(27.405 0.499)">
            <path id="Trazado_818637" data-name="Trazado 818637" d="M159.585,6.716a6.9,6.9,0,0,0,12.889-4.043,29.028,29.028,0,0,0-13.2-2.1A6.894,6.894,0,0,0,159.585,6.716Zm0,0" transform="translate(-158.699 -0.499)" fill="#ffb000"/>
            <path id="Trazado_818638" data-name="Trazado 818638" d="M235.163,116.413a5.48,5.48,0,0,0-7.225-8.07c2.886,2.917,3,6.418,1.7,9.921A5.479,5.479,0,0,0,235.163,116.413Zm0,0" transform="translate(-215.981 -88.986)" fill="#ffb000"/>
          </g>
        </g>
      </g>
    </g>
  </g>
</svg>
