<svg xmlns="http://www.w3.org/2000/svg" width="129" height="195" viewBox="0 0 129 195">
  <g id="Grupo_1072597" data-name="Grupo 1072597" transform="translate(-198 -4233)">
    <g id="Grupo_1071848" data-name="Grupo 1071848" transform="translate(198 4233)">
      <rect id="Rectángulo_375766" data-name="Rectángulo 375766" width="129" height="103" rx="10" transform="translate(0 92)" fill="#8054f8"/>
      <circle id="Elipse_4726" data-name="Elipse 4726" cx="61" cy="61" r="61" transform="translate(3)" fill="#fff"/>
    </g>
    <g id="toma-de-decisiones" transform="translate(208.726 4291.5)">
      <g id="Grupo_1072618" data-name="Grupo 1072618" transform="translate(8.505 1.404)">
        <g id="Grupo_1072610" data-name="Grupo 1072610" transform="translate(49.236 39.435)">
          <path id="Trazado_819951" data-name="Trazado 819951" d="M299.039,231.867l15.141-13.083a2.809,2.809,0,0,1,4.187,3.665l-12.548,19.174a11.973,11.973,0,0,1-5.838,4.661l-4.116,1.534v16.733H277.522V247.214a10.986,10.986,0,0,1,4-8.482l11.679-9.617a3.567,3.567,0,0,1,5.835,2.753Z" transform="translate(-277.522 -218.1)" fill="#ffe6c6"/>
        </g>
        <g id="Grupo_1072611" data-name="Grupo 1072611" transform="translate(0 39.435)">
          <path id="Trazado_819952" data-name="Trazado 819952" d="M34.369,231.867a3.567,3.567,0,0,1,5.835-2.753l11.679,9.617a10.986,10.986,0,0,1,4,8.482v17.334s-18.145-.2-18.343,0,0-16.731,0-16.731l-4.116-1.534a11.973,11.973,0,0,1-5.838-4.661L15.041,222.448a2.809,2.809,0,0,1,4.187-3.664Z" transform="translate(-14.582 -218.1)" fill="#ffe6c6"/>
        </g>
        <path id="Trazado_819953" data-name="Trazado 819953" d="M54.956,253.25H43.918a2.9,2.9,0,0,1-2.9-2.927c0-.524.009-1.019.014-1.473a3.923,3.923,0,0,0-2.554-3.714l-1.533-.571a11.973,11.973,0,0,1-5.838-4.661L18.558,220.729a2.8,2.8,0,0,1-.459-1.535,2.835,2.835,0,0,1,.169-.953,2.809,2.809,0,0,0-3.227,4.208l12.548,19.174a11.973,11.973,0,0,0,5.838,4.661l4.116,1.534s-.2,16.929,0,16.731a26.215,26.215,0,0,1,2.889-.083h.275c2.744-.013,6.769.011,9.985.037h0c1.657.013,3.1.027,4.04.036l.285,0h.194l.477,0,.158,0h.039v-11.21a5,5,0,0,0-.929-.088Z" transform="translate(-14.582 -178.666)" fill="#f8d3aa"/>
        <path id="Trazado_819954" data-name="Trazado 819954" d="M148.543,435.08V422.972a2.161,2.161,0,0,0-2.161-2.161H129.232a2.161,2.161,0,0,0-2.161,2.161V435.08a1.53,1.53,0,0,0,1.53,1.53h18.413A1.53,1.53,0,0,0,148.543,435.08Z" transform="translate(-106.007 -343.418)" fill="#f9f7f7"/>
        <path id="Trazado_819955" data-name="Trazado 819955" d="M135.472,433.574a3.562,3.562,0,0,1-3.562-3.562v-9.2h-2.679a2.161,2.161,0,0,0-2.161,2.161v12.108a1.53,1.53,0,0,0,1.53,1.53h18.413a1.53,1.53,0,0,0,1.53-1.53v-1.506h-13.07Z" transform="translate(-106.007 -343.417)" fill="#f2eae7"/>
        <g id="Grupo_1072617" data-name="Grupo 1072617" transform="translate(0.755)">
          <g id="XMLID_179_" transform="translate(49.464 49.634)">
            <g id="Grupo_1072613" data-name="Grupo 1072613">
              <g id="XMLID_180_">
                <g id="Grupo_1072612" data-name="Grupo 1072612">
                  <path id="Trazado_819956" data-name="Trazado 819956" d="M339.412,280.313l-2.45,2.117s0,0,0-.005L324.182,293.5a5.719,5.719,0,0,0,7.75-.417l5.971-6.142a6.392,6.392,0,0,0,1.509-6.627Z" transform="translate(-316.428 -278.863)" fill="#f8d3aa"/>
                  <path id="Trazado_819957" data-name="Trazado 819957" d="M302.261,273.613a3.569,3.569,0,0,1,0,5.046l-12.662,13.1-6.827-4.82a10.975,10.975,0,0,1,3.02-3.942l11.679-9.617a3.565,3.565,0,0,1,4.79.23Z" transform="translate(-282.772 -272.568)" fill="#ffe6c6"/>
                </g>
              </g>
            </g>
          </g>
          <g id="XMLID_177_" transform="translate(16.223 49.634)">
            <g id="Grupo_1072615" data-name="Grupo 1072615">
              <g id="XMLID_178_">
                <g id="Grupo_1072614" data-name="Grupo 1072614">
                  <path id="Trazado_819958" data-name="Trazado 819958" d="M119,293.393l-11.1-11.1-2.292-1.981a6.392,6.392,0,0,0,1.509,6.627l6.2,6.28A4.118,4.118,0,0,0,119,293.393Z" transform="translate(-105.251 -278.864)" fill="#f8d3aa"/>
                  <path id="Trazado_819959" data-name="Trazado 819959" d="M140.237,285.886l-6.642,5.876-7.69-8.5L121.3,278.66a3.567,3.567,0,0,1,4.79-5.277L137.766,283a11.034,11.034,0,0,1,2.472,2.886Z" transform="translate(-117.443 -272.568)" fill="#ffe6c6"/>
                </g>
              </g>
            </g>
          </g>
          <circle id="Elipse_4843" data-name="Elipse 4843" cx="20.841" cy="20.841" r="20.841" fill="#9de5d1"/>
          <g id="Grupo_1072616" data-name="Grupo 1072616" transform="translate(11.941 13.036)">
            <path id="Trazado_819960" data-name="Trazado 819960" d="M89.217,93.5a2.8,2.8,0,0,1-1.932-.77l-4.653-4.41a.8.8,0,0,1-.03-1.129l2.766-2.919a.8.8,0,0,1,1.129-.03L88.572,86.2a.8.8,0,0,0,1.12-.021l8.631-8.826a.8.8,0,0,1,1.129-.013l2.875,2.811a.8.8,0,0,1,.013,1.129L91.226,92.65A2.8,2.8,0,0,1,89.217,93.5Z" transform="translate(-82.383 -77.118)" fill="#f9f7f7"/>
          </g>
          <circle id="Elipse_4844" data-name="Elipse 4844" cx="20.841" cy="20.841" r="20.841" transform="translate(47.348)" fill="#ee878a"/>
          <path id="Trazado_819961" data-name="Trazado 819961" d="M26.14,28.725A20.845,20.845,0,0,1,44.266,8.059a20.841,20.841,0,1,0-2.1,40.949A20.848,20.848,0,0,1,26.14,28.725Z" transform="translate(-18.613 -7.501)" fill="#82dec5"/>
          <path id="Trazado_819962" data-name="Trazado 819962" d="M279,28.725A20.847,20.847,0,0,1,297.129,8.059a20.841,20.841,0,1,0-2.1,40.948A20.847,20.847,0,0,1,279,28.725Z" transform="translate(-224.125 -7.5)" fill="#ec6e73"/>
          <path id="Trazado_819963" data-name="Trazado 819963" d="M341,73.267l5.973-5.833a.791.791,0,0,0,.013-1.118l-3.221-3.3A.791.791,0,0,0,342.652,63l-6.079,5.936L330.492,63a.791.791,0,0,0-1.118.013l-3.221,3.3a.791.791,0,0,0,.013,1.118l5.976,5.835L326.166,79.1a.791.791,0,0,0-.013,1.118l3.221,3.3a.791.791,0,0,0,1.118.013l6.081-5.938,6.079,5.936a.791.791,0,0,0,1.118-.013l3.221-3.3a.791.791,0,0,0-.013-1.118Z" transform="translate(-268.383 -52.426)" fill="#f9f7f7"/>
        </g>
        <path id="Trazado_819964" data-name="Trazado 819964" d="M285.8,284.472l11.679-9.617a3.583,3.583,0,0,1,1.03-.595,3.566,3.566,0,0,0-5.3-.878L281.525,283a10.986,10.986,0,0,0-4,8.482v17.336h18.343V297.525c-.088,0-11.667-.007-11.667-.007a2.4,2.4,0,0,1-2.4-2.4v-2.16A10.989,10.989,0,0,1,285.8,284.472Z" transform="translate(-228.286 -222.934)" fill="#f8d3aa"/>
        <path id="Trazado_819965" data-name="Trazado 819965" d="M292.414,435.08V422.972a2.161,2.161,0,0,0-2.161-2.161H273.1a2.161,2.161,0,0,0-2.161,2.161V435.08a1.53,1.53,0,0,0,1.53,1.53h18.413A1.53,1.53,0,0,0,292.414,435.08Z" transform="translate(-222.938 -343.418)" fill="#f9f7f7"/>
        <path id="Trazado_819966" data-name="Trazado 819966" d="M278.842,433.575a3.059,3.059,0,0,1-3.059-3.059v-9.7H273.1a2.161,2.161,0,0,0-2.161,2.161V435.08a1.53,1.53,0,0,0,1.53,1.53h18.413a1.53,1.53,0,0,0,1.53-1.53v-1.506Z" transform="translate(-222.938 -343.418)" fill="#f2eae7"/>
      </g>
      <g id="Grupo_1072619" data-name="Grupo 1072619" transform="translate(7.105 0)">
        <path id="Trazado_819967" data-name="Trazado 819967" d="M307.339,211.667a4.234,4.234,0,0,0-5.522-.011L288.329,223.31a4.975,4.975,0,0,0-7.464-1.346l-11.679,9.618a12.352,12.352,0,0,0-4.515,9.566v8.316a3.556,3.556,0,0,0-1.232,2.69v13.637a1.4,1.4,0,1,0,2.809,0V252.154a.758.758,0,0,1,.757-.757h17.149a.758.758,0,0,1,.757.757v13.637a1.4,1.4,0,1,0,2.809,0V252.154a3.568,3.568,0,0,0-1.9-3.149v-6.279l3.2-1.192a13.284,13.284,0,0,0,6.523-5.209L308.1,217.152A4.23,4.23,0,0,0,307.339,211.667Zm-1.592,3.946L293.2,234.787a10.494,10.494,0,0,1-5.153,4.115l-5.584,2.079a1.4,1.4,0,0,0,.49,2.721l.065,0v4.889H267.481v-7.44a9.552,9.552,0,0,1,3.491-7.4l11.679-9.618a2.163,2.163,0,0,1,2.9,3.2l-4.607,4.607a1.4,1.4,0,0,0,1.986,1.986l4.607-4.607a4.935,4.935,0,0,0,1.409-2.832l14.7-12.7a1.4,1.4,0,0,1,2.094,1.832Z" transform="translate(-215.441 -171.195)"/>
        <path id="Trazado_819968" data-name="Trazado 819968" d="M51.213,249.463v-8.316a12.364,12.364,0,0,0-4.422-9.486,1.4,1.4,0,0,0-1.807,2.15,9.561,9.561,0,0,1,3.42,7.336v7.44H32.869V243.7l.065,0a1.4,1.4,0,0,0,.49-2.721L27.84,238.9a10.493,10.493,0,0,1-5.153-4.115L10.138,215.613a1.4,1.4,0,0,1,2.094-1.832l14.706,12.706a4.944,4.944,0,0,0,1.406,2.83l4.607,4.607a1.4,1.4,0,0,0,1.986-1.986L30.33,227.33a2.163,2.163,0,0,1,2.9-3.2l7.04,5.8a1.4,1.4,0,0,0,1.785-2.168l-7.04-5.8a4.971,4.971,0,0,0-7.463,1.347L14.068,211.655a4.214,4.214,0,0,0-6.28,5.5l12.549,19.173a13.284,13.284,0,0,0,6.523,5.209l3.2,1.192V249a3.568,3.568,0,0,0-1.9,3.149V265.79a1.4,1.4,0,0,0,2.809,0V252.153a.758.758,0,0,1,.757-.757H48.879a.758.758,0,0,1,.757.757V265.79a1.4,1.4,0,0,0,2.809,0V252.153a3.556,3.556,0,0,0-1.232-2.689Z" transform="translate(-7.105 -171.194)"/>
        <path id="Trazado_819969" data-name="Trazado 819969" d="M33.358,44.49A22.245,22.245,0,1,0,11.113,22.245,22.27,22.27,0,0,0,33.358,44.49Zm0-41.682A19.436,19.436,0,1,1,13.922,22.245,19.458,19.458,0,0,1,33.358,2.809Z" transform="translate(-10.362 0)"/>
        <path id="Trazado_819970" data-name="Trazado 819970" d="M80.23,87.651a4.213,4.213,0,0,0,5.91-.113l2.983-3.05a1.4,1.4,0,1,0-2.008-1.964l-2.983,3.05a1.4,1.4,0,0,1-1.97.038l-4.213-3.993,1.932-2.039,1.636,1.55a2.213,2.213,0,0,0,3.09-.059l8.208-8.392,2.008,1.964-3.522,3.6a1.4,1.4,0,1,0,2.008,1.964l3.946-4.035a2.2,2.2,0,0,0-.035-3.115l-2.875-2.811a2.2,2.2,0,0,0-3.115.035l-8.214,8.4-1.642-1.556a2.2,2.2,0,0,0-3.114.083l-2.766,2.919a2.205,2.205,0,0,0,.084,3.114Z" transform="translate(-62.198 -56.584)"/>
        <path id="Trazado_819971" data-name="Trazado 819971" d="M286.218,44.49a22.265,22.265,0,0,0,14.289-5.2,1.4,1.4,0,1,0-1.805-2.152,19.42,19.42,0,1,1,3.726-4.17,1.4,1.4,0,1,0,2.341,1.552,22.246,22.246,0,1,0-18.551,9.967Z" transform="translate(-215.874 0)"/>
        <path id="Trazado_819972" data-name="Trazado 819972" d="M341.9,59.239l-3.221-3.3a2.2,2.2,0,0,0-3.1-.037l-5.1,4.978-5.1-4.98a2.2,2.2,0,0,0-3.1.037l-3.221,3.3a2.195,2.195,0,0,0,.037,3.1l4.947,4.83L319.087,72a2.2,2.2,0,0,0-.037,3.1l3.221,3.3a2.18,2.18,0,0,0,1.544.661h.027a2.181,2.181,0,0,0,1.533-.624l5.1-4.98,5.1,4.978a2.2,2.2,0,0,0,3.1-.037l3.221-3.3a2.2,2.2,0,0,0-.037-3.1l-4.944-4.828,4.945-4.828A2.2,2.2,0,0,0,341.9,59.239Zm-7.973,6.927a1.4,1.4,0,0,0,0,2.01l5.534,5.4L337.1,76l-5.64-5.507a1.4,1.4,0,0,0-1.962,0L323.853,76l-2.363-2.42,5.537-5.406a1.4,1.4,0,0,0,0-2.01l-5.537-5.406,2.363-2.42,5.642,5.509a1.4,1.4,0,0,0,1.962,0l5.64-5.507,2.364,2.421Z" transform="translate(-260.131 -44.926)"/>
      </g>
    </g>
  </g>
</svg>
