<svg xmlns="http://www.w3.org/2000/svg" xmlns:xlink="http://www.w3.org/1999/xlink" width="129" height="195" viewBox="0 0 129 195">
  <defs>
    <clipPath id="clip-path">
      <path id="path1821" d="M0-682.665H98.911v98.911H0Z" transform="translate(0 682.665)"/>
    </clipPath>
  </defs>
  <g id="Grupo_1072600" data-name="Grupo 1072600" transform="translate(-198 -4233)">
    <g id="Grupo_1071848" data-name="Grupo 1071848" transform="translate(198 4233)">
      <rect id="Rectángulo_375766" data-name="Rectángulo 375766" width="129" height="103" rx="10" transform="translate(0 92)" fill="#8054f8"/>
      <circle id="Elipse_4726" data-name="Elipse 4726" cx="61" cy="61" r="61" transform="translate(3)" fill="#fff"/>
    </g>
    <g id="g1815" transform="translate(215.089 4968.146)">
      <g id="g1817" transform="translate(0 -682.665)">
        <g id="g1819" clip-path="url(#clip-path)">
          <g id="g1825" transform="translate(2.116 12.921)">
            <path id="path1827" d="M-248.06-496.094a42.078,42.078,0,0,1-42.031-42.029,42.077,42.077,0,0,1,42.031-42.029,42.077,42.077,0,0,1,42.031,42.029,42.077,42.077,0,0,1-42.031,42.029" transform="translate(290.091 580.152)" fill="#e5ecec"/>
          </g>
          <g id="g1829" transform="translate(0.185 10.989)">
            <path id="path1831" d="M-259.462-505.564a44.012,44.012,0,0,1-43.963-43.961,44.011,44.011,0,0,1,43.963-43.96,44.011,44.011,0,0,1,43.963,43.96A44.012,44.012,0,0,1-259.462-505.564Zm0-84.058a40.143,40.143,0,0,0-40.1,40.1,40.143,40.143,0,0,0,40.1,40.1,40.143,40.143,0,0,0,40.1-40.1A40.143,40.143,0,0,0-259.462-589.622Z" transform="translate(303.425 593.485)"/>
          </g>
          <g id="g1833" transform="translate(12.3 23.104)">
            <path id="path1835" d="M-187.958-375.9A31.883,31.883,0,0,1-219.8-407.742a31.813,31.813,0,0,1,12.486-25.27q.321-.247.649-.485a31.814,31.814,0,0,1,7.92-4.209,31.707,31.707,0,0,1,10.792-1.882,31.883,31.883,0,0,1,31.847,31.846A31.883,31.883,0,0,1-187.958-375.9" transform="translate(219.805 439.588)" fill="#f5737f"/>
          </g>
          <g id="g1837" transform="translate(10.368 21.172)">
            <path id="path1839" d="M-124.264-11.107a31.706,31.706,0,0,1,10.792-1.882A31.883,31.883,0,0,1-81.625,18.856,31.883,31.883,0,0,1-113.472,50.7,31.883,31.883,0,0,1-145.32,18.856,31.676,31.676,0,0,1-139.206.114" transform="translate(147.251 14.921)" fill="#f5737f"/>
            <path id="path1839_-_Contorno" data-name="path1839 - Contorno" d="M-124.874,41.232A33.817,33.817,0,0,1-158.653,7.455a33.494,33.494,0,0,1,6.485-19.882,1.932,1.932,0,0,1,2.7-.421,1.932,1.932,0,0,1,.421,2.7,29.655,29.655,0,0,0-5.742,17.6,29.949,29.949,0,0,0,29.915,29.914A29.949,29.949,0,0,0-94.958,7.455a29.949,29.949,0,0,0-29.916-29.914,29.746,29.746,0,0,0-10.136,1.767,1.932,1.932,0,0,1-2.473-1.161,1.932,1.932,0,0,1,1.161-2.473,33.6,33.6,0,0,1,11.448-2A33.817,33.817,0,0,1-91.095,7.455,33.817,33.817,0,0,1-124.874,41.232Z" transform="translate(158.653 26.323)"/>
          </g>
          <g id="g1841" transform="translate(25.435 29.195)">
            <path id="path1843" d="M0,0Z" fill="#f5737f"/>
          </g>
          <g id="g1845" transform="translate(25.435 29.195)">
            <path id="path1847"/>
          </g>
          <g id="g1849" transform="translate(22.483 33.287)">
            <path id="path1851" d="M-127.857-255.7a21.688,21.688,0,0,1-21.664-21.663,21.688,21.688,0,0,1,21.664-21.663,21.688,21.688,0,0,1,21.664,21.663A21.688,21.688,0,0,1-127.857-255.7" transform="translate(149.521 299.026)" fill="#e5ecec"/>
          </g>
          <g id="g1853" transform="translate(20.552 31.355)">
            <path id="path1855" d="M-207.177-248.836a23.622,23.622,0,0,1-23.6-23.594,23.622,23.622,0,0,1,23.6-23.595,23.622,23.622,0,0,1,23.6,23.595,23.508,23.508,0,0,1-1.2,7.424,1.932,1.932,0,0,1-2.442,1.224,1.932,1.932,0,0,1-1.224-2.442,19.652,19.652,0,0,0,1-6.206,19.754,19.754,0,0,0-19.732-19.731,19.754,19.754,0,0,0-19.732,19.731A19.754,19.754,0,0,0-207.177-252.7a19.478,19.478,0,0,0,8.96-2.154,1.932,1.932,0,0,1,2.6.839,1.932,1.932,0,0,1-.839,2.6A23.63,23.63,0,0,1-207.177-248.836Z" transform="translate(230.773 296.025)"/>
          </g>
          <g id="g1857" transform="translate(60.74 68.863)">
            <path id="path1859"/>
          </g>
          <g id="g1861" transform="translate(32.667 43.47)">
            <path id="path1863" d="M-135.51-67.751a11.48,11.48,0,0,1-11.48,11.48,11.48,11.48,0,0,1-11.48-11.48,11.48,11.48,0,0,1,11.48-11.48,11.48,11.48,0,0,1,11.48,11.48" transform="translate(158.47 79.23)" fill="#f5737f"/>
          </g>
          <g id="g1865" transform="translate(30.735 41.538)">
            <path id="path1867" d="M-158.391-92.564a13.427,13.427,0,0,1,13.412,13.411,13.427,13.427,0,0,1-13.412,13.411A13.427,13.427,0,0,1-171.8-79.152,13.427,13.427,0,0,1-158.391-92.564Zm0,22.959a9.559,9.559,0,0,0,9.548-9.548,9.559,9.559,0,0,0-9.548-9.548,9.559,9.559,0,0,0-9.549,9.548A9.559,9.559,0,0,0-158.391-69.6Z" transform="translate(171.804 92.564)"/>
          </g>
          <g id="g1869" transform="translate(42.446 16.121)">
            <path id="path1871" d="M-262.026,26.841a1.926,1.926,0,0,1-1.366-.566,1.932,1.932,0,0,1,0-2.732l36.313-36.311a1.932,1.932,0,0,1,2.732,0,1.932,1.932,0,0,1,0,2.732L-260.66,26.275A1.926,1.926,0,0,1-262.026,26.841Z" transform="translate(263.958 13.333)"/>
          </g>
          <g id="g1873" transform="translate(73.564 1.932)">
            <path id="path1875" d="M-59.773,0l-8.418,8.418A5.849,5.849,0,0,0-69.9,12.34l.191,10.715,10.849-10.866Z" transform="translate(69.901)" fill="#ffcb7c"/>
          </g>
          <g id="g1877" transform="translate(71.633 0)">
            <path id="path1879" d="M-71.173-13.334a1.929,1.929,0,0,1,.672.121,1.932,1.932,0,0,1,1.254,1.667L-68.335.643a1.932,1.932,0,0,1-.559,1.509L-79.743,13.019a1.932,1.932,0,0,1-2.09.427,1.932,1.932,0,0,1-1.209-1.757L-83.232.973A7.81,7.81,0,0,1-80.957-4.35l8.418-8.418A1.932,1.932,0,0,1-71.173-13.334ZM-72.254.049l-.532-7.107-5.44,5.44A3.905,3.905,0,0,0-79.37,1.009l.109,6.058Z" transform="translate(83.232 13.334)"/>
          </g>
          <g id="g1881" transform="translate(73.755 14.121)">
            <path id="path1883" d="M-135.974-5.381l-12.19-.912L-159.013,4.573l10.7.173a5.85,5.85,0,0,0,3.923-1.709Z" transform="translate(159.013 6.293)" fill="#ffd89e"/>
          </g>
          <g id="g1885" transform="translate(71.823 12.189)">
            <path id="path1887" d="M-159.566-19.627q.072,0,.144.005l12.19.912a1.932,1.932,0,0,1,1.667,1.254,1.932,1.932,0,0,1-.445,2.038L-154.428-7a7.758,7.758,0,0,1-5.218,2.274l-10.8-.172A1.932,1.932,0,0,1-172.205-6.1a1.932,1.932,0,0,1,.423-2.09l10.849-10.866A1.932,1.932,0,0,1-159.566-19.627Zm7.846,4.456-7.105-.531-7,7.016,6.144.1a3.866,3.866,0,0,0,2.525-1.144Z" transform="translate(172.347 19.627)"/>
          </g>
        </g>
      </g>
    </g>
  </g>
</svg>
