<svg xmlns="http://www.w3.org/2000/svg" width="295" height="113" viewBox="0 0 295 113">
  <g id="Grupo_1076084" data-name="Grupo 1076084" transform="translate(-377 -4968)">
    <rect id="Rectángulo_375761" data-name="Rectángulo 375761" width="295" height="102" rx="13" transform="translate(377 4974)" fill="#dbefed"/>
    <g id="computer" transform="translate(466 4966)">
      <path id="Trazado_818726" data-name="Trazado 818726" d="M112.233,18.767V71.5H3V18.767A3.778,3.778,0,0,1,6.767,15h101.7A3.778,3.778,0,0,1,112.233,18.767Z" transform="translate(0.883 11.483)" fill="#57a4ff"/>
      <path id="Trazado_818727" data-name="Trazado 818727" d="M112.233,18.767V71.5H3V63.967H82.1a22.6,22.6,0,0,0,22.6-22.6v-22.6A3.778,3.778,0,0,0,100.933,15h7.533A3.778,3.778,0,0,1,112.233,18.767Z" transform="translate(0.883 11.483)" fill="#2488ff"/>
      <path id="Trazado_818728" data-name="Trazado 818728" d="M53,27h7.533V53.367H53Z" transform="translate(45.05 22.083)" fill="#ff7956"/>
      <path id="Trazado_818729" data-name="Trazado 818729" d="M45,29h7.533V51.6H45Z" transform="translate(37.983 23.85)" fill="#ffde55"/>
      <path id="Trazado_818730" data-name="Trazado 818730" d="M65.2,64.533H20L25.65,57h33.9Z" transform="translate(15.9 48.583)" fill="#c6c5ca"/>
      <path id="Trazado_818731" data-name="Trazado 818731" d="M37,33h7.533V48.067H37Z" transform="translate(30.917 27.383)" fill="#00ddc2"/>
      <path id="Trazado_818732" data-name="Trazado 818732" d="M45.56,9.78a16.882,16.882,0,0,1,3.39,10.17,15.562,15.562,0,0,1-.113,1.883H32V3A16.935,16.935,0,0,1,45.56,9.78Z" transform="translate(26.5 0.883)" fill="#ff7956"/>
      <path id="Trazado_818733" data-name="Trazado 818733" d="M28.311,32.267A16.946,16.946,0,0,1,39.95,3V21.833H56.787a15.879,15.879,0,0,1-.866,3.767,16.937,16.937,0,0,1-27.61,6.667Z" transform="translate(18.55 0.883)" fill="#ffde55"/>
      <path id="Trazado_818734" data-name="Trazado 818734" d="M56.787,18.208a15.878,15.878,0,0,1-.866,3.767A16.946,16.946,0,0,1,23,16.325a17.5,17.5,0,0,1,.226-2.825,17.3,17.3,0,0,0,.753,2.825,16.643,16.643,0,0,0,4.332,6.667,16.922,16.922,0,0,0,26.8-4.784Z" transform="translate(18.55 10.158)" fill="#2488ff"/>
      <path id="Trazado_818735" data-name="Trazado 818735" d="M51.367,62.3H25L26.883,51h22.6Z" transform="translate(20.317 43.283)" fill="#57a4ff"/>
      <path id="Trazado_818736" data-name="Trazado 818736" d="M112.233,45v7.533a3.778,3.778,0,0,1-3.767,3.767H6.767A3.778,3.778,0,0,1,3,52.533V45Z" transform="translate(0.883 37.983)" fill="#c6c5ca"/>
      <path id="Trazado_818737" data-name="Trazado 818737" d="M26,51H48.6v5.65H26Z" transform="translate(21.2 43.283)" fill="#2488ff"/>
      <path id="Trazado_818738" data-name="Trazado 818738" d="M16.417,28.417h9.417A9.417,9.417,0,1,1,16.417,19Z" transform="translate(4.417 15.017)" fill="#ffde55"/>
      <path id="Trazado_818739" data-name="Trazado 818739" d="M37,33h7.533V48.067H37Z" transform="translate(30.917 27.383)" fill="#00d7df"/>
      <path id="Trazado_818740" data-name="Trazado 818740" d="M53,27h7.533v3.767H53Z" transform="translate(45.05 22.083)" fill="#ff5023"/>
      <path id="Trazado_818741" data-name="Trazado 818741" d="M45,29h7.533v3.767H45Z" transform="translate(37.983 23.85)" fill="#ebbf00"/>
      <path id="Trazado_818742" data-name="Trazado 818742" d="M37,33h7.533v3.767H37Z" transform="translate(30.917 27.383)" fill="#009698"/>
      <path id="Trazado_818743" data-name="Trazado 818743" d="M109.35,24.6H76.957a19.21,19.21,0,0,0,.377-3.767A18.766,18.766,0,0,0,74.6,11.115l7.119-5.349H96.167V2H81.1a1.853,1.853,0,0,0-1.13.377L72.342,8.1a18.752,18.752,0,0,0-27.685,0L37.03,2.377A1.853,1.853,0,0,0,35.9,2H20.833V5.767H35.278L42.4,11.115a18.766,18.766,0,0,0-2.731,9.718,19.21,19.21,0,0,0,.377,3.767H7.65A5.667,5.667,0,0,0,2,30.25V90.517a5.667,5.667,0,0,0,5.65,5.65H45.317V103.7h-5.65a1.91,1.91,0,0,0-1.507.753l-5.65,7.533A1.883,1.883,0,0,0,34.017,115H82.983a1.883,1.883,0,0,0,1.507-3.013l-5.65-7.533a1.91,1.91,0,0,0-1.507-.753h-5.65V96.167H109.35a5.667,5.667,0,0,0,5.65-5.65V30.25a5.667,5.667,0,0,0-5.65-5.65ZM60.383,5.9a15.025,15.025,0,0,1,8.927,4.463L64.9,13.677l2.26,3.013,4.407-3.315a14.963,14.963,0,0,1,2,7.458H60.383ZM45.43,13.375l4.407,3.315,2.26-3.013L47.69,10.362A15.025,15.025,0,0,1,56.617,5.9V22.717A1.883,1.883,0,0,0,58.5,24.6H73.077A15.057,15.057,0,1,1,45.43,13.375Zm30.962,94.091,2.825,3.767H37.783l2.825-3.767ZM49.083,103.7V96.167H67.917V103.7Zm62.15-13.183A1.883,1.883,0,0,1,109.35,92.4H7.65a1.883,1.883,0,0,1-1.883-1.883v-5.65H111.233Zm0-9.417H5.767V30.25A1.883,1.883,0,0,1,7.65,28.367h33.6a18.818,18.818,0,0,0,34.5,0h33.6a1.883,1.883,0,0,1,1.883,1.883Z" transform="translate(0 0)"/>
      <path id="Trazado_818744" data-name="Trazado 818744" d="M54,2h7.533V5.767H54Z" transform="translate(45.933 0)"/>
      <path id="Trazado_818745" data-name="Trazado 818745" d="M44,6h3.767V9.767H44Z" transform="translate(37.1 3.533)"/>
      <path id="Trazado_818746" data-name="Trazado 818746" d="M48,6H66.833V9.767H48Z" transform="translate(40.633 3.533)"/>
      <path id="Trazado_818747" data-name="Trazado 818747" d="M44,10H59.067v3.767H44Z" transform="translate(37.1 7.067)"/>
      <path id="Trazado_818748" data-name="Trazado 818748" d="M54,10h7.533v3.767H54Z" transform="translate(45.933 7.067)"/>
      <path id="Trazado_818749" data-name="Trazado 818749" d="M6,2h7.533V5.767H6Z" transform="translate(3.533 0)"/>
      <path id="Trazado_818750" data-name="Trazado 818750" d="M18,6h3.767V9.767H18Z" transform="translate(14.133 3.533)"/>
      <path id="Trazado_818751" data-name="Trazado 818751" d="M6,6H24.833V9.767H6Z" transform="translate(3.533 3.533)"/>
      <path id="Trazado_818752" data-name="Trazado 818752" d="M12,10H27.067v3.767H12Z" transform="translate(8.833 7.067)"/>
      <path id="Trazado_818753" data-name="Trazado 818753" d="M6,10h7.533v3.767H6Z" transform="translate(3.533 7.067)"/>
      <path id="Trazado_818754" data-name="Trazado 818754" d="M6,32h9.417v3.767H6Z" transform="translate(3.533 26.5)"/>
      <path id="Trazado_818755" data-name="Trazado 818755" d="M13,32H48.783v3.767H13Z" transform="translate(9.717 26.5)"/>
      <path id="Trazado_818756" data-name="Trazado 818756" d="M6,36H36.133v3.767H6Z" transform="translate(3.533 30.033)"/>
      <path id="Trazado_818757" data-name="Trazado 818757" d="M24,36H39.067v3.767H24Z" transform="translate(19.433 30.033)"/>
      <path id="Trazado_818758" data-name="Trazado 818758" d="M6,40H24.833v3.767H6Z" transform="translate(3.533 33.567)"/>
      <path id="Trazado_818759" data-name="Trazado 818759" d="M18,40H44.367v3.767H18Z" transform="translate(14.133 33.567)"/>
      <path id="Trazado_818760" data-name="Trazado 818760" d="M37.883,50.833h7.533A1.883,1.883,0,0,0,47.3,48.95V33.883A1.883,1.883,0,0,0,45.417,32H37.883A1.883,1.883,0,0,0,36,33.883V48.95A1.883,1.883,0,0,0,37.883,50.833Zm1.883-15.067h3.767v11.3H39.767Z" transform="translate(30.033 26.5)"/>
      <path id="Trazado_818761" data-name="Trazado 818761" d="M53.417,28H45.883A1.883,1.883,0,0,0,44,29.883v22.6a1.883,1.883,0,0,0,1.883,1.883h7.533A1.883,1.883,0,0,0,55.3,52.483v-22.6A1.883,1.883,0,0,0,53.417,28ZM51.533,50.6H47.767V31.767h3.767Z" transform="translate(37.1 22.967)"/>
      <path id="Trazado_818762" data-name="Trazado 818762" d="M61.417,26H53.883A1.883,1.883,0,0,0,52,27.883V54.25a1.883,1.883,0,0,0,1.883,1.883h7.533A1.883,1.883,0,0,0,63.3,54.25V27.883A1.883,1.883,0,0,0,61.417,26ZM59.533,52.367H55.767v-22.6h3.767Z" transform="translate(44.167 21.2)"/>
      <path id="Trazado_818763" data-name="Trazado 818763" d="M17.3,40.6A11.311,11.311,0,0,0,28.6,29.3a1.883,1.883,0,0,0-1.883-1.883H19.183V19.883A1.883,1.883,0,0,0,17.3,18a11.3,11.3,0,0,0,0,22.6ZM15.417,22v7.3A1.883,1.883,0,0,0,17.3,31.183h7.294A7.533,7.533,0,1,1,15.417,22Z" transform="translate(3.533 14.133)"/>
      <path id="Trazado_818764" data-name="Trazado 818764" d="M20,24h3.767v3.767H20Z" transform="translate(15.9 19.433)"/>
      <path id="Trazado_818765" data-name="Trazado 818765" d="M24,24H39.067v3.767H24Z" transform="translate(19.433 19.433)"/>
      <path id="Trazado_818766" data-name="Trazado 818766" d="M20,28H42.6v3.767H20Z" transform="translate(15.9 22.967)"/>
      <path id="Trazado_818767" data-name="Trazado 818767" d="M47.112,39.559l3.236-6.492H60.483a1.883,1.883,0,0,0,1.448-.678l8.852-10.622h6.65V18H69.9a1.883,1.883,0,0,0-1.448.678L59.6,29.3H49.183a1.883,1.883,0,0,0-1.7,1.041l-3.236,6.492H36V40.6h9.417a1.883,1.883,0,0,0,1.695-1.041Z" transform="translate(30.033 14.133)"/>
    </g>
  </g>
</svg>
