<svg xmlns="http://www.w3.org/2000/svg" xmlns:xlink="http://www.w3.org/1999/xlink" width="295" height="121.41" viewBox="0 0 295 121.41">
  <defs>
    <clipPath id="clip-path">
      <path id="path1659" d="M0-682.665H121.41v121.41H0Z" transform="translate(0 682.665)"/>
    </clipPath>
  </defs>
  <g id="Grupo_1076082" data-name="Grupo 1076082" transform="translate(-377 -4617)">
    <rect id="Rectángulo_375759" data-name="Rectángulo 375759" width="295" height="102" rx="13" transform="translate(377 4627)" fill="#dbefed"/>
    <g id="g1653" transform="translate(464 5299.665)">
      <g id="g1655" transform="translate(0 -682.665)">
        <g id="g1657" clip-path="url(#clip-path)">
          <g id="g1663" transform="translate(63.133 11.699)">
            <path id="path1665" d="M-67.541-77.9H-79.91a2.241,2.241,0,0,1-2.241-2.241V-92.513a2.241,2.241,0,0,1,2.241-2.241h12.369A2.241,2.241,0,0,1-65.3-92.513v12.369A2.241,2.241,0,0,1-67.541-77.9" transform="translate(82.152 94.754)" fill="#fee45a"/>
          </g>
          <g id="g1667" transform="translate(63.133 38.963)">
            <path id="path1669" d="M-67.541-77.9H-79.91a2.241,2.241,0,0,1-2.241-2.241V-92.513a2.241,2.241,0,0,1,2.241-2.241h12.369A2.241,2.241,0,0,1-65.3-92.513v12.369A2.241,2.241,0,0,1-67.541-77.9" transform="translate(82.152 94.754)" fill="#fee45a"/>
          </g>
          <g id="g1671" transform="translate(63.133 66.228)">
            <path id="path1673" d="M-67.541-77.9H-79.91a2.241,2.241,0,0,1-2.241-2.241V-92.513a2.241,2.241,0,0,1,2.241-2.241h12.369A2.241,2.241,0,0,1-65.3-92.513v12.369A2.241,2.241,0,0,1-67.541-77.9" transform="translate(82.152 94.754)" fill="#fee45a"/>
          </g>
          <g id="g1675" transform="translate(63.133 93.492)">
            <path id="path1677" d="M-67.541-77.9H-79.91a2.241,2.241,0,0,1-2.241-2.241V-92.513a2.241,2.241,0,0,1,2.241-2.241h12.369A2.241,2.241,0,0,1-65.3-92.513v12.369A2.241,2.241,0,0,1-67.541-77.9" transform="translate(82.152 94.754)" fill="#fee45a"/>
          </g>
          <g id="g1679" transform="translate(72.841 11.698)">
            <path id="path1681" d="M-33.018-10.37V2a2.241,2.241,0,0,1-2.241,2.241h-4.9A2.243,2.243,0,0,0-37.917,2V-10.37a2.245,2.245,0,0,0-2.243-2.243h4.9a2.243,2.243,0,0,1,2.241,2.243" transform="translate(40.16 12.613)" fill="#fed402"/>
          </g>
          <g id="g1683" transform="translate(72.841 38.963)">
            <path id="path1685" d="M-33.018-10.359V2.01a2.241,2.241,0,0,1-2.241,2.243h-4.9A2.243,2.243,0,0,0-37.917,2.01V-10.359A2.243,2.243,0,0,0-40.16-12.6h4.9a2.241,2.241,0,0,1,2.241,2.241" transform="translate(40.16 12.6)" fill="#fed402"/>
          </g>
          <g id="g1687" transform="translate(72.841 66.228)">
            <path id="path1689" d="M-33.018-10.359V2.01A2.241,2.241,0,0,1-35.258,4.25h-4.9A2.243,2.243,0,0,0-37.917,2.01V-10.359A2.243,2.243,0,0,0-40.16-12.6h4.9a2.241,2.241,0,0,1,2.241,2.241" transform="translate(40.16 12.6)" fill="#fed402"/>
          </g>
          <g id="g1691" transform="translate(72.841 93.491)">
            <path id="path1693" d="M-33.018-10.359V2.012a2.241,2.241,0,0,1-2.241,2.241h-4.9a2.243,2.243,0,0,0,2.243-2.241V-10.359A2.243,2.243,0,0,0-40.16-12.6h4.9a2.241,2.241,0,0,1,2.241,2.241" transform="translate(40.16 12.6)" fill="#fed402"/>
          </g>
          <g id="g1695" transform="translate(61.354 9.921)">
            <path id="path1697" d="M-9.295-84.346h-3.68a1.778,1.778,0,0,1-1.778-1.778A1.778,1.778,0,0,1-12.975-87.9h3.68a.454.454,0,0,0,.327-.136.454.454,0,0,0,.136-.327v-12.369a.463.463,0,0,0-.463-.463H-21.664a.463.463,0,0,0-.463.463v12.369a.463.463,0,0,0,.463.463h.548a1.778,1.778,0,0,1,1.778,1.778,1.778,1.778,0,0,1-1.778,1.778h-.548a4.024,4.024,0,0,1-4.02-4.02v-12.369a4.024,4.024,0,0,1,4.02-4.02H-9.295a4.024,4.024,0,0,1,4.02,4.02v12.369a3.993,3.993,0,0,1-1.177,2.842A3.993,3.993,0,0,1-9.295-84.346Z" transform="translate(25.684 104.754)"/>
          </g>
          <g id="g1699" transform="translate(67.816 9.288)">
            <path id="path1701" d="M-3.885-36.7a3.141,3.141,0,0,1-2.247-.937L-9.484-41.02a1.778,1.778,0,0,1,.011-2.515,1.778,1.778,0,0,1,2.515.011l3.071,3.1L6.221-50.874a1.778,1.778,0,0,1,2.515-.041A1.778,1.778,0,0,1,8.778-48.4L-1.61-37.666a3.141,3.141,0,0,1-2.255.964Z" transform="translate(10 51.416)"/>
          </g>
          <g id="g1703" transform="translate(90.177 14.72)">
            <path id="path1705" d="M-100.3-6.443h-19.919A1.778,1.778,0,0,1-122-8.221,1.778,1.778,0,0,1-120.221-10H-100.3a1.778,1.778,0,0,1,1.778,1.778A1.778,1.778,0,0,1-100.3-6.443Z" transform="translate(122 10)"/>
          </g>
          <g id="g1707" transform="translate(90.177 21.972)">
            <path id="path1709" d="M-100.3-6.443h-19.919A1.778,1.778,0,0,1-122-8.221,1.778,1.778,0,0,1-120.221-10H-100.3a1.778,1.778,0,0,1,1.778,1.778A1.778,1.778,0,0,1-100.3-6.443Z" transform="translate(122 10)"/>
          </g>
          <g id="g1711" transform="translate(61.354 37.185)">
            <path id="path1713" d="M-75.763-84.346H-88.132a4.024,4.024,0,0,1-4.02-4.02v-12.369a4.024,4.024,0,0,1,4.02-4.02h12.369a4.024,4.024,0,0,1,4.02,4.02v12.369A4.024,4.024,0,0,1-75.763-84.346ZM-88.132-101.2a.463.463,0,0,0-.463.463v12.369a.463.463,0,0,0,.463.463h12.369a.463.463,0,0,0,.463-.463v-12.369a.463.463,0,0,0-.463-.463Z" transform="translate(92.152 104.754)"/>
          </g>
          <g id="g1715" transform="translate(67.816 36.552)">
            <path id="path1717" d="M-3.885-36.7a3.141,3.141,0,0,1-2.247-.936l-3.352-3.382a1.778,1.778,0,0,1,.011-2.515,1.778,1.778,0,0,1,2.515.011l3.07,3.1L6.221-50.873a1.778,1.778,0,0,1,2.515-.041A1.778,1.778,0,0,1,8.778-48.4L-1.61-37.665a3.141,3.141,0,0,1-2.255.964Z" transform="translate(10 51.415)"/>
          </g>
          <g id="g1719" transform="translate(90.177 41.985)">
            <path id="path1721" d="M-100.3-6.443h-19.919A1.778,1.778,0,0,1-122-8.221,1.778,1.778,0,0,1-120.221-10H-100.3a1.778,1.778,0,0,1,1.778,1.778A1.778,1.778,0,0,1-100.3-6.443Z" transform="translate(122 10)"/>
          </g>
          <g id="g1723" transform="translate(90.177 49.237)">
            <path id="path1725" d="M-100.3-6.443h-19.919A1.778,1.778,0,0,1-122-8.221,1.778,1.778,0,0,1-120.221-10H-100.3a1.778,1.778,0,0,1,1.778,1.778A1.778,1.778,0,0,1-100.3-6.443Z" transform="translate(122 10)"/>
          </g>
          <g id="g1727" transform="translate(61.354 64.449)">
            <path id="path1729" d="M-75.763-84.346H-88.132a4.024,4.024,0,0,1-4.02-4.02v-12.369a4.024,4.024,0,0,1,4.02-4.02h12.369a4.024,4.024,0,0,1,4.02,4.02v12.369A4.024,4.024,0,0,1-75.763-84.346ZM-88.132-101.2a.463.463,0,0,0-.463.463v12.369a.463.463,0,0,0,.463.463h12.369a.463.463,0,0,0,.463-.463v-12.369a.463.463,0,0,0-.463-.463Z" transform="translate(92.152 104.754)"/>
          </g>
          <g id="g1731" transform="translate(67.816 63.816)">
            <path id="path1733" d="M-3.885-36.7a3.141,3.141,0,0,1-2.247-.936l-3.352-3.382a1.778,1.778,0,0,1,.011-2.515,1.778,1.778,0,0,1,2.515.011l3.07,3.1L6.221-50.873a1.778,1.778,0,0,1,2.515-.041A1.778,1.778,0,0,1,8.778-48.4L-1.61-37.665a3.141,3.141,0,0,1-2.255.964Z" transform="translate(10 51.415)"/>
          </g>
          <g id="g1735" transform="translate(90.177 69.249)">
            <path id="path1737" d="M-100.3-6.443h-19.919A1.778,1.778,0,0,1-122-8.221,1.778,1.778,0,0,1-120.221-10H-100.3a1.778,1.778,0,0,1,1.778,1.778A1.778,1.778,0,0,1-100.3-6.443Z" transform="translate(122 10)"/>
          </g>
          <g id="g1739" transform="translate(90.177 76.501)">
            <path id="path1741" d="M-100.3-6.443h-19.919A1.778,1.778,0,0,1-122-8.221,1.778,1.778,0,0,1-120.221-10H-100.3a1.778,1.778,0,0,1,1.778,1.778A1.778,1.778,0,0,1-100.3-6.443Z" transform="translate(122 10)"/>
          </g>
          <g id="g1743" transform="translate(61.354 91.713)">
            <path id="path1745" d="M-75.763-84.346H-88.132a4.024,4.024,0,0,1-4.02-4.02v-12.369a4.024,4.024,0,0,1,4.02-4.02h12.369a4.024,4.024,0,0,1,4.02,4.02v12.369A4.024,4.024,0,0,1-75.763-84.346ZM-88.132-101.2a.463.463,0,0,0-.463.463v12.369a.463.463,0,0,0,.463.463h12.369a.463.463,0,0,0,.463-.463v-12.369a.463.463,0,0,0-.463-.463Z" transform="translate(92.152 104.754)"/>
          </g>
          <g id="g1747" transform="translate(67.816 91.081)">
            <path id="path1749" d="M-3.885-36.7a3.141,3.141,0,0,1-2.247-.936l-3.352-3.382a1.778,1.778,0,0,1,.011-2.515,1.778,1.778,0,0,1,2.515.011l3.07,3.1L6.221-50.873a1.778,1.778,0,0,1,2.515-.041A1.778,1.778,0,0,1,8.778-48.4L-1.61-37.665a3.141,3.141,0,0,1-2.255.964Z" transform="translate(10 51.415)"/>
          </g>
          <g id="g1751" transform="translate(90.177 96.513)">
            <path id="path1753" d="M-100.3-6.443h-19.919A1.778,1.778,0,0,1-122-8.221,1.778,1.778,0,0,1-120.221-10H-100.3a1.778,1.778,0,0,1,1.778,1.778A1.778,1.778,0,0,1-100.3-6.443Z" transform="translate(122 10)"/>
          </g>
          <g id="g1755" transform="translate(90.177 103.765)">
            <path id="path1757" d="M-100.3-6.443h-19.919A1.778,1.778,0,0,1-122-8.221,1.778,1.778,0,0,1-120.221-10H-100.3a1.778,1.778,0,0,1,1.778,1.778A1.778,1.778,0,0,1-100.3-6.443Z" transform="translate(122 10)"/>
          </g>
          <g id="g1759" transform="translate(9.536 28.25)">
            <path id="path1761" d="M-133.422-40.114a2.386,2.386,0,0,1-1.69-2.289v-6.388h-9.522V-42.4a2.386,2.386,0,0,1-1.69,2.289,22.419,22.419,0,0,0-15.96,21.467V-.74a5.007,5.007,0,0,0,5.007,5.007A5.007,5.007,0,0,0-152.269-.74l.077,37.143a6.158,6.158,0,0,0,6.158,6.157,6.157,6.157,0,0,0,6.157-6.157h.008a6.158,6.158,0,0,0,6.158,6.157,6.157,6.157,0,0,0,6.157-6.157l.078-37.143a5.007,5.007,0,0,0,5.007,5.007A5.007,5.007,0,0,0-117.462-.74V-18.648a22.419,22.419,0,0,0-15.96-21.467" transform="translate(162.284 48.792)" fill="#60b8fe"/>
          </g>
          <g id="g1763" transform="translate(31.648 28.25)">
            <path id="path1765" d="M-104.985-139.349v17.908a5,5,0,0,1-1.466,3.542,5,5,0,0,1-3.542,1.466,4.974,4.974,0,0,1-2.53-.686,4.945,4.945,0,0,0,1.012-.78,5,5,0,0,0,1.466-3.542v-17.908c0-8.186-5.847-13.8-14.117-16.762a5.3,5.3,0,0,1-3.534-4.983v-8.4h5.059v6.39a2.384,2.384,0,0,0,1.69,2.288,22.421,22.421,0,0,1,15.96,21.466" transform="translate(127.696 169.493)" fill="#27a5fe"/>
          </g>
          <g id="g1767" transform="translate(17.85 53.968)">
            <path id="path1769" d="M-128.275,55.642a7.925,7.925,0,0,1-6.162-2.94,7.925,7.925,0,0,1-6.162,2.94,7.945,7.945,0,0,1-7.936-7.936v-57.7a1.778,1.778,0,0,1,1.778-1.778,1.778,1.778,0,0,1,1.778,1.778v57.7a4.384,4.384,0,0,0,4.379,4.379,4.384,4.384,0,0,0,4.379-4.379l.008-33.394a1.781,1.781,0,0,1,1.779-1.778,1.778,1.778,0,0,1,1.778,1.778V47.706a4.384,4.384,0,0,0,4.379,4.379,4.384,4.384,0,0,0,4.379-4.379V-9.677a1.778,1.778,0,0,1,1.778-1.778,1.778,1.778,0,0,1,1.778,1.778V47.706A7.945,7.945,0,0,1-128.275,55.642Z" transform="translate(148.534 11.771)"/>
          </g>
          <g id="g1771" transform="translate(7.758 70.072)">
            <path id="path1773" d="M-3.214,3.016A6.793,6.793,0,0,1-10-3.77V-8.221A1.778,1.778,0,0,1-8.222-10,1.778,1.778,0,0,1-6.443-8.221V-3.77A3.232,3.232,0,0,0-3.214-.541,3.309,3.309,0,0,0,.086-3.77V-6.56A1.778,1.778,0,0,1,1.865-8.338,1.778,1.778,0,0,1,3.643-6.56v2.79A6.83,6.83,0,0,1-3.214,3.016Z" transform="translate(10 10)"/>
          </g>
          <g id="g1775" transform="translate(7.758 26.472)">
            <path id="path1777" d="M-163.786-207.882a6.823,6.823,0,0,1-6.845-6.786v-2.79a1.778,1.778,0,0,1,1.778-1.778,1.778,1.778,0,0,1,1.778,1.778v2.79a3.263,3.263,0,0,0,3.289,3.229,3.232,3.232,0,0,0,3.229-3.229v-17.907a20.762,20.762,0,0,0-14.692-19.763,4.19,4.19,0,0,1-2.957-3.993v-4.61h-5.965v4.61a4.19,4.19,0,0,1-2.957,3.993,20.762,20.762,0,0,0-14.693,19.763v5.393A1.778,1.778,0,0,1-203.6-225.4a1.778,1.778,0,0,1-1.778-1.778v-5.393a24.342,24.342,0,0,1,17.227-23.17.61.61,0,0,0,.422-.586v-6.388a1.778,1.778,0,0,1,1.778-1.778h9.522a1.778,1.778,0,0,1,1.778,1.778v6.388a.61.61,0,0,0,.423.586A24.342,24.342,0,0,1-157-232.575v17.907A6.793,6.793,0,0,1-163.786-207.882Z" transform="translate(205.38 264.498)"/>
          </g>
          <g id="g1779" transform="translate(16.084 1.808)">
            <path id="path1781" d="M-143.4-71.7A15.509,15.509,0,0,1-158.9-56.188,15.509,15.509,0,0,1-174.414-71.7,15.51,15.51,0,0,1-158.9-87.206,15.51,15.51,0,0,1-143.4-71.7" transform="translate(174.414 87.206)" fill="#fed2a4"/>
          </g>
          <g id="g1783" transform="translate(23.686 2.218)">
            <path id="path1785" d="M-108.254-69.8a15.51,15.51,0,0,1-15.509,15.509,15.424,15.424,0,0,1-7.909-2.165,15.516,15.516,0,0,0,3.551.41,15.509,15.509,0,0,0,15.511-15.509,15.5,15.5,0,0,0-7.6-13.344,15.512,15.512,0,0,1,11.957,15.1" transform="translate(131.672 84.898)" fill="#ffbd86"/>
          </g>
          <g id="g1787" transform="translate(14.306 0.03)">
            <path id="path1789" d="M-167.126-97.206a17.307,17.307,0,0,1,17.288,17.288,17.307,17.307,0,0,1-17.288,17.288,17.308,17.308,0,0,1-17.288-17.288A17.308,17.308,0,0,1-167.126-97.206Zm0,31.019A13.747,13.747,0,0,0-153.4-79.919,13.747,13.747,0,0,0-167.126-93.65a13.747,13.747,0,0,0-13.731,13.731A13.747,13.747,0,0,0-167.126-66.188Z" transform="translate(184.414 97.206)"/>
          </g>
          <g id="g1791" transform="translate(26.902 21.233)">
            <path id="path1793" d="M-41.04-4.913A5.752,5.752,0,0,1-45.668-7.22a1.778,1.778,0,0,1,.348-2.491,1.778,1.778,0,0,1,2.491.348,2.224,2.224,0,0,0,1.789.892,2.224,2.224,0,0,0,1.783-.885,1.778,1.778,0,0,1,2.492-.339A1.778,1.778,0,0,1-36.426-7.2,5.754,5.754,0,0,1-41.04-4.913Z" transform="translate(46.027 10.07)"/>
          </g>
        </g>
      </g>
    </g>
  </g>
</svg>
