<svg xmlns="http://www.w3.org/2000/svg" width="102.802" height="102.802" viewBox="0 0 102.802 102.802">
  <g id="Grupo_1071920" data-name="Grupo 1071920" transform="translate(-0.5 -0.431)">
    <path id="Trazado_813500" data-name="Trazado 813500" d="M51.4,0a51.4,51.4,0,1,0,51.4,51.4A51.4,51.4,0,0,0,51.4,0Z" transform="translate(0.5 0.431)" fill="#8054f8"/>
    <g id="analitica-" transform="translate(21.5 20.43)">
      <path id="Trazado_818486" data-name="Trazado 818486" d="M18.654,60.688H14.808A4.808,4.808,0,0,1,10,55.88V14.808A4.808,4.808,0,0,1,14.808,10h49.52a4.808,4.808,0,0,1,4.808,4.808V55.88a4.808,4.808,0,0,1-4.808,4.808H18.654Z" transform="translate(-8.798 -8.798)" fill="#fff"/>
      <path id="Trazado_818487" data-name="Trazado 818487" d="M64.327,10H14.808A4.808,4.808,0,0,0,10,14.808v3.846H69.135V14.808A4.808,4.808,0,0,0,64.327,10Z" transform="translate(-8.798 -8.798)" fill="#ff5a5a"/>
      <path id="Trazado_818488" data-name="Trazado 818488" d="M21,82H78.1" transform="translate(-18.479 -72.144)" fill="#231f20"/>
      <rect id="Rectángulo_381624" data-name="Rectángulo 381624" width="8" height="14" transform="translate(6.77 46.77)" fill="#a5dc69"/>
      <rect id="Rectángulo_381625" data-name="Rectángulo 381625" width="8" height="17" transform="translate(33.77 43.77)" fill="#78d2fa"/>
      <rect id="Rectángulo_381626" data-name="Rectángulo 381626" width="7.692" height="26.511" transform="translate(20.193 33.826)" fill="#f5c86e"/>
      <rect id="Rectángulo_381627" data-name="Rectángulo 381627" width="7.692" height="28.306" transform="translate(47.116 32.032)" fill="#ff5a5a"/>
      <circle id="Elipse_4752" data-name="Elipse 4752" cx="3.125" cy="3.125" r="3.125" transform="translate(20.237 17.541)" fill="#f5c86e"/>
      <circle id="Elipse_4753" data-name="Elipse 4753" cx="3.125" cy="3.125" r="3.125" transform="translate(34.264 31.851)" fill="#78d2fa"/>
      <circle id="Elipse_4754" data-name="Elipse 4754" cx="3.125" cy="3.125" r="3.125" transform="translate(47.837 17.541)" fill="#ff5a5a"/>
      <circle id="Elipse_4755" data-name="Elipse 4755" cx="3.125" cy="3.125" r="3.125" transform="translate(7.373 30.701)" fill="#a5dc69"/>
      <path id="Trazado_818489" data-name="Trazado 818489" d="M57.342,52.945a4.2,4.2,0,0,0,4.2-4.2V6.01A6.016,6.016,0,0,0,55.529,0H6.01A6.016,6.016,0,0,0,0,6.01V48.749a4.2,4.2,0,0,0,4.2,4.2H5.529v6.19H1.2a1.2,1.2,0,0,0,0,2.4H60.337a1.2,1.2,0,1,0,0-2.4H56.01v-6.19ZM6.01,2.4h49.52A3.61,3.61,0,0,1,59.135,6.01V8.654H2.525c-.041,0-.081,0-.121.006V6.01A3.61,3.61,0,0,1,6.01,2.4ZM7.933,59.135V48.318h5.289V59.135Zm13.462,0V35.028h5.289V59.135Zm13.462,0V45.193h5.289V59.135Zm13.462,0V46.184a1.2,1.2,0,1,0-2.4,0V59.135H42.548V43.991a1.2,1.2,0,0,0-1.2-1.2H33.654a1.2,1.2,0,0,0-1.2,1.2V59.135H29.087V33.826a1.2,1.2,0,0,0-1.2-1.2H20.193a1.2,1.2,0,0,0-1.2,1.2V59.135H15.625V47.116a1.2,1.2,0,0,0-1.2-1.2H6.731a1.2,1.2,0,0,0-1.2,1.2v3.426H4.2A1.8,1.8,0,0,1,2.4,48.749v-37.7c.04,0,.08.006.121.006H59.135V48.749a1.8,1.8,0,0,1-1.793,1.793H56.01V32.032a1.2,1.2,0,0,0-1.2-1.2H47.116a1.2,1.2,0,0,0-1.2,1.2V38.1a1.2,1.2,0,0,0,2.4,0V33.233h5.289v25.9Z"/>
      <path id="Trazado_818490" data-name="Trazado 818490" d="M213.267,38.4h27.156a1.2,1.2,0,0,0,0-2.4H213.267a1.2,1.2,0,1,0,0,2.4Z" transform="translate(-186.576 -31.673)"/>
      <path id="Trazado_818491" data-name="Trazado 818491" d="M95.2,38.4a1.2,1.2,0,1,0-.85-.352A1.211,1.211,0,0,0,95.2,38.4Z" transform="translate(-82.702 -31.673)"/>
      <path id="Trazado_818492" data-name="Trazado 818492" d="M55.2,38.4a1.2,1.2,0,1,0-.85-.352A1.211,1.211,0,0,0,55.2,38.4Z" transform="translate(-47.51 -31.673)"/>
      <path id="Trazado_818493" data-name="Trazado 818493" d="M135.2,38.4a1.2,1.2,0,1,0-.85-.352A1.211,1.211,0,0,0,135.2,38.4Z" transform="translate(-117.894 -31.673)"/>
      <path id="Trazado_818494" data-name="Trazado 818494" d="M383.2,342.64a1.2,1.2,0,1,0,.85.352A1.206,1.206,0,0,0,383.2,342.64Z" transform="translate(-336.086 -301.457)"/>
      <path id="Trazado_818495" data-name="Trazado 818495" d="M96.128,144.593a4.333,4.333,0,1,0-3.5-1.789l-7.984,7.984a4.317,4.317,0,0,0-3.99-.1l-8.337-8.337a4.327,4.327,0,1,0-7.467.186l-7.1,7.1a4.33,4.33,0,1,0,1.7,1.7l7.183-7.183a4.317,4.317,0,0,0,3.982-.1l8.255,8.255a4.327,4.327,0,1,0,7.472.179l8.2-8.2A4.3,4.3,0,0,0,96.128,144.593Zm0-6.25a1.923,1.923,0,1,1-1.923,1.923A1.925,1.925,0,0,1,96.128,138.343ZM55.663,155.349a1.923,1.923,0,1,1,1.923-1.923A1.925,1.925,0,0,1,55.663,155.349Zm12.865-13.16a1.923,1.923,0,1,1,1.923-1.923A1.925,1.925,0,0,1,68.528,142.189ZM82.555,156.5a1.923,1.923,0,1,1,1.923-1.923A1.925,1.925,0,0,1,82.555,156.5Z" transform="translate(-45.166 -119.6)"/>
      <path id="Trazado_818496" data-name="Trazado 818496" d="M132.462,128.424a1.2,1.2,0,1,0-.851-.352A1.213,1.213,0,0,0,132.462,128.424Z" transform="translate(-115.483 -110.873)"/>
      <path id="Trazado_818497" data-name="Trazado 818497" d="M47.2,128.425h5.769a1.2,1.2,0,1,0,0-2.4H47.2a1.2,1.2,0,1,0,0,2.4Z" transform="translate(-40.471 -110.874)"/>
      <path id="Trazado_818498" data-name="Trazado 818498" d="M52.971,176.425a1.2,1.2,0,1,0,0-2.4H47.2a1.2,1.2,0,1,0,0,2.4Z" transform="translate(-40.471 -153.105)"/>
    </g>
  </g>
</svg>
