<svg xmlns="http://www.w3.org/2000/svg" width="295" height="120.669" viewBox="0 0 295 120.669">
  <g id="Grupo_1076083" data-name="Grupo 1076083" transform="translate(-943 -4782)">
    <rect id="Rectángulo_375760" data-name="Rectángulo 375760" width="295" height="102" rx="13" transform="translate(943 4792)" fill="#dbefed"/>
    <g id="comportamiento" transform="translate(1026.798 4777.171)">
      <g id="Grupo_1072243" data-name="Grupo 1072243" transform="translate(36.302 54.055)">
        <path id="Trazado_818691" data-name="Trazado 818691" d="M111.813,187.094h-25.9a14.573,14.573,0,0,0-14.573,14.573V218.01h55.044V201.667A14.573,14.573,0,0,0,111.813,187.094Z" transform="translate(-71.342 -147.783)" fill="#72c2e9"/>
        <path id="Trazado_818692" data-name="Trazado 818692" d="M111.813,187.094h-25.9a14.573,14.573,0,0,0-14.573,14.573V218.01h55.044V201.667A14.573,14.573,0,0,0,111.813,187.094Z" transform="translate(-71.342 -147.783)" fill="#fc5d3d"/>
        <path id="Trazado_818693" data-name="Trazado 818693" d="M163,235.879h10.519V243.1H163Z" transform="translate(-118.478 -172.87)" fill="#ffb69f"/>
        <path id="Trazado_818694" data-name="Trazado 818694" d="M128.916,118.516l-1.723,1.749H99.621v-3.994a6.258,6.258,0,0,1,6.26-6.254h14.867a4.734,4.734,0,0,0,4.65-3.85l2.5,1.708a6.969,6.969,0,0,1,1.022,10.641Z" transform="translate(-85.884 -106.167)" fill="#7c7b7a"/>
        <g id="Grupo_1072242" data-name="Grupo 1072242" transform="translate(0 14.098)">
          <path id="Trazado_818695" data-name="Trazado 818695" d="M122.914,141.156h-1.4V135.19H93.942v5.971H92.558a3.965,3.965,0,1,0,0,7.93h1.606a13.311,13.311,0,0,0,13.52,11.311c6.151,0,12.318-3.8,13.618-11.311h1.612a3.968,3.968,0,0,0,0-7.935Z" transform="translate(-80.211 -135.19)" fill="#ffb69f"/>
          <path id="Trazado_818696" data-name="Trazado 818696" d="M71.343,235.879H81.91V243.1H71.343Z" transform="translate(-71.343 -186.968)" fill="#ffb69f"/>
        </g>
      </g>
      <path id="Trazado_818697" data-name="Trazado 818697" d="M126.827,27.336a20,20,0,1,0-23.957,19.611l3.954,6.331,3.954-6.331a20.009,20.009,0,0,0,16.05-19.611Z" transform="translate(-43 -1.288)" fill="#efefef"/>
      <path id="Trazado_818698" data-name="Trazado 818698" d="M202.023,174.037c-1.811-.6-3.226-.982-4.173-5.062a1.293,1.293,0,0,0-2.517,0c-.926,3.99-2.218,4.417-4.173,5.063a1.293,1.293,0,0,0,0,2.454c3.248,1.073,3.616,2.66,4.173,5.062a1.292,1.292,0,0,0,2.517,0c.925-3.989,2.287-4.439,4.173-5.062A1.294,1.294,0,0,0,202.023,174.037Z" transform="translate(-96.2 -83.898)"/>
      <path id="Trazado_818699" data-name="Trazado 818699" d="M203.162,180.694a6.4,6.4,0,0,0-1.909,2.157,6.7,6.7,0,0,0-2.026-2.137,6.378,6.378,0,0,0,2-2.254,6.605,6.605,0,0,0,1.933,2.235Z" transform="translate(-100.803 -89.287)" fill="#f0c020"/>
      <path id="Trazado_818700" data-name="Trazado 818700" d="M51.469,174.037c-1.811-.6-3.226-.982-4.173-5.062a1.293,1.293,0,0,0-2.517,0c-.926,3.99-2.218,4.417-4.173,5.063a1.293,1.293,0,0,0,0,2.454c3.248,1.073,3.616,2.66,4.173,5.062a1.292,1.292,0,0,0,2.517,0c.925-3.989,2.287-4.439,4.173-5.062A1.294,1.294,0,0,0,51.469,174.037Z" transform="translate(-18.78 -83.898)"/>
      <path id="Trazado_818701" data-name="Trazado 818701" d="M52.608,180.694A6.4,6.4,0,0,0,50.7,182.85a6.7,6.7,0,0,0-2.026-2.137,6.378,6.378,0,0,0,2-2.254,6.605,6.605,0,0,0,1.933,2.235Z" transform="translate(-23.383 -89.287)" fill="#f0c020"/>
      <g id="Grupo_1072244" data-name="Grupo 1072244" transform="translate(4.416 30.981)">
        <path id="Trazado_818702" data-name="Trazado 818702" d="M40.762,88.243a19.1,19.1,0,1,0-5.484,5.484l7.969,2.486Z" transform="translate(-5.702 -58.667)" fill="#efefef"/>
      </g>
      <g id="Grupo_1072245" data-name="Grupo 1072245" transform="translate(10.246 36.811)">
        <circle id="Elipse_4790" data-name="Elipse 4790" cx="13.268" cy="13.268" r="13.268" fill="#72c2e9"/>
      </g>
      <circle id="Elipse_4791" data-name="Elipse 4791" cx="13.268" cy="13.268" r="13.268" transform="translate(50.556 12.78)" fill="#f0c020"/>
      <g id="Grupo_1072246" data-name="Grupo 1072246" transform="translate(85.037 30.981)">
        <path id="Trazado_818703" data-name="Trazado 818703" d="M180.288,93.726a19.1,19.1,0,1,0-5.484-5.484l-2.486,7.969Z" transform="translate(-171.67 -58.666)" fill="#efefef"/>
      </g>
      <circle id="Elipse_4792" data-name="Elipse 4792" cx="13.268" cy="13.268" r="13.268" transform="translate(90.867 36.811)" fill="#fc5d3d"/>
      <g id="Grupo_1072247" data-name="Grupo 1072247" transform="translate(49.66 97.01)">
        <path id="Trazado_818704" data-name="Trazado 818704" d="M135.67,210.214A1.214,1.214,0,0,1,134.455,209v-3.476a8.511,8.511,0,0,0-8.5-8.5H106.371a1.214,1.214,0,1,1,0-2.429h19.584a10.942,10.942,0,0,1,10.93,10.93V209A1.214,1.214,0,0,1,135.67,210.214Zm-34.157-13.191h-1.457a1.214,1.214,0,1,1,0-2.429h1.457a1.214,1.214,0,1,1,0,2.429Z" transform="translate(-98.841 -194.594)" fill="#ffcbc3"/>
      </g>
      <path id="Trazado_818705" data-name="Trazado 818705" d="M126.9,165.559a1.236,1.236,0,0,0-1.564.709,3.086,3.086,0,0,1-2.871,1.992h-.01a3.041,3.041,0,0,1-2.871-1.987,1.213,1.213,0,0,0-2.244-.082,1.193,1.193,0,0,0-.034.923v0a5.506,5.506,0,0,0,10.308,0,1.218,1.218,0,0,0-.714-1.565Z" transform="translate(-58.639 -82.614)"/>
      <path id="Trazado_818706" data-name="Trazado 818706" d="M114.718,148.41a1.214,1.214,0,0,0-2.429,0v.812a1.214,1.214,0,1,0,2.429,0Z" transform="translate(-56.097 -73.211)"/>
      <path id="Trazado_818707" data-name="Trazado 818707" d="M139.915,147.2a1.214,1.214,0,0,0-1.214,1.214v.812a1.214,1.214,0,1,0,2.429,0v-.812A1.214,1.214,0,0,0,139.915,147.2Z" transform="translate(-69.679 -73.211)"/>
      <path id="Trazado_818708" data-name="Trazado 818708" d="M126.709,155a1.214,1.214,0,0,0,1.214-1.214v-3.7a1.214,1.214,0,1,0-2.429,0v3.7A1.214,1.214,0,0,0,126.709,155Z" transform="translate(-62.888 -74.07)"/>
      <path id="Trazado_818709" data-name="Trazado 818709" d="M68.841,158.764v16.343a1.214,1.214,0,0,0,2.429,0v-6h8.139v6a1.214,1.214,0,1,0,2.429,0v-13.6a1.214,1.214,0,1,0-2.429,0v5.163H71.27v-7.91a13.374,13.374,0,0,1,13.358-13.358h25.9a13.374,13.374,0,0,1,13.358,13.358v7.91H115.8v-5.164a1.214,1.214,0,1,0-2.429,0v13.6a1.214,1.214,0,1,0,2.429,0v-6h8.089v6a1.214,1.214,0,0,0,2.429,0V158.764a15.805,15.805,0,0,0-15.787-15.787h-4.563a14.082,14.082,0,0,0,6.173-8.884h.623a5.184,5.184,0,1,0-.186-10.364V119.48l1.377-1.4a8.184,8.184,0,0,0-1.2-12.5l-2.5-1.708a1.215,1.215,0,0,0-1.878.776,3.521,3.521,0,0,1-3.447,2.861h-3.7a1.214,1.214,0,1,0,0,2.429h3.693a5.955,5.955,0,0,0,5.261-3.174l1.2.821a5.755,5.755,0,0,1,.841,8.785l-1.367,1.387H85.007v-2.78a5.048,5.048,0,0,1,5.045-5.04h1.459a1.214,1.214,0,0,0,0-2.429H90.036a7.479,7.479,0,0,0-7.458,7.468c0,3.054-.005,4-.005,8.751a5.181,5.181,0,1,0-.17,10.358h.62a14.17,14.17,0,0,0,6.146,8.884H84.629A15.807,15.807,0,0,0,68.841,158.764Zm43.735-32.606a2.76,2.76,0,1,1-.044,5.507c.01-.125.045-.9.045-1.186v-4.32Zm-32.929,2.756a2.763,2.763,0,0,1,2.926-2.75v4.316c0,.317.014.734.049,1.184A2.769,2.769,0,0,1,79.647,128.914ZM85,130.478c0-1.774,0-8.512,0-10.286h25.143V130.48a12.571,12.571,0,0,1-25.141,0Z" transform="translate(-33.754 -50.825)"/>
      <circle id="Elipse_4793" data-name="Elipse 4793" cx="1.214" cy="1.214" r="1.214" transform="translate(61.4 56.689)"/>
      <path id="Trazado_818710" data-name="Trazado 818710" d="M100.827,46.739l3.681,5.895a1.215,1.215,0,0,0,2.06,0l3.681-5.895A21.219,21.219,0,0,0,105.541,4.83h0a21.2,21.2,0,0,0-7.078,1.209,1.214,1.214,0,0,0,.811,2.288,18.8,18.8,0,0,1,6.255-1.068h.012a18.79,18.79,0,0,1,3.715,37.209,1.216,1.216,0,0,0-.791.547L105.538,49.7l-2.924-4.682a1.216,1.216,0,0,0-.791-.547,18.829,18.829,0,0,1-15.074-18.42s0,0,0-.006a18.735,18.735,0,0,1,4.979-12.737,1.212,1.212,0,0,0-.063-1.714,1.251,1.251,0,0,0-1.72.068A21.15,21.15,0,0,0,84.32,26.048s0,.006,0,.009A21.269,21.269,0,0,0,100.827,46.739Z" transform="translate(-41.714)"/>
      <path id="Trazado_818711" data-name="Trazado 818711" d="M103.382,11.836a1.213,1.213,0,1,0,1.681.345A1.236,1.236,0,0,0,103.382,11.836Z" transform="translate(-51.235 -3.504)"/>
      <path id="Trazado_818712" data-name="Trazado 818712" d="M23.514,96.79A20.222,20.222,0,0,0,34.17,93.768L41.6,96.085a1.215,1.215,0,0,0,1.521-1.521L40.8,87.133a20.31,20.31,0,1,0-17.29,9.656Zm0-38.194A17.879,17.879,0,0,1,38.462,86.289a1.214,1.214,0,0,0-.145,1.029l1.8,5.759-5.759-1.8a1.215,1.215,0,0,0-1.029.145A17.882,17.882,0,1,1,23.514,58.6Z" transform="translate(0 -26.399)"/>
      <path id="Trazado_818713" data-name="Trazado 818713" d="M29.685,97.132A14.483,14.483,0,1,0,15.2,82.649,14.5,14.5,0,0,0,29.685,97.132Zm0-26.536A12.053,12.053,0,1,1,17.631,82.649,12.067,12.067,0,0,1,29.685,70.6Z" transform="translate(-6.171 -32.571)"/>
      <path id="Trazado_818714" data-name="Trazado 818714" d="M34.48,91.455a1.214,1.214,0,0,0,1.214-1.214v-.526a1.214,1.214,0,0,0-2.429,0v.526A1.214,1.214,0,0,0,34.48,91.455Z" transform="translate(-15.46 -43.027)"/>
      <path id="Trazado_818715" data-name="Trazado 818715" d="M52.98,91.455a1.214,1.214,0,0,0,1.214-1.214v-.526a1.214,1.214,0,0,0-2.429,0v.526A1.214,1.214,0,0,0,52.98,91.455Z" transform="translate(-24.973 -43.027)"/>
      <path id="Trazado_818716" data-name="Trazado 818716" d="M120.865,56.235a6.748,6.748,0,0,0,6.74-6.74,1.214,1.214,0,1,0-2.429,0,4.311,4.311,0,0,1-8.622,0,1.214,1.214,0,1,0-2.429,0A6.748,6.748,0,0,0,120.865,56.235Z" transform="translate(-57.041 -22.345)"/>
      <path id="Trazado_818717" data-name="Trazado 818717" d="M98.186,33.181A14.483,14.483,0,1,0,112.669,18.7,14.5,14.5,0,0,0,98.186,33.181Zm14.483-12.054a12.054,12.054,0,1,1-12.054,12.054A12.067,12.067,0,0,1,112.669,21.127Z" transform="translate(-48.844 -7.132)"/>
      <path id="Trazado_818718" data-name="Trazado 818718" d="M117.464,41.986a1.214,1.214,0,0,0,1.214-1.214v-.527a1.214,1.214,0,0,0-2.429,0v.527A1.214,1.214,0,0,0,117.464,41.986Z" transform="translate(-58.134 -17.588)"/>
      <path id="Trazado_818719" data-name="Trazado 818719" d="M135.964,41.986a1.214,1.214,0,0,0,1.214-1.214v-.527a1.214,1.214,0,1,0-2.429,0v.527A1.214,1.214,0,0,0,135.964,41.986Z" transform="translate(-67.647 -17.588)"/>
      <path id="Trazado_818720" data-name="Trazado 818720" d="M209.793,76.478a20.312,20.312,0,1,0-37.6,10.656l-2.318,7.431a1.215,1.215,0,0,0,1.521,1.521l7.431-2.318a20.309,20.309,0,0,0,30.968-17.291Zm-31.152,14.8-5.759,1.8,1.8-5.759a1.214,1.214,0,0,0-.145-1.029,17.89,17.89,0,1,1,5.136,5.136,1.214,1.214,0,0,0-1.029-.145Z" transform="translate(-85.347 -26.4)"/>
      <path id="Trazado_818721" data-name="Trazado 818721" d="M210.135,82.649a14.483,14.483,0,1,0-14.483,14.483A14.5,14.5,0,0,0,210.135,82.649Zm-26.536,0A12.054,12.054,0,1,1,195.653,94.7,12.067,12.067,0,0,1,183.6,82.649Z" transform="translate(-91.518 -32.571)"/>
      <path id="Trazado_818722" data-name="Trazado 818722" d="M198.6,91.67l1.36.162a1.214,1.214,0,0,0,.287-2.411l-1.36-.162a1.214,1.214,0,1,0-.287,2.411Z" transform="translate(-99.928 -43.413)"/>
      <path id="Trazado_818723" data-name="Trazado 818723" d="M217.856,91.84a1.218,1.218,0,0,0,.145-.009l1.36-.162a1.214,1.214,0,0,0-.287-2.412l-1.36.162a1.215,1.215,0,0,0,.142,2.421Z" transform="translate(-109.759 -43.412)"/>
      <path id="Trazado_818724" data-name="Trazado 818724" d="M38.918,104.554h4.675a1.214,1.214,0,1,0,0-2.429H38.918a1.214,1.214,0,1,0,0,2.429Z" transform="translate(-17.742 -50.033)"/>
      <path id="Trazado_818725" data-name="Trazado 818725" d="M203.356,103.072a1.214,1.214,0,0,0,1.717,0l1.661-1.661,1.661,1.661a1.214,1.214,0,1,0,1.717-1.717l-2.52-2.52a1.213,1.213,0,0,0-1.717,0l-1.661,1.661-1.661-1.661a1.214,1.214,0,0,0-1.717,0l-1.661,1.661-1.661-1.661a1.213,1.213,0,0,0-1.717,0l-2.52,2.52a1.214,1.214,0,0,0,1.717,1.717l1.661-1.661,1.661,1.661a1.214,1.214,0,0,0,1.717,0l1.661-1.661Z" transform="translate(-97.56 -48.159)"/>
    </g>
  </g>
</svg>
