<svg xmlns="http://www.w3.org/2000/svg" xmlns:xlink="http://www.w3.org/1999/xlink" width="295" height="112.665" viewBox="0 0 295 112.665">
  <defs>
    <clipPath id="clip-path">
      <path id="path1209" d="M0-682.665H112.665V-570H0Z" transform="translate(0 682.665)"/>
    </clipPath>
  </defs>
  <g id="Grupo_1076085" data-name="Grupo 1076085" transform="translate(-943 -5134)">
    <rect id="Rectángulo_375762" data-name="Rectángulo 375762" width="295" height="102" rx="13" transform="translate(943 5140)" fill="#dbefed"/>
    <g id="g1203" transform="translate(1034 5816.665)">
      <g id="g1205" transform="translate(0 -682.665)">
        <g id="g1207" clip-path="url(#clip-path)">
          <g id="g1213" transform="translate(1.65 2.923)">
            <path id="path1215" d="M-536.6-540.427H-639.364a3.3,3.3,0,0,1-3.3-3.3V-643.946a3.3,3.3,0,0,1,3.3-3.3H-536.6a3.3,3.3,0,0,1,3.3,3.3v100.218a3.3,3.3,0,0,1-3.3,3.3" transform="translate(642.665 647.246)" fill="#faf7f7"/>
          </g>
          <g id="g1217" transform="translate(1.65 2.923)">
            <path id="path1219" d="M-536.6,0h-3.3V96.917a3.3,3.3,0,0,1-3.3,3.3h-99.462v3.3a3.3,3.3,0,0,0,3.3,3.3H-536.6a3.3,3.3,0,0,0,3.3-3.3V3.3A3.3,3.3,0,0,0-536.6,0" transform="translate(642.665)" fill="#f3eae6"/>
          </g>
          <g id="g1221" transform="translate(1.65 2.923)">
            <path id="path1223" d="M-553.3-269.164v-49.9a3.3,3.3,0,0,0-3.3-3.3H-659.364a3.3,3.3,0,0,0-3.3,3.3v49.9Z" transform="translate(662.665 322.366)" fill="#ffe177"/>
          </g>
          <g id="g1225" transform="translate(101.112 2.923)">
            <path id="path1227" d="M-33.4,0H-40a3.3,3.3,0,0,1,3.3,3.3V53.2h6.6V3.3A3.3,3.3,0,0,0-33.4,0" transform="translate(40)" fill="#ffd15b"/>
          </g>
          <g id="g1229" transform="translate(1.65 2.923)">
            <path id="path1231" d="M-194.981,0H-230.22a3.3,3.3,0,0,0-3.3,3.3V103.519a3.3,3.3,0,0,0,3.3,3.3h35.239Z" transform="translate(233.521)" fill="#c8effe"/>
          </g>
          <g id="g1233" transform="translate(1.65 2.923)">
            <path id="path1235" d="M-553.3-113.058V-132.1a3.3,3.3,0,0,0-3.3-3.3H-659.364a3.3,3.3,0,0,0-3.3,3.3v19.046Z" transform="translate(662.665 135.405)" fill="#b9acac"/>
          </g>
          <g id="g1237" transform="translate(53.797 2.923)">
            <path id="path1239" d="M-272.777,0h-53.917V22.347h57.217V3.3a3.3,3.3,0,0,0-3.3-3.3" transform="translate(326.694)" fill="#cdbfba"/>
          </g>
          <g id="g1241" transform="translate(101.112 2.923)">
            <path id="path1243" d="M-33.4,0H-40a3.3,3.3,0,0,1,3.3,3.3V22.347h6.6V3.3A3.3,3.3,0,0,0-33.4,0" transform="translate(40)" fill="#b9acac"/>
          </g>
          <g id="g1245" transform="translate(8.96 10.517)">
            <path id="path1247" d="M-33.4-16.7a3.3,3.3,0,0,1-3.3,3.3A3.3,3.3,0,0,1-40-16.7,3.3,3.3,0,0,1-36.7-20a3.3,3.3,0,0,1,3.3,3.3" transform="translate(40 20)" fill="#fe99a0"/>
          </g>
          <g id="g1249" transform="translate(22.499 10.517)">
            <path id="path1251" d="M-33.4-16.7a3.3,3.3,0,0,1-3.3,3.3A3.3,3.3,0,0,1-40-16.7,3.3,3.3,0,0,1-36.7-20a3.3,3.3,0,0,1,3.3,3.3" transform="translate(40 20)" fill="#62dbfb"/>
          </g>
          <g id="g1253" transform="translate(36.038 10.517)">
            <path id="path1255" d="M-33.4-16.7a3.3,3.3,0,0,1-3.3,3.3A3.3,3.3,0,0,1-40-16.7,3.3,3.3,0,0,1-36.7-20a3.3,3.3,0,0,1,3.3,3.3" transform="translate(40 20)" fill="#ffe177"/>
          </g>
          <g id="g1257" transform="translate(10.333 37.249)">
            <path id="path1259" d="M-98-39.281h-17.612a1.758,1.758,0,0,1-1.758-1.758v-4.248a1.758,1.758,0,0,1,1.758-1.758H-98a1.758,1.758,0,0,1,1.758,1.758v4.248A1.758,1.758,0,0,1-98-39.281" transform="translate(117.369 47.045)" fill="#01d0fb"/>
          </g>
          <g id="g1261" transform="translate(10.333 54.777)">
            <path id="path1263" d="M-98-39.281h-17.612a1.758,1.758,0,0,1-1.758-1.758v-4.248a1.758,1.758,0,0,1,1.758-1.758H-98a1.758,1.758,0,0,1,1.758,1.758v4.248A1.758,1.758,0,0,1-98-39.281" transform="translate(117.369 47.045)" fill="#01d0fb"/>
          </g>
          <g id="g1265" transform="translate(10.333 72.306)">
            <path id="path1267" d="M-98-39.281h-17.612a1.758,1.758,0,0,1-1.758-1.758v-4.248a1.758,1.758,0,0,1,1.758-1.758H-98a1.758,1.758,0,0,1,1.758,1.758v4.248A1.758,1.758,0,0,1-98-39.281" transform="translate(117.369 47.045)" fill="#01d0fb"/>
          </g>
          <g id="g1269" transform="translate(10.333 89.834)">
            <path id="path1271" d="M-98-39.281h-17.612a1.758,1.758,0,0,1-1.758-1.758v-4.248a1.758,1.758,0,0,1,1.758-1.758H-98a1.758,1.758,0,0,1,1.758,1.758v4.248A1.758,1.758,0,0,1-98-39.281" transform="translate(117.369 47.045)" fill="#01d0fb"/>
          </g>
          <g id="g1273" transform="translate(53.034 67.516)">
            <path id="path1275" d="M-48.4-165.832h-9.567v-31.027a1.751,1.751,0,0,1,1.751-1.751h6.065a1.751,1.751,0,0,1,1.751,1.751Z" transform="translate(57.971 198.61)" fill="#fd8087"/>
          </g>
          <g id="g1277" transform="translate(70.709 76.317)">
            <path id="path1279" d="M-48.4-121.3h-9.567v-22.225a1.751,1.751,0,0,1,1.751-1.751h6.065a1.751,1.751,0,0,1,1.751,1.751Z" transform="translate(57.971 145.277)" fill="#01d0fb"/>
          </g>
          <g id="g1281" transform="translate(88.383 85.119)">
            <path id="path1283" d="M-48.4-76.77h-9.567V-90.193a1.751,1.751,0,0,1,1.751-1.751h6.065A1.751,1.751,0,0,1-48.4-90.193Z" transform="translate(57.971 91.944)" fill="#97da7b"/>
          </g>
          <g id="g1285" transform="translate(81.961 32.259)">
            <path id="path1287" d="M-16.7-8.35A1.65,1.65,0,0,1-18.35-6.7,1.65,1.65,0,0,1-20-8.35,1.65,1.65,0,0,1-18.35-10,1.65,1.65,0,0,1-16.7-8.35" transform="translate(20 10)"/>
          </g>
          <g id="g1289" transform="translate(81.961 39.481)">
            <path id="path1291" d="M-16.7-8.35A1.65,1.65,0,0,1-18.35-6.7,1.65,1.65,0,0,1-20-8.35,1.65,1.65,0,0,1-18.35-10,1.65,1.65,0,0,1-16.7-8.35" transform="translate(20 10)"/>
          </g>
          <g id="g1293" transform="translate(81.961 46.702)">
            <path id="path1295" d="M-16.7-8.35A1.65,1.65,0,0,1-18.35-6.7,1.65,1.65,0,0,1-20-8.35,1.65,1.65,0,0,1-18.35-10,1.65,1.65,0,0,1-16.7-8.35" transform="translate(20 10)"/>
          </g>
          <g id="g1297" transform="translate(7.309 8.866)">
            <path id="path1299" d="M-45.049-30A4.957,4.957,0,0,1-40.1-25.049,4.957,4.957,0,0,1-45.049-20.1,4.957,4.957,0,0,1-50-25.049,4.957,4.957,0,0,1-45.049-30Zm0,6.6a1.652,1.652,0,0,0,1.65-1.65,1.652,1.652,0,0,0-1.65-1.65,1.652,1.652,0,0,0-1.65,1.65A1.652,1.652,0,0,0-45.049-23.4Z" transform="translate(50 30)"/>
          </g>
          <g id="g1301" transform="translate(20.848 8.866)">
            <path id="path1303" d="M-45.049-30A4.957,4.957,0,0,1-40.1-25.049,4.957,4.957,0,0,1-45.049-20.1,4.957,4.957,0,0,1-50-25.049,4.957,4.957,0,0,1-45.049-30Zm0,6.6a1.652,1.652,0,0,0,1.65-1.65,1.652,1.652,0,0,0-1.65-1.65,1.652,1.652,0,0,0-1.65,1.65A1.652,1.652,0,0,0-45.049-23.4Z" transform="translate(50 30)"/>
          </g>
          <g id="g1305" transform="translate(34.388 8.866)">
            <path id="path1307" d="M-45.049-30A4.957,4.957,0,0,1-40.1-25.049,4.957,4.957,0,0,1-45.049-20.1,4.957,4.957,0,0,1-50-25.049,4.957,4.957,0,0,1-45.049-30Zm0,6.6a1.652,1.652,0,0,0,1.65-1.65,1.652,1.652,0,0,0-1.65-1.65,1.652,1.652,0,0,0-1.65,1.65A1.652,1.652,0,0,0-45.049-23.4Z" transform="translate(50 30)"/>
          </g>
          <g id="g1309" transform="translate(0 1.272)">
            <path id="path1311" d="M-342.729-547.126h-62.792a4.957,4.957,0,0,1-4.951-4.951V-652.3a4.957,4.957,0,0,1,4.951-4.951h10.61a1.65,1.65,0,0,1,1.65,1.65,1.65,1.65,0,0,1-1.65,1.65h-10.61a1.652,1.652,0,0,0-1.65,1.65v100.218a1.652,1.652,0,0,0,1.65,1.65h62.792a1.65,1.65,0,0,1,1.65,1.65A1.65,1.65,0,0,1-342.729-547.126Z" transform="translate(410.472 657.246)"/>
          </g>
          <g id="g1313" transform="translate(20.512 1.272)">
            <path id="path1315" d="M77.2,100.12H43.833a1.65,1.65,0,1,1,0-3.3H77.2a1.652,1.652,0,0,0,1.65-1.65V-5.049A1.652,1.652,0,0,0,77.2-6.7H-8.35A1.65,1.65,0,0,1-10-8.35,1.65,1.65,0,0,1-8.35-10H77.2a4.957,4.957,0,0,1,4.951,4.951V95.169A4.957,4.957,0,0,1,77.2,100.12Z" transform="translate(10 10)"/>
          </g>
          <g id="g1317" transform="translate(0.22 23.619)">
            <path id="path1319" d="M100.354-6.7H-8.35A1.65,1.65,0,0,1-10-8.35,1.65,1.65,0,0,1-8.35-10h108.7A1.65,1.65,0,0,1,102-8.35,1.65,1.65,0,0,1,100.354-6.7Z" transform="translate(10 10)"/>
          </g>
          <g id="g1321" transform="translate(52.147 1.272)">
            <path id="path1323" d="M-8.35,15.3A1.65,1.65,0,0,1-10,13.651v-22A1.65,1.65,0,0,1-8.35-10,1.65,1.65,0,0,1-6.7-8.35v22A1.65,1.65,0,0,1-8.35,15.3Z" transform="translate(10 10)"/>
          </g>
          <g id="g1325" transform="translate(65.661 12.167)">
            <path id="path1327" d="M19.583-6.7H-8.35A1.65,1.65,0,0,1-10-8.35,1.65,1.65,0,0,1-8.35-10H19.583a1.65,1.65,0,0,1,1.65,1.65A1.65,1.65,0,0,1,19.583-6.7Z" transform="translate(10 10)"/>
          </g>
          <g id="g1329" transform="translate(8.683 35.598)">
            <path id="path1331" d="M-106.348-45.98h-17.612a3.412,3.412,0,0,1-3.408-3.408v-4.248a3.412,3.412,0,0,1,3.408-3.408h17.612a3.412,3.412,0,0,1,3.408,3.408v4.248A3.412,3.412,0,0,1-106.348-45.98Zm-17.612-7.764-.108,4.356,17.72.108a.108.108,0,0,0,.108-.108v-4.248Z" transform="translate(127.369 57.045)"/>
          </g>
          <g id="g1333" transform="translate(8.683 53.127)">
            <path id="path1335" d="M-106.348-45.98h-17.612a3.412,3.412,0,0,1-3.408-3.408v-4.248a3.412,3.412,0,0,1,3.408-3.408h17.612a3.412,3.412,0,0,1,3.408,3.408v4.248A3.412,3.412,0,0,1-106.348-45.98Zm-17.612-7.764-.108,4.356,17.72.108a.108.108,0,0,0,.108-.108v-4.248Z" transform="translate(127.369 57.045)"/>
          </g>
          <g id="g1337" transform="translate(8.683 70.656)">
            <path id="path1339" d="M-106.348-45.98h-17.612a3.412,3.412,0,0,1-3.408-3.408v-4.248a3.412,3.412,0,0,1,3.408-3.408h17.612a3.412,3.412,0,0,1,3.408,3.408v4.248A3.412,3.412,0,0,1-106.348-45.98Zm-17.612-7.764-.108,4.356,17.72.108a.108.108,0,0,0,.108-.108v-4.248Z" transform="translate(127.369 57.045)"/>
          </g>
          <g id="g1341" transform="translate(8.683 88.184)">
            <path id="path1343" d="M-106.348-45.98h-17.612a3.412,3.412,0,0,1-3.408-3.408v-4.248a3.412,3.412,0,0,1,3.408-3.408h17.612a3.412,3.412,0,0,1,3.408,3.408v4.248A3.412,3.412,0,0,1-106.348-45.98Zm-17.612-7.764-.108,4.356,17.72.108a.108.108,0,0,0,.108-.108v-4.248Z" transform="translate(127.369 57.045)"/>
          </g>
          <g id="g1345" transform="translate(51.383 65.865)">
            <path id="path1347" d="M-56.753-172.531H-66.32a1.65,1.65,0,0,1-1.65-1.65v-31.027a3.405,3.405,0,0,1,3.4-3.4H-58.5a3.405,3.405,0,0,1,3.4,3.4v31.027A1.65,1.65,0,0,1-56.753-172.531Zm-7.912-3.3H-58.4v-29.377l-6.166-.1Z" transform="translate(67.97 208.61)"/>
          </g>
          <g id="g1349" transform="translate(69.058 74.667)">
            <path id="path1351" d="M-56.753-128H-66.32a1.65,1.65,0,0,1-1.65-1.65v-22.225a3.405,3.405,0,0,1,3.4-3.4H-58.5a3.405,3.405,0,0,1,3.4,3.4v22.225A1.65,1.65,0,0,1-56.753-128Zm-7.909-3.3H-58.4v-20.575l-6.166-.1Z" transform="translate(67.97 155.277)"/>
          </g>
          <g id="g1353" transform="translate(86.733 83.469)">
            <path id="path1355" d="M-56.753-83.469H-66.32a1.65,1.65,0,0,1-1.65-1.65V-98.542a3.405,3.405,0,0,1,3.4-3.4H-58.5a3.405,3.405,0,0,1,3.4,3.4v13.423A1.65,1.65,0,0,1-56.753-83.469Zm-7.9-3.3H-58.4V-98.542l-6.166-.1Z" transform="translate(67.97 101.944)"/>
          </g>
          <g id="g1357" transform="translate(45.803 98.643)">
            <path id="path1359" d="M47.728-6.7H-8.35A1.65,1.65,0,0,1-10-8.35,1.65,1.65,0,0,1-8.35-10H47.728a1.65,1.65,0,0,1,1.65,1.65A1.65,1.65,0,0,1,47.728-6.7Z" transform="translate(10 10)"/>
          </g>
          <g id="g1361" transform="translate(87.518 32.259)">
            <path id="path1363" d="M4.092-6.7H-8.35A1.65,1.65,0,0,1-10-8.35,1.65,1.65,0,0,1-8.35-10H4.092a1.65,1.65,0,0,1,1.65,1.65A1.65,1.65,0,0,1,4.092-6.7Z" transform="translate(10 10)"/>
          </g>
          <g id="g1365" transform="translate(87.518 39.481)">
            <path id="path1367" d="M4.092-6.7H-8.35A1.65,1.65,0,0,1-10-8.35,1.65,1.65,0,0,1-8.35-10H4.092a1.65,1.65,0,0,1,1.65,1.65A1.65,1.65,0,0,1,4.092-6.7Z" transform="translate(10 10)"/>
          </g>
          <g id="g1369" transform="translate(87.518 46.702)">
            <path id="path1371" d="M4.092-6.7H-8.35A1.65,1.65,0,0,1-10-8.35,1.65,1.65,0,0,1-8.35-10H4.092a1.65,1.65,0,0,1,1.65,1.65A1.65,1.65,0,0,1,4.092-6.7Z" transform="translate(10 10)"/>
          </g>
          <g id="g1373" transform="translate(38.539 23.619)">
            <path id="path1375" d="M-8.35,77.774A1.65,1.65,0,0,1-10,76.123V-8.35A1.65,1.65,0,0,1-8.35-10,1.65,1.65,0,0,1-6.7-8.35V76.123A1.65,1.65,0,0,1-8.35,77.774Z" transform="translate(10 10)"/>
          </g>
          <g id="g1377" transform="translate(38.759 54.682)">
            <path id="path1379" d="M61.815-6.7H-8.35A1.65,1.65,0,0,1-10-8.35,1.65,1.65,0,0,1-8.35-10H61.815a1.65,1.65,0,0,1,1.65,1.65A1.65,1.65,0,0,1,61.815-6.7Z" transform="translate(10 10)"/>
          </g>
          <g id="g1381" transform="translate(49.623 32.259)">
            <path id="path1383" d="M-8.35-119.094a1.65,1.65,0,0,1-1.65-1.65V-142.96a1.65,1.65,0,0,1,1.65-1.65,1.65,1.65,0,0,1,1.65,1.65v22.216A1.65,1.65,0,0,1-8.35-119.094Z" transform="translate(10 144.61)"/>
          </g>
          <g id="g1385" transform="translate(57.313 38.138)">
            <path id="path1387" d="M-8.35-89.351A1.65,1.65,0,0,1-10-91v-16.337a1.65,1.65,0,0,1,1.65-1.65,1.65,1.65,0,0,1,1.65,1.65V-91A1.65,1.65,0,0,1-8.35-89.351Z" transform="translate(10 108.989)"/>
          </g>
          <g id="g1389" transform="translate(65.004 43.363)">
            <path id="path1391" d="M-8.35-62.917A1.65,1.65,0,0,1-10-64.567V-75.679a1.65,1.65,0,0,1,1.65-1.65,1.65,1.65,0,0,1,1.65,1.65v11.112A1.65,1.65,0,0,1-8.35-62.917Z" transform="translate(10 77.329)"/>
          </g>
          <g id="g1393" transform="translate(72.694 47.982)">
            <path id="path1395" d="M-8.35-39.549A1.65,1.65,0,0,1-10-41.2v-6.493a1.65,1.65,0,0,1,1.65-1.65,1.65,1.65,0,0,1,1.65,1.65V-41.2A1.65,1.65,0,0,1-8.35-39.549Z" transform="translate(10 49.343)"/>
          </g>
        </g>
      </g>
    </g>
  </g>
</svg>
