<svg xmlns="http://www.w3.org/2000/svg" xmlns:xlink="http://www.w3.org/1999/xlink" width="297.52" height="378.241" viewBox="0 0 297.52 378.241">
  <defs>
    <clipPath id="clip-path">
      <rect id="Rectángulo_381754" data-name="Rectángulo 381754" width="297.52" height="347.113" fill="none"/>
    </clipPath>
    <clipPath id="clip-path-2">
      <rect id="Rectángulo_381759" data-name="Rectángulo 381759" width="35.657" height="19.345" fill="none"/>
    </clipPath>
    <clipPath id="clip-path-3">
      <rect id="Rectángulo_381760" data-name="Rectángulo 381760" width="19.788" height="17.05" fill="none"/>
    </clipPath>
    <clipPath id="clip-path-4">
      <rect id="Rectángulo_381761" data-name="Rectángulo 381761" width="2.599" height="2.617" fill="none"/>
    </clipPath>
    <clipPath id="clip-path-5">
      <rect id="Rectángulo_381762" data-name="Rectángulo 381762" width="28.13" height="14.104" fill="none"/>
    </clipPath>
    <clipPath id="clip-path-6">
      <rect id="Rectángulo_381763" data-name="Rectángulo 381763" width="22.642" height="26.995" fill="none"/>
    </clipPath>
    <clipPath id="clip-path-7">
      <rect id="Rectángulo_381764" data-name="Rectángulo 381764" width="6.278" height="38.979" fill="none"/>
    </clipPath>
    <clipPath id="clip-path-8">
      <rect id="Rectángulo_381765" data-name="Rectángulo 381765" width="31.998" height="21.555" fill="none"/>
    </clipPath>
    <clipPath id="clip-path-9">
      <rect id="Rectángulo_381766" data-name="Rectángulo 381766" width="7.057" height="18.696" fill="none"/>
    </clipPath>
  </defs>
  <g id="Grupo_1072316" data-name="Grupo 1072316" transform="translate(-180 -7313)">
    <g id="Grupo_1071859" data-name="Grupo 1071859" transform="translate(180 7313)">
      <rect id="web-AdobeStock_200818697" width="272.714" height="362.199" rx="13" transform="translate(22.286)" fill="#f0f8f7"/>
      <path id="Sustracción_1" data-name="Sustracción 1" d="M116.486,0H0V.365a59.23,59.23,0,0,0,1.183,11.8A58.354,58.354,0,0,0,4.576,23.149a58.561,58.561,0,0,0,5.37,9.944,58.721,58.721,0,0,0,7.112,8.662,58.918,58.918,0,0,0,8.62,7.15A58.294,58.294,0,0,0,35.574,54.3a57.654,57.654,0,0,0,10.934,3.409,58.454,58.454,0,0,0,23.476,0A57.537,57.537,0,0,0,80.914,54.3,58.251,58.251,0,0,0,90.808,48.9a58.906,58.906,0,0,0,8.621-7.15,58.948,58.948,0,0,0,7.111-8.662,58.737,58.737,0,0,0,5.37-9.944A58.36,58.36,0,0,0,115.3,12.163a59.263,59.263,0,0,0,1.183-11.8c0-.12,0-.239,0-.355V0Z" transform="translate(295 378.241) rotate(180)" fill="#8054f8"/>
      <g id="Grupo_1071549" data-name="Grupo 1071549" transform="translate(0 0)">
        <path id="Sustracción_2" data-name="Sustracción 2" d="M103.065,51.473H0V51.15A51.124,51.124,0,0,1,1.048,40.842,50.658,50.658,0,0,1,8.8,22.55,51.551,51.551,0,0,1,41.15,1.039a52.409,52.409,0,0,1,20.769,0,51.456,51.456,0,0,1,18.427,7.7A51.657,51.657,0,0,1,94.266,22.55a50.642,50.642,0,0,1,8.8,28.6c0,.106,0,.211,0,.315v.009Z" transform="translate(51.473 28.737) rotate(90)" fill="#98d1ca"/>
        <path id="Trazado_818001" data-name="Trazado 818001" d="M325.19,448.2a3.777,3.777,0,0,0,1.11,2.679l3.835,3.834-3.835,3.834a3.79,3.79,0,0,0,5.359,5.359l3.834-3.834,3.834,3.834a3.789,3.789,0,0,0,5.358-5.359l-3.834-3.834,3.834-3.834a3.789,3.789,0,0,0,0-5.358h0a3.789,3.789,0,0,0-5.358,0l-3.834,3.834-3.834-3.834a3.791,3.791,0,0,0-5.359,0h0a3.777,3.777,0,0,0-1.11,2.679Z" transform="translate(-325.19 -444.408)" fill="#8054f8"/>
      </g>
    </g>
    <g id="Grupo_1072310" data-name="Grupo 1072310" transform="translate(180 7326.833)">
      <g id="Grupo_1072311" data-name="Grupo 1072311">
        <g id="Grupo_1072258" data-name="Grupo 1072258">
          <g id="Grupo_1072257" data-name="Grupo 1072257" clip-path="url(#clip-path)">
            <path id="Trazado_818809" data-name="Trazado 818809" d="M210.371,387.237a4.819,4.819,0,1,1-4.82-4.82,4.82,4.82,0,0,1,4.82,4.82" transform="translate(-30.767 -58.613)" fill="#e0e0e0"/>
            <path id="Trazado_818810" data-name="Trazado 818810" d="M263.335,279.674a4.819,4.819,0,1,1-4.82-4.82,4.82,4.82,0,0,1,4.82,4.82" transform="translate(-38.884 -42.127)" fill="#e0e0e0"/>
            <path id="Trazado_818811" data-name="Trazado 818811" d="M122.067,333.4a2.41,2.41,0,1,1-2.41-2.41,2.41,2.41,0,0,1,2.41,2.41" transform="translate(-17.971 -50.731)" fill="#e0e0e0"/>
            <path id="Trazado_818812" data-name="Trazado 818812" d="M53.4,319.2a2.41,2.41,0,1,1-2.41-2.41,2.41,2.41,0,0,1,2.41,2.41" transform="translate(-7.446 -48.555)" fill="#e0e0e0"/>
            <path id="Trazado_818813" data-name="Trazado 818813" d="M248.918,156.366a2.41,2.41,0,1,1-2.41-2.41,2.41,2.41,0,0,1,2.41,2.41" transform="translate(-37.413 -23.597)" fill="#e0e0e0"/>
          </g>
        </g>
        <g id="Grupo_1072269" data-name="Grupo 1072269">
          <g id="Grupo_1072314" data-name="Grupo 1072314">
            <path id="Trazado_818814" data-name="Trazado 818814" d="M116.641,28.165C85.247,30.445,50.976,34.6,25.846,44.249l7.936,53.7s48.711-17.431,88.34-16.221Z" transform="translate(-3.961 -4.317)" fill="#dfe1e6"/>
            <path id="Trazado_818816" data-name="Trazado 818816" d="M115.778,78.1a1.538,1.538,0,0,1-.3.057l-.891.123-3.426.428c-1.489.176-3.31.395-5.417.7s-4.514.6-7.158,1.042c-10.591,1.638-25.169,4.34-41,8.436-5.505,1.421-10.81,2.886-15.665,4.409l-.241.075-.035-.248c-1.7-12.316-3.339-22.932-4.6-30.461l-1.516-8.814q-.265-1.511-.413-2.356l-.1-.61a.9.9,0,0,1-.021-.209.909.909,0,0,1,.058.2l.135.6q.171.838.481,2.343c.409,2.047.974,5.036,1.638,8.795,1.334,7.52,3.032,18.133,4.755,30.448l-.275-.173c4.87-1.538,10.173-3.009,15.687-4.432a399.805,399.805,0,0,1,41.068-8.317c2.649-.42,5.06-.7,7.173-.979s3.936-.48,5.429-.63l3.436-.346.895-.079a1.58,1.58,0,0,1,.307-.012" transform="translate(-5.363 -7.767)" fill="#e8505b"/>
            <path id="Trazado_818817" data-name="Trazado 818817" d="M117.448,65.986c-.022.005-.119-.374-.362-1.069a11.378,11.378,0,0,0-1.616-2.776A14.118,14.118,0,0,0,111.66,58.8a15.017,15.017,0,0,0-1.356-.721,12.485,12.485,0,0,0-1.535-.555,8.436,8.436,0,0,0-3.492-.34,7.349,7.349,0,0,0-3.556,1.4,11.924,11.924,0,0,0-2.844,3.092A47.235,47.235,0,0,0,94.886,70.2a10.681,10.681,0,0,1-2.953,4.234A5.605,5.605,0,0,1,89.482,75.6a4.907,4.907,0,0,1-2.758-.318c-3.576-1.417-5.167-5.536-8.779-6.788a7.08,7.08,0,0,0-5.361.438,6.778,6.778,0,0,0-2.124,1.64,10.8,10.8,0,0,0-1.416,2.274c-.807,1.591-1.413,3.36-2.778,4.608a4.114,4.114,0,0,1-2.435,1.1,4.761,4.761,0,0,1-2.549-.548,9.132,9.132,0,0,1-3.506-3.445,29.706,29.706,0,0,1-1.855-4.229,20.13,20.13,0,0,0-1.837-3.821,7.643,7.643,0,0,0-2.808-2.605,7.268,7.268,0,0,0-6.438-.188,10.9,10.9,0,0,0-4.086,2.947,7.935,7.935,0,0,0-1.533,2.8c-.216.705-.246,1.1-.278,1.093a4.964,4.964,0,0,1,.193-1.118,7.7,7.7,0,0,1,1.485-2.886,10.951,10.951,0,0,1,4.121-3.063,7.521,7.521,0,0,1,6.679.137,7.954,7.954,0,0,1,2.947,2.693A20.4,20.4,0,0,1,56.261,70.2a29.816,29.816,0,0,0,1.847,4.162,8.773,8.773,0,0,0,3.357,3.283,4.362,4.362,0,0,0,2.329.5,3.694,3.694,0,0,0,2.19-1c1.252-1.138,1.864-2.868,2.672-4.485a11.172,11.172,0,0,1,1.474-2.368,7.172,7.172,0,0,1,2.257-1.747,7.5,7.5,0,0,1,5.7-.465,11.714,11.714,0,0,1,4.581,3.452,12.681,12.681,0,0,0,4.22,3.353,4.471,4.471,0,0,0,2.519.3A5.2,5.2,0,0,0,91.67,74.1a10.3,10.3,0,0,0,2.844-4.069,46.982,46.982,0,0,1,4.058-8.558,12.222,12.222,0,0,1,2.949-3.164,7.65,7.65,0,0,1,3.721-1.433,8.7,8.7,0,0,1,3.605.38,12.749,12.749,0,0,1,1.565.583,15.252,15.252,0,0,1,1.374.751,14.08,14.08,0,0,1,3.82,3.444,10.83,10.83,0,0,1,1.563,2.851c.125.351.171.633.223.817a1.342,1.342,0,0,1,.055.282" transform="translate(-5.969 -8.71)" fill="#e8505b"/>
            <path id="Trazado_818818" data-name="Trazado 818818" d="M33.066,59.3c.023.119-.386.3-.913.4s-.972.085-.995-.035.385-.3.913-.4.972-.085.995.035" transform="translate(-4.775 -9.073)" fill="#e8505b"/>
            <path id="Trazado_818819" data-name="Trazado 818819" d="M34.766,70.892c.052.11-.257.362-.688.563s-.822.273-.874.163.257-.362.688-.563.822-.273.874-.163" transform="translate(-5.089 -10.858)" fill="#e8505b"/>
            <path id="Trazado_818820" data-name="Trazado 818820" d="M36.815,83.545c.04.115-.277.33-.708.481s-.813.179-.854.064.277-.33.708-.481.814-.179.854-.064" transform="translate(-5.403 -12.794)" fill="#e8505b"/>
            <path id="Trazado_818821" data-name="Trazado 818821" d="M39.241,95.988c.036.116-.323.332-.8.483s-.9.179-.934.062.323-.332.8-.483.9-.178.933-.062" transform="translate(-5.748 -14.701)" fill="#e8505b"/>
            <path id="Trazado_818822" data-name="Trazado 818822" d="M109.473,35.853a4.278,4.278,0,0,1,1.025-.231c.674-.117,1.663-.264,2.921-.442,2.515-.353,6.1-.819,10.38-1.345l.2-.025.019.2c.333,3.605.717,7.758,1.124,12.159l.017.183.019.213-.211.026L110.931,48.31l-.188.023-.019-.185c-.394-3.681-.722-6.754-.958-8.967q-.15-1.542-.24-2.475a5.763,5.763,0,0,1-.053-.853,7.444,7.444,0,0,1,.153.9c.086.627.2,1.461.341,2.5.278,2.185.663,5.218,1.125,8.851l-.207-.163,14.026-1.787-.192.239-.017-.183c-.389-4.4-.756-8.556-1.074-12.163l.218.177-14.372,1.63" transform="translate(-16.778 -5.182)" fill="#e8505b"/>
            <path id="Trazado_818823" data-name="Trazado 818823" d="M122.933,38.718c0,.13-2.416.13-5.362.447s-5.307.809-5.338.682a18.938,18.938,0,0,1,5.291-1.121,18.942,18.942,0,0,1,5.409-.008" transform="translate(-17.202 -5.909)" fill="#e8505b"/>
            <path id="Trazado_818824" data-name="Trazado 818824" d="M123.236,42.442c0,.128-2.249.214-5.005.484s-4.981.608-5.006.483a19.5,19.5,0,0,1,4.964-.922,19.479,19.479,0,0,1,5.047-.045" transform="translate(-17.354 -6.486)" fill="#e8505b"/>
            <path id="Trazado_818825" data-name="Trazado 818825" d="M120.035,45.7a9.749,9.749,0,0,1-2.856.584,9.772,9.772,0,0,1-2.912.146,9.815,9.815,0,0,1,2.856-.584,9.772,9.772,0,0,1,2.912-.146" transform="translate(-17.514 -6.995)" fill="#e8505b"/>
            <path id="Trazado_818826" data-name="Trazado 818826" d="M296.267,43.722C265.53,34.354,239.6,26.355,204.781,26.576L199.459,81.3c36.164,3.2,48.25,5.568,81.645,17.653Z" transform="translate(-30.571 -4.073)" fill="#d8dcfc"/>
            <path id="Trazado_818828" data-name="Trazado 818828" d="M229.085,55.822l1.356-11.61a13.613,13.613,0,0,0-9.479,2.621,14.274,14.274,0,0,0-5.826,11.481c-.011.559,0,1.13.048,1.717l0,.041h0l13.561-1.525Z" transform="translate(-32.974 -6.764)" fill="#a98fed"/>
            <path id="Trazado_818829" data-name="Trazado 818829" d="M245.834,53.976a13.136,13.136,0,0,0-9.66-9.207c-.136-.031-.273-.062-.413-.09-.087-.018-.174-.038-.263-.054q-.389-.071-.791-.122l-.036-.006h0l-.033-.005v0L233.279,56.1l-.318,2.729,12.8,4.672.016.006a14.794,14.794,0,0,0,.663-2.972,15.932,15.932,0,0,0-.608-6.563" transform="translate(-35.706 -6.819)" fill="#8054f8"/>
            <path id="Trazado_818831" data-name="Trazado 818831" d="M229.382,62.971,215.821,64.5a13.455,13.455,0,0,0,26.38,3.151l-12.8-4.672" transform="translate(-33.079 -9.652)" fill="#a98fed"/>
            <g id="Grupo_1072315" data-name="Grupo 1072315">
              <path id="Trazado_818832" data-name="Trazado 818832" d="M294.086,57.523a7.177,7.177,0,0,1-1.2-.484c-.756-.342-1.855-.821-3.223-1.393a96.567,96.567,0,0,0-22.2-6.334c-1.461-.235-2.649-.409-3.472-.517a7.339,7.339,0,0,1-1.273-.22,7.15,7.15,0,0,1,1.291.049c.829.056,2.025.182,3.5.379a81.789,81.789,0,0,1,22.277,6.356c1.356.61,2.439,1.134,3.173,1.524a7.276,7.276,0,0,1,1.124.639" transform="translate(-40.268 -7.443)" fill="#8054f8"/>
              <path id="Trazado_818833" data-name="Trazado 818833" d="M292.986,64.269a7.245,7.245,0,0,1-1.2-.484c-.755-.342-1.855-.821-3.222-1.393a96.568,96.568,0,0,0-22.2-6.334c-1.462-.235-2.649-.409-3.472-.517a7.315,7.315,0,0,1-1.273-.22,7.25,7.25,0,0,1,1.291.049c.829.056,2.025.182,3.5.379a81.782,81.782,0,0,1,22.278,6.356c1.356.61,2.439,1.134,3.173,1.524a7.291,7.291,0,0,1,1.123.639" transform="translate(-40.099 -8.477)" fill="#8054f8"/>
              <path id="Trazado_818834" data-name="Trazado 818834" d="M291.886,71.015a7.248,7.248,0,0,1-1.2-.484c-.755-.342-1.855-.821-3.222-1.393a96.568,96.568,0,0,0-22.2-6.334c-1.462-.235-2.649-.409-3.472-.517a7.419,7.419,0,0,1-1.273-.22,7.149,7.149,0,0,1,1.291.049c.829.056,2.025.182,3.5.379a81.782,81.782,0,0,1,22.278,6.356c1.356.61,2.439,1.134,3.173,1.524a7.288,7.288,0,0,1,1.123.639" transform="translate(-39.931 -9.511)" fill="#8054f8"/>
              <path id="Trazado_818835" data-name="Trazado 818835" d="M289.855,77.761a6.89,6.89,0,0,1-1.16-.483c-.731-.341-1.8-.82-3.119-1.39a91.567,91.567,0,0,0-21.541-6.336c-1.422-.236-2.576-.41-3.375-.518a6.908,6.908,0,0,1-1.237-.22,6.822,6.822,0,0,1,1.256.05c.807.056,1.97.182,3.4.38A77.6,77.6,0,0,1,285.7,75.6c1.312.609,2.36,1.132,3.069,1.521a6.876,6.876,0,0,1,1.084.637" transform="translate(-39.762 -10.545)" fill="#8054f8"/>
              <path id="Trazado_818836" data-name="Trazado 818836" d="M285.64,83.352a5.532,5.532,0,0,1-1.048-.417l-2.8-1.245a68.366,68.366,0,0,0-19.327-5.514l-3.034-.419a5.507,5.507,0,0,1-1.109-.2,5.524,5.524,0,0,1,1.127.028c.723.041,1.768.139,3.057.281a58.636,58.636,0,0,1,19.416,5.539c1.17.559,2.108,1.028,2.745,1.374a5.56,5.56,0,0,1,.973.571" transform="translate(-39.594 -11.579)" fill="#8054f8"/>
              <path id="Trazado_818837" data-name="Trazado 818837" d="M271.747,85.029a13.56,13.56,0,0,1-2.187-.453c-1.34-.312-3.2-.712-5.262-1.067s-3.951-.615-5.314-.809a12.082,12.082,0,0,1-2.2-.382,10.542,10.542,0,0,1,2.237.072c1.376.115,3.275.323,5.355.685a47.853,47.853,0,0,1,5.266,1.2,9.638,9.638,0,0,1,2.108.754" transform="translate(-39.357 -12.612)" fill="#8054f8"/>
            </g>
            <path id="Trazado_818838" data-name="Trazado 818838" d="M211.131,34.211s.233-.019.706-.036l2.116-.07c1.87-.046,4.571-.016,8.028.18a127.777,127.777,0,0,1,28.2,5.047l.155.047-.029.164c-2.118,12.129-4.637,26.549-7.331,41.979-.11.625-.219,1.248-.326,1.86l-.042.236-.233-.061a185.794,185.794,0,0,0-18.827-3.884c-6.065-.931-11.866-1.59-17.255-1.932l-.207-.013.024-.2c1.482-12.944,2.724-23.788,3.6-31.417.444-3.774.793-6.752,1.034-8.807.122-1,.216-1.769.282-2.312.033-.247.058-.439.078-.588a1.137,1.137,0,0,1,.033-.191,1.712,1.712,0,0,1-.012.214c-.014.153-.032.352-.056.609-.056.552-.135,1.338-.238,2.351-.218,2.067-.534,5.062-.935,8.858-.825,7.606-2,18.419-3.4,31.325l-.183-.216c5.414.328,11.218.976,17.3,1.9a183.7,183.7,0,0,1,18.875,3.879l-.273.174c.108-.612.217-1.235.326-1.86,2.718-15.426,5.258-29.842,7.395-41.968l.127.212A130.812,130.812,0,0,0,221.967,34.5c-3.439-.228-6.165-.29-7.992-.285l-2.1,0c-.48,0-.74-.011-.74-.011" transform="translate(-31.587 -5.224)" fill="#8054f8"/>
          </g>
        </g>
        <path id="Trazado_818839" data-name="Trazado 818839" d="M172.2,164.008l29.973,6.637,4.581-6.637-.74-8.547-4.555-4.161h-15.7L171.1,164.5" transform="translate(-26.225 -23.19)" fill="#e8505b"/>
        <g id="Grupo_1072295" data-name="Grupo 1072295">
          <g id="Grupo_1072312" data-name="Grupo 1072312">
            <g id="Grupo_1072272" data-name="Grupo 1072272" transform="translate(144.877 128.11)" opacity="0.3">
              <g id="Grupo_1072271" data-name="Grupo 1072271">
                <g id="Grupo_1072270" data-name="Grupo 1072270" clip-path="url(#clip-path-2)">
                  <path id="Trazado_818840" data-name="Trazado 818840" d="M172.2,164.008l29.973,6.637,4.581-6.637-.74-8.547-4.555-4.161h-15.7L171.1,164.5" transform="translate(-171.102 -151.3)"/>
                </g>
              </g>
            </g>
            <path id="Trazado_818841" data-name="Trazado 818841" d="M224.945,91.515,262.78,86.42l5.955-1.68s13.637-3,14.911-3.45c1.472-.525,2.079.058,2.235.613.244.866-.585,1.836-1.834,2.325-.431.169-7.349,2.566-7.349,2.566a17.3,17.3,0,0,1,2.337.674c1.654.562,3.242,2.7,4.037,5.181s.8,3.253-.154,3.607a1.292,1.292,0,0,1-1.1-.152,2.554,2.554,0,0,1-1.135-1.423c-1.327-3.964-3.809-4.277-3.809-4.277l-.779.219s2.56,1.787,2.516,3.949a2.46,2.46,0,0,1-.2.927,3.27,3.27,0,0,1-3.648,4.3c-.544-.094-1.135-.417-1.212-.964a1.726,1.726,0,0,1,.176-.847,2.7,2.7,0,0,0,.135-.443l-2.269.31s-5.134.424-7.347.861l-35.431,10.671a9.175,9.175,0,1,1-3.87-17.878" transform="translate(-33.259 -12.428)" fill="#ffbe9d"/>
            <path id="Trazado_818842" data-name="Trazado 818842" d="M272.1,88.161a1.906,1.906,0,0,0,1.631,1.509c.778.163,1.589.058,2.378.163,2.356.318,4.19,2.462,6.56,2.666.33.029.747-.04.845-.356.091-.294-.163-.572-.393-.775l-5.9-5.218" transform="translate(-41.706 -13.204)" fill="#ffbe9d"/>
            <path id="Trazado_818843" data-name="Trazado 818843" d="M277.218,86.15a3.182,3.182,0,0,1,.7.5c.429.343,1.04.851,1.788,1.485l2.614,2.246.751.655c.223.225.613.421.685.962a.664.664,0,0,1-.4.626,1.368,1.368,0,0,1-.637.105,5.19,5.19,0,0,1-1.139-.226,30.167,30.167,0,0,1-3.786-1.92,5.916,5.916,0,0,0-1.685-.56c-.548-.084-1.086-.066-1.584-.1a2.773,2.773,0,0,1-2.155-.931c-.351-.479-.276-.84-.261-.828a2.3,2.3,0,0,0,.395.715,2.687,2.687,0,0,0,2.036.726c.481.015,1.022-.023,1.62.049a6.148,6.148,0,0,1,1.81.555,35.128,35.128,0,0,0,3.743,1.865,4.846,4.846,0,0,0,1.029.208c.326.023.607-.1.577-.268,0-.195-.273-.434-.528-.656l-.742-.665-2.549-2.318c-.721-.665-1.3-1.208-1.694-1.592a3.152,3.152,0,0,1-.58-.63" transform="translate(-41.703 -13.204)" fill="#eb996e"/>
            <path id="Trazado_818844" data-name="Trazado 818844" d="M286.714,92.206a3.237,3.237,0,0,1,1.488-.019,2.507,2.507,0,0,1,1.3.89,6.431,6.431,0,0,1,.931,1.768,10.173,10.173,0,0,0,.862,1.887,3.3,3.3,0,0,0,1.238,1.191,1.288,1.288,0,0,0,1.157.026c.246-.131.34-.257.332-.264-.016-.023-.135.07-.376.161a1.219,1.219,0,0,1-1.02-.106,3.27,3.27,0,0,1-1.105-1.151,11.313,11.313,0,0,1-.818-1.849,6.241,6.241,0,0,0-1-1.833,2.628,2.628,0,0,0-1.453-.919,2.336,2.336,0,0,0-1.156.036c-.262.08-.388.168-.38.183" transform="translate(-43.945 -14.091)" fill="#eb996e"/>
            <path id="Trazado_818845" data-name="Trazado 818845" d="M295.061,84.564a8.148,8.148,0,0,0-1.379.467L290.4,86.24l-3.306,1.16a8.259,8.259,0,0,0-1.361.516,6.537,6.537,0,0,0,1.423-.32c.866-.243,2.051-.619,3.343-1.082s2.445-.928,3.267-1.292a6.512,6.512,0,0,0,1.3-.657" transform="translate(-43.794 -12.96)" fill="#eb996e"/>
            <path id="Trazado_818846" data-name="Trazado 818846" d="M285.187,94.746c-.015.016.1.132.3.345a1.351,1.351,0,0,1,.428,1.041.726.726,0,0,1-.446.561,3.889,3.889,0,0,1-.914.252,1.631,1.631,0,0,0-1.022.547,1.392,1.392,0,0,0-.172,1.245,1.579,1.579,0,0,0,.851.913,1.971,1.971,0,0,0,1.14.168,6.378,6.378,0,0,0,1.755-.655,3.756,3.756,0,0,0,1.01-.754.844.844,0,0,0,.236-.4c-.024-.013-.106.127-.316.32a4.469,4.469,0,0,1-1.025.651,6.9,6.9,0,0,1-1.7.573,1.562,1.562,0,0,1-1.674-.909,1.119,1.119,0,0,1,.125-.985,1.4,1.4,0,0,1,.853-.456,3.843,3.843,0,0,0,.967-.3.937.937,0,0,0,.538-.75,1.411,1.411,0,0,0-.552-1.145c-.225-.195-.365-.279-.377-.265" transform="translate(-43.419 -14.522)" fill="#eb996e"/>
            <path id="Trazado_818847" data-name="Trazado 818847" d="M284.431,100.007c0-.014-.163,0-.376.177a1.267,1.267,0,0,0-.423,1.052,1.69,1.69,0,0,0,1,1.345,2.765,2.765,0,0,0,2.054.029,3.342,3.342,0,0,0,1.631-1.244,3.185,3.185,0,0,0,.55-1.582,3.017,3.017,0,0,0-.122-1.115c-.081-.252-.159-.378-.175-.372a5.23,5.23,0,0,1,.094,1.467,3.153,3.153,0,0,1-.564,1.448,3.193,3.193,0,0,1-1.51,1.124,2.57,2.57,0,0,1-1.848,0,1.5,1.5,0,0,1-.909-1.123,1.2,1.2,0,0,1,.3-.948c.169-.183.308-.235.3-.258" transform="translate(-43.472 -15.066)" fill="#eb996e"/>
            <path id="Trazado_818848" data-name="Trazado 818848" d="M276.772,95.838c.025-.007-.013-.273-.243-.655a2.747,2.747,0,0,0-1.379-1.127l.015.256a8.13,8.13,0,0,0,.865-.479,6.259,6.259,0,0,0,2.373-2.444,15.864,15.864,0,0,1-2.529,2.2c-.282.18-.565.339-.831.474l-.295.15.309.106a2.879,2.879,0,0,1,1.328.964c.256.331.351.57.387.556" transform="translate(-42.111 -14.007)" fill="#eb996e"/>
            <path id="Trazado_818849" data-name="Trazado 818849" d="M290.963,91.869c-.055-.053-.456.389-.5,1.086s.286,1.19.348,1.144-.106-.517-.059-1.124.28-1.059.21-1.106" transform="translate(-44.519 -14.08)" fill="#eb996e"/>
            <path id="Trazado_818850" data-name="Trazado 818850" d="M77.618,104.985s-5.527-8.957-6.5-9.716-9.727-3.963-10.474-3.727-11.35,2.047-10.132,3.3,8.61-.108,8.61-.108l.992.5s-6.387,1.018-7.731,1.8c-1.238.715-.814,2.23.356,2.109s6.719-1.195,7.049-.967-6.037,1.5-6.722,1.9c-.922.545-1.014,2.185.149,2.1.686-.047,6.691-1.6,6.691-1.6a51.262,51.262,0,0,0-5.2,2.251c-.718.682-.148,1.719.883,1.491.708-.156,4.071-1.76,5.02-1.966,0,0,.886.237,1.69,2.03.375.836,2.084,6.055,5.209,5.986,2.768-.06,5.486,2.222,5.486,2.222Z" transform="translate(-7.726 -14.029)" fill="#ffbe9d"/>
            <path id="Trazado_818851" data-name="Trazado 818851" d="M50.55,95.391a4.908,4.908,0,0,0,1.932.534,11.433,11.433,0,0,0,2.185.091c.81-.091,1.7-.215,2.627-.344l1.978-.29-.119-.011a28.467,28.467,0,0,0,4.571,1.434,28.525,28.525,0,0,0-4.41-1.882l-.052-.019-.068.008-1.962.265-2.6.38a14.046,14.046,0,0,1-2.117.017c-1.207-.084-1.948-.258-1.968-.184" transform="translate(-7.748 -14.546)" fill="#eb996e"/>
            <path id="Trazado_818852" data-name="Trazado 818852" d="M75.42,105.135a2.113,2.113,0,0,1-2.463,0c-.756-.455-1.335-1.152-2.056-1.66-2.156-1.518-5.262-1.158-7.343-2.778-.29-.226-.577-.6-.418-.927.148-.307.564-.342.9-.334l8.732.211" transform="translate(-9.671 -15.24)" fill="#ffbe9d"/>
            <path id="Trazado_818853" data-name="Trazado 818853" d="M72.733,99.6a3.468,3.468,0,0,0-.942-.119c-.608-.045-1.487-.093-2.574-.141L65.4,99.192l-1.1-.035a1.737,1.737,0,0,0-1.283.266.738.738,0,0,0-.142.815,1.524,1.524,0,0,0,.439.565,5.682,5.682,0,0,0,1.1.675,33.319,33.319,0,0,0,4.524,1.294,6.561,6.561,0,0,1,1.792.816c.508.345.932.765,1.364,1.111a3.074,3.074,0,0,0,2.455.869c.646-.125.857-.475.836-.477a2.555,2.555,0,0,1-.86.285,2.98,2.98,0,0,1-2.2-.945c-.4-.351-.814-.789-1.354-1.181a6.777,6.777,0,0,0-1.89-.914,38.932,38.932,0,0,1-4.449-1.307,5.351,5.351,0,0,1-.993-.606c-.283-.227-.422-.535-.267-.655.149-.155.55-.146.924-.134l1.1.018,3.82.039c1.088,0,1.969,0,2.577-.017a3.477,3.477,0,0,0,.947-.075" transform="translate(-9.627 -15.196)" fill="#eb996e"/>
            <path id="Trazado_818854" data-name="Trazado 818854" d="M131.777,341.646l-2.019,22.212L123.1,380.966a2.285,2.285,0,0,0,3.508,2.652c3.752-2.858,17.5-13.439,17.557-15.073.065-1.892,3.685-23.288,3.685-23.288Z" transform="translate(-18.843 -52.364)" fill="#d8dcfc"/>
            <g id="Grupo_1072275" data-name="Grupo 1072275" transform="translate(105.7 314.686)" opacity="0.6">
              <g id="Grupo_1072274" data-name="Grupo 1072274">
                <g id="Grupo_1072273" data-name="Grupo 1072273" clip-path="url(#clip-path-3)">
                  <path id="Trazado_818855" data-name="Trazado 818855" d="M124.833,388.576l19.788-16.927-.107.939a3.438,3.438,0,0,1-1.063,2.124c-1.6,1.493-6.091,5.52-16.489,13.515a2.285,2.285,0,0,1-2.129.35" transform="translate(-124.833 -371.649)" fill="#fff"/>
                </g>
              </g>
            </g>
            <g id="Grupo_1072278" data-name="Grupo 1072278" transform="translate(121.055 306.87)" opacity="0.6">
              <g id="Grupo_1072277" data-name="Grupo 1072277">
                <g id="Grupo_1072276" data-name="Grupo 1072276" clip-path="url(#clip-path-4)">
                  <path id="Trazado_818856" data-name="Trazado 818856" d="M143.667,362.567a1.383,1.383,0,0,0-.581,1.751,1.329,1.329,0,0,0,1.731.591,1.458,1.458,0,0,0,.605-1.858,1.379,1.379,0,0,0-1.869-.415" transform="translate(-142.968 -362.418)" fill="#fff"/>
                </g>
              </g>
            </g>
            <path id="Trazado_818857" data-name="Trazado 818857" d="M131.35,380.356c-.132.047-.5-1.171-1.747-1.945a6.956,6.956,0,0,0-2.5-.779c-.014-.057.287-.2.814-.211a3.642,3.642,0,0,1,3.281,2.107c.207.485.2.816.147.828" transform="translate(-19.482 -57.847)" fill="#263238"/>
            <path id="Trazado_818858" data-name="Trazado 818858" d="M129.133,383.831c-.116.084-.745-.718-1.854-1.177a18.6,18.6,0,0,0-2.132-.525,2.532,2.532,0,0,1,2.324.074c1.262.531,1.784,1.581,1.662,1.627" transform="translate(-19.181 -58.535)" fill="#263238"/>
            <path id="Trazado_818859" data-name="Trazado 818859" d="M135.025,376.2a22.74,22.74,0,0,0-2.739-2.009,22.777,22.777,0,0,0-3.2-1.141,6.247,6.247,0,0,1,5.939,3.15" transform="translate(-19.785 -57.166)" fill="#263238"/>
            <path id="Trazado_818860" data-name="Trazado 818860" d="M136.451,368.635c-.075.126-1.24-.525-2.826-.764-1.583-.261-2.893,0-2.925-.144a5.673,5.673,0,0,1,5.752.908" transform="translate(-20.032 -56.297)" fill="#263238"/>
            <path id="Trazado_818861" data-name="Trazado 818861" d="M137.31,360.944a11.171,11.171,0,0,0-2.921-.874,11.187,11.187,0,0,0-3.023.4c-.03-.05.243-.3.787-.538a4.976,4.976,0,0,1,4.464.353c.5.32.732.611.693.655" transform="translate(-20.134 -55.111)" fill="#263238"/>
            <path id="Trazado_818862" data-name="Trazado 818862" d="M134.569,357.961a1.938,1.938,0,0,1,.065-.842,5.86,5.86,0,0,1,.917-2.119,2.594,2.594,0,0,1,1.247-1.107.919.919,0,0,1,1.006.32,1.5,1.5,0,0,1,.236,1.041,3.229,3.229,0,0,1-3.152,2.649,3.747,3.747,0,0,1-3.434-2.364,1.3,1.3,0,0,1,.062-1.081.9.9,0,0,1,.991-.367,3.189,3.189,0,0,1,1.373.925,6.542,6.542,0,0,1,1.316,1.893,1.983,1.983,0,0,1,.253.805,10.388,10.388,0,0,0-1.809-2.45,2.994,2.994,0,0,0-1.217-.777.48.48,0,0,0-.541.2.892.892,0,0,0,0,.713,3.345,3.345,0,0,0,3,2.015,2.8,2.8,0,0,0,2.707-2.21,1.081,1.081,0,0,0-.134-.733.5.5,0,0,0-.552-.185,2.351,2.351,0,0,0-1.074.917,8.667,8.667,0,0,0-1.262,2.759" transform="translate(-20.135 -54.235)" fill="#263238"/>
            <path id="Trazado_818863" data-name="Trazado 818863" d="M153.163,327.67l16.622-131.627-5.315-30.6-31.348,1.662-3.9,158.132a2.415,2.415,0,0,0,1.952,2.434l18.256,2.815a3.265,3.265,0,0,0,3.737-2.818" transform="translate(-19.805 -25.358)" fill="#263238"/>
            <path id="Trazado_818864" data-name="Trazado 818864" d="M174.164,199.248,204.4,229.169l-43.5,10.579,3.1,21.947,58.881-8.013a18.529,18.529,0,0,0,12.815-28.792l-45.869-67.334-20.5,6.68Z" transform="translate(-24.661 -24.149)" fill="#263238"/>
            <path id="Trazado_818865" data-name="Trazado 818865" d="M174.589,197.8a34.409,34.409,0,0,1,1.669,7.616,34.694,34.694,0,0,1-1.669-7.616" transform="translate(-26.755 -30.317)" fill="#455a64"/>
            <path id="Trazado_818866" data-name="Trazado 818866" d="M167.076,248.614s.241-.09.718-.24l2.118-.657,8.113-2.467,29.52-8.879-.076.281L171.178,198l.374-.123c-.719,6.072-1.469,12.414-2.235,18.882-3.743,31.351-7.259,59.715-9.981,80.223-1.351,10.255-2.542,18.542-3.411,24.26-.483,2.853-.8,5.076-1.132,6.566q-.238,1.1-.365,1.694c-.084.381-.138.572-.138.572s.025-.2.095-.583.181-.964.321-1.7c.3-1.49.592-3.721,1.05-6.574.817-5.726,1.96-14.016,3.271-24.276,2.643-20.516,6.111-48.885,9.853-80.235.767-6.467,1.52-12.808,2.24-18.88l.055-.465.32.341,36.223,38.712.19.2-.265.079-29.564,8.735-8.139,2.378-2.131.61c-.482.135-.733.192-.733.192" transform="translate(-23.648 -30.25)" fill="#455a64"/>
            <path id="Trazado_818867" data-name="Trazado 818867" d="M157.834,331.524c-.122-.015,3.332-27.952,7.71-62.39s8.029-62.356,8.149-62.34-3.33,27.946-7.711,62.4-8.028,62.35-8.148,62.334" transform="translate(-24.191 -31.695)" fill="#455a64"/>
            <path id="Trazado_818868" data-name="Trazado 818868" d="M170.764,181.352a9.8,9.8,0,0,1,.7,2.041c.37,1.278.831,3.058,1.263,5.042s.755,3.8.95,5.113a9.816,9.816,0,0,1,.213,2.146,11.141,11.141,0,0,1-.519-2.091c-.307-1.453-.672-3.173-1.075-5.074l-1.135-5.059a11.163,11.163,0,0,1-.4-2.118" transform="translate(-26.171 -27.796)" fill="#455a64"/>
            <path id="Trazado_818869" data-name="Trazado 818869" d="M172.93,178.264c-.047-.025.424-.412,1.228-.132a1.428,1.428,0,0,1,.917,1.083,1.57,1.57,0,0,1-.685,1.6,1.525,1.525,0,0,1-1.737-.172,1.337,1.337,0,0,1,.174-2.123c.2-.11.326-.108.333-.084.041.057-.461.235-.6.913a.981.981,0,0,0,.349.981,1.149,1.149,0,0,0,1.25.107,1.2,1.2,0,0,0,.513-1.16,1.138,1.138,0,0,0-.642-.863,2.349,2.349,0,0,0-1.1-.153" transform="translate(-26.393 -27.287)" fill="#455a64"/>
            <path id="Trazado_818870" data-name="Trazado 818870" d="M221.185,247.25c-.091.1-1.793-1.468-4.242-2.879-2.44-1.429-4.645-2.13-4.6-2.26a16.774,16.774,0,0,1,8.846,5.139" transform="translate(-32.545 -37.107)" fill="#455a64"/>
            <path id="Trazado_818871" data-name="Trazado 818871" d="M142.471,58.45l-17.358,8.379,7.482,52.224-2.939,23.441a9.158,9.158,0,0,0,3.061,8.035l28.033-.553,19.631-10.793,9.016-1.523L185.7,119.818l1.654-25.311,20.519,10.955a7.148,7.148,0,0,0,5.157.616l37.618-9.729L248.7,81.855l-34.055,3.85L188.708,62.789l-19.3-4.339-3.442-5.687H146.212L144.831,53.8a4.135,4.135,0,0,0-1.428,1.957Z" transform="translate(-19.176 -8.087)" fill="#8054f8"/>
            <path id="Trazado_818872" data-name="Trazado 818872" d="M116.9,69.375a20.818,20.818,0,0,0-7.816,10.2c-1.984,6.161-6.461,31.08-6.461,31.08L82.9,98.413,71.538,110.359l26.291,23.184a13.365,13.365,0,0,0,14.638,2.018h0a13.367,13.367,0,0,0,7.443-10.234l3.227-23.629Z" transform="translate(-10.965 -10.633)" fill="#8054f8"/>
            <path id="Trazado_818873" data-name="Trazado 818873" d="M192.052,157.23l-1.222-1.8-12.979,2.4-2.389,5.53Z" transform="translate(-26.893 -23.823)" fill="#ffbe9d"/>
            <path id="Trazado_818874" data-name="Trazado 818874" d="M134.093,160.952c11.6,4.667,23.982,2.951,35.028-2.9,3.334-1.766,6.427-3.965,9.775-5.706s7.065-3.029,10.83-2.765,7.563,2.343,9.068,5.8,0,8.172-3.544,9.463l1.255,1.121a11.246,11.246,0,0,0,5.136-14.587c-1.949-3.952-6.043-6.306-9.043-9.532-4.411-4.744-4.871-13.925-4.9-21.071" transform="translate(-20.553 -18.511)" fill="#8054f8"/>
            <path id="Trazado_818875" data-name="Trazado 818875" d="M161.3,69.575a4.064,4.064,0,0,1-.854.049,3.246,3.246,0,0,0-2.056.946,4.813,4.813,0,0,0-1.025,3.312,11.013,11.013,0,0,0,.941,4.441l.327.729-.639-.474a34.333,34.333,0,0,1-4.372-3.867A32.209,32.209,0,0,1,146.9,64.415a22.943,22.943,0,0,1-1.091-3.578,8.144,8.144,0,0,1-.2-1.358,39.432,39.432,0,0,0,1.575,4.82,33.952,33.952,0,0,0,6.754,10.107,35.852,35.852,0,0,0,4.3,3.839l-.312.255a10.122,10.122,0,0,1-.723-2.374,10.417,10.417,0,0,1-.194-2.248,5.005,5.005,0,0,1,1.192-3.485,3.273,3.273,0,0,1,2.232-.905,4.009,4.009,0,0,1,.863.088" transform="translate(-22.317 -9.116)" fill="#263238"/>
            <path id="Trazado_818876" data-name="Trazado 818876" d="M165.371,68.926c1.428-.616,3.544.294,4.571,1.463.678.772,1.059,1.845,1.953,2.352s3.716.9,4.538.274c0,0,.5-2.411.765-3.411a75.749,75.749,0,0,0,1.93-11.585c-2.732-1.322-1.979-3.066-6.892-2.732a12.538,12.538,0,0,1,.171,6.927" transform="translate(-25.347 -8.468)" fill="#8054f8"/>
            <path id="Trazado_818877" data-name="Trazado 818877" d="M172.4,62.182c-.046-.013.179-.655.285-1.856a13.7,13.7,0,0,0-.61-5.019l-.064-.2.207-.012a8.476,8.476,0,0,1,3.625.327,5.551,5.551,0,0,1,1.673,1.206,6.765,6.765,0,0,0,1.7,1.174l.133.062-.015.149c-.218,2.057-.469,4.3-.858,6.618-.255,1.514-.56,2.982-.914,4.382s-.632,2.741-.933,4.014l-.02.084-.056.036a2.7,2.7,0,0,1-1.45.353,8.851,8.851,0,0,1-2.627-.363,2.7,2.7,0,0,1-1.113-.606,11.574,11.574,0,0,1-1.3-1.79,4.578,4.578,0,0,0-1.334-1.213,4.745,4.745,0,0,0-2.437-.761,5.313,5.313,0,0,0-.918.13,1.871,1.871,0,0,1,.913-.258,4.639,4.639,0,0,1,2.567.681,4.762,4.762,0,0,1,1.445,1.247,12.073,12.073,0,0,0,1.3,1.715,4.157,4.157,0,0,0,2.2.76,8.108,8.108,0,0,0,1.3.069,2.414,2.414,0,0,0,1.218-.284l-.075.119c.289-1.279.563-2.647.91-4.037s.644-2.846.9-4.35c.386-2.3.643-4.538.876-6.59l.117.211a7.076,7.076,0,0,1-1.785-1.255,5.22,5.22,0,0,0-1.55-1.152,8.316,8.316,0,0,0-3.455-.352l.143-.215a13.089,13.089,0,0,1,.483,5.141,8.513,8.513,0,0,1-.29,1.379,1.934,1.934,0,0,1-.176.459" transform="translate(-25.347 -8.436)" fill="#263238"/>
            <path id="Trazado_818878" data-name="Trazado 818878" d="M201.144,144.867c-.034,0,.039-.338-.008-.972a5.911,5.911,0,0,0-.835-2.61,8.69,8.69,0,0,0-3.113-3.008,13.141,13.141,0,0,0-5.552-1.524c-2.153-.2-4.537-.08-7.1-.254a26.6,26.6,0,0,1-8.01-1.7,16.515,16.515,0,0,1-7.225-5.4,12.6,12.6,0,0,1-2.077-4.351,16.723,16.723,0,0,1-.475-4.934,85.57,85.57,0,0,1,1.366-9.607,72.455,72.455,0,0,0,.847-8.947A74.334,74.334,0,0,0,167.844,86.4a75.26,75.26,0,0,0-2.5-9.961c-.362-1.159-.69-2.044-.9-2.647l-.236-.689a1,1,0,0,1-.066-.24,1.089,1.089,0,0,1,.108.224c.071.174.163.4.277.673.24.594.594,1.471.982,2.624a69.577,69.577,0,0,1,2.642,9.96,72.873,72.873,0,0,1,1.213,15.233,71.637,71.637,0,0,1-.826,9,86.754,86.754,0,0,0-1.352,9.555,13.727,13.727,0,0,0,2.46,9.013,16.149,16.149,0,0,0,7.029,5.274,26.392,26.392,0,0,0,7.885,1.711c2.534.188,4.925.089,7.1.307a13.292,13.292,0,0,1,5.649,1.622,8.776,8.776,0,0,1,3.137,3.135,5.79,5.79,0,0,1,.775,2.692,3.614,3.614,0,0,1-.039.731,1.008,1.008,0,0,1-.042.246" transform="translate(-25.158 -11.168)" fill="#263238"/>
            <path id="Trazado_818879" data-name="Trazado 818879" d="M187.051,139.659a8.586,8.586,0,0,1-.978,1.012c-.322.319-.725.7-1.218,1.113s-1.033.912-1.683,1.4a46.219,46.219,0,0,1-4.684,3.24,47.578,47.578,0,0,1-12.836,5.375,46.122,46.122,0,0,1-5.6,1.065c-.8.124-1.535.163-2.176.221s-1.195.081-1.648.087a8.532,8.532,0,0,1-1.407-.014,8.823,8.823,0,0,1,1.4-.158c.45-.031,1-.076,1.635-.161s1.362-.141,2.156-.284a51.827,51.827,0,0,0,5.535-1.15,50.561,50.561,0,0,0,12.731-5.331,51.626,51.626,0,0,0,4.7-3.138c.659-.466,1.212-.941,1.715-1.337s.925-.754,1.262-1.052a8.61,8.61,0,0,1,1.093-.884" transform="translate(-23.73 -21.405)" fill="#263238"/>
            <path id="Trazado_818880" data-name="Trazado 818880" d="M181.244,106.812a1.937,1.937,0,0,1-.074.467c-.078.35-.177.787-.3,1.321a20.158,20.158,0,0,1-.56,2.067c-.256.8-.5,1.717-.9,2.691-.188.493-.387,1.008-.592,1.543s-.478,1.07-.729,1.636c-.486,1.141-1.132,2.3-1.787,3.525a48.847,48.847,0,0,1-11.582,13.809c-1.1.859-2.123,1.7-3.161,2.373-.513.346-.994.7-1.484,1l-1.417.851c-.89.565-1.754.968-2.493,1.357a20.048,20.048,0,0,1-1.939.91l-1.249.521a1.891,1.891,0,0,1-.445.154,1.856,1.856,0,0,1,.411-.235l1.211-.6c.532-.246,1.175-.558,1.9-.974s1.573-.827,2.447-1.406l1.39-.87c.482-.3.954-.667,1.46-1.016,1.022-.684,2.031-1.527,3.112-2.386a50.529,50.529,0,0,0,11.489-13.7c.659-1.214,1.312-2.354,1.808-3.479.256-.558.53-1.086.747-1.613s.417-1.036.615-1.522c.417-.96.682-1.87.958-2.654s.479-1.472.629-2.037c.152-.525.274-.953.374-1.3a1.941,1.941,0,0,1,.161-.446" transform="translate(-23.379 -16.371)" fill="#263238"/>
            <path id="Trazado_818881" data-name="Trazado 818881" d="M143.348,171.173a5.132,5.132,0,0,1-1.544-1.151,11.774,11.774,0,0,1-3.535-8.409,5.14,5.14,0,0,1,.259-1.909c.075.01-.011.738.053,1.9a13.247,13.247,0,0,0,3.446,8.2c.787.859,1.367,1.307,1.321,1.367" transform="translate(-21.192 -24.478)" fill="#263238"/>
            <path id="Trazado_818882" data-name="Trazado 818882" d="M143.457,165.46c.126.033-.108,1.12.014,2.456.106,1.337.52,2.369.4,2.423a5.037,5.037,0,0,1-.416-4.88" transform="translate(-21.919 -25.36)" fill="#263238"/>
            <path id="Trazado_818883" data-name="Trazado 818883" d="M132.337,122.515a1.43,1.43,0,0,1-.1-.4c-.058-.314-.126-.693-.21-1.152-.179-1.07-.419-2.5-.71-4.242-.6-3.583-1.439-8.527-2.453-13.973s-2.013-10.364-2.748-13.92l-.865-4.213c-.087-.457-.16-.836-.22-1.149a1.5,1.5,0,0,1-.047-.408,1.427,1.427,0,0,1,.135.388c.081.308.18.682.3,1.131.253.984.6,2.414,1,4.185.814,3.542,1.859,8.454,2.876,13.906s1.81,10.41,2.328,14.006c.258,1.8.454,3.257.572,4.266.051.462.092.846.127,1.163a1.438,1.438,0,0,1,.015.41" transform="translate(-19.155 -12.731)" fill="#263238"/>
            <path id="Trazado_818884" data-name="Trazado 818884" d="M197.657,122.212a1.5,1.5,0,0,1-.042-.419c-.01-.326-.022-.722-.036-1.2-.025-1.044-.029-2.555-.016-4.422.036-3.734.2-8.894.63-14.577s1-10.814,1.445-14.52c.229-1.8.416-3.283.555-4.386.07-.474.128-.867.175-1.19a1.533,1.533,0,0,1,.091-.412,1.535,1.535,0,0,1,0,.422c-.025.325-.056.721-.092,1.2-.1,1.107-.246,2.594-.417,4.4-.362,3.714-.887,8.842-1.315,14.519s-.643,10.822-.759,14.551c-.051,1.813-.092,3.306-.124,4.417-.019.479-.034.876-.047,1.2a1.539,1.539,0,0,1-.047.419" transform="translate(-30.279 -12.428)" fill="#263238"/>
            <path id="Trazado_818885" data-name="Trazado 818885" d="M116.262,130.07c-.149.066-1.265-3.02-3.423-6.373a48.458,48.458,0,0,0-4.588-5.575,7.957,7.957,0,0,1,1.659,1.351,22.866,22.866,0,0,1,3.3,3.982,27.553,27.553,0,0,1,2.378,4.586,8.717,8.717,0,0,1,.676,2.029" transform="translate(-16.591 -18.104)" fill="#263238"/>
            <path id="Trazado_818886" data-name="Trazado 818886" d="M117.718,126.389a15.854,15.854,0,0,1-.949-1.649,13.242,13.242,0,0,0-2.928-3.426,18.649,18.649,0,0,0-3.874-2.361,10.994,10.994,0,0,1-1.716-.833,6.618,6.618,0,0,1,1.84.547,15.144,15.144,0,0,1,4.03,2.306,11.537,11.537,0,0,1,2.92,3.616,5.639,5.639,0,0,1,.677,1.8" transform="translate(-16.592 -18.103)" fill="#263238"/>
            <path id="Trazado_818887" data-name="Trazado 818887" d="M127.079,101.822a1.264,1.264,0,0,1-.176.375,3.874,3.874,0,0,1-.776.9,5.154,5.154,0,0,1-4.152,1.119,8.032,8.032,0,0,1-5.212-3.685,17.515,17.515,0,0,1-1.719-3.421c-.236-.619-.475-1.241-.676-1.907a5.2,5.2,0,0,1-.238-2.127,2.9,2.9,0,0,1,1.031-1.922,2.439,2.439,0,0,1,2.091-.373,4.084,4.084,0,0,1,2.787,2.642,3.972,3.972,0,0,1-.345,3.462,4.308,4.308,0,0,1-2.417,1.852,3.863,3.863,0,0,1-2.508-.119,4.3,4.3,0,0,1-1.566-1.063,3.6,3.6,0,0,1-.659-.994,1.146,1.146,0,0,1-.127-.395,5.835,5.835,0,0,0,.909,1.269,4.276,4.276,0,0,0,1.529.952,3.641,3.641,0,0,0,2.33.052,4.018,4.018,0,0,0,2.2-1.743,3.611,3.611,0,0,0,.275-3.136,3.692,3.692,0,0,0-2.5-2.358,2.011,2.011,0,0,0-1.724.3,2.478,2.478,0,0,0-.862,1.633,8.765,8.765,0,0,0,.88,3.82,17.446,17.446,0,0,0,1.654,3.351,7.79,7.79,0,0,0,4.926,3.6,5.069,5.069,0,0,0,3.99-.943,6.224,6.224,0,0,0,1.061-1.147" transform="translate(-17.23 -13.902)" fill="#fafafa"/>
            <path id="Trazado_818888" data-name="Trazado 818888" d="M162.758,113.378a1.639,1.639,0,0,1-.23.2l-.708.547a18.754,18.754,0,0,1-2.915,1.832,8.936,8.936,0,0,1-2.373.789,6.193,6.193,0,0,1-2.971-.193,10.472,10.472,0,0,1-5.364-4.723,17.232,17.232,0,0,1,.157-17.992,9.3,9.3,0,0,1,3.986-3.726,5.228,5.228,0,0,1,2.854-.362,3.943,3.943,0,0,1,2.559,1.449,4.157,4.157,0,0,1,.8,2.882,6.638,6.638,0,0,1-.917,2.881,9.383,9.383,0,0,1-4.709,3.818,12.077,12.077,0,0,1-6.042.624,12.439,12.439,0,0,1-5.45-2.257,18.638,18.638,0,0,1-6.4-8.977,10.787,10.787,0,0,1-.778-5.14,5.158,5.158,0,0,1,.986-2.34,3.627,3.627,0,0,1,2.067-1.347,4.53,4.53,0,0,1,4.265,1.474,4.851,4.851,0,0,1,1.03,4.058,6.444,6.444,0,0,1-1.737,3.419,8.277,8.277,0,0,1-2.864,1.876,13.041,13.041,0,0,1-5.378.813,31.212,31.212,0,0,1-3.422-.348l-.883-.142a1.521,1.521,0,0,1-.3-.064,1.557,1.557,0,0,1,.3.019l.887.1c.78.083,1.931.23,3.417.265a13.047,13.047,0,0,0,5.28-.87,8.044,8.044,0,0,0,2.755-1.842,6.169,6.169,0,0,0,1.632-3.274,4.541,4.541,0,0,0-.976-3.782,4.186,4.186,0,0,0-3.928-1.344,3.913,3.913,0,0,0-2.754,3.391,10.439,10.439,0,0,0,.779,4.943,18.275,18.275,0,0,0,6.272,8.761,12.006,12.006,0,0,0,5.263,2.174,11.671,11.671,0,0,0,5.82-.6,8.964,8.964,0,0,0,4.489-3.628,6.214,6.214,0,0,0,.86-2.689,3.727,3.727,0,0,0-.7-2.588,3.514,3.514,0,0,0-2.284-1.291,4.809,4.809,0,0,0-2.623.329,8.926,8.926,0,0,0-3.809,3.56,16.6,16.6,0,0,0-2.582,9.4,16.775,16.775,0,0,0,2.351,8.21,10.254,10.254,0,0,0,5.174,4.651,7,7,0,0,0,5.2-.517,20.485,20.485,0,0,0,2.936-1.749l.732-.511a1.642,1.642,0,0,1,.257-.164" transform="translate(-19.621 -12.454)" fill="#fafafa"/>
            <path id="Trazado_818889" data-name="Trazado 818889" d="M138.41,63.083a2.526,2.526,0,0,1-.269.758,12.009,12.009,0,0,1-1.086,1.905A13.948,13.948,0,0,1,124.5,71.735a12.034,12.034,0,0,1-2.164-.354,2.531,2.531,0,0,1-.759-.268c.019-.08,1.119.245,2.939.31a14.547,14.547,0,0,0,12.283-5.86c1.094-1.456,1.534-2.516,1.608-2.48" transform="translate(-18.635 -9.669)" fill="#fafafa"/>
            <path id="Trazado_818890" data-name="Trazado 818890" d="M155.511,67.327a5.422,5.422,0,0,0-3.934,3.34c-.052-.008-.068-.337.1-.836a3.964,3.964,0,0,1,2.995-2.543c.52-.083.842-.014.841.038" transform="translate(-23.227 -10.308)" fill="#fafafa"/>
            <path id="Trazado_818891" data-name="Trazado 818891" d="M176.49,71.849a1.933,1.933,0,0,1-.718-.331,5.854,5.854,0,0,1-1.593-1.465,5.753,5.753,0,0,1-1.174-3,2.86,2.86,0,0,1,.52-1.9,1.964,1.964,0,0,1,1.962-.83,2.178,2.178,0,0,1,1.539,1.479,2.038,2.038,0,0,1-.388,1.947,2.74,2.74,0,0,1-3.068.813,3.441,3.441,0,0,1-1.674-1.385,1.61,1.61,0,0,1-.316-.728c.035-.016.149.241.456.629a3.52,3.52,0,0,0,1.637,1.19,2.428,2.428,0,0,0,2.648-.772,1.63,1.63,0,0,0,.295-1.561,1.767,1.767,0,0,0-1.223-1.182,1.545,1.545,0,0,0-1.523.66,2.476,2.476,0,0,0-.459,1.622,5.657,5.657,0,0,0,1.021,2.839,8.832,8.832,0,0,0,2.058,1.978" transform="translate(-26.298 -9.852)" fill="#fafafa"/>
            <path id="Trazado_818892" data-name="Trazado 818892" d="M180.253,61.039a7.819,7.819,0,0,0-6.156-2.527c-.012-.051.367-.2,1.02-.254a5.748,5.748,0,0,1,4.587,1.883c.43.494.593.87.549.9" transform="translate(-26.684 -8.927)" fill="#fafafa"/>
            <path id="Trazado_818893" data-name="Trazado 818893" d="M203.058,71.931a.65.65,0,0,1-.167.1l-.51.266a22.006,22.006,0,0,1-2.035.865,24.507,24.507,0,0,1-7.976,1.5,11.311,11.311,0,0,1-2.708-.262,5.9,5.9,0,0,1-2.671-1.3,3.961,3.961,0,0,1-1.309-2.9,4.881,4.881,0,0,1,1.126-3.185,6.545,6.545,0,0,1,6.742-1.732,7.852,7.852,0,0,1,5.4,5.233,7.723,7.723,0,0,1-1.613,7.339,11.831,11.831,0,0,1-6.271,3.374,35.953,35.953,0,0,1-6.422.649,35.484,35.484,0,0,0-5.544.541,11.244,11.244,0,0,0-6.822,3.892,8.155,8.155,0,0,0-1.3,2.63.639.639,0,0,1,.027-.195,5.439,5.439,0,0,1,.135-.561,6.787,6.787,0,0,1,1-1.977,11.261,11.261,0,0,1,6.9-4.094,34.794,34.794,0,0,1,5.589-.6,36.171,36.171,0,0,0,6.349-.68,11.464,11.464,0,0,0,6.039-3.264,7.3,7.3,0,0,0,1.514-6.927,7.436,7.436,0,0,0-5.1-4.943,6.148,6.148,0,0,0-6.313,1.578,4.5,4.5,0,0,0-1.049,2.917,3.588,3.588,0,0,0,1.168,2.637,5.593,5.593,0,0,0,2.5,1.239,11.119,11.119,0,0,0,2.627.281A25.39,25.39,0,0,0,200.29,73c.9-.306,1.59-.589,2.055-.784a5.547,5.547,0,0,1,.713-.289" transform="translate(-26.206 -9.963)" fill="#fafafa"/>
            <path id="Trazado_818894" data-name="Trazado 818894" d="M181.788,111.454c-.07.032-.367-.71-1.139-1.7A8.711,8.711,0,0,0,172,106.5c-1.234.237-1.945.6-1.977.53a4.626,4.626,0,0,1,1.909-.835,8.376,8.376,0,0,1,8.973,3.373,4.616,4.616,0,0,1,.887,1.886" transform="translate(-26.059 -16.238)" fill="#fafafa"/>
            <path id="Trazado_818895" data-name="Trazado 818895" d="M193.454,120.012a4.151,4.151,0,0,1-1.158,1.71,7.093,7.093,0,0,1-9.283.737,4.159,4.159,0,0,1-1.414-1.506c.06-.053.546.577,1.59,1.25a7.216,7.216,0,0,0,8.892-.706c.925-.829,1.306-1.527,1.373-1.484" transform="translate(-27.833 -18.394)" fill="#fafafa"/>
            <path id="Trazado_818896" data-name="Trazado 818896" d="M197.041,99.919c-.037.064-.547-.245-1.447-.483a6.2,6.2,0,0,0-6.485,2.074c-.6.715-.831,1.262-.9,1.232a2.95,2.95,0,0,1,.651-1.423,5.934,5.934,0,0,1,6.824-2.182,2.941,2.941,0,0,1,1.356.781" transform="translate(-28.846 -15.144)" fill="#fafafa"/>
            <path id="Trazado_818897" data-name="Trazado 818897" d="M231.607,90.664a3.449,3.449,0,0,1,.155.628,4.551,4.551,0,0,1,.106.779,6.212,6.212,0,0,1,.03,1.074,10.739,10.739,0,0,1-2.427,6.31,11.151,11.151,0,0,1-3.65,3.009,11.308,11.308,0,0,1-5.29,1.214A14.227,14.227,0,0,1,209.655,98.3a8.513,8.513,0,0,1-1.533-2.933,5.56,5.56,0,0,1,.055-3.231,4.114,4.114,0,0,1,1.981-2.417,4.563,4.563,0,0,1,2.977-.352,5.06,5.06,0,0,1,2.517,1.335,5.8,5.8,0,0,1,1.381,2.3A7.7,7.7,0,0,1,217,97.72a8.986,8.986,0,0,1-2,3.355,9.158,9.158,0,0,1-2.331,1.8,8.687,8.687,0,0,1-1.728.688,3.481,3.481,0,0,1-.636.119,12.594,12.594,0,0,0,2.281-.958,9.137,9.137,0,0,0,4.115-5.1,7.421,7.421,0,0,0-.011-4.516,5.44,5.44,0,0,0-1.308-2.136,4.673,4.673,0,0,0-2.325-1.213,4.163,4.163,0,0,0-2.7.328,3.7,3.7,0,0,0-1.765,2.179,5.134,5.134,0,0,0-.041,2.98A8.109,8.109,0,0,0,210,98.027a13.893,13.893,0,0,0,10.531,5.245,10.778,10.778,0,0,0,8.694-4.013,10.793,10.793,0,0,0,2.5-6.123,15.625,15.625,0,0,0-.119-2.473" transform="translate(-31.867 -13.681)" fill="#fafafa"/>
            <path id="Trazado_818898" data-name="Trazado 818898" d="M243.311,108.37a2.258,2.258,0,0,1-.515-.581,6.1,6.1,0,0,1-.925-1.916,7.845,7.845,0,0,1-.128-3.154,28.833,28.833,0,0,1,.859-3.738,26.5,26.5,0,0,1,3.03-6.25c.476-.749.878-1.342,1.165-1.747a2.662,2.662,0,0,1,.483-.6,21.41,21.41,0,0,1-1.381,2.511,31.134,31.134,0,0,0-2.875,6.218,33.26,33.26,0,0,0-.879,3.668,8,8,0,0,0,.028,3.019,11.318,11.318,0,0,0,1.138,2.573" transform="translate(-37.037 -13.853)" fill="#fafafa"/>
            <path id="Trazado_818899" data-name="Trazado 818899" d="M261.927,88.618a1.9,1.9,0,0,1,.257.606,10.94,10.94,0,0,1,.427,1.74,15.611,15.611,0,0,1-2.5,11.32,10.945,10.945,0,0,1-1.12,1.4c-.293.3-.465.462-.488.442-.059-.052.562-.748,1.346-2.011a17.2,17.2,0,0,0,2.451-11.1c-.18-1.477-.45-2.368-.375-2.391" transform="translate(-39.621 -13.583)" fill="#fafafa"/>
            <path id="Trazado_818900" data-name="Trazado 818900" d="M193.3,134.875a1.469,1.469,0,0,1-.37-.19,9.738,9.738,0,0,0-1.034-.563,12.133,12.133,0,0,0-4.127-1.157,12.577,12.577,0,0,0-6.218,1,10.676,10.676,0,0,0-3.1,2.058,6.4,6.4,0,0,0-1.223,1.512,3.057,3.057,0,0,0-.426,1.859,2.214,2.214,0,0,0,.9,1.59,1.808,1.808,0,0,0,1.726.08A3.032,3.032,0,0,0,181,138.086a6.013,6.013,0,0,0-3.14-5.092,6.186,6.186,0,0,0-4.146-.549,12.663,12.663,0,0,0-1.506.488,1.367,1.367,0,0,1,.351-.226,5.554,5.554,0,0,1,1.116-.429,6.2,6.2,0,0,1,4.329.439,6.307,6.307,0,0,1,3.4,5.362,4.389,4.389,0,0,1-.359,1.911,2.875,2.875,0,0,1-1.443,1.465,2.238,2.238,0,0,1-2.14-.107,2.642,2.642,0,0,1-1.1-1.9,3.488,3.488,0,0,1,.48-2.126,6.85,6.85,0,0,1,1.308-1.611,10.959,10.959,0,0,1,3.24-2.116,12.638,12.638,0,0,1,6.414-.935,11.507,11.507,0,0,1,4.174,1.314,6.925,6.925,0,0,1,1,.642,1.471,1.471,0,0,1,.321.263" transform="translate(-26.394 -20.243)" fill="#fafafa"/>
            <path id="Trazado_818901" data-name="Trazado 818901" d="M200.293,143.653a5.611,5.611,0,0,1-1.025,1.943c-.667,1.007-1.29,1.767-1.392,1.7a5.611,5.611,0,0,1,1.025-1.944c.667-1.006,1.29-1.766,1.392-1.7" transform="translate(-30.327 -22.017)" fill="#fafafa"/>
            <path id="Trazado_818902" data-name="Trazado 818902" d="M212.559,157.43c-.069.019-.186-.3-.481-.739a4.4,4.4,0,0,0-3.442-1.917c-.527-.019-.862.049-.882-.019-.017-.047.3-.229.872-.293a3.866,3.866,0,0,1,3.722,2.073c.25.522.26.886.211.9" transform="translate(-31.843 -23.672)" fill="#fafafa"/>
            <path id="Trazado_818903" data-name="Trazado 818903" d="M169.986,152.871c.03.063-1.019.583-2.653,1.516a22.917,22.917,0,0,0-5.759,4.45,12.26,12.26,0,0,0-3.049,6.471,14.972,14.972,0,0,0,.047,3.019,2.479,2.479,0,0,1-.242-.792,8.034,8.034,0,0,1-.115-2.259,11.872,11.872,0,0,1,3.029-6.731,20.734,20.734,0,0,1,5.94-4.432c.842-.438,1.539-.758,2.025-.964a2.914,2.914,0,0,1,.777-.279" transform="translate(-24.245 -23.43)" fill="#fafafa"/>
            <path id="Trazado_818904" data-name="Trazado 818904" d="M186.516,156.271c-.027.033-.474-.279-.922-1.018a5.654,5.654,0,0,1,.527-6.323c.565-.655,1.057-.889,1.078-.851.047.062-.364.38-.831,1.041a6.076,6.076,0,0,0-.5,5.986c.351.73.7,1.112.648,1.165" transform="translate(-28.335 -22.696)" fill="#fafafa"/>
            <path id="Trazado_818905" data-name="Trazado 818905" d="M159,139.22c-.02.015-.15-.191-.485-.49a3.517,3.517,0,0,0-1.764-.783,4.405,4.405,0,0,0-2.953.616,8.99,8.99,0,0,0-2.8,2.96c-.837,1.285-1.547,2.836-2.616,4.342a9.232,9.232,0,0,1-4.669,3.489,8.653,8.653,0,0,1-6.409-.373,9.167,9.167,0,0,1-4.713-5.025,5.464,5.464,0,0,1-.145-3.572,5.006,5.006,0,0,1,2.2-2.693,5.15,5.15,0,0,1,3.272-.749,5.4,5.4,0,0,1,2.906,1.383,7.111,7.111,0,0,1,2.3,5.323,8.793,8.793,0,0,1-1.581,4.836,9.813,9.813,0,0,1-3.062,2.879,12.162,12.162,0,0,1-2.909,1.265,12.994,12.994,0,0,1-1.958.414c-.226.033-.4.045-.516.053a.54.54,0,0,1-.178,0,5.047,5.047,0,0,1,.681-.143,15.772,15.772,0,0,0,1.92-.489,12.5,12.5,0,0,0,2.829-1.311,9.671,9.671,0,0,0,2.933-2.844,8.51,8.51,0,0,0,1.474-4.663,6.751,6.751,0,0,0-2.2-5.018,4.994,4.994,0,0,0-2.685-1.268,4.738,4.738,0,0,0-3,.7,4.581,4.581,0,0,0-2,2.461,5.038,5.038,0,0,0,.143,3.285,8.769,8.769,0,0,0,4.481,4.783,8.259,8.259,0,0,0,6.1.378,8.886,8.886,0,0,0,4.5-3.318c1.055-1.456,1.783-3,2.651-4.3a9.14,9.14,0,0,1,2.939-3,4.551,4.551,0,0,1,3.107-.572,3.483,3.483,0,0,1,1.8.887,2.131,2.131,0,0,1,.425.556" transform="translate(-20.263 -20.985)" fill="#fafafa"/>
            <path id="Trazado_818906" data-name="Trazado 818906" d="M163.487,153.3a4.1,4.1,0,0,1-1.366-1.08,9.325,9.325,0,0,1-2.344-7.858,4.089,4.089,0,0,1,.552-1.651c.072.024-.131.654-.243,1.7a10.355,10.355,0,0,0,2.268,7.609c.665.809,1.18,1.225,1.132,1.285" transform="translate(-24.469 -21.874)" fill="#fafafa"/>
            <path id="Trazado_818907" data-name="Trazado 818907" d="M162.439,130.353c-.023.044-.6-.285-1.7-.718a20.291,20.291,0,0,0-12.2-.912,16.411,16.411,0,0,0-4.063,1.522,2.707,2.707,0,0,0-1.345,1.608,1.53,1.53,0,0,0,.876,1.7.915.915,0,0,0,.892-.269,2.219,2.219,0,0,0,.506-.945,7.836,7.836,0,0,0,.195-2.25,10.181,10.181,0,0,0-1.084-4.157,9.709,9.709,0,0,0-2.39-3.073,9.506,9.506,0,0,0-2.949-1.7,10.285,10.285,0,0,0-4.908-.489c-1.168.186-1.781.443-1.8.4a1.962,1.962,0,0,1,.438-.2,8.669,8.669,0,0,1,1.329-.371,10.046,10.046,0,0,1,5.039.363,9.693,9.693,0,0,1,3.082,1.71,9.985,9.985,0,0,1,2.517,3.168,10.493,10.493,0,0,1,1.152,4.322,8.139,8.139,0,0,1-.2,2.39,2.651,2.651,0,0,1-.618,1.136,1.358,1.358,0,0,1-1.321.381,1.673,1.673,0,0,1-1.005-.911,2.13,2.13,0,0,1-.184-1.3,3.111,3.111,0,0,1,1.551-1.894,16.515,16.515,0,0,1,4.193-1.548,20.081,20.081,0,0,1,7.5-.273,18.9,18.9,0,0,1,4.856,1.423,11.8,11.8,0,0,1,1.229.621,1.926,1.926,0,0,1,.406.256" transform="translate(-20.305 -18.445)" fill="#fafafa"/>
            <path id="Trazado_818908" data-name="Trazado 818908" d="M88.589,131.007c-.027-.036.526-.409,1.361-1.255a11.8,11.8,0,0,0,2.661-4.2,9.2,9.2,0,0,0-.213-7.165,9.051,9.051,0,0,0-2.7-3.336,7.612,7.612,0,0,0-4.264-1.6,4.915,4.915,0,0,0-2.24.468,2.828,2.828,0,0,0-1.489,1.511,2.178,2.178,0,0,0,.3,1.965,3.2,3.2,0,0,0,1.607,1.192,4.374,4.374,0,0,0,3.665-.622,6.209,6.209,0,0,0,2.223-2.523,12.745,12.745,0,0,0,1.06-4.864c.024-.556.043-1.011.058-1.373a2.01,2.01,0,0,1,.041-.481,1.973,1.973,0,0,1,.047.48c.014.315.03.781.024,1.38a12.242,12.242,0,0,1-.95,4.992,6.467,6.467,0,0,1-2.3,2.694,4.734,4.734,0,0,1-3.989.7,3.59,3.59,0,0,1-1.829-1.341,2.6,2.6,0,0,1-.365-2.345A3.251,3.251,0,0,1,83,113.524a5.318,5.318,0,0,1,2.445-.514,8,8,0,0,1,4.513,1.7,9.4,9.4,0,0,1,2.808,3.507,8.849,8.849,0,0,1,.836,3.979,10.278,10.278,0,0,1-.7,3.468,11.428,11.428,0,0,1-2.833,4.214,8.66,8.66,0,0,1-1.07.878,2,2,0,0,1-.411.254" transform="translate(-12.439 -16.664)" fill="#fafafa"/>
            <path id="Trazado_818909" data-name="Trazado 818909" d="M109.938,145.922a3.553,3.553,0,0,1-.663-.7,13.95,13.95,0,0,1-1.45-2.2,15.633,15.633,0,0,1,1.093-16.57,13.8,13.8,0,0,1,1.726-1.993,3.532,3.532,0,0,1,.749-.61c.063.062-.995.957-2.219,2.781a16.086,16.086,0,0,0-1.071,16.251c.974,1.969,1.905,3,1.835,3.049" transform="translate(-16.24 -18.981)" fill="#fafafa"/>
            <path id="Trazado_818910" data-name="Trazado 818910" d="M126.884,125.934c-.08.028-.431-1.274-1.481-3.143a17.4,17.4,0,0,0-13.383-8.851c-2.13-.235-3.466-.048-3.472-.133a3.408,3.408,0,0,1,.929-.16,14.711,14.711,0,0,1,2.572-.018,16.76,16.76,0,0,1,13.627,9.013,14.758,14.758,0,0,1,.991,2.374,3.436,3.436,0,0,1,.216.918" transform="translate(-16.637 -17.409)" fill="#fafafa"/>
            <g id="Grupo_1072281" data-name="Grupo 1072281" transform="translate(132.798 120.865)" opacity="0.3">
              <g id="Grupo_1072280" data-name="Grupo 1072280">
                <g id="Grupo_1072279" data-name="Grupo 1072279" clip-path="url(#clip-path-5)">
                  <path id="Trazado_818911" data-name="Trazado 818911" d="M157.421,154.1c-.807.345-.732,1.636-.055,2.194a3.622,3.622,0,0,0,2.515.538,32.681,32.681,0,0,0,25.086-14.09c-7.656,6.28-17.7,8.652-27.353,10.842" transform="translate(-156.837 -142.743)"/>
                </g>
              </g>
            </g>
            <g id="Grupo_1072284" data-name="Grupo 1072284" transform="translate(131.471 96.59)" opacity="0.3">
              <g id="Grupo_1072283" data-name="Grupo 1072283">
                <g id="Grupo_1072282" data-name="Grupo 1072282" clip-path="url(#clip-path-6)">
                  <path id="Trazado_818912" data-name="Trazado 818912" d="M155.67,141.069c-.834-1.278-.273-3.071.8-4.152a13.949,13.949,0,0,1,3.914-2.33,24.738,24.738,0,0,0,11.41-11.715c1.538-3.334,2.706-7.427,6.113-8.8a33.068,33.068,0,0,1-21.769,25.961" transform="translate(-155.269 -114.074)"/>
                </g>
              </g>
            </g>
            <g id="Grupo_1072287" data-name="Grupo 1072287" transform="translate(104.939 79.683)" opacity="0.3">
              <g id="Grupo_1072286" data-name="Grupo 1072286">
                <g id="Grupo_1072285" data-name="Grupo 1072285" clip-path="url(#clip-path-7)">
                  <path id="Trazado_818913" data-name="Trazado 818913" d="M126.83,94.107a86.011,86.011,0,0,1-1.948,27.674,23.634,23.634,0,0,0-.945,5.831,7.75,7.75,0,0,0,2.815,5.474c1.407-3.237,1.433-6.361,2.025-9.851.533-3.146,1.428-10.483,1.429-10.591.124-6.424-1.392-11.924-3.858-17.708" transform="translate(-123.934 -94.107)"/>
                </g>
              </g>
            </g>
            <g id="Grupo_1072290" data-name="Grupo 1072290" transform="translate(123.328 51.742)" opacity="0.3">
              <g id="Grupo_1072289" data-name="Grupo 1072289">
                <g id="Grupo_1072288" data-name="Grupo 1072288" clip-path="url(#clip-path-8)">
                  <path id="Trazado_818914" data-name="Trazado 818914" d="M146.119,61.252A33.74,33.74,0,0,0,155.7,79.233c1.873,1.824,4.2,3.511,6.814,3.427a15.941,15.941,0,0,1-1.307-9.98,41.362,41.362,0,0,0,6.974,3.793,13.865,13.865,0,0,0,7.791.886q.813-7.035,1.627-14.072a2.6,2.6,0,0,0-.146-1.572.9.9,0,0,0-1.341-.32,1.286,1.286,0,0,0-.263.616c-.955,4.112-1.485,7.791-2.439,11.9-.684.679-2.794.4-4.183-.113-1.21-.446-1.674-1.448-2.475-2.458s-.659-.833-1.846-1.337c-2.181-.926-6.373-.188-7.287,1.772s-.222,4.541.386,6.465a29.336,29.336,0,0,1-12.352-17.134" transform="translate(-145.652 -61.108)"/>
                </g>
              </g>
            </g>
            <g id="Grupo_1072293" data-name="Grupo 1072293" transform="translate(168.182 71.745)" opacity="0.3">
              <g id="Grupo_1072292" data-name="Grupo 1072292">
                <g id="Grupo_1072291" data-name="Grupo 1072291" clip-path="url(#clip-path-9)">
                  <path id="Trazado_818915" data-name="Trazado 818915" d="M200.41,84.732c-.17.34,5.273,18.7,5.273,18.7l-7.057-4.021Z" transform="translate(-198.626 -84.732)"/>
                </g>
              </g>
            </g>
            <path id="Trazado_818916" data-name="Trazado 818916" d="M148.968,19.081V48.307a7.087,7.087,0,0,0,1.666,4.564,21.4,21.4,0,0,0,5.869,4.861l5.9,3.32,4.876-4.353a7.094,7.094,0,0,0,2.362-5.011c.084-2.13.084-4.274.084-4.274s8.262-.593,9.038-8.741c.365-3.837.481-11.693.5-18.935A15.849,15.849,0,0,0,164.714,3.907l-.233-.019a15.146,15.146,0,0,0-15.513,15.194" transform="translate(-22.832 -0.595)" fill="#ffbe9d"/>
            <path id="Trazado_818917" data-name="Trazado 818917" d="M171.6,54.567a19.768,19.768,0,0,1-10.36-4.019s2.138,6.182,10.338,6.121Z" transform="translate(-24.714 -7.748)" fill="#eb996e"/>
            <path id="Trazado_818918" data-name="Trazado 818918" d="M181.47,28.587a1.169,1.169,0,0,1-1.22,1.082,1.117,1.117,0,0,1-1.113-1.15,1.169,1.169,0,0,1,1.218-1.083,1.118,1.118,0,0,1,1.115,1.151" transform="translate(-27.456 -4.205)" fill="#263238"/>
            <path id="Trazado_818919" data-name="Trazado 818919" d="M181.451,26.234c-.157.14-.986-.586-2.239-.687-1.251-.119-2.224.45-2.347.285-.062-.073.108-.335.533-.594a3.211,3.211,0,0,1,1.895-.417,3.086,3.086,0,0,1,1.766.736c.361.328.469.614.392.676" transform="translate(-27.106 -3.803)" fill="#263238"/>
            <path id="Trazado_818920" data-name="Trazado 818920" d="M167.509,27.885a1.17,1.17,0,0,1-1.221,1.082,1.119,1.119,0,0,1-1.114-1.15,1.171,1.171,0,0,1,1.22-1.083,1.121,1.121,0,0,1,1.115,1.151" transform="translate(-25.316 -4.097)" fill="#263238"/>
            <path id="Trazado_818921" data-name="Trazado 818921" d="M166.878,25.306c-.158.14-.986-.586-2.24-.687-1.251-.118-2.224.45-2.347.286-.061-.074.108-.336.533-.594a3.21,3.21,0,0,1,1.894-.417,3.083,3.083,0,0,1,1.767.737c.36.327.468.613.392.675" transform="translate(-24.873 -3.661)" fill="#263238"/>
            <path id="Trazado_818922" data-name="Trazado 818922" d="M172.173,35.087a8.289,8.289,0,0,1,2.066-.2c.323-.006.631-.045.7-.259a1.637,1.637,0,0,0-.135-.966q-.356-1.2-.745-2.516a41.951,41.951,0,0,1-1.6-6.55A42.228,42.228,0,0,1,174.585,31c.246.882.481,1.722.7,2.527a1.856,1.856,0,0,1,.063,1.27.808.808,0,0,1-.565.424,2.151,2.151,0,0,1-.55.03,8.152,8.152,0,0,1-2.063-.168" transform="translate(-26.389 -3.77)" fill="#263238"/>
            <path id="Trazado_818923" data-name="Trazado 818923" d="M167.684,37.649c.2.005.095,1.366,1.18,2.428s2.545,1.032,2.54,1.224c.012.087-.345.237-.958.2a3.4,3.4,0,0,1-2.127-.944,2.965,2.965,0,0,1-.9-2.029c0-.572.175-.9.268-.881" transform="translate(-25.66 -5.77)" fill="#263238"/>
            <path id="Trazado_818924" data-name="Trazado 818924" d="M167.528,19.585c-.152.33-1.39.065-2.875.121-1.487.025-2.708.358-2.878.036-.075-.154.158-.457.666-.748a5,5,0,0,1,4.382-.119c.522.262.771.552.705.71" transform="translate(-24.793 -2.824)" fill="#263238"/>
            <path id="Trazado_818925" data-name="Trazado 818925" d="M181.324,21.893c-.244.267-1.083-.1-2.12-.2-1.033-.135-1.933.033-2.111-.282-.076-.152.086-.425.492-.663a3.084,3.084,0,0,1,3.409.389c.343.323.439.626.33.757" transform="translate(-27.14 -3.127)" fill="#263238"/>
            <path id="Trazado_818926" data-name="Trazado 818926" d="M158.333,11.156l-.047.031a6.439,6.439,0,0,0-2.728,3.952c-.013.057-.025.111-.036.163-.511,2.3-.649,4.671-1.184,6.966s-.435,4.048-2.734,4.566a3.061,3.061,0,0,1-3.2-1.3,1.992,1.992,0,0,1-.2-1.09c.03-5.653-1.107-7.848-.611-13.721a4.969,4.969,0,0,1,2.389-3.86c1.3-.779,2.88-1.569,4.193-.809s2.871,3.466,3.842,4.638" transform="translate(-22.602 -0.88)" fill="#263238"/>
            <path id="Trazado_818927" data-name="Trazado 818927" d="M150.812,26.382c-.134-.072-5.466-2.121-5.75,3.469s5.388,4.722,5.406,4.562.345-8.031.345-8.031" transform="translate(-22.232 -3.978)" fill="#ffbe9d"/>
            <path id="Trazado_818928" data-name="Trazado 818928" d="M149.125,32.531c-.024-.019-.1.064-.269.13a.973.973,0,0,1-.729-.022,2.412,2.412,0,0,1-1.005-2.218,3.213,3.213,0,0,1,.343-1.381,1.129,1.129,0,0,1,.771-.71.5.5,0,0,1,.561.3c.067.16.026.27.055.281s.124-.087.091-.321a.625.625,0,0,0-.2-.362.735.735,0,0,0-.531-.169,1.37,1.37,0,0,0-1.062.815,3.321,3.321,0,0,0-.417,1.541,2.532,2.532,0,0,0,1.3,2.486,1.046,1.046,0,0,0,.9-.1c.18-.13.216-.253.2-.264" transform="translate(-22.489 -4.3)" fill="#eb996e"/>
            <path id="Trazado_818929" data-name="Trazado 818929" d="M155.007,6.019c-1.188-2.345,2.838-5.236,5.662-5.876s6.338,1,9,2.137c1.681.716,3.336,1.658,5.162,1.734a12.368,12.368,0,0,0,3.61-.609A9.05,9.05,0,0,1,182.067,3a3.374,3.374,0,0,1,2.781,2.1,2.114,2.114,0,0,1-1.645,2.73,2.883,2.883,0,0,1,3.86,2.342,2.886,2.886,0,0,1-3.549,2.793c.843-.535,1.975.558,1.8,1.54a2.9,2.9,0,0,1-2.081,1.953,10.47,10.47,0,0,1-7.433-.731c-2.34-1.009-4.467-2.456-6.781-3.523s-6.181-2.958-8.646-2.312c-1.815.475-3.218,2.5-4.175,1.947a3.421,3.421,0,0,1-1.557-2.654,9.933,9.933,0,0,1,.373-3.165" transform="translate(-23.697 0)" fill="#263238"/>
            <path id="Trazado_818930" data-name="Trazado 818930" d="M184.183,8.015c-.044-.031-.322.389-.975.99a7.716,7.716,0,0,1-3.263,1.738,7.092,7.092,0,0,1-5.3-.655c-1.826-1.006-3.308-2.841-5.043-4.6a11.608,11.608,0,0,0-6.019-3.528,6.446,6.446,0,0,0-5.484,1.4,4.886,4.886,0,0,0-1.564,3.5,3.781,3.781,0,0,0,.156,1.045c.082.228.136.34.154.334a8.971,8.971,0,0,1-.095-1.373,4.816,4.816,0,0,1,1.611-3.217,6.115,6.115,0,0,1,5.13-1.194,11.323,11.323,0,0,1,5.719,3.42c1.7,1.717,3.232,3.6,5.188,4.652a7.394,7.394,0,0,0,5.649.586,7.442,7.442,0,0,0,3.31-1.96,5.223,5.223,0,0,0,.654-.821c.128-.2.187-.312.171-.323" transform="translate(-23.992 -0.283)" fill="#455a64"/>
            <path id="Trazado_818931" data-name="Trazado 818931" d="M150.019,23.442c.019.02.253-.134.5-.559a3.766,3.766,0,0,0,.445-2c.025-1.807-1.4-3.866-1.4-6.365a5.622,5.622,0,0,1,.892-3.277,4.276,4.276,0,0,1,2.22-1.619,3.648,3.648,0,0,1,1.883-.1c.442.108.674.233.7.19.015-.021-.181-.213-.637-.4a3.48,3.48,0,0,0-2.049-.072,4.509,4.509,0,0,0-2.532,1.7,5.936,5.936,0,0,0-1.03,3.578,10.2,10.2,0,0,0,.784,3.6,10.619,10.619,0,0,1,.779,2.777,4.315,4.315,0,0,1-.555,2.535" transform="translate(-22.839 -1.399)" fill="#455a64"/>
          </g>
        </g>
        <g id="Grupo_1072297" data-name="Grupo 1072297">
          <g id="Grupo_1072313" data-name="Grupo 1072313">
            <path id="Trazado_818932" data-name="Trazado 818932" d="M155.211,216.745s-.427.019-1.26.032l-3.7.052c-3.25.053-8.042.176-14.206.478-6.163.321-13.7.864-22.41,1.858-4.352.523-9,1.121-13.9,1.936-4.908.784-10.072,1.761-15.45,2.986s-10.973,2.685-16.695,4.553a111.6,111.6,0,0,0-17.313,7.142,56.573,56.573,0,0,0-8.3,5.3,26.549,26.549,0,0,0-6.8,7.437c-.206.374-.428.742-.623,1.122l-.479,1.195-.24.6c-.066.2-.1.417-.158.625l-.3,1.257a12.63,12.63,0,0,0,.254,5.167c.829,3.434,3.094,6.39,5.69,8.88,5.306,4.982,12.072,8.45,19.088,11.359a156.541,156.541,0,0,0,22.24,7.035,292.589,292.589,0,0,0,48.548,7.149,385.539,385.539,0,0,0,49.119.192,308.944,308.944,0,0,0,45.347-5.917,191.982,191.982,0,0,0,20.561-5.545,102.35,102.35,0,0,0,18.379-8.007,50.263,50.263,0,0,0,7.748-5.52,22.417,22.417,0,0,0,5.61-7.142l.416-1.034a5.408,5.408,0,0,0,.359-1.045l.258-1.071c.039-.179.095-.354.12-.534l.043-.545a10.683,10.683,0,0,0-.318-4.271,15.127,15.127,0,0,0-1.791-3.822,23.4,23.4,0,0,0-2.621-3.22,39.521,39.521,0,0,0-6.2-5.108,65.494,65.494,0,0,0-6.569-3.917,113.879,113.879,0,0,0-12.808-5.7,192.552,192.552,0,0,0-21.471-6.62c-5.987-1.5-10.688-2.439-13.88-3.05-1.593-.318-2.815-.522-3.633-.678s-1.237-.24-1.237-.24,1.689.248,4.887.831,7.906,1.5,13.9,2.97a190.168,190.168,0,0,1,21.517,6.556,113.58,113.58,0,0,1,12.852,5.683,65.851,65.851,0,0,1,6.605,3.92,39.83,39.83,0,0,1,6.256,5.137,23.8,23.8,0,0,1,2.665,3.262,15.469,15.469,0,0,1,1.837,3.908,11.01,11.01,0,0,1,.336,4.4l-.045.56c-.025.185-.082.365-.122.549l-.263,1.1a5.631,5.631,0,0,1-.365,1.071l-.424,1.058a22.737,22.737,0,0,1-5.684,7.262,50.6,50.6,0,0,1-7.8,5.572A102.548,102.548,0,0,1,244.342,282a191.966,191.966,0,0,1-20.6,5.576,308.632,308.632,0,0,1-45.407,5.952,384.836,384.836,0,0,1-49.175-.185,292.339,292.339,0,0,1-48.62-7.169,156.669,156.669,0,0,1-22.3-7.065c-7.041-2.925-13.839-6.407-19.209-11.455-2.627-2.523-4.94-5.535-5.794-9.074a13.022,13.022,0,0,1-.256-5.33l.312-1.295c.056-.214.1-.434.164-.643l.247-.614.493-1.225c.2-.389.427-.765.638-1.146a26.881,26.881,0,0,1,6.9-7.541,56.877,56.877,0,0,1,8.365-5.329,111.777,111.777,0,0,1,17.379-7.144c5.737-1.862,11.344-3.318,16.731-4.533s10.56-2.185,15.474-2.958c4.91-.805,9.565-1.391,13.922-1.9,8.72-.972,16.261-1.49,22.429-1.784,6.168-.277,10.963-.373,14.214-.4l3.7-.008c.833,0,1.26.013,1.26.013" transform="translate(-5.032 -33.219)" fill="#283859"/>
            <path id="Trazado_818933" data-name="Trazado 818933" d="M82.667,139.863s-.481.108-1.424.3-2.349.452-4.184.846c-3.671.764-9.082,1.942-15.954,3.82a163.734,163.734,0,0,0-24.443,8.64c-2.3,1.055-4.645,2.211-6.992,3.544a65.559,65.559,0,0,0-7.019,4.5,38.6,38.6,0,0,0-6.479,5.955,20.409,20.409,0,0,0-4.393,8.054,14.792,14.792,0,0,0,.7,9.483,24.51,24.51,0,0,0,5.862,8.2c5.011,4.808,11.372,8.449,18.141,11.582,13.637,6.2,29.213,10.352,45.742,13.455a384.026,384.026,0,0,0,52.477,5.788,452.206,452.206,0,0,0,56.683-1.01,328.152,328.152,0,0,0,55.926-9.113,167.675,167.675,0,0,0,25.472-8.746,87.114,87.114,0,0,0,11.508-6.143,43.827,43.827,0,0,0,9.7-8.179c2.7-3.157,4.692-7.031,4.807-11.113a9.6,9.6,0,0,0-.052-1.513,9.946,9.946,0,0,0-.16-1.5l-.33-1.471a10.1,10.1,0,0,0-.483-1.421,21.2,21.2,0,0,0-2.905-5.192,39.847,39.847,0,0,0-8.589-7.935,77.944,77.944,0,0,0-9.832-5.748,139.05,139.05,0,0,0-20.138-7.9c-6.632-2.075-13.1-3.72-19.32-5.1a372.365,372.365,0,0,0-59.787-7.626c-7.117-.369-12.65-.385-16.4-.48l-4.267-.093c-.961-.023-1.454-.047-1.454-.047s.493-.007,1.454,0l4.268.049c3.751.067,9.287.055,16.407.4a368.03,368.03,0,0,1,59.846,7.493c6.225,1.368,12.708,3.006,19.355,5.077a139.131,139.131,0,0,1,20.2,7.9,78.23,78.23,0,0,1,9.886,5.766,40.16,40.16,0,0,1,8.681,8.008,21.572,21.572,0,0,1,2.964,5.289,10.367,10.367,0,0,1,.495,1.455l.34,1.507a10.278,10.278,0,0,1,.167,1.54,9.932,9.932,0,0,1,.054,1.555,15.752,15.752,0,0,1-1.468,6.058,22.468,22.468,0,0,1-3.426,5.3,44.184,44.184,0,0,1-9.781,8.265,87.578,87.578,0,0,1-11.56,6.179,167.926,167.926,0,0,1-25.535,8.779,328.02,328.02,0,0,1-56,9.135,451.443,451.443,0,0,1-56.738,1,383.472,383.472,0,0,1-52.532-5.82C65.6,215.518,50,211.345,36.328,205.115c-6.789-3.152-13.174-6.812-18.226-11.67a24.856,24.856,0,0,1-5.928-8.319,15.113,15.113,0,0,1-.7-9.683,20.7,20.7,0,0,1,4.469-8.168,38.842,38.842,0,0,1,6.538-5.989,65.974,65.974,0,0,1,7.057-4.507c2.358-1.333,4.715-2.487,7.019-3.538a162.663,162.663,0,0,1,24.5-8.582c6.885-1.854,12.3-3,15.982-3.741s5.626-1.054,5.626-1.054" transform="translate(-1.684 -20.491)" fill="#283859"/>
            <path id="Trazado_818934" data-name="Trazado 818934" d="M119.742,291.374l-4.223.666c-2.767.444-6.843,1.145-12.044,2.282a153.482,153.482,0,0,0-18.655,5.26A86.973,86.973,0,0,0,73.728,304.4a48.432,48.432,0,0,0-5.628,3.441,29.307,29.307,0,0,0-5.174,4.607,16.813,16.813,0,0,0-2.043,2.946,11.629,11.629,0,0,0-1.262,3.424c-.048.3-.12.607-.149.915l-.054.931c.005.622.079,1.248.135,1.874a18.8,18.8,0,0,0,.486,1.837l.358.89.18.446.238.421A20.934,20.934,0,0,0,65.9,332.12a41.908,41.908,0,0,0,6.822,4.578,90.124,90.124,0,0,0,15.965,6.665,165.867,165.867,0,0,0,17.8,4.55,265.287,265.287,0,0,0,39.164,4.681A318.962,318.962,0,0,0,188,351.857a225.7,225.7,0,0,0,41.715-7.19,105.135,105.135,0,0,0,18.794-7.161,46.917,46.917,0,0,0,8.176-5.282c.646-.479,1.189-1.073,1.785-1.6s1.078-1.169,1.618-1.748a15.606,15.606,0,0,0,2.409-4.025,10.8,10.8,0,0,0-.374-8.929,21.436,21.436,0,0,0-5.832-6.79,59.511,59.511,0,0,0-15.134-8.283,127.609,127.609,0,0,0-15.405-4.934c-5.029-1.3-9.913-2.32-14.6-3.143a289,289,0,0,0-44.851-4.1l-16.535-.091s5.887-.075,16.537-.012a286.24,286.24,0,0,1,44.882,4.022c4.692.818,9.581,1.835,14.617,3.13a127.893,127.893,0,0,1,15.436,4.928,59.7,59.7,0,0,1,15.2,8.306,21.679,21.679,0,0,1,5.9,6.866,11.04,11.04,0,0,1,.386,9.123,15.857,15.857,0,0,1-2.444,4.092c-.546.585-1.047,1.218-1.635,1.768s-1.149,1.136-1.8,1.618a47.236,47.236,0,0,1-8.218,5.315,105.309,105.309,0,0,1-18.84,7.186,225.622,225.622,0,0,1-41.763,7.2,318.758,318.758,0,0,1-42.386.732,264.978,264.978,0,0,1-39.2-4.7,165.858,165.858,0,0,1-17.822-4.567,90.367,90.367,0,0,1-16-6.694,42.1,42.1,0,0,1-6.853-4.608,21.126,21.126,0,0,1-5.132-6.055l-.24-.427-.182-.454-.363-.905a18.751,18.751,0,0,1-.493-1.87c-.058-.638-.131-1.276-.135-1.91l.057-.949c.03-.314.1-.621.152-.932a11.846,11.846,0,0,1,1.285-3.478,17.017,17.017,0,0,1,2.069-2.975A29.414,29.414,0,0,1,68,307.7a48.443,48.443,0,0,1,5.653-3.445,86.885,86.885,0,0,1,11.12-4.81,152.245,152.245,0,0,1,18.683-5.22c5.207-1.123,9.287-1.808,12.057-2.235s4.232-.614,4.232-.614" transform="translate(-9.077 -44.225)" fill="#283859"/>
            <path id="Trazado_818935" data-name="Trazado 818935" d="M235.538,379.253a8.683,8.683,0,0,0-.7-3.085c-.787-1.942-2.888-4.355-6.2-6.538-6.655-4.38-17.775-8.057-31.776-10.306a193.378,193.378,0,0,0-23.1-2.262,221.8,221.8,0,0,0-26.636.489c-4.679.371-9.462.91-14.314,1.682a136.771,136.771,0,0,0-14.7,3.1c-2.465.664-4.925,1.432-7.361,2.327a59.13,59.13,0,0,0-7.185,3.132A29.029,29.029,0,0,0,97.05,372.3a8.614,8.614,0,0,0-.008,13.895,29.022,29.022,0,0,0,6.512,4.511,59.165,59.165,0,0,0,7.186,3.134c2.437.9,4.9,1.664,7.362,2.328a136.664,136.664,0,0,0,14.706,3.1c4.853.772,9.637,1.312,14.316,1.682a221.842,221.842,0,0,0,26.638.489,193.54,193.54,0,0,0,23.1-2.262c14-2.249,25.12-5.927,31.773-10.306,3.311-2.183,5.411-4.6,6.2-6.538a8.677,8.677,0,0,0,.7-3.084c-.008.128-.024.343-.056.809a4.451,4.451,0,0,1-.175.981,6.424,6.424,0,0,1-.439,1.308c-.78,1.954-2.881,4.384-6.193,6.581-6.657,4.406-17.783,8.106-31.791,10.372a193.017,193.017,0,0,1-23.116,2.286,221.506,221.506,0,0,1-26.657-.474c-4.683-.368-9.472-.907-14.33-1.677a136.655,136.655,0,0,1-14.725-3.1c-2.469-.666-4.936-1.434-7.378-2.332a59.076,59.076,0,0,1-7.207-3.142,29.184,29.184,0,0,1-6.554-4.539,12.855,12.855,0,0,1-2.5-3.171,7.608,7.608,0,0,1,.007-7.81,12.847,12.847,0,0,1,2.5-3.168,29.22,29.22,0,0,1,6.553-4.536,59.313,59.313,0,0,1,7.207-3.14c2.441-.9,4.907-1.665,7.375-2.33a136.664,136.664,0,0,1,14.722-3.1c4.858-.771,9.645-1.309,14.328-1.677a221.629,221.629,0,0,1,26.654-.474A193.171,193.171,0,0,1,196.88,359.2c14.009,2.267,25.136,5.965,31.794,10.372,3.312,2.2,5.415,4.626,6.194,6.581a6.449,6.449,0,0,1,.439,1.308,4.466,4.466,0,0,1,.175.982c.032.466.047.682.056.809" transform="translate(-14.307 -54.675)" fill="#283859"/>
            <path id="Trazado_818936" data-name="Trazado 818936" d="M39.362,227.743a2.7,2.7,0,1,1-2.7-2.7,2.7,2.7,0,0,1,2.7,2.7" transform="translate(-5.204 -34.492)" fill="#283859"/>
            <path id="Trazado_818937" data-name="Trazado 818937" d="M328.1,229.906a2.7,2.7,0,1,1-2.7-2.7,2.7,2.7,0,0,1,2.7,2.7" transform="translate(-49.459 -34.823)" fill="#283859"/>
            <path id="Trazado_818938" data-name="Trazado 818938" d="M197.88,347.547a2.7,2.7,0,1,1-2.7-2.7,2.7,2.7,0,0,1,2.7,2.7" transform="translate(-29.501 -52.854)" fill="#283859"/>
            <path id="Trazado_818939" data-name="Trazado 818939" d="M101.419,265.746a1.352,1.352,0,1,1-1.351-1.351,1.351,1.351,0,0,1,1.351,1.351" transform="translate(-15.13 -40.524)" fill="#283859"/>
            <path id="Trazado_818940" data-name="Trazado 818940" d="M299.933,304.432a1.352,1.352,0,1,1-1.351-1.351,1.351,1.351,0,0,1,1.351,1.351" transform="translate(-45.557 -46.454)" fill="#283859"/>
            <path id="Trazado_818941" data-name="Trazado 818941" d="M173.917,378.262a1.352,1.352,0,1,1-1.351-1.351,1.351,1.351,0,0,1,1.351,1.351" transform="translate(-26.242 -57.77)" fill="#283859"/>
            <path id="Trazado_818942" data-name="Trazado 818942" d="M91.64,98.911a.679.679,0,1,1-.679-.679.679.679,0,0,1,.679.679" transform="translate(-13.838 -15.056)" fill="#283859"/>
          </g>
        </g>
        <g id="Grupo_1072308" data-name="Grupo 1072308">
          <g id="Grupo_1072307" data-name="Grupo 1072307" clip-path="url(#clip-path)">
            <path id="Trazado_818943" data-name="Trazado 818943" d="M216.365,210.154c-32.829,8.692-64.471,8.032-98.958,0l-4.026-63.041c35.635,6.938,71.411,6.059,102.984-1.491Z" transform="translate(-17.378 -22.32)" fill="#dfe1e6"/>
            <path id="Trazado_818945" data-name="Trazado 818945" d="M213.182,210.514a.9.9,0,0,1-.206.1l-.619.263c-.55.218-1.349.574-2.407.953a90.489,90.489,0,0,1-9.085,2.851,118.749,118.749,0,0,1-31.146,3.554,181.757,181.757,0,0,1-31.21-3.339c-3.948-.75-7.126-1.443-9.315-1.952-1.1-.248-1.942-.461-2.516-.6l-.652-.169a.885.885,0,0,1-.218-.073.942.942,0,0,1,.229.029l.661.126,2.533.522c2.2.457,5.384,1.1,9.335,1.812a191.776,191.776,0,0,0,31.159,3.206,122.652,122.652,0,0,0,31.064-3.415c3.891-.976,6.988-1.962,9.1-2.71,1.066-.352,1.873-.682,2.433-.874l.636-.222a.891.891,0,0,1,.222-.062" transform="translate(-19.283 -32.265)" fill="#283859"/>
            <path id="Trazado_818946" data-name="Trazado 818946" d="M169.748,209.3a21.578,21.578,0,0,1-12.641-.422V186.435a31.738,31.738,0,0,1,12.641,0Z" transform="translate(-24.08 -28.478)" fill="#283859"/>
            <path id="Trazado_818947" data-name="Trazado 818947" d="M193.64,205.761a.821.821,0,0,1-.017-.173c-.006-.131-.013-.292-.021-.489q-.018-.685-.051-1.873c-.033-1.658-.08-4.017-.139-6.968-.089-5.954-.214-14.287-.36-23.947l.169.2a33.9,33.9,0,0,0-13.081.01l.18-.219c0,.141,0,.293.006.445.134,13.261.255,25.238.341,33.79l-.123-.148a29.522,29.522,0,0,0,5.509.671,20.279,20.279,0,0,0,4.161-.339,20.6,20.6,0,0,0,2.553-.671l.639-.224a1.529,1.529,0,0,1,.235-.07.984.984,0,0,1-.2.1l-.643.275a17.8,17.8,0,0,1-2.549.754,19.794,19.794,0,0,1-4.2.417,29.188,29.188,0,0,1-5.568-.613l-.121-.024,0-.124c-.12-8.552-.289-20.528-.475-33.788,0-.153,0-.306-.006-.446l0-.185.182-.035a34.088,34.088,0,0,1,13.247.01l.168.035v.169c.073,9.705.135,18.077.18,24.059.008,2.936.014,5.284.019,6.934q-.006,1.167-.009,1.84c0,.189-.008.343-.01.469a.508.508,0,0,1-.014.152" transform="translate(-27.57 -26.278)" fill="#283859"/>
            <path id="Trazado_818948" data-name="Trazado 818948" d="M216.786,202.334c-3.384,1.831-7.838,2.074-12.641,1.8V167.075a27,27,0,0,1,12.641,0Z" transform="translate(-31.289 -25.493)" fill="#283859"/>
            <path id="Trazado_818949" data-name="Trazado 818949" d="M146.071,208.667a9.107,9.107,0,0,1-.043-.949c-.013-.653-.029-1.518-.05-2.591-.024-2.256-.058-5.378-.1-9.1l.124.179a28.3,28.3,0,0,0-12.168-2.02l-.023,0,.2-.219c-.011,4.624-.021,8.956-.03,12.64l-.116-.175a23.635,23.635,0,0,0,4.88,1.393c1.494.269,2.813.424,3.9.532l2.53.214a8.931,8.931,0,0,1,.9.1,6.525,6.525,0,0,1-.9.021c-.588-.012-1.449-.036-2.544-.11s-2.423-.2-3.936-.447a23.181,23.181,0,0,1-4.973-1.348l-.117-.048v-.128c-.008-3.684-.019-8.016-.03-12.64v-.2l.2-.014.023,0a28.055,28.055,0,0,1,12.344,2.1l.125.047v.131c-.041,3.775-.075,6.939-.1,9.225q-.032,1.583-.05,2.547a6.468,6.468,0,0,1-.043.869" transform="translate(-20.473 -29.683)" fill="#283859"/>
            <path id="Trazado_818950" data-name="Trazado 818950" d="M152.31,172.473a12.641,12.641,0,0,1-2.473.152c-1.529.025-3.642-.007-5.973-.143s-4.433-.355-5.948-.559a12.687,12.687,0,0,1-2.439-.44,15.158,15.158,0,0,1,2.472.13c1.52.124,3.62.291,5.941.428s4.425.216,5.951.272a15.152,15.152,0,0,1,2.469.159" transform="translate(-20.765 -26.28)" fill="#283859"/>
            <path id="Trazado_818951" data-name="Trazado 818951" d="M150.461,175.7a10.551,10.551,0,0,1-2.169-.01c-1.339-.063-3.186-.179-5.224-.335s-3.884-.323-5.216-.465a10.54,10.54,0,0,1-2.146-.321,10.727,10.727,0,0,1,2.176.01c1.338.063,3.183.18,5.218.335s3.876.323,5.208.464a10.7,10.7,0,0,1,2.152.322" transform="translate(-20.8 -26.75)" fill="#283859"/>
            <path id="Trazado_818952" data-name="Trazado 818952" d="M154.324,177.922a7.463,7.463,0,0,1,.01-.787q.032-.81.086-2.184c.091-1.914.218-4.606.373-7.914l.162.17a181.13,181.13,0,0,1-23.393-1.3c-.221.185.3-.251.245-.2v.019l0,.023,0,.045-.005.09-.01.179-.021.357-.041.712q-.041.71-.082,1.411-.083,1.4-.163,2.769c-.108,1.819-.213,3.581-.314,5.267l-.184-.219c6.765.833,12.609,1.186,16.753,1.346l4.848.146,1.276.04a3.912,3.912,0,0,1,.465.03,2.652,2.652,0,0,1-.428.031c-.289.012-.746.031-1.313.037-1.13.017-2.78.019-4.856-.025-4.151-.087-10.012-.385-16.795-1.191l-.195-.023.011-.2c.095-1.687.195-3.449.3-5.268q.077-1.365.158-2.77.041-.7.081-1.411l.041-.712.02-.357.01-.18.005-.089,0-.045,0-.023v-.019c-.053.043.467-.392.248-.207a198.329,198.329,0,0,0,23.339,1.413h.173l-.012.171c-.229,3.342-.416,6.063-.549,8q-.1,1.348-.165,2.144a5.581,5.581,0,0,1-.077.723" transform="translate(-20.038 -25.355)" fill="#283859"/>
            <path id="Trazado_818953" data-name="Trazado 818953" d="M161.475,184.939a10.12,10.12,0,0,1-1.628-2.26,8.022,8.022,0,0,1-1.255-2.494,10.125,10.125,0,0,1,1.628,2.26,8.045,8.045,0,0,1,1.255,2.494" transform="translate(-24.305 -27.617)" fill="#283859"/>
            <path id="Trazado_818954" data-name="Trazado 818954" d="M0,88.848,10.732,153.77s16.378,30.67,59.905,37.584L63.614,133.4S23.363,120.952,0,88.848" transform="translate(0 -13.618)" fill="#d3c3fd"/>
            <path id="Trazado_818956" data-name="Trazado 818956" d="M66.04,189.9a1.321,1.321,0,0,1-.277-.064l-.8-.232-3.069-.935c-1.325-.427-2.977-.863-4.811-1.611l-2.963-1.128c-1.052-.395-2.163-.811-3.286-1.352-2.265-1.038-4.782-2.1-7.34-3.543-2.621-1.318-5.279-2.985-8.057-4.755a80.944,80.944,0,0,1-16.173-14.017,48.327,48.327,0,0,1-5.835-8.14l-.014-.027-.006-.036c-1.958-12.652-3.678-23.767-4.914-31.751-.594-3.961-1.072-7.143-1.406-9.367-.152-1.076-.273-1.92-.358-2.522-.035-.269-.062-.485-.083-.654a.941.941,0,0,1-.015-.225.983.983,0,0,1,.054.218c.031.168.072.381.122.649l.433,2.511c.364,2.218.886,5.394,1.534,9.346,1.273,7.978,3.046,19.085,5.063,31.727l-.02-.064a48.448,48.448,0,0,0,5.78,8.046A81.584,81.584,0,0,0,35.661,175.94c2.76,1.772,5.4,3.444,8,4.771,2.54,1.448,5.042,2.527,7.293,3.579,1.116.55,2.221.975,3.265,1.378l2.944,1.157c1.821.77,3.463,1.228,4.779,1.679l3.04,1.013.788.274a1.3,1.3,0,0,1,.264.108" transform="translate(-1.016 -16.789)" fill="#8054f8"/>
            <path id="Trazado_818957" data-name="Trazado 818957" d="M62.9,173.659a.838.838,0,0,1-.149.135l-.461.37-1.809,1.41-6.836,5.236-.108.082-.08-.111-8.361-11.566.256.043-6.41,4.564-.214.152-.091-.246-8.264-22.414-1.186-3.226.4.023-5.221,10.363-.226.45-.165-.475-10.9-31.438L13.3,127l-1.6,6.762q-.281,1.141-.439,1.782l-.12.456a.6.6,0,0,1-.052.152.552.552,0,0,1,.019-.159l.089-.462q.136-.648.378-1.8c.351-1.6.855-3.888,1.494-6.787l.09-.411.141.4c2.544,7.2,6.466,18.31,11.079,31.377l-.391-.025,5.207-10.37.228-.453.175.476q.589,1.6,1.187,3.227c2.943,8.023,5.736,15.637,8.227,22.426l-.3-.094,6.429-4.538.15-.106.106.149,8.278,11.626-.188-.029,6.91-5.137,1.852-1.354.483-.342a.833.833,0,0,1,.171-.106" transform="translate(-1.699 -19.394)" fill="#8054f8"/>
            <path id="Trazado_818958" data-name="Trazado 818958" d="M66.6,143.652a3.827,3.827,0,0,1-.914-.2c-.581-.157-1.412-.411-2.433-.749a83.378,83.378,0,0,1-15.289-6.9c-.928-.542-1.669-1-2.171-1.329a3.77,3.77,0,0,1-.756-.55,3.909,3.909,0,0,1,.844.4l2.235,1.2c1.889,1.013,4.523,2.362,7.5,3.709s5.732,2.426,7.74,3.174l2.382.88a3.854,3.854,0,0,1,.86.367" transform="translate(-6.903 -20.525)" fill="#8054f8"/>
            <path id="Trazado_818959" data-name="Trazado 818959" d="M70.074,147.711a9.014,9.014,0,0,1-2.1-.372,49.009,49.009,0,0,1-9.683-3.463,8.993,8.993,0,0,1-1.861-1.046,11.837,11.837,0,0,1,1.989.761c1.211.5,2.89,1.182,4.771,1.856s3.61,1.212,4.865,1.591a11.819,11.819,0,0,1,2.021.672" transform="translate(-8.648 -21.891)" fill="#8054f8"/>
            <path id="Trazado_818960" data-name="Trazado 818960" d="M52.022,176.783c0,.537-.327.973-.729.973s-.73-.436-.73-.973.327-.973.73-.973.729.436.729.973" transform="translate(-7.75 -26.947)" fill="#8054f8"/>
            <path id="Trazado_818961" data-name="Trazado 818961" d="M33.218,152.544c0,.537-.327.973-.73.973s-.729-.436-.729-.973.327-.973.729-.973.73.436.73.973" transform="translate(-4.868 -23.231)" fill="#8054f8"/>
            <path id="Trazado_818962" data-name="Trazado 818962" d="M14.228,127.25c0,.537-.327.973-.73.973s-.729-.436-.729-.973.327-.973.729-.973.73.436.73.973" transform="translate(-1.957 -19.355)" fill="#8054f8"/>
            <path id="Trazado_818963" data-name="Trazado 818963" d="M323.7,102.508l-5.378,65.958s-15.7,28.207-58.93,29.281l5.343-66.409s37.712-1.53,58.964-28.83" transform="translate(-39.757 -15.712)" fill="#dbefed"/>
            <path id="Trazado_818966" data-name="Trazado 818966" d="M324.418,122.367a39.119,39.119,0,0,0-6.89,21.331c-.043,2.188.085,4.455-.747,6.478s-3.006,3.714-5.116,3.135c-2.2-.6-3.191-3.211-5.124-4.433a5.713,5.713,0,0,0-5.8.123,9.715,9.715,0,0,0-3.809,4.633c-1.572,3.616-1.675,7.7-2.833,11.465s-4,7.569-7.936,7.741c-1.439.063-2.862-.373-4.3-.33-3.043.091-5.684,2.351-7.1,5.046s-1.844,5.783-2.247,8.8c0,0,23.045,2.2,48.918-28.353Z" transform="translate(-41.768 -18.755)" fill="#42f7c3"/>
            <path id="Trazado_818967" data-name="Trazado 818967" d="M290.216,169.351c0,.818-.4,1.482-.9,1.482s-.9-.664-.9-1.482.4-1.482.9-1.482.9.664.9,1.482" transform="translate(-44.204 -25.729)" fill="#42f7c3"/>
            <path id="Trazado_818968" data-name="Trazado 818968" d="M303.036,136.964c0,.818-.4,1.482-.9,1.482s-.9-.664-.9-1.482.4-1.482.9-1.482.9.664.9,1.482" transform="translate(-46.169 -20.765)" fill="#42f7c3"/>
            <path id="Trazado_818969" data-name="Trazado 818969" d="M324.076,126.126a2.031,2.031,0,0,1-.149.376c-.123.269-.285.623-.487,1.069-.455.962-1.094,2.318-1.9,4.029l-6.873,14.315-.092.193-.183-.115-16.3-10.315.322-.1-.677,1.667c-4.034,9.876-7.724,18.909-10.527,25.775l-.072.175-.165-.092c-4.065-2.287-7.382-4.124-9.687-5.376-1.154-.624-2.053-1.1-2.671-1.417l-.705-.345a1.126,1.126,0,0,1-.246-.109,19.949,19.949,0,0,1,3.71,1.707c2.334,1.2,5.676,3,9.763,5.248l-.237.084,10.43-25.815c.232-.571.463-1.139.677-1.667l.1-.245.223.141L314.6,145.668l-.275.078,7.015-14.245c.847-1.691,1.519-3.031,2-3.983l.539-1.043a2.071,2.071,0,0,1,.2-.349" transform="translate(-41.944 -19.331)" fill="#42f7c3"/>
          </g>
        </g>
      </g>
    </g>
  </g>
</svg>
