<svg xmlns="http://www.w3.org/2000/svg" width="295" height="117.93" viewBox="0 0 295 117.93">
  <g id="Grupo_1076086" data-name="Grupo 1076086" transform="translate(-377 -5305)">
    <rect id="Rectángulo_375763" data-name="Rectángulo 375763" width="295" height="102" rx="13" transform="translate(377 5313)" fill="#dbefed"/>
    <g id="dato" transform="translate(465 5304)">
      <path id="Trazado_818768" data-name="Trazado 818768" d="M2,57H26.727v9.51H2Z" transform="translate(0.902 50.517)" fill="#838f9b"/>
      <path id="Trazado_818769" data-name="Trazado 818769" d="M43,57H79.14v9.51H43Z" transform="translate(37.888 50.517)" fill="#838f9b"/>
      <path id="Trazado_818770" data-name="Trazado 818770" d="M68.259,61.51v9.51H15V59.608A7.606,7.606,0,0,1,22.608,52h38.1a7.606,7.606,0,0,1,7.551,7.608Z" transform="translate(12.629 46.007)" fill="#aab2bd"/>
      <path id="Trazado_818771" data-name="Trazado 818771" d="M104.909,12H6V80.475h98.909Z" transform="translate(4.51 9.923)" fill="#e6e9ed"/>
      <path id="Trazado_818772" data-name="Trazado 818772" d="M45.629,51.923h5.117a15.188,15.188,0,0,0,10.747-4.451L76.386,32.579a5.38,5.38,0,0,1,9.187,3.8V36.4a5.356,5.356,0,0,1-1.56,3.785L61.074,63.336l-.418.418a11.329,11.329,0,0,0-3.557,7.19H19a18.8,18.8,0,0,1,1.6-7.608A19,19,0,0,1,38.021,51.923h7.608Z" transform="translate(16.238 27.063)" fill="#3bafda"/>
      <path id="Trazado_818773" data-name="Trazado 818773" d="M38.315,28A13.315,13.315,0,1,1,25,41.315a13.09,13.09,0,0,1,1.9-6.848A13.272,13.272,0,0,1,38.315,28Z" transform="translate(21.65 24.356)" fill="#f0d0b4"/>
      <g id="Grupo_1072251" data-name="Grupo 1072251" transform="translate(18.119 29.531)">
        <path id="Trazado_818774" data-name="Trazado 818774" d="M33.608,22V33.964A13.244,13.244,0,0,0,26,39.88V22Z" transform="translate(4.433 -10.587)" fill="#fcd770"/>
        <path id="Trazado_818775" data-name="Trazado 818775" d="M18,16h7.608V46.433H18Z" transform="translate(-2.783 -16)" fill="#fcd770"/>
        <path id="Trazado_818776" data-name="Trazado 818776" d="M10,26h7.608V37.413H10Z" transform="translate(-10 -6.979)" fill="#fcd770"/>
      </g>
      <path id="Trazado_818777" data-name="Trazado 818777" d="M85.454,2V43.846H36V2Z" transform="translate(31.573 0.902)" fill="#ffeaa7"/>
      <path id="Trazado_818778" data-name="Trazado 818778" d="M49,6a13.315,13.315,0,0,1,9.415,22.73L49,19.315Z" transform="translate(43.3 4.51)" fill="#69d6f4"/>
      <path id="Trazado_818779" data-name="Trazado 818779" d="M55.315,13l9.415,9.415A13.315,13.315,0,0,1,42,13Z" transform="translate(36.986 10.825)" fill="#ccd1d9"/>
      <path id="Trazado_818780" data-name="Trazado 818780" d="M55.315,6V19.315H42A13.3,13.3,0,0,1,55.315,6Z" transform="translate(36.986 4.51)" fill="#ff826e"/>
      <path id="Trazado_818781" data-name="Trazado 818781" d="M111.321,92.3V46.65h7.608V1H65.671V20.021H8.608V92.3H34.146a20.738,20.738,0,0,0-.725,3.987,9.521,9.521,0,0,0-7.694,9.328H1V118.93H118.93V105.615H82.79a9.5,9.5,0,0,0-7.2-9.193A9.624,9.624,0,0,1,78.113,92.3ZM37.252,96.1A17.14,17.14,0,0,1,54.259,80.888H66.978a17.006,17.006,0,0,0,12.1-5.014l14.89-14.89a3.447,3.447,0,0,1,2.458-1.02,3.488,3.488,0,0,1,2.471,5.94L75.587,89.434A13.284,13.284,0,0,0,71.773,96.1Zm17.007-44.53a15.2,15.2,0,0,0-3.8,2.237V42.846h3.8Zm5.706,2.684A11.413,11.413,0,1,1,48.552,65.671,11.424,11.424,0,0,1,59.965,54.259ZM69.475,4.8h45.65V42.846H69.475ZM12.413,88.5V23.825H65.671V46.65h41.846V88.5H81.869L101.6,68.583A7.287,7.287,0,0,0,91.281,58.295l-14.89,14.89a13.23,13.23,0,0,1-5.855,3.409A15.171,15.171,0,0,0,58.063,50.586V39.042H46.65v19.28a15.177,15.177,0,0,0,3.711,19.141A20.972,20.972,0,0,0,35.645,88.5ZM4.8,115.126v-5.706H25.727v5.706Zm110.321-5.706v5.706H82.79v-5.706Zm-36.14-3.8v9.51H29.531v-9.51a5.713,5.713,0,0,1,5.706-5.706H73.279A5.713,5.713,0,0,1,78.986,105.615Z"/>
      <path id="Trazado_818782" data-name="Trazado 818782" d="M20.413,25H9V40.217H20.413Zm-3.8,11.413H12.8V28.8h3.8Z" transform="translate(7.217 21.65)"/>
      <path id="Trazado_818783" data-name="Trazado 818783" d="M28.413,15H17V49.238H28.413Zm-3.8,30.433H20.8V18.8h3.8Z" transform="translate(14.433 12.629)"/>
      <path id="Trazado_818784" data-name="Trazado 818784" d="M56.217,5A15.217,15.217,0,1,0,71.433,20.217,15.234,15.234,0,0,0,56.217,5Zm-1.9,3.975v9.339H44.975A11.428,11.428,0,0,1,54.315,8.975ZM44.975,22.119H55.429l7.39,7.39a11.382,11.382,0,0,1-17.844-7.39Zm20.533,4.7-7.39-7.39V8.975a11.382,11.382,0,0,1,7.39,17.844Z" transform="translate(36.084 3.608)"/>
      <path id="Trazado_818785" data-name="Trazado 818785" d="M9,35h3.8v3.8H9Z" transform="translate(7.217 30.671)"/>
      <path id="Trazado_818786" data-name="Trazado 818786" d="M13,35h3.8v3.8H13Z" transform="translate(10.825 30.671)"/>
      <path id="Trazado_818787" data-name="Trazado 818787" d="M17,35h3.8v3.8H17Z" transform="translate(14.433 30.671)"/>
      <path id="Trazado_818788" data-name="Trazado 818788" d="M9,39H28.021v3.8H9Z" transform="translate(7.217 34.279)"/>
      <path id="Trazado_818789" data-name="Trazado 818789" d="M9,43H28.021v3.8H9Z" transform="translate(7.217 37.888)"/>
    </g>
  </g>
</svg>
