<svg xmlns="http://www.w3.org/2000/svg" xmlns:xlink="http://www.w3.org/1999/xlink" width="400" height="291.677" viewBox="0 0 400 291.677">
  <defs>
    <clipPath id="clip-path">
      <rect id="Rectángulo_381817" data-name="Rectángulo 381817" width="301.154" height="291.677" fill="none"/>
    </clipPath>
    <clipPath id="clip-path-9">
      <rect id="Rectángulo_381801" data-name="Rectángulo 381801" width="59.318" height="56.729" fill="none"/>
    </clipPath>
    <clipPath id="clip-path-10">
      <rect id="Rectángulo_381802" data-name="Rectángulo 381802" width="59.298" height="27.443" fill="none"/>
    </clipPath>
    <clipPath id="clip-path-11">
      <rect id="Rectángulo_381803" data-name="Rectángulo 381803" width="33.718" height="55.476" fill="none"/>
    </clipPath>
    <clipPath id="clip-path-12">
      <rect id="Rectángulo_381804" data-name="Rectángulo 381804" width="49.759" height="41.272" fill="none"/>
    </clipPath>
    <clipPath id="clip-path-13">
      <rect id="Rectángulo_381805" data-name="Rectángulo 381805" width="58.803" height="30.33" fill="none"/>
    </clipPath>
    <clipPath id="clip-path-14">
      <rect id="Rectángulo_381806" data-name="Rectángulo 381806" width="23.051" height="25.681" fill="none"/>
    </clipPath>
    <clipPath id="clip-path-15">
      <rect id="Rectángulo_381807" data-name="Rectángulo 381807" width="8.128" height="8.3" fill="none"/>
    </clipPath>
    <clipPath id="clip-path-16">
      <rect id="Rectángulo_381808" data-name="Rectángulo 381808" width="17.652" height="0.825" fill="none"/>
    </clipPath>
    <clipPath id="clip-path-17">
      <rect id="Rectángulo_381809" data-name="Rectángulo 381809" width="19.03" height="0.852" fill="none"/>
    </clipPath>
    <clipPath id="clip-path-18">
      <rect id="Rectángulo_381810" data-name="Rectángulo 381810" width="19.029" height="0.852" fill="none"/>
    </clipPath>
    <clipPath id="clip-path-20">
      <rect id="Rectángulo_381812" data-name="Rectángulo 381812" width="27.292" height="11.028" fill="none"/>
    </clipPath>
    <clipPath id="clip-path-22">
      <rect id="Rectángulo_381814" data-name="Rectángulo 381814" width="15.633" height="40.921" fill="none"/>
    </clipPath>
    <clipPath id="clip-path-23">
      <rect id="Rectángulo_381815" data-name="Rectángulo 381815" width="64.077" height="15.283" fill="none"/>
    </clipPath>
  </defs>
  <g id="Grupo_1072424" data-name="Grupo 1072424" transform="translate(-1020 -265.322)">
    <g id="Grupo_1072003" data-name="Grupo 1072003" transform="translate(1020 276)">
      <rect id="web-AdobeStock_200818697" width="348.714" height="234.411" rx="13" transform="translate(29 30.321)" fill="#98d1ca"/>
      <path id="Sustracción_1" data-name="Sustracción 1" d="M116.486,58.9H0v-.365a59.23,59.23,0,0,1,1.183-11.8A58.474,58.474,0,0,1,35.574,4.6a58.069,58.069,0,0,1,45.34,0,58.251,58.251,0,0,1,9.894,5.393,58.552,58.552,0,0,1,25.68,48.539c0,.12,0,.239,0,.355v.01Z" transform="translate(0 221.876)" fill="#8054f8"/>
      <g id="Grupo_1071549" data-name="Grupo 1071549" transform="translate(348.527 0)">
        <path id="Sustracción_2" data-name="Sustracción 2" d="M103.065,0H0V.323A51.124,51.124,0,0,0,1.048,10.631a50.569,50.569,0,0,0,3,9.6A50.975,50.975,0,0,0,8.8,28.923a51.539,51.539,0,0,0,6.294,7.569,51.823,51.823,0,0,0,7.627,6.245,51.5,51.5,0,0,0,8.753,4.716,51.518,51.518,0,0,0,9.676,2.981,52.155,52.155,0,0,0,10.384,1.039,52.124,52.124,0,0,0,10.386-1.039,51.324,51.324,0,0,0,9.675-2.981,51.578,51.578,0,0,0,8.753-4.716,51.843,51.843,0,0,0,7.626-6.245,51.66,51.66,0,0,0,6.294-7.569,50.832,50.832,0,0,0,4.749-8.689,50.583,50.583,0,0,0,3.007-9.6A51.157,51.157,0,0,0,103.068.323c0-.106,0-.211,0-.315V0Z" transform="translate(51.473 28.737) rotate(90)" fill="#d8dcfc"/>
        <path id="Trazado_818001" data-name="Trazado 818001" d="M345.794,448.2a3.777,3.777,0,0,1-1.11,2.679l-3.835,3.834,3.835,3.834a3.79,3.79,0,0,1-5.359,5.359l-3.834-3.834-3.834,3.834a3.789,3.789,0,0,1-5.358-5.359l3.834-3.834-3.834-3.834a3.789,3.789,0,0,1,0-5.358h0a3.789,3.789,0,0,1,5.358,0l3.834,3.834,3.834-3.834a3.791,3.791,0,0,1,5.359,0h0a3.777,3.777,0,0,1,1.11,2.679Z" transform="translate(-294.321 -444.408)" fill="#8054f8"/>
      </g>
    </g>
    <g id="Grupo_1072423" data-name="Grupo 1072423" transform="translate(1069 265.322)">
      <g id="Grupo_1072422" data-name="Grupo 1072422" clip-path="url(#clip-path)">
        <g id="Grupo_1072365" data-name="Grupo 1072365">
          <g id="Grupo_1072364" data-name="Grupo 1072364" clip-path="url(#clip-path)">
            <path id="Trazado_819183" data-name="Trazado 819183" d="M411.744,15.475,406.4,15.25a17.218,17.218,0,1,0,3.173,5.289l.006.008Z" transform="translate(-126.475 -3.163)" fill="#f5f5f5"/>
            <path id="Trazado_819184" data-name="Trazado 819184" d="M411.4,332.929l-2.386-1.409a8.919,8.919,0,1,0,.157,3.191v.005Z" transform="translate(-131.56 -109.112)" fill="#f5f5f5"/>
            <path id="Trazado_819185" data-name="Trazado 819185" d="M345.656,129.241a8.53,8.53,0,0,1,2.066-.949l.387-2.073,3.485-.133.544,2.037a8.528,8.528,0,0,1,2.132.789l1.738-1.191,2.558,2.37-1.055,1.824a8.541,8.541,0,0,1,.949,2.066l2.071.387.133,3.485-2.037.544a8.538,8.538,0,0,1-.789,2.132l1.191,1.738-2.37,2.558-1.824-1.055a8.54,8.54,0,0,1-2.066.948l-.387,2.073-3.485.133-.544-2.037a8.563,8.563,0,0,1-2.132-.789l-1.738,1.191-2.558-2.37,1.056-1.824a8.52,8.52,0,0,1-.949-2.066l-2.072-.387-.133-3.485,2.037-.544a8.527,8.527,0,0,1,.789-2.132l-1.191-1.738,2.37-2.558Zm1.954,4.605a3.741,3.741,0,1,0,5.287-.2,3.741,3.741,0,0,0-5.287.2" transform="translate(-114.215 -42.377)" fill="#ebebeb"/>
            <path id="Trazado_819186" data-name="Trazado 819186" d="M72.963,3.969a7.712,7.712,0,0,1,1.864-.856l.349-1.87,3.144-.12.491,1.837a7.692,7.692,0,0,1,1.923.712L82.3,2.6l2.309,2.139-.953,1.645a7.639,7.639,0,0,1,.856,1.864l1.87.349.12,3.144-1.837.491a7.7,7.7,0,0,1-.712,1.924l1.074,1.568-2.138,2.308-1.645-.952a7.718,7.718,0,0,1-1.865.856l-.349,1.87-3.144.12L75.4,18.087a7.74,7.74,0,0,1-1.923-.712L71.906,18.45,69.6,16.311l.953-1.645a7.666,7.666,0,0,1-.856-1.864l-1.87-.349L67.7,9.308l1.838-.491a7.721,7.721,0,0,1,.711-1.924L69.179,5.325l2.138-2.308Zm1.763,4.155A3.375,3.375,0,1,0,79.5,7.943a3.374,3.374,0,0,0-4.769.182" transform="translate(-22.755 -0.378)" fill="#f5f5f5"/>
            <path id="Trazado_819187" data-name="Trazado 819187" d="M21.548,356.338a8.556,8.556,0,0,1,2.066-.949L24,353.317l3.485-.133.544,2.037a8.527,8.527,0,0,1,2.132.789l1.738-1.191,2.558,2.37L33.4,359.012a8.558,8.558,0,0,1,.949,2.067l2.071.387.133,3.485-2.036.544a8.537,8.537,0,0,1-.789,2.132l1.191,1.738-2.37,2.558-1.824-1.056a8.517,8.517,0,0,1-2.066.949l-.387,2.073-3.485.133-.544-2.037a8.565,8.565,0,0,1-2.132-.789l-1.738,1.191-2.558-2.37,1.056-1.824a8.531,8.531,0,0,1-.949-2.066l-2.072-.387-.133-3.485,2.037-.544a8.527,8.527,0,0,1,.789-2.132l-1.191-1.738,2.37-2.558Zm1.954,4.606a3.741,3.741,0,1,0,5.287-.2,3.741,3.741,0,0,0-5.287.2" transform="translate(-5.283 -118.703)" fill="#f5f5f5"/>
            <path id="Trazado_819188" data-name="Trazado 819188" d="M32.044,32.025a18.681,18.681,0,0,1,4.517-2.074l.846-4.531,7.62-.29,1.189,4.453a18.672,18.672,0,0,1,4.662,1.724l3.8-2.6,5.593,5.182-2.307,3.987a18.655,18.655,0,0,1,2.074,4.519l4.53.846.291,7.619-4.453,1.189a18.674,18.674,0,0,1-1.725,4.662l2.6,3.8L56.1,66.1l-3.987-2.307A18.664,18.664,0,0,1,47.6,65.869L46.752,70.4l-7.62.29-1.189-4.453a18.719,18.719,0,0,1-4.662-1.725l-3.8,2.6-5.593-5.182L26.2,57.947a18.666,18.666,0,0,1-2.075-4.518l-4.53-.846-.29-7.619,4.453-1.19a18.708,18.708,0,0,1,1.724-4.662l-2.6-3.8,5.182-5.593ZM36.315,42.1a8.18,8.18,0,1,0,11.559-.441,8.18,8.18,0,0,0-11.559.441" transform="translate(-6.487 -8.446)" fill="#f5f5f5"/>
            <path id="Trazado_819189" data-name="Trazado 819189" d="M330.3,171.257a14.346,14.346,0,0,1,3.467-1.591l.649-3.478,5.848-.222.912,3.417a14.326,14.326,0,0,1,3.578,1.323l2.917-2,4.293,3.977-1.771,3.06a14.339,14.339,0,0,1,1.592,3.468l3.477.649.223,5.848-3.418.913a14.328,14.328,0,0,1-1.323,3.577l2,2.917-3.977,4.293-3.061-1.771a14.323,14.323,0,0,1-3.467,1.592l-.65,3.477-5.847.223-.913-3.418a14.348,14.348,0,0,1-3.578-1.323l-2.917,2-4.292-3.977,1.771-3.06a14.3,14.3,0,0,1-1.593-3.467l-3.477-.65-.222-5.848,3.417-.912a14.338,14.338,0,0,1,1.323-3.578l-2-2.917,3.977-4.293Zm3.278,7.729a6.278,6.278,0,1,0,8.872-.339,6.278,6.278,0,0,0-8.872.339" transform="translate(-107.726 -55.78)" fill="#ebebeb"/>
            <path id="Trazado_819190" data-name="Trazado 819190" d="M59.285,362.434a19.249,19.249,0,0,1,4.652-2.136l.872-4.667,7.847-.3,1.224,4.586a19.236,19.236,0,0,1,4.8,1.776l3.914-2.682,5.76,5.338-2.376,4.106a19.217,19.217,0,0,1,2.136,4.653l4.666.872.3,7.847L88.5,383.052a19.215,19.215,0,0,1-1.776,4.8l2.682,3.914-5.337,5.761-4.107-2.376a19.214,19.214,0,0,1-4.653,2.136l-.872,4.667-7.847.3-1.224-4.586a19.217,19.217,0,0,1-4.8-1.776l-3.914,2.682-5.76-5.337,2.375-4.107a19.215,19.215,0,0,1-2.136-4.653l-4.666-.872-.3-7.847,4.586-1.225a19.268,19.268,0,0,1,1.776-4.8l-2.682-3.914,5.337-5.76Zm4.4,10.372a8.424,8.424,0,1,0,11.905-.454,8.424,8.424,0,0,0-11.905.454" transform="translate(-15.514 -119.425)" fill="#f5f5f5"/>
          </g>
        </g>
        <g id="Grupo_1072367" data-name="Grupo 1072367">
          <g id="Grupo_1072366" data-name="Grupo 1072366" clip-path="url(#clip-path)">
            <path id="Trazado_819191" data-name="Trazado 819191" d="M299.477,438.134c0,.1-64.457.173-143.951.173-79.522,0-143.965-.077-143.965-.173s64.443-.173,143.965-.173c79.494,0,143.951.077,143.951.173" transform="translate(-3.886 -147.197)" fill="#263238"/>
          </g>
        </g>
        <g id="Grupo_1072369" data-name="Grupo 1072369">
          <g id="Grupo_1072368" data-name="Grupo 1072368" clip-path="url(#clip-path)">
            <path id="Trazado_819192" data-name="Trazado 819192" d="M398.446,69.615l-5.329,1.767a18.067,18.067,0,1,0,5.082,4.009l.009.006Z" transform="translate(-123.226 -23.287)" fill="#fff"/>
            <path id="Trazado_819193" data-name="Trazado 819193" d="M398.363,69.559s0,.116,0,.359c-.007.261-.017.625-.029,1.1-.031,1-.076,2.449-.133,4.331a.073.073,0,0,1-.076.071.08.08,0,0,1-.038-.013l-.008-.005.095-.11a18.054,18.054,0,0,1,4.106,7.883,17.84,17.84,0,0,1,.386,5.795,18.049,18.049,0,0,1-6.186,12.054,18.29,18.29,0,0,1-6.86,3.738,18.03,18.03,0,0,1-8.284.406,17.829,17.829,0,0,1-7.922-3.549l-.874-.7-.8-.777-.4-.387-.362-.42-.718-.842a18.443,18.443,0,0,1-3.85-11.92A18.2,18.2,0,0,1,384.457,69.12a17.962,17.962,0,0,1,8.611,2.142l-.056,0,4-1.281,1.015-.319c.226-.07.334-.1.334-.1s-.124.049-.356.13l-1.023.357L393.057,71.4a.074.074,0,0,1-.057,0,17.9,17.9,0,0,0-24.676,23.218,18.19,18.19,0,0,0,2.2,3.662l.705.826.355.412.392.38.787.762.858.69A17.869,17.869,0,0,0,402.4,88.94a17.664,17.664,0,0,0-.347-5.718,18.07,18.07,0,0,0-3.994-7.837.074.074,0,0,1,.006-.1.075.075,0,0,1,.09-.007l.009.005-.114.059c.1-1.858.171-3.29.222-4.276.027-.479.047-.849.062-1.115s.028-.389.028-.389" transform="translate(-123.143 -23.231)" fill="#263238"/>
            <rect id="Rectángulo_381794" data-name="Rectángulo 381794" width="4.482" height="13.998" transform="translate(253.217 56.35)" fill="#8054f8"/>
            <rect id="Rectángulo_381795" data-name="Rectángulo 381795" width="4.482" height="10.801" transform="translate(259.909 59.547)" fill="#8054f8"/>
            <rect id="Rectángulo_381796" data-name="Rectángulo 381796" width="4.482" height="6.414" transform="translate(266.104 63.934)" fill="#8054f8"/>
          </g>
        </g>
        <g id="Grupo_1072371" data-name="Grupo 1072371">
          <g id="Grupo_1072370" data-name="Grupo 1072370" clip-path="url(#clip-path)">
            <path id="Trazado_819194" data-name="Trazado 819194" d="M429.306,170.336l-4.991-4.463a21.42,21.42,0,0,0-3.792-11.482,21.528,21.528,0,1,0,2.66,19.12v.012Z" transform="translate(-128.152 -48.78)" fill="#fff"/>
            <path id="Trazado_819195" data-name="Trazado 819195" d="M429.245,170.264s-.123.07-.382.208l-1.158.617-4.558,2.41-.086.045,0-.1v-.012l.108.021a21.548,21.548,0,0,1-5.722,8.9,21.038,21.038,0,0,1-2.618,2.083,23.68,23.68,0,0,1-3.137,1.74,21.479,21.479,0,0,1-16.1.744,21.762,21.762,0,0,1-7.912-4.865,21.439,21.439,0,0,1-5.318-8.3,21.2,21.2,0,0,1-1.026-10.266c.035-.221.068-.442.1-.663q.135-.655.272-1.31l.322-1.272.22-.622.443-1.238c.162-.406.365-.793.545-1.188a10.681,10.681,0,0,1,.587-1.161,19.653,19.653,0,0,1,1.391-2.171,21.93,21.93,0,0,1,7.487-6.5,21.645,21.645,0,0,1,24.279,2.941,23.6,23.6,0,0,1,2.5,2.581,28.432,28.432,0,0,1,1.9,2.758,21.433,21.433,0,0,1,2.907,10.156l-.019-.039L428,169.118l.941.858c.209.192.309.288.309.288s-.119-.1-.338-.29l-.968-.849-3.722-3.283-.017-.016V165.8a21.435,21.435,0,0,0-2.944-10.074,28.315,28.315,0,0,0-1.9-2.729,23.525,23.525,0,0,0-2.491-2.549,21.484,21.484,0,0,0-24.034-2.868,21.71,21.71,0,0,0-7.394,6.433,19.456,19.456,0,0,0-1.374,2.146,10.532,10.532,0,0,0-.58,1.146c-.177.392-.378.774-.538,1.175l-.438,1.224-.217.615-.16.633-.322,1.271c-.077.432-.136.867-.205,1.3a20.969,20.969,0,0,0,1.012,10.144,21.206,21.206,0,0,0,5.25,8.21,21.528,21.528,0,0,0,16.248,6,21.285,21.285,0,0,0,7.5-1.878,23.555,23.555,0,0,0,3.116-1.714,20.926,20.926,0,0,0,2.6-2.056,21.539,21.539,0,0,0,5.733-8.811l.131-.381-.023.4v.013l-.081-.052,4.556-2.332,1.183-.6c.267-.135.41-.2.41-.2" transform="translate(-128.091 -48.708)" fill="#263238"/>
            <path id="Trazado_819196" data-name="Trazado 819196" d="M414.635,185.411a2.358,2.358,0,1,1-2.347-2.369,2.359,2.359,0,0,1,2.347,2.369" transform="translate(-137.772 -61.519)" fill="#8054f8"/>
            <path id="Trazado_819197" data-name="Trazado 819197" d="M405.237,179.652a6.535,6.535,0,0,1,9.455-.125,1.327,1.327,0,0,0,1.884-1.867,9.216,9.216,0,0,0-13.206.108c-1.176,1.236.687,3.124,1.867,1.884" transform="translate(-135.445 -58.792)" fill="#8054f8"/>
            <path id="Trazado_819198" data-name="Trazado 819198" d="M397.938,172.72A12.972,12.972,0,0,1,417,172.448c1.193,1.225,3.077-.642,1.885-1.867a15.621,15.621,0,0,0-22.817.255c-1.157,1.251.705,3.14,1.867,1.884" transform="translate(-132.995 -55.71)" fill="#8054f8"/>
          </g>
        </g>
        <g id="Grupo_1072373" data-name="Grupo 1072373">
          <g id="Grupo_1072372" data-name="Grupo 1072372" clip-path="url(#clip-path)">
            <path id="Trazado_819199" data-name="Trazado 819199" d="M405.56,271.148l-.453-7.744a24.816,24.816,0,0,0,6.267-12.529,24.941,24.941,0,1,0-13.437,17.878l-.01.009Z" transform="translate(-121.639 -74.447)" fill="#fff"/>
            <path id="Trazado_819200" data-name="Trazado 819200" d="M405.492,271.087s-.159-.043-.484-.14l-1.455-.44-5.714-1.745-.108-.033.084-.076.011-.009.071.106a24.959,24.959,0,0,1-11.972,2.636,24.456,24.456,0,0,1-3.853-.428,27.538,27.538,0,0,1-4-1.134,24.881,24.881,0,0,1-13.829-12.54,25.2,25.2,0,0,1-2.523-10.46,24.837,24.837,0,0,1,2.415-11.165,24.565,24.565,0,0,1,7.545-9.271c.21-.153.418-.308.625-.462l1.294-.854,1.3-.781.688-.332,1.376-.655c.464-.2.948-.353,1.419-.531a12.306,12.306,0,0,1,1.43-.473,22.859,22.859,0,0,1,2.917-.647A25.021,25.021,0,0,1,409.5,235.883a24.962,24.962,0,0,1,2.239,8.8,27.285,27.285,0,0,1-.052,4.166,32.7,32.7,0,0,1-.689,3.821,24.825,24.825,0,0,1-5.911,10.718l.017-.047c.131,2.524.232,4.465.3,5.787.031.643.055,1.133.072,1.473s.019.489.019.489-.017-.178-.04-.514-.057-.839-.1-1.489c-.086-1.311-.212-3.235-.375-5.738l0-.027.019-.02a24.84,24.84,0,0,0,5.813-10.681,32.809,32.809,0,0,0,.669-3.793,27.287,27.287,0,0,0,.037-4.129,24.893,24.893,0,0,0-17.4-21.993,25.153,25.153,0,0,0-11.33-.756,22.53,22.53,0,0,0-2.881.64,12.224,12.224,0,0,0-1.413.468c-.465.177-.943.327-1.4.526l-1.359.647-.68.328-.649.39-1.3.781c-.416.291-.82.6-1.232.9a24.29,24.29,0,0,0-7.456,9.159,24.568,24.568,0,0,0-2.4,11.033,24.94,24.94,0,0,0,8.446,18.2,24.675,24.675,0,0,0,7.7,4.588,27.353,27.353,0,0,0,3.96,1.138,24.317,24.317,0,0,0,3.819.439,24.964,24.964,0,0,0,11.908-2.553l.42-.206-.348.311-.011.009-.023-.109,5.647,1.806,1.463.473c.33.107.5.168.5.168" transform="translate(-121.57 -74.386)" fill="#263238"/>
            <path id="Trazado_819201" data-name="Trazado 819201" d="M382.569,257.708a2.989,2.989,0,0,0,1.22-.255,1.58,1.58,0,0,1,.408-.119l-.019,6.138a.819.819,0,0,0,.816.821l6.386.02,0-.725a1.3,1.3,0,0,0-.095-.489,2.71,2.71,0,0,1,2.638-3.712,2.734,2.734,0,0,1,2.587,2.527,2.685,2.685,0,0,1-.253,1.334,1.351,1.351,0,0,0-.134.57l0,.509,6.47.04a1,1,0,0,0,1.008-1l.025-5.692h.441c.05,0,.1,0,.151.005a3.306,3.306,0,1,0,.324-5.54,1.292,1.292,0,0,1-.268.029l-.566,0,.02-6.353a1,1,0,0,0-1-1.008l-17.672-.056a.818.818,0,0,0-.821.816l-.021,6.468a1.608,1.608,0,0,1-.317-.117,3,3,0,0,0-1.832-.264,3.05,3.05,0,0,0,.5,6.052" transform="translate(-127.565 -82.26)" fill="#8054f8"/>
          </g>
        </g>
        <g id="Grupo_1072375" data-name="Grupo 1072375">
          <g id="Grupo_1072374" data-name="Grupo 1072374" clip-path="url(#clip-path)">
            <path id="Trazado_819202" data-name="Trazado 819202" d="M302.407,0,300.73,7.783a25.621,25.621,0,1,0,8.557-3.323l.013-.007Z" transform="translate(-96.979)" fill="#fff"/>
            <path id="Trazado_819203" data-name="Trazado 819203" d="M302.351,0s.145.085.439.27l1.318.832,5.176,3.29a.074.074,0,0,1,.023.1.082.082,0,0,1-.03.027l-.013.007-.046-.139a25.6,25.6,0,0,1,12.567.674,25.008,25.008,0,0,1,3.695,1.48,28.121,28.121,0,0,1,3.645,2.219,25.546,25.546,0,0,1,10.243,16.2,25.884,25.884,0,0,1-.374,11.043,25.508,25.508,0,0,1-5.455,10.385,25.23,25.23,0,0,1-10.012,7.1c-.5.186-.987.384-1.484.56l-1.523.421-.758.209-.773.139-1.541.27c-.515.072-1.035.09-1.55.136a12.677,12.677,0,0,1-1.545.076,23.382,23.382,0,0,1-3.064-.161,26.086,26.086,0,0,1-11.13-3.914A25.749,25.749,0,0,1,288.917,24.4a28.111,28.111,0,0,1,1.2-4.107,33.6,33.6,0,0,1,1.732-3.59,25.48,25.48,0,0,1,8.791-8.977l-.033.047c.565-2.53,1-4.478,1.3-5.806.146-.643.257-1.133.335-1.475s.117-.487.117-.487-.032.182-.1.521-.173.848-.307,1.5c-.274,1.321-.677,3.259-1.2,5.775a.073.073,0,0,1-.033.046,25.5,25.5,0,0,0-8.671,8.967,33.535,33.535,0,0,0-1.7,3.566,27.889,27.889,0,0,0-1.168,4.071,25.53,25.53,0,0,0,11.167,26.5,25.793,25.793,0,0,0,10.988,3.853,23.1,23.1,0,0,0,3.023.157,12.609,12.609,0,0,0,1.524-.076c.509-.046,1.022-.064,1.53-.135l1.52-.268.763-.137.748-.207,1.5-.415c.491-.174.975-.369,1.465-.553a24.909,24.909,0,0,0,9.88-7.006,25.2,25.2,0,0,0,5.393-10.245,25.578,25.578,0,0,0-3.354-20.3,25.289,25.289,0,0,0-6.348-6.647,28.038,28.038,0,0,0-3.6-2.211,24.909,24.909,0,0,0-3.654-1.482,25.633,25.633,0,0,0-12.471-.746.074.074,0,0,1-.087-.058.076.076,0,0,1,.04-.08l.013-.007-.007.128-5.084-3.339L302.8.307c-.3-.2-.452-.307-.452-.307" transform="translate(-96.924)" fill="#263238"/>
            <path id="Trazado_819204" data-name="Trazado 819204" d="M331.86,36.24A9.423,9.423,0,1,0,314.315,41h0l.027.035c.361.609.814,1.044,1.271,1.684l5.471,7.247a1.7,1.7,0,0,0,2.716,0l5.38-7.128a20.34,20.34,0,0,0,1.368-1.812l.019-.026h0a9.366,9.366,0,0,0,1.3-4.761m-9.423,4.1a4.147,4.147,0,1,1,4.147-4.147,4.147,4.147,0,0,1-4.147,4.147" transform="translate(-105.203 -9.013)" fill="#8054f8"/>
          </g>
        </g>
        <g id="Grupo_1072413" data-name="Grupo 1072413">
          <g id="Grupo_1072412" data-name="Grupo 1072412" clip-path="url(#clip-path)">
            <path id="Trazado_819205" data-name="Trazado 819205" d="M147.1,22.124c-21.951-9.28-49.337-9.737-71.657-1.383-60.439,22.623-54.564,94.184-54.564,94.184S4.1,158.321.789,165.166a5.46,5.46,0,0,0-.554,2.377v0a5.393,5.393,0,0,0,5.394,5.394H23.342s-.492,29.007,0,41.79S39.075,228.5,39.075,228.5l31.957-1.966-8.92,69.383h125.1L173.594,200.56l20.724-68.642a108.6,108.6,0,0,0,4.789-24.964c3.393-49.608-29-75.1-52-84.83" transform="translate(-0.079 -4.975)" fill="#e0e0e0"/>
            <path id="Trazado_819206" data-name="Trazado 819206" d="M147.026,22.1s.292.12.864.366,1.427.61,2.533,1.14a91.468,91.468,0,0,1,9.52,5.188c1.02.611,2.053,1.331,3.164,2.056,1.082.767,2.239,1.549,3.4,2.444a83.735,83.735,0,0,1,7.329,6.147,81.283,81.283,0,0,1,14.784,18.487,79.165,79.165,0,0,1,9.69,27.717,99.7,99.7,0,0,1-.968,34.653q-.914,4.578-2.256,9.212l-2.817,9.36L186.374,158.4q-6.053,20.071-12.719,42.172l0-.062c4.152,29.026,8.76,61.243,13.639,95.349l.027.188h-.19l-125.1.009h-.2l.025-.2c.287-2.229.6-4.645.908-7.065,2.723-21.174,5.4-41.989,8.013-62.318l.181.193-31.957,1.964h-.021a23.362,23.362,0,0,1-8.048-2.259,14.259,14.259,0,0,1-6.142-5.506,12.459,12.459,0,0,1-1.44-3.889,25.345,25.345,0,0,1-.316-4.1c-.076-2.725-.115-5.437-.134-8.137-.072-10.8.039-21.418.2-31.832l.161.163H5.6a5.848,5.848,0,0,1-1.366-.163,5.447,5.447,0,0,1-2.406-1.277,5.55,5.55,0,0,1-1.765-4.95,5.692,5.692,0,0,1,.369-1.307l.548-1.208c.372-.794.708-1.607,1.056-2.411,1.368-3.228,2.682-6.451,3.97-9.653,5.151-12.812,10.006-25.262,14.663-37.254l-.009.063A114.237,114.237,0,0,1,21.592,93.9c.441-3.4,1.066-6.735,1.751-10.012.759-3.259,1.553-6.472,2.567-9.575a96.415,96.415,0,0,1,7.415-17.519A80.08,80.08,0,0,1,43.641,42.117,79,79,0,0,1,56.1,30.837l3.329-2.265c.539-.391,1.121-.707,1.688-1.042l1.7-.991,1.682-.981c.56-.322,1.15-.581,1.719-.872L69.619,23c1.144-.511,2.3-.96,3.432-1.435,1.138-.459,2.245-.963,3.391-1.323,1.137-.386,2.255-.789,3.373-1.148l3.346-.965c1.1-.34,2.215-.546,3.3-.82s2.166-.52,3.244-.7l3.183-.593,3.124-.434,1.532-.208,1.518-.141,2.972-.276,2.9-.139c.951-.045,1.887-.1,2.81-.086,1.846,0,3.634-.044,5.36.064l2.545.106c.833.042,1.648.135,2.449.2a103.625,103.625,0,0,1,16.09,2.665,97.526,97.526,0,0,1,9.627,3.049c2.124.84,3.214,1.283,3.214,1.283s-1.1-.416-3.23-1.242a100.115,100.115,0,0,0-9.633-3.006,104.141,104.141,0,0,0-16.08-2.622c-.8-.061-1.615-.152-2.446-.193l-2.542-.1c-1.724-.1-3.51-.054-5.353-.054-.922-.013-1.857.044-2.806.091l-2.891.143-2.967.28-1.515.143-1.529.21-3.118.438-3.176.6c-1.077.181-2.15.44-3.237.7s-2.2.482-3.294.823l-3.338.967c-1.115.36-2.229.764-3.363,1.15-1.144.361-2.248.865-3.383,1.324-1.128.475-2.283.925-3.423,1.435l-3.395,1.684c-.567.291-1.155.55-1.714.872l-1.676.981-1.693.991c-.565.334-1.146.65-1.683,1.04l-3.318,2.262a78.776,78.776,0,0,0-12.41,11.257A79.894,79.894,0,0,0,33.541,56.912,96.251,96.251,0,0,0,26.158,74.39c-1.009,3.1-1.8,6.3-2.554,9.554-.681,3.269-1.3,6.6-1.741,9.99a114.039,114.039,0,0,0-.916,20.954l0,.035-.011.029c-4.651,12-9.5,24.448-14.646,37.265-1.287,3.2-2.6,6.428-3.969,9.66-.348.806-.683,1.618-1.058,2.419a8.883,8.883,0,0,0-.892,2.434A5.237,5.237,0,0,0,2.04,171.4a5.125,5.125,0,0,0,2.27,1.2,11.073,11.073,0,0,0,2.636.153h5.4l10.917,0h.163l0,.163c-.155,10.411-.264,21.026-.189,31.824.021,2.7.059,5.41.136,8.13a25.2,25.2,0,0,0,.311,4.05,12.155,12.155,0,0,0,1.4,3.786,13.934,13.934,0,0,0,6,5.372,23.08,23.08,0,0,0,7.92,2.223h-.021l31.957-1.969.206-.013-.027.205c-2.612,20.33-5.288,41.145-8.009,62.319-.311,2.42-.621,4.835-.908,7.065l-.171-.2,125.1.009-.163.188c-4.866-34.108-9.462-66.327-13.6-95.355l0-.032.01-.031,12.743-42.166,5.9-19.532,2.823-9.354q1.339-4.617,2.258-9.19a99.517,99.517,0,0,0,1-34.574,79.058,79.058,0,0,0-9.633-27.664,81.277,81.277,0,0,0-14.727-18.476,84.049,84.049,0,0,0-7.306-6.155c-1.154-.9-2.307-1.679-3.386-2.449-1.107-.727-2.138-1.449-3.155-2.063a93.506,93.506,0,0,0-9.492-5.222c-1.1-.536-1.955-.907-2.523-1.16s-.855-.388-.855-.388" transform="translate(0 -4.95)" fill="#263238"/>
            <path id="Trazado_819207" data-name="Trazado 819207" d="M167.241,301.156s-7.759-54.794-8.943-60.527c-2.842-13.761-10.626-14.6-15.243-19.31s-10.1-8.785-13.268-14.573A22.516,22.516,0,0,1,145.462,173.8c11.341-2.09,23.964,4.468,34.117-1,6.081-3.276,9.358-10,11.893-16.429,7.22-18.3,11.623-38.049,9.913-57.65s-9.989-39.06-24.9-51.9c-15.624-13.458-37.525-18.6-57.924-15.58S82.783,42.9,68.066,57.345C60.959,64.32,52.155,81.232,53.817,91.05c3.112,18.384,30.308,17.794,33.582,36.15,2.069,11.6-7.912,21.187-16.436,29.317-8.1,7.727-9.658,14.129-9.658,14.129a33.881,33.881,0,0,0,20.318,44.827c7.132,2.461,13.288,1.938,20.361,4.564s10.411,8.816,10.534,16.36c.12,7.405-2.062,65.5-2.062,65.5Z" transform="translate(-18.019 -10.218)" fill="#fafafa"/>
            <path id="Trazado_819208" data-name="Trazado 819208" d="M155.456,342.211a15.757,15.757,0,0,1,3.367-2.5l-.093-3.889,6.241-1.571,1.76,3.468a15.8,15.8,0,0,1,4.151.609l2.683-2.814,5.524,3.3-1.208,3.7a15.741,15.741,0,0,1,2.5,3.368l3.888-.093,1.571,6.241-3.469,1.76a15.8,15.8,0,0,1-.609,4.151l2.814,2.684-3.3,5.524-3.7-1.208a15.764,15.764,0,0,1-3.368,2.5l.093,3.889-6.241,1.571-1.76-3.469a15.8,15.8,0,0,1-4.151-.609l-2.683,2.814-5.524-3.3,1.208-3.7a15.74,15.74,0,0,1-2.5-3.368l-3.888.093-1.571-6.241,3.469-1.76a15.8,15.8,0,0,1,.609-4.151l-2.814-2.683,3.3-5.524Zm5.287,7.569a6.9,6.9,0,1,0,9.468-2.383,6.9,6.9,0,0,0-9.468,2.383" transform="translate(-49.471 -112.339)" fill="#e0e0e0"/>
            <path id="Trazado_819209" data-name="Trazado 819209" d="M88.879,246.545a18.761,18.761,0,0,1,3.527-3.535l-.79-4.563,7.074-2.941,2.678,3.777a18.741,18.741,0,0,1,4.994-.009l2.667-3.783,7.082,2.922-.777,4.562a18.772,18.772,0,0,1,3.535,3.529l4.562-.789,2.941,7.073-3.776,2.679a18.764,18.764,0,0,1,.009,4.993l3.782,2.668-2.921,7.081-4.562-.777a18.748,18.748,0,0,1-3.528,3.535l.789,4.563-7.073,2.94-2.679-3.776a18.792,18.792,0,0,1-4.993.008l-2.667,3.783-7.082-2.922L92.447,273a18.745,18.745,0,0,1-3.535-3.527l-4.562.789-2.941-7.073,3.777-2.679a18.8,18.8,0,0,1-.009-4.994l-3.783-2.667,2.922-7.081Zm7.549,7.987a8.217,8.217,0,1,0,10.731-4.462,8.217,8.217,0,0,0-10.731,4.462" transform="translate(-27.356 -79.148)" fill="#e0e0e0"/>
            <path id="Trazado_819210" data-name="Trazado 819210" d="M140.267,298.566a8.818,8.818,0,0,1,1.662-1.666l-.372-2.15,3.333-1.386,1.262,1.78a8.844,8.844,0,0,1,2.354,0l1.256-1.783,3.337,1.377-.366,2.15a8.845,8.845,0,0,1,1.666,1.663l2.15-.372,1.386,3.333-1.78,1.263a8.838,8.838,0,0,1,0,2.354l1.783,1.257-1.376,3.337-2.15-.366a8.841,8.841,0,0,1-1.662,1.666l.372,2.15-3.333,1.386-1.262-1.78a8.838,8.838,0,0,1-2.354,0l-1.257,1.783-3.337-1.377.366-2.15a8.859,8.859,0,0,1-1.666-1.662l-2.15.372-1.386-3.333,1.78-1.262a8.839,8.839,0,0,1,0-2.354l-1.783-1.257,1.376-3.337Zm3.557,3.764a3.873,3.873,0,1,0,5.057-2.1,3.872,3.872,0,0,0-5.057,2.1" transform="translate(-45.958 -98.596)" fill="#e0e0e0"/>
            <path id="Trazado_819211" data-name="Trazado 819211" d="M190,418.668l-5.068.877a20.836,20.836,0,0,0-3.928-3.92l.862-5.068L174,407.311l-2.963,4.2a20.829,20.829,0,0,0-5.548.009l-2.976-4.2-7.858,3.267.877,5.069a20.846,20.846,0,0,0-3.918,3.927l-5.07-.862-3.245,7.867,1.755,1.237,15.373-.263c1.923-4.661,7.857-5.449,11.494-4.064a7.709,7.709,0,0,1,4.548,4.327h15.7l1.1-1.308Z" transform="translate(-48.161 -136.895)" fill="#e0e0e0"/>
            <path id="Trazado_819212" data-name="Trazado 819212" d="M149.732,234.52a7.412,7.412,0,0,1,1.391-1.394l-.311-1.8,2.789-1.159,1.056,1.488a7.38,7.38,0,0,1,1.969,0l1.052-1.492,2.792,1.152-.306,1.8a7.376,7.376,0,0,1,1.394,1.392l1.8-.311,1.16,2.789-1.489,1.056a7.4,7.4,0,0,1,0,1.968l1.491,1.052-1.152,2.792-1.8-.306a7.4,7.4,0,0,1-1.392,1.394l.311,1.8L157.7,247.9l-1.056-1.489a7.406,7.406,0,0,1-1.969,0l-1.052,1.491-2.792-1.152.307-1.8a7.382,7.382,0,0,1-1.394-1.392l-1.8.311-1.159-2.788,1.489-1.056a7.405,7.405,0,0,1,0-1.969l-1.491-1.052,1.152-2.792Zm2.976,3.15a3.24,3.24,0,1,0,4.231-1.759,3.24,3.24,0,0,0-4.231,1.759" transform="translate(-49.332 -77.356)" fill="#e0e0e0"/>
            <path id="Trazado_819213" data-name="Trazado 819213" d="M92.745,192.5c-4.438,7.557-11.67,14.307-18.492,21.917H124.08S102.132,194.587,92.745,192.5" transform="translate(-24.956 -64.699)" fill="#ebebeb"/>
            <path id="Trazado_819214" data-name="Trazado 819214" d="M235.334,208.4c-.041-.47-15.879-15.123-23.792-13.365s-30.626,20.071-30.626,20.071l51.639.113Z" transform="translate(-60.805 -65.502)" fill="#ebebeb"/>
            <path id="Trazado_819215" data-name="Trazado 819215" d="M74.253,225.426c0-.1,27.414-.173,61.223-.173s61.229.077,61.229.173-27.408.173-61.229.173-61.223-.077-61.223-.173" transform="translate(-24.956 -75.706)" fill="#263238"/>
            <path id="Trazado_819216" data-name="Trazado 819216" d="M72.952,62.257c-.386.379-.778.793-1.172,1.228-.6.69-1.135,1.326-1.6,1.889-.678.852-1.356,1.77-2.028,2.741l51.834,34.98,7.484-6.175-34-50.554A101.514,101.514,0,0,0,72.952,62.257" transform="translate(-22.905 -15.583)" fill="#8054f8"/>
            <g id="Grupo_1072378" data-name="Grupo 1072378" transform="translate(45.245 30.782)" opacity="0.6">
              <g id="Grupo_1072377" data-name="Grupo 1072377">
                <g id="Grupo_1072376" data-name="Grupo 1072376" clip-path="url(#clip-path-9)">
                  <path id="Trazado_819217" data-name="Trazado 819217" d="M72.952,62.257c-.386.379-.778.793-1.172,1.228-.6.69-1.135,1.326-1.6,1.889-.678.852-1.356,1.77-2.028,2.741l51.834,34.98,7.484-6.175-34-50.554A101.514,101.514,0,0,0,72.952,62.257" transform="translate(-68.15 -46.365)" fill="#fff"/>
                </g>
              </g>
            </g>
            <path id="Trazado_819218" data-name="Trazado 819218" d="M53.817,117.413c1.727,10.206,10.877,14.564,19.236,19.563l38.572.656,1.287-11.105-58.82-16.339a20.769,20.769,0,0,0-.274,7.225" transform="translate(-18.019 -37.034)" fill="#8054f8"/>
            <g id="Grupo_1072381" data-name="Grupo 1072381" transform="translate(35.594 73.155)" opacity="0.6">
              <g id="Grupo_1072380" data-name="Grupo 1072380">
                <g id="Grupo_1072379" data-name="Grupo 1072379" clip-path="url(#clip-path-10)">
                  <path id="Trazado_819219" data-name="Trazado 819219" d="M53.817,117.413c1.727,10.206,10.877,14.564,19.236,19.563l38.572.656,1.287-11.105-58.82-16.339a20.769,20.769,0,0,0-.274,7.225" transform="translate(-53.612 -110.189)" fill="#fff"/>
                </g>
              </g>
            </g>
            <path id="Trazado_819220" data-name="Trazado 819220" d="M152.061,30.216c-1.044.112-2.085.238-3.122.392-1.687.25-3.328.552-4.949.879l9.461,51.765,13.362,2.1,10.9-53.035c-7.9-2.836-18.451-2.678-25.647-2.1" transform="translate(-48.394 -10.039)" fill="#8054f8"/>
            <g id="Grupo_1072384" data-name="Grupo 1072384" transform="translate(95.596 19.832)" opacity="0.6">
              <g id="Grupo_1072383" data-name="Grupo 1072383">
                <g id="Grupo_1072382" data-name="Grupo 1072382" clip-path="url(#clip-path-11)">
                  <path id="Trazado_819221" data-name="Trazado 819221" d="M152.061,30.216c-1.044.112-2.085.238-3.122.392-1.687.25-3.328.552-4.949.879l9.461,51.765,13.362,2.1,10.9-53.035c-7.9-2.836-18.451-2.678-25.647-2.1" transform="translate(-143.991 -29.871)" fill="#fff"/>
                </g>
              </g>
            </g>
            <path id="Trazado_819222" data-name="Trazado 819222" d="M196.6,97.213l46.972-12.643a71.57,71.57,0,0,0-18.848-28.63l-30.912,36.8Z" transform="translate(-65.14 -18.801)" fill="#8054f8"/>
            <g id="Grupo_1072387" data-name="Grupo 1072387" transform="translate(128.675 37.14)" opacity="0.6">
              <g id="Grupo_1072386" data-name="Grupo 1072386">
                <g id="Grupo_1072385" data-name="Grupo 1072385" clip-path="url(#clip-path-12)">
                  <path id="Trazado_819223" data-name="Trazado 819223" d="M196.6,97.213l46.972-12.643a71.57,71.57,0,0,0-18.848-28.63l-30.912,36.8Z" transform="translate(-193.816 -55.941)" fill="#fff"/>
                </g>
              </g>
            </g>
            <path id="Trazado_819224" data-name="Trazado 819224" d="M246.61,126.9a88.262,88.262,0,0,0-1.731-11.3L193,131.815,188.173,143.4l58.284,2.53a103.377,103.377,0,0,0,.153-19.028" transform="translate(-63.244 -38.852)" fill="#8054f8"/>
            <g id="Grupo_1072390" data-name="Grupo 1072390" transform="translate(124.929 76.747)" opacity="0.6">
              <g id="Grupo_1072389" data-name="Grupo 1072389">
                <g id="Grupo_1072388" data-name="Grupo 1072388" clip-path="url(#clip-path-13)">
                  <path id="Trazado_819225" data-name="Trazado 819225" d="M246.61,126.9a88.262,88.262,0,0,0-1.731-11.3L193,131.815,188.173,143.4l58.284,2.53a103.377,103.377,0,0,0,.153-19.028" transform="translate(-188.173 -115.599)" fill="#fff"/>
                </g>
              </g>
            </g>
            <path id="Trazado_819226" data-name="Trazado 819226" d="M167.162,300.84l-56.625.088h-.091l0-.092c.311-9.53.659-20.193,1.04-31.883q.258-8.769.538-18.293.115-4.759.233-9.7c.019-3.285.287-6.67-.493-9.986a15.915,15.915,0,0,0-5.077-8.772c-2.655-2.324-6.175-3.412-9.684-4.21-3.539-.787-7.225-1.114-10.895-1.9A34.287,34.287,0,0,1,66.567,204.53a33.034,33.034,0,0,1-5.982-10.355,34.565,34.565,0,0,1,.5-24.354l-.007.022a22.013,22.013,0,0,1,2.075-4.68,37.424,37.424,0,0,1,2.871-4.279,47.394,47.394,0,0,1,3.414-3.92c1.225-1.24,2.5-2.427,3.752-3.648a93.15,93.15,0,0,0,7.249-7.692,35.318,35.318,0,0,0,5.6-9.086,21.78,21.78,0,0,0,.808-2.571c.1-.439.216-.876.3-1.317l.166-1.343c.026-.224.061-.448.078-.673l0-.678.008-1.358-.157-1.352a8.456,8.456,0,0,0-.218-1.344,18.316,18.316,0,0,0-5.3-9.452,46.019,46.019,0,0,0-9.044-6.576c-3.237-1.934-6.582-3.764-9.7-6.006a31.6,31.6,0,0,1-4.394-3.749,19.462,19.462,0,0,1-3.37-4.741,17.816,17.816,0,0,1-1.708-5.591c-.046-.489-.1-.979-.141-1.47l.025-1.475a11.108,11.108,0,0,1,.113-1.469c.062-.488.095-.981.181-1.465a47.784,47.784,0,0,1,3.572-11.263,64.627,64.627,0,0,1,5.858-10.4,43.254,43.254,0,0,1,3.734-4.726l1.045-1.1L69,55.377c.736-.688,1.443-1.407,2.2-2.071a102.953,102.953,0,0,1,9.41-7.7A88.382,88.382,0,0,1,91,39.1a81.973,81.973,0,0,1,11.343-4.9c1.629-.6,3.3-1.055,4.955-1.556l2.51-.641,1.255-.315,1.265-.265a91.728,91.728,0,0,1,10.176-1.611c1.71-.1,3.412-.3,5.12-.3l2.558-.052,2.553.069,1.275.038,1.271.1,2.537.195,2.521.321,1.258.16,1.249.219,2.492.446c.825.174,1.643.376,2.463.563,1.65.341,3.248.87,4.863,1.318a71.09,71.09,0,0,1,9.322,3.654,66.98,66.98,0,0,1,8.641,4.9l2.015,1.433c.333.242.678.469,1,.724l.959.775,1.915,1.548,1.814,1.658.9.827.855.878,1.707,1.752,1.6,1.84.8.919.749.959,1.492,1.917,1.388,1.986.691.992c.222.336.428.682.643,1.022l1.275,2.047a81.422,81.422,0,0,1,7.605,17.441A89.23,89.23,0,0,1,201.5,98.472a105.652,105.652,0,0,1-.165,18.217,129.844,129.844,0,0,1-2.964,17.524,156.83,156.83,0,0,1-5.005,16.56c-1.974,5.312-3.887,10.659-7.093,15.212a25.007,25.007,0,0,1-2.67,3.163,18.6,18.6,0,0,1-3.233,2.535,19.156,19.156,0,0,1-7.657,2.526,37.45,37.45,0,0,1-7.945-.066c-2.614-.254-5.183-.647-7.737-.939a54.173,54.173,0,0,0-7.608-.441l-1.878.106-1.852.254a20.338,20.338,0,0,0-3.584.933,22.9,22.9,0,0,0-11.254,8.7,21.324,21.324,0,0,0-2.922,6.327,22.97,22.97,0,0,0,.354,13.334,22.708,22.708,0,0,0,2.95,5.792c2.474,3.53,5.633,6.351,8.6,9.149q1.119,1.048,2.2,2.1c.717.713,1.409,1.431,2.166,2.058,1.523,1.258,3.2,2.271,4.773,3.387a22.707,22.707,0,0,1,4.27,3.764,21.2,21.2,0,0,1,2.977,4.634,37.392,37.392,0,0,1,2.685,10.067c.525,3.309,1,6.494,1.453,9.547q1.329,9.164,2.425,16.711c1.419,10.045,2.522,17.844,3.27,23.135.365,2.644.645,4.661.833,6.02l.271,2.052c-.068-.471-1.609-11.138-4.506-31.188L160.2,252.947q-.7-4.576-1.467-9.543a37.213,37.213,0,0,0-2.683-10.014,21.008,21.008,0,0,0-2.953-4.584,22.477,22.477,0,0,0-4.238-3.726c-1.566-1.11-3.249-2.122-4.79-3.393-.771-.637-1.471-1.362-2.182-2.067s-1.453-1.4-2.2-2.1c-2.966-2.794-6.14-5.619-8.639-9.176a22.932,22.932,0,0,1-2.984-5.849,23.211,23.211,0,0,1-.37-13.476,21.6,21.6,0,0,1,2.952-6.4,23.16,23.16,0,0,1,11.377-8.81,20.581,20.581,0,0,1,3.628-.947l1.873-.258,1.895-.109a54.408,54.408,0,0,1,7.648.438c5.1.568,10.32,1.593,15.617,1a18.872,18.872,0,0,0,7.539-2.49,18.322,18.322,0,0,0,3.179-2.5,24.732,24.732,0,0,0,2.634-3.124c3.169-4.5,5.079-9.836,7.047-15.144a156.464,156.464,0,0,0,4.989-16.53,129.638,129.638,0,0,0,2.95-17.481,105.272,105.272,0,0,0,.159-18.16,88.887,88.887,0,0,0-3.45-18.241,81.149,81.149,0,0,0-7.577-17.366l-1.269-2.038c-.214-.339-.42-.682-.641-1.017l-.688-.987-1.382-1.976-1.485-1.907-.745-.954-.8-.914-1.595-1.831-1.7-1.742-.85-.872-.9-.823-1.8-1.648-1.905-1.54-.953-.771c-.321-.254-.664-.479-.995-.72l-2-1.425a66.656,66.656,0,0,0-8.6-4.87,70.9,70.9,0,0,0-9.277-3.636c-1.609-.444-3.2-.971-4.841-1.311-.817-.186-1.631-.388-2.452-.561l-2.48-.443-1.243-.218-1.253-.159-2.509-.319-2.527-.194-1.265-.1-1.269-.037-2.542-.068-2.547.051c-1.7,0-3.4.2-5.1.3a91.434,91.434,0,0,0-10.135,1.6l-1.261.264-1.251.314-2.5.639c-1.648.5-3.313.953-4.935,1.55a81.581,81.581,0,0,0-11.3,4.876,88.04,88.04,0,0,0-10.351,6.48,102.725,102.725,0,0,0-9.38,7.675c-.76.661-1.465,1.379-2.2,2.065l-1.089,1.039-1.033,1.083a42.807,42.807,0,0,0-3.7,4.689A64.241,64.241,0,0,0,57.58,72.784a47.458,47.458,0,0,0-3.549,11.177c-.084.479-.117.965-.178,1.446a10.816,10.816,0,0,0-.112,1.448L53.716,88.3c.036.48.092.959.137,1.437a17.5,17.5,0,0,0,1.674,5.485,19.14,19.14,0,0,0,3.312,4.659,31.261,31.261,0,0,0,4.347,3.709c3.1,2.227,6.433,4.054,9.676,5.993a46.312,46.312,0,0,1,9.107,6.628,18.645,18.645,0,0,1,5.384,9.619,8.741,8.741,0,0,1,.222,1.369l.159,1.377-.008,1.384,0,.69c-.018.229-.054.457-.08.685l-.17,1.368c-.091.449-.208.893-.31,1.338a22.166,22.166,0,0,1-.821,2.61,35.631,35.631,0,0,1-5.655,9.172,93.344,93.344,0,0,1-7.276,7.716c-1.255,1.222-2.532,2.412-3.747,3.64a47.066,47.066,0,0,0-3.393,3.891,37.116,37.116,0,0,0-2.848,4.242,21.791,21.791,0,0,0-2.045,4.6l0,.015,0,.007a34.272,34.272,0,0,0-.5,24.139,32.749,32.749,0,0,0,5.925,10.267,34.011,34.011,0,0,0,19.383,11.482c3.647.783,7.334,1.111,10.894,1.906a35.052,35.052,0,0,1,5.2,1.546,15.97,15.97,0,0,1,4.6,2.727,16.166,16.166,0,0,1,5.154,8.914c.785,3.366.511,6.768.491,10.047q-.123,4.94-.242,9.7-.29,9.518-.556,18.293c-.4,11.69-.758,22.354-1.081,31.883l-.088-.092,56.625.088" transform="translate(-17.94 -9.903)" fill="#263238"/>
            <path id="Trazado_819227" data-name="Trazado 819227" d="M181.384,117.278A28.3,28.3,0,1,0,140.3,141.7c-.1,3.352-.206,7.136-.206,7.136l24.792.718s.266-4,.425-7.574a28.288,28.288,0,0,0,16.07-24.7" transform="translate(-41.945 -29.63)" fill="#8054f8"/>
            <path id="Trazado_819228" data-name="Trazado 819228" d="M170.236,162.6s-.016-.119-.037-.351-.048-.583-.086-1.033c-.072-.908-.166-2.249-.263-3.976-.185-3.456-.378-8.464-.258-14.653q.041-2.321.149-4.855.062-1.266.126-2.581a8.856,8.856,0,0,1,.409-2.664,3,3,0,0,1,.777-1.168,1.825,1.825,0,0,1,1.333-.514,1.711,1.711,0,0,1,1.234.761,2.678,2.678,0,0,1,.477,1.394,3.3,3.3,0,0,1-1.295,2.623,4.977,4.977,0,0,1-2.832,1.1,5.375,5.375,0,0,1-3.034-.7,5.678,5.678,0,0,1-2.174-2.332,6.773,6.773,0,0,1-.758-3.171,4.938,4.938,0,0,1,.266-1.65,2.335,2.335,0,0,1,1.043-1.337,1.506,1.506,0,0,1,.869-.153,1.935,1.935,0,0,1,.819.317,2.714,2.714,0,0,1,1.032,1.381,5.843,5.843,0,0,1,.3,1.7,17.04,17.04,0,0,1-.014,1.727,11.693,11.693,0,0,1-.673,3.424,6.426,6.426,0,0,1-2.018,2.893,5.121,5.121,0,0,1-1.575.854,3.989,3.989,0,0,1-1.779.16,3.7,3.7,0,0,1-1.63-.7,4.769,4.769,0,0,1-1.172-1.309,10.705,10.705,0,0,1-1.243-3.208c-.133-.553-.24-1.109-.331-1.665a9.807,9.807,0,0,1-.182-1.682,2.778,2.778,0,0,1,.465-1.63,1.811,1.811,0,0,1,.647-.575,1.225,1.225,0,0,1,.868-.092,1.459,1.459,0,0,1,.724.467,2.9,2.9,0,0,1,.451.708,5.636,5.636,0,0,1,.434,1.577,9.472,9.472,0,0,1-.978,6.152,6.056,6.056,0,0,1-2.152,2.153,4.537,4.537,0,0,1-2.885.627,3.92,3.92,0,0,1-2.476-1.433,4.456,4.456,0,0,1-1.057-2.572,3.672,3.672,0,0,1,.156-1.368,2.057,2.057,0,0,1,.789-1.107,1.049,1.049,0,0,1,1.3.141,2.473,2.473,0,0,1,.613,1.153,10.315,10.315,0,0,1,.218,2.484q.027,1.214.052,2.374c.127,6.186.139,11.195.084,14.655-.025,1.729-.071,3.073-.106,3.983q-.033.677-.05,1.035c-.013.233-.025.353-.025.353s0-.12,0-.353.017-.584.031-1.036c.022-.91.054-2.253.068-3.983.031-3.459,0-8.465-.149-14.65q-.029-1.159-.059-2.374a10.157,10.157,0,0,0-.22-2.445,2.322,2.322,0,0,0-.57-1.078.891.891,0,0,0-1.1-.119,1.9,1.9,0,0,0-.716,1.02,3.506,3.506,0,0,0-.145,1.3,4.293,4.293,0,0,0,1.021,2.471,3.746,3.746,0,0,0,2.367,1.366,4.359,4.359,0,0,0,2.768-.608,5.877,5.877,0,0,0,2.081-2.089,9.288,9.288,0,0,0,.947-6.026,5.445,5.445,0,0,0-.419-1.524,1.792,1.792,0,0,0-1.047-1.066,1.23,1.23,0,0,0-1.3.59,2.576,2.576,0,0,0-.428,1.516,9.594,9.594,0,0,0,.181,1.647c.092.552.2,1.1.329,1.651a10.5,10.5,0,0,0,1.218,3.146,4.562,4.562,0,0,0,1.123,1.255,3.5,3.5,0,0,0,1.538.663,4.239,4.239,0,0,0,3.2-.973,6.231,6.231,0,0,0,1.953-2.805,11.487,11.487,0,0,0,.661-3.364,9.134,9.134,0,0,0-.276-3.348,2.513,2.513,0,0,0-.953-1.282,1.449,1.449,0,0,0-1.486-.153,2.146,2.146,0,0,0-.947,1.226,4.769,4.769,0,0,0-.256,1.585,6.582,6.582,0,0,0,.734,3.078,5.469,5.469,0,0,0,2.1,2.256,5.184,5.184,0,0,0,2.926.683,4.794,4.794,0,0,0,2.727-1.05,3.124,3.124,0,0,0,1.233-2.472,2.505,2.505,0,0,0-.442-1.3,1.535,1.535,0,0,0-1.1-.689,1.651,1.651,0,0,0-1.2.467,2.823,2.823,0,0,0-.734,1.1,8.747,8.747,0,0,0-.4,2.612q-.067,1.314-.132,2.579-.115,2.529-.162,4.851c-.138,6.184.032,11.191.193,14.646.084,1.727.166,3.069.224,3.977q.043.676.066,1.034c.013.233.015.353.015.353" transform="translate(-51.003 -42.793)" fill="#fff"/>
            <path id="Trazado_819229" data-name="Trazado 819229" d="M144.089,153.662a2.147,2.147,0,0,1-.327-.12c-.21-.089-.528-.2-.92-.39a24.771,24.771,0,0,1-3.223-1.765,26.312,26.312,0,0,1-4.254-3.408,26,26,0,0,1-6.79-11.363,26.286,26.286,0,0,1-.987-5.361,24.814,24.814,0,0,1-.027-3.675c.02-.434.071-.767.092-.995a2.271,2.271,0,0,1,.05-.345,2.16,2.16,0,0,1-.009.349c-.008.228-.046.562-.054,1a27.452,27.452,0,0,0,.092,3.658A26.819,26.819,0,0,0,139.7,151.267a27.479,27.479,0,0,0,3.178,1.814c.385.2.7.323.9.424a2.254,2.254,0,0,1,.311.157" transform="translate(-42.854 -42.429)" fill="#263238"/>
            <path id="Trazado_819230" data-name="Trazado 819230" d="M129.443,118.169a10.563,10.563,0,0,1-.783,2.822,10.481,10.481,0,0,1,.783-2.822" transform="translate(-43.238 -39.716)" fill="#263238"/>
            <path id="Trazado_819231" data-name="Trazado 819231" d="M201.053,128.145a1.685,1.685,0,0,1,.054-.3c.049-.21.113-.49.194-.839l.144-.6c.046-.222.078-.467.124-.728.079-.524.208-1.115.248-1.783.031-.332.063-.68.1-1.042s.022-.742.036-1.134c.042-.784-.019-1.62-.059-2.5a27.2,27.2,0,0,0-3.187-10.928c-.44-.763-.838-1.5-1.295-2.14-.222-.323-.418-.647-.639-.937l-.642-.827c-.392-.541-.819-.971-1.167-1.37-.178-.2-.337-.385-.5-.548l-.447-.432-.613-.6a1.611,1.611,0,0,1-.205-.221,1.707,1.707,0,0,1,.232.191l.641.576.461.421c.163.159.327.345.51.538a17.431,17.431,0,0,1,1.2,1.357l.656.824c.226.288.427.613.653.936.466.639.872,1.378,1.32,2.145a26.707,26.707,0,0,1,3.209,11c.035.887.09,1.729.04,2.518-.018.394-.013.776-.048,1.141s-.076.713-.111,1.047a17.427,17.427,0,0,1-.279,1.787c-.051.262-.089.507-.141.728s-.114.42-.163.6c-.1.346-.173.622-.231.831a1.621,1.621,0,0,1-.094.285" transform="translate(-64.933 -34.017)" fill="#263238"/>
            <g id="Grupo_1072393" data-name="Grupo 1072393" transform="translate(87.805 63.443)" opacity="0.2">
              <g id="Grupo_1072392" data-name="Grupo 1072392">
                <g id="Grupo_1072391" data-name="Grupo 1072391" clip-path="url(#clip-path-14)">
                  <path id="Trazado_819232" data-name="Trazado 819232" d="M155.092,98.6a5.039,5.039,0,0,0-3.294-2.618,8.908,8.908,0,0,0-6.717.556c-6.151,3.029-9.7,6.791-12.021,13.582-.785,2.3-1.251,6.122-.178,8.43a4.6,4.6,0,0,0,2.705,2.495c3.167,1.018,5.793-2.012,6.867-4.949,1-2.736,1.423-5.847,3.448-7.942,1.668-1.727,4.11-2.417,6.164-3.659s3.877-3.649,3.025-5.893" transform="translate(-132.255 -95.56)" fill="#fff"/>
                </g>
              </g>
            </g>
            <g id="Grupo_1072396" data-name="Grupo 1072396" transform="translate(114.196 63.465)" opacity="0.2">
              <g id="Grupo_1072395" data-name="Grupo 1072395">
                <g id="Grupo_1072394" data-name="Grupo 1072394" clip-path="url(#clip-path-15)">
                  <path id="Trazado_819233" data-name="Trazado 819233" d="M179.826,97.83a4.494,4.494,0,0,0-5.134-2.019,4.608,4.608,0,0,0-2.585,3.086,4.223,4.223,0,0,0,1.743,4.387,3.992,3.992,0,0,0,4.673-.313c1.258-1.107,2.1-3.666,1.3-5.142" transform="translate(-172.007 -95.593)" fill="#fff"/>
                </g>
              </g>
            </g>
            <path id="Trazado_819234" data-name="Trazado 819234" d="M157.629,201.514A7.719,7.719,0,0,1,159.206,203a1.661,1.661,0,0,0,1.3.665l4.989.141a1.68,1.68,0,0,0,1.418-.7,3.122,3.122,0,0,1,1.743-1.279Z" transform="translate(-52.978 -67.728)" fill="#455a64"/>
            <path id="Trazado_819235" data-name="Trazado 819235" d="M150.083,180.36c0,.1.935,7.926,1.294,10.918a3.672,3.672,0,0,0,1.983,2.881,3.4,3.4,0,0,0,1.411.352l10.912.307s2.852.08,3.562-2.164c.748-2.362,2.3-11.69,2.3-11.69Z" transform="translate(-50.442 -60.618)" fill="#263238"/>
            <path id="Trazado_819236" data-name="Trazado 819236" d="M170.145,196.52l-19.012-.469a.541.541,0,0,1-.528-.554v-.059a.541.541,0,0,1,.554-.527l19.012.469a.541.541,0,0,1,.528.554v.06a.541.541,0,0,1-.554.527" transform="translate(-50.618 -65.509)" fill="#e0e0e0"/>
            <path id="Trazado_819237" data-name="Trazado 819237" d="M170.1,196.473a.607.607,0,0,0,.371-.161.549.549,0,0,0,.156-.451.511.511,0,0,0-.384-.477c-1.032-.042-2.567-.05-4.442-.094l-14.686-.335a.455.455,0,0,0-.381.193.463.463,0,0,0-.077.205.669.669,0,0,0,.012.23.453.453,0,0,0,.291.306,2.7,2.7,0,0,0,.5.032l2.063.052,3.9.1,6.6.183,4.45.139,1.21.047.315.017a.452.452,0,0,1,.107.012.464.464,0,0,1-.108.007h-.315l-1.211-.013-4.451-.08-6.6-.143-3.9-.091-2.063-.049-.262-.007a.946.946,0,0,1-.287-.035.635.635,0,0,1-.41-.432.835.835,0,0,1-.017-.3.631.631,0,0,1,.645-.562l14.684.389c1.882.062,3.393.086,4.457.155a.572.572,0,0,1,.422.545.592.592,0,0,1-.185.479.473.473,0,0,1-.4.133" transform="translate(-50.571 -65.462)" fill="#263238"/>
            <path id="Trazado_819238" data-name="Trazado 819238" d="M170.449,192.829l-19.818-.489a.541.541,0,0,1-.527-.554v-.059a.541.541,0,0,1,.554-.527l19.818.489a.541.541,0,0,1,.527.554v.059a.541.541,0,0,1-.554.528" transform="translate(-50.449 -64.261)" fill="#e0e0e0"/>
            <path id="Trazado_819239" data-name="Trazado 819239" d="M170.4,192.782a.6.6,0,0,0,.382-.172.568.568,0,0,0,.143-.474.512.512,0,0,0-.441-.454l-4.62-.088-15.255-.349a.451.451,0,0,0-.39.208.437.437,0,0,0-.07.216.552.552,0,0,0,.025.236.45.45,0,0,0,.329.287c.149.019.355.013.529.021l2.142.054,4.05.106,6.857.189,4.623.143,1.257.048.327.017a.485.485,0,0,1,.111.012.5.5,0,0,1-.112.007h-.327l-1.257-.014-4.624-.085-6.859-.149-4.05-.094-2.142-.051c-.189-.01-.348,0-.562-.025a.634.634,0,0,1-.465-.4.743.743,0,0,1-.035-.309.627.627,0,0,1,.1-.306.634.634,0,0,1,.55-.293l15.254.4c1.953.058,3.527.1,4.627.147a.574.574,0,0,1,.486.521.613.613,0,0,1-.172.505.477.477,0,0,1-.409.145" transform="translate(-50.402 -64.215)" fill="#263238"/>
            <path id="Trazado_819240" data-name="Trazado 819240" d="M170.68,189.136l-20.331-.5a.54.54,0,0,1-.527-.554v-.059a.541.541,0,0,1,.554-.527l20.331.5a.541.541,0,0,1,.527.554v.06a.541.541,0,0,1-.554.527" transform="translate(-50.354 -63.016)" fill="#e0e0e0"/>
            <path id="Trazado_819241" data-name="Trazado 819241" d="M170.633,189.089a.6.6,0,0,0,.39-.179.577.577,0,0,0,.133-.488.511.511,0,0,0-.475-.436l-4.733-.088-15.618-.359a.452.452,0,0,0-.4.217.459.459,0,0,0-.065.224.515.515,0,0,0,.034.24.45.45,0,0,0,.354.272c.167.01.368.011.549.017l2.194.055,4.146.108,7.021.193,4.733.146,1.287.049.335.017a.5.5,0,0,1,.114.012.519.519,0,0,1-.114.007h-.335l-1.288-.014-4.734-.088-7.022-.153-4.147-.1-2.194-.052c-.191-.007-.362-.005-.569-.018a.636.636,0,0,1-.5-.383.7.7,0,0,1-.048-.315.634.634,0,0,1,.649-.621l15.618.412,4.734.147a.572.572,0,0,1,.525.5.615.615,0,0,1-.161.521.479.479,0,0,1-.416.153" transform="translate(-50.308 -62.969)" fill="#263238"/>
            <path id="Trazado_819242" data-name="Trazado 819242" d="M170.987,185.444l-21.155-.522a.541.541,0,0,1-.528-.554l0-.059a.54.54,0,0,1,.554-.527l21.155.522a.541.541,0,0,1,.528.554v.059a.541.541,0,0,1-.554.528" transform="translate(-50.18 -61.768)" fill="#e0e0e0"/>
            <path id="Trazado_819243" data-name="Trazado 819243" d="M170.94,185.4a.557.557,0,0,0,.518-.7.516.516,0,0,0-.534-.4l-4.911-.092-16.2-.372a.452.452,0,0,0-.4.232.56.56,0,0,0-.008.48.455.455,0,0,0,.393.244l.58.015,2.276.057,4.3.112,7.284.2,4.909.151,1.334.05.347.017a.06.06,0,1,1,0,.019h-.347l-1.335-.016-4.911-.092-7.284-.16-4.3-.1-2.275-.054-.58-.014a.639.639,0,0,1-.552-.344.753.753,0,0,1,.01-.654.637.637,0,0,1,.571-.327l16.2.426,4.91.151a.578.578,0,0,1,.586.465.633.633,0,0,1-.143.547.537.537,0,0,1-.309.165.348.348,0,0,1-.119,0" transform="translate(-50.133 -61.721)" fill="#263238"/>
            <path id="Trazado_819244" data-name="Trazado 819244" d="M146.227,170.108c-.006.2.309,4.988.473,7.444a2.952,2.952,0,0,0,1.274,2.237l1.092.752,21.1.595,1.117-.679a2.956,2.956,0,0,0,1.4-2.194l.835-7.386Z" transform="translate(-49.146 -57.172)" fill="#8054f8"/>
            <g id="Grupo_1072399" data-name="Grupo 1072399" transform="translate(101.224 130.514)" opacity="0.3">
              <g id="Grupo_1072398" data-name="Grupo 1072398">
                <g id="Grupo_1072397" data-name="Grupo 1072397" clip-path="url(#clip-path-16)">
                  <path id="Trazado_819245" data-name="Trazado 819245" d="M152.467,196.585a27.516,27.516,0,0,0,6.275.666c1.8.043,3.566.143,5.522.157,1.433.011,2.754-.025,4.184-.046a3.936,3.936,0,0,0,1.67-.313Z" transform="translate(-152.467 -196.585)"/>
                </g>
              </g>
            </g>
            <g id="Grupo_1072402" data-name="Grupo 1072402" transform="translate(100.54 128.029)" opacity="0.3">
              <g id="Grupo_1072401" data-name="Grupo 1072401">
                <g id="Grupo_1072400" data-name="Grupo 1072400" clip-path="url(#clip-path-17)">
                  <path id="Trazado_819246" data-name="Trazado 819246" d="M151.438,192.842a31.889,31.889,0,0,0,6.766.68c1.942.046,3.844.15,5.953.169,1.546.014,2.968-.019,4.51-.037a4.517,4.517,0,0,0,1.8-.309Z" transform="translate(-151.438 -192.842)"/>
                </g>
              </g>
            </g>
            <g id="Grupo_1072405" data-name="Grupo 1072405" transform="translate(100.609 125.592)" opacity="0.3">
              <g id="Grupo_1072404" data-name="Grupo 1072404">
                <g id="Grupo_1072403" data-name="Grupo 1072403" clip-path="url(#clip-path-18)">
                  <path id="Trazado_819247" data-name="Trazado 819247" d="M151.542,189.172a31.889,31.889,0,0,0,6.765.68c1.943.046,3.845.15,5.953.169,1.546.014,2.969-.019,4.511-.037a4.511,4.511,0,0,0,1.8-.309Z" transform="translate(-151.542 -189.172)"/>
                </g>
              </g>
            </g>
            <g id="Grupo_1072408" data-name="Grupo 1072408" transform="translate(100.678 123.156)" opacity="0.3">
              <g id="Grupo_1072407" data-name="Grupo 1072407">
                <g id="Grupo_1072406" data-name="Grupo 1072406" clip-path="url(#clip-path-17)">
                  <path id="Trazado_819248" data-name="Trazado 819248" d="M151.645,185.5a31.9,31.9,0,0,0,6.766.68c1.942.046,3.844.15,5.953.169,1.546.014,2.969-.019,4.511-.037a4.513,4.513,0,0,0,1.8-.309Z" transform="translate(-151.645 -185.502)"/>
                </g>
              </g>
            </g>
            <g id="Grupo_1072411" data-name="Grupo 1072411" transform="translate(97.081 112.936)" opacity="0.3">
              <g id="Grupo_1072410" data-name="Grupo 1072410">
                <g id="Grupo_1072409" data-name="Grupo 1072409" clip-path="url(#clip-path-20)">
                  <path id="Trazado_819249" data-name="Trazado 819249" d="M146.227,170.108c-.006.2.309,4.988.473,7.444a2.952,2.952,0,0,0,1.274,2.237l1.092.752,21.1.595,1.117-.679a2.956,2.956,0,0,0,1.4-2.194l.835-7.386Z" transform="translate(-146.227 -170.108)"/>
                </g>
              </g>
            </g>
            <path id="Trazado_819250" data-name="Trazado 819250" d="M172.5,183.535c0,.051-5.646-.067-12.606-.263s-12.6-.4-12.6-.447,5.645.066,12.608.263,12.6.4,12.6.447" transform="translate(-49.502 -61.443)" fill="#263238"/>
            <path id="Trazado_819251" data-name="Trazado 819251" d="M173.254,170.707c0,.056-6.13-.046-13.69-.23s-13.693-.378-13.693-.434,6.129.046,13.692.23,13.691.378,13.692.434" transform="translate(-49.027 -57.145)" fill="#263238"/>
          </g>
        </g>
        <g id="Grupo_1072421" data-name="Grupo 1072421">
          <g id="Grupo_1072420" data-name="Grupo 1072420" clip-path="url(#clip-path)">
            <path id="Trazado_819252" data-name="Trazado 819252" d="M319.38,180.244c.653-6.575,1.639-13.187,4.045-19.341s6.349-11.872,11.918-15.428l1.43,1.33a8.295,8.295,0,0,1,14.483-2.219A8.189,8.189,0,0,1,360.2,157.03a7.508,7.508,0,0,1,3.341,13.612,10.925,10.925,0,0,1-6.737,19.184,8.636,8.636,0,0,1-15.084,7.572c.305,3.935-2.842,7.661-6.676,8.6a11.81,11.81,0,0,1-10.81-3.4,18.76,18.76,0,0,1-4.929-10.547,47.373,47.373,0,0,1,.07-11.809" transform="translate(-107.202 -47.474)" fill="#263238"/>
            <path id="Trazado_819253" data-name="Trazado 819253" d="M340.811,156.1c3.826,1.24,4.609,4.337,5.4,6.92,1.711,5.557-.213,13.781-3.323,18.694s-6.52,7.411-12.276,8.242q-.28-13.233-.562-26.466Z" transform="translate(-110.929 -52.464)" fill="#8054f8"/>
            <path id="Trazado_819254" data-name="Trazado 819254" d="M315.268,160.17a9.165,9.165,0,0,0-.814-11.723c1.675-2.1,1.074-5.35-.629-7.433s-4.231-3.277-6.672-4.406a12.338,12.338,0,0,0-14.378-9.009c-3.191-4.69-9.99-5.427-15.436-3.839a14.491,14.491,0,0,1-4.045.883,23.565,23.565,0,0,1-3.017-.418c-5.542-.746-11.041,3.156-13.2,8.312a10.23,10.23,0,0,1-1.176,2.4,13.855,13.855,0,0,1-2.739,2.188,8.851,8.851,0,0,0-3.389,6.543c-.091,2.152.594,4.436-.312,6.389-.454.98-1.275,1.771-1.629,2.791-1.025,2.956,2.253,5.978,1.645,9.048-.124.627-.406,1.21-.58,1.824a5.459,5.459,0,0,0,.332,3.817,7.835,7.835,0,0,1,1.2,2.745,8.861,8.861,0,0,1-.447,2.239c-.375,1.832,3.579,8.9,5.162,9.894l47.314.424a8.84,8.84,0,0,0,6.842-7.612,3.235,3.235,0,0,1,.441-1.74,3.79,3.79,0,0,1,1.292-.839c3.046-1.636,3.414-5.818,3.093-9.261a4.2,4.2,0,0,1,.027-1.445,5.279,5.279,0,0,1,1.117-1.773" transform="translate(-83.227 -41.341)" fill="#263238"/>
            <path id="Trazado_819255" data-name="Trazado 819255" d="M303.888,166.37c.14-8.373-5.111-18-13.429-22.09-5.243-2.581-9.334-2.6-12.09-2.919a19.166,19.166,0,0,0-11.159,2.34c-2.608.612-12.165,9.363-12.661,18.858-.552,10.549-.809,23.45.524,31.3,2.682,15.789,14.825,17.672,14.825,17.672,0-.025-1.131,26.246-1.131,26.246l23.34,19.127,9.088-30.382Z" transform="translate(-85.402 -47.474)" fill="#ffc09d"/>
            <path id="Trazado_819256" data-name="Trazado 819256" d="M277.808,244.14A40.4,40.4,0,0,0,299,238.266s-5.52,11.209-21.366,9.9Z" transform="translate(-93.312 -80.08)" fill="#ff9b6c"/>
            <path id="Trazado_819257" data-name="Trazado 819257" d="M325.5,199.511c-.01-1.178,1.322-3.969,2.483-4.163,3.1-.518,8.7-.328,8.839,7.56.187,10.782-10.678,8.746-10.7,8.437-.019-.241-.586-7.766-.62-11.833" transform="translate(-109.398 -65.598)" fill="#ffc09d"/>
            <path id="Trazado_819258" data-name="Trazado 819258" d="M330.8,209.182c.046-.035.189.128.509.268a1.879,1.879,0,0,0,1.4,0c1.132-.438,2.061-2.263,2.078-4.207a6.183,6.183,0,0,0-.572-2.681,2.169,2.169,0,0,0-1.437-1.417.958.958,0,0,0-1.1.533c-.139.3-.066.519-.123.538-.029.028-.235-.176-.155-.623a1.2,1.2,0,0,1,.413-.684,1.419,1.419,0,0,1,1.034-.292,2.638,2.638,0,0,1,1.991,1.638,6.374,6.374,0,0,1,.7,2.994c-.031,2.174-1.107,4.226-2.659,4.7a2.014,2.014,0,0,1-1.723-.256c-.339-.26-.4-.5-.362-.521" transform="translate(-111.179 -67.426)" fill="#ff9b6c"/>
            <path id="Trazado_819259" data-name="Trazado 819259" d="M251.25,158.332a28.588,28.588,0,0,1,3.793-11.078,22.962,22.962,0,0,1,4.871-6.495,25.319,25.319,0,0,1,5.823-3.512c5.4-2.563,11.428-4.736,17.261-3.422a29.749,29.749,0,0,1,8.693,4.038,32.543,32.543,0,0,1,5.973,4.307,24.45,24.45,0,0,1,3.881,5.158,33.441,33.441,0,0,1,4.807,14.522c.353,5.132,4.237,9.67,1.227,13.842-.233.323-5.592,1.433-5.962,1.58-.871.347-1.829-.6-1.822-1.536a3.455,3.455,0,0,1,1.347-2.376,2.606,2.606,0,0,1-2.165-2.863,7.057,7.057,0,0,1,1.665-3.581,1.028,1.028,0,0,0,.232-.461c.056-.455-.459-.735-.853-.968a3.629,3.629,0,0,1-.385-5.683,4.868,4.868,0,0,1-3.322-6.166,1.56,1.56,0,0,0,.155-1.2c-.181-.359-.625-.471-1.01-.586a6.184,6.184,0,0,1-4.141-6.963,15.459,15.459,0,0,1-4.475-.2,5.236,5.236,0,0,1-3.531-2.549,5.84,5.84,0,0,1-9.88.529,15.279,15.279,0,0,1-7.4-1.145,7.224,7.224,0,0,1-4.707,5.068c-.445.144-.957.284-1.171.7a1.7,1.7,0,0,0-.1.876c.08,1.505-.947,2.146-1.777,3.405s-2.278,3.134-3.727,2.718c.161,2.565-1.211,4.431-3.376,5.815Z" transform="translate(-84.418 -44.845)" fill="#263238"/>
            <path id="Trazado_819260" data-name="Trazado 819260" d="M247.93,152.773a4.126,4.126,0,0,1,.57-1.163c.226-.361.544-.781.844-1.319a5.022,5.022,0,0,0,.587-2.02,15.683,15.683,0,0,0-.071-2.667,11.838,11.838,0,0,1,.056-3.2,8.975,8.975,0,0,1,1.388-3.41,8.814,8.814,0,0,1,1.313-1.538,13.216,13.216,0,0,1,1.692-1.283,6.694,6.694,0,0,0,1.627-1.428,8.718,8.718,0,0,0,1-2.039,14.47,14.47,0,0,1,6.733-7.443,12.833,12.833,0,0,1,2.587-1,11.607,11.607,0,0,1,2.831-.345,13.412,13.412,0,0,1,1.454.1c.483.071.959.169,1.437.249a6.936,6.936,0,0,0,2.882-.022c.963-.2,1.907-.555,2.9-.811a18.914,18.914,0,0,1,6.213-.623,16.44,16.44,0,0,1,3.168.556,10.635,10.635,0,0,1,5.459,3.536l.4.528-.173-.067a12.514,12.514,0,0,1,14.567,9.134l-.086-.108a34.235,34.235,0,0,1,3.8,1.963,11.385,11.385,0,0,1,3.11,2.735,7.4,7.4,0,0,1,1.435,3.711,5.1,5.1,0,0,1-1,3.654l-.011-.18a8.926,8.926,0,0,1,2.529,5.515,9.142,9.142,0,0,1-1.076,5.368,8.874,8.874,0,0,1-.707,1.074,11.514,11.514,0,0,0-.735.969,2.3,2.3,0,0,0-.374,1.06,6.506,6.506,0,0,0,.04,1.119,17.678,17.678,0,0,1-.081,4.094,8.554,8.554,0,0,1-1.035,3.124,5.3,5.3,0,0,1-1.662,1.764c-.554.372-1.045.519-1.317.72a2.47,2.47,0,0,0-.39.329,1.266,1.266,0,0,1,.366-.362c.27-.217.762-.379,1.3-.754a5.274,5.274,0,0,0,1.6-1.757,8.507,8.507,0,0,0,.985-3.086,17.681,17.681,0,0,0,.046-4.055,6.633,6.633,0,0,1-.048-1.153,2.514,2.514,0,0,1,.4-1.152,11.814,11.814,0,0,1,.742-.991,8.628,8.628,0,0,0,.682-1.05,8.922,8.922,0,0,0,1.023-5.238,8.684,8.684,0,0,0-2.473-5.347l-.087-.086.076-.095a4.82,4.82,0,0,0,.93-3.462,7.117,7.117,0,0,0-1.388-3.56,11.107,11.107,0,0,0-3.035-2.654,34.045,34.045,0,0,0-3.767-1.939l-.07-.032-.016-.076a12.207,12.207,0,0,0-14.188-8.884l-.1.025-.07-.091-.391-.509a10.314,10.314,0,0,0-5.295-3.426,16.079,16.079,0,0,0-3.1-.546,18.651,18.651,0,0,0-6.107.607c-.977.25-1.927.607-2.921.811a7.435,7.435,0,0,1-1.508.169,8.8,8.8,0,0,1-1.488-.15c-.485-.082-.959-.181-1.43-.25a13.007,13.007,0,0,0-1.412-.1,11.314,11.314,0,0,0-2.757.33,12.6,12.6,0,0,0-2.53.969,14.235,14.235,0,0,0-6.63,7.282,8.921,8.921,0,0,1-1.044,2.09,6.9,6.9,0,0,1-1.688,1.473,13.02,13.02,0,0,0-1.674,1.253,8.632,8.632,0,0,0-1.29,1.494,8.817,8.817,0,0,0-1.38,3.327,11.759,11.759,0,0,0-.08,3.158,15.529,15.529,0,0,1,.042,2.691,5.081,5.081,0,0,1-.628,2.055c-.314.542-.641.955-.874,1.308a6.358,6.358,0,0,0-.487.829c-.094.2-.13.3-.138.3" transform="translate(-83.328 -41.263)" fill="#455a64"/>
            <path id="Trazado_819261" data-name="Trazado 819261" d="M299.782,125.723c-.017.025-.286-.161-.813-.414a7.243,7.243,0,0,0-2.356-.667,6.81,6.81,0,0,0-3.541.544,7.034,7.034,0,0,0-3.2,2.947,6,6,0,0,0-.526,1.225,1.349,1.349,0,0,0,.088,1.135l.266.365-.436-.12a4.46,4.46,0,0,0-3.331.424,4.3,4.3,0,0,0-1.813,2.01,4.709,4.709,0,0,0-.407,1.78c-.012.432.025.669,0,.672-.009,0-.027-.056-.05-.169a2.923,2.923,0,0,1-.059-.5,4.5,4.5,0,0,1,2.193-4.029,4.7,4.7,0,0,1,3.553-.491l-.171.245a1.648,1.648,0,0,1-.143-1.4,6.155,6.155,0,0,1,.554-1.3,7.217,7.217,0,0,1,3.365-3.063,6.879,6.879,0,0,1,3.69-.5,6.743,6.743,0,0,1,2.387.783,4.756,4.756,0,0,1,.574.369c.125.094.187.148.18.157" transform="translate(-95.315 -41.792)" fill="#455a64"/>
            <path id="Trazado_819262" data-name="Trazado 819262" d="M327.2,144.857c.013.014-.114.157-.374.388a6.969,6.969,0,0,1-1.214.857,5.142,5.142,0,0,1-2.146.663,3.854,3.854,0,0,1-2.684-.789l.238-.038-.312.445c-.114.145-.242.284-.365.428a6.535,6.535,0,0,1-2.681,1.7,6.684,6.684,0,0,1-2.567.343,5.915,5.915,0,0,1-1.7-.374,2.146,2.146,0,0,1-.565-.3,9.363,9.363,0,0,0,2.279.441,6.827,6.827,0,0,0,2.458-.4,6.436,6.436,0,0,0,2.542-1.637c.116-.137.237-.267.345-.4l.3-.419.1-.148.134.11a3.625,3.625,0,0,0,2.463.752,5.186,5.186,0,0,0,2.062-.567c1.1-.565,1.652-1.1,1.687-1.056" transform="translate(-105.141 -48.685)" fill="#455a64"/>
            <path id="Trazado_819263" data-name="Trazado 819263" d="M334.74,159.394c.011,0,0,.07-.025.2a1.856,1.856,0,0,1-.236.523,2.877,2.877,0,0,1-1.729,1.169,5.494,5.494,0,0,1-3.083-.31,17.64,17.64,0,0,1-1.708-.658,2.952,2.952,0,0,1-1.5-1.346c-.024-.059-.047-.118-.068-.173l.255.075a12.365,12.365,0,0,1-3.183,1.946,5.558,5.558,0,0,1-3.027.337,4,4,0,0,1-1.872-.834,2.5,2.5,0,0,1-.394-.4c-.078-.1-.114-.157-.106-.164s.193.186.576.461a4.169,4.169,0,0,0,1.833.708,5.473,5.473,0,0,0,2.881-.389,12.643,12.643,0,0,0,3.09-1.923l.171-.135.084.211c.018.046.037.095.057.144a2.671,2.671,0,0,0,1.342,1.192c.551.263,1.129.465,1.666.661a5.418,5.418,0,0,0,2.932.37,2.862,2.862,0,0,0,1.678-1.018,4.658,4.658,0,0,0,.365-.65" transform="translate(-106.9 -53.266)" fill="#455a64"/>
            <path id="Trazado_819264" data-name="Trazado 819264" d="M290.732,192.825a1.994,1.994,0,0,0,1.858,2.073,1.907,1.907,0,0,0,2.113-1.731,2,2,0,0,0-1.856-2.075,1.91,1.91,0,0,0-2.116,1.733" transform="translate(-97.712 -64.222)" fill="#263238"/>
            <path id="Trazado_819265" data-name="Trazado 819265" d="M262.471,191.161a2,2,0,0,0,1.858,2.074,1.909,1.909,0,0,0,2.114-1.732,2,2,0,0,0-1.856-2.075,1.91,1.91,0,0,0-2.116,1.733" transform="translate(-88.214 -63.663)" fill="#263238"/>
            <path id="Trazado_819266" data-name="Trazado 819266" d="M260.422,181.075c.239.268,1.785-.8,3.931-.727,2.144.044,3.684,1.2,3.925.943.118-.113-.119-.59-.788-1.112a5.485,5.485,0,0,0-3.132-1.076,5.253,5.253,0,0,0-3.14.9c-.676.485-.915.947-.8,1.068" transform="translate(-87.517 -60.195)" fill="#263238"/>
            <path id="Trazado_819267" data-name="Trazado 819267" d="M292.561,182.482c.266.242,1.7-.981,3.837-1.127,2.137-.177,3.788.813,4,.535.106-.124-.176-.575-.9-1.024a5.476,5.476,0,0,0-3.225-.75,5.263,5.263,0,0,0-3.031,1.222c-.621.552-.812,1.037-.683,1.145" transform="translate(-98.315 -60.531)" fill="#263238"/>
            <path id="Trazado_819268" data-name="Trazado 819268" d="M277.784,198.916a14.249,14.249,0,0,0-3.465-.741c-.546-.074-1.061-.2-1.141-.576a2.792,2.792,0,0,1,.418-1.613q.837-1.964,1.755-4.12c2.441-5.868,4.228-10.7,3.991-10.8s-2.409,4.582-4.85,10.45q-.882,2.171-1.687,4.147a3.169,3.169,0,0,0-.353,2.141,1.375,1.375,0,0,0,.875.831,3.717,3.717,0,0,0,.927.159,13.992,13.992,0,0,0,3.532.118" transform="translate(-91.541 -60.856)" fill="#263238"/>
            <path id="Trazado_819269" data-name="Trazado 819269" d="M284.136,212.734a3.063,3.063,0,0,1,2.077,1.2c.469.673.807,2.247.342,2.859-.4.522-2.17.52-3.389.366a1.5,1.5,0,0,1-1.223-1l-.481-1.385a1.5,1.5,0,0,1,.933-1.923,4,4,0,0,1,1.741-.12" transform="translate(-94.569 -71.484)" fill="#ff9b6c"/>
            <path id="Trazado_819270" data-name="Trazado 819270" d="M291.207,169.535c.319.532,2.371-.149,4.9-.333,2.527-.234,4.662.1,4.89-.477.1-.275-.354-.746-1.268-1.144a8.539,8.539,0,0,0-7.459.617c-.836.543-1.2,1.082-1.063,1.336" transform="translate(-97.863 -56.128)" fill="#263238"/>
            <path id="Trazado_819271" data-name="Trazado 819271" d="M261.011,174.759c.354.55,2.126.325,4.163.629,2.045.243,3.7.929,4.181.49.214-.217.019-.742-.659-1.319a6.525,6.525,0,0,0-3.251-1.334,6.42,6.42,0,0,0-3.471.433c-.8.378-1.115.836-.962,1.1" transform="translate(-87.712 -58.198)" fill="#263238"/>
            <path id="Trazado_819272" data-name="Trazado 819272" d="M281.425,217.73c.04-.027.009-.151-.068-.351a2.778,2.778,0,0,1-.222-.8c-.02-.311.115-.7.428-.762a2.3,2.3,0,0,1,.68-.03c.27.009.549.027.835.048,2.288.171,4.086.761,4.157.574.081-.163-1.689-1.079-4.1-1.263-.3-.022-.592-.037-.874-.037a2.543,2.543,0,0,0-.9.1,1.1,1.1,0,0,0-.666.678,1.393,1.393,0,0,0-.04.761,1.961,1.961,0,0,0,.477.868c.153.163.258.234.3.208" transform="translate(-94.314 -72.298)" fill="#263238"/>
            <path id="Trazado_819273" data-name="Trazado 819273" d="M315.388,303.615l-17.631,47.523L307.243,378H218.567s5.445-24.925,5.778-30.527,0-37.586,2.669-48.561,10.31-34.5,10.31-34.5l22.476-3.568c10.305,5.535,18.4,4.6,29.479-1.809l20.374,10.012Z" transform="translate(-73.459 -87.061)" fill="#8054f8"/>
            <path id="Trazado_819274" data-name="Trazado 819274" d="M229.505,267.081s-6.822,1.457-11.681,11.383c-4.8,9.807-23.377,53.033-24.1,60.285s5.157,17.011,10.285,18.36l15.818-23.194-.483-3.384,13.242-44.159Z" transform="translate(-65.089 -89.765)" fill="#8054f8"/>
            <path id="Trazado_819275" data-name="Trazado 819275" d="M238.037,291.834s-.036.03-.095.1l-.257.3c-.215.275-.566.655-.949,1.2a31.621,31.621,0,0,0-2.934,4.789,39.287,39.287,0,0,0-2.9,7.81,51.337,51.337,0,0,0-1.522,10.087,94.032,94.032,0,0,0,1.216,18.471c.352,2.344.673,4.235.9,5.54q.172.951.271,1.5l.078.39a.493.493,0,0,0,.036.131.446.446,0,0,0-.007-.135c-.013-.106-.029-.235-.05-.394q-.08-.553-.218-1.51l-.811-5.551a99,99,0,0,1-1.131-18.428,52.279,52.279,0,0,1,1.492-10.036,40.194,40.194,0,0,1,2.828-7.786,34.1,34.1,0,0,1,2.844-4.815c.367-.55.7-.941.9-1.226l.234-.32a.462.462,0,0,0,.072-.116" transform="translate(-77.066 -98.084)" fill="#263238"/>
            <path id="Trazado_819276" data-name="Trazado 819276" d="M206.674,363.931a3.034,3.034,0,0,0,.649-.167l1.737-.539a29.544,29.544,0,0,1,5.824-1.283,13.427,13.427,0,0,1,5.86.674,16.565,16.565,0,0,1,2.213,1.093,2.534,2.534,0,0,0-.523-.421,8.522,8.522,0,0,0-1.618-.86,12.8,12.8,0,0,0-5.958-.769A25.807,25.807,0,0,0,209,363.034c-.728.251-1.311.469-1.712.625a2.976,2.976,0,0,0-.612.272" transform="translate(-69.462 -121.53)" fill="#263238"/>
            <path id="Trazado_819277" data-name="Trazado 819277" d="M209.561,349.63a3.279,3.279,0,0,0,.645.244c.422.134,1.025.349,1.761.634a29.113,29.113,0,0,1,10.228,6.717c.554.562.991,1.03,1.281,1.363a3.192,3.192,0,0,0,.481.5,3.242,3.242,0,0,0-.4-.566,18.763,18.763,0,0,0-1.222-1.432,26.1,26.1,0,0,0-10.3-6.766c-.75-.264-1.367-.45-1.8-.552a3.187,3.187,0,0,0-.677-.138" transform="translate(-70.432 -117.508)" fill="#263238"/>
            <g id="Grupo_1072416" data-name="Grupo 1072416" transform="translate(139.67 203.978)" opacity="0.3">
              <g id="Grupo_1072415" data-name="Grupo 1072415">
                <g id="Grupo_1072414" data-name="Grupo 1072414" clip-path="url(#clip-path-22)">
                  <path id="Trazado_819278" data-name="Trazado 819278" d="M226.01,307.24a58.384,58.384,0,0,0-3.035,30.773l-8.5-3.174a26.52,26.52,0,0,0,8.829,7.744,20.728,20.728,0,0,0-7.019-1.176,7.024,7.024,0,0,0-5.91,3.433,28.61,28.61,0,0,1,8.409-.689,9.659,9.659,0,0,1,7.144,4.009,98.546,98.546,0,0,1-2.387-27.646" transform="translate(-210.377 -307.24)"/>
                </g>
              </g>
            </g>
            <g id="Grupo_1072419" data-name="Grupo 1072419" transform="translate(151.041 263.671)" opacity="0.3">
              <g id="Grupo_1072418" data-name="Grupo 1072418">
                <g id="Grupo_1072417" data-name="Grupo 1072417" clip-path="url(#clip-path-23)">
                  <path id="Trazado_819279" data-name="Trazado 819279" d="M228.241,397.152l63.34,6.276c-4.566-.1-8.079,3.767-12.032,6.053-7.319,4.234-16.434,3.049-24.786,1.736L234,407.952c-1.746-.274-3.606-.6-4.894-1.814-2.307-2.172-1.676-5.922-.866-8.985" transform="translate(-227.504 -397.152)"/>
                </g>
              </g>
            </g>
            <path id="Trazado_819280" data-name="Trazado 819280" d="M289.674,383.428l10.606-10.241a4.894,4.894,0,0,1,3.863-1.354c3.027.287,8.157.819,9.212,1.23a7.265,7.265,0,0,1,3.371,2.191,44.818,44.818,0,0,1,1.938,5.984,13.748,13.748,0,0,1-.169,2.157,1.5,1.5,0,0,1-2.2,1.145,2.486,2.486,0,0,1-1-.942,3.363,3.363,0,0,1-.59-1.77s.337,4.551-3.371,4.635c0,0,1.708,3.877-3.065,5.478,0,0,.177,2.528-3.815,2.865a48.546,48.546,0,0,1-7.616,0s-7.3,5.242-12.437,5.578-16.652-1.909-16.652-1.909l-1.39-21.2Z" transform="translate(-89.522 -124.964)" fill="#ffc09d"/>
            <path id="Trazado_819281" data-name="Trazado 819281" d="M323.122,379.522a11.367,11.367,0,0,0,1.7.712c1.065.4,2.547.929,4.23,1.376.833.237,1.673.37,2.371.562a2.58,2.58,0,0,1,1.445,1.186,12.132,12.132,0,0,0,.765,1.112c.208.246.357.351.367.339a3.078,3.078,0,0,0-.279-.406c-.181-.258-.391-.659-.685-1.154a3.914,3.914,0,0,0-.578-.758,2.36,2.36,0,0,0-.956-.568c-.747-.219-1.543-.349-2.379-.588-1.669-.443-3.156-.942-4.236-1.291a12.353,12.353,0,0,0-1.765-.522" transform="translate(-108.6 -127.554)" fill="#ff9b6c"/>
            <path id="Trazado_819282" data-name="Trazado 819282" d="M321.065,389.31a5.7,5.7,0,0,0,1.18.545c.744.3,1.782.685,2.942,1.074s2.222.705,3,.914a5.659,5.659,0,0,0,1.271.275,6.23,6.23,0,0,0-1.212-.467l-2.964-.991-2.963-.993a6.211,6.211,0,0,0-1.249-.357" transform="translate(-107.908 -130.843)" fill="#ff9b6c"/>
            <path id="Trazado_819283" data-name="Trazado 819283" d="M317.117,398.405c-.009.087,1.847.276,4.054.878s3.91,1.359,3.947,1.279a4.441,4.441,0,0,0-1.083-.575,19.986,19.986,0,0,0-5.693-1.535,4.413,4.413,0,0,0-1.225-.047" transform="translate(-106.581 -133.894)" fill="#ff9b6c"/>
            <path id="Trazado_819284" data-name="Trazado 819284" d="M256.361,398.248,209.436,390.1s5.527-22.962,13.777-22.962c1.209,0,42.055,15.263,42.055,15.263Z" transform="translate(-70.39 -123.393)" fill="#ffc09d"/>
            <path id="Trazado_819285" data-name="Trazado 819285" d="M292.514,394.837a8.738,8.738,0,0,0,1.1-1.01l2.571-2.525c1-.993,1.89-1.907,2.515-2.588a7.063,7.063,0,0,0,.959-1.15,8.793,8.793,0,0,0-1.1,1.01l-2.571,2.526c-1,.993-1.889,1.906-2.514,2.587a7.062,7.062,0,0,0-.959,1.15" transform="translate(-98.312 -130.258)" fill="#ff9b6c"/>
            <path id="Trazado_819286" data-name="Trazado 819286" d="M333.377,273.184s15.758,9.192,11.677,26.109c-4.6,19.063-47.028,47.54-47.028,47.54,1.992-11.783.442-23.053-6.011-33.613l21.968-20.354" transform="translate(-98.145 -91.816)" fill="#8054f8"/>
            <path id="Trazado_819287" data-name="Trazado 819287" d="M313.911,292.865s-.141.115-.4.352l-1.16,1.054-4.421,4.056-16.057,14.812-.066.061.047.077a46.327,46.327,0,0,1,5.889,15.01,51.275,51.275,0,0,1,.079,18.522l-.055.323.27-.184c4.473-3.051,9-6.381,13.549-9.919,8.879-6.95,17.009-14.052,23.5-21.382.825-.9,1.577-1.85,2.348-2.759.726-.946,1.482-1.848,2.141-2.8a42.176,42.176,0,0,0,3.568-5.724,22.568,22.568,0,0,0,2.577-11.714,21.769,21.769,0,0,0-2.808-9.516,27.02,27.02,0,0,0-4.58-5.968,29.317,29.317,0,0,0-3.63-3.078c-.443-.316-.792-.542-1.028-.69s-.366-.21-.366-.21l.35.235c.231.156.574.389,1.01.712a30.852,30.852,0,0,1,3.586,3.109,27.212,27.212,0,0,1,4.52,5.967,21.671,21.671,0,0,1,2.745,9.45,22.39,22.39,0,0,1-2.586,11.6,42.081,42.081,0,0,1-3.559,5.684c-.658.95-1.414,1.848-2.138,2.788-.77.906-1.521,1.847-2.346,2.747-6.486,7.3-14.611,14.388-23.481,21.331-4.541,3.535-9.069,6.865-13.529,9.913l.214.139a51.4,51.4,0,0,0-.1-18.619,46.412,46.412,0,0,0-5.953-15.075l-.019.138,15.993-14.883,4.38-4.1,1.139-1.077c.256-.244.382-.376.382-.376" transform="translate(-98.073 -91.816)" fill="#263238"/>
            <path id="Trazado_819288" data-name="Trazado 819288" d="M284.751,348.395s-9.929,8.1-20.1,3.271c-1.626-.772-3.671-2.8-4.9-6.173-6.474-17.745-7.233-64.591-7.233-64.591l17.742-1.2,8.482,35.708c6.1,8.748,8.015,19.79,6.011,32.985" transform="translate(-84.869 -94.006)" fill="#ffc09d"/>
            <path id="Trazado_819289" data-name="Trazado 819289" d="M259.847,366.179a1.57,1.57,0,0,0,.035.339c.033.22.081.545.16.96.15.832.394,2.033.8,3.493a25.591,25.591,0,0,0,1.9,4.969A12.118,12.118,0,0,0,267,380.826a12.429,12.429,0,0,0,6.288,1.612,17.991,17.991,0,0,0,5.261-.781,18.96,18.96,0,0,0,3.331-1.326c.382-.181.657-.365.852-.473a1.536,1.536,0,0,0,.285-.186c-.013-.023-.423.2-1.185.56a21.267,21.267,0,0,1-3.337,1.233,18.347,18.347,0,0,1-5.2.712,12.317,12.317,0,0,1-6.144-1.593,12,12,0,0,1-4.181-4.766,26.571,26.571,0,0,1-1.936-4.9c-.425-1.445-.7-2.636-.88-3.459l-.212-.949a1.527,1.527,0,0,0-.091-.328" transform="translate(-87.332 -123.071)" fill="#ff9b6c"/>
            <path id="Trazado_819290" data-name="Trazado 819290" d="M292.872,333.87a17.41,17.41,0,0,1,2.828.773,15.82,15.82,0,0,1,5.714,4.06,34.525,34.525,0,0,1,4.106,5.775l1.093,1.862a4.257,4.257,0,0,0,.429.668,4.222,4.222,0,0,0-.332-.721c-.23-.455-.573-1.11-1.016-1.909a30.789,30.789,0,0,0-4.071-5.867,15.189,15.189,0,0,0-5.852-4.056,10.225,10.225,0,0,0-2.106-.532,5.812,5.812,0,0,0-.588-.057.565.565,0,0,0-.206,0" transform="translate(-98.433 -112.209)" fill="#263238"/>
            <path id="Trazado_819291" data-name="Trazado 819291" d="M265.573,256.231c.392-1.309,2.6-13.4,3.5-16.211,1.268-3.967,11.574-11.059,11.574-11.059s-1.617-3.723-6-1.788c-5.2,2.291-7.763,6.148-9.072,5.363s-9.469-9.092-11.694-8.83a2.3,2.3,0,0,0-1.928,3.46,20.3,20.3,0,0,1,1.666,2.429s-4.712-1.418-3.8,3.74c0,0-5.366-3.348-4.843,3.719,0,0-3.533-1.439-4.319,1.047s1.544,5.366,2.721,7.329,5,13.35,5,13.35l.441,6.964,18.366-.781Z" transform="translate(-80.832 -75.184)" fill="#ffc09d"/>
            <path id="Trazado_819292" data-name="Trazado 819292" d="M248.523,266.341s.007-.169,0-.5-.012-.831-.021-1.469c-.026-1.3-.064-3.207-.114-5.661v-.01l0-.009c-.963-2.855-2.193-6.561-3.859-10.872a16.048,16.048,0,0,0-1.571-3.245,22.429,22.429,0,0,1-1.893-3.318,5.957,5.957,0,0,1-.488-1.9,2.987,2.987,0,0,1,.453-1.89,1.91,1.91,0,0,1,.337-.355,2.168,2.168,0,0,1,.436-.234,2.681,2.681,0,0,1,1-.179,5.934,5.934,0,0,1,2.074.4l.185.068-.013-.194a9.991,9.991,0,0,1,.04-2.011,3.181,3.181,0,0,1,.76-1.82,2.08,2.08,0,0,1,1.87-.5,5.688,5.688,0,0,1,1.977.737l.235.137-.033-.274c-.031-.264-.064-.53-.1-.8s0-.537,0-.809a2.675,2.675,0,0,1,.579-1.468,2.235,2.235,0,0,1,1.454-.66,4.779,4.779,0,0,1,1.688.149l.331.09-.172-.291c-.324-.546-.666-1.083-1.036-1.611-.187-.264-.38-.524-.59-.775a1.446,1.446,0,0,1-.351-.8,2.193,2.193,0,0,1,.542-1.7,2.447,2.447,0,0,1,1.643-.792,2.127,2.127,0,0,1,.894.23,7.732,7.732,0,0,1,.868.467c.566.347,1.112.74,1.65,1.147,1.076.817,2.117,1.7,3.154,2.609l2.413,2.154c.8.713,1.569,1.444,2.427,2.1a.974.974,0,0,0,.856.2,2.224,2.224,0,0,0,.746-.382,15.59,15.59,0,0,0,1.208-1.026c.77-.7,1.544-1.38,2.362-1.99a19.809,19.809,0,0,1,2.552-1.624,8.86,8.86,0,0,1,2.749-1.015,4.48,4.48,0,0,1,2.77.367,4.568,4.568,0,0,1,1.933,1.931l.046-.165a68.367,68.367,0,0,0-7.847,6.234,20.2,20.2,0,0,0-3.047,3.478,5.382,5.382,0,0,0-.531.99c-.068.173-.155.342-.206.518l-.147.524c-.18.7-.341,1.388-.491,2.064-1.194,5.413-2,10.048-2.8,13.552l0,.019,0,.014,1.234,6.478.328,1.674c.076.376.124.567.124.567s-.023-.2-.087-.574l-.293-1.681c-.268-1.489-.661-3.671-1.168-6.49v.033c.836-3.521,1.66-8.138,2.874-13.544a12.009,12.009,0,0,1,1.36-4.02,20.032,20.032,0,0,1,3.02-3.425A68.522,68.522,0,0,1,280.667,229l.1-.066-.05-.1a4.832,4.832,0,0,0-2.051-2.06,4.756,4.756,0,0,0-2.935-.4,9.129,9.129,0,0,0-2.836,1.041,20.051,20.051,0,0,0-2.589,1.644c-.828.616-1.613,1.3-2.383,2a15.418,15.418,0,0,1-1.184,1.005c-.408.3-.893.529-1.273.185-.822-.631-1.6-1.374-2.4-2.084l-2.416-2.157c-1.04-.908-2.085-1.8-3.17-2.622-.543-.411-1.1-.807-1.674-1.162a7.977,7.977,0,0,0-.9-.484,2.377,2.377,0,0,0-1.027-.254,2.728,2.728,0,0,0-1.836.888,2.467,2.467,0,0,0-.608,1.921,1.734,1.734,0,0,0,.415.945c.2.242.393.5.576.756.365.518.706,1.053,1.025,1.589l.159-.2a5.023,5.023,0,0,0-1.8-.157,2.5,2.5,0,0,0-1.625.748,2.942,2.942,0,0,0-.647,1.628c0,.285-.017.572,0,.85s.067.553.1.826l.2-.136a5.948,5.948,0,0,0-2.081-.771,2.98,2.98,0,0,0-1.116.03,2.044,2.044,0,0,0-.975.549,3.422,3.422,0,0,0-.829,1.968A10.25,10.25,0,0,0,244.8,237l.172-.125a6.176,6.176,0,0,0-2.171-.417,2.9,2.9,0,0,0-1.087.2,2.445,2.445,0,0,0-.491.266,2.166,2.166,0,0,0-.384.4,3.2,3.2,0,0,0-.494,2.047,6.178,6.178,0,0,0,.511,1.974,22.636,22.636,0,0,0,1.923,3.345,15.9,15.9,0,0,1,1.567,3.2c1.681,4.295,2.934,8,3.92,10.84l0-.019c.077,2.454.137,4.358.177,5.66q.036.957.054,1.468c.015.331.031.5.031.5" transform="translate(-80.776 -75.116)" fill="#ff9b6c"/>
            <path id="Trazado_819293" data-name="Trazado 819293" d="M260.281,232.775a122.152,122.152,0,0,0,4.608,4.191,19.945,19.945,0,0,0-4.608-4.191" transform="translate(-87.479 -78.234)" fill="#ff9b6c"/>
            <path id="Trazado_819294" data-name="Trazado 819294" d="M253.959,237.789a7.729,7.729,0,0,0,2.9,3.738c.054-.064-.725-.786-1.518-1.816s-1.306-1.959-1.381-1.922" transform="translate(-85.352 -79.92)" fill="#ff9b6c"/>
            <path id="Trazado_819295" data-name="Trazado 819295" d="M247.352,243.426a12.546,12.546,0,0,0,2.2,3.053,12.546,12.546,0,0,0-2.2-3.053" transform="translate(-83.132 -81.813)" fill="#ff9b6c"/>
          </g>
        </g>
      </g>
    </g>
  </g>
</svg>
