<svg xmlns="http://www.w3.org/2000/svg" xmlns:xlink="http://www.w3.org/1999/xlink" width="295" height="329" viewBox="0 0 295 329">
  <defs>
    <clipPath id="clip-path">
      <rect id="Rectángulo_381784" data-name="Rectángulo 381784" width="295" height="189.676" fill="none"/>
    </clipPath>
    <clipPath id="clip-path-3">
      <rect id="Rectángulo_381780" data-name="Rectángulo 381780" width="68.675" height="68.674" fill="none"/>
    </clipPath>
    <clipPath id="clip-path-4">
      <rect id="Rectángulo_381781" data-name="Rectángulo 381781" width="6.134" height="16.864" fill="none"/>
    </clipPath>
    <clipPath id="clip-path-5">
      <rect id="Rectángulo_381782" data-name="Rectángulo 381782" width="3.333" height="1.901" fill="none"/>
    </clipPath>
    <clipPath id="clip-path-6">
      <rect id="Rectángulo_381779" data-name="Rectángulo 381779" width="219.844" height="274.999" fill="none"/>
    </clipPath>
    <clipPath id="clip-path-8">
      <rect id="Rectángulo_381773" data-name="Rectángulo 381773" width="39.17" height="119.215" fill="none"/>
    </clipPath>
    <clipPath id="clip-path-9">
      <rect id="Rectángulo_381774" data-name="Rectángulo 381774" width="16.86" height="0.934" fill="none"/>
    </clipPath>
    <clipPath id="clip-path-11">
      <rect id="Rectángulo_381776" data-name="Rectángulo 381776" width="20.608" height="12.868" fill="none"/>
    </clipPath>
    <clipPath id="clip-path-12">
      <rect id="Rectángulo_381777" data-name="Rectángulo 381777" width="20.232" height="13.911" fill="none"/>
    </clipPath>
  </defs>
  <g id="Grupo_1072348" data-name="Grupo 1072348" transform="translate(-180 -9322)">
    <g id="Grupo_1071873" data-name="Grupo 1071873" transform="translate(184 9322)">
      <rect id="web-AdobeStock_200818697" width="237" height="256.958" rx="13" transform="translate(25 28)" fill="#f7f4ff"/>
      <path id="Sustracción_1" data-name="Sustracción 1" d="M116.486,0H0V.365a59.23,59.23,0,0,0,1.183,11.8A58.354,58.354,0,0,0,4.576,23.149a58.561,58.561,0,0,0,5.37,9.944,58.721,58.721,0,0,0,7.112,8.662,58.918,58.918,0,0,0,8.62,7.15A58.294,58.294,0,0,0,35.574,54.3a57.654,57.654,0,0,0,10.934,3.409,58.454,58.454,0,0,0,23.476,0A57.537,57.537,0,0,0,80.914,54.3,58.251,58.251,0,0,0,90.808,48.9a58.906,58.906,0,0,0,8.621-7.15,58.948,58.948,0,0,0,7.111-8.662,58.737,58.737,0,0,0,5.37-9.944A58.36,58.36,0,0,0,115.3,12.163a59.263,59.263,0,0,0,1.183-11.8c0-.12,0-.239,0-.355V0Z" transform="translate(287 329) rotate(180)" fill="#283859"/>
    </g>
    <g id="Grupo_1072347" data-name="Grupo 1072347" transform="translate(180 9322)">
      <g id="Grupo_1072346" data-name="Grupo 1072346" clip-path="url(#clip-path)">
        <g id="Grupo_1072345" data-name="Grupo 1072345">
          <g id="Grupo_1072344" data-name="Grupo 1072344" clip-path="url(#clip-path)">
            <path id="Trazado_819051" data-name="Trazado 819051" d="M186.765,193.2a2.5,2.5,0,0,1-.254.418l-.786,1.159c-.691,1-1.7,2.442-2.967,4.21-2.528,3.539-6.069,8.393-10.089,13.673s-7.773,9.98-10.6,13.289c-1.421,1.647-2.574,2.978-3.415,3.859l-.962,1.018a2.585,2.585,0,0,1-.353.338,2.445,2.445,0,0,1,.3-.387l.912-1.062c.808-.908,1.93-2.262,3.325-3.928,2.771-3.347,6.488-8.065,10.506-13.344s7.59-10.105,10.17-13.6l3.058-4.143.841-1.119a2.545,2.545,0,0,1,.312-.377" transform="translate(-49.219 -60.434)" fill="#8054f8"/>
            <path id="Trazado_819052" data-name="Trazado 819052" d="M227.594,73.249c.1.014-.336,3.7-.968,8.224s-1.225,8.189-1.323,8.175.336-3.7.969-8.225,1.225-8.189,1.323-8.175" transform="translate(-70.473 -22.913)" fill="#8054f8"/>
            <path id="Trazado_819053" data-name="Trazado 819053" d="M307.334,66.3a3.913,3.913,0,0,1-.458.4l-1.354,1.1L300.5,71.774l-16.629,13L267.182,97.7l-5.085,3.884-1.394,1.042a3.828,3.828,0,0,1-.5.344,3.894,3.894,0,0,1,.457-.4l1.352-1.1,5.016-3.975,16.635-13.01,16.7-12.924,5.084-3.883,1.392-1.041a3.876,3.876,0,0,1,.5-.343" transform="translate(-81.395 -20.739)" fill="#8054f8"/>
            <path id="Trazado_819054" data-name="Trazado 819054" d="M342.929,132.139c.008.1-16.832,1.5-37.608,3.121s-37.632,2.863-37.639,2.765,16.828-1.5,37.611-3.121,37.628-2.863,37.636-2.765" transform="translate(-83.735 -41.333)" fill="#8054f8"/>
            <path id="Trazado_819055" data-name="Trazado 819055" d="M295.036,184.965c-.045.088-7.187-3.467-15.949-7.939s-15.832-8.171-15.787-8.259,7.185,3.466,15.95,7.94,15.831,8.17,15.786,8.258" transform="translate(-82.364 -52.792)" fill="#8054f8"/>
            <path id="Trazado_819056" data-name="Trazado 819056" d="M171.615,88.825a3.112,3.112,0,0,1-.353-.423l-.954-1.255c-.823-1.093-2-2.688-3.437-4.669-2.879-3.959-6.8-9.473-11.017-15.635s-7.945-11.813-10.6-15.928c-1.326-2.057-2.388-3.729-3.11-4.893l-.825-1.343a3.088,3.088,0,0,1-.267-.482,3.33,3.33,0,0,1,.328.443l.882,1.307,3.2,4.83c2.7,4.078,6.46,9.7,10.679,15.864s8.1,11.695,10.928,15.691l3.344,4.734.9,1.295a3.168,3.168,0,0,1,.294.466" transform="translate(-44.124 -13.825)" fill="#8054f8"/>
            <path id="Trazado_819057" data-name="Trazado 819057" d="M162.887,123.6c-.042.089-4.721-2.027-10.449-4.726s-10.34-4.96-10.3-5.05,4.72,2.027,10.451,4.726,10.339,4.96,10.3,5.049" transform="translate(-44.463 -35.606)" fill="#8054f8"/>
            <path id="Trazado_819058" data-name="Trazado 819058" d="M136.386,143.732c-.009.1-15.787-1.236-35.236-2.98s-35.216-3.237-35.207-3.336,15.783,1.236,35.24,2.98,35.213,3.237,35.2,3.336" transform="translate(-20.628 -42.984)" fill="#8054f8"/>
            <path id="Trazado_819059" data-name="Trazado 819059" d="M157.543,174.039c.038.091-9.329,4.168-20.919,9.107s-21.022,8.87-21.062,8.779,9.326-4.168,20.921-9.108,21.021-8.868,21.06-8.777" transform="translate(-36.149 -54.441)" fill="#8054f8"/>
            <path id="Trazado_819060" data-name="Trazado 819060" d="M237.129,130.979a34.337,34.337,0,1,1-34.337-34.337,34.337,34.337,0,0,1,34.337,34.337" transform="translate(-52.695 -30.231)" fill="#8054f8"/>
            <g id="Grupo_1072337" data-name="Grupo 1072337" transform="translate(115.759 66.411)" opacity="0.8">
              <g id="Grupo_1072336" data-name="Grupo 1072336">
                <g id="Grupo_1072335" data-name="Grupo 1072335" clip-path="url(#clip-path-3)">
                  <path id="Trazado_819061" data-name="Trazado 819061" d="M237.129,130.979a34.337,34.337,0,1,1-34.337-34.337,34.337,34.337,0,0,1,34.337,34.337" transform="translate(-168.454 -96.642)" fill="#fff"/>
                </g>
              </g>
            </g>
            <path id="Trazado_819062" data-name="Trazado 819062" d="M223.087,129.521a13.639,13.639,0,1,0-14.9,17.566c.481,1.543,1.023,3.285,1.023,3.285l11.413-3.555s-.506-1.866-.992-3.519a13.635,13.635,0,0,0,3.457-13.777" transform="translate(-61.444 -37.517)" fill="#8054f8"/>
            <path id="Trazado_819063" data-name="Trazado 819063" d="M220.091,154.163s-.015-.055-.037-.165-.054-.278-.093-.486c-.078-.428-.194-1.06-.322-1.877s-.271-1.82-.364-2.992a20.212,20.212,0,0,1,.053-3.992,12.924,12.924,0,0,1,.464-2.282,2.511,2.511,0,0,1,.641-1.077,1.408,1.408,0,0,1,1.249-.345.93.93,0,0,1,.573.387.956.956,0,0,1,.154.685,1.944,1.944,0,0,1-.736,1.181,3.732,3.732,0,0,1-2.767.651,3.78,3.78,0,0,1-2.515-1.6,2.853,2.853,0,0,1-.545-1.478,1.227,1.227,0,0,1,.9-1.274.881.881,0,0,1,.805.253,1.236,1.236,0,0,1,.355.77,2.668,2.668,0,0,1-.513,1.579,4.068,4.068,0,0,1-2.761,1.826,3.544,3.544,0,0,1-3.1-1.093,2.058,2.058,0,0,1-.579-1.55,1.043,1.043,0,0,1,.392-.754,1.022,1.022,0,0,1,.825-.176,1.361,1.361,0,0,1,.728.4,2.12,2.12,0,0,1,.432.689,3.931,3.931,0,0,1,.266,1.55,4.064,4.064,0,0,1-1.156,2.756,4.14,4.14,0,0,1-2.579,1.21,2.167,2.167,0,0,1-1.366-.257,1.056,1.056,0,0,1-.462-1.232.892.892,0,0,1,.5-.468,1.288,1.288,0,0,1,.658-.073,1.975,1.975,0,0,1,1.075.645c.548.6,1.024,1.209,1.494,1.781,1.859,2.3,3.272,4.232,4.233,5.577.48.672.845,1.2,1.091,1.559l.277.41c.061.093.089.144.089.144s-.037-.044-.1-.133-.166-.23-.29-.4l-1.117-1.541c-.977-1.332-2.4-3.252-4.272-5.54-.47-.567-.957-1.176-1.495-1.766a1.846,1.846,0,0,0-1-.6.817.817,0,0,0-.594,1.519,2.025,2.025,0,0,0,1.275.23,3.986,3.986,0,0,0,2.481-1.172,3.906,3.906,0,0,0,1.106-2.651,3.775,3.775,0,0,0-.256-1.484,1.483,1.483,0,0,0-1.04-.989.859.859,0,0,0-.695.146.877.877,0,0,0-.326.638,1.9,1.9,0,0,0,.539,1.423,3.379,3.379,0,0,0,2.954,1.038,3.9,3.9,0,0,0,2.645-1.751,2.517,2.517,0,0,0,.488-1.474,1.072,1.072,0,0,0-.306-.667.716.716,0,0,0-.658-.21.96.96,0,0,0-.582.411,1.182,1.182,0,0,0-.19.7,2.707,2.707,0,0,0,.515,1.391,3.625,3.625,0,0,0,2.407,1.538,3.589,3.589,0,0,0,2.651-.614,1.8,1.8,0,0,0,.686-1.084.805.805,0,0,0-.617-.918,1.271,1.271,0,0,0-1.126.309,2.387,2.387,0,0,0-.61,1.02,12.883,12.883,0,0,0-.469,2.255,20.408,20.408,0,0,0-.078,3.971c.084,1.17.218,2.172.335,2.989s.223,1.443.291,1.88c.033.21.058.372.076.489s.021.168.021.168" transform="translate(-65.056 -43.632)" fill="#263238"/>
            <path id="Trazado_819064" data-name="Trazado 819064" d="M226.4,161.842l-9.8,3.052a.77.77,0,1,1-.458-1.471l9.8-3.052a.771.771,0,1,1,.458,1.471" transform="translate(-67.444 -50.155)" fill="#263238"/>
            <path id="Trazado_819065" data-name="Trazado 819065" d="M226.9,163.447l-9.8,3.052a.77.77,0,1,0,.458,1.471l1.075-.335,2.273,2.272a.988.988,0,0,0,.994.245l3.5-1.091a.988.988,0,0,0,.681-.776l.544-3.139.731-.228a.77.77,0,1,0-.458-1.471" transform="translate(-67.744 -51.118)" fill="#263238"/>
            <g id="Grupo_1072340" data-name="Grupo 1072340" transform="translate(136.272 86.416)" opacity="0.2">
              <g id="Grupo_1072339" data-name="Grupo 1072339">
                <g id="Grupo_1072338" data-name="Grupo 1072338" clip-path="url(#clip-path-4)">
                  <path id="Trazado_819066" data-name="Trazado 819066" d="M199.7,129.706a10.025,10.025,0,0,1,2.068-2.545,7.248,7.248,0,0,1,1.825-1.209c.477-.2.772-.244.829-.148.13.219-.748.876-1.8,2.179a11.216,11.216,0,0,0-1.606,12.037c.675,1.533,1.35,2.4,1.167,2.575-.08.078-.354-.037-.761-.36a7.234,7.234,0,0,1-1.444-1.644,10.02,10.02,0,0,1-1.328-3,10.625,10.625,0,0,1-.261-4.048" transform="translate(-198.304 -125.754)" fill="#fff"/>
                </g>
              </g>
            </g>
            <g id="Grupo_1072343" data-name="Grupo 1072343" transform="translate(143.808 84.323)" opacity="0.2">
              <g id="Grupo_1072342" data-name="Grupo 1072342">
                <g id="Grupo_1072341" data-name="Grupo 1072341" clip-path="url(#clip-path-5)">
                  <path id="Trazado_819067" data-name="Trazado 819067" d="M211.162,124.437c-.828.249-1.627.251-1.847-.16a.707.707,0,0,1,.219-.757,2.737,2.737,0,0,1,2.464-.754c.353.091.577.277.6.505" transform="translate(-209.271 -122.707)" fill="#fff"/>
                </g>
              </g>
            </g>
            <path id="Trazado_819068" data-name="Trazado 819068" d="M228.166,170.868c0,.028-.285-.008-.738,0a5.712,5.712,0,0,0-3.28,1.127c-.364.27-.563.471-.583.451a2.084,2.084,0,0,1,.51-.544,5,5,0,0,1,3.354-1.152,2.082,2.082,0,0,1,.737.116" transform="translate(-69.934 -53.412)" fill="#455a64"/>
            <path id="Trazado_819069" data-name="Trazado 819069" d="M227.656,165.972c.014.044-1.747.632-3.931,1.313s-3.969,1.2-3.982,1.152,1.746-.632,3.932-1.313,3.968-1.2,3.982-1.152" transform="translate(-68.738 -51.917)" fill="#455a64"/>
            <path id="Trazado_819070" data-name="Trazado 819070" d="M227.9,167.942a5.762,5.762,0,0,1-.935.4c-.585.224-1.4.515-2.31.813s-1.74.544-2.345.71a5.747,5.747,0,0,1-.99.23,6.471,6.471,0,0,1,.955-.344l2.327-.756,2.323-.765a6.42,6.42,0,0,1,.974-.287" transform="translate(-69.231 -52.534)" fill="#455a64"/>
            <path id="Trazado_819071" data-name="Trazado 819071" d="M136.281,17.011a1.557,1.557,0,0,1-.032-.273c-.014-.2-.034-.462-.058-.8q-.018-.266-.038-.589c-.024-.216-.071-.449-.11-.7a12.288,12.288,0,0,0-.357-1.738,16.1,16.1,0,0,0-1.876-4.463,16.731,16.731,0,0,0-20.1-7.129,15.381,15.381,0,0,0-4.227,2.276A18.906,18.906,0,0,0,107.59,5.2a18.9,18.9,0,0,0-1.635,1.936,16.161,16.161,0,0,0-2.387,4.6,17.845,17.845,0,0,0-.862,5.268,17.862,17.862,0,0,0,.86,5.271,16.2,16.2,0,0,0,2.387,4.6,19,19,0,0,0,1.636,1.936,18.823,18.823,0,0,0,1.895,1.612,17.443,17.443,0,0,0,2.049,1.317,17.458,17.458,0,0,0,2.179.959,16.775,16.775,0,0,0,20.1-7.13,16.116,16.116,0,0,0,1.876-4.463,12.386,12.386,0,0,0,.357-1.737c.038-.254.086-.488.11-.7s.027-.412.038-.589c.024-.338.043-.6.058-.8a1.557,1.557,0,0,1,.032-.273,1.56,1.56,0,0,1,0,.274c-.006.2-.014.465-.023.8q-.009.268-.021.593c-.018.218-.06.454-.093.71a11.87,11.87,0,0,1-.327,1.756,15.983,15.983,0,0,1-1.839,4.532,16.986,16.986,0,0,1-11.435,8.055,17.049,17.049,0,0,1-8.948-.717,17.743,17.743,0,0,1-2.225-.973,17.726,17.726,0,0,1-2.093-1.339,19.244,19.244,0,0,1-1.936-1.642,19.3,19.3,0,0,1-1.673-1.974,16.5,16.5,0,0,1-2.442-4.7,18.179,18.179,0,0,1-.88-5.383,18.166,18.166,0,0,1,.882-5.381,16.5,16.5,0,0,1,2.442-4.7,19.128,19.128,0,0,1,1.673-1.974,19.064,19.064,0,0,1,1.936-1.641,17.78,17.78,0,0,1,2.092-1.339,17.883,17.883,0,0,1,2.225-.972,17.054,17.054,0,0,1,8.947-.717,16.987,16.987,0,0,1,11.435,8.054,15.975,15.975,0,0,1,1.839,4.532,11.961,11.961,0,0,1,.327,1.756c.034.257.076.493.093.71s.015.414.021.593c.01.339.017.606.023.8a1.56,1.56,0,0,1,0,.273" transform="translate(-32.016 0)" fill="#8054f8"/>
            <path id="Trazado_819072" data-name="Trazado 819072" d="M127.621,19.752a8.352,8.352,0,0,0-.2-1.282,5.065,5.065,0,0,0-.59-1.392,5.223,5.223,0,0,0-6.271-2.217,4.9,4.9,0,0,0-1.317.71,5.888,5.888,0,0,0-.59.5,5.824,5.824,0,0,0-.51.6,5.181,5.181,0,0,0,0,6.151,4.739,4.739,0,0,0,1.1,1.106,4.892,4.892,0,0,0,1.317.71,5.238,5.238,0,0,0,6.271-2.217,5.052,5.052,0,0,0,.59-1.392,8.352,8.352,0,0,0,.2-1.282.34.34,0,0,1,0,.086c0,.066,0,.149,0,.252a2.381,2.381,0,0,1-.034.409,3.791,3.791,0,0,1-.1.551,4.992,4.992,0,0,1-.573,1.423,5.328,5.328,0,0,1-3.587,2.534,5.362,5.362,0,0,1-2.813-.223,5.024,5.024,0,0,1-1.358-.726,5.967,5.967,0,0,1-.609-.515,6.1,6.1,0,0,1-.526-.621,5.328,5.328,0,0,1,0-6.339,6.03,6.03,0,0,1,.526-.621,6.141,6.141,0,0,1,.609-.516,5.04,5.04,0,0,1,1.358-.726,5.359,5.359,0,0,1,2.812-.223,5.326,5.326,0,0,1,3.588,2.534,4.992,4.992,0,0,1,.573,1.423,3.791,3.791,0,0,1,.1.551,2.381,2.381,0,0,1,.034.409c0,.1,0,.186,0,.252a.341.341,0,0,1,0,.086" transform="translate(-36.591 -4.506)" fill="#263238"/>
            <path id="Trazado_819073" data-name="Trazado 819073" d="M130.044,27.787c.032-.032,1.183,1.069,2.571,2.457s2.488,2.539,2.457,2.571-1.183-1.068-2.571-2.457-2.488-2.539-2.457-2.571" transform="translate(-40.679 -8.692)" fill="#263238"/>
            <path id="Trazado_819074" data-name="Trazado 819074" d="M45.4,123.187a22.569,22.569,0,1,1-22.569-22.569A22.569,22.569,0,0,1,45.4,123.187" transform="translate(-0.081 -31.475)" fill="#fff"/>
            <path id="Trazado_819075" data-name="Trazado 819075" d="M45.316,123.119s-.019-.124-.036-.365-.041-.612-.072-1.071q-.022-.355-.049-.788c-.031-.289-.093-.6-.144-.942a16.3,16.3,0,0,0-.472-2.327,21.529,21.529,0,0,0-2.5-5.981A22.543,22.543,0,0,0,26.885,101.1a20.9,20.9,0,0,0-2.834-.326c-.484-.016-.97-.064-1.462-.056l-1.483.077c-.249.017-.5.016-.748.049l-.748.115c-.5.083-1.006.142-1.507.245a23.759,23.759,0,0,0-2.987.878,23.29,23.29,0,0,0-2.921,1.285c-.473.256-.926.555-1.395.833a11.407,11.407,0,0,0-1.351.932,25.112,25.112,0,0,0-2.541,2.16,25.36,25.36,0,0,0-2.194,2.6,21.681,21.681,0,0,0-3.2,6.169,22.2,22.2,0,0,0,0,14.131,21.671,21.671,0,0,0,3.2,6.17,25.3,25.3,0,0,0,2.194,2.6,25.283,25.283,0,0,0,2.541,2.161,11.471,11.471,0,0,0,1.352.932c.469.278.922.577,1.395.834a23.446,23.446,0,0,0,2.922,1.285,23.761,23.761,0,0,0,2.987.878c.5.1,1.009.162,1.508.245l.748.115c.249.033.5.032.748.049l1.484.077c.491.008.978-.039,1.461-.056a20.8,20.8,0,0,0,2.835-.327,22.543,22.543,0,0,0,15.155-10.55,21.555,21.555,0,0,0,2.5-5.98,16.388,16.388,0,0,0,.471-2.327c.052-.34.114-.653.144-.941s.034-.552.049-.789c.031-.459.054-.815.072-1.071s.036-.365.036-.365.006.124,0,.366-.021.614-.036,1.075c-.01.238-.02.5-.032.792s-.082.605-.128.948a16.064,16.064,0,0,1-.443,2.345,21.392,21.392,0,0,1-2.465,6.049,22.7,22.7,0,0,1-15.271,10.739,21.218,21.218,0,0,1-2.872.341c-.49.018-.983.067-1.481.06l-1.5-.074c-.252-.017-.507-.015-.759-.047l-.758-.115c-.506-.082-1.021-.141-1.53-.245A24.018,24.018,0,0,1,15,144.471a23.629,23.629,0,0,1-2.968-1.3c-.48-.26-.941-.561-1.418-.843a11.673,11.673,0,0,1-1.374-.944,25.539,25.539,0,0,1-2.582-2.19,25.756,25.756,0,0,1-2.231-2.634,22.022,22.022,0,0,1-3.257-6.266,22.521,22.521,0,0,1,0-14.355,22.028,22.028,0,0,1,3.257-6.264,25.745,25.745,0,0,1,2.231-2.633,25.532,25.532,0,0,1,2.582-2.189,11.7,11.7,0,0,1,1.373-.944c.476-.281.937-.583,1.418-.843a23.719,23.719,0,0,1,2.967-1.3,24.023,24.023,0,0,1,3.033-.883c.509-.1,1.023-.163,1.53-.245l.758-.115c.252-.032.507-.03.759-.047l1.5-.074c.5-.006.991.042,1.481.06a21.1,21.1,0,0,1,2.872.341,22.692,22.692,0,0,1,15.272,10.738,21.4,21.4,0,0,1,2.466,6.049,16.181,16.181,0,0,1,.443,2.346c.045.343.1.658.128.948s.022.555.032.793c.015.461.027.818.036,1.075s0,.366,0,.366" transform="translate(0 -31.408)" fill="#8054f8"/>
            <path id="Trazado_819076" data-name="Trazado 819076" d="M39.754,128.792A12.035,12.035,0,1,1,27.72,116.757a12.035,12.035,0,0,1,12.035,12.035" transform="translate(-4.906 -36.523)" fill="#f5f5f5"/>
            <path id="Trazado_819077" data-name="Trazado 819077" d="M39.722,128.77s-.023-.264-.053-.766a5.857,5.857,0,0,0-.1-.924,8.766,8.766,0,0,0-.249-1.242,11.486,11.486,0,0,0-1.332-3.194,11.964,11.964,0,0,0-14.377-5.115,11.223,11.223,0,0,0-3.028,1.629,13.385,13.385,0,0,0-1.357,1.153,13.567,13.567,0,0,0-1.172,1.387,11.906,11.906,0,0,0,0,14.144,13.5,13.5,0,0,0,1.172,1.387,13.482,13.482,0,0,0,1.358,1.154,11.241,11.241,0,0,0,3.028,1.629,12.023,12.023,0,0,0,6.288.522,12.034,12.034,0,0,0,8.089-5.639,11.474,11.474,0,0,0,1.332-3.193,8.67,8.67,0,0,0,.249-1.242,5.841,5.841,0,0,0,.1-.923c.03-.5.053-.766.053-.766s0,.264-.024.768a5.766,5.766,0,0,1-.087.928,8.622,8.622,0,0,1-.238,1.249,11.418,11.418,0,0,1-1.317,3.221,12.09,12.09,0,0,1-8.136,5.714,12.12,12.12,0,0,1-6.354-.514,11.372,11.372,0,0,1-3.066-1.643,13.7,13.7,0,0,1-1.374-1.166,13.81,13.81,0,0,1-1.187-1.4,12.036,12.036,0,0,1,0-14.309,13.661,13.661,0,0,1,1.187-1.4,13.613,13.613,0,0,1,1.374-1.165,11.368,11.368,0,0,1,3.065-1.643,12.125,12.125,0,0,1,6.354-.515,12.093,12.093,0,0,1,8.136,5.714,11.438,11.438,0,0,1,1.317,3.221,8.612,8.612,0,0,1,.238,1.25A5.765,5.765,0,0,1,39.7,128c.021.5.024.768.024.768" transform="translate(-4.874 -36.502)" fill="#263238"/>
            <path id="Trazado_819078" data-name="Trazado 819078" d="M29.553,122.823a6.136,6.136,0,0,1,1.936.179,7.939,7.939,0,0,1,5.932,6.2,7.993,7.993,0,0,1-.331,4.211,8.026,8.026,0,0,1-2.789,3.736,7.962,7.962,0,0,1-9.5,0,8.039,8.039,0,0,1-2.789-3.737,7.925,7.925,0,0,1,1.191-7.565,7.835,7.835,0,0,1,4.41-2.85,6.136,6.136,0,0,1,1.936-.179,15.74,15.74,0,0,0-1.9.314,7.849,7.849,0,0,0-4.244,2.87,7.694,7.694,0,0,0-1.082,7.3,7.733,7.733,0,0,0,2.687,3.567,7.643,7.643,0,0,0,9.081,0A7.74,7.74,0,0,0,36.78,133.3a7.695,7.695,0,0,0-1.082-7.3,7.848,7.848,0,0,0-4.243-2.87,15.76,15.76,0,0,0-1.9-.314" transform="translate(-6.74 -38.416)" fill="#8054f8"/>
            <path id="Trazado_819079" data-name="Trazado 819079" d="M31.992,130.624a1.219,1.219,0,0,1,.626.011,2.486,2.486,0,0,1,1.458.9,2.606,2.606,0,0,1,.414,2.492,2.649,2.649,0,0,1-5,0,2.608,2.608,0,0,1,.414-2.492,2.488,2.488,0,0,1,1.458-.9,1.219,1.219,0,0,1,.626-.011c0,.032-.222.035-.592.146a2.5,2.5,0,0,0-1.29.917,2.342,2.342,0,1,0,3.764,0,2.5,2.5,0,0,0-1.29-.917c-.37-.111-.594-.113-.592-.146" transform="translate(-9.179 -40.852)" fill="#8054f8"/>
            <path id="Trazado_819080" data-name="Trazado 819080" d="M14.539,142.942c4.157-2.9,8.665-5.773,12.822-8.672" transform="translate(-4.548 -42.002)" fill="#f5f5f5"/>
            <path id="Trazado_819081" data-name="Trazado 819081" d="M27.36,134.271c.022.033-2.831,2-6.371,4.4s-6.429,4.31-6.451,4.277,2.83-2,6.371-4.4,6.429-4.31,6.451-4.277" transform="translate(-4.548 -42.002)" fill="#263238"/>
            <path id="Trazado_819082" data-name="Trazado 819082" d="M15.24,145.6a7.81,7.81,0,0,1-1.487.018,7.827,7.827,0,0,1-1.482-.126,7.743,7.743,0,0,1,1.487-.018,7.83,7.83,0,0,1,1.482.126" transform="translate(-3.839 -45.502)" fill="#263238"/>
            <path id="Trazado_819083" data-name="Trazado 819083" d="M15.853,147.6a7.405,7.405,0,0,1,.432-2.005,3.709,3.709,0,0,1-.146,1.018,3.726,3.726,0,0,1-.286.988" transform="translate(-4.956 -45.543)" fill="#263238"/>
            <path id="Trazado_819084" data-name="Trazado 819084" d="M16.91,147.222a4.01,4.01,0,0,1,.118-1.062,4.077,4.077,0,0,1,.259-1.037,7.981,7.981,0,0,1-.377,2.1" transform="translate(-5.286 -45.396)" fill="#263238"/>
            <path id="Trazado_819085" data-name="Trazado 819085" d="M14.432,144.419a3.872,3.872,0,0,1,1.033.17,3.853,3.853,0,0,1,1,.309,3.872,3.872,0,0,1-1.033-.17,3.852,3.852,0,0,1-1-.309" transform="translate(-4.514 -45.173)" fill="#263238"/>
            <path id="Trazado_819086" data-name="Trazado 819086" d="M135,95.369a13.083,13.083,0,1,1-13.083-13.083A13.084,13.084,0,0,1,135,95.369" transform="translate(-34.044 -25.74)" fill="#fff"/>
            <path id="Trazado_819087" data-name="Trazado 819087" d="M134.918,95.305a.964.964,0,0,1-.029-.212c-.013-.159-.029-.364-.049-.62a6.528,6.528,0,0,0-.118-1,9.617,9.617,0,0,0-.28-1.345,12.513,12.513,0,0,0-1.458-3.452,12.948,12.948,0,0,0-15.548-5.5,12.149,12.149,0,0,0-3.266,1.76,11.822,11.822,0,0,0-2.728,2.743,12.85,12.85,0,0,0,0,15.257,11.843,11.843,0,0,0,2.728,2.744,12.146,12.146,0,0,0,3.267,1.761,12.982,12.982,0,0,0,15.548-5.5,12.5,12.5,0,0,0,1.458-3.452,9.617,9.617,0,0,0,.28-1.345,6.511,6.511,0,0,0,.118-1c.021-.256.036-.46.049-.62a.954.954,0,0,1,.029-.212.908.908,0,0,1,.008.212c0,.16-.008.366-.014.623a6.061,6.061,0,0,1-.085,1.012,9.178,9.178,0,0,1-.25,1.363,12.4,12.4,0,0,1-1.421,3.521,13.193,13.193,0,0,1-8.878,6.265,13.254,13.254,0,0,1-6.955-.555,12.415,12.415,0,0,1-3.358-1.8,12.124,12.124,0,0,1-2.807-2.81,13.174,13.174,0,0,1,0-15.673,12.123,12.123,0,0,1,2.807-2.81,12.428,12.428,0,0,1,3.357-1.8,13.251,13.251,0,0,1,6.954-.555,13.19,13.19,0,0,1,8.878,6.264,12.383,12.383,0,0,1,1.422,3.521,9.277,9.277,0,0,1,.25,1.364,6.059,6.059,0,0,1,.085,1.011c.005.258.01.464.014.624a.913.913,0,0,1-.008.212" transform="translate(-33.963 -25.677)" fill="#8054f8"/>
            <path id="Trazado_819088" data-name="Trazado 819088" d="M126.577,98.923A3.057,3.057,0,0,0,128.4,96.1a2.873,2.873,0,1,0-5.734-.027,3.052,3.052,0,0,0,1.827,2.855c-4.412.665-4.212,5.46-4.212,5.46l10.433.048s.238-4.847-4.135-5.508" transform="translate(-37.625 -29.099)" fill="#f5f5f5"/>
            <path id="Trazado_819089" data-name="Trazado 819089" d="M126.545,98.9a5.074,5.074,0,0,1,1.927.673,4.546,4.546,0,0,1,1.584,1.773,6.8,6.8,0,0,1,.68,3.064v.053h-.055l-10.433-.032h-.07v-.068a6.772,6.772,0,0,1,.652-2.951,4.5,4.5,0,0,1,1.512-1.78,5.446,5.446,0,0,1,2.108-.8l-.016.133a3.116,3.116,0,0,1-1.86-2.737,3.2,3.2,0,0,1,1.313-2.77,2.791,2.791,0,0,1,2.721-.277,3.037,3.037,0,0,1,1.609,1.764,3.28,3.28,0,0,1,.072,1.965,3.1,3.1,0,0,1-.716,1.291,2.851,2.851,0,0,1-.733.568,2.438,2.438,0,0,1-.293.132,3.212,3.212,0,0,0,.99-.733,3.079,3.079,0,0,0,.684-1.277,3.211,3.211,0,0,0-.089-1.915,2.944,2.944,0,0,0-1.567-1.7,2.678,2.678,0,0,0-2.608.278A3.075,3.075,0,0,0,122.7,96.22a2.983,2.983,0,0,0,1.782,2.614l.22.09-.236.044a5.308,5.308,0,0,0-2.048.78,4.351,4.351,0,0,0-1.464,1.726,6.654,6.654,0,0,0-.639,2.881l-.07-.068,10.433.064-.056.052a6.744,6.744,0,0,0-.648-3.019,4.531,4.531,0,0,0-1.539-1.761,3.929,3.929,0,0,0-.773-.393,3.032,3.032,0,0,0-.612-.2l-.509-.129" transform="translate(-37.593 -29.075)" fill="#263238"/>
            <path id="Trazado_819090" data-name="Trazado 819090" d="M97.08,201.768a22.8,22.8,0,1,1-22.8-22.8,22.8,22.8,0,0,1,22.8,22.8" transform="translate(-16.106 -55.985)" fill="#fff"/>
            <path id="Trazado_819091" data-name="Trazado 819091" d="M97,201.7s-.019-.125-.037-.369l-.072-1.082q-.022-.359-.049-.8c-.032-.291-.094-.607-.146-.952a16.692,16.692,0,0,0-.477-2.35,21.753,21.753,0,0,0-2.527-6.041,22.772,22.772,0,0,0-15.308-10.656,21.106,21.106,0,0,0-2.864-.33c-.489-.016-.981-.065-1.476-.056l-1.5.078c-.251.018-.505.016-.757.049l-.755.116c-.5.084-1.016.143-1.523.247a24.123,24.123,0,0,0-3.017.886,23.605,23.605,0,0,0-2.951,1.3c-.478.259-.936.561-1.409.842a11.565,11.565,0,0,0-1.365.941,20.7,20.7,0,0,0-4.782,4.8,21.9,21.9,0,0,0-3.234,6.231,22.423,22.423,0,0,0,0,14.274,21.918,21.918,0,0,0,3.233,6.233,20.711,20.711,0,0,0,4.784,4.805,11.421,11.421,0,0,0,1.365.941c.473.281.931.583,1.409.842a23.715,23.715,0,0,0,2.951,1.3,24.14,24.14,0,0,0,3.018.886c.506.1,1.019.164,1.523.247l.755.116c.252.034.506.032.757.049l1.5.078c.5.008.988-.04,1.477-.056a20.984,20.984,0,0,0,2.863-.331A22.771,22.771,0,0,0,93.691,213.29a21.725,21.725,0,0,0,2.527-6.04,16.5,16.5,0,0,0,.477-2.35c.052-.344.115-.66.146-.952s.034-.557.049-.8l.072-1.081c.019-.244.037-.369.037-.369s.006.125,0,.37-.021.619-.036,1.085q-.014.361-.032.8c-.025.293-.082.612-.129.957a16.256,16.256,0,0,1-.447,2.369,21.616,21.616,0,0,1-2.49,6.109,22.919,22.919,0,0,1-15.425,10.847,21.419,21.419,0,0,1-2.9.344c-.495.019-.993.067-1.5.061l-1.519-.074c-.255-.017-.512-.015-.767-.048l-.766-.116c-.511-.083-1.031-.142-1.545-.247a24.284,24.284,0,0,1-3.064-.892,23.9,23.9,0,0,1-3-1.312c-.485-.262-.951-.568-1.431-.851a11.942,11.942,0,0,1-1.387-.953,21.035,21.035,0,0,1-4.863-4.873,22.237,22.237,0,0,1-3.289-6.329,22.741,22.741,0,0,1,0-14.5,22.214,22.214,0,0,1,3.289-6.326,20.988,20.988,0,0,1,4.861-4.871,11.763,11.763,0,0,1,1.387-.952c.48-.285.946-.59,1.431-.852a23.985,23.985,0,0,1,3-1.311,24.274,24.274,0,0,1,3.063-.892c.514-.105,1.034-.164,1.545-.247l.766-.116c.255-.033.512-.031.767-.048l1.519-.074c.5-.006,1,.043,1.5.061a21.3,21.3,0,0,1,2.9.344,22.916,22.916,0,0,1,15.425,10.845,21.622,21.622,0,0,1,2.491,6.11,16.256,16.256,0,0,1,.447,2.369c.047.346.1.664.129.957s.023.561.032.8c.016.467.028.827.036,1.086s0,.37,0,.37" transform="translate(-16.025 -55.918)" fill="#8054f8"/>
            <path id="Trazado_819092" data-name="Trazado 819092" d="M66.981,205.667a12.114,12.114,0,1,1,11.295,12.882,12.115,12.115,0,0,1-11.295-12.882" transform="translate(-20.944 -60.794)" fill="#f5f5f5"/>
            <path id="Trazado_819093" data-name="Trazado 819093" d="M66.969,205.619a1.023,1.023,0,0,1,.012.2c0,.144,0,.335.005.576v.423c.008.156.03.326.047.509a8.912,8.912,0,0,0,.175,1.261,11.59,11.59,0,0,0,1.136,3.283,12,12,0,0,0,14.05,6.042,10.988,10.988,0,0,0,3.13-1.43,10.924,10.924,0,0,0,2.692-2.373,11.6,11.6,0,0,0,1.923-3.18,11.874,11.874,0,0,0,.5-7.54,11.611,11.611,0,0,0-1.491-3.4,13.607,13.607,0,0,0-1.08-1.462,13.446,13.446,0,0,0-1.28-1.242,11.009,11.009,0,0,0-2.917-1.828,12.035,12.035,0,0,0-14.72,4.154,11.564,11.564,0,0,0-1.554,3.106,8.786,8.786,0,0,0-.338,1.227c-.041.18-.085.345-.113.5s-.039.293-.056.42c-.034.239-.06.427-.081.57a1.043,1.043,0,0,1-.037.194,1.008,1.008,0,0,1,.008-.2c.013-.144.031-.334.053-.574q.019-.193.043-.425c.023-.155.064-.322.1-.5a8.559,8.559,0,0,1,.315-1.244,11.487,11.487,0,0,1,1.529-3.162,12.2,12.2,0,0,1,8.574-5.238,12.25,12.25,0,0,1,6.382.935,11.27,11.27,0,0,1,2.988,1.86,11.2,11.2,0,0,1,2.418,2.762,11.857,11.857,0,0,1,1.53,3.483,12.127,12.127,0,0,1-.508,7.718,11.863,11.863,0,0,1-1.972,3.252,13.831,13.831,0,0,1-1.293,1.336,13.609,13.609,0,0,1-1.466,1.086,11.252,11.252,0,0,1-3.2,1.453,12.251,12.251,0,0,1-6.449.092,12.2,12.2,0,0,1-7.815-6.314,11.461,11.461,0,0,1-1.1-3.335,8.59,8.59,0,0,1-.15-1.275c-.012-.186-.03-.356-.033-.513s.009-.3.013-.426c.01-.242.017-.433.023-.577a.978.978,0,0,1,.017-.2" transform="translate(-20.932 -60.747)" fill="#263238"/>
            <path id="Trazado_819094" data-name="Trazado 819094" d="M90.018,209.268a2.509,2.509,0,0,1-.428.028l-1.177.024c-1,.014-2.391.023-3.962.025h-.078v-.078c0-.252,0-.517,0-.785,0-1.755.008-3.343.023-4.494.01-.554.019-1.013.025-1.361a3.029,3.029,0,0,1,.031-.5,3.093,3.093,0,0,1,.03.5c.007.348.015.807.025,1.361.014,1.15.023,2.738.023,4.494,0,.269,0,.534,0,.785l-.078-.078c1.571,0,2.963.012,3.962.025l1.177.024a2.337,2.337,0,0,1,.428.028" transform="translate(-26.393 -63.228)" fill="#263238"/>
            <path id="Trazado_819095" data-name="Trazado 819095" d="M84.5,197.242a6.649,6.649,0,0,1,0,2.035,6.65,6.65,0,0,1,0-2.035" transform="translate(-26.409 -61.7)" fill="#263238"/>
            <path id="Trazado_819096" data-name="Trazado 819096" d="M91.925,199.62a6.43,6.43,0,0,1-1.418,1.418,3.269,3.269,0,0,1,.654-.765,3.31,3.31,0,0,1,.765-.654" transform="translate(-28.311 -62.443)" fill="#263238"/>
            <path id="Trazado_819097" data-name="Trazado 819097" d="M96.487,204.749a4.186,4.186,0,0,1-.835.557,4.238,4.238,0,0,1-.879.484,4.463,4.463,0,0,1,1.714-1.042" transform="translate(-29.646 -64.047)" fill="#263238"/>
            <path id="Trazado_819098" data-name="Trazado 819098" d="M98.758,212.329a12.331,12.331,0,0,1-2.776,0,12.331,12.331,0,0,1,2.776,0" transform="translate(-30.025 -66.395)" fill="#263238"/>
            <path id="Trazado_819099" data-name="Trazado 819099" d="M70.827,212.059a11,11,0,0,1-2.621,0,11,11,0,0,1,2.621,0" transform="translate(-21.336 -66.311)" fill="#263238"/>
            <path id="Trazado_819100" data-name="Trazado 819100" d="M73.053,217.763a11.432,11.432,0,0,1-2.079,1.675,11.432,11.432,0,0,1,2.079-1.675" transform="translate(-22.201 -68.119)" fill="#263238"/>
            <path id="Trazado_819101" data-name="Trazado 819101" d="M78.252,222.147a8.883,8.883,0,0,1-.674,1.168,8.778,8.778,0,0,1-.715,1.143,6.943,6.943,0,0,1,1.389-2.312" transform="translate(-24.042 -69.49)" fill="#263238"/>
            <path id="Trazado_819102" data-name="Trazado 819102" d="M84.5,226.538a12.333,12.333,0,0,1,0-2.776,12.33,12.33,0,0,1,0,2.776" transform="translate(-26.409 -69.996)" fill="#263238"/>
            <path id="Trazado_819103" data-name="Trazado 819103" d="M92.3,224.285a5.983,5.983,0,0,1-2.077-1.81,12.734,12.734,0,0,1,1.036.908,12.685,12.685,0,0,1,1.041.9" transform="translate(-28.222 -69.593)" fill="#263238"/>
            <path id="Trazado_819104" data-name="Trazado 819104" d="M96.541,219.924a9.569,9.569,0,0,1-1.727-1.727,9.568,9.568,0,0,1,1.727,1.727" transform="translate(-29.659 -68.255)" fill="#263238"/>
            <path id="Trazado_819105" data-name="Trazado 819105" d="M73.126,205.977a3.673,3.673,0,0,1-.811-.7,3.719,3.719,0,0,1-.7-.811,7.336,7.336,0,0,1,1.511,1.511" transform="translate(-22.402 -63.959)" fill="#263238"/>
            <path id="Trazado_819106" data-name="Trazado 819106" d="M78.18,200.682a7.04,7.04,0,0,1-1.484-1.477,7.042,7.042,0,0,1,1.484,1.477" transform="translate(-23.991 -62.313)" fill="#263238"/>
            <path id="Trazado_819107" data-name="Trazado 819107" d="M154.508,256.109a17.443,17.443,0,0,0-.389-2.492,9.873,9.873,0,0,0-1.15-2.705,10.2,10.2,0,0,0-2.6-2.872,10.121,10.121,0,0,0-9.588-1.429,10.132,10.132,0,0,0-4.691,3.527,10.061,10.061,0,0,0,0,11.943,10.146,10.146,0,0,0,4.691,3.528,10.182,10.182,0,0,0,12.185-4.3,9.826,9.826,0,0,0,1.15-2.7,17.458,17.458,0,0,0,.389-2.492.567.567,0,0,1,.01.167c0,.131,0,.293-.007.49a4.67,4.67,0,0,1-.063.8,7.206,7.206,0,0,1-.194,1.073,9.694,9.694,0,0,1-1.113,2.773,10.372,10.372,0,0,1-6.987,4.942,10.434,10.434,0,0,1-5.482-.433,10.438,10.438,0,0,1-4.862-3.63,10.383,10.383,0,0,1,0-12.358,10.436,10.436,0,0,1,4.861-3.63,10.439,10.439,0,0,1,5.481-.434,10.376,10.376,0,0,1,6.988,4.942,9.722,9.722,0,0,1,1.113,2.773,7.214,7.214,0,0,1,.194,1.074,4.667,4.667,0,0,1,.063.8c0,.2.005.359.007.491a.567.567,0,0,1-.01.167" transform="translate(-41.846 -76.855)" fill="#8054f8"/>
            <path id="Trazado_819108" data-name="Trazado 819108" d="M149.04,261.144a1.633,1.633,0,0,0-1.368.781c-.371-.285-.832-.619-1.345-.968q-.424-.288-.808-.532a1.665,1.665,0,0,0,.224-2.13c.31-.216.657-.47,1.025-.755.324-.252.622-.493.886-.717a1.812,1.812,0,1,0-.185-.372c-.3.21-.632.454-.983.726-.376.291-.717.57-1.007.821a1.667,1.667,0,1,0-1.118,2.9,1.643,1.643,0,0,0,.79-.208c.278.2.588.423.919.648.53.36,1.024.674,1.433.918a1.947,1.947,0,0,0-.13.706,1.676,1.676,0,1,0,1.667-1.819" transform="translate(-44.635 -79.521)" fill="#f5f5f5"/>
            <path id="Trazado_819109" data-name="Trazado 819109" d="M149.009,261.113a1.228,1.228,0,0,1,.626.113,1.8,1.8,0,0,1,1.056,1.4,1.969,1.969,0,0,1-.222,1.273,1.706,1.706,0,0,1-1.233.876,1.661,1.661,0,0,1-1.569-.678,2.008,2.008,0,0,1-.25-1.895l.025.072c-.747-.475-1.556-.978-2.36-1.564l.069,0a1.714,1.714,0,0,1-1.706-.025,1.736,1.736,0,1,1,2.052-2.778H145.4l.983-.8,1.013-.75-.026.083a1.731,1.731,0,0,1,1.155-2.266,1.736,1.736,0,1,1-.952,2.647l.087.012c-.664.552-1.309,1.034-1.918,1.47l.013-.073a1.719,1.719,0,0,1-.237,2.191l-.007-.068c.9.579,1.6,1.118,2.147,1.513l-.041.008a1.689,1.689,0,0,1,.968-.722,1.164,1.164,0,0,1,.423-.045,2.3,2.3,0,0,0-.414.073,1.678,1.678,0,0,0-.929.724l-.016.025-.025-.018c-.557-.386-1.253-.914-2.159-1.484l-.048-.03.041-.038a1.626,1.626,0,0,0,.21-2.07l-.029-.042.043-.031c.6-.438,1.243-.921,1.9-1.474l.052-.043.036.055a1.6,1.6,0,1,0,.893-2.444,1.6,1.6,0,0,0-.979.8,1.579,1.579,0,0,0-.08,1.284l.019.049-.045.033-1.007.746-.977.8-.05.041-.045-.042a1.6,1.6,0,1,0-.311,2.582l.035-.02.034.025c.8.587,1.6,1.091,2.344,1.567l.043.027-.018.045a1.9,1.9,0,0,0,.227,1.788,1.561,1.561,0,0,0,1.468.647,1.619,1.619,0,0,0,1.174-.822,1.9,1.9,0,0,0,.227-1.223,1.774,1.774,0,0,0-1-1.379,1.854,1.854,0,0,0-.612-.146" transform="translate(-44.604 -79.49)" fill="#263238"/>
            <path id="Trazado_819110" data-name="Trazado 819110" d="M352.335,198.971s-.019-.13-.038-.383-.043-.64-.074-1.124q-.023-.373-.051-.828c-.032-.3-.1-.632-.151-.989a17.19,17.19,0,0,0-.494-2.442,22.6,22.6,0,0,0-2.626-6.278,23.66,23.66,0,0,0-15.908-11.075,21.851,21.851,0,0,0-2.976-.344c-.507-.017-1.018-.067-1.534-.059l-1.557.081c-.26.019-.524.016-.785.052l-.785.12c-.524.087-1.056.148-1.583.258a24.95,24.95,0,0,0-3.136.921,24.565,24.565,0,0,0-3.067,1.349c-.5.269-.972.583-1.464.875a12.016,12.016,0,0,0-1.418.978,21.481,21.481,0,0,0-4.971,4.992,22.782,22.782,0,0,0-3.36,6.477,23.3,23.3,0,0,0,0,14.836,22.782,22.782,0,0,0,3.361,6.478,21.544,21.544,0,0,0,4.971,4.994,11.97,11.97,0,0,0,1.419.978c.492.292.968.606,1.464.875a25.724,25.724,0,0,0,6.2,2.27c.526.109,1.059.17,1.583.258l.785.121c.261.034.525.032.786.051l1.557.08c.515.008,1.027-.041,1.534-.058a21.966,21.966,0,0,0,2.976-.344A23.664,23.664,0,0,0,348.9,211.014a22.583,22.583,0,0,0,2.625-6.277,17.19,17.19,0,0,0,.494-2.442c.054-.357.119-.686.151-.989s.036-.579.051-.827c.032-.483.056-.857.074-1.124s.038-.383.038-.383.005.13,0,.384-.022.643-.039,1.128q-.014.374-.033.831c-.027.3-.087.635-.135.994a16.9,16.9,0,0,1-.465,2.462,22.442,22.442,0,0,1-2.588,6.346,23.815,23.815,0,0,1-16.024,11.266,22.151,22.151,0,0,1-3.013.357c-.514.019-1.032.07-1.554.063l-1.578-.077c-.264-.018-.532-.016-.8-.05l-.8-.12c-.53-.087-1.071-.148-1.6-.258a25.981,25.981,0,0,1-6.3-2.289c-.5-.272-.988-.59-1.487-.885a12.236,12.236,0,0,1-1.442-.99,21.833,21.833,0,0,1-5.05-5.062,23.074,23.074,0,0,1-3.416-6.574,23.627,23.627,0,0,1,0-15.06,23.085,23.085,0,0,1,3.416-6.572,21.845,21.845,0,0,1,5.05-5.06,12.178,12.178,0,0,1,1.441-.99c.5-.3.983-.612,1.486-.885a24.851,24.851,0,0,1,3.114-1.362,25.166,25.166,0,0,1,3.182-.926c.534-.109,1.074-.171,1.6-.258l.8-.12c.265-.034.532-.032.8-.05l1.578-.077c.522-.007,1.04.044,1.554.063a22.148,22.148,0,0,1,3.013.357,23.812,23.812,0,0,1,16.025,11.265,22.454,22.454,0,0,1,2.589,6.346,16.919,16.919,0,0,1,.465,2.462c.048.359.108.69.135,1s.023.582.033.832c.017.485.03.86.039,1.128s0,.384,0,.384" transform="translate(-95.341 -54.786)" fill="#8054f8"/>
            <path id="Trazado_819111" data-name="Trazado 819111" d="M348.3,216.311a3.011,3.011,0,0,1-.523.034l-1.5.032-5.515.055-18.195.05H321.1v-.171c.021-6.8.039-12.891.053-17.329.022-2.176.041-3.944.054-5.206.013-.588.023-1.057.031-1.411a2.711,2.711,0,0,1,.034-.491,2.7,2.7,0,0,1,.034.491c.008.355.019.823.032,1.411.012,1.262.031,3.03.053,5.206.014,4.438.032,10.533.054,17.329l-.172-.171h1.3l18.195.05,5.515.055,1.5.032a3.013,3.013,0,0,1,.523.034" transform="translate(-100.444 -60.021)" fill="#263238"/>
            <path id="Trazado_819112" data-name="Trazado 819112" d="M346.521,200.5a6.989,6.989,0,0,1-.807.77l-2.281,2c-1.936,1.68-4.628,3.983-7.613,6.51l-.452.383-.116.1-.111-.1-3.385-3.147.211,0-4.972,4.1-1.442,1.154a3.189,3.189,0,0,1-.539.385,3.152,3.152,0,0,1,.472-.465l1.385-1.224,4.892-4.2.107-.091.1.1,3.4,3.129-.227,0,.451-.383c2.986-2.527,5.7-4.8,7.677-6.433l2.353-1.92a6.909,6.909,0,0,1,.893-.669" transform="translate(-101.668 -62.719)" fill="#263238"/>
            <path id="Trazado_819113" data-name="Trazado 819113" d="M353.408,206.026a8.486,8.486,0,0,1-.119-1.686c-.03-1.045-.05-2.494-.053-4.109l.172.171h-.292c-1.682,0-3.2-.019-4.305-.05a9.191,9.191,0,0,1-1.783-.122,9.234,9.234,0,0,1,1.783-.121c1.1-.032,2.624-.05,4.305-.05h.464v.172c0,1.614-.023,3.063-.053,4.109a8.481,8.481,0,0,1-.119,1.686" transform="translate(-108.555 -62.581)" fill="#263238"/>
            <path id="Trazado_819114" data-name="Trazado 819114" d="M412.952,123.178a1.777,1.777,0,0,1-.033-.289c-.014-.208-.035-.488-.06-.847-.012-.188-.025-.4-.04-.623s-.075-.476-.116-.744a13.011,13.011,0,0,0-.376-1.838,17.049,17.049,0,0,0-1.983-4.722,17.7,17.7,0,0,0-21.257-7.543,16.263,16.263,0,0,0-4.472,2.407,16.137,16.137,0,0,0-3.735,3.753,17.135,17.135,0,0,0-2.525,4.868,17.513,17.513,0,0,0,0,11.149,17.119,17.119,0,0,0,2.525,4.869,16.164,16.164,0,0,0,3.736,3.754,16.231,16.231,0,0,0,4.472,2.408,17.741,17.741,0,0,0,21.257-7.544,17.045,17.045,0,0,0,1.983-4.721,13.011,13.011,0,0,0,.376-1.838c.041-.269.091-.515.116-.744s.028-.436.04-.623c.025-.358.046-.638.06-.846a1.762,1.762,0,0,1,.033-.289,1.675,1.675,0,0,1,0,.289c-.005.208-.014.49-.025.85q-.01.283-.023.627c-.019.23-.063.479-.1.75a12.617,12.617,0,0,1-.347,1.857,16.891,16.891,0,0,1-1.945,4.789,17.956,17.956,0,0,1-12.087,8.511,18.02,18.02,0,0,1-9.456-.759,16.544,16.544,0,0,1-4.563-2.443,16.451,16.451,0,0,1-3.815-3.821,17.422,17.422,0,0,1-2.58-4.964,17.832,17.832,0,0,1,0-11.374,17.424,17.424,0,0,1,2.58-4.963,16.495,16.495,0,0,1,3.814-3.82,16.526,16.526,0,0,1,4.562-2.442,18.016,18.016,0,0,1,9.455-.759,17.96,17.96,0,0,1,12.087,8.509,16.907,16.907,0,0,1,1.945,4.79,12.727,12.727,0,0,1,.347,1.857c.036.271.08.521.1.75s.016.438.023.627c.01.36.019.642.025.85a1.68,1.68,0,0,1,0,.289" transform="translate(-117.958 -32.908)" fill="#8054f8"/>
            <path id="Trazado_819115" data-name="Trazado 819115" d="M399.648,117.326l2.387,4.835a.62.62,0,0,0,.467.339l5.336.775a.62.62,0,0,1,.344,1.058L404.32,128.1a.62.62,0,0,0-.179.549l.912,5.314a.621.621,0,0,1-.9.654l-4.772-2.509a.617.617,0,0,0-.577,0l-4.772,2.509a.62.62,0,0,1-.9-.654l.911-5.314a.622.622,0,0,0-.178-.549L390,124.333a.62.62,0,0,1,.344-1.058l5.336-.775a.623.623,0,0,0,.467-.339l2.386-4.835a.62.62,0,0,1,1.113,0" transform="translate(-121.939 -36.593)" fill="#fafafa"/>
            <path id="Trazado_819116" data-name="Trazado 819116" d="M399.6,117.313c-.008,0-.028-.05-.1-.128a.6.6,0,0,0-1,.194l-.465.968L396.751,121l-.389.8-.208.423a.7.7,0,0,1-.414.331c-.663.113-1.328.2-2.047.314l-2.242.334-1.183.179a.515.515,0,0,0-.281.82l3.878,3.769a.769.769,0,0,1,.235.76q-.061.358-.122.719-.123.723-.248,1.462-.252,1.477-.514,3.014a.5.5,0,0,0,.217.548.472.472,0,0,0,.3.075.784.784,0,0,0,.318-.122l1.414-.744,2.887-1.519.37-.194a.748.748,0,0,1,.485-.058,1.809,1.809,0,0,1,.4.182l.362.19,1.434.755,2.8,1.469a.486.486,0,0,0,.562-.125.47.47,0,0,0,.122-.273,1.443,1.443,0,0,0-.04-.346q-.128-.755-.254-1.493-.25-1.477-.491-2.89-.06-.354-.119-.7a.766.766,0,0,1,.267-.73l.987-.959,1.888-1.832.9-.871a.523.523,0,0,0-.067-.859,1.861,1.861,0,0,0-.533-.115l-.567-.085-1.1-.164-2.037-.305-.937-.141c-.156-.028-.289-.034-.458-.08a.7.7,0,0,1-.375-.3l-1.288-2.653-.8-1.678-.2-.44a.737.737,0,0,1-.061-.153.76.76,0,0,1,.085.142l.225.428.845,1.656c.365.725.808,1.6,1.321,2.622a.544.544,0,0,0,.3.231c.119.033.289.045.434.069l.939.131,2.039.287,1.1.155.568.08a1.939,1.939,0,0,1,.6.134.718.718,0,0,1,.366.558.735.735,0,0,1-.251.627l-.893.875-1.879,1.842-.983.963a.523.523,0,0,0-.2.522q.06.348.122.7.244,1.41.5,2.889.128.739.258,1.493a1.6,1.6,0,0,1,.043.414.722.722,0,0,1-.186.418.742.742,0,0,1-.852.189l-2.816-1.473-1.435-.754-.362-.19a1.672,1.672,0,0,0-.339-.157.483.483,0,0,0-.316.038l-.361.189-2.888,1.518-1.414.742a1.037,1.037,0,0,1-.418.15.733.733,0,0,1-.453-.114.755.755,0,0,1-.332-.808q.265-1.536.52-3.013l.252-1.461q.063-.362.124-.719a.521.521,0,0,0-.164-.547l-3.878-3.8a.724.724,0,0,1-.117-.7.712.712,0,0,1,.518-.462l1.2-.175,2.244-.318,2.027-.291a.538.538,0,0,0,.32-.25l.208-.413.4-.8,1.322-2.628.486-.957a.654.654,0,0,1,.658-.4.613.613,0,0,1,.431.224.383.383,0,0,1,.082.145" transform="translate(-121.891 -36.581)" fill="#263238"/>
            <path id="Trazado_819117" data-name="Trazado 819117" d="M347.936,45.584a.956.956,0,0,1-.029-.212c-.013-.159-.029-.364-.049-.62a6.458,6.458,0,0,0-.119-1,9.51,9.51,0,0,0-.28-1.345A12.5,12.5,0,0,0,346,38.955a12.947,12.947,0,0,0-15.548-5.5,12.132,12.132,0,0,0-3.266,1.761,11.8,11.8,0,0,0-2.728,2.743,12.85,12.85,0,0,0,0,15.257,11.806,11.806,0,0,0,2.728,2.744,12.146,12.146,0,0,0,3.267,1.761A12.98,12.98,0,0,0,346,52.213a12.5,12.5,0,0,0,1.458-3.452,9.6,9.6,0,0,0,.28-1.345,6.516,6.516,0,0,0,.118-1c.021-.256.036-.46.049-.62a.107.107,0,1,1,.036,0c0,.16-.008.366-.014.623a6.063,6.063,0,0,1-.085,1.012,9.184,9.184,0,0,1-.25,1.363,12.4,12.4,0,0,1-1.421,3.521,13.193,13.193,0,0,1-8.878,6.265,13.253,13.253,0,0,1-6.955-.555,12.431,12.431,0,0,1-3.358-1.8,12.147,12.147,0,0,1-2.807-2.811,13.174,13.174,0,0,1,0-15.673,12.124,12.124,0,0,1,2.807-2.81,12.428,12.428,0,0,1,3.357-1.8,13.25,13.25,0,0,1,6.954-.555,13.188,13.188,0,0,1,8.878,6.265,12.372,12.372,0,0,1,1.422,3.52,9.283,9.283,0,0,1,.25,1.364,6.061,6.061,0,0,1,.085,1.011c.005.258.01.464.014.624a.954.954,0,0,1-.008.212" transform="translate(-100.598 -10.123)" fill="#8054f8"/>
            <path id="Trazado_819118" data-name="Trazado 819118" d="M343.913,46.592a5.967,5.967,0,1,0-11.11,3.014h0l.017.023c.229.386.515.661.8,1.066l3.465,4.589a1.077,1.077,0,0,0,1.719,0l3.407-4.513a12.939,12.939,0,0,0,.867-1.148l.012-.016h0a5.928,5.928,0,0,0,.824-3.014m-5.967,2.6a2.626,2.626,0,1,1,2.626-2.626,2.626,2.626,0,0,1-2.626,2.626" transform="translate(-103.848 -12.708)" fill="#f5f5f5"/>
            <path id="Trazado_819119" data-name="Trazado 819119" d="M339.44,50.665a6.2,6.2,0,0,0,.634-.109,2.618,2.618,0,0,0,1.413-.959,2.563,2.563,0,1,0-4.094,0,2.618,2.618,0,0,0,1.413.959,6.2,6.2,0,0,0,.634.109,2.013,2.013,0,0,1-.648-.055,2.619,2.619,0,0,1-1.48-.951,2.673,2.673,0,0,1-.4-2.536,2.685,2.685,0,0,1,5.056,0,2.671,2.671,0,0,1-.4,2.536,2.617,2.617,0,0,1-1.48.952,2.014,2.014,0,0,1-.648.055" transform="translate(-105.341 -14.184)" fill="#263238"/>
            <path id="Trazado_819120" data-name="Trazado 819120" d="M343.881,46.566a4.334,4.334,0,0,1-.038.827,5.892,5.892,0,0,1-.752,2.206l-.033-.057h.078l-.045.061-.012.016,0,0c-1.051,1.4-2.446,3.263-4.087,5.452a1.353,1.353,0,0,1-.845.656,1.149,1.149,0,0,1-1.06-.324c-.468-.592-.913-1.2-1.392-1.826l-2.973-3.935,0,.007-.017-.023-.086-.115h.146l-.06.108a6.313,6.313,0,0,1-.526-1.157,6.015,6.015,0,0,1,6-7.912,6.1,6.1,0,0,1,2.909.916,5.96,5.96,0,0,1,2.591,3.494,4.359,4.359,0,0,1,.139.682,2.913,2.913,0,0,1,.051.507c.01.276.009.42.009.42a8.378,8.378,0,0,0-.254-1.594,5.939,5.939,0,0,0-2.589-3.423,6.022,6.022,0,0,0-2.861-.884,5.9,5.9,0,0,0-5.858,7.748,6.155,6.155,0,0,0,.513,1.13l.063.107h-.127l.058-.114.016.022.005.007c1.025,1.36,2.016,2.675,2.96,3.926q.707.934,1.377,1.818a1.02,1.02,0,0,0,.939.291,1.235,1.235,0,0,0,.773-.606l4.118-5.417,0,0,.012-.016.031.061h-.069l.034-.057a6.054,6.054,0,0,0,.779-2.173c.04-.266.054-.472.063-.611s.015-.211.015-.211" transform="translate(-103.816 -12.682)" fill="#263238"/>
            <path id="Trazado_819121" data-name="Trazado 819121" d="M246.33,29.447s-.019-.126-.037-.374-.042-.625-.074-1.1q-.022-.364-.049-.807c-.032-.3-.1-.616-.148-.964a16.708,16.708,0,0,0-.483-2.382,22.028,22.028,0,0,0-2.561-6.122A23.073,23.073,0,0,0,227.465,6.9a21.447,21.447,0,0,0-2.9-.335c-.495-.016-.994-.065-1.5-.057l-1.518.079c-.255.018-.512.016-.767.05l-.765.118c-.511.085-1.03.145-1.543.251a24.314,24.314,0,0,0-3.058.9,23.889,23.889,0,0,0-2.991,1.315c-.484.263-.948.569-1.428.853a11.593,11.593,0,0,0-1.383.954,25.716,25.716,0,0,0-2.6,2.211,26.082,26.082,0,0,0-2.246,2.657,22.223,22.223,0,0,0-3.277,6.316,24.5,24.5,0,0,0-1.183,7.232,24.519,24.519,0,0,0,1.181,7.235A22.209,22.209,0,0,0,204.765,43a26.02,26.02,0,0,0,2.246,2.658,25.878,25.878,0,0,0,2.6,2.211A11.662,11.662,0,0,0,211,48.82c.48.284.944.59,1.428.853a24,24,0,0,0,2.991,1.315,24.4,24.4,0,0,0,3.059.9c.513.107,1.033.166,1.543.251l.765.118c.255.034.512.032.767.049l1.519.079c.5.008,1-.041,1.5-.057a21.334,21.334,0,0,0,2.9-.335,23.073,23.073,0,0,0,15.513-10.8,22.024,22.024,0,0,0,2.561-6.121,16.776,16.776,0,0,0,.482-2.382c.052-.348.116-.669.148-.964s.034-.565.049-.807q.047-.706.074-1.1c.019-.247.037-.374.037-.374s.006.126,0,.375-.021.627-.038,1.1q-.014.365-.032.812c-.026.3-.084.619-.131.97a16.408,16.408,0,0,1-.453,2.4,21.886,21.886,0,0,1-2.524,6.19,23.226,23.226,0,0,1-15.63,10.99,21.532,21.532,0,0,1-2.939.348c-.5.019-1.007.069-1.516.063l-1.539-.076c-.258-.017-.52-.015-.777-.049l-.777-.118c-.517-.084-1.045-.144-1.565-.251a24.581,24.581,0,0,1-3.1-.9,24.288,24.288,0,0,1-3.037-1.329c-.491-.266-.963-.575-1.451-.863a12.007,12.007,0,0,1-1.406-.966,26.137,26.137,0,0,1-2.642-2.241,26.235,26.235,0,0,1-2.284-2.7,22.514,22.514,0,0,1-3.332-6.413,24.821,24.821,0,0,1-1.2-7.347,24.8,24.8,0,0,1,1.2-7.345,22.52,22.52,0,0,1,3.332-6.411,26.382,26.382,0,0,1,2.284-2.7,26.139,26.139,0,0,1,2.643-2.24,11.909,11.909,0,0,1,1.405-.965c.487-.288.959-.6,1.451-.863A24.28,24.28,0,0,1,215.3,7.6a24.571,24.571,0,0,1,3.1-.9c.521-.107,1.048-.166,1.565-.251l.777-.118c.258-.034.519-.032.777-.049l1.539-.076c.509-.006,1.014.043,1.515.063a21.532,21.532,0,0,1,2.939.348A23.227,23.227,0,0,1,243.15,17.6a21.9,21.9,0,0,1,2.525,6.19,16.491,16.491,0,0,1,.453,2.4c.047.35.105.673.131.97s.023.568.032.811c.017.473.029.838.038,1.1s0,.375,0,.375" transform="translate(-62.547 -1.939)" fill="#8054f8"/>
            <path id="Trazado_819122" data-name="Trazado 819122" d="M230.546,33.141a.894.894,0,0,1,.293-.063,3.562,3.562,0,0,1,.86-.019,4.629,4.629,0,0,1,2.85,1.31,4.782,4.782,0,0,1-.023,6.851,4.791,4.791,0,0,1-5.662.769,4.784,4.784,0,0,1-1.849-6.6,4.629,4.629,0,0,1,2.4-2.022,3.577,3.577,0,0,1,.834-.211.877.877,0,0,1,.3-.018c.008.04-.407.08-1.078.364a4.639,4.639,0,0,0-2.222,2.018,4.526,4.526,0,0,0-.036,4.3,4.437,4.437,0,0,0,1.83,1.842,4.457,4.457,0,0,0,5.23-.71,4.438,4.438,0,0,0,1.273-2.263,4.526,4.526,0,0,0-1.181-4.137,4.642,4.642,0,0,0-2.679-1.352c-.723-.095-1.133-.023-1.137-.064" transform="translate(-70.811 -10.336)" fill="#263238"/>
            <path id="Trazado_819123" data-name="Trazado 819123" d="M228.382,23.361a.69.69,0,0,1-.069-.146c-.048-.119-.109-.269-.187-.458l-.717-1.828.064.038-4.29.618.082-.086c-.065.792-.137,1.67-.215,2.609l-.005.066-.062.026a10.622,10.622,0,0,0-2.408,1.419l-.058.046-.069-.031-2.388-1.078.161-.041-2.613,3.457,0-.184,1.688,2,.06.071-.036.087a10.51,10.51,0,0,0-.7,2.693l-.012.1-.093.035-2.451.922.107-.179c.186,1.349.385,2.8.59,4.294l-.158-.15,2.609.227.107.009.042.1a10.539,10.539,0,0,0,1.4,2.4l.067.087-.045.1-1.085,2.385-.056-.222,3.45,2.622-.233.005,2.008-1.684.087-.073.105.043a10.431,10.431,0,0,0,2.681.708h0l.153.121V44.5l0,.01.008.019.014.038.029.077.058.155.115.309.23.615q.229.614.457,1.223l-.2-.12,4.295-.581-.16.168q.118-1.317.232-2.609l.01-.111.1-.043a10.434,10.434,0,0,0,2.4-1.4l.087-.067.1.045,2.382,1.089-.216.054,2.63-3.445,0,.216-1.679-2.011-.065-.079.039-.093a10.469,10.469,0,0,0,.716-2.688l.012-.1.092-.034,2.455-.911-.1.167c-.2-1.511-.39-2.938-.57-4.3l.13.124-2.608-.238-.082-.008-.031-.076a10.56,10.56,0,0,0-1.4-2.417l-.046-.06.031-.067,1.1-2.378.034.135-3.432-2.646.1,0-2.022,1.664-.029.024-.033-.014a11.2,11.2,0,0,0-2.023-.636l-.515-.1a.7.7,0,0,1-.17-.038,1.047,1.047,0,0,1,.175.008c.115.012.291.032.522.072a10.137,10.137,0,0,1,2.057.586l-.062.009,1.992-1.7.051-.043.054.041,3.465,2.6.07.053-.036.081L235.6,27.459l-.015-.126a10.717,10.717,0,0,1,1.451,2.465l-.113-.082,2.61.221.114.01.016.115c.188,1.357.385,2.783.594,4.293l.017.123-.117.044-2.451.923.1-.132a10.743,10.743,0,0,1-.728,2.776l-.026-.172,1.686,2.005.089.106-.084.11-2.62,3.452-.087.113-.131-.059-2.385-1.084.187-.022a10.782,10.782,0,0,1-2.482,1.449l.113-.154q-.113,1.292-.228,2.609l-.013.148-.147.02-4.295.585-.148.02-.052-.14q-.228-.609-.457-1.223l-.23-.615-.115-.309-.058-.154-.029-.078-.014-.038-.007-.019,0-.01V44.62l.152.12h0a10.847,10.847,0,0,1-2.778-.734l.192-.03L221.1,45.658l-.115.1-.118-.091-3.447-2.627-.118-.089.061-.134,1.089-2.382.022.186a10.854,10.854,0,0,1-1.444-2.483l.148.109-2.608-.234L214.427,38l-.019-.138c-.2-1.491-.4-2.947-.576-4.3l-.018-.133.125-.047,2.455-.911-.1.132a10.772,10.772,0,0,1,.739-2.771l.024.159-1.677-2.013-.076-.091.071-.093,2.636-3.44.065-.085.1.045,2.38,1.1-.126.015A10.738,10.738,0,0,1,222.9,24l-.067.092c.088-.939.17-1.816.245-2.606l.007-.077.075-.01,4.3-.548.049-.006.016.045.649,1.827c.067.2.12.354.163.477a1,1,0,0,1,.049.17" transform="translate(-66.884 -6.52)" fill="#263238"/>
          </g>
        </g>
      </g>
    </g>
    <g id="Grupo_1072334" data-name="Grupo 1072334" transform="translate(218 9375.516)">
      <g id="Grupo_1072333" data-name="Grupo 1072333" clip-path="url(#clip-path-6)">
        <g id="Grupo_1072324" data-name="Grupo 1072324">
          <g id="Grupo_1072323" data-name="Grupo 1072323" clip-path="url(#clip-path-6)">
            <path id="Trazado_818970" data-name="Trazado 818970" d="M132.075,175.618l-1.473.5c-6.577,2.219-26.138,8.686-32.053,11.106,0,0,10.47,92.612,11.7,101.219s1.537,43.039,1.537,43.039H223.179s-.3-92.813.024-107.209c.417-18.625,2.724-37.049,2.724-37.049l-19.457-7.606-22.749-11.99Z" transform="translate(-33.564 -57.089)" fill="#8054f8"/>
            <g id="Grupo_1072319" data-name="Grupo 1072319" transform="translate(93.007 138.567)" opacity="0.3">
              <g id="Grupo_1072318" data-name="Grupo 1072318">
                <g id="Grupo_1072317" data-name="Grupo 1072317" clip-path="url(#clip-path-8)">
                  <path id="Trazado_818971" data-name="Trazado 818971" d="M171.325,210.134q-13.639,50.657-28.74,100.9c-1.187,3.948-2.365,8.284-.762,12.081a10.84,10.84,0,0,0,8.595,6.113A17.341,17.341,0,0,0,161,326.848c7.529-4.2,12.418-12.118,14.821-20.4s2.618-17.016,2.815-25.637l1.577-68.97Z" transform="translate(-141.043 -210.134)"/>
                </g>
              </g>
            </g>
            <path id="Trazado_818972" data-name="Trazado 818972" d="M90.733,197.341s-16.337,7.24-15.063,36.275a357.46,357.46,0,0,0,3.861,37.823l45.94-13.229-11.682-50.417Z" transform="translate(-25.747 -67.21)" fill="#8054f8"/>
            <path id="Trazado_818973" data-name="Trazado 818973" d="M262.507,244.067l-2.459,33.509,46.184-14.958s-9.9-59.146-25.588-65.278l-16.908,28.9Z" transform="translate(-88.566 -67.209)" fill="#8054f8"/>
            <path id="Trazado_818974" data-name="Trazado 818974" d="M271.725,253.525a3.224,3.224,0,0,1,.086.682c.036.505.082,1.155.139,1.96.1,1.772.232,4.22.4,7.215.3,6.094.628,14.516.926,23.818.3,9.275.567,17.667.765,23.824.092,3,.168,5.448.222,7.221.015.806.027,1.457.037,1.964a3.318,3.318,0,0,1-.024.687,3.217,3.217,0,0,1-.086-.682c-.036-.505-.082-1.155-.14-1.96-.1-1.771-.231-4.219-.4-7.214-.3-6.094-.628-14.517-.926-23.822-.3-9.271-.567-17.663-.765-23.82-.092-3-.168-5.448-.222-7.221-.015-.807-.028-1.458-.037-1.964a3.191,3.191,0,0,1,.024-.687" transform="translate(-92.535 -86.345)" fill="#263238"/>
            <path id="Trazado_818975" data-name="Trazado 818975" d="M122.5,221.263a5.29,5.29,0,0,1-.6-1.066l-1.489-2.973a49.281,49.281,0,0,0-5.753-9.25,22.481,22.481,0,0,0-8.549-6.518,26.842,26.842,0,0,0-4.34-1.221,4.347,4.347,0,0,1,1.227.049,14.242,14.242,0,0,1,3.254.811,21.515,21.515,0,0,1,8.83,6.529,43.245,43.245,0,0,1,5.68,9.431c.59,1.279,1.037,2.325,1.335,3.053a5.251,5.251,0,0,1,.409,1.155" transform="translate(-34.658 -68.188)" fill="#263238"/>
            <path id="Trazado_818976" data-name="Trazado 818976" d="M277.661,195.208a66.65,66.65,0,0,0-2.912,7.752,66.544,66.544,0,0,0-1.366,8.169,8.409,8.409,0,0,1-.091-2.454,28.146,28.146,0,0,1,3.06-11.389,8.4,8.4,0,0,1,1.308-2.078" transform="translate(-93.069 -66.483)" fill="#263238"/>
            <path id="Trazado_818977" data-name="Trazado 818977" d="M108.867,216.647c0,.028-.167-.012-.454.049a1.769,1.769,0,0,0-1.01.737,4.281,4.281,0,0,0-.7,1.913,8.215,8.215,0,0,1-.334,1.3,2.547,2.547,0,0,1-.936,1.259,3.094,3.094,0,0,1-3.415-.368,12.121,12.121,0,0,1-2.443-3.1,5.61,5.61,0,0,0-1.367-1.469,3.056,3.056,0,0,0-1.873-.64,2.009,2.009,0,0,0-1.608,1.041,5.291,5.291,0,0,0-.486,2.154c-.054.779-.063,1.566-.157,2.352a4.914,4.914,0,0,1-.744,2.264,3.123,3.123,0,0,1-.884.832,2.852,2.852,0,0,1-1.134.359,4.146,4.146,0,0,1-2.181-.414,8.944,8.944,0,0,1-2.912-2.7,10.417,10.417,0,0,0-2.323-2.364,3.466,3.466,0,0,0-2.512-.66,2.659,2.659,0,0,0-1.628,1.092,1.888,1.888,0,0,0-.348,1.206c.018.3.1.444.067.455a.921.921,0,0,1-.177-.44,1.907,1.907,0,0,1,.277-1.335,2.848,2.848,0,0,1,1.744-1.277,3.751,3.751,0,0,1,2.789.634,10.553,10.553,0,0,1,2.465,2.4,8.662,8.662,0,0,0,2.774,2.526,3.66,3.66,0,0,0,1.909.351,2.225,2.225,0,0,0,1.635-.979c.772-1.15.679-2.775.794-4.346a5.75,5.75,0,0,1,.555-2.379A2.547,2.547,0,0,1,96.3,215.79a4.545,4.545,0,0,1,3.686,2.359,12.1,12.1,0,0,0,2.3,3.023,2.7,2.7,0,0,0,2.934.41,3.5,3.5,0,0,0,1.182-2.3,4.36,4.36,0,0,1,.836-1.979,1.8,1.8,0,0,1,1.159-.714.855.855,0,0,1,.472.06" transform="translate(-26.999 -73.493)" fill="#fafafa"/>
            <path id="Trazado_818978" data-name="Trazado 818978" d="M116.779,240.657a1.873,1.873,0,0,1,.021.6,3.785,3.785,0,0,1-.573,1.639,4.8,4.8,0,0,1-2.071,1.81,4.067,4.067,0,0,1-3.617-.052c-1.236-.6-2.262-1.773-3.694-2.172-1.449-.431-3.025.571-3.941,1.972-.957,1.412-1.345,3.265-2.313,4.989a5.854,5.854,0,0,1-2.1,2.185,3.37,3.37,0,0,1-3.132.248,5.478,5.478,0,0,1-2.191-2.23c-.523-.86-.956-1.733-1.483-2.5a3.682,3.682,0,0,0-2-1.622,2.8,2.8,0,0,0-2.357.462,8.888,8.888,0,0,0-2.839,3.875,31.684,31.684,0,0,1-1.984,3.906,6.705,6.705,0,0,1-5.185,3.41,3.639,3.639,0,0,1-1.71-.3,2.246,2.246,0,0,1-.4-.214c-.086-.055-.127-.086-.122-.095a4.6,4.6,0,0,0,2.215.4,6.557,6.557,0,0,0,4.872-3.4,32.85,32.85,0,0,0,1.9-3.888,9.257,9.257,0,0,1,2.971-4.1,3.31,3.31,0,0,1,2.774-.548,4.193,4.193,0,0,1,2.309,1.821c.561.812,1,1.692,1.506,2.522a4.992,4.992,0,0,0,1.952,2.017,2.824,2.824,0,0,0,2.633-.222,5.34,5.34,0,0,0,1.906-1.98c.926-1.615,1.323-3.482,2.362-5.006a5.707,5.707,0,0,1,1.955-1.814,3.368,3.368,0,0,1,2.52-.312,6.4,6.4,0,0,1,2.051,1.111,14.266,14.266,0,0,0,1.7,1.156,3.748,3.748,0,0,0,3.315.116,4.668,4.668,0,0,0,2.017-1.646,4.579,4.579,0,0,0,.731-2.126" transform="translate(-25.574 -81.962)" fill="#fafafa"/>
            <path id="Trazado_818979" data-name="Trazado 818979" d="M112.928,274.682c-.009.024-.136-.036-.386-.055a1.485,1.485,0,0,0-1.016.322,3.089,3.089,0,0,0-.972,1.439,5.171,5.171,0,0,0-.1,2.359,5.991,5.991,0,0,1-.228,3.053,3.232,3.232,0,0,1-3.06,1.753,4.848,4.848,0,0,1-3.62-1.682,14.682,14.682,0,0,1-2.3-3.684l.193.144a3.092,3.092,0,0,0-2.864,1.42,7.332,7.332,0,0,0-1.207,3.475,25.216,25.216,0,0,1-.513,2.849,6.131,6.131,0,0,1-1.372,2.538,3.425,3.425,0,0,1-2.563,1.176,4.01,4.01,0,0,1-2.479-1.058c-1.346-1.147-2.014-2.673-2.931-3.792a4.451,4.451,0,0,0-3.335-1.905,4.193,4.193,0,0,0-3.034,1.014,4.425,4.425,0,0,0-1.287,2.11,5.576,5.576,0,0,0-.094,2.152c-.009,0-.029-.043-.06-.135a2.52,2.52,0,0,1-.1-.417,4.188,4.188,0,0,1,.051-1.653,4.545,4.545,0,0,1,1.287-2.284,4.6,4.6,0,0,1,5.252-.633,5.741,5.741,0,0,1,1.678,1.463c.976,1.173,1.655,2.657,2.9,3.692a3.519,3.519,0,0,0,2.163.921,2.9,2.9,0,0,0,2.16-1.019,5.623,5.623,0,0,0,1.239-2.316,25.389,25.389,0,0,0,.5-2.789,7.824,7.824,0,0,1,1.316-3.719,3.612,3.612,0,0,1,3.388-1.613l.135.024.058.121a14.411,14.411,0,0,0,2.188,3.575,4.386,4.386,0,0,0,3.257,1.567,2.814,2.814,0,0,0,2.7-1.469,5.751,5.751,0,0,0,.256-2.856,5.349,5.349,0,0,1,.189-2.476,3.2,3.2,0,0,1,1.113-1.5,1.515,1.515,0,0,1,1.132-.268.872.872,0,0,1,.374.147" transform="translate(-27.088 -93.492)" fill="#fafafa"/>
            <path id="Trazado_818980" data-name="Trazado 818980" d="M307.036,268.006c0,.034-.2.026-.531.151a2.5,2.5,0,0,0-1.186.956,6.514,6.514,0,0,0-.939,2.278,13.256,13.256,0,0,1-.893,3.261,3.378,3.378,0,0,1-1.339,1.538,2.44,2.44,0,0,1-2.231.066,4.434,4.434,0,0,1-1.7-1.638,14.767,14.767,0,0,1-1.112-2.163,6.807,6.807,0,0,0-1.362-1.99,2.351,2.351,0,0,0-2.1-.816,2.03,2.03,0,0,0-1.434,1.767,15.242,15.242,0,0,0-.14,2.747,7.634,7.634,0,0,1-1.923,5.261,4.618,4.618,0,0,1-5,1.2c-1.607-.729-2.572-2.057-3.648-2.988a3.767,3.767,0,0,0-3.487-1.211,4.422,4.422,0,0,0-2.512,1.895,8.224,8.224,0,0,0-.983,2.274c-.359,1.331-.483,2.1-.531,2.086a2.088,2.088,0,0,1,.042-.559c.049-.363.124-.9.282-1.581a8.028,8.028,0,0,1,.932-2.385,4.7,4.7,0,0,1,2.673-2.1,3.385,3.385,0,0,1,2.036.086,5.725,5.725,0,0,1,1.848,1.158c1.12.957,2.106,2.237,3.542,2.863a4.109,4.109,0,0,0,4.425-1.11,7.137,7.137,0,0,0,1.757-4.894,15.432,15.432,0,0,1,.154-2.845,3.361,3.361,0,0,1,.579-1.366,2.279,2.279,0,0,1,1.263-.814,2.86,2.86,0,0,1,2.6.965,7.247,7.247,0,0,1,1.457,2.156,14.535,14.535,0,0,0,1.056,2.109,4.01,4.01,0,0,0,1.491,1.49,2,2,0,0,0,1.831-.028,3,3,0,0,0,1.194-1.34,13.557,13.557,0,0,0,.943-3.161,6.48,6.48,0,0,1,1.066-2.332,2.489,2.489,0,0,1,1.324-.933,1.245,1.245,0,0,1,.564-.046" transform="translate(-93.308 -91.272)" fill="#fafafa"/>
            <path id="Trazado_818981" data-name="Trazado 818981" d="M300.579,230.474c.016.011-.051.144-.193.387s-.361.6-.668,1.039a10.429,10.429,0,0,1-1.26,1.513,5.53,5.53,0,0,1-2.243,1.382,3.913,3.913,0,0,1-3.194-.283c-1.056-.646-1.561-1.883-2.508-2.541a1.625,1.625,0,0,0-1.594-.164,2.783,2.783,0,0,0-1.227,1.327,5.007,5.007,0,0,0-.5,1.905c-.032.69-.005,1.414-.033,2.154a6.227,6.227,0,0,1-.415,2.208,3.138,3.138,0,0,1-1.533,1.631,4.968,4.968,0,0,1-4.056-.235,18.148,18.148,0,0,1-3.031-2,8.94,8.94,0,0,0-2.665-1.459,3.55,3.55,0,0,0-2.407.122,3.219,3.219,0,0,0-1.464,1.118,2.414,2.414,0,0,0-.359,1.531.987.987,0,0,1-.115-.421,2,2,0,0,1,.293-1.225,3.355,3.355,0,0,1,1.524-1.285,3.84,3.84,0,0,1,2.633-.213,9.146,9.146,0,0,1,2.824,1.461,18.432,18.432,0,0,0,2.971,1.906,4.5,4.5,0,0,0,3.618.214,2.6,2.6,0,0,0,1.265-1.363,5.725,5.725,0,0,0,.369-2.013c.027-.716,0-1.434.036-2.162a5.5,5.5,0,0,1,.568-2.118,3.284,3.284,0,0,1,1.492-1.564,2.138,2.138,0,0,1,2.091.223c1.116.833,1.563,2.028,2.468,2.575a3.535,3.535,0,0,0,2.842.3,5.326,5.326,0,0,0,2.144-1.234,11.545,11.545,0,0,0,1.3-1.416,13.3,13.3,0,0,1,1.033-1.3" transform="translate(-92.331 -78.494)" fill="#fafafa"/>
            <path id="Trazado_818982" data-name="Trazado 818982" d="M244.548,321.15a1.559,1.559,0,0,1-.543.62,2.987,2.987,0,0,1-2.312.375,5.767,5.767,0,0,1-1.63-.557,16.385,16.385,0,0,1-1.7-1.106,9.9,9.9,0,0,0-1.97-1.128,3.318,3.318,0,0,0-2.4-.062,4.241,4.241,0,0,0-1.964,1.825,22.75,22.75,0,0,0-1.371,2.739,15.133,15.133,0,0,1-1.6,2.957,4.537,4.537,0,0,1-1.362,1.207,2.633,2.633,0,0,1-.887.334c-.157.032-.313.076-.472.094l-.485,0a3.327,3.327,0,0,1-1.825-.642,6.6,6.6,0,0,1-1.4-1.341c-.807-1-1.471-2.111-2.262-3.127a5.912,5.912,0,0,0-2.966-2.288,4.789,4.789,0,0,0-3.7.771,8.755,8.755,0,0,0-2.726,2.87c-.717,1.123-1.3,2.319-1.973,3.46a11.75,11.75,0,0,1-2.421,3.087,6.353,6.353,0,0,1-3.422,1.634,4.761,4.761,0,0,1-3.46-1.035,11.691,11.691,0,0,1-2.238-2.526c-1.22-1.754-2.29-3.473-3.8-4.425a4.3,4.3,0,0,0-2.35-.711,5.477,5.477,0,0,0-2.172.5,6,6,0,0,0-2.683,2.358,4.859,4.859,0,0,0-.7,2.169,7.985,7.985,0,0,1-.007.813c-.01,0-.024-.067-.045-.2a4.307,4.307,0,0,1-.059-.612,4.721,4.721,0,0,1,.625-2.273,6.141,6.141,0,0,1,2.738-2.53,5.766,5.766,0,0,1,2.3-.569,4.655,4.655,0,0,1,2.559.733c1.625,1,2.739,2.77,3.963,4.489a11.336,11.336,0,0,0,2.161,2.406,4.269,4.269,0,0,0,3.11.917,5.865,5.865,0,0,0,3.135-1.527,11.291,11.291,0,0,0,2.3-2.963c.653-1.12,1.24-2.323,1.978-3.483a9.285,9.285,0,0,1,2.893-3.041,5.323,5.323,0,0,1,4.131-.835,6.408,6.408,0,0,1,3.254,2.486c.814,1.054,1.472,2.163,2.244,3.127a4.037,4.037,0,0,0,2.841,1.808,3.3,3.3,0,0,0,2.8-1.422,14.83,14.83,0,0,0,1.571-2.851,22.861,22.861,0,0,1,1.428-2.779,4.617,4.617,0,0,1,2.183-1.959,3.674,3.674,0,0,1,2.667.1,9.966,9.966,0,0,1,2.019,1.2,16.888,16.888,0,0,0,1.649,1.126,5.681,5.681,0,0,0,1.548.578,2.937,2.937,0,0,0,2.21-.257,4.5,4.5,0,0,0,.6-.528" transform="translate(-63.225 -108.551)" fill="#fafafa"/>
            <path id="Trazado_818983" data-name="Trazado 818983" d="M244.052,268.229c.008,0-.02.061-.086.17a1.1,1.1,0,0,1-.427.363,2.43,2.43,0,0,1-2.1-.188c-.872-.4-1.556-1.4-2.714-1.861a1.711,1.711,0,0,0-1.774.308,4.405,4.405,0,0,0-.973,1.979,13.171,13.171,0,0,1-.857,2.456,3.39,3.39,0,0,1-.915,1.12,2.9,2.9,0,0,1-1.411.55c-2.091.206-4.065-1.185-5.415-2.834a16.36,16.36,0,0,0-2.322-2.286,4.758,4.758,0,0,0-3.064-.983,8.392,8.392,0,0,0-5.885,3.463c-1.5,1.943-2.511,4.18-3.839,6.155A10.257,10.257,0,0,1,207.032,281a5.893,5.893,0,0,1-3.245.2,5.445,5.445,0,0,1-2.621-1.586c-1.361-1.407-2.251-3.02-3.606-3.852a3.518,3.518,0,0,0-2.107-.541,3.712,3.712,0,0,0-1.842.685,8.386,8.386,0,0,0-2.182,2.411c-.959,1.542-1.3,2.5-1.358,2.479a3.389,3.389,0,0,1,.24-.7,14.6,14.6,0,0,1,.936-1.9,8.36,8.36,0,0,1,2.188-2.549,4.007,4.007,0,0,1,1.989-.783,3.876,3.876,0,0,1,2.338.557c1.486.9,2.406,2.539,3.727,3.864a4.982,4.982,0,0,0,2.411,1.437,5.415,5.415,0,0,0,2.972-.209,9.77,9.77,0,0,0,4.956-4.176c1.292-1.929,2.3-4.177,3.853-6.193a8.887,8.887,0,0,1,6.3-3.664,5.289,5.289,0,0,1,3.391,1.1,16.6,16.6,0,0,1,2.387,2.37,9,9,0,0,0,2.289,2.034,4.65,4.65,0,0,0,2.7.686,2.511,2.511,0,0,0,2.006-1.42,13.085,13.085,0,0,0,.859-2.367,4.683,4.683,0,0,1,1.11-2.125,2.033,2.033,0,0,1,2.116-.336c1.266.553,1.91,1.571,2.7,1.958a2.365,2.365,0,0,0,1.951.277,1.677,1.677,0,0,0,.559-.433" transform="translate(-64.733 -90.685)" fill="#fafafa"/>
            <path id="Trazado_818984" data-name="Trazado 818984" d="M246.649,213.709c-.022.022-.166-.166-.538-.362a2.493,2.493,0,0,0-1.784-.128,3.478,3.478,0,0,0-2.173,1.774,18.8,18.8,0,0,0-1.309,3.693,8.187,8.187,0,0,1-1.006,2.129,3.944,3.944,0,0,1-2.075,1.556,4.91,4.91,0,0,1-2.768-.077,10,10,0,0,1-2.614-1.248c-1.627-1.056-3.2-2.47-5.209-2.824a4.787,4.787,0,0,0-2.958.482,8.734,8.734,0,0,0-2.5,1.991c-1.5,1.609-2.506,3.583-3.919,5.212a10.563,10.563,0,0,1-2.353,2.132,5.806,5.806,0,0,1-2.93.946,8.2,8.2,0,0,1-5.137-2.13c-1.362-1.095-2.495-2.228-3.7-3.035a6.472,6.472,0,0,0-3.569-1.3,4.615,4.615,0,0,0-2.72.874,3.037,3.037,0,0,0-1.1,1.44c-.144.4-.14.634-.175.629a1.623,1.623,0,0,1,.07-.662,3.02,3.02,0,0,1,1.073-1.575,4.768,4.768,0,0,1,2.847-1.012,6.715,6.715,0,0,1,3.788,1.285c1.254.811,2.423,1.948,3.763,3a7.8,7.8,0,0,0,4.841,1.984,6.984,6.984,0,0,0,4.89-2.92c1.357-1.569,2.363-3.551,3.924-5.235a9.212,9.212,0,0,1,2.661-2.109,5.331,5.331,0,0,1,3.289-.524c2.225.415,3.813,1.9,5.4,2.932,1.56,1.035,3.386,1.754,4.975,1.312a3.511,3.511,0,0,0,1.859-1.365,7.882,7.882,0,0,0,.984-2.007,18.271,18.271,0,0,1,1.412-3.724A4.29,4.29,0,0,1,243,213.585a3.582,3.582,0,0,1,1.282-.573,2.523,2.523,0,0,1,1.887.239,1.365,1.365,0,0,1,.485.458" transform="translate(-66.789 -72.52)" fill="#fafafa"/>
            <path id="Trazado_818985" data-name="Trazado 818985" d="M251.081,187.29a1.025,1.025,0,0,1-.062.4,6.191,6.191,0,0,1-.377,1.08,3.627,3.627,0,0,1-1.114,1.465,1.923,1.923,0,0,1-2.4-.156,11.153,11.153,0,0,1-1.623-2.426,3.461,3.461,0,0,0-1-1.1,2.977,2.977,0,0,0-1.478-.468,4.27,4.27,0,0,0-3.134,1.174,10.28,10.28,0,0,0-2.182,3.1,7.918,7.918,0,0,1-1.106,1.73,2.323,2.323,0,0,1-1.913.857,2.625,2.625,0,0,1-1.746-1.012,5.057,5.057,0,0,1-.867-1.653,6.651,6.651,0,0,0-1.35-2.849,2.164,2.164,0,0,0-1.18-.618,1.421,1.421,0,0,0-1.122.344,4.774,4.774,0,0,0-1.1,1.968,4.529,4.529,0,0,1-.905,1.589,1.792,1.792,0,0,1-1.007.581.691.691,0,0,1-.4-.028,1.829,1.829,0,0,0,1.252-.694,4.567,4.567,0,0,0,.775-1.548,4.908,4.908,0,0,1,1.133-2.159,1.823,1.823,0,0,1,1.426-.472,2.58,2.58,0,0,1,1.443.707,6.919,6.919,0,0,1,1.515,3.013,4.586,4.586,0,0,0,.791,1.484,2.116,2.116,0,0,0,1.388.812,1.784,1.784,0,0,0,1.467-.688,7.468,7.468,0,0,0,1.021-1.612,10.642,10.642,0,0,1,2.314-3.252,4.769,4.769,0,0,1,3.525-1.276,3.458,3.458,0,0,1,1.713.571,3.886,3.886,0,0,1,1.121,1.261,11.6,11.6,0,0,0,1.5,2.377,1.585,1.585,0,0,0,1.97.19,3.554,3.554,0,0,0,1.094-1.3c.447-.86.581-1.4.63-1.38" transform="translate(-76.632 -63.198)" fill="#fafafa"/>
            <path id="Trazado_818986" data-name="Trazado 818986" d="M145.749,188.308a1.733,1.733,0,0,1,.1.5,13.637,13.637,0,0,1,.129,1.453,6.84,6.84,0,0,1-.274,2.312,3.86,3.86,0,0,1-2,2.357,2.745,2.745,0,0,1-1.853.237,2.945,2.945,0,0,1-1.641-1.182c-.418-.552-.725-1.175-1.1-1.749a2.778,2.778,0,0,0-5.083.265,5.669,5.669,0,0,0-.655,2.247,16.9,16.9,0,0,0,.044,2.5,7.9,7.9,0,0,1-.187,2.617,3.65,3.65,0,0,1-1.484,2.148,2.886,2.886,0,0,1-2.524.2,5.553,5.553,0,0,1-1.989-1.311c-1.075-1.121-1.736-2.385-2.662-3.281a4.046,4.046,0,0,0-3.151-1.278,3.946,3.946,0,0,0-2.615,1.12,4.182,4.182,0,0,0-1.084,1.912,5.745,5.745,0,0,0-.1,1.913,1.3,1.3,0,0,1-.143-.491,3.913,3.913,0,0,1,.038-1.471,4.291,4.291,0,0,1,1.072-2.076,4.238,4.238,0,0,1,2.812-1.294,4.443,4.443,0,0,1,3.49,1.34c1,.944,1.7,2.228,2.7,3.247a5.072,5.072,0,0,0,1.807,1.176,2.358,2.358,0,0,0,2.067-.165,3.127,3.127,0,0,0,1.243-1.841,7.441,7.441,0,0,0,.165-2.439,8.6,8.6,0,0,1,.691-5.042,3.275,3.275,0,0,1,5.957-.261c.388.612.683,1.229,1.06,1.739a2.518,2.518,0,0,0,1.379,1.043,2.355,2.355,0,0,0,1.585-.177,3.556,3.556,0,0,0,1.875-2.1,6.983,6.983,0,0,0,.351-2.213c.007-1.25-.067-1.95-.017-1.953" transform="translate(-39.992 -64.133)" fill="#fafafa"/>
            <path id="Trazado_818987" data-name="Trazado 818987" d="M204.531,2.876c-7.133-1.537-13.852,5.3-21.1,4.505-4.4-.482-7.969-3.666-12.006-5.494-6.036-2.732-14.231-2.561-19.865.926s-9.157,7-9.4,13.62c-5.618-2.621-13.986,4.88-16.48,11.645s-1.16,13.429,1.158,20.257a95.156,95.156,0,0,0,18.505,32.045c.725.826,1.846,1.714,2.8,1.165a2.4,2.4,0,0,0,.868-2.01c.484-6.464-.875-12.9-1.972-19.293s-1.929-13-.417-19.305,5.837-12.3,12.068-14.09c4.6-1.321,9.594-.21,13.952,1.774s8.28,4.8,12.467,7.122,8.825,4.188,13.61,3.992,9.707-2.876,11.372-7.366-1.132-10.43-5.883-11.026a9.716,9.716,0,0,0,7.761-9.1,9.716,9.716,0,0,0-7.428-9.372" transform="translate(-42.344 0)" fill="#263238"/>
            <path id="Trazado_818988" data-name="Trazado 818988" d="M198.593,121.147,196.751,107.4s17.895-5.025,15.931-23.284c-.949-8.817-4.379-26.811-7.673-43.064a34.219,34.219,0,0,0-37.617-27.182l-1.759.211C146.8,17.468,139.15,35.356,143.056,54.091l10.616,73.318a22.677,22.677,0,0,0,25.549,19.214h0a22.679,22.679,0,0,0,19.372-25.477" transform="translate(-48.384 -4.64)" fill="#ffbe9d"/>
            <path id="Trazado_818989" data-name="Trazado 818989" d="M212.332,153.8a42.706,42.706,0,0,1-24.581-3.9s7.194,12.447,25.19,8.62Z" transform="translate(-63.944 -51.052)" fill="#eb996e"/>
            <path id="Trazado_818990" data-name="Trazado 818990" d="M226.335,70.891a2.672,2.672,0,0,1-2.178,3.03,2.557,2.557,0,0,1-2.983-2.125,2.673,2.673,0,0,1,2.175-3.031,2.558,2.558,0,0,1,2.985,2.127" transform="translate(-75.316 -23.406)" fill="#263238"/>
            <path id="Trazado_818991" data-name="Trazado 818991" d="M227.873,70.163c-.282.378-2.429-.845-5.231-.5-2.8.3-4.685,1.992-5.03,1.685-.168-.135.087-.787.9-1.546a7.2,7.2,0,0,1,3.977-1.769,6.908,6.908,0,0,1,4.214.822c.941.558,1.307,1.137,1.166,1.308" transform="translate(-74.097 -23.154)" fill="#263238"/>
            <path id="Trazado_818992" data-name="Trazado 818992" d="M185.886,74.265a2.7,2.7,0,0,1-2.169,3.083,2.582,2.582,0,0,1-2.991-2.177,2.7,2.7,0,0,1,2.167-3.085,2.585,2.585,0,0,1,2.994,2.179" transform="translate(-61.539 -24.537)" fill="#263238"/>
            <path id="Trazado_818993" data-name="Trazado 818993" d="M187.087,73.476c-.283.379-2.433-.844-5.232-.5-2.8.3-4.686,1.991-5.031,1.685-.167-.134.085-.785.905-1.545a7.194,7.194,0,0,1,3.976-1.77,6.918,6.918,0,0,1,4.215.823c.938.558,1.306,1.137,1.166,1.308" transform="translate(-60.206 -24.283)" fill="#263238"/>
            <path id="Trazado_818994" data-name="Trazado 818994" d="M208.611,92.934c-.032-.158,1.673-.668,4.452-1.368.706-.16,1.366-.383,1.428-.886a3.661,3.661,0,0,0-.732-2.063q-1.321-2.476-2.77-5.194c-3.869-7.4-6.762-13.526-6.463-13.679s3.68,5.723,7.549,13.127q1.406,2.742,2.684,5.237a4.17,4.17,0,0,1,.709,2.763,1.808,1.808,0,0,1-1.051,1.188,4.891,4.891,0,0,1-1.195.315c-2.822.494-4.582.718-4.611.561" transform="translate(-69.65 -23.752)" fill="#263238"/>
            <path id="Trazado_818995" data-name="Trazado 818995" d="M198.422,109.352c.452-.081.824,2.96,3.686,4.805s6.059,1.123,6.135,1.545c.065.186-.652.678-2.015.879a7.63,7.63,0,0,1-5.1-1.118,6.645,6.645,0,0,1-2.9-4.053c-.268-1.258-.02-2.051.191-2.059" transform="translate(-67.473 -37.242)" fill="#263238"/>
            <path id="Trazado_818996" data-name="Trazado 818996" d="M183.744,54.375c-.185.8-3.025.77-6.265,1.561-3.256.725-5.79,2.006-6.309,1.376-.233-.3.142-1.076,1.126-1.942a11.22,11.22,0,0,1,9.579-2.237c1.265.341,1.945.866,1.869,1.242" transform="translate(-58.274 -17.996)" fill="#263238"/>
            <path id="Trazado_818997" data-name="Trazado 818997" d="M225.2,56.115c-.417.7-2.426.267-4.75.514-2.333.166-4.235.942-4.767.331-.237-.3,0-.974.782-1.68a6.921,6.921,0,0,1,7.669-.681c.9.556,1.246,1.179,1.066,1.515" transform="translate(-73.426 -18.305)" fill="#263238"/>
            <path id="Trazado_818998" data-name="Trazado 818998" d="M142.463,95.094c-.327-.1-12.972-2.2-11.077,10.216s13.97,7.953,13.937,7.594-2.86-17.81-2.86-17.81" transform="translate(-44.681 -32.321)" fill="#ffbe9d"/>
            <path id="Trazado_818999" data-name="Trazado 818999" d="M142.508,111.044c-.061-.031-.193.185-.533.408a2.185,2.185,0,0,1-1.612.28c-1.385-.282-2.808-2.2-3.209-4.424a7.222,7.222,0,0,1,.133-3.19,2.526,2.526,0,0,1,1.374-1.908,1.114,1.114,0,0,1,1.367.4c.22.322.178.582.247.593.04.026.235-.249.056-.746a1.4,1.4,0,0,0-.607-.7,1.653,1.653,0,0,0-1.244-.133,3.074,3.074,0,0,0-1.966,2.27,7.425,7.425,0,0,0-.222,3.575c.462,2.49,2.1,4.636,3.974,4.88a2.34,2.34,0,0,0,1.928-.63c.338-.365.361-.653.315-.669" transform="translate(-46.376 -34.587)" fill="#eb996e"/>
            <path id="Trazado_819000" data-name="Trazado 819000" d="M207.374,35.062a26.52,26.52,0,0,1-24.025-2.46c-4.887-3.229-8.958-8.223-14.721-9.266a14.918,14.918,0,0,0-11.139,2.909,28.821,28.821,0,0,0-7.637,8.922c4.635,8.842,3.511,19.469,2.266,29.375a4.988,4.988,0,0,1-1.105,3.05c-1.339,1.311-3.653.69-5.1-.5-2.316-1.906-3.48-4.853-4.357-7.721a51.632,51.632,0,0,1-2.307-20.232,35.156,35.156,0,0,1,7.477-18.772A33.312,33.312,0,0,1,168.87,8.813a40.91,40.91,0,0,1,24.566,5.594,23.965,23.965,0,0,1,8.713,7.9" transform="translate(-47.351 -2.935)" fill="#263238"/>
            <path id="Trazado_819001" data-name="Trazado 819001" d="M220.8,8.877a2.691,2.691,0,0,1,.018,1.095,5.1,5.1,0,0,1-1.434,2.779,7.989,7.989,0,0,1-4.471,2.113,13.348,13.348,0,0,1-3.116.18,6.664,6.664,0,0,1-3.354-1.09,4.431,4.431,0,0,1-1.98-3.332,3.9,3.9,0,0,1,2.264-3.5,4.828,4.828,0,0,1,2.208-.555,4.1,4.1,0,0,1,2.256.7,5.709,5.709,0,0,1,2.38,4.135,6.616,6.616,0,0,1-1.416,4.81,10.074,10.074,0,0,1-4.208,3.1,16.525,16.525,0,0,1-10.79.121A47.224,47.224,0,0,1,189.278,15a59.906,59.906,0,0,0-9-4.334,18.609,18.609,0,0,0-8.814-1.056,17.8,17.8,0,0,0-7.228,2.81,22.211,22.211,0,0,0-7.367,8.509,28.837,28.837,0,0,0-1.265,2.839,8.719,8.719,0,0,1-.409,1.008.923.923,0,0,1,.057-.272c.049-.177.118-.441.233-.779a23.465,23.465,0,0,1,1.167-2.9,21.941,21.941,0,0,1,7.339-8.767,18.108,18.108,0,0,1,7.4-2.956,19.055,19.055,0,0,1,9.078,1.023,59.593,59.593,0,0,1,9.108,4.342,47.128,47.128,0,0,0,9.762,4.381,15.972,15.972,0,0,0,10.39-.088,9.489,9.489,0,0,0,3.966-2.9,6.035,6.035,0,0,0,1.318-4.384,5.161,5.161,0,0,0-2.113-3.743,3.778,3.778,0,0,0-3.924-.146,3.411,3.411,0,0,0-2.022,3.023,3.986,3.986,0,0,0,1.755,2.991,6.291,6.291,0,0,0,3.13,1.054,13.184,13.184,0,0,0,3.027-.129,7.815,7.815,0,0,0,4.356-1.941A5.124,5.124,0,0,0,220.7,9.949a8.641,8.641,0,0,0,.106-1.073" transform="translate(-52.854 -2.236)" fill="#455a64"/>
            <path id="Trazado_819002" data-name="Trazado 819002" d="M124.95,51.382a20.735,20.735,0,0,0,3.926.531A10.8,10.8,0,0,0,133,50.978a18.123,18.123,0,0,0,4.4-2.811,14.667,14.667,0,0,0,4.662-8.092,30.179,30.179,0,0,0,.365-3.96,3.227,3.227,0,0,1,.195,1.071,12.465,12.465,0,0,1-.127,2.969,14.314,14.314,0,0,1-4.688,8.484,17.572,17.572,0,0,1-4.588,2.868,10.647,10.647,0,0,1-4.348.847,9.957,9.957,0,0,1-2.932-.523,3.187,3.187,0,0,1-.992-.449" transform="translate(-42.555 -12.3)" fill="#455a64"/>
            <path id="Trazado_819003" data-name="Trazado 819003" d="M127.419,64.862c0-.115,1.5.034,3.833-.381a17.22,17.22,0,0,0,13.391-11.362c.789-2.237.886-3.734,1-3.719a3.078,3.078,0,0,1-.009,1.051,14.327,14.327,0,0,1-.574,2.806,16.624,16.624,0,0,1-13.74,11.659,14.292,14.292,0,0,1-2.863.109,3.06,3.06,0,0,1-1.038-.162" transform="translate(-43.396 -16.824)" fill="#455a64"/>
            <path id="Trazado_819004" data-name="Trazado 819004" d="M179.363,94.673a.342.342,0,1,1,.189-.42.327.327,0,0,1-.189.42" transform="translate(-60.944 -32.018)" fill="#eb996e"/>
            <path id="Trazado_819005" data-name="Trazado 819005" d="M187.249,91.807a.4.4,0,1,1,.174-.468.357.357,0,0,1-.174.468" transform="translate(-63.623 -31.011)" fill="#eb996e"/>
            <path id="Trazado_819006" data-name="Trazado 819006" d="M192.695,90.893c-.167.042-.357-.146-.425-.419s.012-.527.179-.568.357.146.425.418-.012.528-.179.569" transform="translate(-65.474 -30.618)" fill="#eb996e"/>
            <path id="Trazado_819007" data-name="Trazado 819007" d="M184.011,99.424c-.171.02-.32-.051-.333-.161s.115-.214.286-.234.319.051.332.16-.115.214-.285.235" transform="translate(-62.556 -33.726)" fill="#eb996e"/>
            <path id="Trazado_819008" data-name="Trazado 819008" d="M191.222,96.648a.356.356,0,1,1,.232-.41.334.334,0,0,1-.232.41" transform="translate(-64.994 -32.678)" fill="#eb996e"/>
            <path id="Trazado_819009" data-name="Trazado 819009" d="M229.391,87.379a.354.354,0,1,1,.186-.431.334.334,0,0,1-.186.431" transform="translate(-77.981 -29.527)" fill="#eb996e"/>
            <path id="Trazado_819010" data-name="Trazado 819010" d="M234.875,86.161a.4.4,0,1,1,.219-.45.359.359,0,0,1-.219.45" transform="translate(-79.857 -29.082)" fill="#eb996e"/>
            <path id="Trazado_819011" data-name="Trazado 819011" d="M224.538,88.178a.276.276,0,1,1,.21-.357.3.3,0,0,1-.21.357" transform="translate(-76.339 -29.848)" fill="#eb996e"/>
            <path id="Trazado_819012" data-name="Trazado 819012" d="M229.244,93.155a.364.364,0,1,1,.083-.468.339.339,0,0,1-.083.468" transform="translate(-77.902 -31.502)" fill="#eb996e"/>
            <path id="Trazado_819013" data-name="Trazado 819013" d="M233.977,91.713a.266.266,0,1,1,.346-.214.29.29,0,0,1-.346.214" transform="translate(-79.595 -31.058)" fill="#eb996e"/>
            <path id="Trazado_819014" data-name="Trazado 819014" d="M129.642,102.8c.019.062-.683.059-1.243-.755a2.168,2.168,0,0,1-.325-1.625,2.727,2.727,0,0,1,1.127-1.678,2.855,2.855,0,0,1,1.955-.483,3.174,3.174,0,0,1,1.516.579c.761.564.89,1.181.837,1.188-.083.05-.331-.454-1.048-.863a2.811,2.811,0,0,0-2.945.029,2.356,2.356,0,0,0-.947,1.335,1.877,1.877,0,0,0,.165,1.32c.374.723.946.871.909.954" transform="translate(-43.605 -33.459)" fill="#263238"/>
            <path id="Trazado_819015" data-name="Trazado 819015" d="M220.889,305.678l.938,27.2s-78.862,15.624-89.006,20.85-14.286,6.035-13.671,21.1l126.024-.217s15.532-5.819,15.225-22.726-4.533-57.534-4.533-57.534Z" transform="translate(-40.56 -100.249)" fill="#ffbe9d"/>
            <path id="Trazado_819016" data-name="Trazado 819016" d="M126.072,401.742l10.472-.958,10-23.883c-1.62-.276-35.348-5.262-37.335-4.716l-8.088,28.737s24.234.819,24.956.82" transform="translate(-34.438 -126.743)" fill="#ffbe9d"/>
            <path id="Trazado_819017" data-name="Trazado 819017" d="M101.963,412.675c.026.049.226.092.562.129,2.785.3,15.648-.479,15.648-.479.588-1.66-.524-6.651-2.125-6.944s-15.291.631-15.291.631-2.156.284-2.692,3.907c-.332,2.238,3.9,2.756,3.9,2.756" transform="translate(-33.392 -138.044)" fill="#ffbe9d"/>
            <path id="Trazado_819018" data-name="Trazado 819018" d="M95.372,401.591c.025.048.225.092.562.128,2.785.3,14.946.171,15.471-1.31.589-1.661-.347-5.82-1.948-6.112s-15.291.631-15.291.631-2.156.283-2.694,3.907c-.331,2.238,3.9,2.756,3.9,2.756" transform="translate(-31.147 -134.269)" fill="#ffbe9d"/>
            <path id="Trazado_819019" data-name="Trazado 819019" d="M92.1,390.757c.026.048.225.092.562.128,2.785.3,14.946.171,15.471-1.31.589-1.661-.346-5.82-1.947-6.112s-15.291.631-15.291.631S88.74,384.376,88.2,388c-.332,2.238,3.9,2.756,3.9,2.756" transform="translate(-30.034 -130.579)" fill="#ffbe9d"/>
            <path id="Trazado_819020" data-name="Trazado 819020" d="M89.031,379.982c.025.048.225.092.562.129,2.785.3,14.946.171,15.471-1.311.589-1.661-.346-5.82-1.947-6.112s-15.291.631-15.291.631-2.156.283-2.693,3.906c-.332,2.239,3.9,2.757,3.9,2.757" transform="translate(-28.987 -126.909)" fill="#ffbe9d"/>
            <path id="Trazado_819021" data-name="Trazado 819021" d="M113.871,405.18c-.018.209-2.669.454-5.92.547s-5.873,0-5.856-.211,2.668-.454,5.921-.547,5.873,0,5.855.21" transform="translate(-34.771 -137.911)" fill="#eb996e"/>
            <path id="Trazado_819022" data-name="Trazado 819022" d="M111.346,394.331c.007.211-3.763.5-8.418.65s-8.435.1-8.442-.115,3.761-.5,8.418-.65,8.435-.1,8.441.115" transform="translate(-32.18 -134.232)" fill="#eb996e"/>
            <g id="Grupo_1072322" data-name="Grupo 1072322" transform="translate(61.731 252.613)" opacity="0.78">
              <g id="Grupo_1072321" data-name="Grupo 1072321">
                <g id="Grupo_1072320" data-name="Grupo 1072320" clip-path="url(#clip-path-9)">
                  <path id="Trazado_819023" data-name="Trazado 819023" d="M110.473,383.282c.007.212-3.762.5-8.418.65s-8.435.1-8.442-.115,3.761-.5,8.418-.65,8.435-.1,8.442.115" transform="translate(-93.614 -383.083)" fill="#eb996e"/>
                </g>
              </g>
            </g>
            <path id="Trazado_819024" data-name="Trazado 819024" d="M134.3,371.965s-22.958-10.207-24.391-8.733-3.644,6.214-3.644,6.214Z" transform="translate(-36.191 -123.659)" fill="#ffbe9d"/>
            <path id="Trazado_819025" data-name="Trazado 819025" d="M292.042,376.482c-.1.028-.564-1.643-1.656-4.206a42.876,42.876,0,0,0-2.177-4.373,41.759,41.759,0,0,0-7.33-9.4,42.941,42.941,0,0,0-3.711-3.178c-2.219-1.685-3.726-2.545-3.675-2.632a5.163,5.163,0,0,1,1.1.536,27.987,27.987,0,0,1,2.808,1.784,37.014,37.014,0,0,1,3.829,3.124,38.445,38.445,0,0,1,7.422,9.52,36.954,36.954,0,0,1,2.1,4.475,27.85,27.85,0,0,1,1.045,3.159,5.244,5.244,0,0,1,.253,1.194" transform="translate(-93.145 -120.117)" fill="#eb996e"/>
            <path id="Trazado_819026" data-name="Trazado 819026" d="M135.56,194.549l-23.748,67.586-26.7,7.688s9.679,40.965,19.565,48.323c3.356,2.5,8.853,5.207,14.476,4.815,10.673-.744,22.641-8.268,27.2-18.774,4.053-9.335,14.885-105.866,14.885-105.866Z" transform="translate(-28.988 -66.259)" fill="#ffbe9d"/>
            <path id="Trazado_819027" data-name="Trazado 819027" d="M182.977,172.182l1.383-16.469L180.541,142.5l-1.478-5.057,2.888,2.952,5.269-5.614s-1.71-9.975-3.135-9.975a26.667,26.667,0,0,0-5.333,1.566c-1.085.4-1.89.714-1.89.714l-4.462,2.28,4.462-6.84s4.593,3.822,6.942.5c1.8-2.539-4.9-8.23-7.419-10.237a2.5,2.5,0,0,0-2.049-.491l-2.6.523a3.789,3.789,0,0,0-3.807-3.468,5.852,5.852,0,0,0-4.987,2.988l-2.745.494a4.565,4.565,0,0,0-4.285,2.99l-6.026,16.39,7.734,33.32" transform="translate(-51.048 -37.242)" fill="#ffbe9d"/>
            <path id="Trazado_819028" data-name="Trazado 819028" d="M157.5,165.4s-.069-.2-.171-.591c-.1-.419-.251-1-.437-1.744l-1.61-6.681c-1.373-5.813-3.336-14.128-5.726-24.254l-.014-.063.022-.061,3.765-10.306,2.028-5.542a5.318,5.318,0,0,1,1.691-2.637,4.872,4.872,0,0,1,3.03-1.077l-.046,0,2.744-.5-.185.135a6.716,6.716,0,0,1,2.009-2.168,5.511,5.511,0,0,1,2.87-.951,4.241,4.241,0,0,1,2.952.929,3.6,3.6,0,0,1,1.465,2.8l-.322-.279,1.967-.4a8.678,8.678,0,0,1,1.033-.177,2.791,2.791,0,0,1,1.1.164,3.053,3.053,0,0,1,.942.57l.8.65q.792.659,1.566,1.352a34.883,34.883,0,0,1,2.965,2.967,9.773,9.773,0,0,1,2.239,3.687,2.412,2.412,0,0,1-.032,1.337A3.248,3.248,0,0,1,181,124.514a8.223,8.223,0,0,1-4.432-1.918l.4-.061-4.464,6.838-.348-.386,4.463-2.277.013-.007.011,0c1.505-.571,2.99-1.134,4.49-1.612a19.7,19.7,0,0,1,2.283-.619,1.991,1.991,0,0,1,.669-.04,1.054,1.054,0,0,1,.588.459,5.314,5.314,0,0,1,.55,1.072,52.563,52.563,0,0,1,2.115,8.64l.022.118-.084.09-5.279,5.6-.164.174-.167-.171-2.881-2.959.367-.215c2.028,7.079,3.789,13.227,5.24,18.29l.008.029,0,.029c-.468,5.188-.837,9.3-1.094,12.137-.134,1.384-.238,2.459-.311,3.215-.038.346-.068.618-.091.826a1.392,1.392,0,0,1-.046.278,1.4,1.4,0,0,1,0-.282c.013-.209.028-.482.048-.83.054-.758.131-1.835.229-3.221.221-2.844.541-6.956.946-12.149l.006.057-5.355-18.255-.247-.841.615.626L182,140.1l-.33,0,5.259-5.624-.063.208a52.484,52.484,0,0,0-2.109-8.53,4.83,4.83,0,0,0-.492-.962.641.641,0,0,0-.277-.257,1.814,1.814,0,0,0-.475.044,19.245,19.245,0,0,0-2.212.607c-1.482.475-2.962,1.04-4.456,1.609l.024-.011-4.46,2.284-.9.46.551-.847,4.458-6.842.16-.246.243.185a7.733,7.733,0,0,0,4.1,1.79,2.679,2.679,0,0,0,1.993-.719,2.755,2.755,0,0,0,.619-.855,1.872,1.872,0,0,0,.015-1.035,9.337,9.337,0,0,0-2.118-3.449,34.437,34.437,0,0,0-2.917-2.921q-.765-.687-1.55-1.34a6.783,6.783,0,0,0-1.577-1.129,3.012,3.012,0,0,0-1.844.034l-1.968.394-.332.067.01-.346a3.089,3.089,0,0,0-1.26-2.357,3.7,3.7,0,0,0-2.593-.816,5.5,5.5,0,0,0-4.442,2.83l-.067.114-.118.021-2.745.491-.023,0h-.022a4.359,4.359,0,0,0-2.712.957,4.8,4.8,0,0,0-1.542,2.415q-1.046,2.828-2.046,5.536c-1.334,3.606-2.607,7.045-3.808,10.29l.008-.124c2.314,10.144,4.214,18.474,5.543,24.3.642,2.88,1.147,5.14,1.5,6.708.161.751.286,1.336.376,1.759.082.4.107.606.107.606" transform="translate(-50.931 -37.106)" fill="#eb996e"/>
            <path id="Trazado_819029" data-name="Trazado 819029" d="M190.459,146.994a29.8,29.8,0,0,1,4.618-2.487l1.714-.834-1.425,1.275a4.513,4.513,0,0,0-1.476,3.65,4.622,4.622,0,0,0,.626,1.966,11.269,11.269,0,0,0,1.253,1.517c-.014.053-.816-.237-1.579-1.308a4.634,4.634,0,0,1-.8-2.129,4.795,4.795,0,0,1,1.63-4.1l.289.442a29.793,29.793,0,0,1-4.846,2.005" transform="translate(-64.866 -48.932)" fill="#eb996e"/>
            <path id="Trazado_819030" data-name="Trazado 819030" d="M171.313,127.914a14.123,14.123,0,0,1,1.29-2.485c.857-1.5,2.074-3.549,3.445-5.8.693-1.124,1.334-2.19,1.967-3.157a6.6,6.6,0,0,1,2.181-2.208,3.439,3.439,0,0,1,2.052-.454c.5.063.739.231.726.255-.016.046-.272-.048-.738-.042a3.551,3.551,0,0,0-1.843.575c-1.451.855-2.468,3.1-3.877,5.316-1.373,2.247-2.642,4.265-3.583,5.712a14.281,14.281,0,0,1-1.622,2.283" transform="translate(-58.343 -38.755)" fill="#eb996e"/>
            <path id="Trazado_819031" data-name="Trazado 819031" d="M158.934,127.66a9.679,9.679,0,0,1,.779-2.24c.555-1.352,1.38-3.2,2.369-5.2s1.961-3.773,2.7-5.033a9.614,9.614,0,0,1,1.311-1.976,10.821,10.821,0,0,1-.97,2.16l-2.551,5.092-2.508,5.112a10.8,10.8,0,0,1-1.133,2.08" transform="translate(-54.126 -38.558)" fill="#eb996e"/>
            <path id="Trazado_819032" data-name="Trazado 819032" d="M124.377,287.028a5.784,5.784,0,0,1-.386,1.225c-.328.878-.736,1.972-1.219,3.269-1.039,2.755-2.464,6.565-3.968,10.8s-2.8,8.089-3.733,10.882l-1.116,3.305a5.862,5.862,0,0,1-.473,1.194,5.782,5.782,0,0,1,.268-1.256c.206-.8.531-1.947.95-3.36.838-2.827,2.08-6.708,3.586-10.949s2.991-8.034,4.124-10.757c.566-1.361,1.039-2.456,1.382-3.206a5.8,5.8,0,0,1,.584-1.144" transform="translate(-38.647 -97.755)" fill="#eb996e"/>
            <path id="Trazado_819033" data-name="Trazado 819033" d="M149.928,325.569a1.341,1.341,0,0,1-.023.312c-.032.235-.071.533-.121.907l-.5,3.481c-.23,1.511-.51,3.36-.934,5.493a44.383,44.383,0,0,1-1.984,7.12,23.556,23.556,0,0,1-4.645,7.658A35.037,35.037,0,0,1,133.711,357a43.036,43.036,0,0,1-10.5,4.366,23.259,23.259,0,0,1-5.987.838,18.173,18.173,0,0,1-6.139-1.076,22.614,22.614,0,0,1-9.779-7.226,38.813,38.813,0,0,1-5.665-9.855c-1.378-3.368-2.193-6.722-3.144-9.779s-1.831-5.921-2.638-8.533c-1.63-5.214-2.872-9.459-3.648-12.416-.391-1.478-.677-2.629-.854-3.414-.082-.368-.147-.663-.2-.893a1.34,1.34,0,0,1-.049-.309,1.343,1.343,0,0,1,.1.3c.065.228.148.518.251.88l.953,3.384c.837,2.936,2.135,7.159,3.812,12.356.828,2.607,1.732,5.459,2.7,8.517s1.8,6.4,3.177,9.721a38.554,38.554,0,0,0,5.614,9.706,22.14,22.14,0,0,0,9.547,7.049,17.637,17.637,0,0,0,5.955,1.047,22.763,22.763,0,0,0,5.85-.812,42.831,42.831,0,0,0,10.376-4.281,34.822,34.822,0,0,0,7.928-6.33A23.316,23.316,0,0,0,146,342.741a45.193,45.193,0,0,0,2.046-7.041c.451-2.117.762-3.96,1.023-5.464l.605-3.465c.073-.37.13-.666.175-.9a1.346,1.346,0,0,1,.078-.3" transform="translate(-28.986 -105.136)" fill="#eb996e"/>
          </g>
        </g>
        <g id="Grupo_1072332" data-name="Grupo 1072332">
          <g id="Grupo_1072331" data-name="Grupo 1072331" clip-path="url(#clip-path-6)">
            <path id="Trazado_819034" data-name="Trazado 819034" d="M19.259,349.442a6.388,6.388,0,0,0-3.312-4.23c-1.768-.762-3.816-.328-5.626.329A20.216,20.216,0,0,1,4.813,347.2c-1.922.119-4.091-.793-4.666-2.63-.541-1.728.5-3.569,1.8-4.825a11.6,11.6,0,0,1,10.555-2.868,11.6,11.6,0,0,1,8.1,7.347" transform="translate(0 -114.629)" fill="#8054f8"/>
            <g id="Grupo_1072327" data-name="Grupo 1072327" transform="translate(0 221.944)" opacity="0.5">
              <g id="Grupo_1072326" data-name="Grupo 1072326">
                <g id="Grupo_1072325" data-name="Grupo 1072325" clip-path="url(#clip-path-11)">
                  <path id="Trazado_819035" data-name="Trazado 819035" d="M19.259,349.442a6.388,6.388,0,0,0-3.312-4.23c-1.768-.762-3.816-.328-5.626.329A20.216,20.216,0,0,1,4.813,347.2c-1.922.119-4.091-.793-4.666-2.63-.541-1.728.5-3.569,1.8-4.825a11.6,11.6,0,0,1,10.555-2.868,11.6,11.6,0,0,1,8.1,7.347" transform="translate(0 -336.574)"/>
                </g>
              </g>
            </g>
            <path id="Trazado_819036" data-name="Trazado 819036" d="M37.6,356.39c2.82-2.679,2.679-7.341,1.272-10.967a16.616,16.616,0,0,0-7.9-8.244,25.032,25.032,0,0,0-21.818-.707,10.353,10.353,0,0,1,8.373,4.916c1.546,2.566,1.889,5.68,3.165,8.391A13.208,13.208,0,0,0,37.6,356.39" transform="translate(-3.116 -113.858)" fill="#8054f8"/>
            <path id="Trazado_819037" data-name="Trazado 819037" d="M46.6,319.417c3.121-3.685,3.537-9.6,3.078-14.407s-1.574-9.645-.816-14.414c.449-2.826,1.545-5.523,1.916-8.36s-.155-6.045-2.353-7.876c-2.526-2.1-6.5-1.608-9.133.368s-4.151,5.081-5.264,8.175c-2.445,6.8-3.343,14.337-1.334,21.276s6.721,13.144,13.635,15.239" transform="translate(-10.757 -92.976)" fill="#8054f8"/>
            <path id="Trazado_819038" data-name="Trazado 819038" d="M46.3,371.789a2.591,2.591,0,0,0,.012-.425c0-.278,0-.689-.023-1.217-.04-1.057-.142-2.586-.379-4.463a59.583,59.583,0,0,0-1.2-6.535,30.106,30.106,0,0,0-2.982-7.566,31.517,31.517,0,0,0-4.874-6.515,31.022,31.022,0,0,0-5.109-4.249c-.779-.539-1.534-.948-2.183-1.327-.665-.35-1.247-.636-1.723-.866l-1.123-.472a2.545,2.545,0,0,0-.4-.148,2.716,2.716,0,0,0,.377.2l1.1.515c.468.243,1.04.542,1.7.9.639.39,1.383.807,2.151,1.353A32.108,32.108,0,0,1,41.5,351.709c2.87,5.021,3.656,10.3,4.226,14,.259,1.868.389,3.391.46,4.444q.045.763.071,1.213a2.593,2.593,0,0,0,.04.423" transform="translate(-8.964 -115.117)" fill="#263238"/>
            <path id="Trazado_819039" data-name="Trazado 819039" d="M89.726,321.348C95.5,324.833,95.483,328,94.519,331s-4.509,5.074-7.448,3.953a9.117,9.117,0,0,1-3.893-3.529,16.309,16.309,0,0,0-3.434-4.046c-1.441-1.043-3.529-1.441-4.976-.408" transform="translate(-25.465 -109.444)" fill="#8054f8"/>
            <g id="Grupo_1072330" data-name="Grupo 1072330" transform="translate(49.304 211.904)" opacity="0.5">
              <g id="Grupo_1072329" data-name="Grupo 1072329">
                <g id="Grupo_1072328" data-name="Grupo 1072328" clip-path="url(#clip-path-12)">
                  <path id="Trazado_819040" data-name="Trazado 819040" d="M89.726,321.348C95.5,324.833,95.483,328,94.519,331s-4.509,5.074-7.448,3.953a9.117,9.117,0,0,1-3.893-3.529,16.309,16.309,0,0,0-3.434-4.046c-1.441-1.043-3.529-1.441-4.976-.408" transform="translate(-74.769 -321.348)"/>
                </g>
              </g>
            </g>
            <path id="Trazado_819041" data-name="Trazado 819041" d="M89.421,323.1c-1.51-2.086-5.24-2.691-7.6-1.65s-4.081,3.106-5.626,5.167-3.048,4.237-5.188,5.672-5.128,1.953-7.26.508a6.24,6.24,0,0,1-2.466-4.27,14.219,14.219,0,0,1,.34-5.035c.509-2.422,1.341-4.952,3.28-6.491,2.16-1.716,5.157-1.8,7.914-1.707a29.652,29.652,0,0,1,9.343,1.438,12.973,12.973,0,0,1,7.259,6.368" transform="translate(-20.837 -107.374)" fill="#8054f8"/>
            <path id="Trazado_819042" data-name="Trazado 819042" d="M63.891,359.751a.458.458,0,0,0,.016-.127c0-.1.011-.222.019-.373.012-.348.029-.828.05-1.434l.151-5.272c.07-2.225.161-4.874.321-7.812s.382-6.168.828-9.53a30.75,30.75,0,0,1,.957-4.84A25.2,25.2,0,0,1,68,326.13a24.431,24.431,0,0,1,2.233-3.505,22.851,22.851,0,0,1,2.438-2.677A17.936,17.936,0,0,1,77,317c.282-.129.528-.256.749-.346l.564-.219.346-.14a.494.494,0,0,0,.115-.056.457.457,0,0,0-.123.031l-.355.116-.575.2c-.226.082-.476.2-.763.326a17.269,17.269,0,0,0-4.4,2.9,22.515,22.515,0,0,0-2.485,2.681,24.233,24.233,0,0,0-2.274,3.525,25.052,25.052,0,0,0-1.8,4.271,30.555,30.555,0,0,0-.971,4.88c-.447,3.376-.658,6.611-.81,9.552s-.22,5.593-.266,7.82-.063,4.029-.069,5.275c0,.607,0,1.086,0,1.434,0,.152,0,.274.006.373a.481.481,0,0,0,.011.127" transform="translate(-21.754 -107.704)" fill="#263238"/>
            <path id="Trazado_819043" data-name="Trazado 819043" d="M56.4,353.268a16.584,16.584,0,0,0,.632-2.48,26.064,26.064,0,0,0,.265-6.968,46.322,46.322,0,0,0-2.2-10.11c-1.185-3.716-2.795-7.69-4.169-11.961a55,55,0,0,1-1.658-6.328,56.484,56.484,0,0,1-.819-6.038,88.231,88.231,0,0,1-.184-10.325c.1-2.941.256-5.32.353-6.963.047-.81.085-1.444.111-1.893.01-.206.017-.368.023-.493a.794.794,0,0,0,0-.168.787.787,0,0,0-.026.167c-.012.124-.028.286-.048.491-.038.448-.092,1.082-.16,1.89-.129,1.642-.313,4.019-.436,6.964a85.244,85.244,0,0,0,.129,10.351,55.862,55.862,0,0,0,.808,6.067,54.564,54.564,0,0,0,1.661,6.358c1.379,4.284,2.994,8.253,4.189,11.955a47.077,47.077,0,0,1,2.245,10.053,26.919,26.919,0,0,1-.182,6.934c-.142.808-.272,1.435-.386,1.852-.048.2-.087.358-.117.479a.812.812,0,0,0-.031.165" transform="translate(-16.344 -98.611)" fill="#263238"/>
            <path id="Trazado_819044" data-name="Trazado 819044" d="M39.035,387.444H66.153l.619-5.219H39.035Z" transform="translate(-13.294 -130.177)" fill="#455a64"/>
            <path id="Trazado_819045" data-name="Trazado 819045" d="M64.746,389.238,61.355,404.9H46.62l-3.172-15.658Z" transform="translate(-14.797 -132.565)" fill="#455a64"/>
            <path id="Trazado_819046" data-name="Trazado 819046" d="M39.036,390.05c0,.071,5.963.113,13.315.092s13.316-.095,13.316-.166-5.961-.113-13.316-.092-13.314.095-13.314.166" transform="translate(-13.295 -132.784)" fill="#455a64"/>
            <path id="Trazado_819047" data-name="Trazado 819047" d="M46.093,400.726a11.177,11.177,0,0,1,2.388-1.369,8.447,8.447,0,0,1,2.9-.583,10.223,10.223,0,0,1,3.57.655c1.236.418,2.39.9,3.515,1.172a8.375,8.375,0,0,0,3.037.092,6.254,6.254,0,0,0,1.952-.619,3.806,3.806,0,0,0,.471-.3c.1-.077.152-.12.147-.127s-.231.134-.662.336a6.849,6.849,0,0,1-1.933.528,8.525,8.525,0,0,1-2.959-.143c-1.085-.271-2.239-.763-3.485-1.185a10.142,10.142,0,0,0-3.659-.648,8.311,8.311,0,0,0-2.967.651,7.7,7.7,0,0,0-1.767,1.031,4.483,4.483,0,0,0-.421.363c-.092.088-.137.137-.131.144" transform="translate(-15.698 -135.73)" fill="#263238"/>
            <path id="Trazado_819048" data-name="Trazado 819048" d="M46.4,402.324a11.807,11.807,0,0,1,2.293-1.351,7.78,7.78,0,0,1,2.8-.577,10.078,10.078,0,0,1,3.454.621c1.194.4,2.315.863,3.386,1.151a8.7,8.7,0,0,0,2.919.328,4.94,4.94,0,0,0,1.913-.512,3.471,3.471,0,0,0,.456-.289c.1-.075.147-.117.142-.124s-.224.131-.642.322a5.261,5.261,0,0,1-1.881.421,8.909,8.909,0,0,1-2.843-.375c-1.048-.295-2.161-.762-3.369-1.167a10,10,0,0,0-3.541-.614,7.666,7.666,0,0,0-2.866.647,7.586,7.586,0,0,0-1.693,1.024,4.873,4.873,0,0,0-.4.354c-.088.086-.131.134-.125.14" transform="translate(-15.804 -136.283)" fill="#fff"/>
            <path id="Trazado_819049" data-name="Trazado 819049" d="M45.686,399.037a12.83,12.83,0,0,1,2.452-1.445,9.015,9.015,0,0,1,2.977-.716,9.626,9.626,0,0,1,3.684.65,33.142,33.142,0,0,0,3.639,1.188,9.263,9.263,0,0,0,3.137.005,7.028,7.028,0,0,0,2.015-.638,3.669,3.669,0,0,0,.489-.3c.106-.078.158-.123.153-.13s-.239.139-.686.343a7.753,7.753,0,0,1-2,.548,9.466,9.466,0,0,1-3.063-.058,36.963,36.963,0,0,1-3.6-1.2,9.606,9.606,0,0,0-3.782-.642,9.129,9.129,0,0,0-4.845,1.875,4.954,4.954,0,0,0-.435.375c-.094.091-.141.142-.135.148" transform="translate(-15.559 -135.08)" fill="#fff"/>
            <path id="Trazado_819050" data-name="Trazado 819050" d="M38.672,390.106c0,.071,6.1.129,13.623.129s13.625-.058,13.625-.129-6.1-.129-13.625-.129-13.623.058-13.623.129" transform="translate(-13.171 -132.817)" fill="#263238"/>
          </g>
        </g>
      </g>
    </g>
  </g>
</svg>
