<svg xmlns="http://www.w3.org/2000/svg" width="295" height="214.926" viewBox="0 0 295 214.926">
  <g id="Grupo_1072428" data-name="Grupo 1072428" transform="translate(-1125 -1523)">
    <g id="Grupo_1072021" data-name="Grupo 1072021" transform="translate(1125 1523)">
      <rect id="web-AdobeStock_200818697" width="272.714" height="198.883" rx="13" transform="translate(0 0)" fill="#f0f8f7"/>
      <path id="Sustracci贸n_1" data-name="Sustracci贸n 1" d="M116.486,58.9H0v-.365a59.23,59.23,0,0,1,1.183-11.8A58.474,58.474,0,0,1,35.574,4.6a58.069,58.069,0,0,1,45.34,0,58.251,58.251,0,0,1,9.894,5.393,58.552,58.552,0,0,1,25.68,48.539c0,.12,0,.239,0,.355v.01Z" transform="translate(0 156.028)" fill="#8054f8"/>
      <g id="Grupo_1071549" data-name="Grupo 1071549" transform="translate(243.527 0)">
        <path id="Sustracci贸n_2" data-name="Sustracci贸n 2" d="M103.065,0H0V.323A51.124,51.124,0,0,0,1.048,10.631a50.569,50.569,0,0,0,3,9.6A50.975,50.975,0,0,0,8.8,28.923a51.539,51.539,0,0,0,6.294,7.569,51.823,51.823,0,0,0,7.627,6.245,51.5,51.5,0,0,0,8.753,4.716,51.518,51.518,0,0,0,9.676,2.981,52.155,52.155,0,0,0,10.384,1.039,52.124,52.124,0,0,0,10.386-1.039,51.324,51.324,0,0,0,9.675-2.981,51.578,51.578,0,0,0,8.753-4.716,51.843,51.843,0,0,0,7.626-6.245,51.66,51.66,0,0,0,6.294-7.569,50.832,50.832,0,0,0,4.749-8.689,50.583,50.583,0,0,0,3.007-9.6A51.157,51.157,0,0,0,103.068.323c0-.106,0-.211,0-.315V0Z" transform="translate(51.473 28.737) rotate(90)" fill="#d8dcfc"/>
        <path id="Trazado_818001" data-name="Trazado 818001" d="M345.794,448.2a3.777,3.777,0,0,1-1.11,2.679l-3.835,3.834,3.835,3.834a3.79,3.79,0,0,1-5.359,5.359l-3.834-3.834-3.834,3.834a3.789,3.789,0,0,1-5.358-5.359l3.834-3.834-3.834-3.834a3.789,3.789,0,0,1,0-5.358h0a3.789,3.789,0,0,1,5.358,0l3.834,3.834,3.834-3.834a3.791,3.791,0,0,1,5.359,0h0a3.777,3.777,0,0,1,1.11,2.679Z" transform="translate(-294.321 -444.408)" fill="#8054f8"/>
      </g>
    </g>
    <g id="conexion_1_" data-name="conexion (1)" transform="translate(1152.998 1503.704)">
      <path id="Trazado_819354" data-name="Trazado 819354" d="M71.144,45.427a16.229,16.229,0,0,1,1.8,3.936,16.525,16.525,0,1,1-1.8-3.936Z" transform="translate(-16.942 -9.074)" fill="#a5e2fb"/>
      <path id="Trazado_819355" data-name="Trazado 819355" d="M334.572,347.686A18.865,18.865,0,1,1,318,337.84,18.865,18.865,0,0,1,334.572,347.686Z" transform="translate(-159.964 -175.13)" fill="#4689d3"/>
      <circle id="Elipse_4798" data-name="Elipse 4798" cx="16.498" cy="16.498" r="16.498" transform="translate(23.73 28.623)" fill="#a5e2fb"/>
      <circle id="Elipse_4799" data-name="Elipse 4799" cx="15.317" cy="15.317" r="15.317" transform="translate(12.682 197.685)" fill="#53d8d8"/>
      <circle id="Elipse_4800" data-name="Elipse 4800" cx="14.502" cy="14.502" r="14.502" transform="translate(116.256 23.978)" fill="#f3ce7d"/>
      <circle id="Elipse_4801" data-name="Elipse 4801" cx="10.095" cy="10.095" r="10.095" transform="translate(66.604 114.548)" fill="#5fcda4"/>
      <circle id="Elipse_4802" data-name="Elipse 4802" cx="10.747" cy="10.747" r="10.747" transform="translate(128.458 95.816)" fill="#6994fe"/>
      <circle id="Elipse_4803" data-name="Elipse 4803" cx="12.053" cy="12.053" r="12.053" transform="translate(203.013 94.405)" fill="#8f8fb7"/>
      <path id="Trazado_819356" data-name="Trazado 819356" d="M52.345,54.188a16.5,16.5,0,0,1,10.69-15.443,16.5,16.5,0,1,0,0,30.886A16.5,16.5,0,0,1,52.345,54.188Z" transform="translate(-17 -9.067)" fill="#85bbcc"/>
      <path id="Trazado_819357" data-name="Trazado 819357" d="M27.613,431.442a15.319,15.319,0,0,1,9.509-14.174,15.317,15.317,0,1,0,0,28.349A15.319,15.319,0,0,1,27.613,431.442Z" transform="translate(-3.316 -218.439)" fill="#44aaa7"/>
      <g id="Grupo_1072427" data-name="Grupo 1072427" transform="translate(10.002 21.296)">
        <path id="Trazado_819358" data-name="Trazado 819358" d="M76.509,197.487c.07.006.139.008.208.008a2.681,2.681,0,0,0,2.67-2.475l.223-2.923a2.681,2.681,0,1,0-5.345-.411l-.223,2.923A2.681,2.681,0,0,0,76.509,197.487Z" transform="translate(-45.428 -114.196)" fill="#284268"/>
        <path id="Trazado_819359" data-name="Trazado 819359" d="M66.493,260.559a2.68,2.68,0,0,0,2.939-2.395l3.624-35.55a2.681,2.681,0,0,0-5.334-.543L64.1,257.621a2.681,2.681,0,0,0,2.395,2.939h0Z" transform="translate(-39.923 -131.044)" fill="#284268"/>
        <path id="Trazado_819360" data-name="Trazado 819360" d="M215.065,91.724a14.709,14.709,0,0,0-3.817.5L147.889,37.213a17.178,17.178,0,0,0-33.624-3.54H55.6A19.172,19.172,0,1,0,30.7,61.755L18.962,197.449A17.993,17.993,0,1,0,44.6,219.933l96.83-24.637a21.535,21.535,0,0,0,36.3-22.438l38.727-51.735a14.732,14.732,0,0,0-1.393-29.4ZM147.141,43.662l58.91,51.152a14.745,14.745,0,0,0-5.469,8.967l-48.219.1a13.464,13.464,0,0,0-10.707-10.514l-3.887-39.2a17.27,17.27,0,0,0,9.371-10.5Zm.13,62.9A8.066,8.066,0,1,1,139.2,98.5,8.066,8.066,0,0,1,147.271,106.564Zm-16.513-79.9a11.822,11.822,0,1,1-11.822,11.823h0a11.835,11.835,0,0,1,11.822-11.822ZM113.59,39.034a17.184,17.184,0,0,0,17.73,16.62q.6-.019,1.2-.081l3.753,37.889a13.367,13.367,0,0,0-4.75,2.1L58.76,39.034ZM59.366,46.292l68.45,53.17a13.371,13.371,0,0,0-1.71,10.046L87.725,118.2a12.769,12.769,0,0,0-14.791-5.77L50.38,61.38a19.188,19.188,0,0,0,8.986-15.087Zm24.75,78.351a7.416,7.416,0,1,1-7.416-7.416,7.416,7.416,0,0,1,7.416,7.416ZM26.41,45.121A13.817,13.817,0,1,1,40.228,58.937h0A13.833,13.833,0,0,1,26.41,45.121Zm9.5,18.681a19.059,19.059,0,0,0,9.576-.241l22.759,51.519a12.754,12.754,0,0,0,.374,19.449L34.543,196.242a17.92,17.92,0,0,0-10.019-.9ZM28,225.638A12.637,12.637,0,1,1,40.635,213h0A12.651,12.651,0,0,1,28,225.638Zm110.295-35.445L45.964,214.04c.019-.344.032-.689.032-1.038a17.97,17.97,0,0,0-6.808-14.08l34.2-61.941a12.739,12.739,0,0,0,11.743-2.75l55.959,34.061a21.479,21.479,0,0,0-2.794,21.9ZM88.335,129.907a12.7,12.7,0,0,0,1.142-5.264,12.838,12.838,0,0,0-.069-1.324l38.874-8.976a13.4,13.4,0,0,0,13.005,5.485l13.921,40.39a21.432,21.432,0,0,0-10.181,4.193Zm69.7,67.852a16.185,16.185,0,1,1,16.185-16.185h0A16.2,16.2,0,0,1,158.033,197.758Zm16.676-29.809a21.533,21.533,0,0,0-13.564-7.684l-14.838-42.314a13.464,13.464,0,0,0,6.056-8.711l48.219-.1A14.779,14.779,0,0,0,210.3,120.4Zm40.356-52.12a9.372,9.372,0,1,1,9.372-9.372h0A9.382,9.382,0,0,1,215.065,115.829Z" transform="translate(-10.002 -21.296)" fill="#284268"/>
      </g>
    </g>
  </g>
</svg>
