<svg xmlns="http://www.w3.org/2000/svg" width="400" height="149" viewBox="0 0 400 149">
  <g id="Grupo_1072005" data-name="Grupo 1072005" transform="translate(-1020 -2078)">
    <g id="Grupo_1071913" data-name="Grupo 1071913" transform="translate(0 36.484)">
      <rect id="Rectángulo_381506" data-name="Rectángulo 381506" width="400" height="113" transform="translate(1020 2077.516)" fill="#f0f8f7"/>
    </g>
    <g id="Grupo_1071914" data-name="Grupo 1071914" transform="translate(1151.5 2077.971)">
      <path id="Trazado_813500" data-name="Trazado 813500" d="M68,0a68,68,0,1,0,68,68A68,68,0,0,0,68,0Z" transform="translate(0.5 0.029)" fill="#8054f8"/>
      <g id="algoritmo_1_" data-name="algoritmo (1)" transform="translate(20.094 22.896)">
        <g id="Grupo_1072363" data-name="Grupo 1072363" transform="translate(33.884 1.614)">
          <path id="Trazado_819173" data-name="Trazado 819173" d="M168,8h29.043v9.681H168Zm0,0" transform="translate(-168 -8)" fill="#cf71fb"/>
          <path id="Trazado_819174" data-name="Trazado 819174" d="M168,96h29.043v9.681H168Zm0,0" transform="translate(-168 -78.251)" fill="#cf71fb"/>
          <path id="Trazado_819175" data-name="Trazado 819175" d="M168,320h29.043v9.681H168Zm0,0" transform="translate(-168 -257.073)" fill="#cf71fb"/>
        </g>
        <path id="Trazado_819176" data-name="Trazado 819176" d="M183.43,186.842l11.409-11.409,11.41,11.409-11.41,11.409Zm0,0" transform="translate(-146.434 -140.05)" fill="#f96437"/>
        <path id="Trazado_819177" data-name="Trazado 819177" d="M211.362,417.681A9.681,9.681,0,1,1,201.681,408,9.682,9.682,0,0,1,211.362,417.681Zm0,0" transform="translate(-153.276 -325.711)" fill="#fddf81"/>
        <path id="Trazado_819178" data-name="Trazado 819178" d="M20.908,206.454A6.454,6.454,0,1,1,14.454,200,6.454,6.454,0,0,1,20.908,206.454Zm0,0" transform="translate(-6.386 -159.662)" fill="#fddf81"/>
        <path id="Trazado_819179" data-name="Trazado 819179" d="M420.908,94.454A6.454,6.454,0,1,1,414.454,88,6.454,6.454,0,0,1,420.908,94.454Zm0,0" transform="translate(-325.711 -70.251)" fill="#fddf81"/>
        <path id="Trazado_819180" data-name="Trazado 819180" d="M96,224h3.227v3.227H96Zm0,0" transform="translate(-76.638 -178.821)"/>
        <path id="Trazado_819181" data-name="Trazado 819181" d="M128,224h3.227v3.227H128Zm0,0" transform="translate(-102.184 -178.821)"/>
        <path id="Trazado_819182" data-name="Trazado 819182" d="M90.357,16.3V6.454a1.612,1.612,0,0,0-1.614-1.614h-24.2V1.614A1.612,1.612,0,0,0,62.927,0H33.884A1.612,1.612,0,0,0,32.27,1.614V4.841H20.976a1.612,1.612,0,0,0-1.614,1.614V22.589H8.068A1.612,1.612,0,0,0,6.454,24.2V38.888a8.067,8.067,0,0,0,0,15.809V69.381a1.612,1.612,0,0,0,1.614,1.614h24.2v3.227a1.612,1.612,0,0,0,1.614,1.614H46.792v4.97A11.287,11.287,0,1,0,59.571,93.584H77.449a1.612,1.612,0,0,0,1.614-1.614V48.406h9.681a1.612,1.612,0,0,0,1.614-1.614V32.107a8.067,8.067,0,0,0,0-15.809ZM35.5,3.227H61.314V9.681H35.5ZM22.589,8.068H32.27v3.227a1.612,1.612,0,0,0,1.614,1.614H46.792v4.841H33.884a1.612,1.612,0,0,0-1.614,1.614v3.227H22.589ZM61.314,20.976V27.43H35.5V20.976ZM3.227,46.792a4.841,4.841,0,1,1,4.841,4.841A4.847,4.847,0,0,1,3.227,46.792ZM32.27,64.541v3.227H9.681V54.7a8.067,8.067,0,0,0,0-15.809V25.816H32.27v3.227a1.612,1.612,0,0,0,1.614,1.614H46.792v4.058L36.329,45.179H32.27v3.227h4.058L46.792,58.869v4.058H33.884A1.612,1.612,0,0,0,32.27,64.541ZM48.406,37.664l9.128,9.128L48.406,55.92l-9.128-9.128ZM35.5,66.154H61.314v6.454H35.5Zm12.908,33.884a8.068,8.068,0,1,1,8.068-8.068A8.077,8.077,0,0,1,48.406,100.038Zm27.43-9.681H59.571A11.307,11.307,0,0,0,50.019,80.8V75.835H62.927a1.612,1.612,0,0,0,1.614-1.614V64.541a1.612,1.612,0,0,0-1.614-1.614H50.019V58.869L60.483,48.406H75.835ZM87.13,45.179H60.483L50.019,34.715V30.657H62.927a1.612,1.612,0,0,0,1.614-1.614V19.362a1.612,1.612,0,0,0-1.614-1.614H50.019V12.908H62.927a1.612,1.612,0,0,0,1.614-1.614V8.068H87.13V16.3a8.067,8.067,0,0,0,0,15.809Zm1.614-16.135A4.841,4.841,0,1,1,93.584,24.2,4.847,4.847,0,0,1,88.744,29.043Zm0,0"/>
      </g>
    </g>
  </g>
</svg>
