<svg xmlns="http://www.w3.org/2000/svg" xmlns:xlink="http://www.w3.org/1999/xlink" width="295.473" height="330" viewBox="0 0 295.473 330">
  <defs>
    <clipPath id="clip-path">
      <rect id="Rectángulo_381789" data-name="Rectángulo 381789" width="263.258" height="321" fill="none"/>
    </clipPath>
    <clipPath id="clip-path-3">
      <rect id="Rectángulo_381785" data-name="Rectángulo 381785" width="50.337" height="30.414" fill="none"/>
    </clipPath>
    <clipPath id="clip-path-4">
      <rect id="Rectángulo_381786" data-name="Rectángulo 381786" width="110.898" height="43.62" fill="none"/>
    </clipPath>
    <clipPath id="clip-path-5">
      <rect id="Rectángulo_381787" data-name="Rectángulo 381787" width="26.856" height="35.343" fill="none"/>
    </clipPath>
  </defs>
  <g id="Grupo_1072362" data-name="Grupo 1072362" transform="translate(-1125 -8938)">
    <g id="Grupo_1071872" data-name="Grupo 1071872" transform="translate(1125 8938)">
      <rect id="web-AdobeStock_200818697" width="272.714" height="313.958" rx="13" transform="translate(22)" fill="#f0f8f7"/>
      <g id="Grupo_1071549" data-name="Grupo 1071549" transform="translate(0 0)">
        <path id="Sustracción_2" data-name="Sustracción 2" d="M103.065,51.473H0V51.15A51.124,51.124,0,0,1,1.048,40.842,50.658,50.658,0,0,1,8.8,22.55,51.551,51.551,0,0,1,41.15,1.039a52.409,52.409,0,0,1,20.769,0,51.456,51.456,0,0,1,18.427,7.7A51.657,51.657,0,0,1,94.266,22.55a50.642,50.642,0,0,1,8.8,28.6c0,.106,0,.211,0,.315v.009Z" transform="translate(51.473 28.737) rotate(90)" fill="#d8dcfc"/>
        <path id="Sustracción_10" data-name="Sustracción 10" d="M229.062,114.473H0v-.719A113.769,113.769,0,0,1,2.329,90.831,112.7,112.7,0,0,1,19.56,50.151a114.555,114.555,0,0,1,71.9-47.84,116.4,116.4,0,0,1,46.16,0A114.32,114.32,0,0,1,178.57,19.427a114.843,114.843,0,0,1,30.936,30.723,112.679,112.679,0,0,1,19.562,63.6c0,.235-.006.469-.006.7v.019Z" transform="translate(181 257.806) rotate(-90)" fill="#98d1ca"/>
        <path id="Trazado_818001" data-name="Trazado 818001" d="M325.19,448.2a3.777,3.777,0,0,0,1.11,2.679l3.835,3.834-3.835,3.834a3.79,3.79,0,0,0,5.359,5.359l3.834-3.834,3.834,3.834a3.789,3.789,0,0,0,5.358-5.359l-3.834-3.834,3.834-3.834a3.789,3.789,0,0,0,0-5.358h0a3.789,3.789,0,0,0-5.358,0l-3.834,3.834-3.834-3.834a3.791,3.791,0,0,0-5.359,0h0a3.777,3.777,0,0,0-1.11,2.679Z" transform="translate(-325.19 -444.408)" fill="#8054f8"/>
      </g>
    </g>
    <g id="Grupo_1072361" data-name="Grupo 1072361" transform="translate(1141 8947)">
      <g id="Grupo_1072360" data-name="Grupo 1072360" clip-path="url(#clip-path)">
        <g id="Grupo_1072359" data-name="Grupo 1072359">
          <g id="Grupo_1072358" data-name="Grupo 1072358" clip-path="url(#clip-path)">
            <path id="Trazado_819124" data-name="Trazado 819124" d="M126.623,8.42a9.618,9.618,0,0,0-9.734-5.38,13.148,13.148,0,0,0-16.183-.5,11.693,11.693,0,0,0-18.094,8.674,10.04,10.04,0,0,0-10.452,4.639,10.04,10.04,0,0,0,1.11,11.381,9.726,9.726,0,0,0-6.812,10.594,9.726,9.726,0,0,0,9.856,7.843L124.327,19.3a9.614,9.614,0,0,0,2.3-10.882" transform="translate(27.26 0)" fill="#263238"/>
            <path id="Trazado_819125" data-name="Trazado 819125" d="M73.983,43.355A39.843,39.843,0,0,1,115.471,8.732l2.061.1c22.156,2.4,32.495,22.561,29.481,44.642l-6.895,73.837-.371,3.584-51.788,7.73,1.01-18.856s-21.2-4.384-20.4-25.754c.385-10.322,2.908-31.51,5.413-50.663" transform="translate(28.163 3.567)" fill="#ffc09d"/>
            <path id="Trazado_819126" data-name="Trazado 819126" d="M82.947,89.373a51.869,51.869,0,0,0,28.392-6.8s-7.345,15.044-28.561,12.061Z" transform="translate(34.01 33.926)" fill="#ff9b6c"/>
            <path id="Trazado_819127" data-name="Trazado 819127" d="M75.686,48.739a3.056,3.056,0,0,0,2.788,3.224,2.922,2.922,0,0,0,3.28-2.595,3.056,3.056,0,0,0-2.784-3.225,2.924,2.924,0,0,0-3.284,2.6" transform="translate(31.092 18.951)" fill="#263238"/>
            <path id="Trazado_819128" data-name="Trazado 819128" d="M75.3,41.677c.358.416,2.753-1.179,6.036-1.007,3.28.124,5.605,1.933,5.981,1.549.185-.169-.165-.907-1.177-1.723a8.382,8.382,0,0,0-4.763-1.731,8.05,8.05,0,0,0-4.829,1.3c-1.048.724-1.425,1.426-1.247,1.614" transform="translate(30.92 15.924)" fill="#263238"/>
            <path id="Trazado_819129" data-name="Trazado 819129" d="M96.217,50.134A3.053,3.053,0,0,0,99,53.356a2.919,2.919,0,0,0,3.28-2.593A3.056,3.056,0,0,0,99.5,47.538a2.922,2.922,0,0,0-3.283,2.6" transform="translate(39.527 19.524)" fill="#263238"/>
            <path id="Trazado_819130" data-name="Trazado 819130" d="M98.144,43.247c.358.416,2.757-1.178,6.037-1.006,3.28.124,5.605,1.933,5.981,1.548.183-.169-.162-.906-1.177-1.721a8.372,8.372,0,0,0-4.763-1.733,8.05,8.05,0,0,0-4.829,1.3c-1.045.725-1.425,1.428-1.249,1.614" transform="translate(40.306 16.569)" fill="#263238"/>
            <path id="Trazado_819131" data-name="Trazado 819131" d="M91.234,67.173c.025-.186-2-.641-5.282-1.227-.834-.127-1.62-.333-1.733-.913a4.282,4.282,0,0,1,.683-2.456q1.333-2.984,2.8-6.259c3.894-8.915,6.755-16.263,6.4-16.417s-3.809,6.947-7.7,15.864q-1.409,3.3-2.693,6.3a4.858,4.858,0,0,0-.6,3.268,2.107,2.107,0,0,0,1.318,1.294,5.688,5.688,0,0,0,1.412.268c3.318.344,5.381.461,5.4.277" transform="translate(34.096 16.393)" fill="#263238"/>
            <path id="Trazado_819132" data-name="Trazado 819132" d="M98.771,61.179c-.532-.058-.717,3.5-3.891,5.882s-6.947,1.8-7,2.293c-.061.222.811.735,2.413.858A8.875,8.875,0,0,0,96.125,68.5a7.732,7.732,0,0,0,3.033-4.944c.21-1.483-.142-2.384-.388-2.376" transform="translate(36.105 25.136)" fill="#263238"/>
            <path id="Trazado_819133" data-name="Trazado 819133" d="M97.988,33.88c.279.909,3.578.648,7.4,1.3,3.842.578,6.891,1.861,7.442,1.085.245-.371-.254-1.237-1.466-2.164a13.073,13.073,0,0,0-11.311-1.82c-1.442.5-2.188,1.165-2.07,1.6" transform="translate(40.254 13.031)" fill="#263238"/>
            <path id="Trazado_819134" data-name="Trazado 819134" d="M75.328,35.047c.54.775,2.839.113,5.56.212,2.724,0,5,.751,5.564,0,.251-.367-.073-1.133-1.044-1.888a8.057,8.057,0,0,0-8.965-.168c-1,.718-1.353,1.472-1.116,1.847" transform="translate(30.92 13.115)" fill="#263238"/>
            <path id="Trazado_819135" data-name="Trazado 819135" d="M74.2,34.461s6.3-13.1,12.9-15.9c8-3.39,10.931,5.347,18.475,3.636s15.178-4.965,22.5,1.165c8.009,6.709,3.891,10.931,3.935,20.435.175,38.524,6.651,49.738,9.547,31.74.316-1.972,5.9-3.276,7.129-11.611,1.6-10.81,2.669-23.979.629-31.808-1.721-6.6-5.2-11.273-11.6-16.552-10.1-8.333-24.494-9.217-34.325-8.718S74.142,17.669,74.2,34.461" transform="translate(30.486 2.769)" fill="#263238"/>
            <path id="Trazado_819136" data-name="Trazado 819136" d="M121.413,56.6a5.8,5.8,0,0,1,6.536-5.277c3.965.577,8.285,3.06,7.613,11.277-1.192,14.58-15.583,10.375-15.573,9.955.006-.285.871-9.859,1.424-15.955" transform="translate(49.299 21.062)" fill="#ffc09d"/>
            <path id="Trazado_819137" data-name="Trazado 819137" d="M122.56,65.946c.068-.041.24.2.653.43a2.55,2.55,0,0,0,1.895.195c1.586-.44,3.083-2.778,3.369-5.4a8.407,8.407,0,0,0-.415-3.694,2.94,2.94,0,0,0-1.751-2.105,1.294,1.294,0,0,0-1.555.573c-.229.391-.161.69-.24.708-.044.034-.292-.269-.127-.862a1.631,1.631,0,0,1,.649-.866,1.931,1.931,0,0,1,1.435-.257,3.584,3.584,0,0,1,2.468,2.477,8.635,8.635,0,0,1,.549,4.135c-.333,2.93-2.063,5.556-4.22,5.993a2.734,2.734,0,0,1-2.291-.576c-.422-.4-.471-.729-.419-.752" transform="translate(50.348 22.445)" fill="#ff9b6c"/>
            <path id="Trazado_819138" data-name="Trazado 819138" d="M138.19,48.038c-1.961,1.2-4.031,2.435-6.326,2.548s-4.845-1.329-5.117-3.612c-.123-1.026.183-2.192-.444-3.011-.752-.978-2.238-.756-3.468-.687a9.333,9.333,0,0,1-9.341-7.163c-1.163,1.567-3.687,1.371-5.272.233s-2.555-2.919-3.766-4.451-2.943-2.935-4.887-2.755c-1.086.1-2.129.691-3.21.542-1.91-.267-2.734-2.558-2.93-4.475s-.31-4.149-1.883-5.265c-1.457-1.033-3.435-.576-5.213-.4s-4.036-.356-4.4-2.1a3.47,3.47,0,0,1,.786-2.616,9.468,9.468,0,0,1,11.34-3.026,12.833,12.833,0,0,1,23.674-1.314,13.025,13.025,0,0,1,20.559,5.776A9.44,9.44,0,0,1,148.236,30.5c2.551,1.631,4.667,4.35,4.571,7.376s-3.19,5.89-6.067,4.949a5.228,5.228,0,0,1-9.289,4.76" transform="translate(33.642 1.319)" fill="#263238"/>
            <path id="Trazado_819139" data-name="Trazado 819139" d="M134.889,31.3c.052-.037.209,1.24-1.05,2.761a4.694,4.694,0,0,1-3.012,1.6,5.067,5.067,0,0,1-4.1-1.417l.622-.062a14.585,14.585,0,0,1-3.1,3.5,8.387,8.387,0,0,1-2.743,1.522,6.49,6.49,0,0,1-7.047-2.5,8.422,8.422,0,0,1-1.03-3.1,2.893,2.893,0,0,1-.055-1.187c.065-.01.168.4.375,1.117a9.83,9.83,0,0,0,1.211,2.844c1.28,2.163,5.735,3.457,8.764.641a14.651,14.651,0,0,0,2.949-3.275l.278-.418.344.356a4.44,4.44,0,0,0,3.465,1.3,4.3,4.3,0,0,0,2.712-1.261,7.083,7.083,0,0,0,1.415-2.42" transform="translate(46.567 12.86)" fill="#455a64"/>
            <path id="Trazado_819140" data-name="Trazado 819140" d="M121.752,8.531c.006.051-.385.083-1.053.327a5.031,5.031,0,0,0-2.363,1.816l-.188.269-.189-.281a18.2,18.2,0,0,0-6.776-6.068A14.206,14.206,0,0,0,105.5,3.048a11.873,11.873,0,0,0-6.271,1.459A12.078,12.078,0,0,0,95.37,7.814a9.9,9.9,0,0,0-1.824,4.323l-.069.46-.436-.144a8.2,8.2,0,0,0-6.106.437,7.993,7.993,0,0,0-3.5,3.393,10.971,10.971,0,0,0-1.126,4.279,3.007,3.007,0,0,1-.117-1.2,8.135,8.135,0,0,1,.823-3.293,8.316,8.316,0,0,1,3.623-3.757,8.782,8.782,0,0,1,6.641-.6l-.505.316a10.539,10.539,0,0,1,1.93-4.707,12.716,12.716,0,0,1,4.117-3.557,12.524,12.524,0,0,1,6.716-1.532,14.644,14.644,0,0,1,5.981,1.706,17.774,17.774,0,0,1,6.824,6.476l-.377-.011a4.953,4.953,0,0,1,2.659-1.778,2.2,2.2,0,0,1,1.124-.1" transform="translate(33.77 0.909)" fill="#455a64"/>
            <path id="Trazado_819141" data-name="Trazado 819141" d="M100.265,64.286c-.237-.011-.251-1.555-1.429-2.888-1.133-1.373-2.654-1.63-2.628-1.865.006-.1.419-.206,1.078-.059a4.343,4.343,0,0,1,3.207,3.757c.042.674-.124,1.067-.227,1.055" transform="translate(39.527 24.405)" fill="#ff9b6c"/>
            <path id="Trazado_819142" data-name="Trazado 819142" d="M101.009,60.586c-.21.114-.715-.42-1.474-.8-.746-.406-1.474-.518-1.5-.756-.049-.223.89-.516,1.889.011s1.3,1.463,1.084,1.549" transform="translate(40.278 24.134)" fill="#ff9b6c"/>
            <path id="Trazado_819143" data-name="Trazado 819143" d="M146.561,176.725l19.384,18.681-6.263-35.731,39.345-12.445s10.449,49.037,12.266,60.634c3.26,20.812-.744,50.393-20.134,52.475-20.981,2.252-36.823-18.44-46.9-32.019C136.5,217.882,124,199.629,124,199.629Z" transform="translate(50.945 60.491)" fill="#e0e0e0"/>
            <path id="Trazado_819144" data-name="Trazado 819144" d="M39.2,145.612c-6.314,19.882-15.14,22.886-18.626,79.835-.68,11.1,1.716,25.923,12.25,29.5,11.7,3.977,29.263-3.266,34.881-12.87l.348-39.219Z" transform="translate(8.411 59.826)" fill="#e0e0e0"/>
            <path id="Trazado_819145" data-name="Trazado 819145" d="M54.922,209.2c-.212.065-1.3-3.973-3.874-8.369-2.54-4.417-5.508-7.362-5.347-7.514a8.5,8.5,0,0,1,2.036,1.834,30.767,30.767,0,0,1,6.6,11.373,8.481,8.481,0,0,1,.583,2.676" transform="translate(18.774 79.423)" fill="#263238"/>
            <path id="Trazado_819146" data-name="Trazado 819146" d="M27.009,186.959c.332-1.178,19.751-54.034,25.947-65.6,7.411-13.841,22.99-19.962,32.663-20.559s113.168,7.652,113.168,7.652,28.99,7.283,34.855,33.512c7.355,32.894,13.273,65.331,13.273,65.331l-51.873,11.2-6.1-15.367L91.474,224.871l-23.8-35.2Z" transform="translate(11.097 41.4)" fill="#e0e0e0"/>
            <path id="Trazado_819147" data-name="Trazado 819147" d="M194.554,118.614l-40.427-17.823L149.6,83.357l-47.188,22.309-9.884-10.92-4.138,12.307-10.34,3.38L57.7,150.555l-3.749,92.959.348,24.144,139.465.928-1.132-39.534Z" transform="translate(22.167 34.248)" fill="#e0e0e0"/>
            <path id="Trazado_819148" data-name="Trazado 819148" d="M135.485,83.357s-5.277,1.527-18.827,8.757C103.384,99.2,88.3,105.665,88.3,105.665l1.146,21.308,50.218-25.211" transform="translate(36.278 34.248)" fill="#e0e0e0"/>
            <path id="Trazado_819149" data-name="Trazado 819149" d="M82.516,91.429l9.884,10.92-5.282,22.84-8.8-20.644" transform="translate(32.176 37.564)" fill="#e0e0e0"/>
            <g id="Grupo_1072351" data-name="Grupo 1072351" transform="translate(121.211 138.216)" opacity="0.3">
              <g id="Grupo_1072350" data-name="Grupo 1072350">
                <g id="Grupo_1072349" data-name="Grupo 1072349" clip-path="url(#clip-path-3)">
                  <path id="Trazado_819150" data-name="Trazado 819150" d="M89.094,102.021c-.437.327-3.181,26.359-3.181,26.359L136.25,97.966,90.425,120.971Z" transform="translate(-85.913 -97.966)"/>
                </g>
              </g>
            </g>
            <path id="Trazado_819151" data-name="Trazado 819151" d="M96.456,190.6c.755-19.911-2.384-70.709-2.384-70.709l-6.56-1.057A741.4,741.4,0,0,0,70.677,228.729l-1.851,24.488,27.746.185s-1.036-38.6-.116-62.8" transform="translate(28.278 48.825)" fill="#455a64"/>
            <path id="Trazado_819152" data-name="Trazado 819152" d="M145.141,141.62a12.207,12.207,0,0,1,.468,2.057c.262,1.457.607,3.359,1.021,5.652.842,4.9,1.967,11.436,3.21,18.666,1.27,7.288,2.353,13.9,3.063,18.7.358,2.4.633,4.341.806,5.686a12.051,12.051,0,0,1,.2,2.1,12.206,12.206,0,0,1-.468-2.057c-.264-1.457-.61-3.359-1.026-5.65-.856-4.894-2-11.432-3.265-18.66-1.258-7.291-2.294-13.91-3.008-18.707-.324-2.305-.6-4.22-.8-5.686a12.122,12.122,0,0,1-.2-2.1" transform="translate(59.627 58.186)" fill="#263238"/>
            <path id="Trazado_819153" data-name="Trazado 819153" d="M160.111,110.531c.078.1-1.363,1.22-3.4,3.32A41.2,41.2,0,0,0,146.04,133.7c-.626,2.858-.768,4.678-.892,4.669a4.456,4.456,0,0,1-.011-1.287,26.518,26.518,0,0,1,.419-3.479,37.1,37.1,0,0,1,10.8-20.1,26.2,26.2,0,0,1,2.671-2.269,4.537,4.537,0,0,1,1.079-.7" transform="translate(59.619 45.411)" fill="#263238"/>
            <path id="Trazado_819154" data-name="Trazado 819154" d="M91.183,106.9l-4.5-1.754-4.261,7.308-.769,12.006,6,.966,4.513-7.408Z" transform="translate(33.55 43.201)" fill="#455a64"/>
            <path id="Trazado_819155" data-name="Trazado 819155" d="M54.055,131.706c.193,0,.35,25.989.35,58.041s-.157,58.046-.35,58.046-.35-25.984-.35-58.046.157-58.041.35-58.041" transform="translate(22.065 54.113)" fill="#263238"/>
            <path id="Trazado_819156" data-name="Trazado 819156" d="M92.934,99.038c.086.059-.968,1.673-2.564,4.343s-3.7,6.411-5.714,10.7c-.164.353-.326.7-.478,1.029l-.313.677-.319-.672a83.59,83.59,0,0,1-4.2-10.641c-.436-1.385-.748-2.513-.94-3.3a4.371,4.371,0,0,1-.226-1.234c.1-.028.635,1.662,1.618,4.378s2.445,6.453,4.379,10.494l-.632.006c.152-.329.315-.681.478-1.037a88.927,88.927,0,0,1,5.928-10.666c.854-1.308,1.583-2.341,2.106-3.04a5.022,5.022,0,0,1,.876-1.04" transform="translate(32.116 40.69)" fill="#263238"/>
            <path id="Trazado_819157" data-name="Trazado 819157" d="M139.994,95.715a3.388,3.388,0,0,1-.69.415c-.532.279-1.206.632-2.036,1.064l-7.5,3.888c-6.329,3.29-15,7.98-24.6,13.113-5.849,3.117-11.39,6-16.209,8.416l-.446.222,0-.492c-.061-6.252-.113-11.518-.15-15.328,0-1.79.006-3.235.008-4.319a9.137,9.137,0,0,1,.069-1.536,9.041,9.041,0,0,1,.124,1.531c.041,1.085.1,2.528.164,4.317.1,3.808.238,9.075.4,15.323l-.45-.271c4.791-2.453,10.313-5.364,16.161-8.481,9.6-5.13,18.313-9.755,24.706-12.935,3.193-1.6,5.8-2.85,7.607-3.692l2.1-.945a3.585,3.585,0,0,1,.751-.289" transform="translate(36.301 39.324)" fill="#263238"/>
            <path id="Trazado_819158" data-name="Trazado 819158" d="M59.962,107.353c.1.062-.688,1.4-1.706,3.677a40.615,40.615,0,0,0-3.483,18.945c.14,2.489.4,4.021.286,4.042a3.308,3.308,0,0,1-.315-1.053,24.163,24.163,0,0,1-.466-2.952,35.188,35.188,0,0,1,3.53-19.195,24.5,24.5,0,0,1,1.484-2.593c.392-.587.628-.9.669-.872" transform="translate(22.229 44.107)" fill="#263238"/>
            <path id="Trazado_819159" data-name="Trazado 819159" d="M86.513,120.95c-.1.164-1.244-.372-2.549-1.2s-2.279-1.624-2.176-1.788,1.244.372,2.549,1.2,2.279,1.624,2.176,1.788" transform="translate(33.6 48.456)" fill="#263238"/>
            <path id="Trazado_819160" data-name="Trazado 819160" d="M88.262,121.617c-.176.078-1.543-2.644-3.052-6.078s-2.589-6.281-2.413-6.359,1.543,2.643,3.053,6.078,2.588,6.281,2.411,6.359" transform="translate(34.01 44.857)" fill="#263238"/>
            <g id="Grupo_1072354" data-name="Grupo 1072354" transform="translate(27.701 229.102)" opacity="0.3">
              <g id="Grupo_1072353" data-name="Grupo 1072353">
                <g id="Grupo_1072352" data-name="Grupo 1072352" clip-path="url(#clip-path-4)">
                  <path id="Trazado_819161" data-name="Trazado 819161" d="M129.766,191.577a4.55,4.55,0,0,0-1.556-2.939c-1.669-1.085-3.756.343-5.467,1.363-4.5,2.678-10.058,2.583-15.288,2.356a385.78,385.78,0,0,1-47.106-4.472c-7.624-1.28-15.308-2.946-22.127-6.589s-12.756-9.519-14.947-16.932l-3.641-1.979c2.823,6.023,2.532,23.08,3.544,29.655s3.925,11.26,10.256,13.3a22.231,22.231,0,0,0,7.95.566c25.956-1.287,52.147-.119,78.1-1.4,3.709-.183,8-.686,9.995-3.816,1.682-2.637,1.013-6.07.285-9.111" transform="translate(-19.634 -162.384)"/>
                </g>
              </g>
            </g>
            <g id="Grupo_1072357" data-name="Grupo 1072357" transform="translate(179.58 267.492)" opacity="0.3">
              <g id="Grupo_1072356" data-name="Grupo 1072356">
                <g id="Grupo_1072355" data-name="Grupo 1072355" clip-path="url(#clip-path-5)">
                  <path id="Trazado_819162" data-name="Trazado 819162" d="M127.284,189.595h0c1.9,10.916,5.683,25.673,11.092,35.342h15.765c-5.972-7.469-26.857-35.342-26.857-35.342" transform="translate(-127.284 -189.595)"/>
                </g>
              </g>
            </g>
            <path id="Trazado_819163" data-name="Trazado 819163" d="M166.85,187.515,137.463,150.5l-18.834-4.97-21.854,1.218a4.663,4.663,0,0,0,2.373,5.453l-8.036-.106a4.562,4.562,0,0,0,2.552,6.156l-5.787.6s2.1,6.036,8.586,5.343,17.005.051,17.005.051l10.769,6.964-16.645-1.862-12.283,1.432s-1.82,2.987.872,3.917,13.265.935,13.265.935l14.791,5.868s5.322,8.809,7.218,11.242,11.431,7.365,11.431,7.365l4.537,4.678Z" transform="translate(36.105 59.791)" fill="#ffc09d"/>
            <path id="Trazado_819164" data-name="Trazado 819164" d="M91.441,150.073c.007.171,2.389.238,6.236.207s9.156-.157,15.019-.374l5.629-.231-.229-.035c4.244,1.527,7.933,2.8,10.574,3.667s4.233,1.309,4.282,1.175-1.452-.828-4.02-1.886-6.2-2.483-10.423-4.077l-.107-.041-.123,0c-1.785.059-3.672.123-5.629.186-5.862.217-11.168.484-15.006.738s-6.209.5-6.2.669" transform="translate(37.569 61.003)" fill="#ff9b6c"/>
            <path id="Trazado_819165" data-name="Trazado 819165" d="M90.128,155.009c.013.171,2.177.164,5.663.014s8.3-.442,13.606-.841l5.285-.42-.3-.058c7.31,3.462,12.712,5.817,12.836,5.562s-5.071-3.039-12.315-6.635l-.141-.069-.164.011-5.289.374c-5.308.4-10.109.83-13.578,1.2s-5.611.69-5.6.861" transform="translate(37.03 62.681)" fill="#ff9b6c"/>
            <path id="Trazado_819166" data-name="Trazado 819166" d="M136.453,134.565l-72.72.468h0L50.727,122.224a5.672,5.672,0,0,0-3.98-1.631H16.682a3.183,3.183,0,0,0-3.177,3.379l4.218,68.335L137.71,213.618l1.946-75.789a3.183,3.183,0,0,0-3.2-3.265" transform="translate(5.546 49.547)" fill="#283859"/>
            <path id="Trazado_819167" data-name="Trazado 819167" d="M136.464,207.145,14.894,199.469V125.208H134.424Z" transform="translate(6.119 51.443)" fill="#fafafa"/>
            <path id="Trazado_819168" data-name="Trazado 819168" d="M5.65,133.865l12.234,72.445a5.241,5.241,0,0,0,5.169,4.368h117.8a.094.094,0,0,0,.093-.109l-11.513-78.339a5.241,5.241,0,0,0-5.186-4.479H10.818a5.241,5.241,0,0,0-5.168,6.115" transform="translate(2.291 52.487)" fill="#283859"/>
            <path id="Trazado_819169" data-name="Trazado 819169" d="M1.185,153.477a5.466,5.466,0,0,1-.034-6.733,8.319,8.319,0,0,1,6.381-3.015,18.181,18.181,0,0,1,7.1,1.473,46.221,46.221,0,0,1,8.049,4.015c1.8,1.129,3.657,2.6,4.01,4.688s-1.922,4.479-3.766,3.43c2.394,1.01,4.811,3.543,5.195,6.189s-1.03,4.07-3.593,4.834a3.987,3.987,0,0,1,2.3,5.1c-.938,1.991-3.682,2.537-5.738,1.751s-3.572-2.523-5-4.2a12.233,12.233,0,0,1,1.426,8.406,16.436,16.436,0,0,1-10.749-13.2A7.6,7.6,0,0,1,4.7,156.874c-2.283-.712-4.87-4.193-4.691-6.579" transform="translate(0 59.049)" fill="#ffc09d"/>
            <path id="Trazado_819170" data-name="Trazado 819170" d="M22.463,162.951a21.981,21.981,0,0,1-2.449-1.872,16.5,16.5,0,0,0-6.452-3.3,8.8,8.8,0,0,0-3.925.006,7.323,7.323,0,0,0-2.865,1.431,9.1,9.1,0,0,0-1.865,2.352,1.683,1.683,0,0,1,.219-.815,5.729,5.729,0,0,1,1.357-1.867,7.323,7.323,0,0,1,3.009-1.655,8.949,8.949,0,0,1,4.2-.058,15.172,15.172,0,0,1,6.6,3.568,11.81,11.81,0,0,1,2.171,2.212" transform="translate(2.012 64.484)" fill="#ff9b6c"/>
            <path id="Trazado_819171" data-name="Trazado 819171" d="M22.557,154.861a13.089,13.089,0,0,1-2.973-1.24c-.894-.425-1.951-.942-3.165-1.381a26.8,26.8,0,0,0-4.072-1.055,11.694,11.694,0,0,0-4.134-.041,7.535,7.535,0,0,0-3.063,1.332,7.837,7.837,0,0,0-2,2.386,1.779,1.779,0,0,1,.238-.846,5.479,5.479,0,0,1,1.491-1.885A7.547,7.547,0,0,1,8.1,150.583a11.529,11.529,0,0,1,4.352-.011A23.844,23.844,0,0,1,16.62,151.7a26.451,26.451,0,0,1,3.165,1.528,22.648,22.648,0,0,1,2.772,1.63" transform="translate(1.291 61.781)" fill="#ff9b6c"/>
            <path id="Trazado_819172" data-name="Trazado 819172" d="M193.479,207.4a6.347,6.347,0,0,1-.876-.591L190.151,205l-9.039-6.816-30.534-23.324.464-.02-9.11,8.344L127.659,196.22l.042-.473c8.218,10.785,15.306,20.089,20.385,26.754l5.851,7.785q.965,1.316,1.538,2.1a5.141,5.141,0,0,1,.5.749,4.966,4.966,0,0,1-.6-.674l-1.63-2.027-6.013-7.661-20.593-26.595-.2-.254.238-.22,14.251-13.06c3.122-2.856,6.177-5.646,9.117-8.334l.224-.206.24.186,30.38,23.522,8.908,6.988,2.376,1.9a6.327,6.327,0,0,1,.8.7" transform="translate(52.157 71.531)" fill="#263238"/>
          </g>
        </g>
      </g>
    </g>
    <path id="Sustracción_9" data-name="Sustracción 9" d="M47.253,58.9a68.658,68.658,0,0,1-24.579-4.512,68.919,68.919,0,0,1-20.7-12.429A69.586,69.586,0,0,1-13.192,23.273,69.173,69.173,0,0,1-21.171,0H115.677A69.17,69.17,0,0,1,107.7,23.273,69.586,69.586,0,0,1,92.532,41.956a68.919,68.919,0,0,1-20.7,12.429A68.66,68.66,0,0,1,47.253,58.9Z" transform="translate(1319.678 9264) rotate(180)" fill="#8054f8"/>
  </g>
</svg>
